g C_ENV_TunnelRing_01
v -5.820744 29.26286 9.04515
v -5.820769 29.26286 -9.04515
v -2.92446 29.69249 -9.04515
v -2.924453 29.69249 9.04515
v 1.34632E-05 29.83616 -9.04515
v -1.721829E-05 29.83616 9.04515
v 2.92445 29.69249 -9.04515
v 2.924455 29.69249 9.04515
v 5.820738 29.26286 -9.04515
v 5.820747 29.26286 9.04515
v -2.924453 29.69249 9.04515
v -2.622632 26.62802 9.04923
v -5.220005 26.24273 9.04923
v -5.820744 29.26286 9.04515
v -1.721829E-05 29.83616 9.04515
v -1.86637E-06 26.75686 9.04923
v -2.622632 26.62802 9.04923
v -2.924453 29.69249 9.04515
v 2.924455 29.69249 9.04515
v 2.622629 26.62802 9.04923
v -1.86637E-06 26.75686 9.04923
v -1.721829E-05 29.83616 9.04515
v 5.820747 29.26286 9.04515
v 5.220002 26.24273 9.04923
v 2.622629 26.62802 9.04923
v 2.924455 29.69249 9.04515
v -5.220005 26.24273 -9.04515
v -5.220005 26.24273 9.04923
v -2.622632 26.62802 9.04923
v -2.622632 26.62802 -9.04515
v -2.622632 26.62802 -9.04515
v -2.622632 26.62802 9.04923
v -1.86637E-06 26.75686 9.04923
v -1.86637E-06 26.75686 -9.04515
v -1.86637E-06 26.75686 -9.04515
v -1.86637E-06 26.75686 9.04923
v 2.622629 26.62802 9.04923
v 2.622629 26.62802 -9.04515
v 2.622629 26.62802 -9.04515
v 2.622629 26.62802 9.04923
v 5.220002 26.24273 9.04923
v 5.220002 26.24273 -9.04515
v -2.92446 29.69249 -9.04515
v -5.820769 29.26286 -9.04515
v -5.220005 26.24273 -9.04515
v -2.622632 26.62802 -9.04515
v 1.34632E-05 29.83616 -9.04515
v -2.92446 29.69249 -9.04515
v -2.622632 26.62802 -9.04515
v -1.86637E-06 26.75686 -9.04515
v 2.92445 29.69249 -9.04515
v 1.34632E-05 29.83616 -9.04515
v -1.86637E-06 26.75686 -9.04515
v 2.622629 26.62802 -9.04515
v 5.820738 29.26286 -9.04515
v 2.92445 29.69249 -9.04515
v 2.622629 26.62802 -9.04515
v 5.220002 26.24273 -9.04515
v 5.820738 29.26286 -9.04515
v 5.220002 26.24273 -9.04515
v 5.220002 26.24273 9.04923
v 5.820747 29.26286 9.04515
v -5.820744 29.26286 9.04515
v -5.220005 26.24273 9.04923
v -5.220005 26.24273 -9.04515
v -5.820769 29.26286 -9.04515
vt 0.5507813 0.3125
vt 0.5507813 0.6884398
vt 0.5546875 0.6884398
vt 0.5546875 0.3125
vt 0.5585938 0.6884398
vt 0.5585938 0.3125
vt 0.5625 0.6884398
vt 0.5625 0.3125
vt 0.5664063 0.6884398
vt 0.5664063 0.3125
vt 0.5546875 0.3125
vt 1 1
vt 0 1
vt 0.5507813 0.3125
vt 0.5585938 0.3125
vt 1 1
vt 0 1
vt 0.5546875 0.3125
vt 0.5625 0.3125
vt 1 1
vt 0 1
vt 0.5585938 0.3125
vt 0.5664063 0.3125
vt 1 1
vt 0 1
vt 0.5625 0.3125
vt 0 0
vt 0 1
vt 1 1
vt 1 0
vt 0 0
vt 0 1
vt 1 1
vt 1 0
vt 0 0
vt 0 1
vt 1 1
vt 1 0
vt 0 0
vt 0 1
vt 1 1
vt 1 0
vt 0.5546875 0.6884398
vt 0.5507813 0.6884398
vt 0 0
vt 1 0
vt 0.5585938 0.6884398
vt 0.5546875 0.6884398
vt 0 0
vt 1 0
vt 0.5625 0.6884398
vt 0.5585938 0.6884398
vt 0 0
vt 1 0
vt 0.5664063 0.6884398
vt 0.5625 0.6884398
vt 0 0
vt 1 0
vt 0.5664063 0.6884398
vt 1 0
vt 1 1
vt 0.5664063 0.3125
vt 0.5507813 0.3125
vt 0 1
vt 0 0
vt 0.5507813 0.6884398
vn -0.1467309 0.9891765 0
vn -0.1467309 0.9891765 0
vn -0.09801771 0.9951847 0
vn -0.09801769 0.9951847 0
vn 0 1 0
vn 0 1 0
vn 0.09801752 0.9951847 0
vn 0.09801754 0.9951847 0
vn 0.1467306 0.9891765 0
vn 0.1467306 0.9891765 0
vn -0.0001297537 0.001318537 0.9999992
vn -0.0001297537 0.001318537 0.9999992
vn -0.0001945186 0.001312157 0.9999992
vn -0.0001945186 0.001312157 0.9999992
vn 0 0.001324918 0.9999992
vn 0 0.001324918 0.9999992
vn -0.0001297537 0.001318537 0.9999992
vn -0.0001297537 0.001318537 0.9999992
vn 0.0001297534 0.001318538 0.9999992
vn 0.0001297534 0.001318538 0.9999992
vn 0 0.001324918 0.9999992
vn 0 0.001324918 0.9999992
vn 0.0001945186 0.001312157 0.9999992
vn 0.0001945186 0.001312157 0.9999992
vn 0.0001297534 0.001318538 0.9999992
vn 0.0001297534 0.001318538 0.9999992
vn 0.1467306 -0.9891765 0
vn 0.1467306 -0.9891765 0
vn 0.1467306 -0.9891765 0
vn 0.1467306 -0.9891765 0
vn 0.04906689 -0.9987955 0
vn 0.04906689 -0.9987955 0
vn 0.04906689 -0.9987955 0
vn 0.04906689 -0.9987955 0
vn -0.04906688 -0.9987955 0
vn -0.04906688 -0.9987955 0
vn -0.04906688 -0.9987955 0
vn -0.04906688 -0.9987955 0
vn -0.1467307 -0.9891765 0
vn -0.1467307 -0.9891765 0
vn -0.1467307 -0.9891765 0
vn -0.1467307 -0.9891765 0
vn 0 0 -1
vn 0 0 -1
vn 0 0 -1
vn 0 0 -1
vn 0 0 -1
vn 0 0 -1
vn 0 0 -1
vn 0 0 -1
vn 0 0 -1
vn 0 0 -1
vn 0 0 -1
vn 0 0 -1
vn 0 0 -1
vn 0 0 -1
vn 0 0 -1
vn 0 0 -1
vn 0.9807854 -0.1950902 0
vn 0.9807854 -0.1950902 0
vn 0.9807854 -0.1950902 0
vn 0.9807854 -0.1950902 0
vn -0.9807847 -0.1950934 0
vn -0.9807847 -0.1950934 0
vn -0.9807847 -0.1950935 0
vn -0.9807847 -0.1950935 0
g C_ENV_TunnelRing_01_0
f 3/3/3 2/2/2 1/1/1
f 4/4/4 3/3/3 1/1/1
f 5/5/5 3/3/3 4/4/4
f 6/6/6 5/5/5 4/4/4
f 7/7/7 5/5/5 6/6/6
f 8/8/8 7/7/7 6/6/6
f 9/9/9 7/7/7 8/8/8
f 10/10/10 9/9/9 8/8/8
f 13/13/13 12/12/12 11/11/11
f 14/14/14 13/13/13 11/11/11
f 17/17/17 16/16/16 15/15/15
f 18/18/18 17/17/17 15/15/15
f 21/21/21 20/20/20 19/19/19
f 22/22/22 21/21/21 19/19/19
f 25/25/25 24/24/24 23/23/23
f 26/26/26 25/25/25 23/23/23
f 29/29/29 28/28/28 27/27/27
f 30/30/30 29/29/29 27/27/27
f 33/33/33 32/32/32 31/31/31
f 34/34/34 33/33/33 31/31/31
f 37/37/37 36/36/36 35/35/35
f 38/38/38 37/37/37 35/35/35
f 41/41/41 40/40/40 39/39/39
f 42/42/42 41/41/41 39/39/39
f 45/45/45 44/44/44 43/43/43
f 46/46/46 45/45/45 43/43/43
f 49/49/49 48/48/48 47/47/47
f 50/50/50 49/49/49 47/47/47
f 53/53/53 52/52/52 51/51/51
f 54/54/54 53/53/53 51/51/51
f 57/57/57 56/56/56 55/55/55
f 58/58/58 57/57/57 55/55/55
f 61/61/61 60/60/60 59/59/59
f 62/62/62 61/61/61 59/59/59
f 65/65/65 64/64/64 63/63/63
f 66/66/66 65/65/65 63/63/63
