g C_ENV_TunnelRing_02
v -8.640304 28.51484 9.04515
v -8.640309 28.51483 -9.04515
v -4.860172 29.43764 -9.04515
v -4.860187 29.43764 9.04515
v -1.951357 29.77228 -9.04515
v -1.951404 29.77227 9.04515
v 0.9761972 29.82018 -9.04515
v 0.9761782 29.82018 9.04515
v 3.894401 29.5809 -9.04515
v 3.894402 29.5809 9.04515
v 6.775107 29.05674 -9.04515
v 6.775094 29.05674 9.04515
v 8.651022 28.55944 -9.04515
v 8.651019 28.55944 9.04515
v -4.860187 29.43764 9.04515
v -4.358573 26.39947 9.04923
v -7.793172 25.6061 9.04923
v -8.640304 28.51484 9.04515
v -1.951404 29.77227 9.04515
v -1.749988 26.69956 9.04923
v -4.358573 26.39947 9.04923
v -4.860187 29.43764 9.04515
v 0.9761782 29.82018 9.04515
v 0.8754587 26.74253 9.04923
v -1.749988 26.69956 9.04923
v -1.951404 29.77227 9.04515
v 3.894402 29.5809 9.04515
v 3.492465 26.52795 9.04923
v 0.8754587 26.74253 9.04923
v 0.9761782 29.82018 9.04515
v 6.775094 29.05674 9.04515
v 6.075842 26.05788 9.04923
v 3.492465 26.52795 9.04923
v 3.894402 29.5809 9.04515
v 8.651019 28.55944 9.04515
v 7.746691 25.63121 9.04923
v 6.075842 26.05788 9.04923
v 6.775094 29.05674 9.04515
v -7.793172 25.6061 -9.04515
v -7.793172 25.6061 9.04923
v -4.358573 26.39947 9.04923
v -4.358573 26.39947 -9.04515
v -4.358573 26.39947 -9.04515
v -4.358573 26.39947 9.04923
v -1.749988 26.69956 9.04923
v -1.749988 26.69956 -9.04515
v -1.749988 26.69956 -9.04515
v -1.749988 26.69956 9.04923
v 0.8754587 26.74253 9.04923
v 0.8754587 26.74253 -9.04515
v 0.8754587 26.74253 -9.04515
v 0.8754587 26.74253 9.04923
v 3.492465 26.52795 9.04923
v 3.492465 26.52795 -9.04515
v 3.492465 26.52795 -9.04515
v 3.492465 26.52795 9.04923
v 6.075842 26.05788 9.04923
v 6.075842 26.05788 -9.04515
v 6.075842 26.05788 -9.04515
v 6.075842 26.05788 9.04923
v 7.746691 25.63121 9.04923
v 7.746691 25.63121 -9.04515
v -4.860172 29.43764 -9.04515
v -8.640309 28.51483 -9.04515
v -7.793172 25.6061 -9.04515
v -4.358573 26.39947 -9.04515
v -1.951357 29.77228 -9.04515
v -4.860172 29.43764 -9.04515
v -4.358573 26.39947 -9.04515
v -1.749988 26.69956 -9.04515
v 0.9761972 29.82018 -9.04515
v -1.951357 29.77228 -9.04515
v -1.749988 26.69956 -9.04515
v 0.8754587 26.74253 -9.04515
v 3.894401 29.5809 -9.04515
v 0.9761972 29.82018 -9.04515
v 0.8754587 26.74253 -9.04515
v 3.492465 26.52795 -9.04515
v 6.775107 29.05674 -9.04515
v 3.894401 29.5809 -9.04515
v 3.492465 26.52795 -9.04515
v 6.075842 26.05788 -9.04515
v 8.651022 28.55944 -9.04515
v 6.775107 29.05674 -9.04515
v 6.075842 26.05788 -9.04515
v 7.746691 25.63121 -9.04515
v -7.793172 25.6061 9.04923
v -7.793172 25.6061 -9.04515
v -8.640309 28.51483 -9.04515
v -8.640304 28.51484 9.04515
v 8.651022 28.55944 -9.04515
v 7.746691 25.63121 -9.04515
v 7.746691 25.63121 9.04923
v 8.651019 28.55944 9.04515
vt 0.4648438 0.3125
vt 0.4648438 0.6884398
vt 0.46875 0.6884398
vt 0.46875 0.3125
vt 0.4726563 0.6884398
vt 0.4726563 0.3125
vt 0.4765625 0.6884398
vt 0.4765625 0.3125
vt 0.4804688 0.6884398
vt 0.4804688 0.3125
vt 0.484375 0.6884398
vt 0.484375 0.3125
vt 0.4882813 0.6884398
vt 0.4882813 0.3125
vt 0.46875 0.3125
vt 1 1
vt 0 1
vt 0.4648438 0.3125
vt 0.4726563 0.3125
vt 1 1
vt 0 1
vt 0.46875 0.3125
vt 0.4765625 0.3125
vt 1 1
vt 0 1
vt 0.4726563 0.3125
vt 0.4804688 0.3125
vt 1 1
vt 0 1
vt 0.4765625 0.3125
vt 0.484375 0.3125
vt 1 1
vt 0 1
vt 0.4804688 0.3125
vt 0.4882813 0.3125
vt 1 1
vt 0 1
vt 0.484375 0.3125
vt 0 0
vt 0 1
vt 1 1
vt 1 0
vt 0 0
vt 0 1
vt 1 1
vt 1 0
vt 0 0
vt 0 1
vt 1 1
vt 1 0
vt 0 0
vt 0 1
vt 1 1
vt 1 0
vt 0 0
vt 0 1
vt 1 1
vt 1 0
vt 0 0
vt 0 1
vt 1 1
vt 1 0
vt 0.46875 0.6884398
vt 0.4648438 0.6884398
vt 0 0
vt 1 0
vt 0.4726563 0.6884398
vt 0.46875 0.6884398
vt 0 0
vt 1 0
vt 0.4765625 0.6884398
vt 0.4726563 0.6884398
vt 0 0
vt 1 0
vt 0.4804688 0.6884398
vt 0.4765625 0.6884398
vt 0 0
vt 1 0
vt 0.484375 0.6884398
vt 0.4804688 0.6884398
vt 0 0
vt 1 0
vt 0.4882813 0.6884398
vt 0.484375 0.6884398
vt 0 0
vt 1 0
vt 0 1
vt 0 0
vt 0.4648438 0.6884398
vt 0.4648438 0.3125
vt 0.4882813 0.6884398
vt 1 0
vt 1 1
vt 0.4882813 0.3125
vn -0.2371562 0.9714715 0
vn -0.2371562 0.9714715 0
vn -0.1847522 0.9827852 0
vn -0.1847522 0.9827852 0
vn -0.06540358 0.9978589 0
vn -0.06540373 0.9978588 0
vn 0.03271926 0.9994646 0
vn 0.03271919 0.9994646 0
vn 0.130526 0.9914449 0
vn 0.130526 0.9914449 0
vn 0.2099595 0.9777101 0
vn 0.2099594 0.9777101 0
vn 0.2562466 0.9666114 0
vn 0.2562466 0.9666114 0
vn -0.0002411254 0.001308792 0.9999992
vn -0.0002421519 0.001308688 0.9999992
vn -0.0003097652 0.001301847 0.9999992
vn -0.0003097652 0.001301847 0.9999992
vn -8.676326E-05 0.00132208 0.9999992
vn -8.676278E-05 0.00132208 0.9999992
vn -0.0002421519 0.001308688 0.9999992
vn -0.0002411254 0.001308792 0.9999992
vn 4.343677E-05 0.001324208 0.9999992
vn 4.343755E-05 0.001324208 0.9999992
vn -8.676278E-05 0.00132208 0.9999992
vn -8.676326E-05 0.00132208 0.9999992
vn 0.000172967 0.001313582 0.9999992
vn 0.0001729668 0.001313582 0.9999992
vn 4.343755E-05 0.001324208 0.9999992
vn 4.343677E-05 0.001324208 0.9999992
vn 0.0002765684 0.00129746 0.9999992
vn 0.0002758665 0.001297597 0.9999992
vn 0.0001729668 0.001313582 0.9999992
vn 0.000172967 0.001313582 0.9999992
vn 0.0003352991 0.001286028 0.9999992
vn 0.0003352992 0.001286028 0.9999992
vn 0.0002758665 0.001297597 0.9999992
vn 0.0002765684 0.00129746 0.9999992
vn 0.2250683 -0.974343 0
vn 0.2250683 -0.974343 0
vn 0.2250683 -0.974343 0
vn 0.2250683 -0.974343 0
vn 0.1142859 -0.9934478 0
vn 0.1142859 -0.9934478 0
vn 0.1142859 -0.9934478 0
vn 0.1142859 -0.9934478 0
vn 0.01636408 -0.9998661 0
vn 0.01636408 -0.9998661 0
vn 0.01636408 -0.9998661 0
vn 0.01636408 -0.9998661 0
vn -0.08172113 -0.9966552 0
vn -0.08172113 -0.9966552 0
vn -0.08172113 -0.9966552 0
vn -0.08172113 -0.9966552 0
vn -0.1790179 -0.9838458 0
vn -0.1790179 -0.9838458 0
vn -0.1790179 -0.9838458 0
vn -0.1790179 -0.9838458 0
vn -0.2474216 -0.9689079 0
vn -0.2474216 -0.9689079 0
vn -0.2474216 -0.9689079 0
vn -0.2474216 -0.9689079 0
vn 0 0 -1
vn 0 0 -1
vn 0 0 -1
vn 0 0 -1
vn 0 0 -1
vn 0 0 -1
vn 0 0 -1
vn 0 0 -1
vn 0 0 -1
vn 0 0 -1
vn 0 0 -1
vn 0 0 -1
vn 0 0 -1
vn 0 0 -1
vn 0 0 -1
vn 0 0 -1
vn 0 0 -1
vn 0 0 -1
vn 0 0 -1
vn 0 0 -1
vn 0 0 -1
vn 0 0 -1
vn 0 0 -1
vn 0 0 -1
vn -0.9601105 -0.2796208 0
vn -0.9601105 -0.2796209 0
vn -0.9601105 -0.2796208 0
vn -0.9601105 -0.2796208 0
vn 0.9554724 -0.2950806 0
vn 0.9554724 -0.2950806 0
vn 0.9554724 -0.2950806 0
vn 0.9554724 -0.2950806 0
g C_ENV_TunnelRing_02_0
f 3/3/3 2/2/2 1/1/1
f 4/4/4 3/3/3 1/1/1
f 5/5/5 3/3/3 4/4/4
f 6/6/6 5/5/5 4/4/4
f 7/7/7 5/5/5 6/6/6
f 8/8/8 7/7/7 6/6/6
f 9/9/9 7/7/7 8/8/8
f 10/10/10 9/9/9 8/8/8
f 11/11/11 9/9/9 10/10/10
f 12/12/12 11/11/11 10/10/10
f 13/13/13 11/11/11 12/12/12
f 14/14/14 13/13/13 12/12/12
f 17/17/17 16/16/16 15/15/15
f 18/18/18 17/17/17 15/15/15
f 21/21/21 20/20/20 19/19/19
f 22/22/22 21/21/21 19/19/19
f 25/25/25 24/24/24 23/23/23
f 26/26/26 25/25/25 23/23/23
f 29/29/29 28/28/28 27/27/27
f 30/30/30 29/29/29 27/27/27
f 33/33/33 32/32/32 31/31/31
f 34/34/34 33/33/33 31/31/31
f 37/37/37 36/36/36 35/35/35
f 38/38/38 37/37/37 35/35/35
f 41/41/41 40/40/40 39/39/39
f 42/42/42 41/41/41 39/39/39
f 45/45/45 44/44/44 43/43/43
f 46/46/46 45/45/45 43/43/43
f 49/49/49 48/48/48 47/47/47
f 50/50/50 49/49/49 47/47/47
f 53/53/53 52/52/52 51/51/51
f 54/54/54 53/53/53 51/51/51
f 57/57/57 56/56/56 55/55/55
f 58/58/58 57/57/57 55/55/55
f 61/61/61 60/60/60 59/59/59
f 62/62/62 61/61/61 59/59/59
f 65/65/65 64/64/64 63/63/63
f 66/66/66 65/65/65 63/63/63
f 69/69/69 68/68/68 67/67/67
f 70/70/70 69/69/69 67/67/67
f 73/73/73 72/72/72 71/71/71
f 74/74/74 73/73/73 71/71/71
f 77/77/77 76/76/76 75/75/75
f 78/78/78 77/77/77 75/75/75
f 81/81/81 80/80/80 79/79/79
f 82/82/82 81/81/81 79/79/79
f 85/85/85 84/84/84 83/83/83
f 86/86/86 85/85/85 83/83/83
f 89/89/89 88/88/88 87/87/87
f 90/90/90 89/89/89 87/87/87
f 93/93/93 92/92/92 91/91/91
f 94/94/94 93/93/93 91/91/91
