g C_ENV_TunnelRing_04
v 24.25221 17.3789 9.04515
v 24.84719 16.50647 -9.04515
v 24.8472 16.50646 9.04515
v 24.25221 17.3789 -9.04515
v 22.432 19.67235 9.04515
v 22.432 19.67235 -9.04515
v 20.39576 21.77634 9.04515
v 20.39574 21.77635 -9.04515
v 18.1631 23.67062 9.04515
v 18.1631 23.67061 -9.04515
v 15.75551 25.33693 9.04515
v 15.7555 25.33693 -9.04515
v 13.19619 26.75923 9.04515
v 13.1962 26.75923 -9.04515
v 10.50978 27.92383 9.04515
v 10.50977 27.92384 -9.04515
v 7.722147 28.81952 9.04515
v 7.722147 28.81952 -9.04515
v 4.860155 29.43764 9.04515
v 4.860155 29.43764 -9.04515
v 1.951369 29.77227 9.04515
v 1.951364 29.77227 -9.04515
v -0.9762211 29.82017 9.04515
v -0.9762249 29.82017 -9.04515
v -3.894395 29.5809 9.04515
v -3.894395 29.5809 -9.04515
v -6.775084 29.05674 9.04515
v -6.775111 29.05673 -9.04515
v -9.590508 28.25275 9.04515
v -9.590531 28.25274 -9.04515
v -12.31358 27.17667 9.04515
v -12.31359 27.17667 -9.04515
v -14.91808 25.83887 9.04515
v -14.91807 25.83888 -9.04515
v -17.37891 24.25222 9.04515
v -17.37889 24.25222 -9.04515
v -19.67235 22.43201 9.04515
v -19.67235 22.43201 -9.04515
v -21.77634 20.39576 9.04515
v -21.77635 20.39576 -9.04515
v -23.67062 18.1631 9.04515
v -23.67062 18.1631 -9.04515
v -24.77684 16.52749 9.04515
v -24.77683 16.52751 -9.04515
v 24.8472 16.50646 9.04515
v 22.22557 14.83878 9.04923
v 21.74921 15.58528 9.04923
v 24.25221 17.3789 9.04515
v 20.11686 17.64203 9.04923
v 22.432 19.67235 9.04515
v 18.29077 19.52887 9.04923
v 20.39576 21.77634 9.04515
v 16.28853 21.22764 9.04923
v 18.1631 23.67062 9.04515
v 14.12942 22.72198 9.04923
v 15.75551 25.33693 9.04515
v 11.83425 23.99749 9.04923
v 13.19619 26.75923 9.04515
v 9.42509 25.0419 9.04923
v 10.50978 27.92383 9.04515
v 6.925177 25.84514 9.04923
v 7.722147 28.81952 9.04515
v 4.358564 26.39947 9.04923
v 4.860155 29.43764 9.04515
v 1.749971 26.69956 9.04923
v 1.951369 29.77227 9.04515
v -0.8754711 26.74253 9.04923
v -0.9762211 29.82017 9.04515
v -3.492481 26.52794 9.04923
v -3.894395 29.5809 9.04515
v -6.075855 26.05788 9.04923
v -6.775084 29.05674 9.04515
v -8.600716 25.33686 9.04923
v -9.590508 28.25275 9.04515
v -11.04275 24.37184 9.04923
v -12.31358 27.17667 9.04515
v -13.37843 23.17212 9.04923
v -14.91808 25.83887 9.04515
v -15.58527 21.74922 9.04923
v -17.37891 24.25222 9.04515
v -17.64202 20.11687 9.04923
v -19.67235 22.43201 9.04515
v -19.52887 18.29078 9.04923
v -21.77634 20.39576 9.04515
v -21.22764 16.28854 9.04923
v -23.67062 18.1631 9.04515
v -22.21401 14.8276 9.04923
v -24.77684 16.52749 9.04515
v -11.04275 24.37184 -9.04515
v -11.04275 24.37184 9.04923
v -8.600716 25.33686 9.04923
v -8.600716 25.33686 -9.04515
v -8.600716 25.33686 -9.04515
v -8.600716 25.33686 9.04923
v -6.075855 26.05788 9.04923
v -6.075855 26.05788 -9.04515
v -6.075855 26.05788 -9.04515
v -6.075855 26.05788 9.04923
v -3.492481 26.52794 9.04923
v -3.492481 26.52794 -9.04515
v -3.492481 26.52794 -9.04515
v -3.492481 26.52794 9.04923
v -0.8754711 26.74253 9.04923
v -0.8754711 26.74253 -9.04515
v -0.8754711 26.74253 -9.04515
v -0.8754711 26.74253 9.04923
v 1.749971 26.69956 9.04923
v 1.749971 26.69956 -9.04515
v 1.749971 26.69956 -9.04515
v 1.749971 26.69956 9.04923
v 4.358564 26.39947 9.04923
v 4.358564 26.39947 -9.04515
v 4.358564 26.39947 -9.04515
v 4.358564 26.39947 9.04923
v 6.925177 25.84514 9.04923
v 6.925177 25.84514 -9.04515
v 6.925177 25.84514 -9.04515
v 6.925177 25.84514 9.04923
v 9.42509 25.0419 9.04923
v 9.42509 25.0419 -9.04515
v 9.42509 25.0419 -9.04515
v 9.42509 25.0419 9.04923
v 11.83425 23.99749 9.04923
v 11.83425 23.99749 -9.04515
v 11.83425 23.99749 -9.04515
v 11.83425 23.99749 9.04923
v 14.12942 22.72198 9.04923
v 14.12942 22.72198 -9.04515
v 14.12942 22.72198 -9.04515
v 14.12942 22.72198 9.04923
v 16.28853 21.22764 9.04923
v 16.28853 21.22764 -9.04515
v 16.28853 21.22764 -9.04515
v 16.28853 21.22764 9.04923
v 18.29077 19.52887 9.04923
v 18.29077 19.52887 -9.04515
v 18.29077 19.52887 -9.04515
v 18.29077 19.52887 9.04923
v 20.11686 17.64203 9.04923
v 20.11686 17.64203 -9.04515
v 20.11686 17.64203 -9.04515
v 20.11686 17.64203 9.04923
v 21.74921 15.58528 9.04923
v 21.74921 15.58528 -9.04515
v 21.74921 15.58528 -9.04515
v 21.74921 15.58528 9.04923
v 22.22557 14.83878 9.04923
v 22.22557 14.83878 -9.04515
v -22.21401 14.8276 -9.04515
v -22.21401 14.8276 9.04923
v -21.22764 16.28854 9.04923
v -21.22764 16.28854 -9.04515
v -21.22764 16.28854 -9.04515
v -21.22764 16.28854 9.04923
v -19.52887 18.29078 9.04923
v -19.52887 18.29078 -9.04515
v -19.52887 18.29078 -9.04515
v -19.52887 18.29078 9.04923
v -17.64202 20.11687 9.04923
v -17.64202 20.11687 -9.04515
v -17.64202 20.11687 -9.04515
v -17.64202 20.11687 9.04923
v -15.58527 21.74922 9.04923
v -15.58527 21.74922 -9.04515
v -15.58527 21.74922 -9.04515
v -15.58527 21.74922 9.04923
v -13.37843 23.17212 9.04923
v -13.37843 23.17212 -9.04515
v -13.37843 23.17212 -9.04515
v -13.37843 23.17212 9.04923
v -11.04275 24.37184 9.04923
v -11.04275 24.37184 -9.04515
v 24.84719 16.50647 -9.04515
v 21.74921 15.58528 -9.04515
v 22.22557 14.83878 -9.04515
v 24.25221 17.3789 -9.04515
v 20.11686 17.64203 -9.04515
v 22.432 19.67235 -9.04515
v 18.29077 19.52887 -9.04515
v 20.39574 21.77635 -9.04515
v 16.28853 21.22764 -9.04515
v 18.1631 23.67061 -9.04515
v 14.12942 22.72198 -9.04515
v 15.7555 25.33693 -9.04515
v 11.83425 23.99749 -9.04515
v 13.1962 26.75923 -9.04515
v 9.42509 25.0419 -9.04515
v 10.50977 27.92384 -9.04515
v 6.925177 25.84514 -9.04515
v 7.722147 28.81952 -9.04515
v 4.358564 26.39947 -9.04515
v 4.860155 29.43764 -9.04515
v 1.749971 26.69956 -9.04515
v 1.951364 29.77227 -9.04515
v -0.8754711 26.74253 -9.04515
v -0.9762249 29.82017 -9.04515
v -3.492481 26.52794 -9.04515
v -3.894395 29.5809 -9.04515
v -6.075855 26.05788 -9.04515
v -6.775111 29.05673 -9.04515
v -8.600716 25.33686 -9.04515
v -9.590531 28.25274 -9.04515
v -11.04275 24.37184 -9.04515
v -12.31359 27.17667 -9.04515
v -13.37843 23.17212 -9.04515
v -14.91807 25.83888 -9.04515
v -15.58527 21.74922 -9.04515
v -17.37889 24.25222 -9.04515
v -17.64202 20.11687 -9.04515
v -19.67235 22.43201 -9.04515
v -19.52887 18.29078 -9.04515
v -21.77635 20.39576 -9.04515
v -21.22764 16.28854 -9.04515
v -23.67062 18.1631 -9.04515
v -22.21401 14.8276 -9.04515
v -24.77683 16.52751 -9.04515
v -24.77684 16.52749 9.04515
v -22.21401 14.8276 9.04923
v -22.21401 14.8276 -9.04515
v -24.77683 16.52751 -9.04515
v 24.84719 16.50647 -9.04515
v 22.22557 14.83878 -9.04515
v 22.22557 14.83878 9.04923
v 24.8472 16.50646 9.04515
vt 0.6822285 0.01267839
vt 0.3178555 0.0003116687
vt 0.6822305 0.0003484988
vt 0.3178536 0.0126415
vt 0.6822231 0.05024875
vt 0.3178482 0.05021192
vt 0.6822174 0.09209414
vt 0.3178425 0.09205755
vt 0.6822114 0.1378112
vt 0.3178365 0.1377741
vt 0.6822053 0.1869601
vt 0.3178303 0.1869232
vt 0.682199 0.2390672
vt 0.317824 0.23903
vt 0.6821926 0.2936307
vt 0.3178177 0.293594
vt 0.6821864 0.3501256
vt 0.3178113 0.3500887
vt 0.68218 0.4080071
vt 0.3178051 0.4079702
vt 0.6821739 0.4667179
vt 0.317799 0.4666811
vt 0.6821679 0.525693
vt 0.317793 0.5256562
vt 0.6821622 0.5843639
vt 0.3177872 0.5843269
vt 0.6821567 0.6421663
vt 0.3177818 0.6421299
vt 0.6821516 0.6985427
vt 0.3177767 0.6985062
vt 0.682147 0.7529508
vt 0.317772 0.752914
vt 0.6821427 0.8048667
vt 0.3177678 0.8048297
vt 0.682139 0.85379
vt 0.317764 0.8537529
vt 0.6821357 0.8992495
vt 0.3177607 0.8992125
vt 0.6821329 0.9408076
vt 0.3177581 0.9407708
vt 0.6821309 0.9780639
vt 0.3177559 0.9780269
vt 0.6821298 0.9996886
vt 0.3177549 0.9996514
vt 0.6822305 0.0003484988
vt 0.6823086 0.05247777
vt 0.6823071 0.06236846
vt 0.6822285 0.01267839
vt 0.6823022 0.0960613
vt 0.6822231 0.05024875
vt 0.682297 0.1335879
vt 0.6822174 0.09209414
vt 0.6822917 0.1745868
vt 0.6822114 0.1378112
vt 0.6822862 0.2186632
vt 0.6822053 0.1869601
vt 0.6822805 0.2653923
vt 0.682199 0.2390672
vt 0.6822748 0.3143247
vt 0.6821926 0.2936307
vt 0.6822692 0.3649885
vt 0.6821864 0.3501256
vt 0.6822635 0.4168963
vt 0.68218 0.4080071
vt 0.682258 0.4695479
vt 0.6821739 0.4667179
vt 0.6822526 0.5224364
vt 0.6821679 0.525693
vt 0.6822475 0.5750523
vt 0.6821622 0.5843639
vt 0.6822426 0.6268889
vt 0.6821567 0.6421663
vt 0.6822381 0.6774471
vt 0.6821516 0.6985427
vt 0.6822338 0.72624
vt 0.682147 0.7529508
vt 0.68223 0.7727974
vt 0.6821427 0.8048667
vt 0.6822266 0.8166714
vt 0.682139 0.85379
vt 0.6822237 0.8574391
vt 0.6821357 0.8992495
vt 0.6822213 0.894708
vt 0.6821329 0.9408076
vt 0.6822194 0.9281194
vt 0.6821309 0.9780639
vt 0.6822185 0.9474001
vt 0.6821298 0.9996886
vt 0.3177767 0.726203
vt 0.6822338 0.72624
vt 0.6822381 0.6774471
vt 0.3177809 0.6774101
vt 0.3177809 0.6774101
vt 0.6822381 0.6774471
vt 0.6822426 0.6268889
vt 0.3177855 0.6268519
vt 0.3177855 0.6268519
vt 0.6822426 0.6268889
vt 0.6822475 0.5750523
vt 0.3177904 0.5750153
vt 0.3177904 0.5750153
vt 0.6822475 0.5750523
vt 0.6822526 0.5224364
vt 0.3177955 0.5223995
vt 0.3177955 0.5223995
vt 0.6822526 0.5224364
vt 0.682258 0.4695479
vt 0.3178009 0.469511
vt 0.3178009 0.469511
vt 0.682258 0.4695479
vt 0.6822635 0.4168963
vt 0.3178064 0.4168593
vt 0.3178064 0.4168593
vt 0.6822635 0.4168963
vt 0.6822692 0.3649885
vt 0.3178121 0.3649515
vt 0.3178121 0.3649515
vt 0.6822692 0.3649885
vt 0.6822748 0.3143247
vt 0.3178177 0.3142878
vt 0.3178177 0.3142878
vt 0.6822748 0.3143247
vt 0.6822805 0.2653923
vt 0.3178234 0.2653554
vt 0.3178234 0.2653554
vt 0.6822805 0.2653923
vt 0.6822862 0.2186632
vt 0.317829 0.2186262
vt 0.317829 0.2186262
vt 0.6822862 0.2186632
vt 0.6822917 0.1745868
vt 0.3178345 0.1745498
vt 0.3178345 0.1745498
vt 0.6822917 0.1745868
vt 0.682297 0.1335879
vt 0.3178399 0.1335509
vt 0.3178399 0.1335509
vt 0.682297 0.1335879
vt 0.6823022 0.0960613
vt 0.317845 0.09602436
vt 0.317845 0.09602436
vt 0.6823022 0.0960613
vt 0.6823071 0.06236846
vt 0.3178499 0.06233148
vt 0.3178499 0.06233148
vt 0.6823071 0.06236846
vt 0.6823086 0.05247777
vt 0.3178515 0.05244084
vt 0.3177614 0.9473631
vt 0.6822185 0.9474001
vt 0.6822194 0.9281194
vt 0.3177623 0.9280823
vt 0.3177623 0.9280823
vt 0.6822194 0.9281194
vt 0.6822213 0.894708
vt 0.3177642 0.8946711
vt 0.3177642 0.8946711
vt 0.6822213 0.894708
vt 0.6822237 0.8574391
vt 0.3177666 0.8574021
vt 0.3177666 0.8574021
vt 0.6822237 0.8574391
vt 0.6822266 0.8166714
vt 0.3177695 0.8166344
vt 0.3177695 0.8166344
vt 0.6822266 0.8166714
vt 0.68223 0.7727974
vt 0.3177729 0.7727604
vt 0.3177729 0.7727604
vt 0.68223 0.7727974
vt 0.6822338 0.72624
vt 0.3177767 0.726203
vt 0.3178555 0.0003116687
vt 0.3178499 0.06233148
vt 0.3178515 0.05244084
vt 0.3178536 0.0126415
vt 0.317845 0.09602436
vt 0.3178482 0.05021192
vt 0.3178399 0.1335509
vt 0.3178425 0.09205755
vt 0.3178345 0.1745498
vt 0.3178365 0.1377741
vt 0.317829 0.2186262
vt 0.3178303 0.1869232
vt 0.3178234 0.2653554
vt 0.317824 0.23903
vt 0.3178177 0.3142878
vt 0.3178177 0.293594
vt 0.3178121 0.3649515
vt 0.3178113 0.3500887
vt 0.3178064 0.4168593
vt 0.3178051 0.4079702
vt 0.3178009 0.469511
vt 0.317799 0.4666811
vt 0.3177955 0.5223995
vt 0.317793 0.5256562
vt 0.3177904 0.5750153
vt 0.3177872 0.5843269
vt 0.3177855 0.6268519
vt 0.3177818 0.6421299
vt 0.3177809 0.6774101
vt 0.3177767 0.6985062
vt 0.3177767 0.726203
vt 0.317772 0.752914
vt 0.3177729 0.7727604
vt 0.3177678 0.8048297
vt 0.3177695 0.8166344
vt 0.317764 0.8537529
vt 0.3177666 0.8574021
vt 0.3177607 0.8992125
vt 0.3177642 0.8946711
vt 0.3177581 0.9407708
vt 0.3177623 0.9280823
vt 0.3177559 0.9780269
vt 0.3177614 0.9473631
vt 0.3177549 0.9996514
vt 0.6821298 0.9996886
vt 0.6822185 0.9474001
vt 0.3177614 0.9473631
vt 0.3177549 0.9996514
vt 0.3178555 0.0003116687
vt 0.3178515 0.05244084
vt 0.6823086 0.05247777
vt 0.6822305 0.0003484988
vn 0.7950568 0.606535 0
vn 0.8261645 0.563429 0
vn 0.8261645 0.563429 0
vn 0.7950568 0.606535 0
vn 0.7518392 0.6593466 0
vn 0.7518392 0.6593466 0
vn 0.6835926 0.7298638 0
vn 0.6835925 0.7298638 0
vn 0.6087615 0.7933533 0
vn 0.6087616 0.7933533 0
vn 0.5280676 0.8492023 0
vn 0.5280676 0.8492023 0
vn 0.4422878 0.8968732 0
vn 0.4422878 0.8968732 0
vn 0.3522498 0.935906 0
vn 0.3522497 0.935906 0
vn 0.2588193 0.9659257 0
vn 0.2588193 0.9659257 0
vn 0.1628943 0.9866435 0
vn 0.1628943 0.9866435 0
vn 0.06540143 0.9978591 0
vn 0.06540142 0.9978591 0
vn -0.03271902 0.9994646 0
vn -0.03271902 0.9994646 0
vn -0.1305267 0.9914448 0
vn -0.1305267 0.9914448 0
vn -0.2270762 0.973877 0
vn -0.2270763 0.973877 0
vn -0.3214395 0.9469302 0
vn -0.3214396 0.9469302 0
vn -0.4127055 0.9108645 0
vn -0.4127055 0.9108645 0
vn -0.4999986 0.8660262 0
vn -0.4999985 0.8660262 0
vn -0.5824777 0.8128466 0
vn -0.5824777 0.8128467 0
vn -0.6593459 0.7518397 0
vn -0.6593459 0.7518397 0
vn -0.7298643 0.683592 0
vn -0.7298643 0.683592 0
vn -0.7901592 0.6129016 0
vn -0.7901592 0.6129016 0
vn -0.8283344 0.560234 0
vn -0.8283344 0.560234 0
vn 0.001100111 0.0007281966 0.9999992
vn 0.001100111 0.0007281965 0.9999992
vn 0.001055031 0.0007995092 0.9999992
vn 0.001055196 0.0007992492 0.9999992
vn 0.0009961542 0.0008735785 0.9999992
vn 0.0009961542 0.0008735784 0.9999992
vn 0.0009057071 0.0009670099 0.9999992
vn 0.0009057071 0.0009670099 0.9999992
vn 0.0008065482 0.001051127 0.9999992
vn 0.0008065484 0.001051127 0.9999992
vn 0.0006996862 0.001125122 0.9999992
vn 0.0006996863 0.001125122 0.9999992
vn 0.000586124 0.001188281 0.9999992
vn 0.0005861242 0.001188281 0.9999992
vn 0.0004667544 0.001239997 0.9999992
vn 0.0004667546 0.001239997 0.9999992
vn 0.0003429197 0.001279771 0.9999992
vn 0.0003429194 0.001279771 0.9999992
vn 0.0002157349 0.00130722 0.9999992
vn 0.0002157346 0.00130722 0.9999992
vn 8.653956E-05 0.00132208 0.9999992
vn 8.653967E-05 0.00132208 0.9999992
vn -4.343732E-05 0.001324207 0.9999992
vn -4.343725E-05 0.001324207 0.9999992
vn -0.0001729677 0.001313581 0.9999992
vn -0.0001729672 0.001313581 0.9999992
vn -0.0003009343 0.001290304 0.9999992
vn -0.0003009342 0.001290304 0.9999992
vn -0.0004259982 0.001254603 0.9999992
vn -0.0004259977 0.001254603 0.9999992
vn -0.0005469304 0.00120682 0.9999992
vn -0.0005469301 0.00120682 0.9999992
vn -0.0006625017 0.001147412 0.9999992
vn -0.0006625019 0.001147412 0.9999992
vn -0.0007715966 0.001076953 0.9999992
vn -0.0007715968 0.001076953 0.9999992
vn -0.0008734344 0.0009961234 0.9999992
vn -0.0008734344 0.0009961234 0.9999992
vn -0.0009668964 0.0009057017 0.9999992
vn -0.0009668965 0.0009057016 0.9999992
vn -0.001046901 0.0008116742 0.9999992
vn -0.001046602 0.0008120672 0.9999992
vn -0.001099229 0.0007430066 0.9999992
vn -0.001099229 0.0007430066 0.9999992
vn 0.367515 -0.9300176 0
vn 0.367515 -0.9300176 0
vn 0.367515 -0.9300176 0
vn 0.367515 -0.9300176 0
vn 0.2745891 -0.9615616 0
vn 0.2745891 -0.9615616 0
vn 0.2745891 -0.9615616 0
vn 0.2745891 -0.9615616 0
vn 0.1790174 -0.9838459 0
vn 0.1790174 -0.9838459 0
vn 0.1790174 -0.9838459 0
vn 0.1790174 -0.9838459 0
vn 0.08172245 -0.9966551 0
vn 0.08172245 -0.9966551 0
vn 0.08172245 -0.9966551 0
vn 0.08172245 -0.9966551 0
vn -0.01636265 -0.9998661 0
vn -0.01636265 -0.9998661 0
vn -0.01636265 -0.9998661 0
vn -0.01636265 -0.9998661 0
vn -0.1142863 -0.9934478 0
vn -0.1142863 -0.9934478 0
vn -0.1142863 -0.9934478 0
vn -0.1142863 -0.9934478 0
vn -0.21111 -0.9774623 0
vn -0.21111 -0.9774623 0
vn -0.21111 -0.9774623 0
vn -0.21111 -0.9774623 0
vn -0.3059043 -0.9520622 0
vn -0.3059043 -0.9520622 0
vn -0.3059043 -0.9520622 0
vn -0.3059043 -0.9520622 0
vn -0.3977468 -0.9174952 0
vn -0.3977468 -0.9174952 0
vn -0.3977468 -0.9174952 0
vn -0.3977468 -0.9174952 0
vn -0.4857637 -0.8740902 0
vn -0.4857637 -0.8740902 0
vn -0.4857637 -0.8740902 0
vn -0.4857637 -0.8740902 0
vn -0.5690995 -0.8222687 0
vn -0.5690995 -0.8222687 0
vn -0.5690995 -0.8222687 0
vn -0.5690995 -0.8222687 0
vn -0.6469551 -0.7625281 0
vn -0.6469551 -0.7625281 0
vn -0.6469551 -0.7625281 0
vn -0.6469551 -0.7625281 0
vn -0.7185806 -0.6954436 0
vn -0.7185806 -0.6954436 0
vn -0.7185806 -0.6954436 0
vn -0.7185806 -0.6954436 0
vn -0.7832874 -0.6216597 0
vn -0.7832874 -0.6216597 0
vn -0.7832874 -0.6216597 0
vn -0.7832874 -0.6216597 0
vn -0.8429905 -0.5379285 0
vn -0.8429905 -0.5379285 0
vn -0.8429905 -0.5379285 0
vn -0.8429905 -0.5379285 0
vn 0.8287883 -0.5595624 0
vn 0.8287883 -0.5595624 0
vn 0.8287883 -0.5595624 0
vn 0.8287883 -0.5595624 0
vn 0.7625272 -0.6469561 0
vn 0.7625272 -0.6469561 0
vn 0.7625272 -0.6469561 0
vn 0.7625272 -0.6469561 0
vn 0.6954424 -0.7185819 0
vn 0.6954424 -0.7185819 0
vn 0.6954424 -0.7185819 0
vn 0.6954424 -0.7185819 0
vn 0.6216606 -0.7832867 0
vn 0.6216606 -0.7832867 0
vn 0.6216606 -0.7832867 0
vn 0.6216606 -0.7832867 0
vn 0.5418918 -0.8404483 0
vn 0.5418918 -0.8404483 0
vn 0.5418918 -0.8404483 0
vn 0.5418918 -0.8404483 0
vn 0.4569024 -0.8895168 0
vn 0.4569024 -0.8895168 0
vn 0.4569024 -0.8895168 0
vn 0.4569024 -0.8895168 0
vn 0 0 -1
vn 0 0 -1
vn 0 0 -1
vn 0 0 -1
vn 0 0 -1
vn 0 0 -1
vn 0 0 -1
vn 0 0 -1
vn 0 0 -1
vn 0 0 -1
vn 0 0 -1
vn 0 0 -1
vn 0 0 -1
vn 0 0 -1
vn 0 0 -1
vn 0 0 -1
vn 0 0 -1
vn 0 0 -1
vn 0 0 -1
vn 0 0 -1
vn 0 0 -1
vn 0 0 -1
vn 0 0 -1
vn 0 0 -1
vn 0 0 -1
vn 0 0 -1
vn 0 0 -1
vn 0 0 -1
vn 0 0 -1
vn 0 0 -1
vn 0 0 -1
vn 0 0 -1
vn 0 0 -1
vn 0 0 -1
vn 0 0 -1
vn 0 0 -1
vn 0 0 -1
vn 0 0 -1
vn 0 0 -1
vn 0 0 -1
vn 0 0 -1
vn 0 0 -1
vn 0 0 -1
vn 0 0 -1
vn -0.5527511 -0.8333464 0
vn -0.5527511 -0.8333464 0
vn -0.5527511 -0.8333464 0
vn -0.5527511 -0.8333464 0
vn 0.536732 -0.8437528 0
vn 0.536732 -0.8437528 0
vn 0.536732 -0.8437528 0
vn 0.536732 -0.8437528 0
g C_ENV_TunnelRing_04_0
f 3/3/3 2/2/2 1/1/1
f 2/2/2 4/4/4 1/1/1
f 1/1/1 4/4/4 5/5/5
f 4/4/4 6/6/6 5/5/5
f 5/5/5 6/6/6 7/7/7
f 6/6/6 8/8/8 7/7/7
f 7/7/7 8/8/8 9/9/9
f 8/8/8 10/10/10 9/9/9
f 9/9/9 10/10/10 11/11/11
f 10/10/10 12/12/12 11/11/11
f 11/11/11 12/12/12 13/13/13
f 12/12/12 14/14/14 13/13/13
f 13/13/13 14/14/14 15/15/15
f 14/14/14 16/16/16 15/15/15
f 15/15/15 16/16/16 17/17/17
f 16/16/16 18/18/18 17/17/17
f 17/17/17 18/18/18 19/19/19
f 18/18/18 20/20/20 19/19/19
f 19/19/19 20/20/20 21/21/21
f 20/20/20 22/22/22 21/21/21
f 21/21/21 22/22/22 23/23/23
f 22/22/22 24/24/24 23/23/23
f 23/23/23 24/24/24 25/25/25
f 24/24/24 26/26/26 25/25/25
f 25/25/25 26/26/26 27/27/27
f 26/26/26 28/28/28 27/27/27
f 27/27/27 28/28/28 29/29/29
f 28/28/28 30/30/30 29/29/29
f 29/29/29 30/30/30 31/31/31
f 30/30/30 32/32/32 31/31/31
f 31/31/31 32/32/32 33/33/33
f 32/32/32 34/34/34 33/33/33
f 33/33/33 34/34/34 35/35/35
f 34/34/34 36/36/36 35/35/35
f 35/35/35 36/36/36 37/37/37
f 36/36/36 38/38/38 37/37/37
f 37/37/37 38/38/38 39/39/39
f 38/38/38 40/40/40 39/39/39
f 39/39/39 40/40/40 41/41/41
f 40/40/40 42/42/42 41/41/41
f 41/41/41 42/42/42 43/43/43
f 42/42/42 44/44/44 43/43/43
f 47/47/47 46/46/46 45/45/45
f 48/48/48 47/47/47 45/45/45
f 49/49/49 47/47/47 48/48/48
f 50/50/50 49/49/49 48/48/48
f 51/51/51 49/49/49 50/50/50
f 52/52/52 51/51/51 50/50/50
f 53/53/53 51/51/51 52/52/52
f 54/54/54 53/53/53 52/52/52
f 55/55/55 53/53/53 54/54/54
f 56/56/56 55/55/55 54/54/54
f 57/57/57 55/55/55 56/56/56
f 58/58/58 57/57/57 56/56/56
f 59/59/59 57/57/57 58/58/58
f 60/60/60 59/59/59 58/58/58
f 61/61/61 59/59/59 60/60/60
f 62/62/62 61/61/61 60/60/60
f 63/63/63 61/61/61 62/62/62
f 64/64/64 63/63/63 62/62/62
f 65/65/65 63/63/63 64/64/64
f 66/66/66 65/65/65 64/64/64
f 67/67/67 65/65/65 66/66/66
f 68/68/68 67/67/67 66/66/66
f 69/69/69 67/67/67 68/68/68
f 70/70/70 69/69/69 68/68/68
f 71/71/71 69/69/69 70/70/70
f 72/72/72 71/71/71 70/70/70
f 73/73/73 71/71/71 72/72/72
f 74/74/74 73/73/73 72/72/72
f 75/75/75 73/73/73 74/74/74
f 76/76/76 75/75/75 74/74/74
f 77/77/77 75/75/75 76/76/76
f 78/78/78 77/77/77 76/76/76
f 79/79/79 77/77/77 78/78/78
f 80/80/80 79/79/79 78/78/78
f 81/81/81 79/79/79 80/80/80
f 82/82/82 81/81/81 80/80/80
f 83/83/83 81/81/81 82/82/82
f 84/84/84 83/83/83 82/82/82
f 85/85/85 83/83/83 84/84/84
f 86/86/86 85/85/85 84/84/84
f 87/87/87 85/85/85 86/86/86
f 88/88/88 87/87/87 86/86/86
f 91/91/91 90/90/90 89/89/89
f 92/92/92 91/91/91 89/89/89
f 95/95/95 94/94/94 93/93/93
f 96/96/96 95/95/95 93/93/93
f 99/99/99 98/98/98 97/97/97
f 100/100/100 99/99/99 97/97/97
f 103/103/103 102/102/102 101/101/101
f 104/104/104 103/103/103 101/101/101
f 107/107/107 106/106/106 105/105/105
f 108/108/108 107/107/107 105/105/105
f 111/111/111 110/110/110 109/109/109
f 112/112/112 111/111/111 109/109/109
f 115/115/115 114/114/114 113/113/113
f 116/116/116 115/115/115 113/113/113
f 119/119/119 118/118/118 117/117/117
f 120/120/120 119/119/119 117/117/117
f 123/123/123 122/122/122 121/121/121
f 124/124/124 123/123/123 121/121/121
f 127/127/127 126/126/126 125/125/125
f 128/128/128 127/127/127 125/125/125
f 131/131/131 130/130/130 129/129/129
f 132/132/132 131/131/131 129/129/129
f 135/135/135 134/134/134 133/133/133
f 136/136/136 135/135/135 133/133/133
f 139/139/139 138/138/138 137/137/137
f 140/140/140 139/139/139 137/137/137
f 143/143/143 142/142/142 141/141/141
f 144/144/144 143/143/143 141/141/141
f 147/147/147 146/146/146 145/145/145
f 148/148/148 147/147/147 145/145/145
f 151/151/151 150/150/150 149/149/149
f 152/152/152 151/151/151 149/149/149
f 155/155/155 154/154/154 153/153/153
f 156/156/156 155/155/155 153/153/153
f 159/159/159 158/158/158 157/157/157
f 160/160/160 159/159/159 157/157/157
f 163/163/163 162/162/162 161/161/161
f 164/164/164 163/163/163 161/161/161
f 167/167/167 166/166/166 165/165/165
f 168/168/168 167/167/167 165/165/165
f 171/171/171 170/170/170 169/169/169
f 172/172/172 171/171/171 169/169/169
f 175/175/175 174/174/174 173/173/173
f 174/174/174 176/176/176 173/173/173
f 174/174/174 177/177/177 176/176/176
f 177/177/177 178/178/178 176/176/176
f 177/177/177 179/179/179 178/178/178
f 179/179/179 180/180/180 178/178/178
f 179/179/179 181/181/181 180/180/180
f 181/181/181 182/182/182 180/180/180
f 181/181/181 183/183/183 182/182/182
f 183/183/183 184/184/184 182/182/182
f 183/183/183 185/185/185 184/184/184
f 185/185/185 186/186/186 184/184/184
f 185/185/185 187/187/187 186/186/186
f 187/187/187 188/188/188 186/186/186
f 187/187/187 189/189/189 188/188/188
f 189/189/189 190/190/190 188/188/188
f 189/189/189 191/191/191 190/190/190
f 191/191/191 192/192/192 190/190/190
f 191/191/191 193/193/193 192/192/192
f 193/193/193 194/194/194 192/192/192
f 193/193/193 195/195/195 194/194/194
f 195/195/195 196/196/196 194/194/194
f 195/195/195 197/197/197 196/196/196
f 197/197/197 198/198/198 196/196/196
f 197/197/197 199/199/199 198/198/198
f 199/199/199 200/200/200 198/198/198
f 199/199/199 201/201/201 200/200/200
f 201/201/201 202/202/202 200/200/200
f 201/201/201 203/203/203 202/202/202
f 203/203/203 204/204/204 202/202/202
f 203/203/203 205/205/205 204/204/204
f 205/205/205 206/206/206 204/204/204
f 205/205/205 207/207/207 206/206/206
f 207/207/207 208/208/208 206/206/206
f 207/207/207 209/209/209 208/208/208
f 209/209/209 210/210/210 208/208/208
f 209/209/209 211/211/211 210/210/210
f 211/211/211 212/212/212 210/210/210
f 211/211/211 213/213/213 212/212/212
f 213/213/213 214/214/214 212/212/212
f 213/213/213 215/215/215 214/214/214
f 215/215/215 216/216/216 214/214/214
f 219/219/219 218/218/218 217/217/217
f 220/220/220 219/219/219 217/217/217
f 223/223/223 222/222/222 221/221/221
f 224/224/224 223/223/223 221/221/221
