g Col_ENV_FLR_Tier1Ramp
v 33.95261 0.02149963 0.1518745
v 45.73631 4.893755 0.1518707
v 45.73631 1.514406 0.1518707
v 33.98148 -3.096097 0.1518745
v -0.123167 -3.096097 0.1518707
v -0.123167 0.05885696 0.1518707
v 33.95261 0.02149963 -14.10992
v 45.73631 4.893755 -14.10992
v 45.73631 4.893755 0.1518707
v 33.95261 0.02149963 0.1518745
v -0.123167 0.05885696 0.1518707
v -0.123167 0.05885696 -14.10992
v 33.98148 -3.096097 -14.10992
v 45.73631 1.514406 -14.10992
v 45.73631 4.893755 -14.10992
v 33.95261 0.02149963 -14.10992
v -0.123167 0.05885696 -14.10992
v -0.123167 -3.096097 -14.10992
v 33.98148 -3.096097 0.1518745
v 45.73631 1.514406 0.1518707
v 45.73631 1.514406 -14.10992
v 33.98148 -3.096097 -14.10992
v -0.123167 -3.096097 -14.10992
v -0.123167 -3.096097 0.1518707
v 45.73631 1.514406 0.1518707
v 45.73631 4.893755 0.1518707
v 45.73631 4.893755 -14.10992
v 45.73631 1.514406 -14.10992
v -0.123167 -3.096097 -14.10992
v -0.123167 0.05885696 -14.10992
v -0.123167 0.05885696 0.1518707
v -0.123167 -3.096097 0.1518707
vt 0.5609193 0.25
vt 0.625 0.25
vt 0.625 0
vt 0.5609193 0
vt 0.375 0
vt 0.375 0.25
vt 0.5609193 0.5
vt 0.625 0.5
vt 0.625 0.25
vt 0.5609193 0.25
vt 0.375 0.25
vt 0.375 0.5
vt 0.5609193 0.75
vt 0.625 0.75
vt 0.625 0.5
vt 0.5609193 0.5
vt 0.375 0.5
vt 0.375 0.75
vt 0.5609193 1
vt 0.625 1
vt 0.625 0.75
vt 0.5609193 0.75
vt 0.375 0.75
vt 0.375 1
vt 0.625 0
vt 0.625 0.25
vt 0.875 0.25
vt 0.875 0
vt 0.125 0
vt 0.125 0.25
vt 0.375 0.25
vt 0.375 0
vn 0 0 1
vn 0 0 1
vn 0 0 1
vn 0 0 1
vn 0 0 1
vn 0 0 1
vn -0.1048475 0.9944883 0
vn -0.1048475 0.9944883 0
vn -0.1048475 0.9944883 0
vn -0.1048475 0.9944883 0
vn -0.1048475 0.9944883 0
vn -0.1048475 0.9944883 0
vn 0 0 -1
vn 0 0 -1
vn 0 0 -1
vn 0 0 -1
vn 0 0 -1
vn 0 0 -1
vn 0.1000312 -0.9949843 0
vn 0.1000312 -0.9949843 0
vn 0.1000312 -0.9949843 0
vn 0.1000312 -0.9949843 0
vn 0.1000312 -0.9949843 0
vn 0.1000312 -0.9949843 0
vn 1 0 0
vn 1 0 0
vn 1 0 0
vn 1 0 0
vn -1 0 0
vn -1 0 0
vn -1 0 0
vn -1 0 0
g Col_ENV_FLR_Tier1Ramp_0
f 3/3/3 2/2/2 1/1/1
f 4/4/4 3/3/3 1/1/1
f 4/4/4 1/1/1 5/5/5
f 1/1/1 6/6/6 5/5/5
f 9/9/9 8/8/8 7/7/7
f 10/10/10 9/9/9 7/7/7
f 10/10/10 7/7/7 11/11/11
f 7/7/7 12/12/12 11/11/11
f 15/15/15 14/14/14 13/13/13
f 16/16/16 15/15/15 13/13/13
f 16/16/16 13/13/13 17/17/17
f 13/13/13 18/18/18 17/17/17
f 21/21/21 20/20/20 19/19/19
f 22/22/22 21/21/21 19/19/19
f 22/22/22 19/19/19 23/23/23
f 19/19/19 24/24/24 23/23/23
f 27/27/27 26/26/26 25/25/25
f 28/28/28 27/27/27 25/25/25
f 31/31/31 30/30/30 29/29/29
f 32/32/32 31/31/31 29/29/29
