g COL_JumpSupport02_MO
v 4.271717 3.007047 -3.797024
v 9.946393 -2.477515 -3.821876
v 4.274019 3.007047 -3.097212
v 9.624632 -2.477515 -1.062745
v 4.140617 3.007047 -2.420375
v 8.925347 -2.477515 0.766207
v 3.755816 3.007047 -1.840198
v 8.198224 -2.477515 1.713683
v 6.556024 -2.477515 2.854379
v 3.181837 3.007047 -1.454712
v 4.390268 -2.477515 3.512403
v 2.498803 3.007047 -1.314205
v 2.484327 -2.477515 3.758379
v -2.498803 3.007047 -1.314205
v -2.484327 -2.477515 3.758379
v -4.271717 3.007047 -3.797024
v -4.274019 3.007047 -3.097212
v -9.946393 -2.477515 -3.821876
v -9.624632 -2.477515 -1.062745
v -4.140617 3.007047 -2.420375
v -8.925347 -2.477515 0.766207
v -3.755816 3.007047 -1.840198
v -8.198224 -2.477515 1.713683
v -6.556024 -2.477515 2.854379
v -3.181837 3.007047 -1.454712
v -4.390268 -2.477515 3.512403
v -2.498803 3.007047 -1.314205
v -2.484327 -2.477515 3.758379
v -9.946393 -2.477515 -3.821876
v 9.946393 -2.477515 -3.821876
v -4.271717 3.007047 -3.797024
v 4.271717 3.007047 -3.797024
v 4.271717 3.007047 -3.797024
v 4.274019 3.007047 -3.097212
v -4.271717 3.007047 -3.797024
v 4.140617 3.007047 -2.420375
v 3.755816 3.007047 -1.840198
v 3.181837 3.007047 -1.454712
v 2.498803 3.007047 -1.314205
v -4.271717 3.007047 -3.797024
v 2.498803 3.007047 -1.314205
v -4.274019 3.007047 -3.097212
v -4.140617 3.007047 -2.420375
v -3.755816 3.007047 -1.840198
v -2.498803 3.007047 -1.314205
v -3.181837 3.007047 -1.454712
v -9.946393 -2.477515 -3.821876
v -9.624632 -2.477515 -1.062745
v 9.946393 -2.477515 -3.821876
v 9.624632 -2.477515 -1.062745
v 8.925347 -2.477515 0.766207
v 8.198224 -2.477515 1.713683
v 6.556024 -2.477515 2.854379
v 4.390268 -2.477515 3.512403
v 2.484327 -2.477515 3.758379
v -2.484327 -2.477515 3.758379
v -2.484327 -2.477515 3.758379
v -9.624632 -2.477515 -1.062745
v -4.390268 -2.477515 3.512403
v -6.556024 -2.477515 2.854379
v -8.198224 -2.477515 1.713683
v -8.925347 -2.477515 0.766207
vt 0.4335834 2.949241E-10
vt 0.9999999 0
vt 0.4302321 0.06532354
vt 0.9727448 0.2856694
vt 0.4200212 0.1360274
vt 0.9002212 0.4647004
vt 0.3813114 0.1969263
vt 0.8257865 0.5592952
vt 0.6558536 0.6733953
vt 0.3210279 0.2358324
vt 0.4360183 0.7379989
vt 0.2487138 0.251476
vt 0.2479022 0.7606985
vt 0.2487138 0.251476
vt 0.2479022 0.7606985
vt 0.4335834 2.949241E-10
vt 0.4302321 0.06532354
vt 0.9999999 0
vt 0.9727448 0.2856694
vt 0.4200212 0.1360274
vt 0.9002212 0.4647004
vt 0.3813114 0.1969263
vt 0.8257865 0.5592952
vt 0.6558536 0.6733953
vt 0.3210279 0.2358324
vt 0.4360183 0.7379989
vt 0.2487138 0.251476
vt 0.2479022 0.7606985
vt 0 0
vt 0.9999999 0.9665077
vt 0.5517378 0
vt 0.9812118 0.4150899
vt 0.9812118 0.4150899
vt 0.4302321 0.06532354
vt 0.4335834 2.949241E-10
vt 0.4200212 0.1360274
vt 0.3813114 0.1969263
vt 0.3210279 0.2358324
vt 0.2487138 0.251476
vt 0.4335834 2.949241E-10
vt 0.2487138 0.251476
vt 0.4302321 0.06532354
vt 0.4200212 0.1360274
vt 0.3813114 0.1969263
vt 0.2487138 0.251476
vt 0.3210279 0.2358324
vt 0 0
vt 0.9727448 0.2856694
vt 0.9999999 0
vt 0.9727448 0.2856694
vt 0.9002212 0.4647004
vt 0.8257865 0.5592952
vt 0.6558536 0.6733953
vt 0.4360183 0.7379989
vt 0.2479022 0.7606985
vt 0.2479022 0.7606985
vt 0.2479022 0.7606985
vt 0.9727448 0.2856694
vt 0.4360183 0.7379989
vt 0.6558536 0.6733953
vt 0.8257865 0.5592952
vt 0.9002212 0.4647004
vn 0.6949527 0.7190518 -0.002286246
vn 0.6981414 0.711466 0.08009146
vn 0.6934249 0.7170872 0.07033997
vn 0.6813598 0.7155253 0.1541825
vn 0.638671 0.7247977 0.2583947
vn 0.6161324 0.7203209 0.3186198
vn 0.47908 0.7194092 0.5029242
vn 0.4671898 0.7152289 0.5197896
vn 0.3142219 0.698086 0.6433821
vn 0.258507 0.6961208 0.6697686
vn 0.1613435 0.6801582 0.7150897
vn 0.02102122 0.6799363 0.7329698
vn 0.0251058 0.6787463 0.7339435
vn -0.0210595 0.6799377 0.7329674
vn -0.0251461 0.6787456 0.7339429
vn -0.6949527 0.7190518 -0.002286251
vn -0.693425 0.7170872 0.07033997
vn -0.6981414 0.711466 0.08009145
vn -0.6813598 0.7155253 0.1541825
vn -0.638671 0.7247977 0.2583947
vn -0.6161324 0.7203209 0.3186198
vn -0.4790801 0.7194092 0.5029241
vn -0.4671898 0.7152289 0.5197896
vn -0.3142219 0.698086 0.6433821
vn -0.258507 0.6961208 0.6697686
vn -0.1613435 0.6801582 0.7150895
vn -0.0210595 0.6799377 0.7329674
vn -0.0251461 0.6787456 0.7339429
vn 0 0.004531103 -0.9999897
vn 0 0.004531104 -0.9999897
vn 0 0.004531104 -0.9999897
vn 0 0.004531104 -0.9999897
vn 0 1 -1.589988E-07
vn 0 1 1.067012E-07
vn 0 1 4.854605E-07
vn 0 1 0
vn 0 1 -6.368621E-07
vn 0 1 0
vn 0 1 1.018207E-06
vn 0 1 4.854605E-07
vn 0 1 1.018207E-06
vn 0 1 1.63224E-07
vn 0 1 -3.098182E-07
vn 0 1 8.02593E-07
vn 0 1 0
vn 0 1 -4.277252E-06
vn 0 -1 1.031954E-07
vn 0 -1 0
vn 0 -1 0
vn 0 -1 0
vn 0 -1 0
vn 0 -1 0
vn 0 -1 -1.637222E-07
vn 0 -1 2.423697E-07
vn 0 -1 -3.427352E-07
vn 0 -1 2.243535E-07
vn 0 -1 2.243535E-07
vn 0 -1 0
vn 0 -1 -3.674353E-07
vn 0 -1 0
vn 0 -1 0
vn 0 -1 0
g COL_JumpSupport02_MO_0
f 3/3/3 2/2/2 1/1/1
f 3/3/3 4/4/4 2/2/2
f 5/5/5 4/4/4 3/3/3
f 5/5/5 6/6/6 4/4/4
f 7/7/7 6/6/6 5/5/5
f 7/7/7 8/8/8 6/6/6
f 9/9/9 8/8/8 7/7/7
f 9/9/9 7/7/7 10/10/10
f 11/11/11 9/9/9 10/10/10
f 11/11/11 10/10/10 12/12/12
f 13/13/13 11/11/11 12/12/12
f 14/14/14 13/13/13 12/12/12
f 14/14/14 15/15/15 13/13/13
f 18/18/18 17/17/17 16/16/16
f 18/18/18 19/19/19 17/17/17
f 19/19/19 20/20/20 17/17/17
f 19/19/19 21/21/21 20/20/20
f 21/21/21 22/22/22 20/20/20
f 21/21/21 23/23/23 22/22/22
f 24/24/24 22/22/22 23/23/23
f 24/24/24 25/25/25 22/22/22
f 26/26/26 25/25/25 24/24/24
f 26/26/26 27/27/27 25/25/25
f 26/26/26 28/28/28 27/27/27
f 31/31/31 30/30/30 29/29/29
f 31/31/31 32/32/32 30/30/30
f 35/35/35 34/34/34 33/33/33
f 35/35/35 36/36/36 34/34/34
f 35/35/35 37/37/37 36/36/36
f 35/35/35 38/38/38 37/37/37
f 35/35/35 39/39/39 38/38/38
f 42/42/42 41/41/41 40/40/40
f 43/43/43 41/41/41 42/42/42
f 44/44/44 41/41/41 43/43/43
f 44/44/44 45/45/45 41/41/41
f 46/46/46 45/45/45 44/44/44
f 49/49/49 48/48/48 47/47/47
f 50/50/50 48/48/48 49/49/49
f 51/51/51 48/48/48 50/50/50
f 52/52/52 48/48/48 51/51/51
f 53/53/53 48/48/48 52/52/52
f 54/54/54 48/48/48 53/53/53
f 55/55/55 48/48/48 54/54/54
f 56/56/56 48/48/48 55/55/55
f 59/59/59 58/58/58 57/57/57
f 60/60/60 58/58/58 59/59/59
f 61/61/61 58/58/58 60/60/60
f 62/62/62 58/58/58 61/61/61
