g COL_JumpClub_Platform_MO
v -7.334752 3.193265 -3.038157
v -15.65714 3.193264 -15.65715
v -5.613774 3.193265 -5.613779
v -20.45704 3.193264 -8.473594
v -7.939079 3.193265 -2.839236E-06
v -22.14255 3.193264 -7.918792E-06
v -20.45704 3.193264 -8.473594
v -15.65714 -10.51087 -15.65715
v -15.65714 3.193264 -15.65715
v -20.45704 -10.51087 -8.473593
v -22.14255 3.193264 -7.918792E-06
v -22.14255 -10.51087 -7.918792E-06
v -20.45704 -10.51087 -8.473593
v -5.613772 -10.51087 -5.613778
v -15.65714 -10.51087 -15.65715
v -7.334749 -10.51087 -3.038156
v -22.14255 -10.51087 -7.918792E-06
v -7.939076 -10.51087 -2.839236E-06
v -7.334749 -10.51087 -3.038156
v -5.613774 3.193265 -5.613779
v -5.613772 -10.51087 -5.613778
v -7.334752 3.193265 -3.038157
v -7.939076 -10.51087 -2.839236E-06
v -7.939079 3.193265 -2.839236E-06
v -15.65714 3.193264 -15.65715
v -15.65714 -10.51087 -15.65715
v -5.613772 -10.51087 -5.613778
v -5.613774 3.193265 -5.613779
v -22.14255 3.193264 -7.918792E-06
v -7.939079 3.193265 -2.839236E-06
v -7.939076 -10.51087 -2.839236E-06
v -22.14255 -10.51087 -7.918792E-06
vt 0.375 1
vt 0.3125 0.75
vt 0.3125 1
vt 0.375 0.75
vt 0.4375 1
vt 0.4375 0.75
vt 0.375 0.75
vt 0.3125 0.5
vt 0.3125 0.75
vt 0.375 0.5
vt 0.4375 0.75
vt 0.4375 0.5
vt 0.375 0.5
vt 0.3125 0.25
vt 0.3125 0.5
vt 0.375 0.25
vt 0.4375 0.5
vt 0.4375 0.25
vt 0.375 0.25
vt 0.3125 0
vt 0.3125 0.25
vt 0.375 0
vt 0.4375 0.25
vt 0.4375 0
vt 0.3125 0.75
vt 0.3125 0.5
vt 0.3125 0.25
vt 0.3125 0
vt 0.4375 0.75
vt 0.4375 1
vt 0.4375 0.25
vt 0.4375 0.5
vn 0 1 0
vn 0 1 0
vn 0 1 0
vn 0 1 0
vn 0 1 0
vn 0 1 0
vn -0.9238794 0 -0.3826838
vn -0.8314695 -1.053392E-07 -0.5555704
vn -0.8314695 -1.053392E-07 -0.5555704
vn -0.9238794 0 -0.3826838
vn -0.9807853 0 -0.1950908
vn -0.9807851 0 -0.1950908
vn 2.382057E-07 -1 1.52899E-07
vn 2.185794E-07 -1 1.528989E-07
vn 2.185794E-07 -1 1.528989E-07
vn 2.382057E-07 -1 1.52899E-07
vn 2.57832E-07 -1 1.52899E-07
vn 2.57832E-07 -1 1.52899E-07
vn 0.9238794 1.825802E-07 0.3826838
vn 0.8314694 2.109152E-07 0.5555707
vn 0.8314694 2.109152E-07 0.5555707
vn 0.9238794 1.825802E-07 0.3826839
vn 0.9807853 1.472288E-07 0.1950907
vn 0.9807853 1.472288E-07 0.1950907
vn 0.7071071 0 -0.7071065
vn 0.7071071 0 -0.7071065
vn 0.7071071 0 -0.7071065
vn 0.707107 0 -0.7071065
vn -3.576279E-07 0 1
vn -3.576279E-07 0 1
vn -3.576279E-07 0 1
vn -3.576279E-07 0 1
g COL_JumpClub_Platform_MO_0
f 3/3/3 2/2/2 1/1/1
f 2/2/2 4/4/4 1/1/1
f 1/1/1 4/4/4 5/5/5
f 4/4/4 6/6/6 5/5/5
f 9/9/9 8/8/8 7/7/7
f 8/8/8 10/10/10 7/7/7
f 7/7/7 10/10/10 11/11/11
f 10/10/10 12/12/12 11/11/11
f 15/15/15 14/14/14 13/13/13
f 14/14/14 16/16/16 13/13/13
f 13/13/13 16/16/16 17/17/17
f 16/16/16 18/18/18 17/17/17
f 21/21/21 20/20/20 19/19/19
f 20/20/20 22/22/22 19/19/19
f 19/19/19 22/22/22 23/23/23
f 22/22/22 24/24/24 23/23/23
f 27/27/27 26/26/26 25/25/25
f 28/28/28 27/27/27 25/25/25
f 31/31/31 30/30/30 29/29/29
f 32/32/32 31/31/31 29/29/29
