g COL_LargeSlope01_MO
v -2.487935 -2.482281 -5.013795
v -2.487935 2.509834 4.93962
v -2.487935 -2.482281 4.93962
v 2.487935 2.509834 4.93962
v 2.487935 -2.482281 -5.013795
v 2.487935 -2.482281 4.93962
v 2.487935 -2.482281 -5.013795
v -2.487935 -2.482281 -5.013795
v 2.487935 -2.482281 4.93962
v -2.487935 -2.482281 4.93962
v -2.487935 -2.482281 4.93962
v -2.487935 2.509834 4.93962
v 2.487935 -2.482281 4.93962
v 2.487935 2.509834 4.93962
v 2.487935 2.509834 4.93962
v -2.487935 2.509834 4.93962
v 2.487935 -2.482281 -5.013795
v -2.487935 -2.482281 -5.013795
vt 0.375 0
vt 0.625 0.25
vt 0.625 0
vt 0.625 0.5
vt 0.375 0.75
vt 0.625 0.75
vt 0.375 0.75
vt 0.375 1
vt 0.625 0.75
vt 0.625 1
vt 0.625 0
vt 0.625 0.25
vt 0.875 0
vt 0.875 0.25
vt 0.625 0.5
vt 0.625 0.25
vt 0.125 0
vt 0.375 0
vn -1 0 0
vn -1 0 0
vn -1 0 0
vn 1 0 0
vn 1 0 0
vn 1 0 0
vn 0 -1 0
vn 0 -1 0
vn 0 -1 0
vn 0 -1 0
vn 0 0 1
vn 0 0 1
vn 0 0 1
vn 0 0 1
vn 0 0.893873 -0.4483202
vn 0 0.893873 -0.4483202
vn 0 0.893873 -0.4483202
vn 0 0.893873 -0.4483202
g COL_LargeSlope01_MO_0
f 3/3/3 2/2/2 1/1/1
f 6/6/6 5/5/5 4/4/4
f 9/9/9 8/8/8 7/7/7
f 9/9/9 10/10/10 8/8/8
f 13/13/13 12/12/12 11/11/11
f 13/13/13 14/14/14 12/12/12
f 17/17/17 16/16/16 15/15/15
f 17/17/17 18/18/18 16/16/16
