g COL_Hill_Outer_MO
v 0 -0.0339526 -29.28109
v 0 2.496109 -23.22053
v -0.7684981 2.504752 -23.31293
v 0.7684981 2.504752 -23.31293
v 0 2.496109 -23.22053
v 0 -0.0339526 -29.28109
v -18.55386 2.538266 -28.1967
v -18.83429 2.522822 -29.14304
v -18.68171 2.532491 -30.32868
v -15.5653 2.504751 -29.24162
v -18.14932 2.533891 -31.32738
v -17.68199 2.533121 -31.83097
v -16.83469 2.520618 -32.26332
v -15.87851 2.530264 -32.56078
v -13.83934 2.504751 -31.81581
v -17.49314 2.524515 -26.87037
v -1.600744 2.51591 -23.77093
v -3.13318 2.504751 -20.99616
v -4.665675 2.543396 -18.22165
v -0.7684981 2.504752 -23.31293
v -2.346697 2.554822 -16.9092
v -1.590957 2.504751 -20.14682
v 0 2.496109 -23.22053
v 0 2.459025 -19.84423
v 0 2.494723 -16.46783
v 1.590957 2.504751 -20.14682
v 0 2.459025 -19.84423
v 0 2.494723 -16.46783
v 0.7684981 2.504752 -23.31293
v 2.346697 2.554822 -16.9092
v 3.13318 2.504751 -20.99616
v 1.600744 2.51591 -23.77093
v 4.665675 2.543396 -18.22165
v 13.83934 2.504751 -31.81581
v 15.5653 2.504751 -29.24162
v 17.49314 2.524515 -26.87037
v 15.87851 2.530264 -32.56078
v 18.55386 2.538266 -28.1967
v 16.83469 2.520618 -32.26332
v 18.83429 2.522822 -29.14304
v 17.68199 2.533121 -31.83097
v 18.68171 2.532491 -30.32868
v 18.14932 2.533891 -31.32738
v -0.3359447 0.03124027 -29.35031
v 0 -0.0339526 -29.28109
v -0.7684981 2.504752 -23.31293
v -1.600744 2.51591 -23.77093
v -13.83934 2.504751 -31.81581
v -10.53742 -0.0310693 -36.7966
v 1.600744 2.51591 -23.77093
v 0.7684981 2.504752 -23.31293
v 0 -0.0339526 -29.28109
v 0.3359447 0.03124027 -29.35031
v 10.53742 -0.0310693 -36.7966
v 13.83934 2.504751 -31.81581
v 0 -0.03632107 -10.58644
v -4.041954 -0.04256435 -11.59482
v -2.346697 2.554822 -16.9092
v 0 2.494723 -16.46783
v 0 2.494723 -16.46783
v 2.346697 2.554822 -16.9092
v 4.041954 -0.04256466 -11.59482
v 0 -0.03632107 -10.58644
v -4.665675 2.543396 -18.22165
v -2.346697 2.554822 -16.9092
v -4.041954 -0.04256435 -11.59482
v -7.561664 -0.05423275 -13.6748
v -21.52227 -0.09605282 -22.07317
v -17.49314 2.524515 -26.87037
v 7.561664 -0.05423275 -13.6748
v 4.041954 -0.04256466 -11.59482
v 2.346697 2.554822 -16.9092
v 4.665675 2.543396 -18.22165
v 17.49314 2.524515 -26.87037
v 21.52227 -0.09605282 -22.07317
v -21.52227 -0.09605282 -22.07317
v -24.23546 -0.06385861 -25.28981
v -18.55386 2.538266 -28.1967
v -17.49314 2.524515 -26.87037
v 17.49314 2.524515 -26.87037
v 18.55386 2.538266 -28.1967
v 24.23546 -0.06385861 -25.28981
v 21.52227 -0.09605282 -22.07317
v -24.23546 -0.06385861 -25.28981
v -25.24957 -0.07122432 -28.99384
v -18.83429 2.522822 -29.14304
v -18.55386 2.538266 -28.1967
v 18.55386 2.538266 -28.1967
v 18.83429 2.522822 -29.14304
v 25.24957 -0.07122432 -28.99384
v 24.23546 -0.06385861 -25.28981
v -18.68171 2.532491 -30.32868
v -18.83429 2.522822 -29.14304
v -25.24957 -0.07122432 -28.99384
v -24.8581 0.02594852 -32.00847
v 24.8581 0.02594852 -32.00847
v 25.24957 -0.07122432 -28.99384
v 18.83429 2.522822 -29.14304
v 18.68171 2.532491 -30.32868
v -18.14932 2.533891 -31.32738
v -18.68171 2.532491 -30.32868
v -24.8581 0.02594852 -32.00847
v -23.46153 -0.05534176 -34.86351
v 23.46153 -0.05534176 -34.86351
v 24.8581 0.02594852 -32.00847
v 18.68171 2.532491 -30.32868
v 18.14932 2.533891 -31.32738
v -17.68199 2.533121 -31.83097
v -18.14932 2.533891 -31.32738
v -23.46153 -0.05534176 -34.86351
v -21.4123 -0.08314083 -36.93702
v 21.4123 -0.08314083 -36.93702
v 23.46153 -0.05534176 -34.86351
v 18.14932 2.533891 -31.32738
v 17.68199 2.533121 -31.83097
v -16.83469 2.520618 -32.26332
v -17.68199 2.533121 -31.83097
v -21.4123 -0.08314083 -36.93702
v -18.71931 -0.08144893 -38.27493
v 18.71931 -0.08144893 -38.27493
v 21.4123 -0.08314083 -36.93702
v 17.68199 2.533121 -31.83097
v 16.83469 2.520618 -32.26332
v -15.87851 2.530264 -32.56078
v -16.83469 2.520618 -32.26332
v -18.71931 -0.08144893 -38.27493
v -15.37391 -0.03808346 -38.63274
v 15.37391 -0.03808346 -38.63274
v 18.71931 -0.08144893 -38.27493
v 16.83469 2.520618 -32.26332
v 15.87851 2.530264 -32.56078
v -15.37391 -0.03808346 -38.63274
v -10.53742 -0.0310693 -36.7966
v -13.83934 2.504751 -31.81581
v -15.87851 2.530264 -32.56078
v 15.87851 2.530264 -32.56078
v 13.83934 2.504751 -31.81581
v 10.53742 -0.0310693 -36.7966
v 15.37391 -0.03808346 -38.63274
v 0.3359447 0.03124027 -29.35031
v 16.02984 -0.06356075 -29.43489
v 10.53742 -0.0310693 -36.7966
v 15.37391 -0.03808346 -38.63274
v 18.71931 -0.08144893 -38.27493
v 21.4123 -0.08314083 -36.93702
v 23.46153 -0.05534176 -34.86351
v 24.8581 0.02594852 -32.00847
v 25.24957 -0.07122432 -28.99384
v 24.23546 -0.06385861 -25.28981
v 21.52227 -0.09605282 -22.07317
v 7.561664 -0.05423275 -13.6748
v 0 -0.0339526 -29.28109
v 4.041954 -0.04256466 -11.59482
v 0 -0.03632107 -10.58644
v -4.041954 -0.04256435 -11.59482
v -0.3359447 0.03124027 -29.35031
v -7.561664 -0.05423275 -13.6748
v -10.53742 -0.0310693 -36.7966
v -16.02984 -0.06356075 -29.43489
v -15.37391 -0.03808346 -38.63274
v -21.52227 -0.09605282 -22.07317
v -18.71931 -0.08144893 -38.27493
v -24.23546 -0.06385861 -25.28981
v -21.4123 -0.08314083 -36.93702
v -25.24957 -0.07122432 -28.99384
v -23.46153 -0.05534176 -34.86351
v -24.8581 0.02594852 -32.00847
vt 0.3311202 0.4463087
vt 0.2244211 0.4463087
vt 0.226048 0.4598384
vt 0.226048 0.4327789
vt 0.2244211 0.4463087
vt 0.3311202 0.4463087
vt 0.3120289 0.772958
vt 0.3286897 0.7778952
vt 0.3495635 0.7752088
vt 0.3304252 0.720343
vt 0.367146 0.7658358
vt 0.376012 0.7576082
vt 0.3836238 0.7426913
vt 0.3888606 0.7258574
vt 0.3757452 0.6899566
vt 0.2886782 0.7542836
vt 0.2341112 0.4744904
vt 0.18526 0.5014697
vt 0.1364136 0.52845
vt 0.226048 0.4598384
vt 0.1133072 0.4876234
vt 0.1703071 0.4743181
vt 0.2244211 0.4463087
vt 0.1649798 0.4463087
vt 0.1055368 0.4463087
vt 0.1703071 0.4182991
vt 0.1649798 0.4463087
vt 0.1055368 0.4463087
vt 0.226048 0.4327789
vt 0.1133072 0.404994
vt 0.18526 0.3911475
vt 0.2341112 0.4181268
vt 0.1364136 0.3641672
vt 0.3757452 0.2026606
vt 0.3304252 0.1722744
vt 0.2886782 0.1383337
vt 0.3888606 0.1667601
vt 0.3120289 0.1196593
vt 0.3836238 0.149926
vt 0.3286897 0.1147222
vt 0.376012 0.1350091
vt 0.3495635 0.1174085
vt 0.367146 0.1267816
vt 0.3323388 0.4522231
vt 0.3311202 0.4463087
vt 0.226048 0.4598384
vt 0.2341112 0.4744904
vt 0.3757452 0.6899566
vt 0.4634342 0.6318247
vt 0.2341112 0.4181268
vt 0.226048 0.4327789
vt 0.3311202 0.4463087
vt 0.3323388 0.4403942
vt 0.4634342 0.2607926
vt 0.3757452 0.2026606
vt 0.001992032 0.4463087
vt 0.01974524 0.5174692
vt 0.1133072 0.4876234
vt 0.1055368 0.4463087
vt 0.1055368 0.4463087
vt 0.1133072 0.404994
vt 0.01974524 0.3751482
vt 0.001992032 0.4463087
vt 0.1364136 0.52845
vt 0.1133072 0.4876234
vt 0.01974524 0.5174692
vt 0.05636413 0.5794353
vt 0.2042214 0.8252183
vt 0.2886782 0.7542836
vt 0.05636413 0.3131821
vt 0.01974524 0.3751482
vt 0.1133072 0.404994
vt 0.1364136 0.3641672
vt 0.2886782 0.1383337
vt 0.2042214 0.06739909
vt 0.2042214 0.8252183
vt 0.2608518 0.8729852
vt 0.3120289 0.772958
vt 0.2886782 0.7542836
vt 0.2886782 0.1383337
vt 0.3120289 0.1196593
vt 0.2608518 0.01963208
vt 0.2042214 0.06739909
vt 0.2608518 0.8729852
vt 0.326063 0.8908392
vt 0.3286897 0.7778952
vt 0.3120289 0.772958
vt 0.3120289 0.1196593
vt 0.3286897 0.1147222
vt 0.326063 0.001778189
vt 0.2608518 0.01963208
vt 0.3495635 0.7752088
vt 0.3286897 0.7778952
vt 0.326063 0.8908392
vt 0.379137 0.8839471
vt 0.379137 0.008670252
vt 0.326063 0.001778189
vt 0.3286897 0.1147222
vt 0.3495635 0.1174085
vt 0.367146 0.7658358
vt 0.3495635 0.7752088
vt 0.379137 0.8839471
vt 0.4294012 0.8593598
vt 0.4294012 0.03325751
vt 0.379137 0.008670252
vt 0.3495635 0.1174085
vt 0.367146 0.1267816
vt 0.376012 0.7576082
vt 0.367146 0.7658358
vt 0.4294012 0.8593598
vt 0.4659064 0.8232823
vt 0.4659064 0.06933504
vt 0.4294012 0.03325751
vt 0.367146 0.1267816
vt 0.376012 0.1350091
vt 0.3836238 0.7426913
vt 0.376012 0.7576082
vt 0.4659064 0.8232823
vt 0.489461 0.7758709
vt 0.489461 0.1167464
vt 0.4659064 0.06933504
vt 0.376012 0.1350091
vt 0.3836238 0.149926
vt 0.3888606 0.7258574
vt 0.3836238 0.7426913
vt 0.489461 0.7758709
vt 0.4957603 0.7169735
vt 0.4957603 0.1756438
vt 0.489461 0.1167464
vt 0.3836238 0.149926
vt 0.3888606 0.1667601
vt 0.4957603 0.7169735
vt 0.4634342 0.6318247
vt 0.3757452 0.6899566
vt 0.3888606 0.7258574
vt 0.3888606 0.1667601
vt 0.3757452 0.2026606
vt 0.4634342 0.2607926
vt 0.4957603 0.1756438
vt 0.6676612 0.4403946
vt 0.666172 0.1640961
vt 0.5365656 0.2607928
vt 0.5042401 0.1756437
vt 0.5105394 0.1167465
vt 0.5340938 0.06933551
vt 0.5705989 0.03325785
vt 0.6208629 0.008670723
vt 0.6739373 0.001778122
vt 0.7391484 0.01963255
vt 0.7957784 0.06739943
vt 0.943636 0.3131824
vt 0.6688796 0.4463089
vt 0.9802548 0.3751485
vt 0.998008 0.4463089
vt 0.9802548 0.5174692
vt 0.6676612 0.4522232
vt 0.943636 0.5794353
vt 0.5365656 0.6318249
vt 0.666172 0.7285216
vt 0.5042401 0.716974
vt 0.7957784 0.8252183
vt 0.5105394 0.7758712
vt 0.7391484 0.8729852
vt 0.5340938 0.8232822
vt 0.6739373 0.890839
vt 0.5705989 0.8593599
vt 0.6208629 0.8839476
vn 0.05660946 0.9213361 -0.3846236
vn 0.05660946 0.9213361 -0.3846237
vn 0.05660945 0.9213361 -0.3846236
vn -0.0566094 0.9213361 -0.3846236
vn -0.0566094 0.9213361 -0.3846237
vn -0.0566094 0.9213361 -0.3846236
vn 0.007717496 0.9999691 -0.001505858
vn 0.005436284 0.9999807 -0.003034443
vn 0.006023915 0.9999819 -0.0001205372
vn 0.0076447 0.9999707 -0.0005258941
vn 0.007093291 0.9999615 0.005182883
vn 0.004260458 0.999982 0.004244903
vn 0.003170125 0.9999874 0.003918955
vn 0.006324488 0.9999665 0.005211622
vn -0.001304996 0.9999983 0.001291335
vn 0.004720781 0.9999554 -0.008175858
vn 0.003008236 0.9999908 0.003071043
vn 0.003854889 0.9999683 -0.006972566
vn 0.004720781 0.9999554 -0.008175858
vn 0.01161854 0.9999173 0.005528489
vn 0.0172377 0.9997877 -0.01128933
vn 0.0144384 0.9998786 -0.005853833
vn -0.0216328 0.9997308 0.008386364
vn 0.02645022 0.9996424 -0.003941893
vn 0.02869222 0.9995414 -0.009683238
vn -0.0144384 0.9998786 -0.005853869
vn -0.02645023 0.9996424 -0.003941927
vn -0.02869222 0.9995414 -0.009683266
vn -0.01161854 0.9999173 0.005528467
vn -0.0172377 0.9997877 -0.01128937
vn -0.001890676 0.9999913 -0.00372947
vn 0.001304996 0.9999983 0.001291335
vn -0.004370522 0.9999048 -0.01309136
vn -0.01004883 0.9999268 0.00673783
vn -0.006917364 0.9999614 0.005430794
vn -0.004720781 0.9999554 -0.0081759
vn -0.006324489 0.9999665 0.005211656
vn -0.007717494 0.9999691 -0.001505929
vn -0.003170128 0.9999874 0.003919018
vn -0.005436283 0.9999807 -0.003034554
vn -0.00426046 0.999982 0.004244879
vn -0.006023915 0.9999819 -0.00012061
vn -0.007093291 0.9999615 0.005182883
vn 0.220136 0.9080818 -0.356269
vn 0.220136 0.9080818 -0.356269
vn 0.220136 0.9080818 -0.356269
vn 0.220136 0.9080818 -0.356269
vn 0.2286644 0.9138408 -0.3355705
vn 0.2286645 0.9138408 -0.3355705
vn -0.2201362 0.9080818 -0.356269
vn -0.2201362 0.9080818 -0.356269
vn -0.2201362 0.9080817 -0.356269
vn -0.2201362 0.9080818 -0.356269
vn -0.2286645 0.9138408 -0.3355705
vn -0.2286644 0.9138408 -0.3355705
vn -0.08409819 0.9106956 0.4044268
vn -0.08409819 0.9106956 0.4044268
vn -0.08409819 0.9106957 0.4044268
vn -0.08409818 0.9106956 0.4044268
vn 0.08409823 0.9106956 0.4044268
vn 0.08409823 0.9106956 0.4044267
vn 0.08409823 0.9106956 0.4044268
vn 0.08409823 0.9106956 0.4044268
vn -0.2200111 0.9015666 0.3725224
vn -0.2200111 0.9015666 0.3725223
vn -0.2200111 0.9015666 0.3725224
vn -0.2200111 0.9015666 0.3725224
vn -0.2216499 0.9120346 0.3450568
vn -0.2216499 0.9120346 0.3450567
vn 0.2200111 0.9015666 0.3725224
vn 0.2200111 0.9015666 0.3725224
vn 0.2200111 0.9015666 0.3725224
vn 0.2200111 0.9015666 0.3725225
vn 0.22165 0.9120346 0.3450568
vn 0.22165 0.9120346 0.3450569
vn -0.2942491 0.9214258 0.2537555
vn -0.2942491 0.9214258 0.2537555
vn -0.2942491 0.9214258 0.2537555
vn -0.2942491 0.9214258 0.2537555
vn 0.2942492 0.9214258 0.2537555
vn 0.2942492 0.9214258 0.2537555
vn 0.2942492 0.9214258 0.2537555
vn 0.2942491 0.9214258 0.2537555
vn -0.371543 0.9231331 0.09889992
vn -0.371543 0.9231331 0.09889992
vn -0.371543 0.9231331 0.09889991
vn -0.371543 0.9231331 0.09889991
vn 0.371543 0.9231331 0.09889992
vn 0.3715429 0.9231331 0.09889991
vn 0.3715429 0.9231331 0.09889992
vn 0.3715429 0.9231331 0.09889992
vn -0.3727497 0.9276035 -0.02468559
vn -0.3727497 0.9276035 -0.02468559
vn -0.3727497 0.9276035 -0.02468559
vn -0.3727497 0.9276035 -0.0246856
vn 0.3727498 0.9276035 -0.02468556
vn 0.3727498 0.9276035 -0.02468556
vn 0.3727498 0.9276034 -0.02468555
vn 0.3727498 0.9276035 -0.02468556
vn -0.3278456 0.9267757 -0.1833141
vn -0.3278456 0.9267757 -0.1833141
vn -0.3278456 0.9267757 -0.1833141
vn -0.3278456 0.9267757 -0.1833141
vn 0.3278457 0.9267757 -0.1833142
vn 0.3278457 0.9267757 -0.1833141
vn 0.3278457 0.9267757 -0.1833142
vn 0.3278457 0.9267757 -0.1833142
vn -0.2698348 0.9231801 -0.2737291
vn -0.2698348 0.9231801 -0.2737291
vn -0.2698348 0.9231801 -0.2737291
vn -0.2698348 0.9231801 -0.2737291
vn 0.2698347 0.9231801 -0.273729
vn 0.2698348 0.9231801 -0.2737291
vn 0.2698348 0.9231801 -0.273729
vn 0.2698348 0.9231801 -0.273729
vn -0.1705752 0.922313 -0.3467606
vn -0.1705752 0.922313 -0.3467605
vn -0.1705753 0.922313 -0.3467605
vn -0.1705752 0.922313 -0.3467605
vn 0.1705752 0.922313 -0.3467605
vn 0.1705752 0.922313 -0.3467604
vn 0.1705752 0.922313 -0.3467604
vn 0.1705752 0.922313 -0.3467605
vn -0.07008392 0.9199815 -0.3856453
vn -0.07008392 0.9199815 -0.3856453
vn -0.07008391 0.9199815 -0.3856452
vn -0.07008393 0.9199815 -0.3856452
vn 0.07008393 0.9199815 -0.3856452
vn 0.07008392 0.9199815 -0.3856452
vn 0.07008393 0.9199815 -0.3856452
vn 0.07008393 0.9199815 -0.3856452
vn 0.1428564 0.9163682 -0.3739804
vn 0.1428564 0.9163682 -0.3739804
vn 0.1428564 0.9163682 -0.3739804
vn 0.1428565 0.9163682 -0.3739804
vn -0.1428565 0.9163682 -0.3739804
vn -0.1428565 0.9163682 -0.3739805
vn -0.1428565 0.9163681 -0.3739804
vn -0.1428565 0.9163681 -0.3739804
vn -0.006050107 -0.9999801 -0.001780424
vn -0.005645312 -0.9999826 -0.001728335
vn -0.006050106 -0.9999801 -0.001780424
vn -0.006786224 -0.9999744 -0.002285898
vn -0.007351023 -0.9999729 -0.0002129691
vn 0.00238215 -0.9999878 0.004318996
vn 0.01138534 -0.9998361 0.01407256
vn 0.00854132 -0.9999485 -0.005478602
vn -0.0001784197 -0.9999069 -0.01364448
vn 0.001369631 -0.9999952 -0.002783188
vn -0.003900182 -0.9999913 -0.001503769
vn -0.005636774 -0.9999826 -0.001727236
vn -0.01035899 -0.9999264 -0.006318596
vn 0.01035905 -0.9999264 -0.006318625
vn 0.001576226 -0.9999988 -0.0001266921
vn -0.01035899 -0.9999264 -0.006318596
vn 0.006050106 -0.9999801 -0.001780424
vn 0.005636774 -0.9999826 -0.001727236
vn 0.006050105 -0.9999801 -0.001780424
vn 0.005645312 -0.9999826 -0.001728335
vn 0.006786221 -0.9999744 -0.002285898
vn 0.003900182 -0.9999913 -0.001503769
vn 0.007351019 -0.9999729 -0.0002129685
vn -0.00136963 -0.9999952 -0.002783186
vn -0.002382149 -0.9999878 0.004318994
vn 0.0001784198 -0.9999069 -0.01364448
vn -0.01138534 -0.9998361 0.01407256
vn -0.00854132 -0.9999485 -0.005478602
g COL_Hill_Outer_MO_0
f 3/3/3 2/2/2 1/1/1
f 6/6/6 5/5/5 4/4/4
f 9/9/9 8/8/8 7/7/7
f 10/10/10 9/9/9 7/7/7
f 9/9/9 10/10/10 11/11/11
f 12/12/12 11/11/11 10/10/10
f 13/13/13 12/12/12 10/10/10
f 14/14/14 13/13/13 10/10/10
f 14/14/14 10/10/10 15/15/15
f 7/7/7 16/16/16 10/10/10
f 15/15/15 10/10/10 17/17/17
f 10/10/10 16/16/16 18/18/18
f 10/10/10 18/18/18 17/17/17
f 16/16/16 19/19/19 18/18/18
f 20/20/20 17/17/17 18/18/18
f 18/18/18 19/19/19 21/21/21
f 22/22/22 20/20/20 18/18/18
f 22/22/22 18/18/18 21/21/21
f 20/20/20 22/22/22 23/23/23
f 22/22/22 21/21/21 24/24/24
f 22/22/22 24/24/24 23/23/23
f 21/21/21 25/25/25 24/24/24
f 27/27/27 26/26/26 23/23/23
f 27/27/27 28/28/28 26/26/26
f 26/26/26 29/29/29 23/23/23
f 28/28/28 30/30/30 26/26/26
f 26/26/26 31/31/31 29/29/29
f 26/26/26 30/30/30 31/31/31
f 31/31/31 32/32/32 29/29/29
f 30/30/30 33/33/33 31/31/31
f 32/32/32 31/31/31 34/34/34
f 31/31/31 33/33/33 35/35/35
f 31/31/31 35/35/35 34/34/34
f 33/33/33 36/36/36 35/35/35
f 37/37/37 34/34/34 35/35/35
f 35/35/35 36/36/36 38/38/38
f 37/37/37 35/35/35 39/39/39
f 35/35/35 38/38/38 40/40/40
f 35/35/35 41/41/41 39/39/39
f 42/42/42 35/35/35 40/40/40
f 35/35/35 43/43/43 41/41/41
f 42/42/42 43/43/43 35/35/35
f 46/46/46 45/45/45 44/44/44
f 47/47/47 46/46/46 44/44/44
f 48/48/48 47/47/47 44/44/44
f 49/49/49 48/48/48 44/44/44
f 52/52/52 51/51/51 50/50/50
f 53/53/53 52/52/52 50/50/50
f 53/53/53 50/50/50 54/54/54
f 50/50/50 55/55/55 54/54/54
f 58/58/58 57/57/57 56/56/56
f 59/59/59 58/58/58 56/56/56
f 62/62/62 61/61/61 60/60/60
f 63/63/63 62/62/62 60/60/60
f 66/66/66 65/65/65 64/64/64
f 67/67/67 66/66/66 64/64/64
f 67/67/67 64/64/64 68/68/68
f 64/64/64 69/69/69 68/68/68
f 72/72/72 71/71/71 70/70/70
f 73/73/73 72/72/72 70/70/70
f 74/74/74 73/73/73 70/70/70
f 75/75/75 74/74/74 70/70/70
f 78/78/78 77/77/77 76/76/76
f 79/79/79 78/78/78 76/76/76
f 82/82/82 81/81/81 80/80/80
f 83/83/83 82/82/82 80/80/80
f 86/86/86 85/85/85 84/84/84
f 87/87/87 86/86/86 84/84/84
f 90/90/90 89/89/89 88/88/88
f 91/91/91 90/90/90 88/88/88
f 94/94/94 93/93/93 92/92/92
f 95/95/95 94/94/94 92/92/92
f 98/98/98 97/97/97 96/96/96
f 99/99/99 98/98/98 96/96/96
f 102/102/102 101/101/101 100/100/100
f 103/103/103 102/102/102 100/100/100
f 106/106/106 105/105/105 104/104/104
f 107/107/107 106/106/106 104/104/104
f 110/110/110 109/109/109 108/108/108
f 111/111/111 110/110/110 108/108/108
f 114/114/114 113/113/113 112/112/112
f 115/115/115 114/114/114 112/112/112
f 118/118/118 117/117/117 116/116/116
f 119/119/119 118/118/118 116/116/116
f 122/122/122 121/121/121 120/120/120
f 123/123/123 122/122/122 120/120/120
f 126/126/126 125/125/125 124/124/124
f 127/127/127 126/126/126 124/124/124
f 130/130/130 129/129/129 128/128/128
f 131/131/131 130/130/130 128/128/128
f 134/134/134 133/133/133 132/132/132
f 135/135/135 134/134/134 132/132/132
f 138/138/138 137/137/137 136/136/136
f 139/139/139 138/138/138 136/136/136
f 142/142/142 141/141/141 140/140/140
f 142/142/142 143/143/143 141/141/141
f 143/143/143 144/144/144 141/141/141
f 141/141/141 144/144/144 145/145/145
f 141/141/141 145/145/145 146/146/146
f 141/141/141 146/146/146 147/147/147
f 141/141/141 147/147/147 148/148/148
f 141/141/141 148/148/148 149/149/149
f 150/150/150 141/141/141 149/149/149
f 141/141/141 150/150/150 151/151/151
f 141/141/141 151/151/151 140/140/140
f 152/152/152 140/140/140 151/151/151
f 153/153/153 152/152/152 151/151/151
f 154/154/154 152/152/152 153/153/153
f 152/152/152 154/154/154 155/155/155
f 156/156/156 152/152/152 155/155/155
f 157/157/157 156/156/156 155/155/155
f 156/156/156 157/157/157 158/158/158
f 157/157/157 159/159/159 158/158/158
f 159/159/159 160/160/160 158/158/158
f 157/157/157 161/161/161 159/159/159
f 159/159/159 162/162/162 160/160/160
f 163/163/163 159/159/159 161/161/161
f 159/159/159 164/164/164 162/162/162
f 163/163/163 165/165/165 159/159/159
f 166/166/166 164/164/164 159/159/159
f 165/165/165 167/167/167 159/159/159
f 167/167/167 166/166/166 159/159/159
