g Col_ENV_FLR_Tier5Ramp
v -45.68237 -0.3226852 6.589217E-07
v -45.68237 3.412553 6.589217E-07
v 0 0 6.589217E-07
v 0 -3.735235 6.589217E-07
v -45.68237 3.412553 6.589217E-07
v -45.68237 3.412553 -14.24043
v 0 0 -14.24043
v 0 0 6.589217E-07
v -45.68237 3.412553 -14.24043
v -45.68237 -0.3226852 -14.24043
v 0 -3.735235 -14.24043
v 0 0 -14.24043
v -45.68237 -0.3226852 -14.24043
v -45.68237 -0.3226852 6.589217E-07
v 0 -3.735235 6.589217E-07
v 0 -3.735235 -14.24043
v 0 -3.735235 6.589217E-07
v 0 0 6.589217E-07
v 0 0 -14.24043
v 0 -3.735235 -14.24043
v -45.68237 -0.3226852 -14.24043
v -45.68237 3.412553 -14.24043
v -45.68237 3.412553 6.589217E-07
v -45.68237 -0.3226852 6.589217E-07
v -40.76503 -0.731616 -14.23987
v -40.76503 3.003621 -14.23987
v -2.607861 0.2657938 -14.23987
v -2.607861 -3.469441 -14.23987
v -40.76503 3.003621 -14.23987
v -37.65607 2.766793 -20.56085
v -5.574482 0.4791441 -20.56085
v -2.607861 0.2657938 -14.23987
v -37.65607 2.766793 -20.56085
v -37.62455 -0.731616 -20.56085
v -5.574482 -3.469441 -20.56085
v -5.574482 0.4791441 -20.56085
v -37.62455 -0.731616 -20.56085
v -40.76503 -0.731616 -14.23987
v -2.607861 -3.469441 -14.23987
v -5.574482 -3.469441 -20.56085
v -2.607861 -3.469441 -14.23987
v -2.607861 0.2657938 -14.23987
v -5.574482 0.4791441 -20.56085
v -5.574482 -3.469441 -20.56085
v -37.62455 -0.731616 -20.56085
v -37.65607 2.766793 -20.56085
v -40.76503 3.003621 -14.23987
v -40.76503 -0.731616 -14.23987
vt 0.375 0
vt 0.375 0.25
vt 0.625 0.25
vt 0.625 0
vt 0.375 0.25
vt 0.375 0.5
vt 0.625 0.5
vt 0.625 0.25
vt 0.375 0.5
vt 0.375 0.75
vt 0.625 0.75
vt 0.625 0.5
vt 0.375 0.75
vt 0.375 1
vt 0.625 1
vt 0.625 0.75
vt 0.625 0
vt 0.625 0.25
vt 0.875 0.25
vt 0.875 0
vt 0.125 0
vt 0.125 0.25
vt 0.375 0.25
vt 0.375 0
vt 0.375 0
vt 0.375 0.25
vt 0.625 0.25
vt 0.625 0
vt 0.375 0.25
vt 0.375 0.5
vt 0.625 0.5
vt 0.625 0.25
vt 0.375 0.5
vt 0.375 0.75
vt 0.625 0.75
vt 0.625 0.5
vt 0.375 0.75
vt 0.375 1
vt 0.625 1
vt 0.625 0.75
vt 0.625 0
vt 0.625 0.25
vt 0.875 0.25
vt 0.875 0
vt 0.125 0
vt 0.125 0.25
vt 0.375 0.25
vt 0.375 0
vn 0 0 1
vn 0 0 1
vn 0 0 1
vn 0 0 1
vn 0.07449418 0.9972215 0
vn 0.07449418 0.9972215 0
vn 0.07449418 0.9972215 0
vn 0.07449418 0.9972215 0
vn 0 0 -1
vn 0 0 -1
vn 0 0 -1
vn 0 0 -1
vn -0.07449412 -0.9972215 0
vn -0.07449412 -0.9972215 0
vn -0.07449412 -0.9972215 0
vn -0.07449412 -0.9972215 0
vn 1 0 0
vn 1 0 0
vn 1 0 0
vn 1 0 0
vn -1 0 0
vn -1 0 0
vn -1 0 0
vn -1 0 0
vn 0 0 1
vn 0 0 1
vn 0 0 1
vn 0 0 1
vn 0.07229747 0.996654 -0.0381292
vn 0.07229748 0.996654 -0.0381292
vn 0.07229748 0.996654 -0.0381292
vn 0.07229747 0.996654 -0.0381292
vn 0 0 -1
vn 0 0 -1
vn 0 0 -1
vn 0 0 -1
vn -0.07708351 -0.9969047 0.01546602
vn -0.07708351 -0.9969047 0.01546602
vn -0.07708351 -0.9969047 0.01546602
vn -0.07708351 -0.9969047 0.01546602
vn 0.9235477 0 -0.3834834
vn 0.9235477 0 -0.3834834
vn 0.9235477 0 -0.3834834
vn 0.9235477 0 -0.3834834
vn -0.8952143 0.3896737 -0.2162076
vn -0.8952143 0.3896737 -0.2162076
vn -0.8952143 0.3896737 -0.2162076
vn -0.8952144 0.3896737 -0.2162076
g Col_ENV_FLR_Tier5Ramp_0
f 3/3/3 2/2/2 1/1/1
f 4/4/4 3/3/3 1/1/1
f 7/7/7 6/6/6 5/5/5
f 8/8/8 7/7/7 5/5/5
f 11/11/11 10/10/10 9/9/9
f 12/12/12 11/11/11 9/9/9
f 15/15/15 14/14/14 13/13/13
f 16/16/16 15/15/15 13/13/13
f 19/19/19 18/18/18 17/17/17
f 20/20/20 19/19/19 17/17/17
f 23/23/23 22/22/22 21/21/21
f 24/24/24 23/23/23 21/21/21
f 27/27/27 26/26/26 25/25/25
f 28/28/28 27/27/27 25/25/25
f 31/31/31 30/30/30 29/29/29
f 32/32/32 31/31/31 29/29/29
f 35/35/35 34/34/34 33/33/33
f 36/36/36 35/35/35 33/33/33
f 39/39/39 38/38/38 37/37/37
f 40/40/40 39/39/39 37/37/37
f 43/43/43 42/42/42 41/41/41
f 44/44/44 43/43/43 41/41/41
f 47/47/47 46/46/46 45/45/45
f 48/48/48 47/47/47 45/45/45
