g COL_Bumper_MO
v 0.4682654 3.628447 -0.2128295
v 3.633597E-08 4.025253 -0.5039999
v 0.5504791 3.719447 -0.2849961
v 2.068364 2.993363 -0.1550185
v 1.759456 2.993363 0.007294426
v 2.846859 2.174805 -0.139
v 0.3402147 3.628447 -0.1920654
v 3.633597E-08 4.025253 -0.5039999
v 2.421683 2.174805 0.1183164
v 1.278319 2.993363 0.08531639
v 2.667108 1.425765 0.2122325
v 3.135373 1.425765 -0.1237978
v 3.475588 0.5628071 -0.07687254
v 2.904137 0.5385586 0.2479123
v 3.475588 -0.5618072 -0.07687254
v 1.937767 1.425765 0.3805039
v 0.1788615 3.628447 -0.1787324
v 3.633597E-08 4.025253 -0.5039999
v 1.759456 2.174805 0.2507055
v 0.6720521 2.993363 0.1354097
v -2.842171E-16 3.628447 -0.1741386
v 3.633597E-08 4.025253 -0.5039999
v 2.904137 -0.5661331 0.2479123
v 2.148031 0.5628071 0.5094346
v 1.018744 1.425765 0.4814385
v 0.9250005 2.174805 0.3196528
v -2.842171E-16 2.993363 0.1526714
v 2.796427 -1.386887 0.2037896
v 3.346684 -1.397363 -0.112665
v 2.846859 -2.174805 -0.139
v 2.378783 -2.150557 0.09073371
v 2.068364 -2.993363 -0.1550185
v 2.068364 -1.397363 0.4096529
v 2.148031 -0.5618072 0.5094346
v 1.129287 0.5628071 0.6316088
v -2.842171E-16 1.425765 0.5186035
v 1.759456 -2.993363 0.007294426
v 0.5504791 -3.654447 -0.2929961
v 1.759456 -2.174805 0.2507055
v 1.087403 -1.397363 0.5157055
v 1.129287 -0.5618072 0.6316088
v 0.4682654 -3.654447 -0.2538296
v 3.633597E-08 -4.045253 -0.5039999
v 1.278319 -2.993363 0.08531639
v 0.9250005 -2.174805 0.3446528
v 0.3402147 -3.654447 -0.2140654
v 3.633597E-08 -4.045253 -0.5039999
v 0.6720521 -2.993363 0.1604097
v -2.842171E-16 -1.397363 0.5546343
v -2.842171E-16 0.5628071 0.6876128
v 0.1788615 -3.654447 -0.1827324
v 3.633597E-08 -4.045253 -0.5039999
v -2.842171E-16 -2.174805 0.3794112
v -2.842171E-16 -0.5618072 0.6876128
v -2.842171E-16 -2.993363 0.1886714
v -1.087403 -1.397363 0.5157055
v -2.842171E-16 -3.654447 -0.1781386
v 3.633597E-08 -4.045253 -0.5039999
v -0.9250005 -2.174805 0.3446528
v -0.6720521 -2.993363 0.1604097
v -0.1788615 -3.654447 -0.1827324
v 3.633597E-08 -4.045253 -0.5039999
v -1.129287 0.5628071 0.6316088
v -1.129287 -0.5618072 0.6316088
v -2.068364 -1.397363 0.4096529
v -1.759455 -2.174805 0.2507055
v -1.278319 -2.993363 0.08531639
v -1.018744 1.425765 0.4814385
v -0.3402146 -3.654447 -0.2140654
v 3.633597E-08 -4.045253 -0.5039999
v -2.842171E-16 2.174805 0.3434111
v -2.796426 -1.386887 0.2037882
v -2.378782 -2.150557 0.09073371
v -1.759455 -2.993363 0.007294426
v -2.148031 -0.5618072 0.5094346
v -0.4682653 -3.654447 -0.2538296
v 3.633597E-08 -4.045253 -0.5039999
v -2.148031 0.5628071 0.5094346
v -1.937767 1.425765 0.3805039
v -0.9250005 2.174805 0.3196528
v -0.6720521 2.993363 0.1354097
v -0.1788615 3.628447 -0.1787324
v 3.633597E-08 4.025253 -0.5039999
v -0.3402146 3.628447 -0.1920654
v 3.633597E-08 4.025253 -0.5039999
v -1.278319 2.993363 0.08531639
v -1.759455 2.174805 0.2507055
v -2.667107 1.425765 0.2122325
v -0.4682653 3.628447 -0.2128295
v 3.633597E-08 4.025253 -0.5039999
v -1.759455 2.993363 0.007294426
v -2.904136 0.5385586 0.2479123
v -2.421682 2.174805 0.1183164
v -0.5504789 3.719447 -0.2849961
v 3.633597E-08 4.025253 -0.5039999
v -2.068363 2.993363 -0.1550185
v -3.135372 1.425765 -0.1237979
v -2.904136 -0.5661331 0.2479123
v -0.6270291 3.958905 -0.458
v 3.633597E-08 4.025253 -0.5039999
v -2.355992 3.242745 -0.44
v -2.846858 2.174805 -0.139
v -3.242746 2.355992 -0.44
v -3.57138 1.565709 -0.44
v -3.475586 0.5628071 -0.07687255
v -3.958905 0.6110285 -0.44
v -3.475586 -0.5618072 -0.07687255
v -3.958905 -0.6100286 -0.44
v -3.812076 -1.492618 -0.44
v -3.346682 -1.397363 -0.112665
v -2.846858 -2.174805 -0.139
v -3.242746 -2.355992 -0.44
v -2.068363 -2.993363 -0.1550185
v -2.355992 -3.242745 -0.44
v -0.5504789 -3.654447 -0.2929961
v 3.633597E-08 -4.045253 -0.5039999
v -0.6270291 -3.958905 -0.466
v 3.633597E-08 -4.045253 -0.5039999
v 0.5504791 3.719447 -0.2849961
v 3.633597E-08 4.025253 -0.5039999
v 0.6270289 3.958905 -0.458
v 2.355992 3.242745 -0.44
v 2.068364 2.993363 -0.1550185
v 3.242745 2.355992 -0.44
v 2.846859 2.174805 -0.139
v 3.135373 1.425765 -0.1237978
v 3.571379 1.565709 -0.44
v 3.958905 0.6110285 -0.44
v 3.475588 0.5628071 -0.07687254
v 3.958905 -0.6100286 -0.44
v 3.475588 -0.5618072 -0.07687254
v 3.346684 -1.397363 -0.112665
v 3.812075 -1.492618 -0.44
v 3.242745 -2.355992 -0.44
v 2.846859 -2.174805 -0.139
v 2.355992 -3.242745 -0.44
v 2.068364 -2.993363 -0.1550185
v 0.6270289 -3.958905 -0.466
v 0.5504791 -3.654447 -0.2929961
v 3.633597E-08 -4.045253 -0.5039999
vt 0.05 0.05
vt 0.025 0
vt 0 0.05
vt 0 0.2
vt 0.05 0.2
vt 0 0.3
vt 0.1 0.05
vt 0.075 0
vt 0.05 0.3
vt 0.1 0.2
vt 0.05 0.35
vt 0 0.35
vt 0 0.45
vt 0.05 0.45
vt 0 0.5500001
vt 0.1 0.35
vt 0.15 0.05
vt 0.125 0
vt 0.1 0.3
vt 0.15 0.2
vt 0.2 0.05
vt 0.175 0
vt 0.05 0.5500001
vt 0.1 0.45
vt 0.15 0.35
vt 0.15 0.3
vt 0.2 0.2
vt 0.05 0.6000001
vt 0 0.6000001
vt 0 0.7000001
vt 0.05 0.7000001
vt 0 0.8000001
vt 0.1 0.6000001
vt 0.1 0.5500001
vt 0.15 0.45
vt 0.2 0.35
vt 0.05 0.8000001
vt 0 0.9500002
vt 0.1 0.7000001
vt 0.15 0.6000001
vt 0.15 0.5500001
vt 0.05 0.9500002
vt 0.025 1
vt 0.1 0.8000001
vt 0.15 0.7000001
vt 0.1 0.9500002
vt 0.075 1
vt 0.15 0.8000001
vt 0.2 0.6000001
vt 0.2 0.45
vt 0.15 0.9500002
vt 0.125 1
vt 0.2 0.7000001
vt 0.2 0.5500001
vt 0.2 0.8000001
vt 0.25 0.6000001
vt 0.2 0.9500002
vt 0.175 1
vt 0.25 0.7000001
vt 0.25 0.8000001
vt 0.25 0.9500002
vt 0.225 1
vt 0.25 0.45
vt 0.25 0.5500001
vt 0.3 0.6000001
vt 0.3 0.7000001
vt 0.3 0.8000001
vt 0.25 0.35
vt 0.3 0.9500002
vt 0.275 1
vt 0.2 0.3
vt 0.35 0.6000001
vt 0.35 0.7000001
vt 0.35 0.8000001
vt 0.3 0.5500001
vt 0.35 0.9500002
vt 0.325 1
vt 0.3 0.45
vt 0.3 0.35
vt 0.25 0.3
vt 0.25 0.2
vt 0.25 0.05
vt 0.225 0
vt 0.3 0.05
vt 0.275 0
vt 0.3 0.2
vt 0.3 0.3
vt 0.35 0.35
vt 0.35 0.05
vt 0.325 0
vt 0.35 0.2
vt 0.35 0.45
vt 0.35 0.3
vt 0.4 0.05
vt 0.375 0
vt 0.4 0.2
vt 0.4 0.35
vt 0.35 0.5500001
vt 0.45 0.05
vt 0.425 0
vt 0.45 0.2
vt 0.4 0.3
vt 0.45 0.3
vt 0.45 0.35
vt 0.4 0.45
vt 0.45 0.45
vt 0.4 0.5500001
vt 0.45 0.5500001
vt 0.45 0.6000001
vt 0.4 0.6000001
vt 0.4 0.7000001
vt 0.45 0.7000001
vt 0.4 0.8000001
vt 0.45 0.8000001
vt 0.4 0.9500002
vt 0.375 1
vt 0.45 0.9500002
vt 0.425 1
vt 1 0.05
vt 0.975 0
vt 0.9500002 0.05
vt 0.9500002 0.2
vt 1 0.2
vt 0.9500002 0.3
vt 1 0.3
vt 1 0.35
vt 0.9500002 0.35
vt 0.9500002 0.45
vt 1 0.45
vt 0.9500002 0.5500001
vt 1 0.5500001
vt 1 0.6000001
vt 0.9500002 0.6000001
vt 0.9500002 0.7000001
vt 1 0.7000001
vt 0.9500002 0.8000001
vt 1 0.8000001
vt 0.9500002 0.9500002
vt 1 0.9500002
vt 0.975 1
vn 0.1549572 0.5384778 0.8282692
vn 0 0.821677 0.5699534
vn 0.2742094 0.7408318 0.6131701
vn 0.3892259 0.6094043 0.6907457
vn 0.198186 0.3500868 0.9155117
vn 0.5073668 0.4358 0.7434092
vn 0.08785386 0.460162 0.8834776
vn 0 0.821677 0.5699534
vn 0.2202948 0.224073 0.9493479
vn 0.1105951 0.2706078 0.9563159
vn 0.2145033 0.1084079 0.9706885
vn 0.5389302 0.2255079 0.8116036
vn 0.570906 0.09044393 0.8160185
vn 0.2227784 0.04204368 0.9739621
vn 0.5655926 -0.04457698 0.8234792
vn 0.1158186 0.08074588 0.9899829
vn 0.03923386 0.4272617 0.9032763
vn 0 0.821677 0.5699534
vn 0.1190891 0.1657053 0.9789584
vn 0.05072928 0.2352401 0.9706125
vn 0 0.4193449 0.9078271
vn 0 0.821677 0.5699534
vn 0.2203834 -0.02103479 0.9751865
vn 0.119079 0.03086564 0.9924049
vn 0.0521909 0.06926812 0.996232
vn 0.0536812 0.1412139 0.9885226
vn 0 0.224835 0.9743969
vn 0.2236898 -0.11137 0.9682766
vn 0.5590938 -0.2341529 0.7953532
vn 0.5141436 -0.3713521 0.7731455
vn 0.2149196 -0.1848518 0.9589783
vn 0.3892258 -0.6094042 0.6907458
vn 0.1196657 -0.08164773 0.9894512
vn 0.1180683 -0.01550367 0.9928844
vn 0.05342923 0.02629108 0.9982255
vn 0 0.06602247 0.9978181
vn 0.1981859 -0.3500867 0.9155117
vn 0.2742093 -0.7408317 0.6131701
vn 0.1164811 -0.1378952 0.9835736
vn 0.0537013 -0.06945679 0.9961385
vn 0.0530309 -0.01323453 0.9985052
vn 0.1549572 -0.5384779 0.8282692
vn 0 -0.8216774 0.5699528
vn 0.1105952 -0.270608 0.9563158
vn 0.05257719 -0.1181746 0.9915999
vn 0.08785385 -0.4601617 0.8834777
vn 0 -0.8216774 0.5699528
vn 0.05072927 -0.23524 0.9706125
vn 0 -0.06602585 0.9978179
vn 0 0.02500492 0.9996873
vn 0.03923386 -0.4272617 0.9032763
vn 0 -0.8216774 0.5699528
vn 0 -0.1125666 0.9936442
vn 0 -0.01259577 0.9999207
vn 0 -0.2248351 0.9743969
vn -0.05370132 -0.06945679 0.9961385
vn 0 -0.419345 0.907827
vn 0 -0.8216774 0.5699528
vn -0.0525772 -0.1181746 0.9915999
vn -0.05072928 -0.2352401 0.9706125
vn -0.03923387 -0.4272617 0.9032763
vn 0 -0.8216774 0.5699528
vn -0.05342923 0.02629108 0.9982255
vn -0.05303091 -0.01323453 0.9985052
vn -0.1196662 -0.08164787 0.9894512
vn -0.1164814 -0.1378951 0.9835736
vn -0.1105951 -0.2706077 0.9563159
vn -0.05219091 0.06926812 0.996232
vn -0.08785383 -0.4601615 0.8834779
vn 0 -0.8216774 0.5699528
vn 0 0.1342493 0.9909475
vn -0.2236898 -0.11137 0.9682766
vn -0.2149199 -0.1848515 0.9589783
vn -0.1981861 -0.3500868 0.9155117
vn -0.1180685 -0.0155039 0.9928844
vn -0.154957 -0.5384768 0.8282699
vn 0 -0.8216774 0.5699528
vn -0.1190791 0.03086565 0.9924049
vn -0.1158187 0.0807459 0.9899829
vn -0.05368122 0.1412139 0.9885226
vn -0.05072929 0.23524 0.9706125
vn -0.03923384 0.4272614 0.9032764
vn 0 0.821677 0.5699534
vn -0.08785383 0.4601615 0.8834779
vn 0 0.821677 0.5699534
vn -0.1105951 0.2706077 0.9563159
vn -0.1190891 0.1657054 0.9789584
vn -0.2145035 0.108408 0.9706885
vn -0.1549571 0.5384773 0.8282695
vn 0 0.821677 0.5699534
vn -0.1981862 0.350087 0.9155115
vn -0.2227785 0.04204369 0.973962
vn -0.2202948 0.2240729 0.9493479
vn -0.2742094 0.7408319 0.61317
vn 0 0.821677 0.5699534
vn -0.3892254 0.6094039 0.6907464
vn -0.5389294 0.2255076 0.8116042
vn -0.2203835 -0.02103517 0.9751865
vn -0.2812072 0.7767873 0.5634927
vn 0 0.821677 0.5699534
vn -0.4529224 0.6707227 0.5873606
vn -0.5073662 0.4357997 0.7434099
vn -0.6106306 0.5024818 0.6120802
vn -0.712706 0.2864724 0.6402997
vn -0.570905 0.09044384 0.8160192
vn -0.7489607 0.1128901 0.6529272
vn -0.5655915 -0.04457706 0.82348
vn -0.7542021 -0.05758736 0.6541122
vn -0.7127727 -0.2854455 0.6406839
vn -0.5590924 -0.2341524 0.7953541
vn -0.5141428 -0.3713515 0.7731464
vn -0.6449344 -0.4439578 0.6220619
vn -0.3892254 -0.6094037 0.6907464
vn -0.4529224 -0.6707227 0.5873606
vn -0.2742093 -0.7408316 0.6131703
vn 0 -0.8216774 0.5699528
vn -0.2812071 -0.7767872 0.5634929
vn 0 -0.8216774 0.5699528
vn 0.2742094 0.7408318 0.6131701
vn 0 0.821677 0.5699534
vn 0.2812074 0.776788 0.5634916
vn 0.4529228 0.6707236 0.5873592
vn 0.3892259 0.6094043 0.6907457
vn 0.6106316 0.5024827 0.6120785
vn 0.5073668 0.4358 0.7434092
vn 0.5389302 0.2255079 0.8116036
vn 0.7127076 0.2864731 0.6402977
vn 0.7489625 0.1128904 0.652925
vn 0.570906 0.09044393 0.8160185
vn 0.754204 -0.05758749 0.6541101
vn 0.5655926 -0.04457698 0.8234792
vn 0.5590938 -0.2341529 0.7953532
vn 0.7127743 -0.2854463 0.6406817
vn 0.6449356 -0.4439588 0.6220601
vn 0.5141436 -0.3713521 0.7731455
vn 0.4529228 -0.6707237 0.5873591
vn 0.3892258 -0.6094042 0.6907458
vn 0.2812074 -0.776788 0.5634916
vn 0.2742093 -0.7408317 0.6131701
vn 0 -0.8216774 0.5699528
g COL_Bumper_MO_0
f 3/3/3 2/2/2 1/1/1
f 4/4/4 3/3/3 1/1/1
f 5/5/5 4/4/4 1/1/1
f 6/6/6 4/4/4 5/5/5
f 5/5/5 1/1/1 7/7/7
f 1/1/1 8/8/8 7/7/7
f 9/9/9 6/6/6 5/5/5
f 10/10/10 5/5/5 7/7/7
f 9/9/9 5/5/5 10/10/10
f 9/9/9 11/11/11 6/6/6
f 11/11/11 12/12/12 6/6/6
f 13/13/13 12/12/12 11/11/11
f 14/14/14 13/13/13 11/11/11
f 15/15/15 13/13/13 14/14/14
f 16/16/16 11/11/11 9/9/9
f 14/14/14 11/11/11 16/16/16
f 10/10/10 7/7/7 17/17/17
f 7/7/7 18/18/18 17/17/17
f 19/19/19 9/9/9 10/10/10
f 19/19/19 16/16/16 9/9/9
f 20/20/20 10/10/10 17/17/17
f 19/19/19 10/10/10 20/20/20
f 20/20/20 17/17/17 21/21/21
f 17/17/17 22/22/22 21/21/21
f 23/23/23 15/15/15 14/14/14
f 24/24/24 14/14/14 16/16/16
f 23/23/23 14/14/14 24/24/24
f 25/25/25 16/16/16 19/19/19
f 24/24/24 16/16/16 25/25/25
f 26/26/26 19/19/19 20/20/20
f 26/26/26 25/25/25 19/19/19
f 27/27/27 20/20/20 21/21/21
f 26/26/26 20/20/20 27/27/27
f 23/23/23 28/28/28 15/15/15
f 28/28/28 29/29/29 15/15/15
f 30/30/30 29/29/29 28/28/28
f 31/31/31 30/30/30 28/28/28
f 32/32/32 30/30/30 31/31/31
f 33/33/33 28/28/28 23/23/23
f 31/31/31 28/28/28 33/33/33
f 34/34/34 23/23/23 24/24/24
f 34/34/34 33/33/33 23/23/23
f 35/35/35 24/24/24 25/25/25
f 34/34/34 24/24/24 35/35/35
f 36/36/36 25/25/25 26/26/26
f 35/35/35 25/25/25 36/36/36
f 37/37/37 32/32/32 31/31/31
f 38/38/38 32/32/32 37/37/37
f 39/39/39 31/31/31 33/33/33
f 37/37/37 31/31/31 39/39/39
f 40/40/40 33/33/33 34/34/34
f 39/39/39 33/33/33 40/40/40
f 41/41/41 34/34/34 35/35/35
f 41/41/41 40/40/40 34/34/34
f 42/42/42 38/38/38 37/37/37
f 42/42/42 43/43/43 38/38/38
f 44/44/44 37/37/37 39/39/39
f 42/42/42 37/37/37 44/44/44
f 45/45/45 39/39/39 40/40/40
f 44/44/44 39/39/39 45/45/45
f 46/46/46 42/42/42 44/44/44
f 46/46/46 47/47/47 42/42/42
f 46/46/46 44/44/44 48/48/48
f 48/48/48 44/44/44 45/45/45
f 45/45/45 40/40/40 49/49/49
f 49/49/49 40/40/40 41/41/41
f 41/41/41 35/35/35 50/50/50
f 50/50/50 35/35/35 36/36/36
f 51/51/51 46/46/46 48/48/48
f 51/51/51 52/52/52 46/46/46
f 48/48/48 45/45/45 53/53/53
f 53/53/53 45/45/45 49/49/49
f 54/54/54 49/49/49 41/41/41
f 54/54/54 41/41/41 50/50/50
f 51/51/51 48/48/48 55/55/55
f 55/55/55 48/48/48 53/53/53
f 53/53/53 49/49/49 56/56/56
f 56/56/56 49/49/49 54/54/54
f 57/57/57 51/51/51 55/55/55
f 57/57/57 58/58/58 51/51/51
f 55/55/55 53/53/53 59/59/59
f 59/59/59 53/53/53 56/56/56
f 57/57/57 55/55/55 60/60/60
f 60/60/60 55/55/55 59/59/59
f 61/61/61 57/57/57 60/60/60
f 61/61/61 62/62/62 57/57/57
f 54/54/54 50/50/50 63/63/63
f 64/64/64 56/56/56 54/54/54
f 64/64/64 54/54/54 63/63/63
f 59/59/59 56/56/56 65/65/65
f 65/65/65 56/56/56 64/64/64
f 60/60/60 59/59/59 66/66/66
f 66/66/66 59/59/59 65/65/65
f 61/61/61 60/60/60 67/67/67
f 67/67/67 60/60/60 66/66/66
f 63/63/63 50/50/50 68/68/68
f 50/50/50 36/36/36 68/68/68
f 69/69/69 61/61/61 67/67/67
f 69/69/69 70/70/70 61/61/61
f 68/68/68 36/36/36 71/71/71
f 71/71/71 36/36/36 26/26/26
f 71/71/71 26/26/26 27/27/27
f 66/66/66 65/65/65 72/72/72
f 67/67/67 66/66/66 73/73/73
f 73/73/73 66/66/66 72/72/72
f 69/69/69 67/67/67 74/74/74
f 74/74/74 67/67/67 73/73/73
f 72/72/72 65/65/65 75/75/75
f 75/75/75 65/65/65 64/64/64
f 76/76/76 69/69/69 74/74/74
f 76/76/76 77/77/77 69/69/69
f 75/75/75 64/64/64 78/78/78
f 64/64/64 63/63/63 78/78/78
f 78/78/78 63/63/63 79/79/79
f 63/63/63 68/68/68 79/79/79
f 80/80/80 68/68/68 71/71/71
f 79/79/79 68/68/68 80/80/80
f 80/80/80 71/71/71 81/81/81
f 71/71/71 27/27/27 81/81/81
f 81/81/81 27/27/27 82/82/82
f 27/27/27 21/21/21 82/82/82
f 21/21/21 83/83/83 82/82/82
f 81/81/81 82/82/82 84/84/84
f 82/82/82 85/85/85 84/84/84
f 80/80/80 81/81/81 86/86/86
f 86/86/86 81/81/81 84/84/84
f 87/87/87 79/79/79 80/80/80
f 87/87/87 80/80/80 86/86/86
f 78/78/78 79/79/79 88/88/88
f 88/88/88 79/79/79 87/87/87
f 86/86/86 84/84/84 89/89/89
f 84/84/84 90/90/90 89/89/89
f 87/87/87 86/86/86 91/91/91
f 91/91/91 86/86/86 89/89/89
f 92/92/92 78/78/78 88/88/88
f 75/75/75 78/78/78 92/92/92
f 93/93/93 88/88/88 87/87/87
f 93/93/93 87/87/87 91/91/91
f 91/91/91 89/89/89 94/94/94
f 89/89/89 95/95/95 94/94/94
f 96/96/96 91/91/91 94/94/94
f 93/93/93 91/91/91 96/96/96
f 97/97/97 88/88/88 93/93/93
f 92/92/92 88/88/88 97/97/97
f 98/98/98 75/75/75 92/92/92
f 98/98/98 72/72/72 75/75/75
f 96/96/96 94/94/94 99/99/99
f 94/94/94 100/100/100 99/99/99
f 101/101/101 96/96/96 99/99/99
f 102/102/102 93/93/93 96/96/96
f 102/102/102 96/96/96 101/101/101
f 102/102/102 97/97/97 93/93/93
f 103/103/103 102/102/102 101/101/101
f 103/103/103 104/104/104 102/102/102
f 104/104/104 97/97/97 102/102/102
f 105/105/105 92/92/92 97/97/97
f 105/105/105 97/97/97 104/104/104
f 98/98/98 92/92/92 105/105/105
f 106/106/106 105/105/105 104/104/104
f 107/107/107 105/105/105 106/106/106
f 107/107/107 98/98/98 105/105/105
f 108/108/108 107/107/107 106/106/106
f 108/108/108 109/109/109 107/107/107
f 107/107/107 110/110/110 98/98/98
f 109/109/109 110/110/110 107/107/107
f 110/110/110 72/72/72 98/98/98
f 73/73/73 72/72/72 110/110/110
f 111/111/111 110/110/110 109/109/109
f 111/111/111 73/73/73 110/110/110
f 112/112/112 111/111/111 109/109/109
f 74/74/74 73/73/73 111/111/111
f 113/113/113 111/111/111 112/112/112
f 113/113/113 74/74/74 111/111/111
f 114/114/114 113/113/113 112/112/112
f 76/76/76 74/74/74 113/113/113
f 115/115/115 113/113/113 114/114/114
f 115/115/115 76/76/76 113/113/113
f 115/115/115 116/116/116 76/76/76
f 117/117/117 115/115/115 114/114/114
f 117/117/117 118/118/118 115/115/115
f 121/121/121 120/120/120 119/119/119
f 122/122/122 121/121/121 119/119/119
f 123/123/123 122/122/122 119/119/119
f 124/124/124 122/122/122 123/123/123
f 125/125/125 124/124/124 123/123/123
f 125/125/125 126/126/126 124/124/124
f 126/126/126 127/127/127 124/124/124
f 128/128/128 127/127/127 126/126/126
f 129/129/129 128/128/128 126/126/126
f 130/130/130 128/128/128 129/129/129
f 131/131/131 130/130/130 129/129/129
f 131/131/131 132/132/132 130/130/130
f 132/132/132 133/133/133 130/130/130
f 134/134/134 133/133/133 132/132/132
f 135/135/135 134/134/134 132/132/132
f 136/136/136 134/134/134 135/135/135
f 137/137/137 136/136/136 135/135/135
f 138/138/138 136/136/136 137/137/137
f 139/139/139 138/138/138 137/137/137
f 139/139/139 140/140/140 138/138/138
