g COL_FlatPlatform01_MO
v -6.509941 -0.6960155 5.151741
v -6.509941 0.7126259 5.151741
v 6.509941 0.7126259 5.151741
v 6.509941 -0.6960155 5.151741
v -6.509941 0.7126259 5.151741
v 6.509941 0.3141856 3.939369
v 6.509941 0.7126259 5.151741
v -6.509941 0.3141856 3.939369
v 6.509941 0.3141856 -5.171896
v -6.509941 0.3141856 -5.171896
v -6.509941 0.3141856 -5.171896
v -6.509941 -0.6960155 -5.171896
v 6.509941 -0.6960155 -5.171896
v 6.509941 0.3141856 -5.171896
v -6.509941 -0.6960155 3.939369
v -6.509941 -0.6960155 5.151741
v 6.509941 -0.6960155 5.151741
v 6.509941 -0.6960155 3.939369
v -6.509941 -0.6960155 -5.171896
v 6.509941 -0.6960155 -5.171896
v 6.509941 -0.6960155 5.151741
v 6.509941 0.7126259 5.151741
v 6.509941 0.3141856 3.939369
v 6.509941 -0.6960155 3.939369
v 6.509941 -0.6960155 -5.171896
v 6.509941 0.3141856 -5.171896
v -6.509941 -0.6960155 3.939369
v -6.509941 0.7126259 5.151741
v -6.509941 -0.6960155 5.151741
v -6.509941 0.3141856 3.939369
v -6.509941 -0.6960155 -5.171896
v -6.509941 0.3141856 -5.171896
vt 0.375 0
vt 0.375 0.25
vt 0.625 0.25
vt 0.625 0
vt 0.375 0.25
vt 0.625 0.2792278
vt 0.625 0.25
vt 0.375 0.2792278
vt 0.625 0.5
vt 0.375 0.5
vt 0.375 0.5
vt 0.375 0.75
vt 0.625 0.75
vt 0.625 0.5
vt 0.375 0.9707722
vt 0.375 1
vt 0.625 1
vt 0.625 0.9707722
vt 0.375 0.75
vt 0.625 0.75
vt 0.625 0
vt 0.625 0.25
vt 0.6542278 0.25
vt 0.6542278 0
vt 0.875 0
vt 0.875 0.25
vt 0.3457722 0
vt 0.375 0.25
vt 0.375 0
vt 0.3457722 0.25
vt 0.125 0
vt 0.125 0.25
vn 0 0 1
vn 0 0 1
vn 0 0 1
vn 0 0 1
vn 0 0.950011 -0.3122166
vn 0 0.9992561 -0.03856624
vn 0 0.950011 -0.3122166
vn 0 0.9992561 -0.03856624
vn 0 1 0
vn 0 1 0
vn 0 0 -1
vn 0 0 -1
vn 0 0 -1
vn 0 0 -1
vn 0 -1 0
vn 0 -1 0
vn 0 -1 0
vn 0 -1 0
vn 0 -1 0
vn 0 -1 0
vn 1 0 0
vn 1 0 0
vn 1 0 0
vn 1 0 0
vn 1 0 0
vn 1 0 0
vn -1 0 0
vn -1 0 0
vn -1 0 0
vn -1 0 0
vn -1 0 0
vn -1 0 0
g COL_FlatPlatform01_MO_0
f 3/3/3 2/2/2 1/1/1
f 4/4/4 3/3/3 1/1/1
f 7/7/7 6/6/6 5/5/5
f 6/6/6 8/8/8 5/5/5
f 6/6/6 9/9/9 8/8/8
f 9/9/9 10/10/10 8/8/8
f 13/13/13 12/12/12 11/11/11
f 14/14/14 13/13/13 11/11/11
f 17/17/17 16/16/16 15/15/15
f 18/18/18 17/17/17 15/15/15
f 18/18/18 15/15/15 19/19/19
f 20/20/20 18/18/18 19/19/19
f 23/23/23 22/22/22 21/21/21
f 24/24/24 23/23/23 21/21/21
f 24/24/24 25/25/25 23/23/23
f 25/25/25 26/26/26 23/23/23
f 29/29/29 28/28/28 27/27/27
f 28/28/28 30/30/30 27/27/27
f 27/27/27 30/30/30 31/31/31
f 30/30/30 32/32/32 31/31/31
