g COL_ConveyorSupport_MO
v 1.886302 -1.251502 -5.65729
v 1.886302 -2.565393 -5.65729
v -1.575442 -2.36086 -5.65729
v -1.575442 -2.36086 -5.65729
v 1.886302 -2.565393 -5.65729
v -1.575442 -2.351841 -5.65729
v -0.7356755 -2.351791 5.610158
v -2.869463 -2.36086 -5.65729
v -0.3742721 -2.351791 5.37448
v 1.886302 -2.565393 -5.65729
v -1.575442 -2.565404 -5.65729
v -1.575442 -2.351841 -5.65729
v 1.886302 -1.251502 -5.65729
v 3.039478 -1.251502 -6.758547
v 3.039914 -1.251502 -5.66476
v 3.043895 2.571156 4.451666
v 1.879249 2.571156 4.457525
v 3.044093 2.746268 4.907211
v 1.453366 2.746268 5.002202
v 3.044813 2.746268 6.782948
v -0.4584043 2.746268 6.790441
v -0.7089534 2.746268 6.086308
v -0.3742721 2.746268 5.37448
v -0.7356755 2.746268 5.610158
v -3.065069 -2.36086 -6.758547
v -1.582683 -2.36086 -6.758547
v -2.869463 -2.36086 -5.65729
v -1.575442 -2.36086 -5.65729
v 1.886302 -1.251502 -5.65729
v 1.894887 -1.251502 -6.758547
v 3.039478 -1.251502 -6.758547
v -0.7356755 2.746268 5.610158
v -0.7356755 -2.351791 5.610158
v -0.3742721 2.746268 5.37448
v -0.3742721 -2.351791 5.37448
v -0.3742721 2.746268 5.37448
v 0.6056693 -2.351791 5.174872
v 1.453366 2.746268 5.002202
v -0.3742721 -2.351791 5.37448
v -2.869463 -2.36086 -5.65729
v -1.575442 -2.36086 -5.65729
v -0.3742721 -2.351791 5.37448
v 0.6056693 -2.351791 5.174872
v 1.886302 -2.565393 -5.65729
v 1.879249 -2.565355 4.457525
v -1.575442 -2.565404 -5.65729
v 1.453366 -2.565353 5.002202
v 0.6056693 -2.565353 5.174872
v -1.575442 -2.574423 -5.65729
v 1.886302 -2.565393 -5.65729
v 1.886302 -1.251502 -5.65729
v 1.879249 -2.565355 4.457525
v 1.879249 2.571156 4.457525
v -1.575442 -2.351841 -5.65729
v -1.575442 -2.565404 -5.65729
v -1.575442 -2.36086 -5.65729
v -1.575442 -2.574423 -5.65729
v -1.575442 -2.36086 -5.65729
v -1.575442 -2.574423 -5.65729
v 0.6056693 -2.351791 5.174872
v 0.6056693 -2.565353 5.174872
v 0.6056693 -2.351791 5.174872
v 0.6056693 -2.565353 5.174872
v 1.453366 -2.565353 5.002202
v 1.453366 2.746268 5.002202
v 1.879249 -2.565355 4.457525
v 1.879249 2.571156 4.457525
v 1.453366 -2.565353 5.002202
v 1.453366 2.746268 5.002202
v -2.869463 -2.36086 -5.65729
v -2.869463 -2.724864 -5.65729
v -3.065069 -2.36086 -6.758547
v -3.065069 -2.724875 -6.758547
v -0.7356755 -2.351791 5.610158
v -0.7356755 2.746268 5.610158
v -0.7089534 2.746268 6.086308
v -0.7089534 -2.724864 6.086308
v -0.7356755 -2.724864 5.610158
v -0.7089534 2.746268 6.086308
v -0.4584043 2.746268 6.790441
v -0.7089534 -2.724864 6.086308
v -0.4584043 -2.724849 6.790441
v -0.7356755 -2.351791 5.610158
v -0.7356755 -2.724864 5.610158
v -2.869463 -2.36086 -5.65729
v -2.869463 -2.724864 -5.65729
v 3.039478 -1.251502 -6.758547
v 3.039478 -2.724874 -6.758547
v 3.039914 -1.251502 -5.66476
v 3.039914 -2.724874 -5.66476
v 3.044813 2.746268 6.782948
v 3.044813 -2.724835 6.782948
v -0.4584043 2.746268 6.790441
v -0.4584043 -2.724849 6.790441
v 1.894887 -1.251502 -6.758547
v 1.894887 -2.724874 -6.758547
v 3.039478 -1.251502 -6.758547
v 3.039478 -2.724874 -6.758547
v -3.065069 -2.36086 -6.758547
v -3.065069 -2.724875 -6.758547
v -1.582683 -2.36086 -6.758547
v -1.582683 -2.724886 -6.758547
v 1.894887 -1.251502 -6.758547
v -1.582683 -2.36086 -6.758547
v 1.894887 -2.724874 -6.758547
v -1.582683 -2.724886 -6.758547
v 3.043895 2.571156 4.451666
v 3.039914 -1.251502 -5.66476
v 3.043895 -2.724837 4.451666
v 3.039914 -2.724874 -5.66476
v 3.044093 2.746268 4.907211
v 3.043895 2.571156 4.451666
v 3.044093 -2.724835 4.907211
v 3.043895 -2.724837 4.451666
v 3.044093 2.746268 4.907211
v 3.044093 -2.724835 4.907211
v 3.044813 2.746268 6.782948
v 3.044813 -2.724835 6.782948
v -3.065069 -2.724875 -6.758547
v -2.869463 -2.724864 -5.65729
v -1.582683 -2.724886 -6.758547
v 3.043895 -2.724837 4.451666
v 3.039914 -2.724874 -5.66476
v 1.894887 -2.724874 -6.758547
v 3.039478 -2.724874 -6.758547
v 3.044093 -2.724835 4.907211
v -0.7356755 -2.724864 5.610158
v -0.7089534 -2.724864 6.086308
v -0.4584043 -2.724849 6.790441
v 3.044813 -2.724835 6.782948
vt 0 0
vt 0 1
vt 1 0
vt 1 0
vt 0 1
vt 1 1
vt 0 5.360801E-17
vt 0.4118761 1
vt 0.04069007 0
vt 0 1
vt 1 1
vt 1 1
vt 0.9133819 0.1286981
vt 1 0.2077578
vt 0.9197195 0.2132882
vt 0.1868198 0.2637767
vt 0.1806161 0.1794289
vt 0.1505184 0.2662774
vt 0.1488328 0.1659066
vt 0.01792654 0.2754115
vt 0 0.02164597
vt 0.04977005 7.739749E-18
vt 0.1042357 0.02063037
vt 0.08928882 0
vt 0 1
vt 0 0.757167
vt 1 1
vt 1 0.727073
vt 1 0
vt 0 0.1898717
vt 0 0
vt 0 0
vt 0 1
vt 1 0
vt 1 1
vt 0 0
vt 0.536179 1
vt 1 0
vt 0 1
vt 1 3.210223E-14
vt 0.6276338 0
vt 0.2819867 0.002609746
vt 0 0.002609746
vt 0 1
vt 0 1
vt 1 1
vt 0 1
vt 0.536179 1
vt 0.6276338 0
vt 0 1
vt 1 0
vt 0 1
vt 0 0
vt 1 1
vt 1 1
vt 0.6276338 0
vt 0.6276338 0
vt 0.6276338 0
vt 0.6276338 0
vt 0.536179 1
vt 0.536179 1
vt 0.536179 1
vt 0.536179 1
vt 0 1
vt 1 0
vt 0 1
vt 1 0
vt 0 1
vt 0 0
vt 0 0
vt 0 1
vt 1 0
vt 1 1
vt 1 0
vt 1 0
vt 0 0
vt 0 1
vt 1 1
vt 1 0
vt 0 0
vt 1 1
vt 0 1
vt 0 0
vt 0 1
vt 1 0
vt 1 1
vt 0 0
vt 0 1
vt 1 0
vt 1 1
vt 0 0
vt 0 1
vt 1 0
vt 1 1
vt 0 0
vt 0 1
vt 1 0
vt 1 1
vt 0 0
vt 0 1
vt 1 0
vt 1 1
vt 1 0
vt 0 0
vt 1 1
vt 0 1
vt 1 0
vt 0 0
vt 1 1
vt 0 1
vt 1 0
vt 0 0
vt 1 1
vt 0 1
vt 0 0
vt 0 1
vt 1 0
vt 1 1
vt 0 1
vt 0 1
vt 0 1
vt 0 1
vt 0 1
vt 0 1
vt 0 1
vt 0 1
vt 0 1
vt 0 1
vt 0 1
vt 0 1
vn 0 0 1
vn 0 0 1
vn -1.955199E-07 0 1
vn -1.955199E-07 0 1
vn 0 0 1
vn -6.25563E-06 0 -1
vn -0.0004671948 0.9999996 -0.0007163615
vn -0.0004671947 0.9999996 -0.0007163615
vn -0.0004671948 0.9999996 -0.0007163615
vn 0 0 1
vn 0 0 1
vn 0 0 1
vn -0.002155837 0.9411045 -0.3381091
vn 0 1 0
vn -0.002088535 0.9465551 -0.3225356
vn -0.001812227 0.9353395 -0.3537469
vn -0.003053138 0.936336 -0.351092
vn -0.001571993 0.9978061 -0.06618492
vn -0.001045109 0.9998463 -0.01750157
vn 0 1 -1.769834E-07
vn 0 1 0
vn 0 1 4.831671E-07
vn 0 1 -3.199187E-07
vn 0 1 0
vn 0 1 0
vn -0.2227752 0.9748694 0.0008641447
vn 0 1 0
vn -0.2276454 0.973743 0.001497078
vn -0.2638643 0.964559 -0.001351468
vn -0.2328497 0.9725111 -0.001815257
vn 0 1 0
vn -0.5462353 0 -0.8376318
vn -0.5462353 0 -0.8376318
vn -0.5462353 0 -0.8376318
vn -0.5462354 0 -0.8376318
vn -0.1995953 0 -0.9798784
vn -0.1995956 0 -0.9798784
vn -0.1995954 0 -0.9798784
vn -0.199595 0 -0.9798784
vn 0 0.9999996 -0.0008220842
vn -6.54268E-06 0.9999996 -0.0008213733
vn -0.0001489833 0.9999996 -0.0008058929
vn -0.0001638233 0.9999996 -0.0008042801
vn -2.997327E-06 1 -3.859354E-06
vn -2.639559E-06 1 -4.00626E-06
vn -0.003447734 0.9999938 0.0006897802
vn -1.320391E-06 1 -4.274388E-06
vn -5.939899E-06 1 -3.318729E-06
vn -0.980323 0 0.1974005
vn -0.9999998 0 -0.0006972557
vn -0.9999998 0 -0.0006972555
vn -0.9999998 0 -0.0006972555
vn -0.9999998 0 -0.0006972554
vn 1 0 0
vn -1 0 0
vn 1 0 0
vn -1 0 0
vn 0.9803243 0 -0.1973933
vn 0.9803243 0 -0.1973933
vn 0.9803243 0 -0.1973933
vn 0.9803243 0 -0.1973933
vn -0.1995956 0 -0.9798784
vn -0.1995951 0 -0.9798784
vn -0.1995961 0 -0.9798782
vn -0.1995954 0 -0.9798784
vn -0.7877758 0 -0.6159622
vn -0.7877755 0 -0.6159624
vn -0.7877758 0 -0.6159622
vn -0.7877755 0 -0.6159625
vn -0.9845893 0 0.1748832
vn -0.9845893 0 0.1748831
vn -0.9845893 0 0.1748829
vn -0.9845893 0 0.1748828
vn -0.9984289 0 0.056033
vn -0.9984289 0 0.05603294
vn -0.9984289 0 0.05603294
vn -0.9984289 0 0.056033
vn -0.9984289 0 0.05603284
vn -0.942134 0 0.3352366
vn -0.942134 0 0.3352366
vn -0.942134 0 0.3352363
vn -0.9421341 0 0.3352363
vn -0.9825366 0 0.1860691
vn -0.9825366 0 0.1860691
vn -0.9825366 0 0.1860693
vn -0.9825366 0 0.1860693
vn 1 0 -0.000398703
vn 1 0 -0.0003987027
vn 1 0 -0.0003987028
vn 1 0 -0.0003987025
vn 0.002138496 0 0.9999977
vn 0.002138461 0 0.9999977
vn 0.002138476 0 0.9999977
vn 0.002138442 0 0.9999977
vn -1.85305E-06 0 -1
vn -7.791431E-07 0 -1
vn -1.073906E-06 0 -1
vn 0 0 -1
vn 0 0 -1
vn 0 0 -1
vn 1.031377E-07 0 -1
vn 1.218102E-07 0 -1
vn 3.04952E-07 0 -1
vn 0 0 -1
vn 2.943576E-07 0 -1
vn -3.085688E-07 0 -1
vn 1 0 -0.0003935503
vn 1 0 -0.0003935503
vn 1 0 -0.0003935503
vn 1 0 -0.0003935505
vn 0.9999999 0 -0.0004334342
vn 0.9999999 0 -0.0004334341
vn 0.9999999 0 -0.0004334342
vn 0.9999999 0 -0.0004334342
vn 1 0 -0.0003839637
vn 1 0 -0.0003839638
vn 1 0 -0.0003839637
vn 1 0 -0.0003839637
vn -7.411244E-06 -1 1.130608E-05
vn -4.85368E-06 -1 5.6452E-06
vn -2.511191E-06 -1 5.360133E-06
vn -5.017709E-07 -1 4.799406E-06
vn 1.578681E-06 -1 3.531342E-06
vn 2.937115E-06 -1 -3.344252E-06
vn 0 -1 0
vn 6.883002E-06 -1 -9.742471E-07
vn 7.417024E-06 -1 -1.391131E-06
vn 1.100455E-05 -1 1.040171E-05
vn 9.016712E-06 -1 8.988884E-06
vn 4.094307E-06 -1 0
g COL_ConveyorSupport_MO_0
f 3/3/3 2/2/2 1/1/1
f 6/6/6 5/5/5 4/4/4
f 9/9/9 8/8/8 7/7/7
f 12/12/12 11/11/11 10/10/10
f 15/15/15 14/14/14 13/13/13
f 16/16/16 15/15/15 13/13/13
f 16/16/16 13/13/13 17/17/17
f 18/18/18 16/16/16 17/17/17
f 18/18/18 17/17/17 19/19/19
f 20/20/20 18/18/18 19/19/19
f 19/19/19 21/21/21 20/20/20
f 19/19/19 22/22/22 21/21/21
f 19/19/19 23/23/23 22/22/22
f 22/22/22 23/23/23 24/24/24
f 27/27/27 26/26/26 25/25/25
f 27/27/27 28/28/28 26/26/26
f 26/26/26 28/28/28 29/29/29
f 26/26/26 29/29/29 30/30/30
f 30/30/30 29/29/29 31/31/31
f 34/34/34 33/33/33 32/32/32
f 34/34/34 35/35/35 33/33/33
f 38/38/38 37/37/37 36/36/36
f 37/37/37 39/39/39 36/36/36
f 42/42/42 41/41/41 40/40/40
f 42/42/42 43/43/43 41/41/41
f 46/46/46 45/45/45 44/44/44
f 46/46/46 47/47/47 45/45/45
f 47/47/47 46/46/46 48/48/48
f 48/48/48 46/46/46 49/49/49
f 52/52/52 51/51/51 50/50/50
f 52/52/52 53/53/53 51/51/51
f 56/56/56 55/55/55 54/54/54
f 57/57/57 55/55/55 56/56/56
f 60/60/60 59/59/59 58/58/58
f 60/60/60 61/61/61 59/59/59
f 64/64/64 63/63/63 62/62/62
f 64/64/64 62/62/62 65/65/65
f 68/68/68 67/67/67 66/66/66
f 68/68/68 69/69/69 67/67/67
f 72/72/72 71/71/71 70/70/70
f 72/72/72 73/73/73 71/71/71
f 76/76/76 75/75/75 74/74/74
f 76/76/76 74/74/74 77/77/77
f 74/74/74 78/78/78 77/77/77
f 81/81/81 80/80/80 79/79/79
f 81/81/81 82/82/82 80/80/80
f 85/85/85 84/84/84 83/83/83
f 85/85/85 86/86/86 84/84/84
f 89/89/89 88/88/88 87/87/87
f 89/89/89 90/90/90 88/88/88
f 93/93/93 92/92/92 91/91/91
f 93/93/93 94/94/94 92/92/92
f 97/97/97 96/96/96 95/95/95
f 97/97/97 98/98/98 96/96/96
f 101/101/101 100/100/100 99/99/99
f 101/101/101 102/102/102 100/100/100
f 105/105/105 104/104/104 103/103/103
f 105/105/105 106/106/106 104/104/104
f 109/109/109 108/108/108 107/107/107
f 109/109/109 110/110/110 108/108/108
f 113/113/113 112/112/112 111/111/111
f 113/113/113 114/114/114 112/112/112
f 117/117/117 116/116/116 115/115/115
f 117/117/117 118/118/118 116/116/116
f 121/121/121 120/120/120 119/119/119
f 121/121/121 122/122/122 120/120/120
f 121/121/121 123/123/123 122/122/122
f 124/124/124 123/123/123 121/121/121
f 123/123/123 124/124/124 125/125/125
f 120/120/120 122/122/122 126/126/126
f 120/120/120 126/126/126 127/127/127
f 127/127/127 126/126/126 128/128/128
f 128/128/128 126/126/126 129/129/129
f 129/129/129 126/126/126 130/130/130
