g COL_JumpSide01_MO
v -27.17091 -1.051029 5.559667
v -27.17091 2.692146 5.559667
v -20.7774 -1.051029 4.230558
v -14.79001 5.165415 2.860193
v -27.17091 3.775409 5.559667
v -15.00133 6.268654 2.860193
v -27.17091 3.775409 5.559667
v -27.17091 3.775409 -5.559667
v -15.00133 6.268654 2.860193
v -15.00133 6.268654 -2.860193
v -27.17091 2.692146 -5.559667
v -27.17091 -1.051029 -5.559667
v -20.7774 -1.051029 -4.230558
v -14.79001 5.165415 -2.860193
v -27.17091 3.775409 -5.559667
v -15.00133 6.268654 -2.860193
v -27.17091 -1.051029 -5.559667
v -27.17091 -1.051029 5.559667
v -20.7774 -1.051029 -4.230558
v -20.7774 -1.051029 4.230558
v -20.7774 -1.051029 4.230558
v -14.79001 5.165415 2.860193
v -20.7774 -1.051029 -4.230558
v -14.79001 5.165415 -2.860193
v -15.00133 6.268654 2.860193
v -15.00133 6.268654 -2.860193
v -27.17091 -1.051029 -5.559667
v -27.17091 2.692146 -5.559667
v -27.17091 -1.051029 5.559667
v -27.17091 2.692146 5.559667
v -27.17091 3.775409 -5.559667
v -27.17091 3.775409 5.559667
vt 0.375 0
vt 0.375 0.125
vt 0.625 0
vt 0.625 0.125
vt 0.375 0.25
vt 0.625 0.25
vt 0.375 0.25
vt 0.375 0.5
vt 0.625 0.25
vt 0.625 0.5
vt 0.375 0.625
vt 0.375 0.75
vt 0.625 0.75
vt 0.625 0.625
vt 0.375 0.5
vt 0.625 0.5
vt 0.375 0.75
vt 0.375 1
vt 0.625 0.75
vt 0.625 1
vt 0.625 0
vt 0.625 0.125
vt 0.875 0
vt 0.875 0.125
vt 0.625 0.25
vt 0.875 0.25
vt 0.125 0
vt 0.125 0.125
vt 0.375 0
vt 0.375 0.125
vt 0.125 0.25
vt 0.375 0.25
vn 0.2035328 0 0.9790682
vn 0.2091011 0.006372231 0.9778732
vn 0.2099081 0.01139066 0.9776548
vn 0.2099535 0.02202713 0.9774632
vn 0.2128082 0.002069359 0.9770918
vn 0.2085764 0.03995158 0.9771897
vn -0.2007061 0.9796515 0
vn -0.2007061 0.9796515 0
vn -0.2007062 0.9796515 0
vn -0.2007062 0.9796515 0
vn 0.2091011 0.006372231 -0.9778732
vn 0.2035328 0 -0.9790682
vn 0.2099081 0.01139066 -0.9776548
vn 0.2099535 0.02202712 -0.9774632
vn 0.2128082 0.002069359 -0.9770918
vn 0.2085764 0.03995158 -0.9771897
vn 0 -1 0
vn 0 -1 0
vn 0 -1 0
vn 0 -1 0
vn 0.720251 -0.6937135 0
vn 0.7695957 -0.6385314 0
vn 0.7202511 -0.6937134 0
vn 0.7798141 -0.6260111 0
vn 0.9821453 0.188124 0
vn 0.9821453 0.188124 0
vn -1 0 0
vn -1 0 0
vn -1 0 0
vn -1 0 0
vn -1 0 0
vn -1 0 0
g COL_JumpSide01_MO_0
f 3/3/3 2/2/2 1/1/1
f 3/3/3 4/4/4 2/2/2
f 4/4/4 5/5/5 2/2/2
f 4/4/4 6/6/6 5/5/5
f 9/9/9 8/8/8 7/7/7
f 9/9/9 10/10/10 8/8/8
f 13/13/13 12/12/12 11/11/11
f 13/13/13 11/11/11 14/14/14
f 14/14/14 11/11/11 15/15/15
f 14/14/14 15/15/15 16/16/16
f 19/19/19 18/18/18 17/17/17
f 19/19/19 20/20/20 18/18/18
f 23/23/23 22/22/22 21/21/21
f 23/23/23 24/24/24 22/22/22
f 24/24/24 25/25/25 22/22/22
f 24/24/24 26/26/26 25/25/25
f 29/29/29 28/28/28 27/27/27
f 29/29/29 30/30/30 28/28/28
f 30/30/30 31/31/31 28/28/28
f 30/30/30 32/32/32 31/31/31
