g Col_ENV_FLR_Tier4Ramp
v -9.123438 0.8333602 -27.70575
v -9.123438 0.8333602 -13.41038
v 0.005599976 -0.1039186 -13.41038
v 0.005599976 -0.1039186 -27.70575
v -9.123438 8.511827 -27.70575
v 0.005599976 9.845488 -27.70575
v -9.123438 8.511827 -13.41038
v 0.005599976 9.845488 -13.41038
v -9.123438 0.8333602 -13.41038
v -9.123438 0.8333602 -27.70575
v -9.123438 8.511827 -27.70575
v 0.005599976 -0.1039186 -13.41038
v 0.005599976 9.845488 -27.70575
v 0.005599976 -0.1039186 -27.70575
v -45.80684 3.230703 -27.70575
v -45.80684 3.230703 -13.45349
v -36.50591 3.230697 -13.45349
v -36.50591 3.230697 -27.70575
v -45.80684 4.388951 -27.70575
v -36.50591 5.814141 -27.70575
v -45.80684 4.388951 -13.45349
v -36.50591 5.814141 -13.45349
v -45.80684 3.230703 -13.45349
v -45.80684 3.230703 -27.70575
v -45.80684 4.388951 -27.70575
v -36.50591 3.230697 -13.45349
v -36.50591 5.814141 -27.70575
v -36.50591 3.230697 -27.70575
v -45.80684 -8.57823 0.5360515
v -45.80684 4.329504 0.5360515
v 0 0 0.5360515
v 0 -10.55977 0.5360515
v 0 -10.55977 0.5360515
v -45.80684 -8.57823 -27.78958
v -45.80684 -8.57823 0.5360515
v 0 -10.55977 -27.78958
v -45.80684 4.329504 -27.78958
v -45.80684 -8.57823 0.5360515
v -45.80684 4.329504 0.5360515
v 0 0 -27.78958
v -45.80684 4.329504 0.5360515
v 0 0 0.5360515
v 0 0 0.5360515
v 0 -10.55977 0.5360515
vt 0.375 0.75
vt 0.375 1
vt 0.625 1
vt 0.625 0.75
vt 0.375 0.5
vt 0.625 0.5
vt 0.375 0.25
vt 0.625 0.25
vt 0.375 0
vt 0.125 0
vt 0.125 0.25
vt 0.625 0
vt 0.875 0.25
vt 0.875 0
vt 0.375 0.75
vt 0.375 1
vt 0.625 1
vt 0.625 0.75
vt 0.375 0.5
vt 0.625 0.5
vt 0.375 0.25
vt 0.625 0.25
vt 0.375 0
vt 0.125 0
vt 0.125 0.25
vt 0.625 0
vt 0.875 0.25
vt 0.875 0
vt 0.375 0
vt 0.375 0.25
vt 0.625 0.25
vt 0.625 0
vt 0 0
vt 0.5 1
vt 1 0
vt 0.5 1
vt 0.5 1
vt 0 0
vt 1 0
vt 0.5 1
vt 0 0
vt 1 0
vt 0 0
vt 1 0
vn -0.613273 -0.6498095 -0.4490474
vn -0.613273 -0.6498095 0.4490474
vn 0.6450139 -0.6533815 0.3962949
vn 0.6450139 -0.6533815 -0.3962949
vn -0.627272 0.6354094 -0.4503164
vn 0.6309406 0.6685296 -0.3936778
vn -0.627272 0.6354094 0.4503164
vn 0.6309406 0.6685296 0.3936778
vn -0.613273 -0.6498095 0.4490474
vn -0.613273 -0.6498095 -0.4490474
vn -0.627272 0.6354094 -0.4503164
vn 0.6450139 -0.6533815 0.3962949
vn 0.6309406 0.6685296 -0.3936778
vn 0.6450139 -0.6533815 -0.3962949
vn -0.1224314 -0.9831396 -0.1358207
vn -0.1224314 -0.9831395 0.1358207
vn 0.2652892 -0.9550977 0.1319467
vn 0.2652892 -0.9550977 -0.1319467
vn -0.2648218 0.9534147 -0.1444637
vn 0.1226399 0.9848143 -0.1228826
vn -0.2648218 0.9534147 0.1444637
vn 0.1226399 0.9848143 0.1228826
vn -0.1224314 -0.9831395 0.1358207
vn -0.1224314 -0.9831396 -0.1358207
vn -0.2648218 0.9534147 -0.1444637
vn 0.2652892 -0.9550977 0.1319467
vn 0.1226399 0.9848143 -0.1228826
vn 0.2652892 -0.9550977 -0.1319467
vn -0.2845799 -0.8755097 0.3905087
vn -0.1708411 0.9122736 0.3722501
vn 0.283197 0.8712551 0.4008915
vn 0.1700153 -0.9078637 0.3832472
vn 0.1700153 -0.9078637 0.3832472
vn -0.2845799 -0.8755097 -0.3905087
vn -0.2845799 -0.8755097 0.3905087
vn 0.1700153 -0.9078637 -0.3832472
vn -0.1708411 0.9122736 -0.3722501
vn -0.2845799 -0.8755097 0.3905087
vn -0.1708411 0.9122736 0.3722501
vn 0.283197 0.8712551 -0.4008915
vn -0.1708411 0.9122736 0.3722501
vn 0.283197 0.8712551 0.4008915
vn 0.283197 0.8712551 0.4008915
vn 0.1700153 -0.9078637 0.3832472
g Col_ENV_FLR_Tier4Ramp_0
f 3/3/3 2/2/2 1/1/1
f 4/4/4 3/3/3 1/1/1
f 4/4/4 1/1/1 5/5/5
f 6/6/6 4/4/4 5/5/5
f 6/6/6 5/5/5 7/7/7
f 8/8/8 6/6/6 7/7/7
f 8/8/8 7/7/7 9/9/9
f 9/9/9 7/7/7 10/10/10
f 7/7/7 11/11/11 10/10/10
f 12/12/12 8/8/8 9/9/9
f 13/13/13 8/8/8 12/12/12
f 14/14/14 13/13/13 12/12/12
f 17/17/17 16/16/16 15/15/15
f 18/18/18 17/17/17 15/15/15
f 18/18/18 15/15/15 19/19/19
f 20/20/20 18/18/18 19/19/19
f 20/20/20 19/19/19 21/21/21
f 22/22/22 20/20/20 21/21/21
f 22/22/22 21/21/21 23/23/23
f 23/23/23 21/21/21 24/24/24
f 21/21/21 25/25/25 24/24/24
f 26/26/26 22/22/22 23/23/23
f 27/27/27 22/22/22 26/26/26
f 28/28/28 27/27/27 26/26/26
f 31/31/31 30/30/30 29/29/29
f 32/32/32 31/31/31 29/29/29
f 35/35/35 34/34/34 33/33/33
f 34/34/34 36/36/36 33/33/33
f 34/34/34 37/37/37 36/36/36
f 37/37/37 34/34/34 38/38/38
f 39/39/39 37/37/37 38/38/38
f 37/37/37 40/40/40 36/36/36
f 40/40/40 37/37/37 41/41/41
f 42/42/42 40/40/40 41/41/41
f 36/36/36 40/40/40 43/43/43
f 44/44/44 36/36/36 43/43/43
