g COL_JumpPlatform02_MO
v -2.512133 -0.1610336 -0.1072412
v -2.512133 -2.256455 -1.784723
v -2.512133 1.696559 -5.847712
v -2.512133 1.214157 1.865071
v -2.512133 2.584537 3.971359
v -2.512133 1.454599 3.971359
v -1.959799 1.669808 5.8566
v -1.959799 2.753549 5.840258
v 1.985654 2.753549 5.840258
v 2.537987 2.584537 3.971359
v 1.985654 1.669808 5.8566
v 2.537987 1.454599 3.971359
v 2.537987 1.214157 1.865071
v 2.537987 1.69656 -5.847712
v 2.537987 -0.1610333 -0.1072412
v 2.537987 -2.256454 -1.784723
v 1.985654 2.753549 5.840258
v -1.959799 2.753549 5.840258
v 2.537987 2.584537 3.971359
v -2.512133 2.584537 3.971359
v -2.512133 1.696559 -5.847712
v 2.537987 1.69656 -5.847712
v 2.537987 1.69656 -5.847712
v -2.512133 1.696559 -5.847712
v 2.537987 -2.256454 -1.784723
v -2.512133 -2.256455 -1.784723
v 2.537987 -2.256454 -1.784723
v -2.512133 -2.256455 -1.784723
v 2.537987 -0.1610333 -0.1072412
v -2.512133 -0.1610336 -0.1072412
v 2.537987 1.214157 1.865071
v -2.512133 1.214157 1.865071
v 2.537987 1.454599 3.971359
v -2.512133 1.454599 3.971359
v -1.959799 1.669808 5.8566
v 1.985654 1.669808 5.8566
v 1.985654 1.669808 5.8566
v -1.959799 1.669808 5.8566
v 1.985654 2.753549 5.840258
v -1.959799 2.753549 5.840258
vt 0.5270968 0.2016986
vt 0.6855361 0.3666504
vt 1 9.081837E-16
vt 0.3491645 0.100131
vt 0.1598994 1.45218E-16
vt 0.1685712 0.09589104
vt 0.006930345 0.09209602
vt 0 0
vt 0 0
vt 0.1598994 1.45218E-16
vt 0.006930345 0.09209602
vt 0.1685712 0.09589104
vt 0.3491645 0.100131
vt 1 9.081837E-16
vt 0.5270968 0.2016986
vt 0.6855361 0.3666504
vt 0 0
vt 0 0
vt 0.1598994 1.45218E-16
vt 0.1598994 1.45218E-16
vt 1 9.081837E-16
vt 1 9.081837E-16
vt 1 9.081837E-16
vt 1 9.081837E-16
vt 0.6855361 0.3666504
vt 0.6855361 0.3666504
vt 0.6855361 0.3666504
vt 0.6855361 0.3666504
vt 0.5270968 0.2016986
vt 0.5270968 0.2016986
vt 0.3491645 0.100131
vt 0.3491645 0.100131
vt 0.1685712 0.09589104
vt 0.1685712 0.09589104
vt 0.006930345 0.09209602
vt 0.006930345 0.09209602
vt 0.006930345 0.09209602
vt 0.006930345 0.09209602
vt 0 0
vt 0 0
vn -1 0 0
vn -1 0 0
vn -1 0 0
vn -1 0 0
vn -0.9960686 0.0004090345 0.08858414
vn -0.9918978 0 0.1270382
vn -0.9592865 0.002826019 0.2824208
vn -0.9590917 0.004268503 0.2830636
vn 0.9590917 0.004268539 0.2830634
vn 0.9960686 0.0004090381 0.08858414
vn 0.9592866 0.002826044 0.2824207
vn 0.9918978 0 0.1270382
vn 1 0 0
vn 1 0 0
vn 1 1.148324E-07 0
vn 1 -1.031708E-07 0
vn 0 0.9959358 -0.09006635
vn 0 0.9959357 -0.09006642
vn 0 0.9959357 -0.09006637
vn 0 0.9959357 -0.09006641
vn 0 0.9959358 -0.09006634
vn -1.198326E-07 0.9959358 -0.09006631
vn 0 -0.7167404 -0.6973401
vn 1.17802E-07 -0.7167404 -0.6973401
vn 1.315486E-07 -0.7167404 -0.6973401
vn 2.183205E-07 -0.7167404 -0.6973401
vn 0 -0.624955 0.7806607
vn 0 -0.624955 0.7806607
vn 0 -0.7246714 0.6890945
vn 0 -0.7246714 0.6890945
vn 0 -0.929714 0.3682823
vn 0 -0.929714 0.3682823
vn 0 -0.9935474 0.1134178
vn 0 -0.9935474 0.1134179
vn 0 -0.9935474 0.1134179
vn 0 -0.9935474 0.1134179
vn 0 0.01507825 0.9998863
vn 0 0.01507825 0.9998863
vn 0 0.01507825 0.9998863
vn 0 0.01507825 0.9998863
g COL_JumpPlatform02_MO_0
f 3/3/3 2/2/2 1/1/1
f 3/3/3 1/1/1 4/4/4
f 5/5/5 3/3/3 4/4/4
f 5/5/5 4/4/4 6/6/6
f 5/5/5 6/6/6 7/7/7
f 5/5/5 7/7/7 8/8/8
f 11/11/11 10/10/10 9/9/9
f 11/11/11 12/12/12 10/10/10
f 13/13/13 10/10/10 12/12/12
f 13/13/13 14/14/14 10/10/10
f 13/13/13 15/15/15 14/14/14
f 15/15/15 16/16/16 14/14/14
f 19/19/19 18/18/18 17/17/17
f 19/19/19 20/20/20 18/18/18
f 19/19/19 21/21/21 20/20/20
f 19/19/19 22/22/22 21/21/21
f 25/25/25 24/24/24 23/23/23
f 25/25/25 26/26/26 24/24/24
f 29/29/29 28/28/28 27/27/27
f 29/29/29 30/30/30 28/28/28
f 31/31/31 30/30/30 29/29/29
f 31/31/31 32/32/32 30/30/30
f 33/33/33 32/32/32 31/31/31
f 33/33/33 34/34/34 32/32/32
f 33/33/33 35/35/35 34/34/34
f 33/33/33 36/36/36 35/35/35
f 39/39/39 38/38/38 37/37/37
f 39/39/39 40/40/40 38/38/38
