g COL_crashPadSide_MO
v -2.366322 -0.003197908 2.436013
v -8.324967 -0.003197908 2.436013
v -2.366322 1.965594 2.436013
v -2.366322 1.965594 -2.738599
v -8.324967 -0.003197908 -2.738599
v -2.366322 -0.003197908 -2.738599
v -2.366322 1.965594 2.436013
v -2.366322 1.965594 -2.738599
v 3.104481 1.965594 -2.738599
v 3.104481 1.965594 2.436013
v -2.505705 1.965594 7.906816
v 2.825714 1.965594 8.899924
v -3.60335 -0.003197908 13.77835
v 0.1077356 -0.003197908 14.71918
v -2.366322 1.965594 -2.738599
v -2.366322 -0.003197908 -2.738599
v 3.104481 -0.003197908 -2.738599
v 3.104481 1.965594 -2.738599
v -2.366322 -0.003197908 -2.738599
v 3.104481 -0.003197908 2.436013
v 3.104481 -0.003197908 -2.738599
v -2.366322 -0.003197908 2.436013
v 2.825714 -0.003197908 8.899924
v -2.505705 -0.003197908 7.906816
v 3.104481 1.965594 2.436013
v 3.104481 1.965594 -2.738599
v 3.104481 -0.003197908 -2.738599
v 3.104481 -0.003197908 2.436013
v 2.825714 -0.003197908 8.899924
v 2.825714 1.965594 8.899924
v 0.1077356 -0.003197908 14.71918
v -2.366322 1.965594 2.436013
v -2.505705 -0.003197908 7.906816
v -2.366322 -0.003197908 2.436013
v -2.505705 1.965594 7.906816
v -3.60335 -0.003197908 13.77835
v -2.366322 -0.003197908 -2.738599
v -8.324967 -0.003197908 -2.738599
v -8.324967 -0.003197908 2.436013
v -2.366322 -0.003197908 2.436013
v -2.366322 1.965594 2.436013
v -8.324967 -0.003197908 2.436013
v -8.324967 -0.003197908 -2.738599
v -2.366322 1.965594 -2.738599
v 0.1077356 -0.003197908 14.71918
v 2.825714 -0.003197908 8.899924
v -2.505705 -0.003197908 7.906816
v -3.60335 -0.003197908 13.77835
vt 0.2431373 0
vt 0.2431373 0.1215686
vt 0.2431373 0.2509804
vt 0.1254902 0.2509804
vt 0.1254902 0.1215686
vt 0.1254902 0
vt 0.3764706 0.3803922
vt 0.3764706 0.5019608
vt 0.6235294 0.5019608
vt 0.6235294 0.3803922
vt 0.3764706 0.2509804
vt 0.6235294 0.2509804
vt 0.3803922 0.1058824
vt 0.6196079 0.1098039
vt 0.3764706 0.5019608
vt 0.3764706 0.7490196
vt 0.6235294 0.7490196
vt 0.6235294 0.5019608
vt 0.3764706 0.7490196
vt 0.6235294 0.8705882
vt 0.6235294 0.7490196
vt 0.3764706 0.8705882
vt 0.6235294 1
vt 0.3764706 1
vt 0.7568628 0.2509804
vt 0.8745098 0.2509804
vt 0.8745098 0
vt 0.7568628 0
vt 0.6235294 0
vt 0.6235294 0.2509804
vt 0.6196079 0.1098039
vt 0.2431373 0.2509804
vt 0.3764706 0
vt 0.2431373 0
vt 0.3764706 0.2509804
vt 0.3803922 0.1058824
vt 0.1254902 0
vt 0.1254902 0.1215686
vt 0.2431373 0.1215686
vt 0.2431373 0
vt 0.2431373 0.2509804
vt 0.2431373 0.1215686
vt 0.1254902 0.1215686
vt 0.1254902 0.2509804
vt 0.6196079 0.1098039
vt 0.6235294 0
vt 0.3764706 0
vt 0.3803922 0.1058824
vn -0.01587105 0.01587105 0.9997481
vn -0.01587105 0.01587105 0.9997481
vn -0.01587105 0.01587105 0.9997481
vn -0.01587105 0.01587105 -0.9997481
vn -0.01587105 0.01587105 -0.9997481
vn -0.01587105 0.01587105 -0.9997481
vn -0.1104315 0.9938838 0
vn -0.172001 0.9850967 0
vn -0.01587105 0.999874 -0.000345267
vn -0.01587105 0.999874 -0.000345267
vn -0.01587105 0.999874 -0.000345267
vn -0.01587105 0.999874 -0.000345267
vn -0.07935512 0.9363899 0.3418723
vn -0.07935512 0.9363899 0.3418723
vn -0.01587105 0.01587105 -0.9997481
vn -0.01587105 0.01587105 -0.9997481
vn -0.01587105 0.01587105 -0.9997481
vn -0.01587105 0.01587105 -0.9997481
vn -0.01587105 -0.999874 -0.000345267
vn -0.01587105 -0.999874 -0.000345267
vn -0.01587105 -0.999874 -0.000345267
vn -0.01587105 -0.999874 -0.000345267
vn -0.01587105 -0.999874 -0.000345267
vn -0.01587105 -0.999874 -0.000345267
vn 0.999874 0.01587105 -0.0003439156
vn 0.999874 0.01587105 -0.0003439156
vn 0.999874 0.01587105 -0.0003439156
vn 0.999874 0.01587105 -0.0003439156
vn 0.999874 0.01587105 -0.0003439156
vn 0.999874 0.01587105 -0.0003439156
vn 0.9046479 0.01587105 0.4258642
vn -0.999874 0.01587105 -0.0003439156
vn -0.999874 0.01587105 -0.0003439156
vn -0.999874 0.01587105 -0.0003439156
vn -0.999874 0.01587105 -0.0003439156
vn -0.968132 0.01587105 -0.249937
vn -0.01587105 -0.999874 -0.000345267
vn -0.01587105 -0.999874 -0.000345267
vn -0.01587105 -0.999874 -0.000345267
vn -0.01587105 -0.999874 -0.000345267
vn -0.1104315 0.9938838 0
vn -0.3015493 0.9363899 -0.1795602
vn -0.3015493 0.9363899 -0.1795602
vn -0.172001 0.9850967 0
vn -0.01587105 -0.999874 -0.000345267
vn -0.01587105 -0.999874 -0.000345267
vn -0.01587105 -0.999874 -0.000345267
vn -0.01587105 -0.999874 -0.000345267
g COL_crashPadSide_MO_0
f 3/3/3 2/2/2 1/1/1
f 6/6/6 5/5/5 4/4/4
f 9/9/9 8/8/8 7/7/7
f 10/10/10 9/9/9 7/7/7
f 10/10/10 7/7/7 11/11/11
f 12/12/12 10/10/10 11/11/11
f 12/12/12 11/11/11 13/13/13
f 14/14/14 12/12/12 13/13/13
f 17/17/17 16/16/16 15/15/15
f 18/18/18 17/17/17 15/15/15
f 21/21/21 20/20/20 19/19/19
f 20/20/20 22/22/22 19/19/19
f 20/20/20 23/23/23 22/22/22
f 23/23/23 24/24/24 22/22/22
f 27/27/27 26/26/26 25/25/25
f 28/28/28 27/27/27 25/25/25
f 28/28/28 25/25/25 29/29/29
f 25/25/25 30/30/30 29/29/29
f 29/29/29 30/30/30 31/31/31
f 34/34/34 33/33/33 32/32/32
f 33/33/33 35/35/35 32/32/32
f 36/36/36 35/35/35 33/33/33
f 39/39/39 38/38/38 37/37/37
f 40/40/40 39/39/39 37/37/37
f 43/43/43 42/42/42 41/41/41
f 44/44/44 43/43/43 41/41/41
f 47/47/47 46/46/46 45/45/45
f 48/48/48 47/47/47 45/45/45
