g collisionMesh_sideWalls_54
v -26.57201 -31.43084 -108.542
v -26.25827 -31.02091 -108.2282
v -26.56154 -31.02091 -107.4961
v -27.00524 -31.43084 -107.4961
v -26.25827 -31.02091 -108.2282
v -26.57201 -31.43084 -108.542
v -25.5261 -31.43084 -108.9752
v -25.5261 -31.02091 -108.5315
v -25.5261 -31.02091 -108.5315
v -25.5261 -31.43084 -108.9752
v -24.4802 -31.43084 -108.542
v -24.79395 -31.02091 -108.2282
v -24.79395 -31.02091 -108.2282
v -24.4802 -31.43084 -108.542
v -24.04698 -31.43084 -107.4961
v -24.49067 -31.02091 -107.4961
v -24.49067 -31.02091 -107.4961
v -24.04698 -31.43084 -107.4961
v -24.4802 -31.43084 -106.4502
v -24.79395 -31.02091 -106.7639
v -24.79395 -31.02091 -106.7639
v -24.4802 -31.43084 -106.4502
v -25.5261 -31.43084 -106.017
v -25.5261 -31.02091 -106.4607
v -25.5261 -31.02091 -106.4607
v -25.5261 -31.43084 -106.017
v -26.57201 -31.43084 -106.4502
v -26.25827 -31.02091 -106.7639
v -26.25827 -31.02091 -106.7639
v -26.57201 -31.43084 -106.4502
v -27.00524 -31.43084 -107.4961
v -26.56154 -31.02091 -107.4961
v -26.57201 -35.57022 -108.542
v -25.5261 -35.57022 -108.9752
v -25.5261 -31.43084 -108.9752
v -26.57201 -31.43084 -108.542
v -25.5261 -35.57022 -108.9752
v -24.4802 -35.57022 -108.542
v -24.4802 -31.43084 -108.542
v -25.5261 -31.43084 -108.9752
v -24.4802 -35.57022 -108.542
v -24.04698 -35.57022 -107.4961
v -24.04698 -31.43084 -107.4961
v -24.4802 -31.43084 -108.542
v -24.04698 -35.57022 -107.4961
v -24.4802 -35.57022 -106.4502
v -24.4802 -31.43084 -106.4502
v -24.04698 -31.43084 -107.4961
v -24.4802 -35.57022 -106.4502
v -25.5261 -35.57022 -106.017
v -25.5261 -31.43084 -106.017
v -24.4802 -31.43084 -106.4502
v -25.5261 -35.57022 -106.017
v -26.57201 -35.57022 -106.4502
v -26.57201 -31.43084 -106.4502
v -25.5261 -31.43084 -106.017
v -26.57201 -35.57022 -106.4502
v -27.00524 -35.57022 -107.4961
v -27.00524 -31.43084 -107.4961
v -26.57201 -31.43084 -106.4502
v -27.00524 -35.57022 -107.4961
v -26.57201 -35.57022 -108.542
v -26.57201 -31.43084 -108.542
v -27.00524 -31.43084 -107.4961
v -26.25827 -31.02091 -108.2282
v -25.5261 -31.02091 -108.5315
v -25.5261 -31.02091 -107.4961
v -26.56154 -31.02091 -107.4961
v -24.79395 -31.02091 -108.2282
v -26.25827 -31.02091 -106.7639
v -24.49067 -31.02091 -107.4961
v -25.5261 -31.02091 -106.4607
v -24.79395 -31.02091 -106.7639
vt 0.6249999 0.6545655
vt 0.6203129 0.6884398
vt 0.5984371 0.6884398
vt 0.59375 0.6545655
vt 0.3796871 0.6884398
vt 0.3750001 0.6545655
vt 0.40625 0.6545655
vt 0.401563 0.6884398
vt 0.4109371 0.6884398
vt 0.40625 0.6545655
vt 0.4375 0.6545655
vt 0.432813 0.6884398
vt 0.4421871 0.6884398
vt 0.4375 0.6545655
vt 0.46875 0.6545655
vt 0.464063 0.6884398
vt 0.473437 0.6884398
vt 0.46875 0.6545655
vt 0.5 0.6545658
vt 0.4953132 0.6884398
vt 0.5046871 0.6884398
vt 0.5 0.6545658
vt 0.5312499 0.6545655
vt 0.526563 0.6884398
vt 0.535937 0.6884398
vt 0.5312499 0.6545655
vt 0.5624998 0.6545655
vt 0.5578128 0.6884398
vt 0.5671868 0.6884398
vt 0.5624998 0.6545655
vt 0.59375 0.6545655
vt 0.589063 0.6884398
vt 0.375 0.3125005
vt 0.40625 0.3125005
vt 0.40625 0.6545655
vt 0.3750001 0.6545655
vt 0.40625 0.3125005
vt 0.4375 0.3125005
vt 0.4375 0.6545655
vt 0.40625 0.6545655
vt 0.4375 0.3125005
vt 0.46875 0.3125005
vt 0.46875 0.6545655
vt 0.4375 0.6545655
vt 0.46875 0.3125005
vt 0.5000001 0.3125005
vt 0.5 0.6545658
vt 0.46875 0.6545655
vt 0.5000001 0.3125005
vt 0.53125 0.3125005
vt 0.5312499 0.6545655
vt 0.5 0.6545658
vt 0.53125 0.3125005
vt 0.5625 0.3125005
vt 0.5624998 0.6545655
vt 0.5312499 0.6545655
vt 0.5625 0.3125005
vt 0.59375 0.3125005
vt 0.59375 0.6545655
vt 0.5624998 0.6545655
vt 0.59375 0.3125005
vt 0.6249999 0.3125005
vt 0.6249999 0.6545655
vt 0.59375 0.6545655
vt 0.5773429 0.9192181
vt 0.4999999 0.9512545
vt 0.5 0.8375
vt 0.6093796 0.8418752
vt 0.4226569 0.9192182
vt 0.5773429 0.764531
vt 0.3906201 0.8418752
vt 0.5 0.7324947
vt 0.4226569 0.764531
vn -0.653276 0.7071111 -0.2706
vn -0.653276 0.7071111 -0.2705999
vn -0.653276 0.7071111 -0.2705999
vn -0.653276 0.7071111 -0.2705999
vn -0.2705952 0.7071167 -0.6532718
vn -0.2705952 0.7071167 -0.6532719
vn -0.2705952 0.7071167 -0.6532719
vn -0.2705952 0.7071167 -0.6532719
vn 0.270598 0.7071171 -0.6532703
vn 0.270598 0.7071171 -0.6532703
vn 0.2705981 0.7071171 -0.6532703
vn 0.270598 0.7071171 -0.6532703
vn 0.6532767 0.7071092 -0.270603
vn 0.6532767 0.7071092 -0.270603
vn 0.6532768 0.7071092 -0.2706031
vn 0.6532767 0.7071092 -0.270603
vn 0.6532877 0.7071009 0.2705983
vn 0.6532877 0.7071009 0.2705983
vn 0.6532877 0.7071009 0.2705983
vn 0.6532877 0.7071009 0.2705983
vn 0.2705902 0.7070973 0.6532949
vn 0.2705903 0.7070973 0.6532949
vn 0.2705903 0.7070973 0.6532949
vn 0.2705903 0.7070973 0.6532949
vn -0.2705875 0.7070969 0.6532965
vn -0.2705874 0.7070969 0.6532965
vn -0.2705874 0.7070969 0.6532965
vn -0.2705874 0.7070969 0.6532965
vn -0.6532855 0.7071042 0.2705947
vn -0.6532856 0.7071043 0.2705947
vn -0.6532855 0.7071042 0.2705946
vn -0.6532856 0.7071042 0.2705946
vn -0.382674 0 -0.9238834
vn -0.382674 0 -0.9238834
vn -0.382674 0 -0.9238834
vn -0.382674 0 -0.9238834
vn 0.3826762 0 -0.9238825
vn 0.3826762 0 -0.9238825
vn 0.3826762 0 -0.9238825
vn 0.3826762 0 -0.9238825
vn 0.9238805 0 -0.3826813
vn 0.9238805 0 -0.3826813
vn 0.9238805 0 -0.3826813
vn 0.9238805 0 -0.3826813
vn 0.9238819 0 0.3826776
vn 0.9238819 0 0.3826776
vn 0.9238819 0 0.3826776
vn 0.9238819 0 0.3826776
vn 0.3826762 0 0.9238825
vn 0.3826762 0 0.9238825
vn 0.3826762 0 0.9238825
vn 0.3826762 0 0.9238825
vn -0.382674 0 0.9238834
vn -0.382674 0 0.9238834
vn -0.382674 0 0.9238834
vn -0.382674 0 0.9238834
vn -0.9238812 0 0.3826792
vn -0.9238812 0 0.3826792
vn -0.9238812 0 0.3826792
vn -0.9238812 0 0.3826792
vn -0.9238797 0 -0.382683
vn -0.9238797 0 -0.382683
vn -0.9238797 0 -0.382683
vn -0.9238797 0 -0.382683
vn 0 1 0
vn 0 1 0
vn 0 1 0
vn 0 1 0
vn 0 1 -2.061114E-06
vn 0 1 0
vn 0 1 0
vn 0 1 0
vn 0 1 2.060999E-06
g collisionMesh_sideWalls_54_0
f 3/3/3 2/2/2 1/1/1
f 4/4/4 3/3/3 1/1/1
f 7/7/7 6/6/6 5/5/5
f 8/8/8 7/7/7 5/5/5
f 11/11/11 10/10/10 9/9/9
f 12/12/12 11/11/11 9/9/9
f 15/15/15 14/14/14 13/13/13
f 16/16/16 15/15/15 13/13/13
f 19/19/19 18/18/18 17/17/17
f 20/20/20 19/19/19 17/17/17
f 23/23/23 22/22/22 21/21/21
f 24/24/24 23/23/23 21/21/21
f 27/27/27 26/26/26 25/25/25
f 28/28/28 27/27/27 25/25/25
f 31/31/31 30/30/30 29/29/29
f 32/32/32 31/31/31 29/29/29
f 35/35/35 34/34/34 33/33/33
f 36/36/36 35/35/35 33/33/33
f 39/39/39 38/38/38 37/37/37
f 40/40/40 39/39/39 37/37/37
f 43/43/43 42/42/42 41/41/41
f 44/44/44 43/43/43 41/41/41
f 47/47/47 46/46/46 45/45/45
f 48/48/48 47/47/47 45/45/45
f 51/51/51 50/50/50 49/49/49
f 52/52/52 51/51/51 49/49/49
f 55/55/55 54/54/54 53/53/53
f 56/56/56 55/55/55 53/53/53
f 59/59/59 58/58/58 57/57/57
f 60/60/60 59/59/59 57/57/57
f 63/63/63 62/62/62 61/61/61
f 64/64/64 63/63/63 61/61/61
f 67/67/67 66/66/66 65/65/65
f 67/67/67 65/65/65 68/68/68
f 67/67/67 69/69/69 66/66/66
f 67/67/67 68/68/68 70/70/70
f 67/67/67 71/71/71 69/69/69
f 67/67/67 70/70/70 72/72/72
f 67/67/67 73/73/73 71/71/71
f 67/67/67 72/72/72 73/73/73
