g collisionMesh_sideWalls_37
v -24.26888 35.62688 60.91738
v -25.49043 35.62688 60.91738
v -25.42835 28.39762 30.37836
v -24.20679 28.39762 30.37836
v -25.60024 30.33918 62.53776
v -25.42835 24.43261 31.31966
v -25.42835 28.39762 30.37836
v -25.49043 35.62688 60.91738
v -24.20679 24.43261 31.31966
v -24.37869 30.33918 62.53776
v -24.26888 35.62688 60.91738
v -24.20679 28.39762 30.37836
vt 0.375 0.25
vt 0.625 0.25
vt 0.625 0.5
vt 0.375 0.5
vt 0.625 0
vt 0.875 0
vt 0.875 0.25
vt 0.625 0.25
vt 0.125 0
vt 0.375 0
vt 0.375 0.25
vt 0.125 0.25
vn 0 0.9731066 -0.2303556
vn 0 0.9731066 -0.2303556
vn 0 0.9731066 -0.2303556
vn 0 0.9731066 -0.2303556
vn -0.99993 0.01021694 -0.005961577
vn -0.99993 0.01021694 -0.005961578
vn -0.99993 0.01021694 -0.005961578
vn -0.99993 0.01021694 -0.005961577
vn 0.99993 -0.01021727 0.005961578
vn 0.99993 -0.01021727 0.005961577
vn 0.99993 -0.01021726 0.005961577
vn 0.99993 -0.01021727 0.005961578
g collisionMesh_sideWalls_37_0
f 3/3/3 2/2/2 1/1/1
f 4/4/4 3/3/3 1/1/1
f 7/7/7 6/6/6 5/5/5
f 8/8/8 7/7/7 5/5/5
f 11/11/11 10/10/10 9/9/9
f 12/12/12 11/11/11 9/9/9
