g collisionMesh_sideWalls_26
v 22.86353 9.38212 -4.725701
v 23.29676 9.898289 -3.816038
v 22.85306 10.25481 -4.018341
v 22.54979 9.893487 -4.655121
v 22.54979 9.893487 -4.655121
v 21.81762 9.743819 -4.918886
v 21.81762 9.168317 -5.102494
v 22.86353 9.38212 -4.725701
v 21.81762 9.743819 -4.918886
v 21.08547 9.893487 -4.655121
v 20.77172 9.38212 -4.725701
v 21.81762 9.168317 -5.102494
v 21.08547 9.893487 -4.655121
v 20.78219 10.25481 -4.018341
v 20.3385 9.898289 -3.816038
v 20.77172 9.38212 -4.725701
v 20.78219 10.25481 -4.018341
v 21.08547 10.61616 -3.381532
v 20.77172 10.41446 -2.906365
v 20.3385 9.898289 -3.816038
v 21.08547 10.61616 -3.381532
v 21.81762 10.76582 -3.117776
v 21.81762 10.62826 -2.529582
v 20.77172 10.41446 -2.906365
v 21.81762 10.76582 -3.117776
v 22.54979 10.61616 -3.381532
v 22.86353 10.41446 -2.906365
v 21.81762 10.62826 -2.529582
v 22.54979 10.61616 -3.381532
v 22.85306 10.25481 -4.018341
v 23.29676 9.898289 -3.816038
v 22.86353 10.41446 -2.906365
v 22.86353 5.781942 -2.682856
v 22.86353 9.38212 -4.725701
v 21.81762 9.168317 -5.102494
v 21.81762 5.568138 -3.05965
v 21.81762 5.568138 -3.05965
v 21.81762 9.168317 -5.102494
v 20.77172 9.38212 -4.725701
v 20.77172 5.781942 -2.682856
v 20.77172 5.781942 -2.682856
v 20.77172 9.38212 -4.725701
v 20.3385 9.898289 -3.816038
v 20.3385 6.298111 -1.773193
v 20.3385 6.298111 -1.773193
v 20.3385 9.898289 -3.816038
v 20.77172 10.41446 -2.906365
v 20.77172 6.814286 -0.8635206
v 20.77172 6.814286 -0.8635206
v 20.77172 10.41446 -2.906365
v 21.81762 10.62826 -2.529582
v 21.81762 7.028083 -0.486737
v 21.81762 7.028083 -0.486737
v 21.81762 10.62826 -2.529582
v 22.86353 10.41446 -2.906365
v 22.86353 6.814286 -0.8635206
v 22.86353 6.814286 -0.8635206
v 22.86353 10.41446 -2.906365
v 23.29676 9.898289 -3.816038
v 23.29676 6.298111 -1.773193
v 23.29676 6.298111 -1.773193
v 23.29676 9.898289 -3.816038
v 22.86353 9.38212 -4.725701
v 22.86353 5.781942 -2.682856
v 22.54979 9.893487 -4.655121
v 21.81762 10.25481 -4.018341
v 21.81762 9.743819 -4.918886
v 22.85306 10.25481 -4.018341
v 21.08547 9.893487 -4.655121
v 22.54979 10.61616 -3.381532
v 20.78219 10.25481 -4.018341
v 21.81762 10.76582 -3.117776
v 21.08547 10.61616 -3.381532
vt 0.6249999 0.6545655
vt 0.59375 0.6545655
vt 0.5984371 0.6884398
vt 0.6203129 0.6884398
vt 0.3796871 0.6884398
vt 0.401563 0.6884398
vt 0.40625 0.6545655
vt 0.3750001 0.6545655
vt 0.4109371 0.6884398
vt 0.432813 0.6884398
vt 0.4375 0.6545655
vt 0.40625 0.6545655
vt 0.4421871 0.6884398
vt 0.464063 0.6884398
vt 0.46875 0.6545655
vt 0.4375 0.6545655
vt 0.473437 0.6884398
vt 0.4953132 0.6884398
vt 0.5 0.6545658
vt 0.46875 0.6545655
vt 0.5046871 0.6884398
vt 0.526563 0.6884398
vt 0.5312499 0.6545655
vt 0.5 0.6545658
vt 0.535937 0.6884398
vt 0.5578128 0.6884398
vt 0.5624998 0.6545655
vt 0.5312499 0.6545655
vt 0.5671868 0.6884398
vt 0.589063 0.6884398
vt 0.59375 0.6545655
vt 0.5624998 0.6545655
vt 0.375 0.3125005
vt 0.3750001 0.6545655
vt 0.40625 0.6545655
vt 0.40625 0.3125005
vt 0.40625 0.3125005
vt 0.40625 0.6545655
vt 0.4375 0.6545655
vt 0.4375 0.3125005
vt 0.4375 0.3125005
vt 0.4375 0.6545655
vt 0.46875 0.6545655
vt 0.46875 0.3125005
vt 0.46875 0.3125005
vt 0.46875 0.6545655
vt 0.5 0.6545658
vt 0.5000001 0.3125005
vt 0.5000001 0.3125005
vt 0.5 0.6545658
vt 0.5312499 0.6545655
vt 0.53125 0.3125005
vt 0.53125 0.3125005
vt 0.5312499 0.6545655
vt 0.5624998 0.6545655
vt 0.5625 0.3125005
vt 0.5625 0.3125005
vt 0.5624998 0.6545655
vt 0.59375 0.6545655
vt 0.59375 0.3125005
vt 0.59375 0.3125005
vt 0.59375 0.6545655
vt 0.6249999 0.6545655
vt 0.6249999 0.3125005
vt 0.5773429 0.9192181
vt 0.5 0.8375
vt 0.4999999 0.9512545
vt 0.6093796 0.8418752
vt 0.4226569 0.9192182
vt 0.5773429 0.764531
vt 0.3906201 0.8418752
vt 0.5 0.7324947
vt 0.4226569 0.764531
vn 0.6532787 0.4814556 -0.5843179
vn 0.6532787 0.4814556 -0.5843179
vn 0.6532786 0.4814556 -0.584318
vn 0.6532787 0.4814556 -0.5843179
vn 0.2705925 0.292606 -0.9171485
vn 0.2705925 0.292606 -0.9171485
vn 0.2705925 0.292606 -0.9171485
vn 0.2705925 0.292606 -0.9171485
vn -0.2705942 0.2926079 -0.9171474
vn -0.2705942 0.2926079 -0.9171474
vn -0.2705942 0.2926078 -0.9171474
vn -0.2705942 0.2926079 -0.9171474
vn -0.6532812 0.4814523 -0.5843179
vn -0.6532812 0.4814523 -0.5843178
vn -0.6532812 0.4814523 -0.5843179
vn -0.6532812 0.4814523 -0.5843179
vn -0.6532876 0.7485362 -0.1136181
vn -0.6532876 0.7485362 -0.1136181
vn -0.6532875 0.7485361 -0.1136181
vn -0.6532876 0.7485362 -0.1136181
vn -0.2705939 0.9373991 0.2192305
vn -0.2705939 0.9373991 0.2192305
vn -0.2705939 0.9373991 0.2192305
vn -0.2705939 0.9373991 0.2192305
vn 0.2705922 0.9373993 0.2192318
vn 0.2705922 0.9373993 0.2192319
vn 0.2705922 0.9373993 0.2192318
vn 0.2705922 0.9373993 0.2192318
vn 0.6532825 0.7485402 -0.113621
vn 0.6532825 0.7485402 -0.113621
vn 0.6532825 0.7485402 -0.113621
vn 0.6532825 0.7485402 -0.113621
vn 0.3826815 -0.4559481 -0.8035336
vn 0.3826815 -0.4559481 -0.8035336
vn 0.3826815 -0.4559481 -0.8035336
vn 0.3826815 -0.4559481 -0.8035336
vn -0.3826837 -0.4559475 -0.8035329
vn -0.3826837 -0.4559475 -0.8035328
vn -0.3826837 -0.4559475 -0.8035328
vn -0.3826837 -0.4559475 -0.8035328
vn -0.9238805 -0.1888588 -0.3328323
vn -0.9238805 -0.1888588 -0.3328323
vn -0.9238805 -0.1888588 -0.3328323
vn -0.9238805 -0.1888588 -0.3328323
vn -0.9238819 0.1888571 0.3328293
vn -0.9238819 0.1888571 0.3328293
vn -0.9238819 0.1888571 0.3328292
vn -0.9238819 0.1888571 0.3328293
vn -0.3826749 0.4559494 0.8035359
vn -0.3826749 0.4559494 0.803536
vn -0.3826749 0.4559493 0.803536
vn -0.3826749 0.4559494 0.803536
vn 0.3826728 0.45595 0.8035367
vn 0.3826728 0.45595 0.8035366
vn 0.3826728 0.45595 0.8035367
vn 0.3826727 0.4559501 0.8035367
vn 0.9238812 0.1888576 0.3328308
vn 0.9238812 0.1888576 0.3328308
vn 0.9238812 0.1888576 0.3328309
vn 0.9238812 0.1888576 0.3328309
vn 0.9238796 -0.18886 -0.3328339
vn 0.9238796 -0.18886 -0.3328339
vn 0.9238796 -0.18886 -0.3328338
vn 0.9238796 -0.18886 -0.3328339
vn 0 0.8697374 -0.4935146
vn 0 0.8697375 -0.4935145
vn 0 0.8697374 -0.4935148
vn 0 0.869738 -0.4935136
vn 0 0.8697377 -0.4935142
vn 2.576282E-07 0.8697374 -0.4935147
vn 0 0.869738 -0.4935138
vn -1.28814E-07 0.8697366 -0.4935163
vn -3.864453E-07 0.8697373 -0.4935149
g collisionMesh_sideWalls_26_0
f 3/3/3 2/2/2 1/1/1
f 4/4/4 3/3/3 1/1/1
f 7/7/7 6/6/6 5/5/5
f 8/8/8 7/7/7 5/5/5
f 11/11/11 10/10/10 9/9/9
f 12/12/12 11/11/11 9/9/9
f 15/15/15 14/14/14 13/13/13
f 16/16/16 15/15/15 13/13/13
f 19/19/19 18/18/18 17/17/17
f 20/20/20 19/19/19 17/17/17
f 23/23/23 22/22/22 21/21/21
f 24/24/24 23/23/23 21/21/21
f 27/27/27 26/26/26 25/25/25
f 28/28/28 27/27/27 25/25/25
f 31/31/31 30/30/30 29/29/29
f 32/32/32 31/31/31 29/29/29
f 35/35/35 34/34/34 33/33/33
f 36/36/36 35/35/35 33/33/33
f 39/39/39 38/38/38 37/37/37
f 40/40/40 39/39/39 37/37/37
f 43/43/43 42/42/42 41/41/41
f 44/44/44 43/43/43 41/41/41
f 47/47/47 46/46/46 45/45/45
f 48/48/48 47/47/47 45/45/45
f 51/51/51 50/50/50 49/49/49
f 52/52/52 51/51/51 49/49/49
f 55/55/55 54/54/54 53/53/53
f 56/56/56 55/55/55 53/53/53
f 59/59/59 58/58/58 57/57/57
f 60/60/60 59/59/59 57/57/57
f 63/63/63 62/62/62 61/61/61
f 64/64/64 63/63/63 61/61/61
f 67/67/67 66/66/66 65/65/65
f 65/65/65 66/66/66 68/68/68
f 69/69/69 66/66/66 67/67/67
f 68/68/68 66/66/66 70/70/70
f 71/71/71 66/66/66 69/69/69
f 70/70/70 66/66/66 72/72/72
f 73/73/73 66/66/66 71/71/71
f 72/72/72 66/66/66 73/73/73
