g collisionMesh_sideWalls_53
v -26.30345 -18.5572 -70.71465
v -25.9897 -18.05309 -70.60351
v -26.29298 -17.74371 -69.93993
v -26.73667 -18.11524 -69.76672
v -25.9897 -18.05309 -70.60351
v -26.30345 -18.5572 -70.71465
v -25.25754 -18.74026 -71.1073
v -25.25754 -18.18124 -70.87836
v -25.25754 -18.18124 -70.87836
v -25.25754 -18.74026 -71.1073
v -24.21164 -18.5572 -70.71465
v -24.52538 -18.05309 -70.60351
v -24.52538 -18.05309 -70.60351
v -24.21164 -18.5572 -70.71465
v -23.77841 -18.11524 -69.76672
v -24.2221 -17.74371 -69.93993
v -24.2221 -17.74371 -69.93993
v -23.77841 -18.11524 -69.76672
v -24.21164 -17.67328 -68.81876
v -24.52538 -17.43432 -69.27632
v -24.52538 -17.43432 -69.27632
v -24.21164 -17.67328 -68.81876
v -25.25754 -17.49022 -68.42612
v -25.25754 -17.30618 -69.00146
v -25.25754 -17.30618 -69.00146
v -25.25754 -17.49022 -68.42612
v -26.30345 -17.67328 -68.81876
v -25.9897 -17.43432 -69.27632
v -25.9897 -17.43432 -69.27632
v -26.30345 -17.67328 -68.81876
v -26.73667 -18.11524 -69.76672
v -26.29298 -17.74371 -69.93993
v -26.30345 -22.46844 -68.89111
v -25.25754 -22.6515 -69.28376
v -25.25754 -18.74026 -71.1073
v -26.30345 -18.5572 -70.71465
v -25.25754 -22.6515 -69.28376
v -24.21164 -22.46844 -68.89111
v -24.21164 -18.5572 -70.71465
v -25.25754 -18.74026 -71.1073
v -24.21164 -22.46844 -68.89111
v -23.77841 -22.02647 -67.94317
v -23.77841 -18.11524 -69.76672
v -24.21164 -18.5572 -70.71465
v -23.77841 -22.02647 -67.94317
v -24.21164 -21.58451 -66.99522
v -24.21164 -17.67328 -68.81876
v -23.77841 -18.11524 -69.76672
v -24.21164 -21.58451 -66.99522
v -25.25754 -21.40145 -66.60258
v -25.25754 -17.49022 -68.42612
v -24.21164 -17.67328 -68.81876
v -25.25754 -21.40145 -66.60258
v -26.30345 -21.58451 -66.99522
v -26.30345 -17.67328 -68.81876
v -25.25754 -17.49022 -68.42612
v -26.30345 -21.58451 -66.99522
v -26.73667 -22.02647 -67.94317
v -26.73667 -18.11524 -69.76672
v -26.30345 -17.67328 -68.81876
v -26.73667 -22.02647 -67.94317
v -26.30345 -22.46844 -68.89111
v -26.30345 -18.5572 -70.71465
v -26.73667 -18.11524 -69.76672
v -25.9897 -18.05309 -70.60351
v -25.25754 -18.18124 -70.87836
v -25.25754 -17.74371 -69.93993
v -26.29298 -17.74371 -69.93993
v -24.52538 -18.05309 -70.60351
v -25.9897 -17.43432 -69.27632
v -24.2221 -17.74371 -69.93993
v -25.25754 -17.30618 -69.00146
v -24.52538 -17.43432 -69.27632
vt 0.6249999 0.6545655
vt 0.6203129 0.6884398
vt 0.5984371 0.6884398
vt 0.59375 0.6545655
vt 0.3796871 0.6884398
vt 0.3750001 0.6545655
vt 0.40625 0.6545655
vt 0.401563 0.6884398
vt 0.4109371 0.6884398
vt 0.40625 0.6545655
vt 0.4375 0.6545655
vt 0.432813 0.6884398
vt 0.4421871 0.6884398
vt 0.4375 0.6545655
vt 0.46875 0.6545655
vt 0.464063 0.6884398
vt 0.473437 0.6884398
vt 0.46875 0.6545655
vt 0.5 0.6545658
vt 0.4953132 0.6884398
vt 0.5046871 0.6884398
vt 0.5 0.6545658
vt 0.5312499 0.6545655
vt 0.526563 0.6884398
vt 0.535937 0.6884398
vt 0.5312499 0.6545655
vt 0.5624998 0.6545655
vt 0.5578128 0.6884398
vt 0.5671868 0.6884398
vt 0.5624998 0.6545655
vt 0.59375 0.6545655
vt 0.589063 0.6884398
vt 0.375 0.3125005
vt 0.40625 0.3125005
vt 0.40625 0.6545655
vt 0.3750001 0.6545655
vt 0.40625 0.3125005
vt 0.4375 0.3125005
vt 0.4375 0.6545655
vt 0.40625 0.6545655
vt 0.4375 0.3125005
vt 0.46875 0.3125005
vt 0.46875 0.6545655
vt 0.4375 0.6545655
vt 0.46875 0.3125005
vt 0.5000001 0.3125005
vt 0.5 0.6545658
vt 0.46875 0.6545655
vt 0.5000001 0.3125005
vt 0.53125 0.3125005
vt 0.5312499 0.6545655
vt 0.5 0.6545658
vt 0.53125 0.3125005
vt 0.5625 0.3125005
vt 0.5624998 0.6545655
vt 0.5312499 0.6545655
vt 0.5625 0.3125005
vt 0.59375 0.3125005
vt 0.59375 0.6545655
vt 0.5624998 0.6545655
vt 0.59375 0.3125005
vt 0.6249999 0.3125005
vt 0.6249999 0.6545655
vt 0.59375 0.6545655
vt 0.5773429 0.9192181
vt 0.4999999 0.9512545
vt 0.5 0.8375
vt 0.6093796 0.8418752
vt 0.4226569 0.9192182
vt 0.5773429 0.764531
vt 0.3906201 0.8418752
vt 0.5 0.7324947
vt 0.4226569 0.764531
vn -0.653281 0.5265298 -0.5440499
vn -0.6532809 0.5265298 -0.54405
vn -0.6532809 0.5265298 -0.54405
vn -0.6532809 0.5265298 -0.54405
vn -0.2705919 0.3648351 -0.8908846
vn -0.2705919 0.3648351 -0.8908846
vn -0.2705919 0.3648351 -0.8908846
vn -0.2705919 0.3648351 -0.8908846
vn 0.2705933 0.3648325 -0.8908853
vn 0.2705933 0.3648325 -0.8908852
vn 0.2705933 0.3648325 -0.8908852
vn 0.2705933 0.3648325 -0.8908852
vn 0.6532815 0.5265307 -0.5440484
vn 0.6532816 0.5265307 -0.5440484
vn 0.6532816 0.5265307 -0.5440484
vn 0.6532816 0.5265307 -0.5440484
vn 0.6532856 0.7552159 -0.05354302
vn 0.6532856 0.7552159 -0.05354302
vn 0.6532856 0.7552159 -0.05354303
vn 0.6532856 0.7552159 -0.05354302
vn 0.2705948 0.9169235 0.2933086
vn 0.2705948 0.9169235 0.2933086
vn 0.2705947 0.9169233 0.2933087
vn 0.2705948 0.9169233 0.2933086
vn -0.2705908 0.9169248 0.293308
vn -0.2705909 0.9169248 0.293308
vn -0.2705908 0.9169248 0.293308
vn -0.2705908 0.9169248 0.293308
vn -0.653285 0.7552162 -0.05354648
vn -0.6532851 0.7552161 -0.05354648
vn -0.6532851 0.7552161 -0.05354647
vn -0.6532851 0.7552161 -0.05354647
vn -0.3826839 -0.3903962 -0.8373434
vn -0.3826838 -0.3903962 -0.8373434
vn -0.3826838 -0.3903962 -0.8373434
vn -0.3826839 -0.3903962 -0.8373434
vn 0.3826863 -0.3903951 -0.8373428
vn 0.3826863 -0.3903951 -0.8373428
vn 0.3826863 -0.3903951 -0.8373428
vn 0.3826863 -0.3903951 -0.8373428
vn 0.92388 -0.1617068 -0.3468381
vn 0.92388 -0.1617068 -0.3468381
vn 0.92388 -0.1617068 -0.3468381
vn 0.92388 -0.1617068 -0.3468381
vn 0.9238812 0.1617055 0.3468353
vn 0.9238812 0.1617055 0.3468352
vn 0.9238812 0.1617055 0.3468352
vn 0.9238812 0.1617055 0.3468352
vn 0.3826774 0.3903964 0.8373462
vn 0.3826773 0.3903964 0.8373462
vn 0.3826774 0.3903964 0.8373462
vn 0.3826774 0.3903964 0.8373462
vn -0.3826749 0.3903978 0.8373467
vn -0.3826748 0.3903978 0.8373467
vn -0.3826748 0.3903978 0.8373467
vn -0.3826748 0.3903978 0.8373467
vn -0.9238805 0.161706 0.3468369
vn -0.9238805 0.161706 0.3468369
vn -0.9238805 0.1617061 0.346837
vn -0.9238805 0.161706 0.346837
vn -0.9238791 -0.1617079 -0.3468398
vn -0.9238791 -0.1617079 -0.3468398
vn -0.9238791 -0.1617079 -0.3468398
vn -0.9238792 -0.1617079 -0.3468398
vn 1.030524E-06 0.9063352 -0.4225596
vn 0 0.9063342 -0.4225615
vn 0 0.9063353 -0.4225594
vn 0 0.9063355 -0.422559
vn -1.030534E-06 0.9063348 -0.4225602
vn -5.152542E-06 0.9063353 -0.4225593
vn 0 0.9063361 -0.4225576
vn 0 0.9063353 -0.4225593
vn 5.152588E-06 0.9063358 -0.4225583
g collisionMesh_sideWalls_53_0
f 3/3/3 2/2/2 1/1/1
f 4/4/4 3/3/3 1/1/1
f 7/7/7 6/6/6 5/5/5
f 8/8/8 7/7/7 5/5/5
f 11/11/11 10/10/10 9/9/9
f 12/12/12 11/11/11 9/9/9
f 15/15/15 14/14/14 13/13/13
f 16/16/16 15/15/15 13/13/13
f 19/19/19 18/18/18 17/17/17
f 20/20/20 19/19/19 17/17/17
f 23/23/23 22/22/22 21/21/21
f 24/24/24 23/23/23 21/21/21
f 27/27/27 26/26/26 25/25/25
f 28/28/28 27/27/27 25/25/25
f 31/31/31 30/30/30 29/29/29
f 32/32/32 31/31/31 29/29/29
f 35/35/35 34/34/34 33/33/33
f 36/36/36 35/35/35 33/33/33
f 39/39/39 38/38/38 37/37/37
f 40/40/40 39/39/39 37/37/37
f 43/43/43 42/42/42 41/41/41
f 44/44/44 43/43/43 41/41/41
f 47/47/47 46/46/46 45/45/45
f 48/48/48 47/47/47 45/45/45
f 51/51/51 50/50/50 49/49/49
f 52/52/52 51/51/51 49/49/49
f 55/55/55 54/54/54 53/53/53
f 56/56/56 55/55/55 53/53/53
f 59/59/59 58/58/58 57/57/57
f 60/60/60 59/59/59 57/57/57
f 63/63/63 62/62/62 61/61/61
f 64/64/64 63/63/63 61/61/61
f 67/67/67 66/66/66 65/65/65
f 67/67/67 65/65/65 68/68/68
f 67/67/67 69/69/69 66/66/66
f 67/67/67 68/68/68 70/70/70
f 67/67/67 71/71/71 69/69/69
f 67/67/67 70/70/70 72/72/72
f 67/67/67 73/73/73 71/71/71
f 67/67/67 72/72/72 73/73/73
