g collisionMesh_wall05
v -0.6260132 -0.8189627 4.577633
v -1.132359 -0.8092117 4.528964
v -0.1899542 -0.04366483 6.411198
v 0.2067405 4.258947 4.877045
v -0.6991837 3.747161 2.988937
v -0.1928377 3.737409 3.037599
v 0.03742999 -0.06352445 6.414296
v 0.8490929 -0.9848574 4.548715
v 0.3505171 -0.9042508 4.590947
v 0.7836936 3.652122 3.050915
v 1.28227 3.571516 3.008683
v 0.4341255 4.239087 4.880143
v -0.1928377 3.737409 3.037599
v -0.3907875 0.3166178 -5.401707
v 0.5857418 0.2313291 -5.388396
v 0.7836936 3.652122 3.050915
v 0.2067405 4.258947 4.877045
v 0.4341255 4.239087 4.880143
v -0.3907875 0.3166178 -5.401707
v -0.8702903 -4.000352 -3.87577
v 0.10624 -4.085641 -3.862464
v 0.5857418 0.2313291 -5.388396
v 0.7836936 3.652122 3.050915
v 0.5857418 0.2313291 -5.388396
v 0.10624 -4.085641 -3.862464
v 0.3505171 -0.9042508 4.590947
v -0.8702903 -4.000352 -3.87577
v -0.3907875 0.3166178 -5.401707
v -0.1928377 3.737409 3.037599
v -0.6260132 -0.8189627 4.577633
v 0.2067405 4.258947 4.877045
v -1.132359 -0.8092117 4.528964
v -0.6991837 3.747161 2.988937
v -0.1899542 -0.04366483 6.411198
v 0.4341255 4.239087 4.880143
v 0.03742999 -0.06352445 6.414296
v 0.8490929 -0.9848574 4.548715
v 1.28227 3.571516 3.008683
v -0.1928377 3.737409 3.037599
v -0.6991837 3.747161 2.988937
v -1.132359 -0.8092117 4.528964
v -0.6260132 -0.8189627 4.577633
v 0.3505171 -0.9042508 4.590947
v 0.8490929 -0.9848574 4.548715
v 1.28227 3.571516 3.008683
v 0.7836936 3.652122 3.050915
vt 0.352673 0
vt 0.352673 0
vt 0.375 0
vt 0.375 0.25
vt 0.352673 0.25
vt 0.352673 0.25
vt 0.625 0
vt 0.6473271 0
vt 0.6473271 0
vt 0.647327 0.25
vt 0.647327 0.25
vt 0.625 0.25
vt 0.375 0.272327
vt 0.375 0.5
vt 0.625 0.5
vt 0.625 0.272327
vt 0.375 0.25
vt 0.625 0.25
vt 0.375 0.5
vt 0.375 0.75
vt 0.625 0.75
vt 0.625 0.5
vt 0.647327 0.25
vt 0.875 0.25
vt 0.875 0
vt 0.6473271 0
vt 0.125 0
vt 0.125 0.25
vt 0.352673 0.25
vt 0.352673 0
vt 0.375 0.25
vt 0.352673 0
vt 0.352673 0.25
vt 0.375 0
vt 0.625 0.25
vt 0.625 0
vt 0.6473271 0
vt 0.647327 0.25
vt 0.352673 0.25
vt 0.352673 0.25
vt 0.352673 0
vt 0.352673 0
vt 0.6473271 0
vt 0.6473271 0
vt 0.647327 0.25
vt 0.647327 0.25
vn -0.05607328 -0.9147447 0.4001223
vn -0.05607329 -0.9147447 0.4001223
vn -0.05607329 -0.9147447 0.4001223
vn 0.08565561 0.9535037 -0.2889529
vn 0.04552562 0.9584408 -0.2816357
vn 0.08259717 0.9270532 -0.3657188
vn -0.1131724 -0.9095275 0.3999396
vn -0.1131724 -0.9095275 0.3999396
vn -0.1131724 -0.9095275 0.3999396
vn 0.08937714 0.9265209 -0.3654734
vn 0.1300173 0.9510576 -0.2803299
vn 0.08879112 0.9532312 -0.2889058
vn 0.08259717 0.9270532 -0.3657188
vn 0.08570757 0.9226485 -0.3759971
vn 0.08570757 0.9226485 -0.3759971
vn 0.08937714 0.9265209 -0.3654734
vn 0.08565561 0.9535037 -0.2889529
vn 0.08879112 0.9532312 -0.2889058
vn -0.01610973 -0.3316326 -0.943271
vn -0.01610973 -0.3316326 -0.943271
vn -0.01610973 -0.3316326 -0.943271
vn -0.01610973 -0.3316326 -0.943271
vn 0.9951002 -0.09810501 0.01229201
vn 0.9951002 -0.09810501 0.01229201
vn 0.9951002 -0.09810501 0.01229201
vn 0.9951002 -0.09810501 0.01229201
vn -0.9951002 0.09810498 -0.0122921
vn -0.9951002 0.09810497 -0.0122921
vn -0.9951002 0.09810498 -0.0122921
vn -0.9951002 0.09810497 -0.0122921
vn -0.8638052 0.2362083 0.4450236
vn -0.9038658 0.21335 0.3708212
vn -0.9038658 0.21335 0.3708211
vn -0.8640448 0.2360869 0.4446229
vn 0.8833978 0.07843447 0.4620134
vn 0.8836467 0.07825142 0.4615684
vn 0.920321 0.04848062 0.388148
vn 0.920321 0.04848062 0.388148
vn 0.08420801 -0.3262383 -0.9415294
vn 0.08420801 -0.3262383 -0.9415294
vn 0.08420801 -0.3262383 -0.9415294
vn 0.08420803 -0.3262383 -0.9415294
vn -0.1294211 -0.3064419 -0.9430501
vn -0.1294211 -0.3064419 -0.9430501
vn -0.1294211 -0.3064419 -0.9430501
vn -0.1294211 -0.3064419 -0.9430501
g collisionMesh_wall05_0
f 3/3/3 2/2/2 1/1/1
f 6/6/6 5/5/5 4/4/4
f 9/9/9 8/8/8 7/7/7
f 12/12/12 11/11/11 10/10/10
f 15/15/15 14/14/14 13/13/13
f 16/16/16 15/15/15 13/13/13
f 16/16/16 13/13/13 17/17/17
f 18/18/18 16/16/16 17/17/17
f 21/21/21 20/20/20 19/19/19
f 22/22/22 21/21/21 19/19/19
f 25/25/25 24/24/24 23/23/23
f 26/26/26 25/25/25 23/23/23
f 29/29/29 28/28/28 27/27/27
f 30/30/30 29/29/29 27/27/27
f 33/33/33 32/32/32 31/31/31
f 32/32/32 34/34/34 31/31/31
f 35/35/35 31/31/31 34/34/34
f 36/36/36 35/35/35 34/34/34
f 36/36/36 37/37/37 35/35/35
f 37/37/37 38/38/38 35/35/35
f 41/41/41 40/40/40 39/39/39
f 42/42/42 41/41/41 39/39/39
f 45/45/45 44/44/44 43/43/43
f 46/46/46 45/45/45 43/43/43
