g collisionMesh_sideWalls_24
v 22.74649 35.93481 60.95218
v 23.17963 36.1644 61.97261
v 22.74418 36.57208 61.87734
v 22.44097 36.41137 61.16302
v 22.44097 36.41137 61.16302
v 21.70895 36.35654 60.8644
v 21.70079 35.85649 60.52558
v 22.74649 35.93481 60.95218
v 21.70895 36.35654 60.8644
v 20.97693 36.43973 61.1564
v 20.6551 35.97532 60.94271
v 21.70079 35.85649 60.52558
v 20.97693 36.43973 61.1564
v 20.67372 36.6122 61.86797
v 20.22196 36.2217 61.95922
v 20.6551 35.97532 60.94271
v 20.67372 36.6122 61.86797
v 20.97693 36.77292 62.58232
v 20.6551 36.45129 62.97966
v 20.22196 36.2217 61.95922
v 20.97693 36.77292 62.58232
v 21.70895 36.82775 62.88094
v 21.70079 36.52961 63.40624
v 20.6551 36.45129 62.97966
v 21.70895 36.82775 62.88094
v 22.44097 36.74456 62.58895
v 22.74649 36.41078 62.98913
v 21.70079 36.52961 63.40624
v 22.44097 36.74456 62.58895
v 22.74418 36.57208 61.87734
v 23.17963 36.1644 61.97261
v 22.74649 36.41078 62.98913
v 22.58549 28.05424 62.79362
v 22.74649 35.93481 60.95218
v 21.70079 35.85649 60.52558
v 21.53979 27.97592 62.36703
v 21.53979 27.97592 62.36703
v 21.70079 35.85649 60.52558
v 20.6551 35.97532 60.94271
v 20.49409 28.09476 62.78416
v 20.49409 28.09476 62.78416
v 20.6551 35.97532 60.94271
v 20.22196 36.2217 61.95922
v 20.06095 28.34113 63.80067
v 20.06095 28.34113 63.80067
v 20.22196 36.2217 61.95922
v 20.6551 36.45129 62.97966
v 20.49409 28.57073 64.82111
v 20.49409 28.57073 64.82111
v 20.6551 36.45129 62.97966
v 21.70079 36.52961 63.40624
v 21.53979 28.64904 65.2477
v 21.53979 28.64904 65.2477
v 21.70079 36.52961 63.40624
v 22.74649 36.41078 62.98913
v 22.58549 28.53021 64.83057
v 22.58549 28.53021 64.83057
v 22.74649 36.41078 62.98913
v 23.17963 36.1644 61.97261
v 23.01863 28.28383 63.81406
v 23.01863 28.28383 63.81406
v 23.17963 36.1644 61.97261
v 22.74649 35.93481 60.95218
v 22.58549 28.05424 62.79362
v 22.44097 36.41137 61.16302
v 21.70895 36.59214 61.87266
v 21.70895 36.35654 60.8644
v 22.74418 36.57208 61.87734
v 20.97693 36.43973 61.1564
v 22.44097 36.74456 62.58895
v 20.67372 36.6122 61.86797
v 21.70895 36.82775 62.88094
v 20.97693 36.77292 62.58232
vt 0.6249999 0.6545655
vt 0.59375 0.6545655
vt 0.5984371 0.6884398
vt 0.6203129 0.6884398
vt 0.3796871 0.6884398
vt 0.401563 0.6884398
vt 0.40625 0.6545655
vt 0.3750001 0.6545655
vt 0.4109371 0.6884398
vt 0.432813 0.6884398
vt 0.4375 0.6545655
vt 0.40625 0.6545655
vt 0.4421871 0.6884398
vt 0.464063 0.6884398
vt 0.46875 0.6545655
vt 0.4375 0.6545655
vt 0.473437 0.6884398
vt 0.4953132 0.6884398
vt 0.5 0.6545658
vt 0.46875 0.6545655
vt 0.5046871 0.6884398
vt 0.526563 0.6884398
vt 0.5312499 0.6545655
vt 0.5 0.6545658
vt 0.535937 0.6884398
vt 0.5578128 0.6884398
vt 0.5624998 0.6545655
vt 0.5312499 0.6545655
vt 0.5671868 0.6884398
vt 0.589063 0.6884398
vt 0.59375 0.6545655
vt 0.5624998 0.6545655
vt 0.375 0.3125005
vt 0.3750001 0.6545655
vt 0.40625 0.6545655
vt 0.40625 0.3125005
vt 0.40625 0.3125005
vt 0.40625 0.6545655
vt 0.4375 0.6545655
vt 0.4375 0.3125005
vt 0.4375 0.3125005
vt 0.4375 0.6545655
vt 0.46875 0.6545655
vt 0.46875 0.3125005
vt 0.46875 0.3125005
vt 0.46875 0.6545655
vt 0.5 0.6545658
vt 0.5000001 0.3125005
vt 0.5000001 0.3125005
vt 0.5 0.6545658
vt 0.5312499 0.6545655
vt 0.53125 0.3125005
vt 0.53125 0.3125005
vt 0.5312499 0.6545655
vt 0.5624998 0.6545655
vt 0.5625 0.3125005
vt 0.5625 0.3125005
vt 0.5624998 0.6545655
vt 0.59375 0.6545655
vt 0.59375 0.3125005
vt 0.59375 0.3125005
vt 0.59375 0.6545655
vt 0.6249999 0.6545655
vt 0.6249999 0.3125005
vt 0.5773429 0.9192181
vt 0.5 0.8375
vt 0.4999999 0.9512545
vt 0.6093796 0.8418752
vt 0.4226569 0.9192182
vt 0.5773429 0.764531
vt 0.3906201 0.8418752
vt 0.5 0.7324947
vt 0.4226569 0.764531
vn 0.6672161 0.614197 -0.4214079
vn 0.6672162 0.6141971 -0.4214079
vn 0.6672161 0.614197 -0.4214079
vn 0.6672162 0.6141971 -0.4214079
vn 0.2846076 0.53455 -0.7957731
vn 0.2846076 0.53455 -0.7957731
vn 0.2846076 0.53455 -0.7957731
vn 0.2846076 0.53455 -0.7957731
vn -0.2564751 0.5450329 -0.7982227
vn -0.2564752 0.545033 -0.7982227
vn -0.2564752 0.545033 -0.7982227
vn -0.2564752 0.545033 -0.7982227
vn -0.639086 0.6395032 -0.4273228
vn -0.6390859 0.6395032 -0.4273228
vn -0.6390859 0.6395032 -0.4273228
vn -0.6390859 0.6395032 -0.4273228
vn -0.6390988 0.7626382 0.09967744
vn -0.6390988 0.7626382 0.09967744
vn -0.6390988 0.7626382 0.09967744
vn -0.6390988 0.7626382 0.09967744
vn -0.2564705 0.8423072 0.4740691
vn -0.2564705 0.8423072 0.4740691
vn -0.2564705 0.8423072 0.4740691
vn -0.2564705 0.8423072 0.4740692
vn 0.2846043 0.8318267 0.4765131
vn 0.2846043 0.8318267 0.4765131
vn 0.2846043 0.8318267 0.4765131
vn 0.2846043 0.8318267 0.4765131
vn 0.6672227 0.7373356 0.1055943
vn 0.6672227 0.7373356 0.1055943
vn 0.6672227 0.7373356 0.1055943
vn 0.6672227 0.7373355 0.1055943
vn 0.3826023 -0.2176327 -0.8979151
vn 0.3826023 -0.2176327 -0.8979151
vn 0.3826023 -0.2176327 -0.8979151
vn 0.3826023 -0.2176327 -0.8979151
vn -0.3826131 -0.2028072 -0.9013748
vn -0.3826131 -0.2028072 -0.9013748
vn -0.3826131 -0.2028072 -0.9013748
vn -0.3826131 -0.2028072 -0.9013748
vn -0.9236969 -0.06918103 -0.3768264
vn -0.9236969 -0.06918103 -0.3768264
vn -0.9236969 -0.06918103 -0.3768264
vn -0.9236969 -0.06918103 -0.3768264
vn -0.9237001 0.1049686 0.3684559
vn -0.9237001 0.1049687 0.3684559
vn -0.9237001 0.1049687 0.3684559
vn -0.9237001 0.1049686 0.3684559
vn -0.3825989 0.2176325 0.8979166
vn -0.3825989 0.2176325 0.8979166
vn -0.3825989 0.2176325 0.8979166
vn -0.3825989 0.2176325 0.8979165
vn 0.3826027 0.2028082 0.901379
vn 0.3826027 0.2028082 0.901379
vn 0.3826027 0.2028082 0.901379
vn 0.3826026 0.2028082 0.901379
vn 0.9236991 0.06917991 0.376821
vn 0.9236991 0.06917991 0.376821
vn 0.9236991 0.06917991 0.376821
vn 0.9236991 0.06917991 0.376821
vn 0.9236968 -0.1049694 -0.3684639
vn 0.9236968 -0.1049694 -0.3684639
vn 0.9236968 -0.1049694 -0.3684639
vn 0.9236968 -0.1049694 -0.3684638
vn 0.01988974 0.9735762 -0.2274944
vn 0.01989175 0.9735762 -0.2274943
vn 0.01989048 0.9735753 -0.2274982
vn 0.01989126 0.9735767 -0.2274924
vn 0.0198925 0.9735754 -0.2274978
vn 0.01989182 0.9735772 -0.22749
vn 0.01989205 0.9735757 -0.2274966
vn 0.01989319 0.9735772 -0.2274897
vn 0.01989292 0.9735761 -0.2274948
g collisionMesh_sideWalls_24_0
f 3/3/3 2/2/2 1/1/1
f 4/4/4 3/3/3 1/1/1
f 7/7/7 6/6/6 5/5/5
f 8/8/8 7/7/7 5/5/5
f 11/11/11 10/10/10 9/9/9
f 12/12/12 11/11/11 9/9/9
f 15/15/15 14/14/14 13/13/13
f 16/16/16 15/15/15 13/13/13
f 19/19/19 18/18/18 17/17/17
f 20/20/20 19/19/19 17/17/17
f 23/23/23 22/22/22 21/21/21
f 24/24/24 23/23/23 21/21/21
f 27/27/27 26/26/26 25/25/25
f 28/28/28 27/27/27 25/25/25
f 31/31/31 30/30/30 29/29/29
f 32/32/32 31/31/31 29/29/29
f 35/35/35 34/34/34 33/33/33
f 36/36/36 35/35/35 33/33/33
f 39/39/39 38/38/38 37/37/37
f 40/40/40 39/39/39 37/37/37
f 43/43/43 42/42/42 41/41/41
f 44/44/44 43/43/43 41/41/41
f 47/47/47 46/46/46 45/45/45
f 48/48/48 47/47/47 45/45/45
f 51/51/51 50/50/50 49/49/49
f 52/52/52 51/51/51 49/49/49
f 55/55/55 54/54/54 53/53/53
f 56/56/56 55/55/55 53/53/53
f 59/59/59 58/58/58 57/57/57
f 60/60/60 59/59/59 57/57/57
f 63/63/63 62/62/62 61/61/61
f 64/64/64 63/63/63 61/61/61
f 67/67/67 66/66/66 65/65/65
f 65/65/65 66/66/66 68/68/68
f 69/69/69 66/66/66 67/67/67
f 68/68/68 66/66/66 70/70/70
f 71/71/71 66/66/66 69/69/69
f 70/70/70 66/66/66 72/72/72
f 73/73/73 66/66/66 71/71/71
f 72/72/72 66/66/66 73/73/73
