g collisionMesh_prism04
v 0.2840161 3.751949 2.339827
v 2.119289 1.73326 -1.008114
v 1.891088 -1.940412 1.081879
v 0.05581294 0.07827951 4.429822
v -1.891086 1.940413 -1.081879
v -2.119289 -1.733257 1.008117
v -0.2840155 -3.751946 -2.339829
v -0.05581181 -0.07827688 -4.429822
v 1.891088 -1.940412 1.081879
v 2.119289 1.73326 -1.008114
v 0.2098864 -0.09200124 -4.424935
v -0.0183173 -3.765671 -2.334939
v -2.119289 -1.733257 1.008117
v -1.891086 1.940413 -1.081879
v 0.01831783 3.765672 2.334942
v -0.2098853 0.09200266 4.424935
v 0.01831783 3.765672 2.334942
v 2.119289 1.73326 -1.008114
v 0.2840161 3.751949 2.339827
v -1.891086 1.940413 -1.081879
v 0.2098864 -0.09200124 -4.424935
v -0.05581181 -0.07827688 -4.429822
v -0.2098853 0.09200266 4.424935
v 0.01831783 3.765672 2.334942
v 0.2840161 3.751949 2.339827
v 0.05581294 0.07827951 4.429822
v -0.05581181 -0.07827688 -4.429822
v -0.2840155 -3.751946 -2.339829
v -0.0183173 -3.765671 -2.334939
v 0.2098864 -0.09200124 -4.424935
vt 0.3999975 0.25
vt 0.625 0.25
vt 0.625 0
vt 0.3999975 4.470348E-08
vt 0.375 0.5
vt 0.375 0.75
vt 0.6000025 0.75
vt 0.6000025 0.5
vt 0.625 0
vt 0.625 0.25
vt 0.8500025 0.25
vt 0.8500025 1.862645E-09
vt 0.125 1.766342E-09
vt 0.125 0.25
vt 0.3500026 0.25
vt 0.3500026 -3.72529E-09
vt 0.375 0.2749975
vt 0.625 0.25
vt 0.3999975 0.25
vt 0.375 0.5
vt 0.625 0.4750024
vt 0.6000025 0.5
vt 0.3500026 -3.72529E-09
vt 0.3500026 0.25
vt 0.3999975 0.25
vt 0.3999975 4.470348E-08
vt 0.6000025 0.5
vt 0.6000025 0.75
vt 0.6249999 0.75
vt 0.625 0.4750024
vn 0.90361 0.1680334 0.3940225
vn 0.90361 0.1680334 0.3940225
vn 0.90361 0.1680334 0.3940225
vn 0.9036101 0.1680333 0.3940225
vn -0.9036101 -0.1680331 -0.3940225
vn -0.9036101 -0.1680331 -0.3940225
vn -0.9036101 -0.1680331 -0.3940225
vn -0.9036101 -0.1680331 -0.3940225
vn 0.8953372 -0.2609566 -0.3609338
vn 0.895337 -0.2609566 -0.3609338
vn 0.895337 -0.2609566 -0.3609338
vn 0.895337 -0.2609566 -0.3609338
vn -0.895337 0.2609566 0.3609338
vn -0.895337 0.2609566 0.3609338
vn -0.895337 0.2609566 0.3609338
vn -0.895337 0.2609566 0.3609338
vn 0.05391352 0.8679199 -0.4937696
vn 0.05391352 0.8679199 -0.4937696
vn 0.05391352 0.8679199 -0.4937696
vn 0.05391352 0.8679199 -0.4937696
vn 0.05391378 0.8679197 -0.4937698
vn 0.05391378 0.8679197 -0.4937698
vn 0.009531254 0.4940193 0.8693987
vn 0.009531254 0.4940193 0.8693987
vn 0.009531254 0.4940193 0.8693987
vn 0.009531254 0.4940193 0.8693987
vn -0.00952715 -0.4940195 -0.8693986
vn -0.009527148 -0.4940195 -0.8693986
vn -0.009527148 -0.4940195 -0.8693986
vn -0.00952715 -0.4940195 -0.8693986
g collisionMesh_prism04_0
f 3/3/3 2/2/2 1/1/1
f 4/4/4 3/3/3 1/1/1
f 7/7/7 6/6/6 5/5/5
f 8/8/8 7/7/7 5/5/5
f 11/11/11 10/10/10 9/9/9
f 12/12/12 11/11/11 9/9/9
f 15/15/15 14/14/14 13/13/13
f 16/16/16 15/15/15 13/13/13
f 19/19/19 18/18/18 17/17/17
f 18/18/18 20/20/20 17/17/17
f 18/18/18 21/21/21 20/20/20
f 21/21/21 22/22/22 20/20/20
f 25/25/25 24/24/24 23/23/23
f 26/26/26 25/25/25 23/23/23
f 29/29/29 28/28/28 27/27/27
f 30/30/30 29/29/29 27/27/27
