g collisionMesh_sideWalls_52
v -26.12451 -0.5891606 -26.89638
v -25.78846 -0.1188832 -26.72083
v -26.09126 0.1259915 -26.03064
v -26.55707 -0.2393488 -25.91041
v -25.78846 -0.1188832 -26.72083
v -26.12451 -0.5891606 -26.89638
v -25.08022 -0.7798312 -27.28972
v -25.05743 -0.2523578 -26.99617
v -25.05743 -0.2523578 -26.99617
v -25.08022 -0.7798312 -27.28972
v -24.03594 -0.6996692 -26.86002
v -24.3264 -0.1962424 -26.69537
v -24.3264 -0.1962424 -26.69537
v -24.03594 -0.6996692 -26.86002
v -23.60339 -0.3956314 -25.85899
v -24.02359 0.01658875 -25.99464
v -24.02359 0.01658875 -25.99464
v -23.60339 -0.3956314 -25.85899
v -24.03594 -0.04581604 -24.87301
v -24.3264 0.2614741 -25.30441
v -24.3264 0.2614741 -25.30441
v -24.03594 -0.04581604 -24.87301
v -25.08022 0.1448508 -24.47968
v -25.05743 0.3949451 -25.02907
v -25.05743 0.3949451 -25.02907
v -25.08022 0.1448508 -24.47968
v -26.12451 0.06469238 -24.90937
v -25.78846 0.3388333 -25.32986
v -25.78846 0.3388333 -25.32986
v -26.12451 0.06469238 -24.90937
v -26.55707 -0.2393488 -25.91041
v -26.09126 0.1259915 -26.03064
v -26.35473 -4.515045 -25.60451
v -25.31044 -4.705716 -25.99785
v -25.08022 -0.7798312 -27.28972
v -26.12451 -0.5891606 -26.89638
v -25.31044 -4.705716 -25.99785
v -24.26616 -4.625554 -25.56815
v -24.03594 -0.6996692 -26.86002
v -25.08022 -0.7798312 -27.28972
v -24.26616 -4.625554 -25.56815
v -23.8336 -4.321516 -24.56712
v -23.60339 -0.3956314 -25.85899
v -24.03594 -0.6996692 -26.86002
v -23.8336 -4.321516 -24.56712
v -24.26616 -3.971701 -23.58114
v -24.03594 -0.04581604 -24.87301
v -23.60339 -0.3956314 -25.85899
v -24.26616 -3.971701 -23.58114
v -25.31044 -3.781034 -23.18782
v -25.08022 0.1448508 -24.47968
v -24.03594 -0.04581604 -24.87301
v -25.31044 -3.781034 -23.18782
v -26.35473 -3.861192 -23.61751
v -26.12451 0.06469238 -24.90937
v -25.08022 0.1448508 -24.47968
v -26.35473 -3.861192 -23.61751
v -26.78728 -4.165233 -24.61855
v -26.55707 -0.2393488 -25.91041
v -26.12451 0.06469238 -24.90937
v -26.78728 -4.165233 -24.61855
v -26.35473 -4.515045 -25.60451
v -26.12451 -0.5891606 -26.89638
v -26.55707 -0.2393488 -25.91041
v -25.78846 -0.1188832 -26.72083
v -25.05743 -0.2523578 -26.99617
v -25.05743 0.07129013 -26.01264
v -26.09126 0.1259915 -26.03064
v -24.3264 -0.1962424 -26.69537
v -25.78846 0.3388333 -25.32986
v -24.02359 0.01658875 -25.99464
v -25.05743 0.3949451 -25.02907
v -24.3264 0.2614741 -25.30441
vt 0.6249999 0.6545655
vt 0.6203129 0.6884398
vt 0.5984371 0.6884398
vt 0.59375 0.6545655
vt 0.3796871 0.6884398
vt 0.3750001 0.6545655
vt 0.40625 0.6545655
vt 0.401563 0.6884398
vt 0.4109371 0.6884398
vt 0.40625 0.6545655
vt 0.4375 0.6545655
vt 0.432813 0.6884398
vt 0.4421871 0.6884398
vt 0.4375 0.6545655
vt 0.46875 0.6545655
vt 0.464063 0.6884398
vt 0.473437 0.6884398
vt 0.46875 0.6545655
vt 0.5 0.6545658
vt 0.4953132 0.6884398
vt 0.5046871 0.6884398
vt 0.5 0.6545658
vt 0.5312499 0.6545655
vt 0.526563 0.6884398
vt 0.535937 0.6884398
vt 0.5312499 0.6545655
vt 0.5624998 0.6545655
vt 0.5578128 0.6884398
vt 0.5671868 0.6884398
vt 0.5624998 0.6545655
vt 0.59375 0.6545655
vt 0.589063 0.6884398
vt 0.375 0.3125005
vt 0.40625 0.3125005
vt 0.40625 0.6545655
vt 0.3750001 0.6545655
vt 0.40625 0.3125005
vt 0.4375 0.3125005
vt 0.4375 0.6545655
vt 0.40625 0.6545655
vt 0.4375 0.3125005
vt 0.46875 0.3125005
vt 0.46875 0.6545655
vt 0.4375 0.6545655
vt 0.46875 0.3125005
vt 0.5000001 0.3125005
vt 0.5 0.6545658
vt 0.46875 0.6545655
vt 0.5000001 0.3125005
vt 0.53125 0.3125005
vt 0.5312499 0.6545655
vt 0.5 0.6545658
vt 0.53125 0.3125005
vt 0.5625 0.3125005
vt 0.5624998 0.6545655
vt 0.5312499 0.6545655
vt 0.5625 0.3125005
vt 0.59375 0.3125005
vt 0.59375 0.6545655
vt 0.5624998 0.6545655
vt 0.59375 0.3125005
vt 0.6249999 0.3125005
vt 0.6249999 0.6545655
vt 0.59375 0.6545655
vt 0.5773429 0.9192181
vt 0.4999999 0.9512545
vt 0.5 0.8375
vt 0.6093796 0.8418752
vt 0.4226569 0.9192182
vt 0.5773429 0.764531
vt 0.3906201 0.8418752
vt 0.5 0.7324947
vt 0.4226569 0.764531
vn -0.6129395 0.6205683 -0.4890811
vn -0.6129394 0.6205683 -0.4890811
vn -0.6129394 0.6205683 -0.489081
vn -0.6129395 0.6205683 -0.4890811
vn -0.2308468 0.480743 -0.8459291
vn -0.2308467 0.480743 -0.8459291
vn -0.2308467 0.480743 -0.8459291
vn -0.2308468 0.480743 -0.8459291
vn 0.3095031 0.4521534 -0.8365197
vn 0.3095031 0.4521534 -0.8365197
vn 0.309503 0.4521534 -0.8365197
vn 0.309503 0.4521534 -0.8365197
vn 0.6915964 0.5515402 -0.4663666
vn 0.6915964 0.5515403 -0.4663666
vn 0.6915964 0.5515403 -0.4663666
vn 0.6915964 0.5515403 -0.4663666
vn 0.6915985 0.7207045 0.04771399
vn 0.6915984 0.7207046 0.04771398
vn 0.6915985 0.7207045 0.04771398
vn 0.6915984 0.7207046 0.04771399
vn 0.3095022 0.8605354 0.4045828
vn 0.3095022 0.8605354 0.4045828
vn 0.3095022 0.8605354 0.4045828
vn 0.3095022 0.8605354 0.4045828
vn -0.2308465 0.8891274 0.3951738
vn -0.2308465 0.8891274 0.3951738
vn -0.2308465 0.8891274 0.3951738
vn -0.2308465 0.8891274 0.3951738
vn -0.612947 0.7897285 0.02499799
vn -0.612947 0.7897284 0.024998
vn -0.612947 0.7897285 0.02499799
vn -0.612947 0.7897285 0.02499799
vn -0.3820917 -0.2685659 -0.8842388
vn -0.3820918 -0.2685659 -0.8842388
vn -0.3820917 -0.2685659 -0.8842388
vn -0.3820917 -0.2685659 -0.8842388
vn 0.3820931 -0.3089993 -0.870933
vn 0.382093 -0.3089992 -0.8709331
vn 0.382093 -0.3089992 -0.870933
vn 0.3820931 -0.3089993 -0.870933
vn 0.9224503 -0.1684248 -0.3474456
vn 0.9224504 -0.1684248 -0.3474456
vn 0.9224504 -0.1684248 -0.3474456
vn 0.9224503 -0.1684248 -0.3474456
vn 0.9224519 0.07080736 0.3795639
vn 0.9224519 0.07080736 0.3795639
vn 0.9224519 0.07080736 0.3795639
vn 0.9224519 0.07080738 0.3795639
vn 0.3820835 0.2685665 0.8842422
vn 0.3820835 0.2685665 0.8842422
vn 0.3820835 0.2685665 0.8842421
vn 0.3820836 0.2685665 0.8842422
vn -0.3820824 0.3090003 0.8709373
vn -0.3820823 0.3090003 0.8709373
vn -0.3820824 0.3090003 0.8709373
vn -0.3820824 0.3090003 0.8709373
vn -0.9224511 0.1684248 0.3474435
vn -0.9224511 0.1684248 0.3474435
vn -0.9224511 0.1684248 0.3474435
vn -0.9224512 0.1684248 0.3474435
vn -0.9224494 -0.07081011 -0.3795697
vn -0.9224493 -0.07081011 -0.3795698
vn -0.9224494 -0.07081012 -0.3795698
vn -0.9224493 -0.07081012 -0.3795697
vn 0.0556164 0.9484221 -0.3120934
vn 0.05561618 0.9484225 -0.3120925
vn 0.05561613 0.9484225 -0.3120924
vn 0.05561663 0.9484223 -0.3120932
vn 0.05561514 0.9484225 -0.3120924
vn 0.05561606 0.9484226 -0.3120919
vn 0.05561579 0.9484229 -0.3120913
vn 0.05561592 0.9484224 -0.3120928
vn 0.05561689 0.9484226 -0.3120918
g collisionMesh_sideWalls_52_0
f 3/3/3 2/2/2 1/1/1
f 4/4/4 3/3/3 1/1/1
f 7/7/7 6/6/6 5/5/5
f 8/8/8 7/7/7 5/5/5
f 11/11/11 10/10/10 9/9/9
f 12/12/12 11/11/11 9/9/9
f 15/15/15 14/14/14 13/13/13
f 16/16/16 15/15/15 13/13/13
f 19/19/19 18/18/18 17/17/17
f 20/20/20 19/19/19 17/17/17
f 23/23/23 22/22/22 21/21/21
f 24/24/24 23/23/23 21/21/21
f 27/27/27 26/26/26 25/25/25
f 28/28/28 27/27/27 25/25/25
f 31/31/31 30/30/30 29/29/29
f 32/32/32 31/31/31 29/29/29
f 35/35/35 34/34/34 33/33/33
f 36/36/36 35/35/35 33/33/33
f 39/39/39 38/38/38 37/37/37
f 40/40/40 39/39/39 37/37/37
f 43/43/43 42/42/42 41/41/41
f 44/44/44 43/43/43 41/41/41
f 47/47/47 46/46/46 45/45/45
f 48/48/48 47/47/47 45/45/45
f 51/51/51 50/50/50 49/49/49
f 52/52/52 51/51/51 49/49/49
f 55/55/55 54/54/54 53/53/53
f 56/56/56 55/55/55 53/53/53
f 59/59/59 58/58/58 57/57/57
f 60/60/60 59/59/59 57/57/57
f 63/63/63 62/62/62 61/61/61
f 64/64/64 63/63/63 61/61/61
f 67/67/67 66/66/66 65/65/65
f 67/67/67 65/65/65 68/68/68
f 67/67/67 69/69/69 66/66/66
f 67/67/67 68/68/68 70/70/70
f 67/67/67 71/71/71 69/69/69
f 67/67/67 70/70/70 72/72/72
f 67/67/67 73/73/73 71/71/71
f 67/67/67 72/72/72 73/73/73
