g collisionMesh_sideWalls_56
v -6.037143 51.83826 138.2113
v 2.727065 51.83826 138.3018
v 2.696524 51.83826 139.523
v -6.067684 51.83826 139.4325
v -6.067684 47.76305 139.4325
v -6.067684 51.83826 139.4325
v 2.696524 51.83826 139.523
v 2.696524 47.76305 139.523
v 2.727065 47.76305 138.3018
v 2.727065 51.83826 138.3018
v -6.037143 51.83826 138.2113
v -6.037143 47.76305 138.2113
vt 0.375 0.25
vt 0.375 0.5
vt 0.625 0.5
vt 0.625 0.25
vt 0.625 0
vt 0.625 0.25
vt 0.875 0.25
vt 0.875 0
vt 0.125 0
vt 0.125 0.25
vt 0.375 0.25
vt 0.375 0
vn 0 1 0
vn 0 1 0
vn 0 1 0
vn 0 1 0
vn -0.01032955 0 0.9999467
vn -0.01032955 0 0.9999467
vn -0.01032955 0 0.9999467
vn -0.01032955 0 0.9999467
vn 0.01032955 0 -0.9999467
vn 0.01032955 0 -0.9999467
vn 0.01032955 0 -0.9999467
vn 0.01032955 0 -0.9999467
g collisionMesh_sideWalls_56_0
f 3/3/3 2/2/2 1/1/1
f 4/4/4 3/3/3 1/1/1
f 7/7/7 6/6/6 5/5/5
f 8/8/8 7/7/7 5/5/5
f 11/11/11 10/10/10 9/9/9
f 12/12/12 11/11/11 9/9/9
