g collisionMesh_sideWalls_30
v 22.62532 -31.52347 -144.0711
v 23.05854 -31.52347 -143.0252
v 22.61485 -31.11354 -143.0252
v 22.31157 -31.11354 -143.7573
v 22.31157 -31.11354 -143.7573
v 21.57941 -31.11354 -144.0606
v 21.57941 -31.52347 -144.5043
v 22.62532 -31.52347 -144.0711
v 21.57941 -31.11354 -144.0606
v 20.84725 -31.11354 -143.7573
v 20.53351 -31.52347 -144.0711
v 21.57941 -31.52347 -144.5043
v 20.84725 -31.11354 -143.7573
v 20.54397 -31.11354 -143.0252
v 20.10028 -31.52347 -143.0252
v 20.53351 -31.52347 -144.0711
v 20.54397 -31.11354 -143.0252
v 20.84725 -31.11354 -142.293
v 20.53351 -31.52347 -141.9793
v 20.10028 -31.52347 -143.0252
v 20.84725 -31.11354 -142.293
v 21.57941 -31.11354 -141.9897
v 21.57941 -31.52347 -141.5461
v 20.53351 -31.52347 -141.9793
v 21.57941 -31.11354 -141.9897
v 22.31157 -31.11354 -142.293
v 22.62532 -31.52347 -141.9793
v 21.57941 -31.52347 -141.5461
v 22.31157 -31.11354 -142.293
v 22.61485 -31.11354 -143.0252
v 23.05854 -31.52347 -143.0252
v 22.62532 -31.52347 -141.9793
v 22.62532 -35.66285 -144.0711
v 22.62532 -31.52347 -144.0711
v 21.57941 -31.52347 -144.5043
v 21.57941 -35.66285 -144.5043
v 21.57941 -35.66285 -144.5043
v 21.57941 -31.52347 -144.5043
v 20.53351 -31.52347 -144.0711
v 20.53351 -35.66285 -144.0711
v 20.53351 -35.66285 -144.0711
v 20.53351 -31.52347 -144.0711
v 20.10028 -31.52347 -143.0252
v 20.10028 -35.66285 -143.0252
v 20.10028 -35.66285 -143.0252
v 20.10028 -31.52347 -143.0252
v 20.53351 -31.52347 -141.9793
v 20.53351 -35.66285 -141.9793
v 20.53351 -35.66285 -141.9793
v 20.53351 -31.52347 -141.9793
v 21.57941 -31.52347 -141.5461
v 21.57941 -35.66285 -141.5461
v 21.57941 -35.66285 -141.5461
v 21.57941 -31.52347 -141.5461
v 22.62532 -31.52347 -141.9793
v 22.62532 -35.66285 -141.9793
v 22.62532 -35.66285 -141.9793
v 22.62532 -31.52347 -141.9793
v 23.05854 -31.52347 -143.0252
v 23.05854 -35.66285 -143.0252
v 23.05854 -35.66285 -143.0252
v 23.05854 -31.52347 -143.0252
v 22.62532 -31.52347 -144.0711
v 22.62532 -35.66285 -144.0711
v 22.31157 -31.11354 -143.7573
v 21.57941 -31.11354 -143.0252
v 21.57941 -31.11354 -144.0606
v 22.61485 -31.11354 -143.0252
v 20.84725 -31.11354 -143.7573
v 22.31157 -31.11354 -142.293
v 20.54397 -31.11354 -143.0252
v 21.57941 -31.11354 -141.9897
v 20.84725 -31.11354 -142.293
vt 0.6249999 0.6545655
vt 0.59375 0.6545655
vt 0.5984371 0.6884398
vt 0.6203129 0.6884398
vt 0.3796871 0.6884398
vt 0.401563 0.6884398
vt 0.40625 0.6545655
vt 0.3750001 0.6545655
vt 0.4109371 0.6884398
vt 0.432813 0.6884398
vt 0.4375 0.6545655
vt 0.40625 0.6545655
vt 0.4421871 0.6884398
vt 0.464063 0.6884398
vt 0.46875 0.6545655
vt 0.4375 0.6545655
vt 0.473437 0.6884398
vt 0.4953132 0.6884398
vt 0.5 0.6545658
vt 0.46875 0.6545655
vt 0.5046871 0.6884398
vt 0.526563 0.6884398
vt 0.5312499 0.6545655
vt 0.5 0.6545658
vt 0.535937 0.6884398
vt 0.5578128 0.6884398
vt 0.5624998 0.6545655
vt 0.5312499 0.6545655
vt 0.5671868 0.6884398
vt 0.589063 0.6884398
vt 0.59375 0.6545655
vt 0.5624998 0.6545655
vt 0.375 0.3125005
vt 0.3750001 0.6545655
vt 0.40625 0.6545655
vt 0.40625 0.3125005
vt 0.40625 0.3125005
vt 0.40625 0.6545655
vt 0.4375 0.6545655
vt 0.4375 0.3125005
vt 0.4375 0.3125005
vt 0.4375 0.6545655
vt 0.46875 0.6545655
vt 0.46875 0.3125005
vt 0.46875 0.3125005
vt 0.46875 0.6545655
vt 0.5 0.6545658
vt 0.5000001 0.3125005
vt 0.5000001 0.3125005
vt 0.5 0.6545658
vt 0.5312499 0.6545655
vt 0.53125 0.3125005
vt 0.53125 0.3125005
vt 0.5312499 0.6545655
vt 0.5624998 0.6545655
vt 0.5625 0.3125005
vt 0.5625 0.3125005
vt 0.5624998 0.6545655
vt 0.59375 0.6545655
vt 0.59375 0.3125005
vt 0.59375 0.3125005
vt 0.59375 0.6545655
vt 0.6249999 0.6545655
vt 0.6249999 0.3125005
vt 0.5773429 0.9192181
vt 0.5 0.8375
vt 0.4999999 0.9512545
vt 0.6093796 0.8418752
vt 0.4226569 0.9192182
vt 0.5773429 0.764531
vt 0.3906201 0.8418752
vt 0.5 0.7324947
vt 0.4226569 0.764531
vn 0.6532831 0.7071052 -0.2705982
vn 0.6532831 0.7071052 -0.2705982
vn 0.6532831 0.7071052 -0.2705982
vn 0.6532831 0.7071052 -0.2705982
vn 0.2705849 0.7071189 -0.6532738
vn 0.2705849 0.7071188 -0.6532739
vn 0.2705849 0.7071189 -0.6532738
vn 0.2705849 0.7071189 -0.6532739
vn -0.2705872 0.707118 -0.6532739
vn -0.2705872 0.707118 -0.6532738
vn -0.2705872 0.707118 -0.6532738
vn -0.2705872 0.707118 -0.6532738
vn -0.653284 0.7071036 -0.2706
vn -0.6532841 0.7071036 -0.2706
vn -0.6532841 0.7071036 -0.2706
vn -0.6532841 0.7071035 -0.2706001
vn -0.653288 0.7071012 0.270597
vn -0.6532879 0.7071012 0.270597
vn -0.6532879 0.7071012 0.270597
vn -0.6532879 0.7071012 0.270597
vn -0.2705851 0.7070984 0.6532959
vn -0.2705851 0.7070984 0.6532959
vn -0.2705851 0.7070984 0.6532959
vn -0.2705851 0.7070984 0.6532959
vn 0.2705825 0.7071 0.6532952
vn 0.2705825 0.7070999 0.6532952
vn 0.2705825 0.7070999 0.6532952
vn 0.2705825 0.7071 0.6532953
vn 0.6532869 0.7071029 0.2705952
vn 0.6532869 0.7071029 0.2705951
vn 0.6532869 0.7071029 0.2705952
vn 0.6532869 0.7071029 0.2705952
vn 0.382674 0 -0.9238834
vn 0.382674 0 -0.9238834
vn 0.382674 0 -0.9238834
vn 0.382674 0 -0.9238834
vn -0.3826765 0 -0.9238825
vn -0.3826765 0 -0.9238825
vn -0.3826765 0 -0.9238825
vn -0.3826765 0 -0.9238825
vn -0.9238819 0 -0.3826776
vn -0.9238819 0 -0.3826776
vn -0.9238819 0 -0.3826776
vn -0.9238819 0 -0.3826776
vn -0.9238819 0 0.3826776
vn -0.9238819 0 0.3826776
vn -0.9238819 0 0.3826776
vn -0.9238819 0 0.3826776
vn -0.3826674 0 0.9238862
vn -0.3826674 0 0.9238862
vn -0.3826674 0 0.9238862
vn -0.3826674 0 0.9238862
vn 0.3826649 0 0.9238873
vn 0.3826649 0 0.9238873
vn 0.3826649 0 0.9238873
vn 0.3826649 0 0.9238873
vn 0.9238812 0 0.3826795
vn 0.9238812 0 0.3826795
vn 0.9238812 0 0.3826795
vn 0.9238812 0 0.3826795
vn 0.9238812 0 -0.3826795
vn 0.9238812 0 -0.3826795
vn 0.9238812 0 -0.3826795
vn 0.9238812 0 -0.3826795
vn 0 1 -4.122217E-06
vn 0 1 -5.152373E-07
vn 0 1 0
vn 0 1 -2.060978E-06
vn 0 1 0
vn 0 1 2.060993E-06
vn 0 1 0
vn 0 1 0
vn 0 1 0
g collisionMesh_sideWalls_30_0
f 3/3/3 2/2/2 1/1/1
f 4/4/4 3/3/3 1/1/1
f 7/7/7 6/6/6 5/5/5
f 8/8/8 7/7/7 5/5/5
f 11/11/11 10/10/10 9/9/9
f 12/12/12 11/11/11 9/9/9
f 15/15/15 14/14/14 13/13/13
f 16/16/16 15/15/15 13/13/13
f 19/19/19 18/18/18 17/17/17
f 20/20/20 19/19/19 17/17/17
f 23/23/23 22/22/22 21/21/21
f 24/24/24 23/23/23 21/21/21
f 27/27/27 26/26/26 25/25/25
f 28/28/28 27/27/27 25/25/25
f 31/31/31 30/30/30 29/29/29
f 32/32/32 31/31/31 29/29/29
f 35/35/35 34/34/34 33/33/33
f 36/36/36 35/35/35 33/33/33
f 39/39/39 38/38/38 37/37/37
f 40/40/40 39/39/39 37/37/37
f 43/43/43 42/42/42 41/41/41
f 44/44/44 43/43/43 41/41/41
f 47/47/47 46/46/46 45/45/45
f 48/48/48 47/47/47 45/45/45
f 51/51/51 50/50/50 49/49/49
f 52/52/52 51/51/51 49/49/49
f 55/55/55 54/54/54 53/53/53
f 56/56/56 55/55/55 53/53/53
f 59/59/59 58/58/58 57/57/57
f 60/60/60 59/59/59 57/57/57
f 63/63/63 62/62/62 61/61/61
f 64/64/64 63/63/63 61/61/61
f 67/67/67 66/66/66 65/65/65
f 65/65/65 66/66/66 68/68/68
f 69/69/69 66/66/66 67/67/67
f 68/68/68 66/66/66 70/70/70
f 71/71/71 66/66/66 69/69/69
f 70/70/70 66/66/66 72/72/72
f 73/73/73 66/66/66 71/71/71
f 72/72/72 66/66/66 73/73/73
