g collisionMesh_sideWalls_17
v 21.6062 -31.58764 -108.5918
v 21.03197 -31.58764 -142.1347
v 22.25353 -31.58764 -142.1347
v 22.82775 -31.58764 -108.5918
v 22.82775 -35.66285 -108.5918
v 22.82775 -31.58764 -108.5918
v 22.25353 -31.58764 -142.1347
v 22.25353 -35.66285 -142.1347
v 21.03197 -35.66285 -142.1347
v 21.03197 -31.58764 -142.1347
v 21.6062 -31.58764 -108.5918
v 21.6062 -35.66285 -108.5918
vt 0.375 0.25
vt 0.375 0.5
vt 0.625 0.5
vt 0.625 0.25
vt 0.625 0
vt 0.625 0.25
vt 0.875 0.25
vt 0.875 0
vt 0.125 0
vt 0.125 0.25
vt 0.375 0.25
vt 0.375 0
vn 0 1 0
vn 0 1 0
vn 0 1 0
vn 0 1 0
vn 0.9998535 0 -0.01711665
vn 0.9998535 0 -0.01711665
vn 0.9998535 0 -0.01711665
vn 0.9998535 0 -0.01711665
vn -0.9998535 0 0.01711671
vn -0.9998535 0 0.01711671
vn -0.9998535 0 0.01711671
vn -0.9998535 0 0.01711671
g collisionMesh_sideWalls_17_0
f 3/3/3 2/2/2 1/1/1
f 4/4/4 3/3/3 1/1/1
f 7/7/7 6/6/6 5/5/5
f 8/8/8 7/7/7 5/5/5
f 11/11/11 10/10/10 9/9/9
f 12/12/12 11/11/11 9/9/9
