g collisionMesh_sideWalls_46
v -26.21655 48.27417 100.0852
v -25.90355 48.69161 100.3897
v -26.20378 48.70425 101.123
v -26.64542 48.29224 101.1328
v -25.90355 48.69161 100.3897
v -26.21655 48.27417 100.0852
v -25.17246 48.27095 99.64764
v -25.17266 48.68935 100.0834
v -25.17266 48.68935 100.0834
v -25.17246 48.27095 99.64764
v -24.12478 48.28444 100.0763
v -24.43926 48.6988 100.3835
v -24.43926 48.6988 100.3835
v -24.12478 48.28444 100.0763
v -23.68722 48.30675 101.1202
v -24.13295 48.71442 101.1142
v -24.13295 48.71442 101.1142
v -23.68722 48.30675 101.1202
v -24.1161 48.32481 102.1678
v -24.43318 48.72706 101.8475
v -24.43318 48.72706 101.8475
v -24.1161 48.32481 102.1678
v -25.16018 48.32804 102.6053
v -25.16406 48.72932 102.1538
v -25.16406 48.72932 102.1538
v -25.16018 48.32804 102.6053
v -26.20786 48.31454 102.1766
v -25.89747 48.71987 101.8537
v -25.89747 48.71987 101.8537
v -26.20786 48.31454 102.1766
v -26.64542 48.29224 101.1328
v -26.20378 48.70425 101.123
v -26.12241 43.58803 100.1544
v -25.07833 43.5848 99.71684
v -25.17246 48.27095 99.64764
v -26.21655 48.27417 100.0852
v -25.07833 43.5848 99.71684
v -24.03065 43.59829 100.1455
v -24.12478 48.28444 100.0763
v -25.17246 48.27095 99.64764
v -24.03065 43.59829 100.1455
v -23.59309 43.62061 101.1894
v -23.68722 48.30675 101.1202
v -24.12478 48.28444 100.0763
v -23.59309 43.62061 101.1894
v -24.02196 43.63866 102.2369
v -24.1161 48.32481 102.1678
v -23.68722 48.30675 101.1202
v -24.02196 43.63866 102.2369
v -25.06604 43.6419 102.6745
v -25.16018 48.32804 102.6053
v -24.1161 48.32481 102.1678
v -25.06604 43.6419 102.6745
v -26.11373 43.6284 102.2458
v -26.20786 48.31454 102.1766
v -25.16018 48.32804 102.6053
v -26.11373 43.6284 102.2458
v -26.55129 43.60609 101.202
v -26.64542 48.29224 101.1328
v -26.20786 48.31454 102.1766
v -26.55129 43.60609 101.202
v -26.12241 43.58803 100.1544
v -26.21655 48.27417 100.0852
v -26.64542 48.29224 101.1328
v -25.90355 48.69161 100.3897
v -25.17266 48.68935 100.0834
v -25.16836 48.70934 101.1186
v -26.20378 48.70425 101.123
v -24.43926 48.6988 100.3835
v -25.89747 48.71987 101.8537
v -24.13295 48.71442 101.1142
v -25.16406 48.72932 102.1538
v -24.43318 48.72706 101.8475
vt 0.6249999 0.6545655
vt 0.6203129 0.6884398
vt 0.5984371 0.6884398
vt 0.59375 0.6545655
vt 0.3796871 0.6884398
vt 0.3750001 0.6545655
vt 0.40625 0.6545655
vt 0.401563 0.6884398
vt 0.4109371 0.6884398
vt 0.40625 0.6545655
vt 0.4375 0.6545655
vt 0.432813 0.6884398
vt 0.4421871 0.6884398
vt 0.4375 0.6545655
vt 0.46875 0.6545655
vt 0.464063 0.6884398
vt 0.473437 0.6884398
vt 0.46875 0.6545655
vt 0.5 0.6545658
vt 0.4953132 0.6884398
vt 0.5046871 0.6884398
vt 0.5 0.6545658
vt 0.5312499 0.6545655
vt 0.526563 0.6884398
vt 0.535937 0.6884398
vt 0.5312499 0.6545655
vt 0.5624998 0.6545655
vt 0.5578128 0.6884398
vt 0.5671868 0.6884398
vt 0.5624998 0.6545655
vt 0.59375 0.6545655
vt 0.589063 0.6884398
vt 0.375 0.3125005
vt 0.40625 0.3125005
vt 0.40625 0.6545655
vt 0.3750001 0.6545655
vt 0.40625 0.3125005
vt 0.4375 0.3125005
vt 0.4375 0.6545655
vt 0.40625 0.6545655
vt 0.4375 0.3125005
vt 0.46875 0.3125005
vt 0.46875 0.6545655
vt 0.4375 0.6545655
vt 0.46875 0.3125005
vt 0.5000001 0.3125005
vt 0.5 0.6545658
vt 0.46875 0.6545655
vt 0.5000001 0.3125005
vt 0.53125 0.3125005
vt 0.5312499 0.6545655
vt 0.5 0.6545658
vt 0.53125 0.3125005
vt 0.5625 0.3125005
vt 0.5624998 0.6545655
vt 0.5312499 0.6545655
vt 0.5625 0.3125005
vt 0.59375 0.3125005
vt 0.59375 0.6545655
vt 0.5624998 0.6545655
vt 0.59375 0.3125005
vt 0.6249999 0.3125005
vt 0.6249999 0.6545655
vt 0.59375 0.6545655
vt 0.5773429 0.9192181
vt 0.4999999 0.9512545
vt 0.5 0.8375
vt 0.6093796 0.8418752
vt 0.4226569 0.9192182
vt 0.5773429 0.764531
vt 0.3906201 0.8418752
vt 0.5 0.7324947
vt 0.4226569 0.764531
vn -0.6579133 0.6985423 -0.281405
vn -0.6579133 0.6985422 -0.281405
vn -0.6579133 0.6985423 -0.281405
vn -0.6579133 0.6985423 -0.281405
vn -0.2768301 0.6930386 -0.6656296
vn -0.2768301 0.6930386 -0.6656295
vn -0.27683 0.6930386 -0.6656295
vn -0.2768301 0.6930386 -0.6656296
vn 0.2643485 0.6956975 -0.6679259
vn 0.2643484 0.6956975 -0.6679258
vn 0.2643484 0.6956975 -0.6679258
vn 0.2643484 0.6956975 -0.6679259
vn 0.6486147 0.7049502 -0.2869568
vn 0.6486147 0.7049502 -0.2869568
vn 0.6486147 0.7049502 -0.2869567
vn 0.6486147 0.7049502 -0.2869568
vn 0.6508683 0.7153904 0.25414
vn 0.6508684 0.7153903 0.25414
vn 0.6508684 0.7153903 0.25414
vn 0.6508684 0.7153904 0.25414
vn 0.2697731 0.720894 0.6383842
vn 0.2697731 0.720894 0.6383842
vn 0.2697731 0.720894 0.6383842
vn 0.2697731 0.720894 0.6383842
vn -0.2713953 0.7182323 0.6406925
vn -0.2713953 0.7182323 0.6406925
vn -0.2713953 0.7182323 0.6406925
vn -0.2713953 0.7182323 0.6406925
vn -0.6556779 0.7089771 0.2596882
vn -0.6556779 0.708977 0.2596882
vn -0.6556779 0.7089771 0.2596882
vn -0.6556779 0.7089771 0.2596882
vn -0.3864991 -0.0213773 -0.922042
vn -0.3864991 -0.0213773 -0.922042
vn -0.3864991 -0.02137729 -0.922042
vn -0.3864991 -0.0213773 -0.922042
vn 0.3787628 -0.006054561 -0.925474
vn 0.3787628 -0.006054562 -0.925474
vn 0.3787628 -0.006054562 -0.925474
vn 0.3787628 -0.006054562 -0.925474
vn 0.9220827 0.01281201 -0.3867805
vn 0.9220827 0.01281201 -0.3867806
vn 0.9220827 0.01281201 -0.3867806
vn 0.9220827 0.01281201 -0.3867806
vn 0.9253187 0.02417495 0.378419
vn 0.9253187 0.02417495 0.378419
vn 0.9253187 0.02417495 0.378419
vn 0.9253187 0.02417495 0.378419
vn 0.3864973 0.02137751 0.9220428
vn 0.3864973 0.02137751 0.9220428
vn 0.3864973 0.02137752 0.9220428
vn 0.3864973 0.02137752 0.9220428
vn -0.3787589 0.006056027 0.9254755
vn -0.3787588 0.006056027 0.9254755
vn -0.3787589 0.006056027 0.9254755
vn -0.3787589 0.006056027 0.9254755
vn -0.9220811 -0.01281148 0.3867845
vn -0.9220812 -0.01281148 0.3867845
vn -0.9220811 -0.01281148 0.3867845
vn -0.9220811 -0.01281148 0.3867845
vn -0.9253192 -0.0241738 -0.3784178
vn -0.9253192 -0.0241738 -0.3784178
vn -0.9253192 -0.0241738 -0.3784178
vn -0.9253192 -0.0241738 -0.3784178
vn -0.004991278 0.9998017 -0.01928147
vn -0.004989376 0.9998017 -0.01927953
vn -0.004989641 0.9998017 -0.01927903
vn -0.004989745 0.9998017 -0.01927884
vn -0.004987965 0.9998017 -0.01927943
vn -0.004988138 0.9998018 -0.01927654
vn -0.004990012 0.9998017 -0.01927888
vn -0.004989432 0.9998017 -0.01927888
vn -0.004991184 0.9998017 -0.01927868
g collisionMesh_sideWalls_46_0
f 3/3/3 2/2/2 1/1/1
f 4/4/4 3/3/3 1/1/1
f 7/7/7 6/6/6 5/5/5
f 8/8/8 7/7/7 5/5/5
f 11/11/11 10/10/10 9/9/9
f 12/12/12 11/11/11 9/9/9
f 15/15/15 14/14/14 13/13/13
f 16/16/16 15/15/15 13/13/13
f 19/19/19 18/18/18 17/17/17
f 20/20/20 19/19/19 17/17/17
f 23/23/23 22/22/22 21/21/21
f 24/24/24 23/23/23 21/21/21
f 27/27/27 26/26/26 25/25/25
f 28/28/28 27/27/27 25/25/25
f 31/31/31 30/30/30 29/29/29
f 32/32/32 31/31/31 29/29/29
f 35/35/35 34/34/34 33/33/33
f 36/36/36 35/35/35 33/33/33
f 39/39/39 38/38/38 37/37/37
f 40/40/40 39/39/39 37/37/37
f 43/43/43 42/42/42 41/41/41
f 44/44/44 43/43/43 41/41/41
f 47/47/47 46/46/46 45/45/45
f 48/48/48 47/47/47 45/45/45
f 51/51/51 50/50/50 49/49/49
f 52/52/52 51/51/51 49/49/49
f 55/55/55 54/54/54 53/53/53
f 56/56/56 55/55/55 53/53/53
f 59/59/59 58/58/58 57/57/57
f 60/60/60 59/59/59 57/57/57
f 63/63/63 62/62/62 61/61/61
f 64/64/64 63/63/63 61/61/61
f 67/67/67 66/66/66 65/65/65
f 67/67/67 65/65/65 68/68/68
f 67/67/67 69/69/69 66/66/66
f 67/67/67 68/68/68 70/70/70
f 67/67/67 71/71/71 69/69/69
f 67/67/67 70/70/70 72/72/72
f 67/67/67 73/73/73 71/71/71
f 67/67/67 72/72/72 73/73/73
