g collisionMesh_sideWalls_44
v -8.419821 51.91014 128.2844
v -8.102998 52.32086 128.5939
v -8.399445 52.3232 129.3289
v -8.843296 51.91348 129.3343
v -8.102998 52.32086 128.5939
v -8.419821 51.91014 128.2844
v -7.377991 51.90836 127.8414
v -7.373688 52.31962 128.2839
v -7.373688 52.31962 128.2839
v -7.377991 51.90836 127.8414
v -6.328102 51.90919 128.2649
v -6.638737 52.3202 128.5803
v -6.638737 52.3202 128.5803
v -6.328102 51.90919 128.2649
v -5.885163 51.91214 129.3067
v -6.32866 52.32227 129.3096
v -6.32866 52.32227 129.3096
v -5.885163 51.91214 129.3067
v -6.308636 51.91548 130.3566
v -6.62511 52.3246 130.0446
v -6.62511 52.3246 130.0446
v -6.308636 51.91548 130.3566
v -7.350461 51.91726 130.7995
v -7.354416 52.32584 130.3547
v -7.354416 52.32584 130.3547
v -7.350461 51.91726 130.7995
v -8.400353 51.91643 130.3761
v -8.089371 52.32526 130.0582
v -8.089371 52.32526 130.0582
v -8.400353 51.91643 130.3761
v -8.843296 51.91348 129.3343
v -8.399445 52.3232 129.3289
v -8.351172 47.22305 128.2769
v -7.309342 47.22127 127.834
v -7.377991 51.90836 127.8414
v -8.419821 51.91014 128.2844
v -7.309342 47.22127 127.834
v -6.259454 47.2221 128.2575
v -6.328102 51.90919 128.2649
v -7.377991 51.90836 127.8414
v -6.259454 47.2221 128.2575
v -5.816515 47.22505 129.2993
v -5.885163 51.91214 129.3067
v -6.328102 51.90919 128.2649
v -5.816515 47.22505 129.2993
v -6.239988 47.22839 130.3492
v -6.308636 51.91548 130.3566
v -5.885163 51.91214 129.3067
v -6.239988 47.22839 130.3492
v -7.281813 47.23016 130.7921
v -7.350461 51.91726 130.7995
v -6.308636 51.91548 130.3566
v -7.281813 47.23016 130.7921
v -8.331706 47.22934 130.3687
v -8.400353 51.91643 130.3761
v -7.350461 51.91726 130.7995
v -8.331706 47.22934 130.3687
v -8.774649 47.22639 129.3268
v -8.843296 51.91348 129.3343
v -8.400353 51.91643 130.3761
v -8.774649 47.22639 129.3268
v -8.351172 47.22305 128.2769
v -8.419821 51.91014 128.2844
v -8.843296 51.91348 129.3343
v -8.102998 52.32086 128.5939
v -7.373688 52.31962 128.2839
v -7.364052 52.32273 129.3193
v -8.399445 52.3232 129.3289
v -6.638737 52.3202 128.5803
v -8.089371 52.32526 130.0582
v -6.32866 52.32227 129.3096
v -7.354416 52.32584 130.3547
v -6.62511 52.3246 130.0446
vt 0.6249999 0.6545655
vt 0.6203129 0.6884398
vt 0.5984371 0.6884398
vt 0.59375 0.6545655
vt 0.3796871 0.6884398
vt 0.3750001 0.6545655
vt 0.40625 0.6545655
vt 0.401563 0.6884398
vt 0.4109371 0.6884398
vt 0.40625 0.6545655
vt 0.4375 0.6545655
vt 0.432813 0.6884398
vt 0.4421871 0.6884398
vt 0.4375 0.6545655
vt 0.46875 0.6545655
vt 0.464063 0.6884398
vt 0.473437 0.6884398
vt 0.46875 0.6545655
vt 0.5 0.6545658
vt 0.4953132 0.6884398
vt 0.5046871 0.6884398
vt 0.5 0.6545658
vt 0.5312499 0.6545655
vt 0.526563 0.6884398
vt 0.535937 0.6884398
vt 0.5312499 0.6545655
vt 0.5624998 0.6545655
vt 0.5578128 0.6884398
vt 0.5671868 0.6884398
vt 0.5624998 0.6545655
vt 0.59375 0.6545655
vt 0.589063 0.6884398
vt 0.375 0.3125005
vt 0.40625 0.3125005
vt 0.40625 0.6545655
vt 0.3750001 0.6545655
vt 0.40625 0.3125005
vt 0.4375 0.3125005
vt 0.4375 0.6545655
vt 0.40625 0.6545655
vt 0.4375 0.3125005
vt 0.46875 0.3125005
vt 0.46875 0.6545655
vt 0.4375 0.6545655
vt 0.46875 0.3125005
vt 0.5000001 0.3125005
vt 0.5 0.6545658
vt 0.46875 0.6545655
vt 0.5000001 0.3125005
vt 0.53125 0.3125005
vt 0.5312499 0.6545655
vt 0.5 0.6545658
vt 0.53125 0.3125005
vt 0.5625 0.3125005
vt 0.5624998 0.6545655
vt 0.5312499 0.6545655
vt 0.5625 0.3125005
vt 0.59375 0.3125005
vt 0.59375 0.6545655
vt 0.5624998 0.6545655
vt 0.59375 0.3125005
vt 0.6249999 0.3125005
vt 0.6249999 0.6545655
vt 0.59375 0.6545655
vt 0.5773429 0.9192181
vt 0.4999999 0.9512545
vt 0.5 0.8375
vt 0.6093796 0.8418752
vt 0.4226569 0.9192182
vt 0.5773429 0.764531
vt 0.3906201 0.8418752
vt 0.5 0.7324947
vt 0.4226569 0.764531
vn -0.6554644 0.7065909 -0.2666381
vn -0.6554644 0.7065909 -0.2666381
vn -0.6554644 0.7065909 -0.2666381
vn -0.6554644 0.7065908 -0.2666381
vn -0.2763673 0.7052647 -0.6528573
vn -0.2763674 0.7052647 -0.6528574
vn -0.2763673 0.7052647 -0.6528574
vn -0.2763673 0.7052647 -0.6528573
vn 0.2648048 0.7050223 -0.657892
vn 0.2648048 0.7050224 -0.657892
vn 0.2648048 0.7050223 -0.657892
vn 0.2648048 0.7050223 -0.657892
vn 0.651033 0.7059956 -0.2787945
vn 0.651033 0.7059956 -0.2787945
vn 0.6510329 0.7059956 -0.2787944
vn 0.6510329 0.7059956 -0.2787945
vn 0.6560776 0.7076158 0.2623779
vn 0.6560777 0.7076157 0.2623779
vn 0.6560777 0.7076157 0.2623779
vn 0.6560777 0.7076157 0.2623778
vn 0.2769704 0.7089293 0.6486191
vn 0.2769704 0.7089293 0.6486191
vn 0.2769704 0.7089293 0.6486191
vn 0.2769704 0.7089294 0.648619
vn -0.26421 0.7091808 0.653648
vn -0.26421 0.7091808 0.6536479
vn -0.26421 0.7091809 0.6536479
vn -0.2642101 0.7091808 0.6536479
vn -0.6504414 0.7082104 0.2745249
vn -0.6504414 0.7082104 0.2745249
vn -0.6504414 0.7082104 0.2745249
vn -0.6504414 0.7082104 0.2745248
vn -0.3912662 -0.004273381 -0.9202676
vn -0.3912662 -0.004273382 -0.9202677
vn -0.3912662 -0.004273381 -0.9202676
vn -0.3912662 -0.004273382 -0.9202677
vn 0.3740519 0.006946025 -0.9273817
vn 0.3740519 0.006946025 -0.9273817
vn 0.3740519 0.006946025 -0.9273817
vn 0.3740519 0.006946025 -0.9273817
vn 0.9201741 0.01409596 -0.3912555
vn 0.9201742 0.01409596 -0.3912554
vn 0.9201741 0.01409596 -0.3912555
vn 0.9201742 0.01409596 -0.3912555
vn 0.9273399 0.01298965 0.3739946
vn 0.9273399 0.01298965 0.3739946
vn 0.9273399 0.01298965 0.3739946
vn 0.9273399 0.01298965 0.3739946
vn 0.3912472 0.00427414 0.9202756
vn 0.3912472 0.00427414 0.9202756
vn 0.3912471 0.00427414 0.9202756
vn 0.3912472 0.00427414 0.9202756
vn -0.3740428 -0.00694587 0.9273854
vn -0.3740428 -0.006945871 0.9273854
vn -0.3740428 -0.006945871 0.9273854
vn -0.3740428 -0.006945871 0.9273855
vn -0.9201745 -0.0140964 0.3912545
vn -0.9201745 -0.0140964 0.3912545
vn -0.9201745 -0.0140964 0.3912545
vn -0.9201745 -0.0140964 0.3912545
vn -0.9273361 -0.01298975 -0.3740042
vn -0.9273361 -0.01298975 -0.3740042
vn -0.9273361 -0.01298975 -0.3740042
vn -0.9273361 -0.01298975 -0.3740042
vn 0.0004255158 0.9999955 -0.003007112
vn 0.0004254931 0.9999955 -0.003000938
vn 0.0004251045 0.9999954 -0.00300964
vn 0.0004246693 0.9999955 -0.003009107
vn 0.0004246242 0.9999955 -0.003005065
vn 0.0004236492 0.9999954 -0.003011128
vn 0.0004247019 0.9999954 -0.003011171
vn 0.0004255539 0.9999954 -0.003017345
vn 0.000426629 0.9999954 -0.003015257
g collisionMesh_sideWalls_44_0
f 3/3/3 2/2/2 1/1/1
f 4/4/4 3/3/3 1/1/1
f 7/7/7 6/6/6 5/5/5
f 8/8/8 7/7/7 5/5/5
f 11/11/11 10/10/10 9/9/9
f 12/12/12 11/11/11 9/9/9
f 15/15/15 14/14/14 13/13/13
f 16/16/16 15/15/15 13/13/13
f 19/19/19 18/18/18 17/17/17
f 20/20/20 19/19/19 17/17/17
f 23/23/23 22/22/22 21/21/21
f 24/24/24 23/23/23 21/21/21
f 27/27/27 26/26/26 25/25/25
f 28/28/28 27/27/27 25/25/25
f 31/31/31 30/30/30 29/29/29
f 32/32/32 31/31/31 29/29/29
f 35/35/35 34/34/34 33/33/33
f 36/36/36 35/35/35 33/33/33
f 39/39/39 38/38/38 37/37/37
f 40/40/40 39/39/39 37/37/37
f 43/43/43 42/42/42 41/41/41
f 44/44/44 43/43/43 41/41/41
f 47/47/47 46/46/46 45/45/45
f 48/48/48 47/47/47 45/45/45
f 51/51/51 50/50/50 49/49/49
f 52/52/52 51/51/51 49/49/49
f 55/55/55 54/54/54 53/53/53
f 56/56/56 55/55/55 53/53/53
f 59/59/59 58/58/58 57/57/57
f 60/60/60 59/59/59 57/57/57
f 63/63/63 62/62/62 61/61/61
f 64/64/64 63/63/63 61/61/61
f 67/67/67 66/66/66 65/65/65
f 67/67/67 65/65/65 68/68/68
f 67/67/67 69/69/69 66/66/66
f 67/67/67 68/68/68 70/70/70
f 67/67/67 71/71/71 69/69/69
f 67/67/67 70/70/70 72/72/72
f 67/67/67 73/73/73 71/71/71
f 67/67/67 72/72/72 73/73/73
