g collisionMesh_sideWalls_28
v 22.9662 -16.38531 -73.57533
v 23.39943 -15.97332 -72.61399
v 22.95573 -15.59654 -72.77546
v 22.65246 -15.88494 -73.44842
v 22.65246 -15.88494 -73.44842
v 21.92029 -16.00441 -73.72717
v 21.92029 -16.55597 -73.97353
v 22.9662 -16.38531 -73.57533
v 21.92029 -16.00441 -73.72717
v 21.18814 -15.88494 -73.44842
v 20.87439 -16.38531 -73.57533
v 21.92029 -16.55597 -73.97353
v 21.18814 -15.88494 -73.44842
v 20.88486 -15.59654 -72.77546
v 20.44117 -15.97332 -72.61399
v 20.87439 -16.38531 -73.57533
v 20.88486 -15.59654 -72.77546
v 21.18814 -15.30813 -72.10247
v 20.87439 -15.56133 -71.65263
v 20.44117 -15.97332 -72.61399
v 21.18814 -15.30813 -72.10247
v 21.92029 -15.18867 -71.82373
v 21.92029 -15.39068 -71.25444
v 20.87439 -15.56133 -71.65263
v 21.92029 -15.18867 -71.82373
v 22.65246 -15.30813 -72.10247
v 22.9662 -15.56133 -71.65263
v 21.92029 -15.39068 -71.25444
v 22.65246 -15.30813 -72.10247
v 22.95573 -15.59654 -72.77546
v 23.39943 -15.97332 -72.61399
v 22.9662 -15.56133 -71.65263
v 22.9662 -20.35185 -71.87543
v 22.9662 -16.38531 -73.57533
v 21.92029 -16.55597 -73.97353
v 21.92029 -20.5225 -72.27364
v 21.92029 -20.5225 -72.27364
v 21.92029 -16.55597 -73.97353
v 20.87439 -16.38531 -73.57533
v 20.87439 -20.35185 -71.87543
v 20.87439 -20.35185 -71.87543
v 20.87439 -16.38531 -73.57533
v 20.44117 -15.97332 -72.61399
v 20.44117 -19.93986 -70.91409
v 20.44117 -19.93986 -70.91409
v 20.44117 -15.97332 -72.61399
v 20.87439 -15.56133 -71.65263
v 20.87439 -19.52786 -69.95274
v 20.87439 -19.52786 -69.95274
v 20.87439 -15.56133 -71.65263
v 21.92029 -15.39068 -71.25444
v 21.92029 -19.35721 -69.55455
v 21.92029 -19.35721 -69.55455
v 21.92029 -15.39068 -71.25444
v 22.9662 -15.56133 -71.65263
v 22.9662 -19.52786 -69.95274
v 22.9662 -19.52786 -69.95274
v 22.9662 -15.56133 -71.65263
v 23.39943 -15.97332 -72.61399
v 23.39943 -19.93986 -70.91409
v 23.39943 -19.93986 -70.91409
v 23.39943 -15.97332 -72.61399
v 22.9662 -16.38531 -73.57533
v 22.9662 -20.35185 -71.87543
v 22.65246 -15.88494 -73.44842
v 21.92029 -15.59654 -72.77546
v 21.92029 -16.00441 -73.72717
v 22.95573 -15.59654 -72.77546
v 21.18814 -15.88494 -73.44842
v 22.65246 -15.30813 -72.10247
v 20.88486 -15.59654 -72.77546
v 21.92029 -15.18867 -71.82373
v 21.18814 -15.30813 -72.10247
vt 0.6249999 0.6545655
vt 0.59375 0.6545655
vt 0.5984371 0.6884398
vt 0.6203129 0.6884398
vt 0.3796871 0.6884398
vt 0.401563 0.6884398
vt 0.40625 0.6545655
vt 0.3750001 0.6545655
vt 0.4109371 0.6884398
vt 0.432813 0.6884398
vt 0.4375 0.6545655
vt 0.40625 0.6545655
vt 0.4421871 0.6884398
vt 0.464063 0.6884398
vt 0.46875 0.6545655
vt 0.4375 0.6545655
vt 0.473437 0.6884398
vt 0.4953132 0.6884398
vt 0.5 0.6545658
vt 0.46875 0.6545655
vt 0.5046871 0.6884398
vt 0.526563 0.6884398
vt 0.5312499 0.6545655
vt 0.5 0.6545658
vt 0.535937 0.6884398
vt 0.5578128 0.6884398
vt 0.5624998 0.6545655
vt 0.5312499 0.6545655
vt 0.5671868 0.6884398
vt 0.589063 0.6884398
vt 0.59375 0.6545655
vt 0.5624998 0.6545655
vt 0.375 0.3125005
vt 0.3750001 0.6545655
vt 0.40625 0.6545655
vt 0.40625 0.3125005
vt 0.40625 0.3125005
vt 0.40625 0.6545655
vt 0.4375 0.6545655
vt 0.4375 0.3125005
vt 0.4375 0.3125005
vt 0.4375 0.6545655
vt 0.46875 0.6545655
vt 0.46875 0.3125005
vt 0.46875 0.3125005
vt 0.46875 0.6545655
vt 0.5 0.6545658
vt 0.5000001 0.3125005
vt 0.5000001 0.3125005
vt 0.5 0.6545658
vt 0.5312499 0.6545655
vt 0.53125 0.3125005
vt 0.53125 0.3125005
vt 0.5312499 0.6545655
vt 0.5624998 0.6545655
vt 0.5625 0.3125005
vt 0.5625 0.3125005
vt 0.5624998 0.6545655
vt 0.59375 0.6545655
vt 0.59375 0.3125005
vt 0.59375 0.3125005
vt 0.59375 0.6545655
vt 0.6249999 0.6545655
vt 0.6249999 0.3125005
vt 0.5773429 0.9192181
vt 0.5 0.8375
vt 0.4999999 0.9512545
vt 0.6093796 0.8418752
vt 0.4226569 0.9192182
vt 0.5773429 0.764531
vt 0.3906201 0.8418752
vt 0.5 0.7324947
vt 0.4226569 0.764531
vn 0.6532781 0.5433471 -0.5272586
vn 0.6532781 0.5433471 -0.5272585
vn 0.6532781 0.5433472 -0.5272586
vn 0.6532781 0.5433472 -0.5272585
vn 0.2705895 0.3926151 -0.8789964
vn 0.2705895 0.3926151 -0.8789964
vn 0.2705894 0.3926151 -0.8789964
vn 0.2705895 0.3926151 -0.8789964
vn -0.2705915 0.3926152 -0.8789957
vn -0.2705915 0.3926152 -0.8789957
vn -0.2705915 0.3926151 -0.8789957
vn -0.2705915 0.3926151 -0.8789957
vn -0.6532815 0.5433453 -0.5272562
vn -0.6532815 0.5433453 -0.5272562
vn -0.6532815 0.5433453 -0.5272562
vn -0.6532816 0.5433453 -0.5272563
vn -0.6532875 0.7565226 -0.02981616
vn -0.6532874 0.7565226 -0.02981615
vn -0.6532874 0.7565226 -0.02981615
vn -0.6532874 0.7565226 -0.02981615
vn -0.2705962 0.9072655 0.3219424
vn -0.2705961 0.9072655 0.3219424
vn -0.2705961 0.9072655 0.3219424
vn -0.2705961 0.9072657 0.3219424
vn 0.2705958 0.9072655 0.3219428
vn 0.2705958 0.9072655 0.3219428
vn 0.2705958 0.9072655 0.3219428
vn 0.2705958 0.9072655 0.3219428
vn 0.6532877 0.7565224 -0.02981883
vn 0.6532877 0.7565224 -0.02981883
vn 0.6532876 0.7565224 -0.02981883
vn 0.6532877 0.7565224 -0.02981883
vn 0.3826831 -0.3639252 -0.8491832
vn 0.3826832 -0.3639252 -0.8491832
vn 0.3826831 -0.3639252 -0.8491832
vn 0.3826831 -0.3639252 -0.8491832
vn -0.3826854 -0.3639249 -0.8491822
vn -0.3826854 -0.3639249 -0.8491822
vn -0.3826855 -0.3639249 -0.8491822
vn -0.3826854 -0.3639248 -0.8491822
vn -0.9238806 -0.1507417 -0.3517407
vn -0.9238806 -0.1507417 -0.3517407
vn -0.9238806 -0.1507417 -0.3517407
vn -0.9238806 -0.1507417 -0.3517407
vn -0.9238822 0.1507403 0.3517373
vn -0.9238822 0.1507403 0.3517373
vn -0.9238822 0.1507403 0.3517373
vn -0.9238822 0.1507403 0.3517373
vn -0.3826812 0.3639263 0.8491836
vn -0.3826812 0.3639263 0.8491836
vn -0.3826812 0.3639263 0.8491836
vn -0.3826812 0.3639263 0.8491836
vn 0.382679 0.3639268 0.8491844
vn 0.382679 0.3639268 0.8491844
vn 0.382679 0.3639267 0.8491844
vn 0.3826789 0.3639267 0.8491844
vn 0.9238805 0.1507422 0.3517406
vn 0.9238806 0.1507422 0.3517407
vn 0.9238805 0.1507422 0.3517407
vn 0.9238805 0.1507422 0.3517406
vn 0.9238799 -0.1507423 -0.3517424
vn 0.9238799 -0.1507423 -0.3517424
vn 0.9238799 -0.1507423 -0.3517424
vn 0.9238799 -0.1507423 -0.3517424
vn 2.061042E-06 0.9191501 -0.3939075
vn 5.152658E-07 0.9191492 -0.3939095
vn 2.061079E-06 0.9191491 -0.3939098
vn 0 0.9191493 -0.3939094
vn 0 0.9191488 -0.3939103
vn 0 0.919149 -0.39391
vn 0 0.919149 -0.3939101
vn 0 0.9191494 -0.3939091
vn 0 0.9191488 -0.3939105
g collisionMesh_sideWalls_28_0
f 3/3/3 2/2/2 1/1/1
f 4/4/4 3/3/3 1/1/1
f 7/7/7 6/6/6 5/5/5
f 8/8/8 7/7/7 5/5/5
f 11/11/11 10/10/10 9/9/9
f 12/12/12 11/11/11 9/9/9
f 15/15/15 14/14/14 13/13/13
f 16/16/16 15/15/15 13/13/13
f 19/19/19 18/18/18 17/17/17
f 20/20/20 19/19/19 17/17/17
f 23/23/23 22/22/22 21/21/21
f 24/24/24 23/23/23 21/21/21
f 27/27/27 26/26/26 25/25/25
f 28/28/28 27/27/27 25/25/25
f 31/31/31 30/30/30 29/29/29
f 32/32/32 31/31/31 29/29/29
f 35/35/35 34/34/34 33/33/33
f 36/36/36 35/35/35 33/33/33
f 39/39/39 38/38/38 37/37/37
f 40/40/40 39/39/39 37/37/37
f 43/43/43 42/42/42 41/41/41
f 44/44/44 43/43/43 41/41/41
f 47/47/47 46/46/46 45/45/45
f 48/48/48 47/47/47 45/45/45
f 51/51/51 50/50/50 49/49/49
f 52/52/52 51/51/51 49/49/49
f 55/55/55 54/54/54 53/53/53
f 56/56/56 55/55/55 53/53/53
f 59/59/59 58/58/58 57/57/57
f 60/60/60 59/59/59 57/57/57
f 63/63/63 62/62/62 61/61/61
f 64/64/64 63/63/63 61/61/61
f 67/67/67 66/66/66 65/65/65
f 65/65/65 66/66/66 68/68/68
f 69/69/69 66/66/66 67/67/67
f 68/68/68 66/66/66 70/70/70
f 71/71/71 66/66/66 69/69/69
f 70/70/70 66/66/66 72/72/72
f 73/73/73 66/66/66 71/71/71
f 72/72/72 66/66/66 73/73/73
