g collisionMesh_sideWalls_31
v -6.376713 51.62194 137.9066
v -7.597555 51.62194 137.9483
v -7.726442 51.62194 130.4189
v -6.5056 51.62194 130.3772
v -7.597555 47.54672 137.9483
v -7.726442 47.54672 130.4189
v -7.726442 51.62194 130.4189
v -7.597555 51.62194 137.9483
v -6.5056 47.54672 130.3772
v -6.376713 47.54672 137.9066
v -6.376713 51.62194 137.9066
v -6.5056 51.62194 130.3772
vt 0.375 0.25
vt 0.625 0.25
vt 0.625 0.5
vt 0.375 0.5
vt 0.625 0
vt 0.875 0
vt 0.875 0.25
vt 0.625 0.25
vt 0.125 0
vt 0.375 0
vt 0.375 0.25
vt 0.125 0.25
vn 0 1 0
vn 0 1 0
vn 0 1 0
vn 0 1 0
vn -0.9998535 0 0.01711535
vn -0.9998535 0 0.01711535
vn -0.9998535 0 0.01711535
vn -0.9998535 0 0.01711535
vn 0.9998535 0 -0.0171153
vn 0.9998535 0 -0.0171153
vn 0.9998535 0 -0.0171153
vn 0.9998535 0 -0.0171153
g collisionMesh_sideWalls_31_0
f 3/3/3 2/2/2 1/1/1
f 4/4/4 3/3/3 1/1/1
f 7/7/7 6/6/6 5/5/5
f 8/8/8 7/7/7 5/5/5
f 11/11/11 10/10/10 9/9/9
f 12/12/12 11/11/11 9/9/9
