g collisionMesh_wall04
v -0.5516681 -0.8967654 4.572614
v -1.058663 -0.897659 4.530124
v -0.1105328 -0.137659 6.41173
v 0.1718036 4.193805 4.934514
v -0.7455597 3.688375 3.050217
v -0.2385638 3.689268 3.092702
v 0.1172577 -0.1524698 6.411838
v 0.9262921 -1.029215 4.523761
v 0.4266034 -0.960375 4.573073
v 0.7397088 3.625659 3.093171
v 1.239396 3.55682 3.043854
v 0.3995953 4.178993 4.934621
v -0.2385638 3.689268 3.092702
v -0.4637359 0.3833982 -5.3916
v 0.5145355 0.3197873 -5.391146
v 0.7397088 3.625659 3.093171
v 0.1718036 4.193805 4.934514
v 0.3995953 4.178993 4.934621
v -0.4637359 0.3833982 -5.3916
v -0.8286359 -3.964155 -3.921814
v 0.1496356 -4.027765 -3.92136
v 0.5145355 0.3197873 -5.391146
v 0.7397088 3.625659 3.093171
v 0.5145355 0.3197873 -5.391146
v 0.1496356 -4.027765 -3.92136
v 0.4266034 -0.960375 4.573073
v -0.8286359 -3.964155 -3.921814
v -0.4637359 0.3833982 -5.3916
v -0.2385638 3.689268 3.092702
v -0.5516681 -0.8967654 4.572614
v 0.1718036 4.193805 4.934514
v -1.058663 -0.897659 4.530124
v -0.7455597 3.688375 3.050217
v -0.1105328 -0.137659 6.41173
v 0.3995953 4.178993 4.934621
v 0.1172577 -0.1524698 6.411838
v 0.9262921 -1.029215 4.523761
v 1.239396 3.55682 3.043854
v -0.2385638 3.689268 3.092702
v -0.7455597 3.688375 3.050217
v -1.058663 -0.897659 4.530124
v -0.5516681 -0.8967654 4.572614
v 0.4266034 -0.960375 4.573073
v 0.9262921 -1.029215 4.523761
v 1.239396 3.55682 3.043854
v 0.7397088 3.625659 3.093171
vt 0.352673 0
vt 0.352673 0
vt 0.375 0
vt 0.375 0.25
vt 0.352673 0.25
vt 0.352673 0.25
vt 0.625 0
vt 0.6473271 0
vt 0.6473271 0
vt 0.647327 0.25
vt 0.647327 0.25
vt 0.625 0.25
vt 0.375 0.272327
vt 0.375 0.5
vt 0.625 0.5
vt 0.625 0.272327
vt 0.375 0.25
vt 0.625 0.25
vt 0.375 0.5
vt 0.375 0.75
vt 0.625 0.75
vt 0.625 0.5
vt 0.647327 0.25
vt 0.875 0.25
vt 0.875 0
vt 0.6473271 0
vt 0.125 0
vt 0.125 0.25
vt 0.352673 0.25
vt 0.352673 0
vt 0.375 0.25
vt 0.352673 0
vt 0.352673 0.25
vt 0.375 0
vt 0.625 0.25
vt 0.625 0
vt 0.6473271 0
vt 0.647327 0.25
vt 0.352673 0.25
vt 0.352673 0.25
vt 0.352673 0
vt 0.352673 0
vt 0.6473271 0
vt 0.6473271 0
vt 0.647327 0.25
vt 0.647327 0.25
vn -0.03086535 -0.9212822 0.3876681
vn -0.03086535 -0.9212822 0.3876681
vn -0.03086535 -0.9212822 0.3876681
vn 0.06093746 0.9591327 -0.2763172
vn 0.02080026 0.9630683 -0.2684527
vn 0.05752826 0.9336977 -0.3534108
vn -0.08806408 -0.917341 0.3882399
vn -0.08806407 -0.917341 0.3882399
vn -0.08806408 -0.917341 0.3882399
vn 0.06432088 0.9333137 -0.3532537
vn 0.1054446 0.9575588 -0.268259
vn 0.06407855 0.9589296 -0.2763112
vn 0.05752826 0.9336977 -0.3534108
vn 0.06060972 0.9295081 -0.3637872
vn 0.06060972 0.9295081 -0.3637872
vn 0.06432088 0.9333137 -0.3532537
vn 0.06093746 0.9591327 -0.2763172
vn 0.06407855 0.9589296 -0.2763112
vn -0.02027946 -0.3186709 -0.9476485
vn -0.02027946 -0.3186709 -0.9476485
vn -0.02027946 -0.3186709 -0.9476485
vn -0.02027946 -0.3186709 -0.9476485
vn 0.9971079 -0.07599258 -0.000963987
vn 0.9971079 -0.07599258 -0.0009639873
vn 0.9971079 -0.07599258 -0.0009639873
vn 0.9971079 -0.07599258 -0.0009639871
vn -0.9971079 0.07599255 0.0009638947
vn -0.9971079 0.07599255 0.000963894
vn -0.9971079 0.07599255 0.000963894
vn -0.9971079 0.07599255 0.0009638943
vn -0.8633279 0.2105808 0.4586073
vn -0.9037756 0.1878735 0.3845687
vn -0.9037756 0.1878735 0.3845687
vn -0.8635695 0.2104597 0.4582078
vn 0.887023 0.09169135 0.4525295
vn 0.8872703 0.09152015 0.452079
vn 0.9236958 0.06360772 0.3778096
vn 0.9236958 0.06360771 0.3778096
vn 0.07990769 -0.3110597 -0.9470252
vn 0.07990768 -0.3110597 -0.9470252
vn 0.07990768 -0.3110597 -0.9470252
vn 0.07990769 -0.3110597 -0.9470252
vn -0.1341107 -0.2960257 -0.9457183
vn -0.1341107 -0.2960257 -0.9457183
vn -0.1341107 -0.2960257 -0.9457183
vn -0.1341107 -0.2960257 -0.9457183
g collisionMesh_wall04_0
f 3/3/3 2/2/2 1/1/1
f 6/6/6 5/5/5 4/4/4
f 9/9/9 8/8/8 7/7/7
f 12/12/12 11/11/11 10/10/10
f 15/15/15 14/14/14 13/13/13
f 16/16/16 15/15/15 13/13/13
f 16/16/16 13/13/13 17/17/17
f 18/18/18 16/16/16 17/17/17
f 21/21/21 20/20/20 19/19/19
f 22/22/22 21/21/21 19/19/19
f 25/25/25 24/24/24 23/23/23
f 26/26/26 25/25/25 23/23/23
f 29/29/29 28/28/28 27/27/27
f 30/30/30 29/29/29 27/27/27
f 33/33/33 32/32/32 31/31/31
f 32/32/32 34/34/34 31/31/31
f 35/35/35 31/31/31 34/34/34
f 36/36/36 35/35/35 34/34/34
f 36/36/36 37/37/37 35/35/35
f 37/37/37 38/38/38 35/35/35
f 41/41/41 40/40/40 39/39/39
f 42/42/42 41/41/41 39/39/39
f 45/45/45 44/44/44 43/43/43
f 46/46/46 45/45/45 43/43/43
