g collisionMesh_sideWalls_43
v -7.878316 51.91287 137.7681
v -7.561494 52.32359 138.0777
v -7.857942 52.32593 138.8126
v -8.301793 51.91621 138.818
v -7.561494 52.32359 138.0777
v -7.878316 51.91287 137.7681
v -6.836487 51.91109 137.3252
v -6.832184 52.32235 137.7676
v -6.832184 52.32235 137.7676
v -6.836487 51.91109 137.3252
v -5.786599 51.91192 137.7486
v -6.097234 52.32293 138.0641
v -6.097234 52.32293 138.0641
v -5.786599 51.91192 137.7486
v -5.343659 51.91487 138.7905
v -5.787156 52.32499 138.7934
v -5.787156 52.32499 138.7934
v -5.343659 51.91487 138.7905
v -5.767132 51.91821 139.8404
v -6.083606 52.32733 139.5283
v -6.083606 52.32733 139.5283
v -5.767132 51.91821 139.8404
v -6.808958 51.91998 140.2833
v -6.812912 52.32857 139.8384
v -6.812912 52.32857 139.8384
v -6.808958 51.91998 140.2833
v -7.85885 51.91916 139.8598
v -7.547867 52.32799 139.5419
v -7.547867 52.32799 139.5419
v -7.85885 51.91916 139.8598
v -8.301793 51.91621 138.818
v -7.857942 52.32593 138.8126
v -7.809669 47.22578 137.7607
v -6.767839 47.224 137.3177
v -6.836487 51.91109 137.3252
v -7.878316 51.91287 137.7681
v -6.767839 47.224 137.3177
v -5.717951 47.22483 137.7412
v -5.786599 51.91192 137.7486
v -6.836487 51.91109 137.3252
v -5.717951 47.22483 137.7412
v -5.275012 47.22778 138.783
v -5.343659 51.91487 138.7905
v -5.786599 51.91192 137.7486
v -5.275012 47.22778 138.783
v -5.698484 47.23112 139.8329
v -5.767132 51.91821 139.8404
v -5.343659 51.91487 138.7905
v -5.698484 47.23112 139.8329
v -6.74031 47.23289 140.2759
v -6.808958 51.91998 140.2833
v -5.767132 51.91821 139.8404
v -6.74031 47.23289 140.2759
v -7.790203 47.23206 139.8524
v -7.85885 51.91916 139.8598
v -6.808958 51.91998 140.2833
v -7.790203 47.23206 139.8524
v -8.233145 47.22911 138.8106
v -8.301793 51.91621 138.818
v -7.85885 51.91916 139.8598
v -8.233145 47.22911 138.8106
v -7.809669 47.22578 137.7607
v -7.878316 51.91287 137.7681
v -8.301793 51.91621 138.818
v -7.561494 52.32359 138.0777
v -6.832184 52.32235 137.7676
v -6.822549 52.32546 138.803
v -7.857942 52.32593 138.8126
v -6.097234 52.32293 138.0641
v -7.547867 52.32799 139.5419
v -5.787156 52.32499 138.7934
v -6.812912 52.32857 139.8384
v -6.083606 52.32733 139.5283
vt 0.6249999 0.6545655
vt 0.6203129 0.6884398
vt 0.5984371 0.6884398
vt 0.59375 0.6545655
vt 0.3796871 0.6884398
vt 0.3750001 0.6545655
vt 0.40625 0.6545655
vt 0.401563 0.6884398
vt 0.4109371 0.6884398
vt 0.40625 0.6545655
vt 0.4375 0.6545655
vt 0.432813 0.6884398
vt 0.4421871 0.6884398
vt 0.4375 0.6545655
vt 0.46875 0.6545655
vt 0.464063 0.6884398
vt 0.473437 0.6884398
vt 0.46875 0.6545655
vt 0.5 0.6545658
vt 0.4953132 0.6884398
vt 0.5046871 0.6884398
vt 0.5 0.6545658
vt 0.5312499 0.6545655
vt 0.526563 0.6884398
vt 0.535937 0.6884398
vt 0.5312499 0.6545655
vt 0.5624998 0.6545655
vt 0.5578128 0.6884398
vt 0.5671868 0.6884398
vt 0.5624998 0.6545655
vt 0.59375 0.6545655
vt 0.589063 0.6884398
vt 0.375 0.3125005
vt 0.40625 0.3125005
vt 0.40625 0.6545655
vt 0.3750001 0.6545655
vt 0.40625 0.3125005
vt 0.4375 0.3125005
vt 0.4375 0.6545655
vt 0.40625 0.6545655
vt 0.4375 0.3125005
vt 0.46875 0.3125005
vt 0.46875 0.6545655
vt 0.4375 0.6545655
vt 0.46875 0.3125005
vt 0.5000001 0.3125005
vt 0.5 0.6545658
vt 0.46875 0.6545655
vt 0.5000001 0.3125005
vt 0.53125 0.3125005
vt 0.5312499 0.6545655
vt 0.5 0.6545658
vt 0.53125 0.3125005
vt 0.5625 0.3125005
vt 0.5624998 0.6545655
vt 0.5312499 0.6545655
vt 0.5625 0.3125005
vt 0.59375 0.3125005
vt 0.59375 0.6545655
vt 0.5624998 0.6545655
vt 0.59375 0.3125005
vt 0.6249999 0.3125005
vt 0.6249999 0.6545655
vt 0.59375 0.6545655
vt 0.5773429 0.9192181
vt 0.4999999 0.9512545
vt 0.5 0.8375
vt 0.6093796 0.8418752
vt 0.4226569 0.9192182
vt 0.5773429 0.764531
vt 0.3906201 0.8418752
vt 0.5 0.7324947
vt 0.4226569 0.764531
vn -0.6554701 0.7065842 -0.2666415
vn -0.65547 0.7065842 -0.2666415
vn -0.65547 0.7065842 -0.2666415
vn -0.65547 0.7065842 -0.2666415
vn -0.2763576 0.705268 -0.6528579
vn -0.2763576 0.705268 -0.652858
vn -0.2763576 0.705268 -0.652858
vn -0.2763576 0.7052681 -0.652858
vn 0.2648068 0.7050287 -0.6578845
vn 0.2648068 0.7050287 -0.6578845
vn 0.2648068 0.7050287 -0.6578845
vn 0.2648068 0.7050287 -0.6578845
vn 0.6510343 0.7059963 -0.2787894
vn 0.6510343 0.7059963 -0.2787894
vn 0.6510343 0.7059963 -0.2787894
vn 0.6510343 0.7059963 -0.2787894
vn 0.6560791 0.7076162 0.2623728
vn 0.6560792 0.7076162 0.2623729
vn 0.6560792 0.7076162 0.2623729
vn 0.6560792 0.7076162 0.2623729
vn 0.2769705 0.7089292 0.6486191
vn 0.2769705 0.7089292 0.6486191
vn 0.2769705 0.7089292 0.6486191
vn 0.2769705 0.7089292 0.6486191
vn -0.2641982 0.7091792 0.6536545
vn -0.2641983 0.7091792 0.6536545
vn -0.2641982 0.7091792 0.6536545
vn -0.2641982 0.7091792 0.6536545
vn -0.6504395 0.7082081 0.2745352
vn -0.6504395 0.7082081 0.2745353
vn -0.6504395 0.7082081 0.2745353
vn -0.6504395 0.7082081 0.2745353
vn -0.3912676 -0.00427331 -0.920267
vn -0.3912676 -0.00427331 -0.920267
vn -0.3912676 -0.00427331 -0.920267
vn -0.3912676 -0.00427331 -0.920267
vn 0.3740553 0.006945901 -0.9273804
vn 0.3740553 0.006945901 -0.9273804
vn 0.3740553 0.006945901 -0.9273804
vn 0.3740553 0.006945901 -0.9273804
vn 0.9201731 0.01409603 -0.3912578
vn 0.9201731 0.01409603 -0.3912578
vn 0.9201731 0.01409603 -0.3912578
vn 0.9201731 0.01409603 -0.3912578
vn 0.9273394 0.01298979 0.3739961
vn 0.9273393 0.01298978 0.3739961
vn 0.9273394 0.01298979 0.3739961
vn 0.9273393 0.01298978 0.3739961
vn 0.3912479 0.004274174 0.9202753
vn 0.3912479 0.004274173 0.9202753
vn 0.3912479 0.004274173 0.9202753
vn 0.3912479 0.004274173 0.9202753
vn -0.3740392 -0.006945825 0.9273869
vn -0.3740392 -0.006945827 0.9273869
vn -0.3740392 -0.006945827 0.9273869
vn -0.3740392 -0.006945827 0.9273869
vn -0.9201737 -0.01409662 0.3912564
vn -0.9201737 -0.01409662 0.3912564
vn -0.9201737 -0.01409662 0.3912564
vn -0.9201737 -0.01409662 0.3912564
vn -0.9273354 -0.01298966 -0.3740058
vn -0.9273354 -0.01298966 -0.3740059
vn -0.9273354 -0.01298966 -0.3740059
vn -0.9273354 -0.01298966 -0.3740059
vn 0.0004255002 0.9999954 -0.003011237
vn 0.0004255013 0.9999954 -0.003025673
vn 0.0004242672 0.9999954 -0.00301067
vn 0.0004247013 0.9999955 -0.003004984
vn 0.0004246801 0.9999954 -0.003017428
vn 0.0004236893 0.9999955 -0.003007005
vn 0.0004246697 0.9999955 -0.003002928
vn 0.0004221965 0.9999955 -0.003009099
vn 0.0004231992 0.9999955 -0.003007012
g collisionMesh_sideWalls_43_0
f 3/3/3 2/2/2 1/1/1
f 4/4/4 3/3/3 1/1/1
f 7/7/7 6/6/6 5/5/5
f 8/8/8 7/7/7 5/5/5
f 11/11/11 10/10/10 9/9/9
f 12/12/12 11/11/11 9/9/9
f 15/15/15 14/14/14 13/13/13
f 16/16/16 15/15/15 13/13/13
f 19/19/19 18/18/18 17/17/17
f 20/20/20 19/19/19 17/17/17
f 23/23/23 22/22/22 21/21/21
f 24/24/24 23/23/23 21/21/21
f 27/27/27 26/26/26 25/25/25
f 28/28/28 27/27/27 25/25/25
f 31/31/31 30/30/30 29/29/29
f 32/32/32 31/31/31 29/29/29
f 35/35/35 34/34/34 33/33/33
f 36/36/36 35/35/35 33/33/33
f 39/39/39 38/38/38 37/37/37
f 40/40/40 39/39/39 37/37/37
f 43/43/43 42/42/42 41/41/41
f 44/44/44 43/43/43 41/41/41
f 47/47/47 46/46/46 45/45/45
f 48/48/48 47/47/47 45/45/45
f 51/51/51 50/50/50 49/49/49
f 52/52/52 51/51/51 49/49/49
f 55/55/55 54/54/54 53/53/53
f 56/56/56 55/55/55 53/53/53
f 59/59/59 58/58/58 57/57/57
f 60/60/60 59/59/59 57/57/57
f 63/63/63 62/62/62 61/61/61
f 64/64/64 63/63/63 61/61/61
f 67/67/67 66/66/66 65/65/65
f 67/67/67 65/65/65 68/68/68
f 67/67/67 69/69/69 66/66/66
f 67/67/67 68/68/68 70/70/70
f 67/67/67 71/71/71 69/69/69
f 67/67/67 70/70/70 72/72/72
f 67/67/67 73/73/73 71/71/71
f 67/67/67 72/72/72 73/73/73
