g collisionMesh_sideWalls_21
v 22.95342 48.27417 100.0852
v 23.3823 48.29224 101.1328
v 22.94066 48.70425 101.123
v 22.64043 48.69161 100.3897
v 22.64043 48.69161 100.3897
v 21.90954 48.68935 100.0834
v 21.90934 48.27095 99.64764
v 22.95342 48.27417 100.0852
v 21.90954 48.68935 100.0834
v 21.17614 48.6988 100.3835
v 20.86166 48.28444 100.0763
v 21.90934 48.27095 99.64764
v 21.17614 48.6988 100.3835
v 20.86983 48.71442 101.1142
v 20.4241 48.30675 101.1202
v 20.86166 48.28444 100.0763
v 20.86983 48.71442 101.1142
v 21.17006 48.72706 101.8475
v 20.85298 48.32481 102.1678
v 20.4241 48.30675 101.1202
v 21.17006 48.72706 101.8475
v 21.90094 48.72932 102.1538
v 21.89706 48.32804 102.6053
v 20.85298 48.32481 102.1678
v 21.90094 48.72932 102.1538
v 22.63435 48.71987 101.8537
v 22.94474 48.31454 102.1766
v 21.89706 48.32804 102.6053
v 22.63435 48.71987 101.8537
v 22.94066 48.70425 101.123
v 23.3823 48.29224 101.1328
v 22.94474 48.31454 102.1766
v 22.85929 43.58803 100.1544
v 22.95342 48.27417 100.0852
v 21.90934 48.27095 99.64764
v 21.81521 43.5848 99.71684
v 21.81521 43.5848 99.71684
v 21.90934 48.27095 99.64764
v 20.86166 48.28444 100.0763
v 20.76753 43.59829 100.1455
v 20.76753 43.59829 100.1455
v 20.86166 48.28444 100.0763
v 20.4241 48.30675 101.1202
v 20.32997 43.62061 101.1894
v 20.32997 43.62061 101.1894
v 20.4241 48.30675 101.1202
v 20.85298 48.32481 102.1678
v 20.75884 43.63866 102.2369
v 20.75884 43.63866 102.2369
v 20.85298 48.32481 102.1678
v 21.89706 48.32804 102.6053
v 21.80293 43.6419 102.6745
v 21.80293 43.6419 102.6745
v 21.89706 48.32804 102.6053
v 22.94474 48.31454 102.1766
v 22.85061 43.6284 102.2458
v 22.85061 43.6284 102.2458
v 22.94474 48.31454 102.1766
v 23.3823 48.29224 101.1328
v 23.28817 43.60609 101.202
v 23.28817 43.60609 101.202
v 23.3823 48.29224 101.1328
v 22.95342 48.27417 100.0852
v 22.85929 43.58803 100.1544
v 22.64043 48.69161 100.3897
v 21.90524 48.70934 101.1186
v 21.90954 48.68935 100.0834
v 22.94066 48.70425 101.123
v 21.17614 48.6988 100.3835
v 22.63435 48.71987 101.8537
v 20.86983 48.71442 101.1142
v 21.90094 48.72932 102.1538
v 21.17006 48.72706 101.8475
vt 0.6249999 0.6545655
vt 0.59375 0.6545655
vt 0.5984371 0.6884398
vt 0.6203129 0.6884398
vt 0.3796871 0.6884398
vt 0.401563 0.6884398
vt 0.40625 0.6545655
vt 0.3750001 0.6545655
vt 0.4109371 0.6884398
vt 0.432813 0.6884398
vt 0.4375 0.6545655
vt 0.40625 0.6545655
vt 0.4421871 0.6884398
vt 0.464063 0.6884398
vt 0.46875 0.6545655
vt 0.4375 0.6545655
vt 0.473437 0.6884398
vt 0.4953132 0.6884398
vt 0.5 0.6545658
vt 0.46875 0.6545655
vt 0.5046871 0.6884398
vt 0.526563 0.6884398
vt 0.5312499 0.6545655
vt 0.5 0.6545658
vt 0.535937 0.6884398
vt 0.5578128 0.6884398
vt 0.5624998 0.6545655
vt 0.5312499 0.6545655
vt 0.5671868 0.6884398
vt 0.589063 0.6884398
vt 0.59375 0.6545655
vt 0.5624998 0.6545655
vt 0.375 0.3125005
vt 0.3750001 0.6545655
vt 0.40625 0.6545655
vt 0.40625 0.3125005
vt 0.40625 0.3125005
vt 0.40625 0.6545655
vt 0.4375 0.6545655
vt 0.4375 0.3125005
vt 0.4375 0.3125005
vt 0.4375 0.6545655
vt 0.46875 0.6545655
vt 0.46875 0.3125005
vt 0.46875 0.3125005
vt 0.46875 0.6545655
vt 0.5 0.6545658
vt 0.5000001 0.3125005
vt 0.5000001 0.3125005
vt 0.5 0.6545658
vt 0.5312499 0.6545655
vt 0.53125 0.3125005
vt 0.53125 0.3125005
vt 0.5312499 0.6545655
vt 0.5624998 0.6545655
vt 0.5625 0.3125005
vt 0.5625 0.3125005
vt 0.5624998 0.6545655
vt 0.59375 0.6545655
vt 0.59375 0.3125005
vt 0.59375 0.3125005
vt 0.59375 0.6545655
vt 0.6249999 0.6545655
vt 0.6249999 0.3125005
vt 0.5773429 0.9192181
vt 0.5 0.8375
vt 0.4999999 0.9512545
vt 0.6093796 0.8418752
vt 0.4226569 0.9192182
vt 0.5773429 0.764531
vt 0.3906201 0.8418752
vt 0.5 0.7324947
vt 0.4226569 0.764531
vn 0.6579114 0.698544 -0.2814051
vn 0.6579114 0.698544 -0.2814052
vn 0.6579114 0.6985439 -0.2814051
vn 0.6579114 0.698544 -0.2814051
vn 0.2768288 0.6930361 -0.6656326
vn 0.2768288 0.693036 -0.6656325
vn 0.2768288 0.6930361 -0.6656326
vn 0.2768288 0.693036 -0.6656325
vn -0.2643495 0.6956983 -0.6679247
vn -0.2643495 0.6956983 -0.6679246
vn -0.2643494 0.6956983 -0.6679246
vn -0.2643495 0.6956983 -0.6679247
vn -0.6486139 0.7049503 -0.2869585
vn -0.6486139 0.7049503 -0.2869585
vn -0.6486139 0.7049503 -0.2869585
vn -0.6486139 0.7049503 -0.2869585
vn -0.6508679 0.715391 0.2541393
vn -0.6508679 0.7153909 0.2541393
vn -0.6508679 0.7153909 0.2541393
vn -0.6508679 0.715391 0.2541393
vn -0.2697742 0.7208917 0.6383863
vn -0.2697743 0.7208918 0.6383862
vn -0.2697743 0.7208917 0.6383862
vn -0.2697743 0.7208917 0.6383863
vn 0.2713974 0.7182334 0.6406904
vn 0.2713974 0.7182334 0.6406904
vn 0.2713974 0.7182335 0.6406904
vn 0.2713974 0.7182334 0.6406904
vn 0.6556763 0.7089808 0.2596824
vn 0.6556763 0.7089808 0.2596824
vn 0.6556762 0.7089807 0.2596824
vn 0.6556762 0.7089807 0.2596824
vn 0.3864997 -0.02137721 -0.9220418
vn 0.3864997 -0.02137721 -0.9220418
vn 0.3864997 -0.02137722 -0.9220418
vn 0.3864997 -0.02137721 -0.9220418
vn -0.378766 -0.006054664 -0.9254726
vn -0.378766 -0.006054664 -0.9254726
vn -0.378766 -0.006054664 -0.9254726
vn -0.378766 -0.006054664 -0.9254726
vn -0.9220826 0.01281195 -0.3867809
vn -0.9220826 0.01281195 -0.3867809
vn -0.9220826 0.01281195 -0.3867809
vn -0.9220826 0.01281195 -0.3867809
vn -0.9253186 0.02417503 0.3784192
vn -0.9253186 0.02417503 0.3784192
vn -0.9253186 0.02417503 0.3784193
vn -0.9253186 0.02417503 0.3784192
vn -0.3865007 0.02137746 0.9220413
vn -0.3865007 0.02137745 0.9220413
vn -0.3865008 0.02137746 0.9220413
vn -0.3865007 0.02137746 0.9220413
vn 0.378757 0.006056217 0.9254764
vn 0.3787569 0.006056216 0.9254764
vn 0.3787569 0.006056217 0.9254764
vn 0.3787569 0.006056216 0.9254764
vn 0.9220806 -0.01281172 0.3867857
vn 0.9220806 -0.01281172 0.3867857
vn 0.9220806 -0.01281172 0.3867857
vn 0.9220806 -0.01281172 0.3867857
vn 0.9253191 -0.02417424 -0.3784179
vn 0.9253191 -0.02417424 -0.378418
vn 0.9253191 -0.02417424 -0.378418
vn 0.9253191 -0.02417424 -0.378418
vn 0.004991375 0.9998016 -0.01928354
vn 0.004989683 0.9998017 -0.01927957
vn 0.004989414 0.9998017 -0.0192781
vn 0.004989814 0.9998017 -0.01928298
vn 0.004987966 0.9998017 -0.01927798
vn 0.004988265 0.9998017 -0.01927805
vn 0.004990008 0.9998017 -0.01927886
vn 0.004989497 0.9998017 -0.01927833
vn 0.004991125 0.9998017 -0.0192787
g collisionMesh_sideWalls_21_0
f 3/3/3 2/2/2 1/1/1
f 4/4/4 3/3/3 1/1/1
f 7/7/7 6/6/6 5/5/5
f 8/8/8 7/7/7 5/5/5
f 11/11/11 10/10/10 9/9/9
f 12/12/12 11/11/11 9/9/9
f 15/15/15 14/14/14 13/13/13
f 16/16/16 15/15/15 13/13/13
f 19/19/19 18/18/18 17/17/17
f 20/20/20 19/19/19 17/17/17
f 23/23/23 22/22/22 21/21/21
f 24/24/24 23/23/23 21/21/21
f 27/27/27 26/26/26 25/25/25
f 28/28/28 27/27/27 25/25/25
f 31/31/31 30/30/30 29/29/29
f 32/32/32 31/31/31 29/29/29
f 35/35/35 34/34/34 33/33/33
f 36/36/36 35/35/35 33/33/33
f 39/39/39 38/38/38 37/37/37
f 40/40/40 39/39/39 37/37/37
f 43/43/43 42/42/42 41/41/41
f 44/44/44 43/43/43 41/41/41
f 47/47/47 46/46/46 45/45/45
f 48/48/48 47/47/47 45/45/45
f 51/51/51 50/50/50 49/49/49
f 52/52/52 51/51/51 49/49/49
f 55/55/55 54/54/54 53/53/53
f 56/56/56 55/55/55 53/53/53
f 59/59/59 58/58/58 57/57/57
f 60/60/60 59/59/59 57/57/57
f 63/63/63 62/62/62 61/61/61
f 64/64/64 63/63/63 61/61/61
f 67/67/67 66/66/66 65/65/65
f 65/65/65 66/66/66 68/68/68
f 69/69/69 66/66/66 67/67/67
f 68/68/68 66/66/66 70/70/70
f 71/71/71 66/66/66 69/69/69
f 70/70/70 66/66/66 72/72/72
f 73/73/73 66/66/66 71/71/71
f 72/72/72 66/66/66 73/73/73
