g collisionMesh_sideWalls_34
v -24.10624 48.15665 100.5808
v -25.18882 48.1563 100.0149
v -18.23076 42.11466 87.25925
v -17.14818 42.11501 87.82513
v -25.18651 44.08108 100.0131
v -18.22845 38.03944 87.25741
v -18.23076 42.11466 87.25925
v -25.18882 48.1563 100.0149
v -17.14587 38.0398 87.82329
v -24.10393 44.08144 100.579
v -24.10624 48.15665 100.5808
v -17.14818 42.11501 87.82513
vt 0.375 0.25
vt 0.625 0.25
vt 0.625 0.5
vt 0.375 0.5
vt 0.625 0
vt 0.875 0
vt 0.875 0.25
vt 0.625 0.25
vt 0.125 0
vt 0.375 0
vt 0.375 0.25
vt 0.125 0.25
vn 0.1776434 0.9233364 -0.3404302
vn 0.1776434 0.9233364 -0.3404302
vn 0.1776433 0.9233364 -0.3404302
vn 0.1776434 0.9233364 -0.3404302
vn -0.8779395 -0.0002816889 -0.4787715
vn -0.8779395 -0.000281689 -0.4787716
vn -0.8779395 -0.0002816889 -0.4787716
vn -0.8779395 -0.0002816889 -0.4787715
vn 0.8779394 0.0002804222 0.4787719
vn 0.8779393 0.0002804222 0.4787719
vn 0.8779394 0.0002804222 0.4787718
vn 0.8779393 0.0002804222 0.4787719
g collisionMesh_sideWalls_34_0
f 3/3/3 2/2/2 1/1/1
f 4/4/4 3/3/3 1/1/1
f 7/7/7 6/6/6 5/5/5
f 8/8/8 7/7/7 5/5/5
f 11/11/11 10/10/10 9/9/9
f 12/12/12 11/11/11 9/9/9
