g collisionMesh_sideWalls_33
v -28.04886 48.08588 108.0495
v -29.12422 48.08588 107.4701
v -25.92759 48.08588 101.8093
v -24.85224 48.08588 102.3888
v -29.12422 44.01066 107.4701
v -25.92759 44.01066 101.8093
v -25.92759 48.08588 101.8093
v -29.12422 48.08588 107.4701
v -24.85224 44.01066 102.3888
v -28.04886 44.01066 108.0495
v -28.04886 48.08588 108.0495
v -24.85224 48.08588 102.3888
vt 0.375 0.25
vt 0.625 0.25
vt 0.625 0.5
vt 0.375 0.5
vt 0.625 0
vt 0.875 0
vt 0.875 0.25
vt 0.625 0.25
vt 0.125 0
vt 0.375 0
vt 0.375 0.25
vt 0.125 0.25
vn 0 1 -7.871822E-07
vn 0 1 -7.871822E-07
vn 0 1 -7.871822E-07
vn 0 1 -7.871822E-07
vn -0.8707561 0 -0.491715
vn -0.8707561 0 -0.491715
vn -0.8707561 0 -0.491715
vn -0.8707561 0 -0.491715
vn 0.8707561 0 0.491715
vn 0.8707561 0 0.491715
vn 0.8707561 0 0.491715
vn 0.8707561 0 0.491715
g collisionMesh_sideWalls_33_0
f 3/3/3 2/2/2 1/1/1
f 4/4/4 3/3/3 1/1/1
f 7/7/7 6/6/6 5/5/5
f 8/8/8 7/7/7 5/5/5
f 11/11/11 10/10/10 9/9/9
f 12/12/12 11/11/11 9/9/9
