g collisionMesh_sideWalls_60
v 4.331641 47.99761 109.2436
v 10.4322 47.94833 105.6667
v 11.03862 47.94833 106.7271
v 4.938086 47.99761 110.304
v 4.938086 43.92239 110.304
v 4.938086 47.99761 110.304
v 11.03862 47.94833 106.7271
v 11.03862 43.87312 106.7271
v 10.4322 43.87312 105.6667
v 10.4322 47.94833 105.6667
v 4.331641 47.99761 109.2436
v 4.331641 43.92239 109.2436
vt 0.375 0.25
vt 0.375 0.5
vt 0.625 0.5
vt 0.625 0.25
vt 0.625 0
vt 0.625 0.25
vt 0.875 0.25
vt 0.875 0
vt 0.125 0
vt 0.125 0.25
vt 0.375 0.25
vt 0.375 0
vn 0.006048392 0.9999758 -0.00345842
vn 0.006048392 0.9999758 -0.00345842
vn 0.006048392 0.9999758 -0.00345842
vn 0.006048392 0.9999758 -0.00345842
vn 0.5057972 0 0.8626524
vn 0.5057973 0 0.8626524
vn 0.5057972 0 0.8626524
vn 0.5057973 0 0.8626524
vn -0.5057957 0 -0.8626533
vn -0.5057957 0 -0.8626533
vn -0.5057957 0 -0.8626533
vn -0.5057957 0 -0.8626533
g collisionMesh_sideWalls_60_0
f 3/3/3 2/2/2 1/1/1
f 4/4/4 3/3/3 1/1/1
f 7/7/7 6/6/6 5/5/5
f 8/8/8 7/7/7 5/5/5
f 11/11/11 10/10/10 9/9/9
f 12/12/12 11/11/11 9/9/9
