g collisionMesh_sideWalls_11
v 20.8676 40.36159 81.32816
v 20.9544 36.03489 62.7809
v 22.17596 36.03489 62.7809
v 22.08916 40.36159 81.32816
v 22.19897 32.78007 81.73689
v 22.08916 40.36159 81.32816
v 22.17596 36.03489 62.7809
v 22.17596 28.93831 64.46564
v 20.9544 28.93831 64.46564
v 20.9544 36.03489 62.7809
v 20.8676 40.36159 81.32816
v 20.97741 32.78007 81.73689
vt 0.375 0.25
vt 0.375 0.5
vt 0.625 0.5
vt 0.625 0.25
vt 0.625 0
vt 0.625 0.25
vt 0.875 0.25
vt 0.875 0
vt 0.125 0
vt 0.125 0.25
vt 0.375 0.25
vt 0.375 0
vn 0 0.9738528 -0.2271803
vn 0 0.9738528 -0.2271803
vn 0 0.9738528 -0.2271803
vn 0 0.9738528 -0.2271803
vn 0.999972 0.007490819 7.241125E-05
vn 0.999972 0.007490819 7.241125E-05
vn 0.999972 0.00749082 7.241125E-05
vn 0.999972 0.007490819 7.241125E-05
vn -0.999972 -0.007491326 -7.231051E-05
vn -0.999972 -0.007491326 -7.231051E-05
vn -0.999972 -0.007491326 -7.231051E-05
vn -0.999972 -0.007491327 -7.23105E-05
g collisionMesh_sideWalls_11_0
f 3/3/3 2/2/2 1/1/1
f 4/4/4 3/3/3 1/1/1
f 7/7/7 6/6/6 5/5/5
f 8/8/8 7/7/7 5/5/5
f 11/11/11 10/10/10 9/9/9
f 12/12/12 11/11/11 9/9/9
