g collisionMesh_sideWalls_19
v 5.1567 51.91014 128.2844
v 5.580176 51.91348 129.3343
v 5.136325 52.3232 129.3289
v 4.839877 52.32086 128.5939
v 4.839877 52.32086 128.5939
v 4.110567 52.31962 128.2839
v 4.11487 51.90836 127.8414
v 5.1567 51.91014 128.2844
v 4.110567 52.31962 128.2839
v 3.375616 52.3202 128.5803
v 3.064982 51.90919 128.2649
v 4.11487 51.90836 127.8414
v 3.375616 52.3202 128.5803
v 3.06554 52.32227 129.3096
v 2.622042 51.91214 129.3067
v 3.064982 51.90919 128.2649
v 3.06554 52.32227 129.3096
v 3.361989 52.3246 130.0446
v 3.045515 51.91548 130.3566
v 2.622042 51.91214 129.3067
v 3.361989 52.3246 130.0446
v 4.091295 52.32584 130.3547
v 4.087341 51.91726 130.7995
v 3.045515 51.91548 130.3566
v 4.091295 52.32584 130.3547
v 4.82625 52.32526 130.0582
v 5.137233 51.91643 130.3761
v 4.087341 51.91726 130.7995
v 4.82625 52.32526 130.0582
v 5.136325 52.3232 129.3289
v 5.580176 51.91348 129.3343
v 5.137233 51.91643 130.3761
v 5.088052 47.22305 128.2769
v 5.1567 51.91014 128.2844
v 4.11487 51.90836 127.8414
v 4.046222 47.22127 127.834
v 4.046222 47.22127 127.834
v 4.11487 51.90836 127.8414
v 3.064982 51.90919 128.2649
v 2.996334 47.2221 128.2575
v 2.996334 47.2221 128.2575
v 3.064982 51.90919 128.2649
v 2.622042 51.91214 129.3067
v 2.553394 47.22505 129.2993
v 2.553394 47.22505 129.2993
v 2.622042 51.91214 129.3067
v 3.045515 51.91548 130.3566
v 2.976867 47.22839 130.3492
v 2.976867 47.22839 130.3492
v 3.045515 51.91548 130.3566
v 4.087341 51.91726 130.7995
v 4.018692 47.23016 130.7921
v 4.018692 47.23016 130.7921
v 4.087341 51.91726 130.7995
v 5.137233 51.91643 130.3761
v 5.068585 47.22934 130.3687
v 5.068585 47.22934 130.3687
v 5.137233 51.91643 130.3761
v 5.580176 51.91348 129.3343
v 5.511528 47.22639 129.3268
v 5.511528 47.22639 129.3268
v 5.580176 51.91348 129.3343
v 5.1567 51.91014 128.2844
v 5.088052 47.22305 128.2769
v 4.839877 52.32086 128.5939
v 4.100931 52.32273 129.3193
v 4.110567 52.31962 128.2839
v 5.136325 52.3232 129.3289
v 3.375616 52.3202 128.5803
v 4.82625 52.32526 130.0582
v 3.06554 52.32227 129.3096
v 4.091295 52.32584 130.3547
v 3.361989 52.3246 130.0446
vt 0.6249999 0.6545655
vt 0.59375 0.6545655
vt 0.5984371 0.6884398
vt 0.6203129 0.6884398
vt 0.3796871 0.6884398
vt 0.401563 0.6884398
vt 0.40625 0.6545655
vt 0.3750001 0.6545655
vt 0.4109371 0.6884398
vt 0.432813 0.6884398
vt 0.4375 0.6545655
vt 0.40625 0.6545655
vt 0.4421871 0.6884398
vt 0.464063 0.6884398
vt 0.46875 0.6545655
vt 0.4375 0.6545655
vt 0.473437 0.6884398
vt 0.4953132 0.6884398
vt 0.5 0.6545658
vt 0.46875 0.6545655
vt 0.5046871 0.6884398
vt 0.526563 0.6884398
vt 0.5312499 0.6545655
vt 0.5 0.6545658
vt 0.535937 0.6884398
vt 0.5578128 0.6884398
vt 0.5624998 0.6545655
vt 0.5312499 0.6545655
vt 0.5671868 0.6884398
vt 0.589063 0.6884398
vt 0.59375 0.6545655
vt 0.5624998 0.6545655
vt 0.375 0.3125005
vt 0.3750001 0.6545655
vt 0.40625 0.6545655
vt 0.40625 0.3125005
vt 0.40625 0.3125005
vt 0.40625 0.6545655
vt 0.4375 0.6545655
vt 0.4375 0.3125005
vt 0.4375 0.3125005
vt 0.4375 0.6545655
vt 0.46875 0.6545655
vt 0.46875 0.3125005
vt 0.46875 0.3125005
vt 0.46875 0.6545655
vt 0.5 0.6545658
vt 0.5000001 0.3125005
vt 0.5000001 0.3125005
vt 0.5 0.6545658
vt 0.5312499 0.6545655
vt 0.53125 0.3125005
vt 0.53125 0.3125005
vt 0.5312499 0.6545655
vt 0.5624998 0.6545655
vt 0.5625 0.3125005
vt 0.5625 0.3125005
vt 0.5624998 0.6545655
vt 0.59375 0.6545655
vt 0.59375 0.3125005
vt 0.59375 0.3125005
vt 0.59375 0.6545655
vt 0.6249999 0.6545655
vt 0.6249999 0.3125005
vt 0.5773429 0.9192181
vt 0.5 0.8375
vt 0.4999999 0.9512545
vt 0.6093796 0.8418752
vt 0.4226569 0.9192182
vt 0.5773429 0.764531
vt 0.3906201 0.8418752
vt 0.5 0.7324947
vt 0.4226569 0.764531
vn 0.6554682 0.7065876 -0.2666375
vn 0.6554682 0.7065876 -0.2666375
vn 0.6554682 0.7065876 -0.2666375
vn 0.6554682 0.7065876 -0.2666375
vn 0.2763644 0.7052695 -0.6528536
vn 0.2763644 0.7052695 -0.6528536
vn 0.2763644 0.7052694 -0.6528536
vn 0.2763644 0.7052695 -0.6528536
vn -0.2648034 0.7050243 -0.6578905
vn -0.2648035 0.7050243 -0.6578905
vn -0.2648034 0.7050244 -0.6578905
vn -0.2648035 0.7050243 -0.6578905
vn -0.6510313 0.7059968 -0.2787951
vn -0.6510313 0.7059969 -0.2787951
vn -0.6510313 0.7059969 -0.2787951
vn -0.6510313 0.7059969 -0.2787951
vn -0.6560766 0.7076175 0.262376
vn -0.6560766 0.7076175 0.262376
vn -0.6560766 0.7076175 0.262376
vn -0.6560764 0.7076175 0.2623759
vn -0.2769682 0.70893 0.6486192
vn -0.2769682 0.70893 0.6486192
vn -0.2769682 0.70893 0.6486192
vn -0.2769682 0.70893 0.6486192
vn 0.2642071 0.7091768 0.6536534
vn 0.2642071 0.7091769 0.6536534
vn 0.2642071 0.7091768 0.6536534
vn 0.2642071 0.7091768 0.6536536
vn 0.6504377 0.7082117 0.2745306
vn 0.6504377 0.7082117 0.2745305
vn 0.6504377 0.7082117 0.2745306
vn 0.6504377 0.7082117 0.2745306
vn 0.3912667 -0.004273301 -0.9202674
vn 0.3912666 -0.0042733 -0.9202674
vn 0.3912667 -0.004273301 -0.9202674
vn 0.3912666 -0.0042733 -0.9202674
vn -0.3740535 0.006945969 -0.9273811
vn -0.3740535 0.006945968 -0.9273811
vn -0.3740535 0.006945968 -0.9273811
vn -0.3740535 0.006945969 -0.9273811
vn -0.9201741 0.01409596 -0.3912557
vn -0.9201741 0.01409597 -0.3912557
vn -0.9201741 0.01409596 -0.3912557
vn -0.9201741 0.01409596 -0.3912556
vn -0.92734 0.01298968 0.3739943
vn -0.92734 0.01298968 0.3739944
vn -0.92734 0.01298968 0.3739943
vn -0.92734 0.01298968 0.3739944
vn -0.3912441 0.004274154 0.9202771
vn -0.3912441 0.004274154 0.9202771
vn -0.3912441 0.004274155 0.9202771
vn -0.3912441 0.004274155 0.9202771
vn 0.3740444 -0.006945836 0.9273848
vn 0.3740444 -0.006945835 0.9273848
vn 0.3740444 -0.006945836 0.9273848
vn 0.3740444 -0.006945835 0.9273848
vn 0.9201745 -0.0140966 0.3912545
vn 0.9201745 -0.0140966 0.3912545
vn 0.9201745 -0.0140966 0.3912545
vn 0.9201745 -0.0140966 0.3912545
vn 0.9273366 -0.01298947 -0.3740029
vn 0.9273366 -0.01298947 -0.3740028
vn 0.9273366 -0.01298947 -0.3740029
vn 0.9273366 -0.01298947 -0.3740028
vn -0.000425532 0.9999955 -0.003009173
vn -0.0004251166 0.9999955 -0.003009431
vn -0.0004254853 0.9999955 -0.003001069
vn -0.0004247173 0.9999954 -0.003013227
vn -0.0004246159 0.9999955 -0.003005192
vn -0.0004236973 0.9999954 -0.003014282
vn -0.0004246938 0.9999955 -0.003004988
vn -0.0004255698 0.9999954 -0.003018438
vn -0.0004266213 0.9999955 -0.003009076
g collisionMesh_sideWalls_19_0
f 3/3/3 2/2/2 1/1/1
f 4/4/4 3/3/3 1/1/1
f 7/7/7 6/6/6 5/5/5
f 8/8/8 7/7/7 5/5/5
f 11/11/11 10/10/10 9/9/9
f 12/12/12 11/11/11 9/9/9
f 15/15/15 14/14/14 13/13/13
f 16/16/16 15/15/15 13/13/13
f 19/19/19 18/18/18 17/17/17
f 20/20/20 19/19/19 17/17/17
f 23/23/23 22/22/22 21/21/21
f 24/24/24 23/23/23 21/21/21
f 27/27/27 26/26/26 25/25/25
f 28/28/28 27/27/27 25/25/25
f 31/31/31 30/30/30 29/29/29
f 32/32/32 31/31/31 29/29/29
f 35/35/35 34/34/34 33/33/33
f 36/36/36 35/35/35 33/33/33
f 39/39/39 38/38/38 37/37/37
f 40/40/40 39/39/39 37/37/37
f 43/43/43 42/42/42 41/41/41
f 44/44/44 43/43/43 41/41/41
f 47/47/47 46/46/46 45/45/45
f 48/48/48 47/47/47 45/45/45
f 51/51/51 50/50/50 49/49/49
f 52/52/52 51/51/51 49/49/49
f 55/55/55 54/54/54 53/53/53
f 56/56/56 55/55/55 53/53/53
f 59/59/59 58/58/58 57/57/57
f 60/60/60 59/59/59 57/57/57
f 63/63/63 62/62/62 61/61/61
f 64/64/64 63/63/63 61/61/61
f 67/67/67 66/66/66 65/65/65
f 65/65/65 66/66/66 68/68/68
f 69/69/69 66/66/66 67/67/67
f 68/68/68 66/66/66 70/70/70
f 71/71/71 66/66/66 69/69/69
f 70/70/70 66/66/66 72/72/72
f 73/73/73 66/66/66 71/71/71
f 72/72/72 66/66/66 73/73/73
