g collisionMesh_sideWalls_51
v -26.29556 12.83453 -5.096884
v -25.99207 13.3519 -5.02529
v -26.29507 13.70064 -4.381403
v -26.72841 13.33271 -4.177068
v -25.99207 13.3519 -5.02529
v -26.29556 12.83453 -5.096884
v -25.25008 12.64697 -5.48855
v -25.2602 13.22061 -5.299467
v -25.2602 13.22061 -5.299467
v -25.25008 12.64697 -5.48855
v -24.2044 12.87991 -5.122637
v -24.5282 13.38367 -5.043318
v -24.5282 13.38367 -5.043318
v -24.2044 12.87991 -5.122637
v -23.77107 13.39689 -4.213488
v -24.22484 13.74557 -4.406898
v -24.22484 13.74557 -4.406898
v -23.77107 13.39689 -4.213488
v -24.20391 13.89508 -3.293661
v -24.52785 14.09432 -3.762981
v -24.52785 14.09432 -3.762981
v -24.20391 13.89508 -3.293661
v -25.24939 14.08263 -2.902005
v -25.25972 14.22561 -3.488815
v -25.25972 14.22561 -3.488815
v -25.24939 14.08263 -2.902005
v -26.29507 13.84969 -3.267909
v -25.99172 14.06255 -3.744954
v -25.99172 14.06255 -3.744954
v -26.29507 13.84969 -3.267909
v -26.72841 13.33271 -4.177068
v -26.29507 13.70064 -4.381403
v -26.1923 9.216388 -3.088673
v -25.14683 9.028834 -3.480339
v -25.25008 12.64697 -5.48855
v -26.29556 12.83453 -5.096884
v -25.14683 9.028834 -3.480339
v -24.10115 9.261772 -3.114425
v -24.2044 12.87991 -5.122637
v -25.25008 12.64697 -5.48855
v -24.10115 9.261772 -3.114425
v -23.66781 9.778753 -2.205276
v -23.77107 13.39689 -4.213488
v -24.2044 12.87991 -5.122637
v -23.66781 9.778753 -2.205276
v -24.10065 10.27694 -1.28545
v -24.20391 13.89508 -3.293661
v -23.77107 13.39689 -4.213488
v -24.10065 10.27694 -1.28545
v -25.14613 10.46449 -0.8937944
v -25.24939 14.08263 -2.902005
v -24.20391 13.89508 -3.293661
v -25.14613 10.46449 -0.8937944
v -26.19181 10.23156 -1.259698
v -26.29507 13.84969 -3.267909
v -25.24939 14.08263 -2.902005
v -26.19181 10.23156 -1.259698
v -26.62515 9.71457 -2.168857
v -26.72841 13.33271 -4.177068
v -26.29507 13.84969 -3.267909
v -26.62515 9.71457 -2.168857
v -26.1923 9.216388 -3.088673
v -26.29556 12.83453 -5.096884
v -26.72841 13.33271 -4.177068
v -25.99207 13.3519 -5.02529
v -25.2602 13.22061 -5.299467
v -25.25996 13.7231 -4.394151
v -26.29507 13.70064 -4.381403
v -24.5282 13.38367 -5.043318
v -25.99172 14.06255 -3.744954
v -24.22484 13.74557 -4.406898
v -25.25972 14.22561 -3.488815
v -24.52785 14.09432 -3.762981
vt 0.6249999 0.6545655
vt 0.6203129 0.6884398
vt 0.5984371 0.6884398
vt 0.59375 0.6545655
vt 0.3796871 0.6884398
vt 0.3750001 0.6545655
vt 0.40625 0.6545655
vt 0.401563 0.6884398
vt 0.4109371 0.6884398
vt 0.40625 0.6545655
vt 0.4375 0.6545655
vt 0.432813 0.6884398
vt 0.4421871 0.6884398
vt 0.4375 0.6545655
vt 0.46875 0.6545655
vt 0.464063 0.6884398
vt 0.473437 0.6884398
vt 0.46875 0.6545655
vt 0.5 0.6545658
vt 0.4953132 0.6884398
vt 0.5046871 0.6884398
vt 0.5 0.6545658
vt 0.5312499 0.6545655
vt 0.526563 0.6884398
vt 0.535937 0.6884398
vt 0.5312499 0.6545655
vt 0.5624998 0.6545655
vt 0.5578128 0.6884398
vt 0.5671868 0.6884398
vt 0.5624998 0.6545655
vt 0.59375 0.6545655
vt 0.589063 0.6884398
vt 0.375 0.3125005
vt 0.40625 0.3125005
vt 0.40625 0.6545655
vt 0.3750001 0.6545655
vt 0.40625 0.3125005
vt 0.4375 0.3125005
vt 0.4375 0.6545655
vt 0.40625 0.6545655
vt 0.4375 0.3125005
vt 0.46875 0.3125005
vt 0.46875 0.6545655
vt 0.4375 0.6545655
vt 0.46875 0.3125005
vt 0.5000001 0.3125005
vt 0.5 0.6545658
vt 0.46875 0.6545655
vt 0.5000001 0.3125005
vt 0.53125 0.3125005
vt 0.5312499 0.6545655
vt 0.5 0.6545658
vt 0.53125 0.3125005
vt 0.5625 0.3125005
vt 0.5624998 0.6545655
vt 0.5312499 0.6545655
vt 0.5625 0.3125005
vt 0.59375 0.3125005
vt 0.59375 0.6545655
vt 0.5624998 0.6545655
vt 0.59375 0.3125005
vt 0.6249999 0.3125005
vt 0.6249999 0.6545655
vt 0.59375 0.6545655
vt 0.5773429 0.9192181
vt 0.4999999 0.9512545
vt 0.5 0.8375
vt 0.6093796 0.8418752
vt 0.4226569 0.9192182
vt 0.5773429 0.764531
vt 0.3906201 0.8418752
vt 0.5 0.7324947
vt 0.4226569 0.764531
vn -0.6707785 0.4725705 -0.5716059
vn -0.6707785 0.4725705 -0.5716059
vn -0.6707785 0.4725705 -0.571606
vn -0.6707785 0.4725705 -0.571606
vn -0.2883008 0.2951665 -0.9109113
vn -0.2883008 0.2951665 -0.9109113
vn -0.2883008 0.2951665 -0.9109113
vn -0.2883008 0.2951665 -0.9109113
vn 0.2527178 0.3069096 -0.917573
vn 0.2527178 0.3069096 -0.917573
vn 0.2527178 0.3069096 -0.917573
vn 0.2527177 0.3069096 -0.917573
vn 0.635376 0.5009148 -0.5876918
vn 0.6353761 0.5009147 -0.5876919
vn 0.6353761 0.5009147 -0.5876919
vn 0.635376 0.5009148 -0.5876919
vn 0.6355107 0.7635553 -0.1144961
vn 0.6355107 0.7635554 -0.1144962
vn 0.6355107 0.7635553 -0.1144961
vn 0.6355107 0.7635553 -0.1144961
vn 0.2530256 0.9409733 0.2248269
vn 0.2530256 0.9409733 0.2248269
vn 0.2530256 0.9409733 0.2248268
vn 0.2530256 0.9409733 0.2248268
vn -0.2879927 0.9292327 0.2314882
vn -0.2879927 0.9292327 0.2314882
vn -0.2879927 0.9292327 0.2314881
vn -0.2879927 0.9292327 0.2314882
vn -0.6706551 0.7352117 -0.0984147
vn -0.6706551 0.7352117 -0.0984147
vn -0.6706551 0.7352117 -0.0984147
vn -0.6706551 0.7352117 -0.0984147
vn -0.3827792 -0.4566661 -0.8030792
vn -0.3827792 -0.456666 -0.8030792
vn -0.3827792 -0.456666 -0.8030792
vn -0.3827792 -0.456666 -0.8030792
vn 0.3823467 -0.440059 -0.8125017
vn 0.3823467 -0.440059 -0.8125017
vn 0.3823467 -0.440059 -0.8125017
vn 0.3823467 -0.4400591 -0.8125017
vn 0.9235031 -0.1656713 -0.3459699
vn 0.9235031 -0.1656713 -0.3459699
vn 0.9235031 -0.1656713 -0.3459699
vn 0.9235031 -0.1656713 -0.3459698
vn 0.9236844 0.2057597 0.3232183
vn 0.9236844 0.2057597 0.3232182
vn 0.9236844 0.2057597 0.3232183
vn 0.9236844 0.2057597 0.3232183
vn 0.3827721 0.4566665 0.8030823
vn 0.3827721 0.4566665 0.8030823
vn 0.3827721 0.4566665 0.8030823
vn 0.3827721 0.4566665 0.8030823
vn -0.3823366 0.4400619 0.8125048
vn -0.3823366 0.440062 0.8125048
vn -0.3823366 0.440062 0.8125048
vn -0.3823366 0.440062 0.8125048
vn -0.9235037 0.1656715 0.3459681
vn -0.9235037 0.1656715 0.3459681
vn -0.9235037 0.1656715 0.3459681
vn -0.9235037 0.1656715 0.3459681
vn -0.923682 -0.205763 -0.323223
vn -0.923682 -0.205763 -0.3232229
vn -0.923682 -0.205763 -0.323223
vn -0.923682 -0.205763 -0.3232229
vn -0.02494498 0.8740767 -0.4851471
vn -0.02494448 0.8740767 -0.4851473
vn -0.02494452 0.8740767 -0.4851473
vn -0.02494529 0.8740767 -0.4851469
vn -0.02494402 0.8740767 -0.4851474
vn -0.02494472 0.8740754 -0.4851495
vn -0.02494394 0.8740767 -0.485147
vn -0.02494437 0.8740763 -0.485148
vn -0.02494436 0.8740777 -0.4851453
g collisionMesh_sideWalls_51_0
f 3/3/3 2/2/2 1/1/1
f 4/4/4 3/3/3 1/1/1
f 7/7/7 6/6/6 5/5/5
f 8/8/8 7/7/7 5/5/5
f 11/11/11 10/10/10 9/9/9
f 12/12/12 11/11/11 9/9/9
f 15/15/15 14/14/14 13/13/13
f 16/16/16 15/15/15 13/13/13
f 19/19/19 18/18/18 17/17/17
f 20/20/20 19/19/19 17/17/17
f 23/23/23 22/22/22 21/21/21
f 24/24/24 23/23/23 21/21/21
f 27/27/27 26/26/26 25/25/25
f 28/28/28 27/27/27 25/25/25
f 31/31/31 30/30/30 29/29/29
f 32/32/32 31/31/31 29/29/29
f 35/35/35 34/34/34 33/33/33
f 36/36/36 35/35/35 33/33/33
f 39/39/39 38/38/38 37/37/37
f 40/40/40 39/39/39 37/37/37
f 43/43/43 42/42/42 41/41/41
f 44/44/44 43/43/43 41/41/41
f 47/47/47 46/46/46 45/45/45
f 48/48/48 47/47/47 45/45/45
f 51/51/51 50/50/50 49/49/49
f 52/52/52 51/51/51 49/49/49
f 55/55/55 54/54/54 53/53/53
f 56/56/56 55/55/55 53/53/53
f 59/59/59 58/58/58 57/57/57
f 60/60/60 59/59/59 57/57/57
f 63/63/63 62/62/62 61/61/61
f 64/64/64 63/63/63 61/61/61
f 67/67/67 66/66/66 65/65/65
f 67/67/67 65/65/65 68/68/68
f 67/67/67 69/69/69 66/66/66
f 67/67/67 68/68/68 70/70/70
f 67/67/67 71/71/71 69/69/69
f 67/67/67 70/70/70 72/72/72
f 67/67/67 73/73/73 71/71/71
f 67/67/67 72/72/72 73/73/73
