g collisionMesh_sideWalls_47
v -18.50646 43.1634 85.56898
v -18.19346 43.58084 85.87344
v -18.49369 43.59348 86.60674
v -18.93533 43.18147 86.61653
v -18.19346 43.58084 85.87344
v -18.50646 43.1634 85.56898
v -17.46237 43.16018 85.1314
v -17.46258 43.57858 85.56712
v -17.46258 43.57858 85.56712
v -17.46237 43.16018 85.1314
v -16.41469 43.17367 85.5601
v -16.72917 43.58803 85.86723
v -16.72917 43.58803 85.86723
v -16.41469 43.17367 85.5601
v -15.97713 43.19598 86.60397
v -16.42286 43.60365 86.59795
v -16.42286 43.60365 86.59795
v -15.97713 43.19598 86.60397
v -16.40601 43.21404 87.65151
v -16.72309 43.61629 87.33128
v -16.72309 43.61629 87.33128
v -16.40601 43.21404 87.65151
v -17.45009 43.21727 88.08909
v -17.45398 43.61855 87.63759
v -17.45398 43.61855 87.63759
v -17.45009 43.21727 88.08909
v -18.49777 43.20377 87.6604
v -18.18739 43.6091 87.3375
v -18.18739 43.6091 87.3375
v -18.49777 43.20377 87.6604
v -18.93533 43.18147 86.61653
v -18.49369 43.59348 86.60674
v -18.47877 37.55593 85.60708
v -17.43469 37.5527 85.16949
v -17.46237 43.16018 85.1314
v -18.50646 43.1634 85.56898
v -17.43469 37.5527 85.16949
v -16.38701 37.5662 85.59819
v -16.41469 43.17367 85.5601
v -17.46237 43.16018 85.1314
v -16.38701 37.5662 85.59819
v -15.94945 37.58851 86.64205
v -15.97713 43.19598 86.60397
v -16.41469 43.17367 85.5601
v -15.94945 37.58851 86.64205
v -16.37832 37.60657 87.68961
v -16.40601 43.21404 87.65151
v -15.97713 43.19598 86.60397
v -16.37832 37.60657 87.68961
v -17.42241 37.60979 88.12717
v -17.45009 43.21727 88.08909
v -16.40601 43.21404 87.65151
v -17.42241 37.60979 88.12717
v -18.47009 37.5963 87.69849
v -18.49777 43.20377 87.6604
v -17.45009 43.21727 88.08909
v -18.47009 37.5963 87.69849
v -18.90765 37.57399 86.65462
v -18.93533 43.18147 86.61653
v -18.49777 43.20377 87.6604
v -18.90765 37.57399 86.65462
v -18.47877 37.55593 85.60708
v -18.50646 43.1634 85.56898
v -18.93533 43.18147 86.61653
v -18.19346 43.58084 85.87344
v -17.46258 43.57858 85.56712
v -17.45828 43.59856 86.60234
v -18.49369 43.59348 86.60674
v -16.72917 43.58803 85.86723
v -18.18739 43.6091 87.3375
v -16.42286 43.60365 86.59795
v -17.45398 43.61855 87.63759
v -16.72309 43.61629 87.33128
vt 0.6249999 0.6545655
vt 0.6203129 0.6884398
vt 0.5984371 0.6884398
vt 0.59375 0.6545655
vt 0.3796871 0.6884398
vt 0.3750001 0.6545655
vt 0.40625 0.6545655
vt 0.401563 0.6884398
vt 0.4109371 0.6884398
vt 0.40625 0.6545655
vt 0.4375 0.6545655
vt 0.432813 0.6884398
vt 0.4421871 0.6884398
vt 0.4375 0.6545655
vt 0.46875 0.6545655
vt 0.464063 0.6884398
vt 0.473437 0.6884398
vt 0.46875 0.6545655
vt 0.5 0.6545658
vt 0.4953132 0.6884398
vt 0.5046871 0.6884398
vt 0.5 0.6545658
vt 0.5312499 0.6545655
vt 0.526563 0.6884398
vt 0.535937 0.6884398
vt 0.5312499 0.6545655
vt 0.5624998 0.6545655
vt 0.5578128 0.6884398
vt 0.5671868 0.6884398
vt 0.5624998 0.6545655
vt 0.59375 0.6545655
vt 0.589063 0.6884398
vt 0.375 0.3125005
vt 0.40625 0.3125005
vt 0.40625 0.6545655
vt 0.3750001 0.6545655
vt 0.40625 0.3125005
vt 0.4375 0.3125005
vt 0.4375 0.6545655
vt 0.40625 0.6545655
vt 0.4375 0.3125005
vt 0.46875 0.3125005
vt 0.46875 0.6545655
vt 0.4375 0.6545655
vt 0.46875 0.3125005
vt 0.5000001 0.3125005
vt 0.5 0.6545658
vt 0.46875 0.6545655
vt 0.5000001 0.3125005
vt 0.53125 0.3125005
vt 0.5312499 0.6545655
vt 0.5 0.6545658
vt 0.53125 0.3125005
vt 0.5625 0.3125005
vt 0.5624998 0.6545655
vt 0.5312499 0.6545655
vt 0.5625 0.3125005
vt 0.59375 0.3125005
vt 0.59375 0.6545655
vt 0.5624998 0.6545655
vt 0.59375 0.3125005
vt 0.6249999 0.3125005
vt 0.6249999 0.6545655
vt 0.59375 0.6545655
vt 0.5773429 0.9192181
vt 0.4999999 0.9512545
vt 0.5 0.8375
vt 0.6093796 0.8418752
vt 0.4226569 0.9192182
vt 0.5773429 0.764531
vt 0.3906201 0.8418752
vt 0.5 0.7324947
vt 0.4226569 0.764531
vn -0.6579187 0.6985382 -0.2814026
vn -0.6579186 0.6985382 -0.2814025
vn -0.6579187 0.6985382 -0.2814026
vn -0.6579187 0.6985382 -0.2814026
vn -0.2768247 0.6930401 -0.6656302
vn -0.2768248 0.6930401 -0.6656302
vn -0.2768248 0.6930401 -0.6656302
vn -0.2768247 0.6930401 -0.6656302
vn 0.2643478 0.6956971 -0.6679264
vn 0.2643478 0.6956971 -0.6679264
vn 0.2643478 0.6956971 -0.6679264
vn 0.2643478 0.6956971 -0.6679264
vn 0.6486127 0.7049522 -0.286956
vn 0.6486128 0.7049523 -0.286956
vn 0.6486129 0.7049522 -0.286956
vn 0.6486128 0.7049523 -0.286956
vn 0.6508718 0.7153875 0.2541391
vn 0.6508718 0.7153875 0.2541392
vn 0.6508718 0.7153876 0.2541392
vn 0.6508718 0.7153876 0.2541392
vn 0.2697727 0.7208923 0.6383861
vn 0.2697728 0.7208923 0.6383862
vn 0.2697727 0.7208923 0.6383862
vn 0.2697727 0.7208923 0.6383861
vn -0.2714111 0.7182311 0.6406872
vn -0.2714112 0.7182311 0.6406871
vn -0.2714111 0.7182311 0.6406872
vn -0.2714111 0.7182311 0.6406872
vn -0.655667 0.7089883 0.2596849
vn -0.655667 0.7089883 0.2596849
vn -0.655667 0.7089883 0.259685
vn -0.6556669 0.7089884 0.2596849
vn -0.3865388 -0.008173147 -0.9222369
vn -0.3865388 -0.008173147 -0.9222369
vn -0.3865388 -0.008173147 -0.9222369
vn -0.3865388 -0.008173147 -0.9222369
vn 0.378757 -0.004415964 -0.9254856
vn 0.378757 -0.004415964 -0.9254856
vn 0.3787571 -0.004415965 -0.9254856
vn 0.378757 -0.004415965 -0.9254856
vn 0.9222375 0.001927067 -0.386619
vn 0.9222375 0.001927067 -0.3866191
vn 0.9222375 0.001927067 -0.386619
vn 0.9222375 0.001927067 -0.3866191
vn 0.9254652 0.007142035 0.3787654
vn 0.9254652 0.007142035 0.3787654
vn 0.9254652 0.007142036 0.3787653
vn 0.9254652 0.007142035 0.3787654
vn 0.3865292 0.00817309 0.922241
vn 0.3865293 0.008173091 0.922241
vn 0.3865293 0.008173091 0.922241
vn 0.3865293 0.008173091 0.922241
vn -0.3787525 0.004415956 0.9254875
vn -0.3787525 0.004415956 0.9254875
vn -0.3787525 0.004415956 0.9254875
vn -0.3787525 0.004415957 0.9254875
vn -0.9222381 -0.001927541 0.3866175
vn -0.9222381 -0.001927541 0.3866174
vn -0.9222381 -0.001927541 0.3866175
vn -0.9222381 -0.001927541 0.3866174
vn -0.9254636 -0.007142073 -0.3787693
vn -0.9254636 -0.007142072 -0.3787693
vn -0.9254636 -0.007142072 -0.3787693
vn -0.9254636 -0.007142072 -0.3787693
vn -0.004991545 0.9998016 -0.01928358
vn -0.004989359 0.9998018 -0.01927534
vn -0.004989746 0.9998018 -0.01927673
vn -0.004990146 0.9998017 -0.0192789
vn -0.004988099 0.9998019 -0.0192712
vn -0.004988131 0.9998019 -0.01927033
vn -0.004990146 0.9998017 -0.01927787
vn -0.004989331 0.9998018 -0.0192748
vn -0.004991208 0.9998017 -0.0192818
g collisionMesh_sideWalls_47_0
f 3/3/3 2/2/2 1/1/1
f 4/4/4 3/3/3 1/1/1
f 7/7/7 6/6/6 5/5/5
f 8/8/8 7/7/7 5/5/5
f 11/11/11 10/10/10 9/9/9
f 12/12/12 11/11/11 9/9/9
f 15/15/15 14/14/14 13/13/13
f 16/16/16 15/15/15 13/13/13
f 19/19/19 18/18/18 17/17/17
f 20/20/20 19/19/19 17/17/17
f 23/23/23 22/22/22 21/21/21
f 24/24/24 23/23/23 21/21/21
f 27/27/27 26/26/26 25/25/25
f 28/28/28 27/27/27 25/25/25
f 31/31/31 30/30/30 29/29/29
f 32/32/32 31/31/31 29/29/29
f 35/35/35 34/34/34 33/33/33
f 36/36/36 35/35/35 33/33/33
f 39/39/39 38/38/38 37/37/37
f 40/40/40 39/39/39 37/37/37
f 43/43/43 42/42/42 41/41/41
f 44/44/44 43/43/43 41/41/41
f 47/47/47 46/46/46 45/45/45
f 48/48/48 47/47/47 45/45/45
f 51/51/51 50/50/50 49/49/49
f 52/52/52 51/51/51 49/49/49
f 55/55/55 54/54/54 53/53/53
f 56/56/56 55/55/55 53/53/53
f 59/59/59 58/58/58 57/57/57
f 60/60/60 59/59/59 57/57/57
f 63/63/63 62/62/62 61/61/61
f 64/64/64 63/63/63 61/61/61
f 67/67/67 66/66/66 65/65/65
f 67/67/67 65/65/65 68/68/68
f 67/67/67 69/69/69 66/66/66
f 67/67/67 68/68/68 70/70/70
f 67/67/67 71/71/71 69/69/69
f 67/67/67 70/70/70 72/72/72
f 67/67/67 73/73/73 71/71/71
f 67/67/67 72/72/72 73/73/73
