g collisionMesh_sideWalls_16
v 21.16345 -12.65403 -55.56808
v 21.23278 -15.70879 -71.45582
v 22.45421 -15.70445 -71.43872
v 22.38488 -12.64969 -55.55099
v 21.09412 -8.807748 -39.88112
v 22.31555 -8.803412 -39.86403
v 21.03469 -4.34991 -26.72965
v 22.25612 -4.345575 -26.71256
v 22.38488 -12.64969 -55.55099
v 22.45421 -15.70445 -71.43872
v 22.45421 -19.65459 -70.43684
v 22.38488 -16.59983 -54.54911
v 22.31555 -8.803412 -39.86403
v 22.31555 -12.75355 -38.86214
v 22.25612 -8.295712 -25.71067
v 22.25612 -4.345575 -26.71256
v 21.23278 -19.65893 -70.45393
v 21.23278 -15.70879 -71.45582
v 21.16345 -12.65403 -55.56808
v 21.16345 -16.60416 -54.5662
v 21.09412 -12.75789 -38.87923
v 21.09412 -8.807748 -39.88112
v 21.03469 -8.300046 -25.72776
v 21.03469 -4.34991 -26.72965
vt 0.375 0.4125
vt 0.375 0.5
vt 0.625 0.5
vt 0.625 0.4125
vt 0.375 0.325
vt 0.625 0.325
vt 0.375 0.25
vt 0.625 0.25
vt 0.7875 0.25
vt 0.875 0.25
vt 0.875 0
vt 0.7875 0
vt 0.7 0.25
vt 0.7 0
vt 0.625 0
vt 0.625 0.25
vt 0.125 0
vt 0.125 0.25
vt 0.2125 0.25
vt 0.2125 0
vt 0.3 0
vt 0.3 0.25
vt 0.375 0
vt 0.375 0.25
vn -0.000481719 0.9769725 -0.2133647
vn -0.0008431421 0.9820119 -0.1888169
vn -0.0008431421 0.9820119 -0.1888169
vn -0.0004770169 0.976903 -0.2136831
vn 0.0004573708 0.9610307 -0.2764415
vn 0.0004653611 0.9608773 -0.2769738
vn 0.001130444 0.9470732 -0.3210159
vn 0.001130444 0.9470731 -0.3210159
vn 0.9999908 0.001055339 0.00416086
vn 0.9999908 0.001055152 0.004160857
vn 0.9999908 0.001055152 0.004160856
vn 0.9999908 0.001055347 0.004160861
vn 0.9999908 0.001055378 0.004160855
vn 0.9999908 0.001055385 0.004160856
vn 0.9999908 0.001055203 0.004160847
vn 0.9999908 0.001055203 0.004160847
vn -0.9999908 -0.001055152 -0.004160858
vn -0.9999908 -0.001055152 -0.004160858
vn -0.9999908 -0.001055339 -0.004160861
vn -0.9999908 -0.001055347 -0.004160861
vn -0.9999908 -0.001055335 -0.004160854
vn -0.9999908 -0.001055325 -0.004160855
vn -0.9999908 -0.001055092 -0.004160846
vn -0.9999908 -0.001055092 -0.004160846
g collisionMesh_sideWalls_16_0
f 3/3/3 2/2/2 1/1/1
f 4/4/4 3/3/3 1/1/1
f 4/4/4 1/1/1 5/5/5
f 6/6/6 4/4/4 5/5/5
f 6/6/6 5/5/5 7/7/7
f 8/8/8 6/6/6 7/7/7
f 11/11/11 10/10/10 9/9/9
f 12/12/12 11/11/11 9/9/9
f 12/12/12 9/9/9 13/13/13
f 14/14/14 12/12/12 13/13/13
f 14/14/14 13/13/13 15/15/15
f 13/13/13 16/16/16 15/15/15
f 19/19/19 18/18/18 17/17/17
f 20/20/20 19/19/19 17/17/17
f 20/20/20 21/21/21 19/19/19
f 21/21/21 22/22/22 19/19/19
f 21/21/21 23/23/23 22/22/22
f 23/23/23 24/24/24 22/22/22
