g collisionMesh_sideWalls_36
v -24.13072 40.36159 81.32816
v -25.35228 40.36159 81.32816
v -25.43908 36.03489 62.7809
v -24.21752 36.03489 62.7809
v -25.46209 32.78007 81.73689
v -25.43908 28.93831 64.46564
v -25.43908 36.03489 62.7809
v -25.35228 40.36159 81.32816
v -24.21752 28.93831 64.46564
v -24.24053 32.78007 81.73689
v -24.13072 40.36159 81.32816
v -24.21752 36.03489 62.7809
vt 0.375 0.25
vt 0.625 0.25
vt 0.625 0.5
vt 0.375 0.5
vt 0.625 0
vt 0.875 0
vt 0.875 0.25
vt 0.625 0.25
vt 0.125 0
vt 0.375 0
vt 0.375 0.25
vt 0.125 0.25
vn 0 0.9738528 -0.2271803
vn 0 0.9738528 -0.2271803
vn 0 0.9738528 -0.2271803
vn 0 0.9738528 -0.2271803
vn -0.999972 0.007490659 7.241161E-05
vn -0.999972 0.007490658 7.241161E-05
vn -0.999972 0.007490659 7.24116E-05
vn -0.999972 0.007490659 7.241161E-05
vn 0.999972 -0.007491393 -7.23105E-05
vn 0.999972 -0.007491393 -7.23105E-05
vn 0.999972 -0.007491393 -7.23105E-05
vn 0.999972 -0.007491394 -7.23105E-05
g collisionMesh_sideWalls_36_0
f 3/3/3 2/2/2 1/1/1
f 4/4/4 3/3/3 1/1/1
f 7/7/7 6/6/6 5/5/5
f 8/8/8 7/7/7 5/5/5
f 11/11/11 10/10/10 9/9/9
f 12/12/12 11/11/11 9/9/9
