g collisionMesh_sideWalls_18
v 4.615197 51.91287 137.7681
v 5.038672 51.91621 138.818
v 4.594821 52.32593 138.8126
v 4.298374 52.32359 138.0777
v 4.298374 52.32359 138.0777
v 3.569064 52.32235 137.7676
v 3.573367 51.91109 137.3252
v 4.615197 51.91287 137.7681
v 3.569064 52.32235 137.7676
v 2.834113 52.32293 138.0641
v 2.523479 51.91192 137.7486
v 3.573367 51.91109 137.3252
v 2.834113 52.32293 138.0641
v 2.524036 52.32499 138.7934
v 2.080539 51.91487 138.7905
v 2.523479 51.91192 137.7486
v 2.524036 52.32499 138.7934
v 2.820486 52.32733 139.5283
v 2.504012 51.91821 139.8404
v 2.080539 51.91487 138.7905
v 2.820486 52.32733 139.5283
v 3.549792 52.32857 139.8384
v 3.545838 51.91998 140.2833
v 2.504012 51.91821 139.8404
v 3.549792 52.32857 139.8384
v 4.284747 52.32799 139.5419
v 4.59573 51.91916 139.8598
v 3.545838 51.91998 140.2833
v 4.284747 52.32799 139.5419
v 4.594821 52.32593 138.8126
v 5.038672 51.91621 138.818
v 4.59573 51.91916 139.8598
v 4.546549 47.22578 137.7607
v 4.615197 51.91287 137.7681
v 3.573367 51.91109 137.3252
v 3.504719 47.224 137.3177
v 3.504719 47.224 137.3177
v 3.573367 51.91109 137.3252
v 2.523479 51.91192 137.7486
v 2.454831 47.22483 137.7412
v 2.454831 47.22483 137.7412
v 2.523479 51.91192 137.7486
v 2.080539 51.91487 138.7905
v 2.011891 47.22778 138.783
v 2.011891 47.22778 138.783
v 2.080539 51.91487 138.7905
v 2.504012 51.91821 139.8404
v 2.435364 47.23112 139.8329
v 2.435364 47.23112 139.8329
v 2.504012 51.91821 139.8404
v 3.545838 51.91998 140.2833
v 3.47719 47.23289 140.2759
v 3.47719 47.23289 140.2759
v 3.545838 51.91998 140.2833
v 4.59573 51.91916 139.8598
v 4.527082 47.23206 139.8524
v 4.527082 47.23206 139.8524
v 4.59573 51.91916 139.8598
v 5.038672 51.91621 138.818
v 4.970025 47.22911 138.8106
v 4.970025 47.22911 138.8106
v 5.038672 51.91621 138.818
v 4.615197 51.91287 137.7681
v 4.546549 47.22578 137.7607
v 4.298374 52.32359 138.0777
v 3.559428 52.32546 138.803
v 3.569064 52.32235 137.7676
v 4.594821 52.32593 138.8126
v 2.834113 52.32293 138.0641
v 4.284747 52.32799 139.5419
v 2.524036 52.32499 138.7934
v 3.549792 52.32857 139.8384
v 2.820486 52.32733 139.5283
vt 0.6249999 0.6545655
vt 0.59375 0.6545655
vt 0.5984371 0.6884398
vt 0.6203129 0.6884398
vt 0.3796871 0.6884398
vt 0.401563 0.6884398
vt 0.40625 0.6545655
vt 0.3750001 0.6545655
vt 0.4109371 0.6884398
vt 0.432813 0.6884398
vt 0.4375 0.6545655
vt 0.40625 0.6545655
vt 0.4421871 0.6884398
vt 0.464063 0.6884398
vt 0.46875 0.6545655
vt 0.4375 0.6545655
vt 0.473437 0.6884398
vt 0.4953132 0.6884398
vt 0.5 0.6545658
vt 0.46875 0.6545655
vt 0.5046871 0.6884398
vt 0.526563 0.6884398
vt 0.5312499 0.6545655
vt 0.5 0.6545658
vt 0.535937 0.6884398
vt 0.5578128 0.6884398
vt 0.5624998 0.6545655
vt 0.5312499 0.6545655
vt 0.5671868 0.6884398
vt 0.589063 0.6884398
vt 0.59375 0.6545655
vt 0.5624998 0.6545655
vt 0.375 0.3125005
vt 0.3750001 0.6545655
vt 0.40625 0.6545655
vt 0.40625 0.3125005
vt 0.40625 0.3125005
vt 0.40625 0.6545655
vt 0.4375 0.6545655
vt 0.4375 0.3125005
vt 0.4375 0.3125005
vt 0.4375 0.6545655
vt 0.46875 0.6545655
vt 0.46875 0.3125005
vt 0.46875 0.3125005
vt 0.46875 0.6545655
vt 0.5 0.6545658
vt 0.5000001 0.3125005
vt 0.5000001 0.3125005
vt 0.5 0.6545658
vt 0.5312499 0.6545655
vt 0.53125 0.3125005
vt 0.53125 0.3125005
vt 0.5312499 0.6545655
vt 0.5624998 0.6545655
vt 0.5625 0.3125005
vt 0.5625 0.3125005
vt 0.5624998 0.6545655
vt 0.59375 0.6545655
vt 0.59375 0.3125005
vt 0.59375 0.3125005
vt 0.59375 0.6545655
vt 0.6249999 0.6545655
vt 0.6249999 0.3125005
vt 0.5773429 0.9192181
vt 0.5 0.8375
vt 0.4999999 0.9512545
vt 0.6093796 0.8418752
vt 0.4226569 0.9192182
vt 0.5773429 0.764531
vt 0.3906201 0.8418752
vt 0.5 0.7324947
vt 0.4226569 0.764531
vn 0.6554722 0.7065827 -0.2666408
vn 0.6554722 0.7065826 -0.2666408
vn 0.655472 0.7065827 -0.2666408
vn 0.655472 0.7065827 -0.2666408
vn 0.2763599 0.7052675 -0.6528575
vn 0.2763599 0.7052675 -0.6528575
vn 0.2763599 0.7052675 -0.6528575
vn 0.2763598 0.7052675 -0.6528575
vn -0.2648085 0.7050291 -0.6578833
vn -0.2648085 0.705029 -0.6578833
vn -0.2648085 0.7050291 -0.6578833
vn -0.2648085 0.705029 -0.6578833
vn -0.651031 0.705997 -0.2787953
vn -0.651031 0.705997 -0.2787954
vn -0.651031 0.705997 -0.2787954
vn -0.651031 0.705997 -0.2787953
vn -0.6560811 0.7076137 0.2623746
vn -0.6560811 0.7076136 0.2623746
vn -0.6560811 0.7076136 0.2623746
vn -0.6560811 0.7076136 0.2623746
vn -0.2769681 0.7089357 0.6486131
vn -0.276968 0.7089357 0.6486131
vn -0.2769681 0.7089356 0.6486132
vn -0.276968 0.7089357 0.6486131
vn 0.2642008 0.709181 0.6536515
vn 0.2642008 0.709181 0.6536515
vn 0.2642008 0.709181 0.6536515
vn 0.2642009 0.709181 0.6536515
vn 0.6504393 0.7082084 0.2745353
vn 0.6504393 0.7082083 0.2745353
vn 0.6504393 0.7082084 0.2745353
vn 0.6504393 0.7082083 0.2745353
vn 0.3912665 -0.004273339 -0.9202675
vn 0.3912665 -0.004273338 -0.9202675
vn 0.3912665 -0.004273339 -0.9202675
vn 0.3912665 -0.004273338 -0.9202675
vn -0.3740537 0.006945931 -0.927381
vn -0.3740537 0.006945932 -0.927381
vn -0.3740537 0.006945931 -0.927381
vn -0.3740537 0.006945931 -0.927381
vn -0.9201727 0.01409612 -0.391259
vn -0.9201726 0.01409612 -0.391259
vn -0.9201726 0.01409612 -0.391259
vn -0.9201726 0.01409612 -0.391259
vn -0.927339 0.01298979 0.3739972
vn -0.927339 0.01298979 0.3739971
vn -0.927339 0.01298979 0.3739972
vn -0.927339 0.01298979 0.3739971
vn -0.3912438 0.004274147 0.9202772
vn -0.3912437 0.004274147 0.9202772
vn -0.3912437 0.004274146 0.9202772
vn -0.3912437 0.004274146 0.9202772
vn 0.3740367 -0.00694587 0.9273878
vn 0.3740367 -0.006945868 0.9273878
vn 0.3740367 -0.006945868 0.9273878
vn 0.3740367 -0.006945869 0.9273878
vn 0.9201731 -0.01409661 0.3912579
vn 0.9201731 -0.01409661 0.391258
vn 0.9201731 -0.01409661 0.3912579
vn 0.9201731 -0.01409661 0.391258
vn 0.9273353 -0.01298984 -0.3740061
vn 0.9273353 -0.01298984 -0.3740062
vn 0.9273353 -0.01298984 -0.3740061
vn 0.9273353 -0.01298984 -0.3740062
vn -0.0004254837 0.9999954 -0.003013295
vn -0.0004242531 0.9999954 -0.003010445
vn -0.0004254529 0.9999954 -0.00302754
vn -0.0004247015 0.9999955 -0.003004985
vn -0.000424648 0.9999954 -0.003015175
vn -0.0004236975 0.9999955 -0.003004237
vn -0.0004246697 0.9999955 -0.003000866
vn -0.0004221884 0.9999955 -0.003008391
vn -0.0004231832 0.9999955 -0.003009074
g collisionMesh_sideWalls_18_0
f 3/3/3 2/2/2 1/1/1
f 4/4/4 3/3/3 1/1/1
f 7/7/7 6/6/6 5/5/5
f 8/8/8 7/7/7 5/5/5
f 11/11/11 10/10/10 9/9/9
f 12/12/12 11/11/11 9/9/9
f 15/15/15 14/14/14 13/13/13
f 16/16/16 15/15/15 13/13/13
f 19/19/19 18/18/18 17/17/17
f 20/20/20 19/19/19 17/17/17
f 23/23/23 22/22/22 21/21/21
f 24/24/24 23/23/23 21/21/21
f 27/27/27 26/26/26 25/25/25
f 28/28/28 27/27/27 25/25/25
f 31/31/31 30/30/30 29/29/29
f 32/32/32 31/31/31 29/29/29
f 35/35/35 34/34/34 33/33/33
f 36/36/36 35/35/35 33/33/33
f 39/39/39 38/38/38 37/37/37
f 40/40/40 39/39/39 37/37/37
f 43/43/43 42/42/42 41/41/41
f 44/44/44 43/43/43 41/41/41
f 47/47/47 46/46/46 45/45/45
f 48/48/48 47/47/47 45/45/45
f 51/51/51 50/50/50 49/49/49
f 52/52/52 51/51/51 49/49/49
f 55/55/55 54/54/54 53/53/53
f 56/56/56 55/55/55 53/53/53
f 59/59/59 58/58/58 57/57/57
f 60/60/60 59/59/59 57/57/57
f 63/63/63 62/62/62 61/61/61
f 64/64/64 63/63/63 61/61/61
f 67/67/67 66/66/66 65/65/65
f 65/65/65 66/66/66 68/68/68
f 69/69/69 66/66/66 67/67/67
f 68/68/68 66/66/66 70/70/70
f 71/71/71 66/66/66 69/69/69
f 70/70/70 66/66/66 72/72/72
f 73/73/73 66/66/66 71/71/71
f 72/72/72 66/66/66 73/73/73
