g collisionMesh_wall02
v -0.490169 -0.9788709 5.353053
v -0.490169 3.448187 4.159474
v 0.490169 3.448187 4.159474
v 0.490169 -0.9788709 5.353053
v -0.490169 3.448187 4.159474
v -0.490169 0.7002245 -5.357323
v 0.490169 0.7002245 -5.357323
v 0.490169 3.448187 4.159474
v -0.490169 0.7002245 -5.357323
v -0.490169 -3.726833 -4.163744
v 0.490169 -3.726833 -4.163744
v 0.490169 0.7002245 -5.357323
v 0.490169 -0.9788709 5.353053
v 0.490169 3.448187 4.159474
v 0.490169 0.7002245 -5.357323
v 0.490169 -3.726833 -4.163744
v -0.490169 -3.726833 -4.163744
v -0.490169 0.7002245 -5.357323
v -0.490169 3.448187 4.159474
v -0.490169 -0.9788709 5.353053
vt 0.375 0
vt 0.375 0.25
vt 0.625 0.25
vt 0.625 0
vt 0.375 0.25
vt 0.375 0.5
vt 0.625 0.5
vt 0.625 0.25
vt 0.375 0.5
vt 0.375 0.75
vt 0.625 0.75
vt 0.625 0.5
vt 0.625 0
vt 0.625 0.25
vt 0.875 0.25
vt 0.875 0
vt 0.125 0
vt 0.125 0.25
vt 0.375 0.25
vt 0.375 0
vn 0 0.2603145 0.9655239
vn 0 0.2603145 0.9655239
vn 0 0.2603145 0.9655239
vn 0 0.2603145 0.9655239
vn 0 0.9607501 -0.2774154
vn 0 0.9607501 -0.2774154
vn 0 0.9607501 -0.2774154
vn 0 0.9607501 -0.2774154
vn 0 -0.2603146 -0.9655238
vn 0 -0.2603146 -0.9655238
vn 0 -0.2603146 -0.9655238
vn 0 -0.2603146 -0.9655238
vn 1 0 0
vn 1 0 0
vn 1 0 0
vn 1 0 0
vn -1 0 0
vn -1 0 0
vn -1 0 0
vn -1 0 0
g collisionMesh_wall02_0
f 3/3/3 2/2/2 1/1/1
f 4/4/4 3/3/3 1/1/1
f 7/7/7 6/6/6 5/5/5
f 8/8/8 7/7/7 5/5/5
f 11/11/11 10/10/10 9/9/9
f 12/12/12 11/11/11 9/9/9
f 15/15/15 14/14/14 13/13/13
f 16/16/16 15/15/15 13/13/13
f 19/19/19 18/18/18 17/17/17
f 20/20/20 19/19/19 17/17/17
