g collisionMesh_prism02
v 0.3292832 3.831148 2.201464
v 2.117414 1.684198 -1.091747
v 1.89237 -1.911424 1.13016
v 0.1042406 0.2355295 4.423373
v -1.89237 1.911425 -1.13016
v -2.117414 -1.684195 1.091749
v -0.3292836 -3.831147 -2.201465
v -0.1042397 -0.2355276 -4.423373
v 1.89237 -1.911424 1.13016
v 2.117414 1.684198 -1.091747
v 0.1614195 -0.2505819 -4.420828
v -0.06362444 -3.846201 -2.198919
v -2.117414 -1.684195 1.091749
v -1.89237 1.911425 -1.13016
v 0.06362409 3.846203 2.198921
v -0.1614186 0.2505832 4.420829
v 0.06362409 3.846203 2.198921
v 2.117414 1.684198 -1.091747
v 0.3292832 3.831148 2.201464
v -1.89237 1.911425 -1.13016
v 0.1614195 -0.2505819 -4.420828
v -0.1042397 -0.2355276 -4.423373
v -0.1614186 0.2505832 4.420829
v 0.06362409 3.846203 2.198921
v 0.3292832 3.831148 2.201464
v 0.1042406 0.2355295 4.423373
v -0.1042397 -0.2355276 -4.423373
v -0.3292836 -3.831147 -2.201465
v -0.06362444 -3.846201 -2.198919
v 0.1614195 -0.2505819 -4.420828
vt 0.3999975 0.25
vt 0.625 0.25
vt 0.625 0
vt 0.3999975 4.470348E-08
vt 0.375 0.5
vt 0.375 0.75
vt 0.6000025 0.75
vt 0.6000025 0.5
vt 0.625 0
vt 0.625 0.25
vt 0.8500025 0.25
vt 0.8500025 1.862645E-09
vt 0.125 1.766342E-09
vt 0.125 0.25
vt 0.3500026 0.25
vt 0.3500026 -3.72529E-09
vt 0.375 0.2749975
vt 0.625 0.25
vt 0.3999975 0.25
vt 0.375 0.5
vt 0.625 0.4750024
vt 0.6000025 0.5
vt 0.3500026 -3.72529E-09
vt 0.3500026 0.25
vt 0.3999975 0.25
vt 0.3999975 4.470348E-08
vt 0.6000025 0.5
vt 0.6000025 0.75
vt 0.6249999 0.75
vt 0.625 0.4750024
vn 0.9087074 0.1767993 0.3781438
vn 0.9087074 0.1767993 0.3781438
vn 0.9087074 0.1767992 0.3781438
vn 0.9087075 0.1767992 0.3781438
vn -0.9087075 -0.1767989 -0.3781438
vn -0.9087075 -0.1767989 -0.3781438
vn -0.9087075 -0.1767989 -0.3781438
vn -0.9087075 -0.1767989 -0.3781438
vn 0.8899736 -0.2787274 -0.3609127
vn 0.8899736 -0.2787274 -0.3609127
vn 0.8899736 -0.2787274 -0.3609127
vn 0.8899736 -0.2787274 -0.3609127
vn -0.8899736 0.2787275 0.3609127
vn -0.8899736 0.2787275 0.3609127
vn -0.8899736 0.2787275 0.3609126
vn -0.8899736 0.2787275 0.3609126
vn 0.05316713 0.8494802 -0.5249348
vn 0.05316713 0.8494802 -0.5249348
vn 0.05316713 0.8494802 -0.5249348
vn 0.05316713 0.8494802 -0.5249348
vn 0.05316738 0.8494801 -0.5249351
vn 0.05316738 0.8494801 -0.5249351
vn 0.02157786 0.5245787 0.8510886
vn 0.02157786 0.5245787 0.8510886
vn 0.02157786 0.5245787 0.8510886
vn 0.02157786 0.5245787 0.8510886
vn -0.02157376 -0.5245788 -0.8510885
vn -0.02157376 -0.5245788 -0.8510885
vn -0.02157376 -0.5245788 -0.8510885
vn -0.02157376 -0.5245788 -0.8510885
g collisionMesh_prism02_0
f 3/3/3 2/2/2 1/1/1
f 4/4/4 3/3/3 1/1/1
f 7/7/7 6/6/6 5/5/5
f 8/8/8 7/7/7 5/5/5
f 11/11/11 10/10/10 9/9/9
f 12/12/12 11/11/11 9/9/9
f 15/15/15 14/14/14 13/13/13
f 16/16/16 15/15/15 13/13/13
f 19/19/19 18/18/18 17/17/17
f 18/18/18 20/20/20 17/17/17
f 18/18/18 21/21/21 20/20/20
f 21/21/21 22/22/22 20/20/20
f 25/25/25 24/24/24 23/23/23
f 26/26/26 25/25/25 23/23/23
f 29/29/29 28/28/28 27/27/27
f 30/30/30 29/29/29 27/27/27
