g collisionMesh_sideWalls_48
v -25.57922 42.1907 81.39727
v -25.26623 42.60814 81.70173
v -25.56646 42.62078 82.43502
v -26.0081 42.20876 82.44481
v -25.26623 42.60814 81.70173
v -25.57922 42.1907 81.39727
v -24.53514 42.18747 80.95969
v -24.53534 42.60587 81.3954
v -24.53534 42.60587 81.3954
v -24.53514 42.18747 80.95969
v -23.48746 42.20096 81.38838
v -23.80194 42.61532 81.6955
v -23.80194 42.61532 81.6955
v -23.48746 42.20096 81.38838
v -23.0499 42.22327 82.43224
v -23.49562 42.63094 82.42623
v -23.49562 42.63094 82.42623
v -23.0499 42.22327 82.43224
v -23.47877 42.24133 83.47979
v -23.79585 42.64358 83.15956
v -23.79585 42.64358 83.15956
v -23.47877 42.24133 83.47979
v -24.52285 42.24456 83.91737
v -24.52674 42.64584 83.46587
v -24.52674 42.64584 83.46587
v -24.52285 42.24456 83.91737
v -25.57054 42.23106 83.48868
v -25.26015 42.63639 83.16578
v -25.26015 42.63639 83.16578
v -25.57054 42.23106 83.48868
v -26.0081 42.20876 82.44481
v -25.56646 42.62078 82.43502
v -25.53167 32.66148 81.58101
v -24.48758 32.65825 81.14342
v -24.53514 42.18747 80.95969
v -25.57922 42.1907 81.39727
v -24.48758 32.65825 81.14342
v -23.43991 32.67174 81.57212
v -23.48746 42.20096 81.38838
v -24.53514 42.18747 80.95969
v -23.43991 32.67174 81.57212
v -23.00235 32.69405 82.61598
v -23.0499 42.22327 82.43224
v -23.48746 42.20096 81.38838
v -23.00235 32.69405 82.61598
v -23.43122 32.71211 83.66354
v -23.47877 42.24133 83.47979
v -23.0499 42.22327 82.43224
v -23.43122 32.71211 83.66354
v -24.4753 32.71534 84.10111
v -24.52285 42.24456 83.91737
v -23.47877 42.24133 83.47979
v -24.4753 32.71534 84.10111
v -25.52298 32.70184 83.67242
v -25.57054 42.23106 83.48868
v -24.52285 42.24456 83.91737
v -25.52298 32.70184 83.67242
v -25.96054 32.67953 82.62856
v -26.0081 42.20876 82.44481
v -25.57054 42.23106 83.48868
v -25.96054 32.67953 82.62856
v -25.53167 32.66148 81.58101
v -25.57922 42.1907 81.39727
v -26.0081 42.20876 82.44481
v -25.26623 42.60814 81.70173
v -24.53534 42.60587 81.3954
v -24.53104 42.62585 82.43063
v -25.56646 42.62078 82.43502
v -23.80194 42.61532 81.6955
v -25.26015 42.63639 83.16578
v -23.49562 42.63094 82.42623
v -24.52674 42.64584 83.46587
v -23.79585 42.64358 83.15956
vt 0.6249999 0.6545655
vt 0.6203129 0.6884398
vt 0.5984371 0.6884398
vt 0.59375 0.6545655
vt 0.3796871 0.6884398
vt 0.3750001 0.6545655
vt 0.40625 0.6545655
vt 0.401563 0.6884398
vt 0.4109371 0.6884398
vt 0.40625 0.6545655
vt 0.4375 0.6545655
vt 0.432813 0.6884398
vt 0.4421871 0.6884398
vt 0.4375 0.6545655
vt 0.46875 0.6545655
vt 0.464063 0.6884398
vt 0.473437 0.6884398
vt 0.46875 0.6545655
vt 0.5 0.6545658
vt 0.4953132 0.6884398
vt 0.5046871 0.6884398
vt 0.5 0.6545658
vt 0.5312499 0.6545655
vt 0.526563 0.6884398
vt 0.535937 0.6884398
vt 0.5312499 0.6545655
vt 0.5624998 0.6545655
vt 0.5578128 0.6884398
vt 0.5671868 0.6884398
vt 0.5624998 0.6545655
vt 0.59375 0.6545655
vt 0.589063 0.6884398
vt 0.375 0.3125005
vt 0.40625 0.3125005
vt 0.40625 0.6545655
vt 0.3750001 0.6545655
vt 0.40625 0.3125005
vt 0.4375 0.3125005
vt 0.4375 0.6545655
vt 0.40625 0.6545655
vt 0.4375 0.3125005
vt 0.46875 0.3125005
vt 0.46875 0.6545655
vt 0.4375 0.6545655
vt 0.46875 0.3125005
vt 0.5000001 0.3125005
vt 0.5 0.6545658
vt 0.46875 0.6545655
vt 0.5000001 0.3125005
vt 0.53125 0.3125005
vt 0.5312499 0.6545655
vt 0.5 0.6545658
vt 0.53125 0.3125005
vt 0.5625 0.3125005
vt 0.5624998 0.6545655
vt 0.5312499 0.6545655
vt 0.5625 0.3125005
vt 0.59375 0.3125005
vt 0.59375 0.6545655
vt 0.5624998 0.6545655
vt 0.59375 0.3125005
vt 0.6249999 0.3125005
vt 0.6249999 0.6545655
vt 0.59375 0.6545655
vt 0.5773429 0.9192181
vt 0.4999999 0.9512545
vt 0.5 0.8375
vt 0.6093796 0.8418752
vt 0.4226569 0.9192182
vt 0.5773429 0.764531
vt 0.3906201 0.8418752
vt 0.5 0.7324947
vt 0.4226569 0.764531
vn -0.6579216 0.6985338 -0.2814066
vn -0.6579216 0.6985338 -0.2814066
vn -0.6579217 0.6985338 -0.2814067
vn -0.6579217 0.6985338 -0.2814066
vn -0.2768283 0.6930413 -0.6656275
vn -0.2768283 0.6930412 -0.6656275
vn -0.2768283 0.6930412 -0.6656275
vn -0.2768283 0.6930413 -0.6656275
vn 0.2643438 0.6956999 -0.6679251
vn 0.2643438 0.6956998 -0.6679252
vn 0.2643438 0.6956998 -0.6679252
vn 0.2643438 0.6956998 -0.6679252
vn 0.6486198 0.7049464 -0.2869541
vn 0.6486198 0.7049464 -0.2869541
vn 0.6486198 0.7049464 -0.2869541
vn 0.6486198 0.7049464 -0.2869541
vn 0.6508692 0.7153904 0.2541375
vn 0.6508692 0.7153904 0.2541375
vn 0.6508691 0.7153904 0.2541375
vn 0.6508691 0.7153904 0.2541375
vn 0.2697738 0.7208972 0.6383802
vn 0.2697738 0.7208972 0.6383802
vn 0.2697738 0.7208972 0.6383802
vn 0.2697738 0.7208972 0.6383802
vn -0.2714082 0.7182355 0.6406835
vn -0.2714082 0.7182354 0.6406835
vn -0.2714082 0.7182355 0.6406835
vn -0.2714082 0.7182355 0.6406835
vn -0.6556728 0.7089818 0.2596884
vn -0.6556728 0.7089818 0.2596884
vn -0.6556728 0.7089818 0.2596884
vn -0.6556728 0.7089818 0.2596884
vn -0.3865111 -0.01970794 -0.9220742
vn -0.3865111 -0.01970794 -0.9220742
vn -0.3865111 -0.01970794 -0.9220742
vn -0.3865111 -0.01970794 -0.9220742
vn 0.378836 -0.01595144 -0.9253263
vn 0.378836 -0.01595144 -0.9253263
vn 0.378836 -0.01595144 -0.9253263
vn 0.378836 -0.01595144 -0.9253263
vn 0.9222729 -0.002850582 -0.386529
vn 0.9222729 -0.002850582 -0.386529
vn 0.9222729 -0.002850583 -0.386529
vn 0.9222729 -0.002850582 -0.386529
vn 0.9254505 0.01192007 0.3786811
vn 0.9254505 0.01192008 0.3786812
vn 0.9254505 0.01192007 0.3786812
vn 0.9254505 0.01192007 0.3786812
vn 0.386503 0.01970801 0.9220775
vn 0.3865031 0.01970801 0.9220775
vn 0.386503 0.01970801 0.9220775
vn 0.3865031 0.01970801 0.9220775
vn -0.3788332 0.0159514 0.9253275
vn -0.3788332 0.01595139 0.9253275
vn -0.3788332 0.0159514 0.9253275
vn -0.3788332 0.01595139 0.9253275
vn -0.9222715 0.002850442 0.3865321
vn -0.9222715 0.002850442 0.3865321
vn -0.9222715 0.002850442 0.3865321
vn -0.9222715 0.002850442 0.3865321
vn -0.9254495 -0.01191962 -0.3786837
vn -0.9254494 -0.01191961 -0.3786837
vn -0.9254495 -0.01191962 -0.3786837
vn -0.9254495 -0.01191962 -0.3786837
vn -0.004985916 0.9998017 -0.01927936
vn -0.004989282 0.9998018 -0.01927529
vn -0.004988546 0.9998018 -0.01927695
vn -0.004985503 0.9998017 -0.01928094
vn -0.004991299 0.9998017 -0.01927834
vn -0.004988196 0.9998018 -0.01927652
vn -0.004990141 0.9998018 -0.01927682
vn -0.004989256 0.9998018 -0.01927476
vn -0.004988769 0.9998018 -0.01927359
g collisionMesh_sideWalls_48_0
f 3/3/3 2/2/2 1/1/1
f 4/4/4 3/3/3 1/1/1
f 7/7/7 6/6/6 5/5/5
f 8/8/8 7/7/7 5/5/5
f 11/11/11 10/10/10 9/9/9
f 12/12/12 11/11/11 9/9/9
f 15/15/15 14/14/14 13/13/13
f 16/16/16 15/15/15 13/13/13
f 19/19/19 18/18/18 17/17/17
f 20/20/20 19/19/19 17/17/17
f 23/23/23 22/22/22 21/21/21
f 24/24/24 23/23/23 21/21/21
f 27/27/27 26/26/26 25/25/25
f 28/28/28 27/27/27 25/25/25
f 31/31/31 30/30/30 29/29/29
f 32/32/32 31/31/31 29/29/29
f 35/35/35 34/34/34 33/33/33
f 36/36/36 35/35/35 33/33/33
f 39/39/39 38/38/38 37/37/37
f 40/40/40 39/39/39 37/37/37
f 43/43/43 42/42/42 41/41/41
f 44/44/44 43/43/43 41/41/41
f 47/47/47 46/46/46 45/45/45
f 48/48/48 47/47/47 45/45/45
f 51/51/51 50/50/50 49/49/49
f 52/52/52 51/51/51 49/49/49
f 55/55/55 54/54/54 53/53/53
f 56/56/56 55/55/55 53/53/53
f 59/59/59 58/58/58 57/57/57
f 60/60/60 59/59/59 57/57/57
f 63/63/63 62/62/62 61/61/61
f 64/64/64 63/63/63 61/61/61
f 67/67/67 66/66/66 65/65/65
f 67/67/67 65/65/65 68/68/68
f 67/67/67 69/69/69 66/66/66
f 67/67/67 68/68/68 70/70/70
f 67/67/67 71/71/71 69/69/69
f 67/67/67 70/70/70 72/72/72
f 67/67/67 73/73/73 71/71/71
f 67/67/67 72/72/72 73/73/73
