g collisionMesh_prism07
v -2.00822 1.836195 -1.052289
v -2.008071 -1.850808 1.026658
v -0.1043886 -3.754781 -2.350168
v -0.1045376 -0.06777792 -4.429114
v -2.008071 -1.850808 1.026658
v -2.00822 1.836195 -1.052289
v -0.1617006 3.753813 2.348471
v -0.1615517 0.06681132 4.427416
v -0.1615517 0.06681132 4.427416
v -0.1617006 3.753813 2.348471
v 1.354369 3.755573 2.349589
v 1.354518 0.06857096 4.428535
v -0.1045376 -0.06777792 -4.429114
v -0.1043886 -3.754781 -2.350168
v 1.411681 -3.753021 -2.349047
v 1.411534 -0.06601827 -4.427993
v -2.00822 1.836195 -1.052289
v -0.1045376 -0.06777792 -4.429114
v 1.411534 -0.06601827 -4.427993
v 1.354369 3.755573 2.349589
v -0.1617006 3.753813 2.348471
vt 0.375 0.5
vt 0.375 0.75
vt 0.6000025 0.75
vt 0.6000025 0.5
vt 0.125 1.766342E-09
vt 0.125 0.25
vt 0.3500026 0.25
vt 0.3500026 -3.72529E-09
vt 0.3500026 -3.72529E-09
vt 0.3500026 0.25
vt 0.3999975 0.25
vt 0.3999975 4.470348E-08
vt 0.6000025 0.5
vt 0.6000025 0.75
vt 0.6249999 0.75
vt 0.625 0.4750024
vt 0.375 0.5
vt 0.6000025 0.5
vt 0.625 0.4750024
vt 0.3999975 0.25
vt 0.375 0.2749975
vn -0.8976106 -0.2165254 -0.3839427
vn -0.8976106 -0.2165254 -0.3839427
vn -0.8976106 -0.2165254 -0.3839427
vn -0.8976106 -0.2165254 -0.3839427
vn -0.9039901 0.2099692 0.3724443
vn -0.9039901 0.2099691 0.3724443
vn -0.9039901 0.2099691 0.3724443
vn -0.9039901 0.2099691 0.3724443
vn -0.00121259 0.4911592 0.8710689
vn -0.001212591 0.4911592 0.8710689
vn -0.00121259 0.4911592 0.8710689
vn -0.001212591 0.4911592 0.8710689
vn 0.001214034 -0.4911592 -0.8710689
vn 0.001214033 -0.4911592 -0.8710689
vn 0.001214033 -0.4911592 -0.8710689
vn 0.001214033 -0.4911592 -0.8710689
vn -0.0003470979 0.8710685 -0.4911613
vn -0.0006473567 0.8709217 -0.4914214
vn -0.0003399361 0.8710552 -0.4911851
vn -0.0003403997 0.8710819 -0.4911377
vn -0.0006488073 0.8712123 -0.4909059
g collisionMesh_prism07_0
f 3/3/3 2/2/2 1/1/1
f 4/4/4 3/3/3 1/1/1
f 7/7/7 6/6/6 5/5/5
f 8/8/8 7/7/7 5/5/5
f 11/11/11 10/10/10 9/9/9
f 12/12/12 11/11/11 9/9/9
f 15/15/15 14/14/14 13/13/13
f 16/16/16 15/15/15 13/13/13
f 19/19/19 18/18/18 17/17/17
f 20/20/20 19/19/19 17/17/17
f 20/20/20 17/17/17 21/21/21
