g collisionMesh_sideWalls_57
v 5.850605 42.84856 91.87954
v 6.279478 42.86662 92.92709
v 5.837837 43.27864 92.91729
v 5.537612 43.266 92.184
v 5.537612 43.266 92.184
v 4.806724 43.26374 91.87769
v 4.806519 42.84533 91.44196
v 5.850605 42.84856 91.87954
v 4.806724 43.26374 91.87769
v 4.073315 43.27318 92.17778
v 3.758838 42.85883 91.87066
v 4.806519 42.84533 91.44196
v 4.073315 43.27318 92.17778
v 3.767007 43.2888 92.9085
v 3.321279 42.88114 92.91452
v 3.758838 42.85883 91.87066
v 3.767007 43.2888 92.9085
v 4.067236 43.30145 93.64183
v 3.750151 42.8992 93.96207
v 3.321279 42.88114 92.91452
v 4.067236 43.30145 93.64183
v 4.79812 43.3037 93.94814
v 4.794233 42.90242 94.39964
v 3.750151 42.8992 93.96207
v 4.79812 43.3037 93.94814
v 5.531528 43.29426 93.64806
v 5.841919 42.88893 93.97095
v 4.794233 42.90242 94.39964
v 5.531528 43.29426 93.64806
v 5.837837 43.27864 92.91729
v 6.279478 42.86662 92.92709
v 5.841919 42.88893 93.97095
v 5.82292 37.24109 91.91763
v 5.850605 42.84856 91.87954
v 4.806519 42.84533 91.44196
v 4.778833 37.23786 91.48005
v 4.778833 37.23786 91.48005
v 4.806519 42.84533 91.44196
v 3.758838 42.85883 91.87066
v 3.731157 37.25136 91.90874
v 3.731157 37.25136 91.90874
v 3.758838 42.85883 91.87066
v 3.321279 42.88114 92.91452
v 3.293599 37.27367 92.95261
v 3.293599 37.27367 92.95261
v 3.321279 42.88114 92.91452
v 3.750151 42.8992 93.96207
v 3.722471 37.29173 94.00016
v 3.722471 37.29173 94.00016
v 3.750151 42.8992 93.96207
v 4.794233 42.90242 94.39964
v 4.766548 37.29495 94.43773
v 4.766548 37.29495 94.43773
v 4.794233 42.90242 94.39964
v 5.841919 42.88893 93.97095
v 5.814233 37.28146 94.00904
v 5.814233 37.28146 94.00904
v 5.841919 42.88893 93.97095
v 6.279478 42.86662 92.92709
v 6.251792 37.25915 92.96517
v 6.251792 37.25915 92.96517
v 6.279478 42.86662 92.92709
v 5.850605 42.84856 91.87954
v 5.82292 37.24109 91.91763
v 5.537612 43.266 92.184
v 4.802422 43.28372 92.9129
v 4.806724 43.26374 91.87769
v 5.837837 43.27864 92.91729
v 4.073315 43.27318 92.17778
v 5.531528 43.29426 93.64806
v 3.767007 43.2888 92.9085
v 4.79812 43.3037 93.94814
v 4.067236 43.30145 93.64183
vt 0.6249999 0.6545655
vt 0.59375 0.6545655
vt 0.5984371 0.6884398
vt 0.6203129 0.6884398
vt 0.3796871 0.6884398
vt 0.401563 0.6884398
vt 0.40625 0.6545655
vt 0.3750001 0.6545655
vt 0.4109371 0.6884398
vt 0.432813 0.6884398
vt 0.4375 0.6545655
vt 0.40625 0.6545655
vt 0.4421871 0.6884398
vt 0.464063 0.6884398
vt 0.46875 0.6545655
vt 0.4375 0.6545655
vt 0.473437 0.6884398
vt 0.4953132 0.6884398
vt 0.5 0.6545658
vt 0.46875 0.6545655
vt 0.5046871 0.6884398
vt 0.526563 0.6884398
vt 0.5312499 0.6545655
vt 0.5 0.6545658
vt 0.535937 0.6884398
vt 0.5578128 0.6884398
vt 0.5624998 0.6545655
vt 0.5312499 0.6545655
vt 0.5671868 0.6884398
vt 0.589063 0.6884398
vt 0.59375 0.6545655
vt 0.5624998 0.6545655
vt 0.375 0.3125005
vt 0.3750001 0.6545655
vt 0.40625 0.6545655
vt 0.40625 0.3125005
vt 0.40625 0.3125005
vt 0.40625 0.6545655
vt 0.4375 0.6545655
vt 0.4375 0.3125005
vt 0.4375 0.3125005
vt 0.4375 0.6545655
vt 0.46875 0.6545655
vt 0.46875 0.3125005
vt 0.46875 0.3125005
vt 0.46875 0.6545655
vt 0.5 0.6545658
vt 0.5000001 0.3125005
vt 0.5000001 0.3125005
vt 0.5 0.6545658
vt 0.5312499 0.6545655
vt 0.53125 0.3125005
vt 0.53125 0.3125005
vt 0.5312499 0.6545655
vt 0.5624998 0.6545655
vt 0.5625 0.3125005
vt 0.5625 0.3125005
vt 0.5624998 0.6545655
vt 0.59375 0.6545655
vt 0.59375 0.3125005
vt 0.59375 0.3125005
vt 0.59375 0.6545655
vt 0.6249999 0.6545655
vt 0.6249999 0.3125005
vt 0.5773429 0.9192181
vt 0.5 0.8375
vt 0.4999999 0.9512545
vt 0.6093796 0.8418752
vt 0.4226569 0.9192182
vt 0.5773429 0.764531
vt 0.3906201 0.8418752
vt 0.5 0.7324947
vt 0.4226569 0.764531
vn 0.6579142 0.6985415 -0.2814047
vn 0.6579142 0.6985415 -0.2814047
vn 0.6579142 0.6985415 -0.2814047
vn 0.6579142 0.6985415 -0.2814047
vn 0.2768266 0.6930407 -0.6656288
vn 0.2768266 0.6930405 -0.6656288
vn 0.2768266 0.6930407 -0.6656288
vn 0.2768266 0.6930407 -0.6656288
vn -0.2643446 0.6956953 -0.6679297
vn -0.2643446 0.6956953 -0.6679297
vn -0.2643446 0.6956953 -0.6679297
vn -0.2643446 0.6956952 -0.6679298
vn -0.6486156 0.704949 -0.2869578
vn -0.6486156 0.7049489 -0.2869578
vn -0.6486156 0.7049489 -0.2869578
vn -0.6486156 0.7049489 -0.2869578
vn -0.6508688 0.7153898 0.25414
vn -0.6508688 0.7153898 0.2541399
vn -0.6508688 0.7153898 0.25414
vn -0.6508688 0.7153898 0.2541399
vn -0.2697705 0.7208899 0.6383899
vn -0.2697705 0.7208899 0.6383899
vn -0.2697705 0.7208899 0.6383899
vn -0.2697705 0.7208899 0.6383899
vn 0.2714006 0.718237 0.6406851
vn 0.2714006 0.7182369 0.6406851
vn 0.2714006 0.718237 0.6406851
vn 0.2714006 0.718237 0.6406851
vn 0.6556737 0.7089812 0.2596879
vn 0.6556736 0.7089812 0.2596879
vn 0.6556737 0.7089812 0.2596879
vn 0.6556737 0.7089812 0.2596878
vn 0.3865392 -0.008173062 -0.9222368
vn 0.3865391 -0.008173061 -0.9222368
vn 0.3865392 -0.008173062 -0.9222368
vn 0.3865392 -0.008173061 -0.9222368
vn -0.3787587 -0.004416049 -0.925485
vn -0.3787587 -0.004416049 -0.925485
vn -0.3787587 -0.00441605 -0.925485
vn -0.3787586 -0.004416049 -0.925485
vn -0.9222362 0.001926578 -0.3866222
vn -0.9222362 0.001926578 -0.3866222
vn -0.9222362 0.001926578 -0.3866222
vn -0.9222362 0.001926578 -0.3866222
vn -0.925465 0.00714138 0.3787659
vn -0.925465 0.00714138 0.3787659
vn -0.925465 0.00714138 0.3787659
vn -0.925465 0.00714138 0.3787659
vn -0.3865347 0.008172916 0.9222386
vn -0.3865347 0.008172916 0.9222386
vn -0.3865347 0.008172916 0.9222386
vn -0.3865347 0.008172916 0.9222386
vn 0.3787499 0.004415949 0.9254886
vn 0.3787499 0.004415948 0.9254886
vn 0.3787499 0.004415948 0.9254886
vn 0.3787499 0.004415948 0.9254886
vn 0.9222385 -0.001927453 0.3866166
vn 0.9222385 -0.001927453 0.3866167
vn 0.9222385 -0.001927453 0.3866166
vn 0.9222385 -0.001927453 0.3866167
vn 0.9254627 -0.007142265 -0.3787713
vn 0.9254627 -0.007142265 -0.3787713
vn 0.9254627 -0.007142265 -0.3787713
vn 0.9254627 -0.007142265 -0.3787713
vn 0.004991448 0.9998016 -0.01928357
vn 0.004989636 0.9998017 -0.01927955
vn 0.004989379 0.9998018 -0.01927528
vn 0.004989892 0.9998017 -0.01928303
vn 0.004987826 0.9998018 -0.01927526
vn 0.004988009 0.9998018 -0.01927654
vn 0.004989764 0.9998017 -0.01928303
vn 0.004989513 0.9998018 -0.01927688
vn 0.004991265 0.9998017 -0.01928286
g collisionMesh_sideWalls_57_0
f 3/3/3 2/2/2 1/1/1
f 4/4/4 3/3/3 1/1/1
f 7/7/7 6/6/6 5/5/5
f 8/8/8 7/7/7 5/5/5
f 11/11/11 10/10/10 9/9/9
f 12/12/12 11/11/11 9/9/9
f 15/15/15 14/14/14 13/13/13
f 16/16/16 15/15/15 13/13/13
f 19/19/19 18/18/18 17/17/17
f 20/20/20 19/19/19 17/17/17
f 23/23/23 22/22/22 21/21/21
f 24/24/24 23/23/23 21/21/21
f 27/27/27 26/26/26 25/25/25
f 28/28/28 27/27/27 25/25/25
f 31/31/31 30/30/30 29/29/29
f 32/32/32 31/31/31 29/29/29
f 35/35/35 34/34/34 33/33/33
f 36/36/36 35/35/35 33/33/33
f 39/39/39 38/38/38 37/37/37
f 40/40/40 39/39/39 37/37/37
f 43/43/43 42/42/42 41/41/41
f 44/44/44 43/43/43 41/41/41
f 47/47/47 46/46/46 45/45/45
f 48/48/48 47/47/47 45/45/45
f 51/51/51 50/50/50 49/49/49
f 52/52/52 51/51/51 49/49/49
f 55/55/55 54/54/54 53/53/53
f 56/56/56 55/55/55 53/53/53
f 59/59/59 58/58/58 57/57/57
f 60/60/60 59/59/59 57/57/57
f 63/63/63 62/62/62 61/61/61
f 64/64/64 63/63/63 61/61/61
f 67/67/67 66/66/66 65/65/65
f 65/65/65 66/66/66 68/68/68
f 69/69/69 66/66/66 67/67/67
f 68/68/68 66/66/66 70/70/70
f 71/71/71 66/66/66 69/69/69
f 70/70/70 66/66/66 72/72/72
f 73/73/73 66/66/66 71/71/71
f 72/72/72 66/66/66 73/73/73
