g collisionMesh_prism09
v 1.998623 1.913983 -0.9241499
v 2.01768 -1.906852 0.8970793
v 0.1632711 -0.2361319 4.421555
v 0.1442134 3.584701 2.600327
v 2.01768 -1.906852 0.8970793
v 1.998623 1.913983 -0.9241499
v 0.1028218 0.2366049 -4.423349
v 0.121877 -3.584229 -2.602121
v 0.121877 -3.584229 -2.602121
v 0.1028218 0.2366049 -4.423349
v -1.41314 0.2387533 -4.405138
v -1.394082 -3.582079 -2.58391
v 0.1442134 3.584701 2.600327
v 0.1632711 -0.2361319 4.421555
v -1.352693 -0.2339847 4.439765
v -1.371748 3.586849 2.618536
v 1.998623 1.913983 -0.9241499
v 0.1442134 3.584701 2.600327
v -1.371748 3.586849 2.618536
v -1.41314 0.2387533 -4.405138
v 0.1028218 0.2366049 -4.423349
vt 0.375 0.5
vt 0.375 0.75
vt 0.6000025 0.75
vt 0.6000025 0.5
vt 0.125 1.766342E-09
vt 0.125 0.25
vt 0.3500026 0.25
vt 0.3500026 -3.72529E-09
vt 0.3500026 -3.72529E-09
vt 0.3500026 0.25
vt 0.3999975 0.25
vt 0.3999975 4.470348E-08
vt 0.6000025 0.5
vt 0.6000025 0.75
vt 0.6249999 0.75
vt 0.625 0.4750024
vt 0.375 0.5
vt 0.6000025 0.5
vt 0.625 0.4750024
vt 0.3999975 0.25
vt 0.375 0.2749975
vn 0.9031124 0.1884251 0.3858548
vn 0.9031124 0.1884251 0.3858548
vn 0.9031124 0.1884251 0.3858548
vn 0.9031124 0.1884251 0.3858548
vn 0.8984932 -0.1852267 -0.3979964
vn 0.8984932 -0.1852266 -0.3979964
vn 0.8984932 -0.1852266 -0.3979964
vn 0.8984932 -0.1852266 -0.3979964
vn -0.01145329 -0.4302956 -0.9026154
vn -0.01145329 -0.4302956 -0.9026154
vn -0.01145329 -0.4302956 -0.9026154
vn -0.01145329 -0.4302956 -0.9026154
vn 0.01145184 0.4302956 0.9026154
vn 0.01145184 0.4302957 0.9026154
vn 0.01145184 0.4302956 0.9026154
vn 0.01145184 0.4302957 0.9026154
vn -0.004190414 0.902688 -0.4302753
vn -0.003886398 0.9028159 -0.4300096
vn -0.00419723 0.9026997 -0.4302506
vn -0.004197455 0.9026763 -0.4302998
vn -0.003892443 0.9025613 -0.4305437
g collisionMesh_prism09_0
f 3/3/3 2/2/2 1/1/1
f 4/4/4 3/3/3 1/1/1
f 7/7/7 6/6/6 5/5/5
f 8/8/8 7/7/7 5/5/5
f 11/11/11 10/10/10 9/9/9
f 12/12/12 11/11/11 9/9/9
f 15/15/15 14/14/14 13/13/13
f 16/16/16 15/15/15 13/13/13
f 19/19/19 18/18/18 17/17/17
f 20/20/20 19/19/19 17/17/17
f 20/20/20 17/17/17 21/21/21
