g collisionMesh_prism11
v 1.995875 1.763593 -1.190833
v 2.020422 -1.752986 1.164817
v 0.1605338 0.407333 4.409181
v 0.1359879 3.923912 2.053533
v 2.020422 -1.752986 1.164817
v 1.995875 1.763593 -1.190833
v 0.1055582 -0.4066307 -4.410906
v 0.1301017 -3.923208 -2.055256
v 0.1301017 -3.923208 -2.055256
v 0.1055582 -0.4066307 -4.410906
v -1.410418 -0.4046861 -4.393877
v -1.385872 -3.921265 -2.03823
v 0.1359879 3.923912 2.053533
v 0.1605338 0.407333 4.409181
v -1.355443 0.4092752 4.426206
v -1.379986 3.925854 2.070559
v 1.995875 1.763593 -1.190833
v 0.1359879 3.923912 2.053533
v -1.379986 3.925854 2.070559
v -1.410418 -0.4046861 -4.393877
v 0.1055582 -0.4066307 -4.410906
vt 0.375 0.5
vt 0.375 0.75
vt 0.6000025 0.75
vt 0.6000025 0.5
vt 0.125 1.766342E-09
vt 0.125 0.25
vt 0.3500026 0.25
vt 0.3500026 -3.72529E-09
vt 0.3500026 -3.72529E-09
vt 0.3500026 0.25
vt 0.3999975 0.25
vt 0.3999975 4.470348E-08
vt 0.6000025 0.5
vt 0.6000025 0.75
vt 0.6249999 0.75
vt 0.625 0.4750024
vt 0.375 0.5
vt 0.6000025 0.5
vt 0.625 0.4750024
vt 0.3999975 0.25
vt 0.375 0.2749975
vn 0.9025007 0.2440261 0.3548854
vn 0.9025007 0.2440261 0.3548854
vn 0.9025007 0.2440261 0.3548854
vn 0.9025007 0.2440261 0.3548854
vn 0.8991045 -0.2392678 -0.3665541
vn 0.8991046 -0.2392678 -0.3665542
vn 0.8991046 -0.2392678 -0.3665541
vn 0.8991046 -0.2392678 -0.3665541
vn -0.01004484 -0.5565611 -0.8307459
vn -0.01004484 -0.5565611 -0.8307459
vn -0.01004484 -0.5565611 -0.8307459
vn -0.01004483 -0.5565611 -0.8307459
vn 0.01004339 0.5565612 0.830746
vn 0.01004339 0.5565612 0.830746
vn 0.01004339 0.5565612 0.830746
vn 0.01004339 0.5565612 0.830746
vn -0.005486942 0.830807 -0.5565337
vn -0.005183345 0.8309726 -0.5562893
vn -0.005493797 0.8308221 -0.556511
vn -0.005493946 0.8307918 -0.5565562
vn -0.005188555 0.8306432 -0.5567809
g collisionMesh_prism11_0
f 3/3/3 2/2/2 1/1/1
f 4/4/4 3/3/3 1/1/1
f 7/7/7 6/6/6 5/5/5
f 8/8/8 7/7/7 5/5/5
f 11/11/11 10/10/10 9/9/9
f 12/12/12 11/11/11 9/9/9
f 15/15/15 14/14/14 13/13/13
f 16/16/16 15/15/15 13/13/13
f 19/19/19 18/18/18 17/17/17
f 20/20/20 19/19/19 17/17/17
f 20/20/20 17/17/17 21/21/21
