g collisionMesh_sideWalls_04
v -7.753888 47.99761 109.2436
v -8.360333 47.99761 110.304
v -14.46087 47.94833 106.7271
v -13.85444 47.94833 105.6667
v -8.360333 43.92239 110.304
v -14.46087 43.87312 106.7271
v -14.46087 47.94833 106.7271
v -8.360333 47.99761 110.304
v -13.85444 43.87312 105.6667
v -7.753888 43.92239 109.2436
v -7.753888 47.99761 109.2436
v -13.85444 47.94833 105.6667
vt 0.375 0.25
vt 0.625 0.25
vt 0.625 0.5
vt 0.375 0.5
vt 0.625 0
vt 0.875 0
vt 0.875 0.25
vt 0.625 0.25
vt 0.125 0
vt 0.375 0
vt 0.375 0.25
vt 0.125 0.25
vn -0.006048392 0.9999758 -0.003461314
vn -0.00604839 0.9999758 -0.003461313
vn -0.006048391 0.9999758 -0.003461314
vn -0.006048392 0.9999758 -0.003461314
vn -0.5057967 0 0.8626528
vn -0.5057967 0 0.8626528
vn -0.5057967 0 0.8626528
vn -0.5057967 0 0.8626528
vn 0.5057956 0 -0.8626534
vn 0.5057956 0 -0.8626534
vn 0.5057956 0 -0.8626534
vn 0.5057956 0 -0.8626534
g collisionMesh_sideWalls_04_0
f 3/3/3 2/2/2 1/1/1
f 4/4/4 3/3/3 1/1/1
f 7/7/7 6/6/6 5/5/5
f 8/8/8 7/7/7 5/5/5
f 11/11/11 10/10/10 9/9/9
f 12/12/12 11/11/11 9/9/9
