g collisionMesh_sideWalls_02
v -14.5981 47.78854 105.1742
v -15.68068 47.78819 104.6083
v -9.514284 42.38771 93.18252
v -8.431702 42.38807 93.7484
v -15.67837 43.71297 104.6065
v -9.51197 38.3125 93.18067
v -9.514284 42.38771 93.18252
v -15.68068 47.78819 104.6083
v -8.429392 38.31286 93.74655
v -14.59579 43.71333 105.1724
v -14.5981 47.78854 105.1742
v -8.431702 42.38807 93.7484
vt 0.375 0.25
vt 0.625 0.25
vt 0.625 0.5
vt 0.375 0.5
vt 0.625 0
vt 0.875 0
vt 0.875 0.25
vt 0.625 0.25
vt 0.125 0
vt 0.375 0
vt 0.375 0.25
vt 0.125 0.25
vn 0.1776817 0.923299 -0.3405115
vn 0.1776817 0.923299 -0.3405116
vn 0.1776817 0.923299 -0.3405115
vn 0.1776817 0.923299 -0.3405116
vn -0.8800759 -0.0002847557 -0.474833
vn -0.8800758 -0.0002847556 -0.474833
vn -0.8800759 -0.0002847556 -0.4748329
vn -0.8800759 -0.0002847556 -0.474833
vn 0.8800757 0.0002835737 0.4748332
vn 0.8800757 0.0002835737 0.4748333
vn 0.8800757 0.0002835737 0.4748333
vn 0.8800757 0.0002835737 0.4748333
g collisionMesh_sideWalls_02_0
f 3/3/3 2/2/2 1/1/1
f 4/4/4 3/3/3 1/1/1
f 7/7/7 6/6/6 5/5/5
f 8/8/8 7/7/7 5/5/5
f 11/11/11 10/10/10 9/9/9
f 12/12/12 11/11/11 9/9/9
