g collisionMesh_sideWalls_39
v -24.41605 9.374461 -10.67898
v -25.61226 -0.1461911 -24.82921
v -24.3907 -0.1461911 -24.82921
v -25.63761 9.374461 -10.67898
v -24.42692 12.81244 -4.614594
v -25.64847 12.81244 -4.614594
v -25.63761 9.374461 -10.67898
v -25.59648 -3.537205 -23.89901
v -25.61226 -0.1461911 -24.82921
v -25.76423 6.044621 -9.122508
v -25.83613 9.508815 -2.78972
v -25.64847 12.81244 -4.614594
v -24.37492 -3.537205 -23.89901
v -24.41605 9.374461 -10.67898
v -24.3907 -0.1461911 -24.82921
v -24.54268 6.044621 -9.122508
v -24.61457 9.508815 -2.78972
v -24.42692 12.81244 -4.614594
vt 0.375 0.325
vt 0.625 0.5
vt 0.375 0.5
vt 0.625 0.325
vt 0.375 0.25
vt 0.625 0.25
vt 0.7 0.25
vt 0.875 0
vt 0.875 0.25
vt 0.7 0
vt 0.625 0
vt 0.625 0.25
vt 0.125 0
vt 0.3 0.25
vt 0.125 0.25
vt 0.3 0
vt 0.375 0
vt 0.375 0.25
vn 0 0.8418526 -0.5397075
vn 0 0.8296843 -0.558233
vn 0 0.8296843 -0.558233
vn 0 0.8418855 -0.539656
vn 0 0.8699304 -0.4931746
vn 0 0.8699304 -0.4931746
vn -0.9996567 0.01900927 -0.01803109
vn -0.9998369 0.01126793 -0.01411594
vn -0.9998369 0.01126793 -0.01411594
vn -0.9996936 0.01765599 -0.01734672
vn -0.9990832 0.03422344 -0.02572375
vn -0.9990832 0.03422344 -0.02572375
vn 0.9998368 -0.01126829 0.01411607
vn 0.9996567 -0.01900919 0.01803107
vn 0.9998368 -0.01126829 0.01411607
vn 0.9996936 -0.01765598 0.01734673
vn 0.9990832 -0.0342225 0.02572344
vn 0.9990832 -0.0342225 0.02572344
g collisionMesh_sideWalls_39_0
f 3/3/3 2/2/2 1/1/1
f 2/2/2 4/4/4 1/1/1
f 1/1/1 4/4/4 5/5/5
f 4/4/4 6/6/6 5/5/5
f 9/9/9 8/8/8 7/7/7
f 8/8/8 10/10/10 7/7/7
f 7/7/7 10/10/10 11/11/11
f 12/12/12 7/7/7 11/11/11
f 15/15/15 14/14/14 13/13/13
f 14/14/14 16/16/16 13/13/13
f 17/17/17 16/16/16 14/14/14
f 18/18/18 17/17/17 14/14/14
