g collisionMesh_prism06
v -2.006912 1.742187 -1.203728
v -2.00938 -1.756801 1.178096
v -0.1057873 -3.939169 -2.025913
v -0.103319 -0.4401825 -4.407735
v -2.00938 -1.756801 1.178096
v -2.006912 1.742187 -1.203728
v -0.1603039 3.938202 2.024213
v -0.1627722 0.4392154 4.406038
v -0.1627722 0.4392154 4.406038
v -0.1603039 3.938202 2.024213
v 1.355768 3.939255 2.025678
v 1.353299 0.4402685 4.407504
v -0.103319 -0.4401825 -4.407735
v -0.1057873 -3.939169 -2.025913
v 1.410284 -3.938116 -2.024444
v 1.412753 -0.439129 -4.40627
v -2.006912 1.742187 -1.203728
v -0.103319 -0.4401825 -4.407735
v 1.412753 -0.439129 -4.40627
v 1.355768 3.939255 2.025678
v -0.1603039 3.938202 2.024213
vt 0.375 0.5
vt 0.375 0.75
vt 0.6000025 0.75
vt 0.6000025 0.5
vt 0.125 1.766342E-09
vt 0.125 0.25
vt 0.3500026 0.25
vt 0.3500026 -3.72529E-09
vt 0.3500026 -3.72529E-09
vt 0.3500026 0.25
vt 0.3999975 0.25
vt 0.3999975 4.470348E-08
vt 0.6000025 0.5
vt 0.6000025 0.75
vt 0.6249999 0.75
vt 0.625 0.4750024
vt 0.375 0.5
vt 0.6000025 0.5
vt 0.625 0.4750024
vt 0.3999975 0.25
vt 0.375 0.2749975
vn -0.8976206 -0.2475948 -0.3646561
vn -0.8976206 -0.2475948 -0.3646561
vn -0.8976206 -0.2475948 -0.3646561
vn -0.8976206 -0.2475948 -0.3646561
vn -0.9039801 0.2410386 0.3531578
vn -0.9039801 0.2410386 0.3531577
vn -0.9039802 0.2410385 0.3531577
vn -0.9039802 0.2410385 0.3531577
vn -0.00118949 0.5627162 0.8266494
vn -0.001189491 0.5627162 0.8266494
vn -0.00118949 0.5627162 0.8266494
vn -0.001189491 0.5627162 0.8266494
vn 0.001190934 -0.5627161 -0.8266494
vn 0.001190934 -0.5627162 -0.8266494
vn 0.001190933 -0.5627161 -0.8266494
vn 0.001190933 -0.5627162 -0.8266494
vn 0.0002712434 0.8266491 -0.5627176
vn -2.902227E-05 0.826481 -0.5629646
vn 0.0002784046 0.8266338 -0.5627401
vn 0.0002779423 0.8266644 -0.5626951
vn -3.04592E-05 0.8268141 -0.5624754
g collisionMesh_prism06_0
f 3/3/3 2/2/2 1/1/1
f 4/4/4 3/3/3 1/1/1
f 7/7/7 6/6/6 5/5/5
f 8/8/8 7/7/7 5/5/5
f 11/11/11 10/10/10 9/9/9
f 12/12/12 11/11/11 9/9/9
f 15/15/15 14/14/14 13/13/13
f 16/16/16 15/15/15 13/13/13
f 19/19/19 18/18/18 17/17/17
f 20/20/20 19/19/19 17/17/17
f 20/20/20 17/17/17 21/21/21
