g collisionMesh_sideWalls_59
v 12.62936 47.84264 104.6393
v 13.05824 47.86071 105.6869
v 12.6166 48.27272 105.6771
v 12.31637 48.26008 104.9438
v 12.31637 48.26008 104.9438
v 11.58548 48.25783 104.6375
v 11.58528 47.83942 104.2017
v 12.62936 47.84264 104.6393
v 11.58548 48.25783 104.6375
v 10.85207 48.26727 104.9376
v 10.5376 47.85291 104.6304
v 11.58528 47.83942 104.2017
v 10.85207 48.26727 104.9376
v 10.54577 48.28289 105.6683
v 10.10004 47.87523 105.6743
v 10.5376 47.85291 104.6304
v 10.54577 48.28289 105.6683
v 10.846 48.29553 106.4016
v 10.52891 47.89328 106.7219
v 10.10004 47.87523 105.6743
v 10.846 48.29553 106.4016
v 11.57688 48.29779 106.7079
v 11.57299 47.89651 107.1594
v 10.52891 47.89328 106.7219
v 11.57688 48.29779 106.7079
v 12.31029 48.28835 106.4078
v 12.62068 47.88301 106.7307
v 11.57299 47.89651 107.1594
v 12.31029 48.28835 106.4078
v 12.6166 48.27272 105.6771
v 13.05824 47.86071 105.6869
v 12.62068 47.88301 106.7307
v 12.53523 43.1565 104.7085
v 12.62936 47.84264 104.6393
v 11.58528 47.83942 104.2017
v 11.49115 43.15327 104.2709
v 11.49115 43.15327 104.2709
v 11.58528 47.83942 104.2017
v 10.5376 47.85291 104.6304
v 10.44347 43.16677 104.6996
v 10.44347 43.16677 104.6996
v 10.5376 47.85291 104.6304
v 10.10004 47.87523 105.6743
v 10.00591 43.18908 105.7435
v 10.00591 43.18908 105.7435
v 10.10004 47.87523 105.6743
v 10.52891 47.89328 106.7219
v 10.43478 43.20714 106.791
v 10.43478 43.20714 106.791
v 10.52891 47.89328 106.7219
v 11.57299 47.89651 107.1594
v 11.47886 43.21037 107.2286
v 11.47886 43.21037 107.2286
v 11.57299 47.89651 107.1594
v 12.62068 47.88301 106.7307
v 12.52655 43.19687 106.7999
v 12.52655 43.19687 106.7999
v 12.62068 47.88301 106.7307
v 13.05824 47.86071 105.6869
v 12.96411 43.17456 105.7561
v 12.96411 43.17456 105.7561
v 13.05824 47.86071 105.6869
v 12.62936 47.84264 104.6393
v 12.53523 43.1565 104.7085
v 12.31637 48.26008 104.9438
v 11.58118 48.27781 105.6727
v 11.58548 48.25783 104.6375
v 12.6166 48.27272 105.6771
v 10.85207 48.26727 104.9376
v 12.31029 48.28835 106.4078
v 10.54577 48.28289 105.6683
v 11.57688 48.29779 106.7079
v 10.846 48.29553 106.4016
vt 0.6249999 0.6545655
vt 0.59375 0.6545655
vt 0.5984371 0.6884398
vt 0.6203129 0.6884398
vt 0.3796871 0.6884398
vt 0.401563 0.6884398
vt 0.40625 0.6545655
vt 0.3750001 0.6545655
vt 0.4109371 0.6884398
vt 0.432813 0.6884398
vt 0.4375 0.6545655
vt 0.40625 0.6545655
vt 0.4421871 0.6884398
vt 0.464063 0.6884398
vt 0.46875 0.6545655
vt 0.4375 0.6545655
vt 0.473437 0.6884398
vt 0.4953132 0.6884398
vt 0.5 0.6545658
vt 0.46875 0.6545655
vt 0.5046871 0.6884398
vt 0.526563 0.6884398
vt 0.5312499 0.6545655
vt 0.5 0.6545658
vt 0.535937 0.6884398
vt 0.5578128 0.6884398
vt 0.5624998 0.6545655
vt 0.5312499 0.6545655
vt 0.5671868 0.6884398
vt 0.589063 0.6884398
vt 0.59375 0.6545655
vt 0.5624998 0.6545655
vt 0.375 0.3125005
vt 0.3750001 0.6545655
vt 0.40625 0.6545655
vt 0.40625 0.3125005
vt 0.40625 0.3125005
vt 0.40625 0.6545655
vt 0.4375 0.6545655
vt 0.4375 0.3125005
vt 0.4375 0.3125005
vt 0.4375 0.6545655
vt 0.46875 0.6545655
vt 0.46875 0.3125005
vt 0.46875 0.3125005
vt 0.46875 0.6545655
vt 0.5 0.6545658
vt 0.5000001 0.3125005
vt 0.5000001 0.3125005
vt 0.5 0.6545658
vt 0.5312499 0.6545655
vt 0.53125 0.3125005
vt 0.53125 0.3125005
vt 0.5312499 0.6545655
vt 0.5624998 0.6545655
vt 0.5625 0.3125005
vt 0.5625 0.3125005
vt 0.5624998 0.6545655
vt 0.59375 0.6545655
vt 0.59375 0.3125005
vt 0.59375 0.3125005
vt 0.59375 0.6545655
vt 0.6249999 0.6545655
vt 0.6249999 0.3125005
vt 0.5773429 0.9192181
vt 0.5 0.8375
vt 0.4999999 0.9512545
vt 0.6093796 0.8418752
vt 0.4226569 0.9192182
vt 0.5773429 0.764531
vt 0.3906201 0.8418752
vt 0.5 0.7324947
vt 0.4226569 0.764531
vn 0.6579142 0.6985413 -0.2814057
vn 0.6579142 0.6985413 -0.2814057
vn 0.6579142 0.6985413 -0.2814057
vn 0.6579142 0.6985412 -0.2814057
vn 0.2768283 0.6930418 -0.6656269
vn 0.2768283 0.6930418 -0.6656269
vn 0.2768283 0.6930418 -0.6656269
vn 0.2768283 0.6930418 -0.6656269
vn -0.2643437 0.6956967 -0.6679286
vn -0.2643438 0.6956967 -0.6679286
vn -0.2643438 0.6956967 -0.6679286
vn -0.2643438 0.6956967 -0.6679285
vn -0.6486186 0.704949 -0.2869507
vn -0.6486186 0.704949 -0.2869507
vn -0.6486186 0.704949 -0.2869507
vn -0.6486186 0.704949 -0.2869507
vn -0.6508721 0.7153894 0.2541327
vn -0.6508721 0.7153894 0.2541327
vn -0.6508721 0.7153894 0.2541327
vn -0.6508721 0.7153895 0.2541327
vn -0.2697719 0.7208919 0.638387
vn -0.2697718 0.7208919 0.638387
vn -0.2697718 0.7208919 0.638387
vn -0.2697719 0.7208919 0.638387
vn 0.2713991 0.7182402 0.6406822
vn 0.2713991 0.7182403 0.6406821
vn 0.2713991 0.7182403 0.6406821
vn 0.2713991 0.7182403 0.6406821
vn 0.6556738 0.708982 0.2596852
vn 0.6556738 0.708982 0.2596852
vn 0.6556738 0.708982 0.2596852
vn 0.6556738 0.708982 0.2596852
vn 0.3865002 -0.02137716 -0.9220415
vn 0.3865002 -0.02137717 -0.9220416
vn 0.3865002 -0.02137716 -0.9220415
vn 0.3865002 -0.02137717 -0.9220416
vn -0.378766 -0.006054773 -0.9254727
vn -0.378766 -0.006054774 -0.9254727
vn -0.3787659 -0.006054774 -0.9254727
vn -0.378766 -0.006054774 -0.9254727
vn -0.9220804 0.01281183 -0.3867861
vn -0.9220804 0.01281183 -0.3867861
vn -0.9220805 0.01281183 -0.3867861
vn -0.9220805 0.01281183 -0.3867861
vn -0.92532 0.02417419 0.3784156
vn -0.92532 0.02417419 0.3784157
vn -0.92532 0.02417419 0.3784156
vn -0.92532 0.02417419 0.3784157
vn -0.3865004 0.02137726 0.9220415
vn -0.3865004 0.02137726 0.9220415
vn -0.3865003 0.02137726 0.9220415
vn -0.3865004 0.02137726 0.9220415
vn 0.3787636 0.006056063 0.9254736
vn 0.3787636 0.006056061 0.9254736
vn 0.3787636 0.006056061 0.9254736
vn 0.3787636 0.006056062 0.9254736
vn 0.9220826 -0.01281151 0.3867808
vn 0.9220826 -0.01281151 0.3867809
vn 0.9220826 -0.01281151 0.3867809
vn 0.9220826 -0.01281151 0.3867809
vn 0.9253172 -0.02417388 -0.3784229
vn 0.9253172 -0.02417389 -0.3784229
vn 0.9253172 -0.02417389 -0.3784229
vn 0.9253172 -0.02417388 -0.3784229
vn 0.00499151 0.9998018 -0.0192712
vn 0.004989651 0.9998018 -0.01927646
vn 0.004989638 0.9998019 -0.01926979
vn 0.00498983 0.9998017 -0.01928304
vn 0.004987822 0.9998017 -0.01928211
vn 0.004988137 0.9998017 -0.01928201
vn 0.00498963 0.9998017 -0.01927889
vn 0.004989507 0.9998018 -0.01927409
vn 0.004991136 0.9998019 -0.01927049
g collisionMesh_sideWalls_59_0
f 3/3/3 2/2/2 1/1/1
f 4/4/4 3/3/3 1/1/1
f 7/7/7 6/6/6 5/5/5
f 8/8/8 7/7/7 5/5/5
f 11/11/11 10/10/10 9/9/9
f 12/12/12 11/11/11 9/9/9
f 15/15/15 14/14/14 13/13/13
f 16/16/16 15/15/15 13/13/13
f 19/19/19 18/18/18 17/17/17
f 20/20/20 19/19/19 17/17/17
f 23/23/23 22/22/22 21/21/21
f 24/24/24 23/23/23 21/21/21
f 27/27/27 26/26/26 25/25/25
f 28/28/28 27/27/27 25/25/25
f 31/31/31 30/30/30 29/29/29
f 32/32/32 31/31/31 29/29/29
f 35/35/35 34/34/34 33/33/33
f 36/36/36 35/35/35 33/33/33
f 39/39/39 38/38/38 37/37/37
f 40/40/40 39/39/39 37/37/37
f 43/43/43 42/42/42 41/41/41
f 44/44/44 43/43/43 41/41/41
f 47/47/47 46/46/46 45/45/45
f 48/48/48 47/47/47 45/45/45
f 51/51/51 50/50/50 49/49/49
f 52/52/52 51/51/51 49/49/49
f 55/55/55 54/54/54 53/53/53
f 56/56/56 55/55/55 53/53/53
f 59/59/59 58/58/58 57/57/57
f 60/60/60 59/59/59 57/57/57
f 63/63/63 62/62/62 61/61/61
f 64/64/64 63/63/63 61/61/61
f 67/67/67 66/66/66 65/65/65
f 65/65/65 66/66/66 68/68/68
f 69/69/69 66/66/66 67/67/67
f 68/68/68 66/66/66 70/70/70
f 71/71/71 66/66/66 69/69/69
f 70/70/70 66/66/66 72/72/72
f 73/73/73 66/66/66 71/71/71
f 72/72/72 66/66/66 73/73/73
