g Decal_03
v 18.94143 68.67014 -18.79012
v 19.47616 69.46848 -19.15076
v 21.31664 69.46511 -19.01482
v -18.22009 69.53675 -22.13146
v -20.64769 65.91254 -20.4942
v -23.43871 65.91754 -20.70034
v -21.01113 69.54183 -22.33759
v -13.15921 69.52759 -21.73901
v -15.5868 65.90335 -20.10176
v -18.37782 65.9084 -20.30791
v -15.95024 69.53264 -21.94515
v -8.098295 69.51842 -21.33669
v -10.52589 65.89419 -19.69944
v -13.31691 65.89924 -19.9056
v -10.88932 69.52348 -21.54285
v -3.037374 69.50926 -20.93802
v -5.464959 65.88502 -19.30077
v -8.255995 65.89008 -19.50692
v -5.828408 69.51431 -21.14416
v 2.023526 69.50008 -20.53946
v -0.4040561 65.87583 -18.90221
v -3.195084 65.88087 -19.10835
v -0.7674892 69.50513 -20.74561
v 17.20627 69.47256 -19.31842
v 16.01205 67.68967 -18.513
v 12.41013 66.4841 -18.17225
v 14.41525 69.47764 -19.52457
v 12.14536 69.48175 -19.74437
v 9.717785 65.8575 -18.10712
v 6.926755 65.86256 -18.31327
v 9.354334 69.48679 -19.95052
v 7.08445 69.49091 -20.14075
v 4.656865 65.86664 -18.5035
v 1.865828 65.87172 -18.70965
v 4.29342 69.49596 -20.3469
v 15.88196 67.39973 -18.40066
v 14.85097 65.73764 -18.04361
v 12.05484 65.83748 -17.98035
v 12.27967 66.19995 -18.05821
v 22.07109 69.46107 -18.98075
v 22.33722 69.45156 -18.98676
v 19.92115 65.55653 -18.15004
v 18.81166 68.37549 -18.67089
v 17.12502 65.6564 -18.08677
vt 0.08328295 0.8088285
vt 0.07054652 0.7863102
vt 0.02402612 0.7863102
vt 0.8867221 1
vt 0.9889516 0.9421787
vt 0.9889516 0.8716323
vt 0.8867221 0.9294535
vt 0.8231459 0.6459865
vt 0.9253753 0.5881652
vt 0.9253753 0.5176187
vt 0.8231459 0.57544
vt 0.7528773 0.1980416
vt 0.8106986 0.3002711
vt 0.8812451 0.3002711
vt 0.8234239 0.1980416
vt 0.597455 0.6991504
vt 0.495226 0.7569727
vt 0.495226 0.8275189
vt 0.597455 0.7696979
vt 0.194075 0.5799052
vt 0.2518976 0.6821346
vt 0.3224441 0.6821346
vt 0.2646216 0.5799052
vt 0.8331842 0.6494403
vt 0.8616286 0.6997309
vt 0.9514894 0.7338791
vt 0.9037307 0.6494403
vt 0.2394205 0.7620934
vt 0.137191 0.8199146
vt 0.137191 0.8904612
vt 0.2394205 0.8326399
vt 0.4584186 0.7667734
vt 0.5606476 0.7089524
vt 0.5606476 0.6384049
vt 0.4584186 0.6962273
vt 0.8663317 0.7080461
vt 0.8910054 0.7516698
vt 0.961552 0.7516698
vt 0.9561713 0.7421566
vt 0.006714504 0.7863102
vt 0 0.7863102
vt 0.05782129 0.8885397
vt 0.08800332 0.8171742
vt 0.1283678 0.8885397
vn -0.06198757 0.433913 0.8988198
vn -0.06286169 0.4400319 0.8957791
vn -0.06286169 0.4400319 0.8957791
vn -0.06198757 0.433913 0.8988198
vn -0.07740087 0.4334448 0.8978501
vn -0.07740087 0.4334448 0.8978501
vn -0.0763381 0.4274934 0.9007896
vn -0.06198757 0.433913 0.8988198
vn -0.06198757 0.433913 0.8988198
vn -0.06198757 0.433913 0.8988198
vn -0.06113464 0.4279425 0.901736
vn -0.06689462 0.4756951 0.8770629
vn -0.05502947 0.4402358 0.8961943
vn -0.06198757 0.433913 0.8988198
vn -0.06198757 0.433913 0.8988198
vn -0.06198757 0.433913 0.8988198
vn -0.07068232 0.4398011 0.8953094
vn -0.06286169 0.4400319 0.8957791
vn -0.06777655 0.4819666 0.8735644
vn -0.0658455 0.4338056 0.8985973
vn -0.06579587 0.4399485 0.8956094
vn -0.0658455 0.4338056 0.8985973
vn -0.0658455 0.4338056 0.8985973
vn -0.06198757 0.433913 0.8988198
vn -0.06286169 0.4400319 0.8957791
vn -0.06198757 0.433913 0.8988198
vn -0.06286169 0.4400319 0.8957791
vn -0.06286169 0.4400319 0.8957791
vn -0.06286169 0.4400319 0.8957791
vn -0.07068232 0.4398011 0.8953094
vn -0.06867827 0.4883789 0.869925
vn -0.0610776 0.4886208 0.8703558
vn -0.07068232 0.4398011 0.8953094
vn -0.0658455 0.4338056 0.8985973
vn -0.06286169 0.4400319 0.8957791
vn 0.0311702 0.1870212 0.9818612
vn 0.0311702 0.1870212 0.9818612
vn 0.02338262 0.187061 0.98207
vn 0.02338262 0.187061 0.98207
vn 0.03075468 0.2460374 0.9687723
vn 0.0311702 0.1870212 0.9818612
vn 0.0311702 0.1870212 0.9818612
vn 0.01559078 0.1870894 0.9822192
vn 0.0311702 0.1870212 0.9818612
g Decal_03_0
f 3/3/3 2/2/2 1/1/1
f 6/6/6 5/5/5 4/4/4
f 7/7/7 6/6/6 4/4/4
f 10/10/10 9/9/9 8/8/8
f 11/11/11 10/10/10 8/8/8
f 14/14/14 13/13/13 12/12/12
f 15/15/15 14/14/14 12/12/12
f 18/18/18 17/17/17 16/16/16
f 19/19/19 18/18/18 16/16/16
f 22/22/22 21/21/21 20/20/20
f 23/23/23 22/22/22 20/20/20
f 26/26/26 25/25/25 24/24/24
f 27/27/27 26/26/26 24/24/24
f 30/30/30 29/29/29 28/28/28
f 31/31/31 30/30/30 28/28/28
f 34/34/34 33/33/33 32/32/32
f 35/35/35 34/34/34 32/32/32
f 38/38/38 37/37/37 36/36/36
f 39/39/39 38/38/38 36/36/36
f 42/42/42 41/41/41 40/40/40
f 40/40/40 43/43/43 42/42/42
f 43/43/43 44/44/44 42/42/42
