g Decal_06
v -15.87602 -89.57771 39.21059
v -14.07565 -94.96934 40.74266
v -16.79471 -91.16893 39.95746
v -13.15695 -93.37812 39.9958
v -8.5045 -93.83366 39.21059
v -9.423192 -95.42488 39.95746
v -17.61011 -92.58123 40.62034
v -15.80974 -97.97288 42.15241
v -18.5288 -94.17248 41.36721
v -14.89104 -96.38166 41.40555
v -10.23859 -96.83718 40.62034
v -11.15729 -98.42842 41.36721
v -19.3442 -95.58478 42.03009
v -17.54383 -100.9764 43.56216
v -20.2629 -97.17601 42.77695
v -16.62514 -99.38519 42.8153
v -11.97268 -99.84073 42.03009
v -12.89139 -101.432 42.77695
v 15.87602 -89.57771 39.21059
v 16.79471 -91.16893 39.95746
v 14.07565 -94.96934 40.74266
v 13.15695 -93.37812 39.9958
v 8.5045 -93.83366 39.21059
v 9.423192 -95.42488 39.95746
v 17.61011 -92.58123 40.62034
v 18.5288 -94.17248 41.36721
v 15.80974 -97.97288 42.15241
v 14.89104 -96.38166 41.40555
v 10.23859 -96.83718 40.62034
v 11.15729 -98.42842 41.36721
v 19.3442 -95.58478 42.03009
v 20.2629 -97.17601 42.77695
v 17.54383 -100.9764 43.56216
v 16.62514 -99.38519 42.8153
v 11.97268 -99.84073 42.03009
v 12.89138 -101.432 42.77695
vt 0.7003995 0.6249291
vt 0.5426375 0.4921363
vt 0.7003995 0.5601948
vt 0.5426375 0.5568714
vt 0.384804 0.6249291
vt 0.384804 0.5601948
vt 0.3423642 0.6038845
vt 0.1846023 0.4710912
vt 0.3423642 0.5391496
vt 0.1846023 0.5358261
vt 0.02676897 0.6038845
vt 0.02676897 0.5391496
vt 0.5956096 0.5062281
vt 0.7284026 0.3484658
vt 0.6603447 0.5062281
vt 0.6636682 0.3484658
vt 0.5956096 0.190632
vt 0.6603447 0.190632
vt 0.7003995 0.6249291
vt 0.7003995 0.5601948
vt 0.5426375 0.4921363
vt 0.5426375 0.5568714
vt 0.384804 0.6249291
vt 0.384804 0.5601948
vt 0.3423642 0.6038845
vt 0.3423642 0.5391496
vt 0.1846023 0.4710912
vt 0.1846023 0.5358261
vt 0.02676897 0.6038845
vt 0.02676897 0.5391496
vt 0.5956096 0.5062281
vt 0.6603447 0.5062281
vt 0.7284026 0.3484658
vt 0.6636682 0.3484658
vt 0.5956096 0.190632
vt 0.6603447 0.190632
vn 0.1864109 0.3106849 0.9320546
vn 0.1864109 0.3106849 0.9320546
vn 0.1713529 0.3115507 0.934652
vn 0.1713529 0.3115507 0.934652
vn 0.1864109 0.3106849 0.9320546
vn 0.1864109 0.3106849 0.9320546
vn 0.1897366 0.2529822 0.9486833
vn 0.1864109 0.3106849 0.9320546
vn 0.1864109 0.3106849 0.9320546
vn 0.1864109 0.3106849 0.9320546
vn 0.1864109 0.3106849 0.9320546
vn 0.1897366 0.2529822 0.9486833
vn 0.2013388 0.3097519 0.9292558
vn 0.1897366 0.2529822 0.9486833
vn 0.2049087 0.2521953 0.9457324
vn 0.1864109 0.3106849 0.9320546
vn 0.1864109 0.3106849 0.9320546
vn 0.1864109 0.3106849 0.9320546
vn -0.1864109 0.3106849 0.9320546
vn -0.1864109 0.3106849 0.9320546
vn -0.1864109 0.3106849 0.9320546
vn -0.1864109 0.3106849 0.9320546
vn -0.1938917 0.3102267 0.9306801
vn -0.1938917 0.3102267 0.9306801
vn -0.1897366 0.2529822 0.9486833
vn -0.1713529 0.3115507 0.934652
vn -0.1864109 0.3106849 0.9320546
vn -0.1713529 0.3115507 0.934652
vn -0.1864109 0.3106849 0.9320546
vn -0.1973404 0.2525957 0.9472339
vn -0.1864109 0.3106849 0.9320546
vn -0.1897366 0.2529822 0.9486833
vn -0.1897366 0.2529822 0.9486833
vn -0.1864109 0.3106849 0.9320546
vn -0.1864109 0.3106849 0.9320546
vn -0.1788976 0.3111263 0.9333789
g Decal_06_0
f 3/3/3 2/2/2 1/1/1
f 2/2/2 4/4/4 1/1/1
f 4/4/4 2/2/2 5/5/5
f 2/2/2 6/6/6 5/5/5
f 9/9/9 8/8/8 7/7/7
f 8/8/8 10/10/10 7/7/7
f 10/10/10 8/8/8 11/11/11
f 8/8/8 12/12/12 11/11/11
f 15/15/15 14/14/14 13/13/13
f 14/14/14 16/16/16 13/13/13
f 16/16/16 14/14/14 17/17/17
f 14/14/14 18/18/18 17/17/17
f 21/21/21 20/20/20 19/19/19
f 22/22/22 21/21/21 19/19/19
f 21/21/21 22/22/22 23/23/23
f 24/24/24 21/21/21 23/23/23
f 27/27/27 26/26/26 25/25/25
f 28/28/28 27/27/27 25/25/25
f 27/27/27 28/28/28 29/29/29
f 30/30/30 27/27/27 29/29/29
f 33/33/33 32/32/32 31/31/31
f 34/34/34 33/33/33 31/31/31
f 33/33/33 34/34/34 35/35/35
f 36/36/36 33/33/33 35/35/35
