g Decal_04
v -18.85494 28.11308 -5.538093
v -21.02579 24.25066 -4.096562
v -23.81532 24.24053 -3.871243
v -21.64447 28.10295 -5.312767
v -13.79674 28.13144 -5.946663
v -15.96759 24.26903 -4.505139
v -18.75712 24.2589 -4.279813
v -16.58627 28.12132 -5.721337
v -8.738539 28.14981 -6.355234
v -10.9094 24.2874 -4.913709
v -13.69892 24.27727 -4.688384
v -11.52807 28.13969 -6.129908
v -3.680336 28.16818 -6.763804
v -5.851199 24.30577 -5.32228
v -8.640721 24.29563 -5.096954
v -6.469871 28.15804 -6.538485
v 1.377861 28.18655 -7.172381
v -0.7929894 24.32413 -5.73085
v -3.582525 24.314 -5.50553
v -1.411668 28.17641 -6.947061
v 21.61065 28.26002 -8.806668
v 19.4398 24.39759 -7.365144
v 16.65027 24.38747 -7.139818
v 18.82113 28.24989 -8.581349
v 16.55245 28.24165 -8.398098
v 14.3816 24.37922 -6.956574
v 11.59207 24.3691 -6.731248
v 13.76293 28.23152 -8.172772
v 11.49426 28.22328 -7.989528
v 9.323403 24.36087 -6.547997
v 6.533872 24.35074 -6.322678
v 8.704728 28.21315 -7.764202
v 6.436058 28.20491 -7.580951
v 4.265207 24.3425 -6.139427
v 1.475678 24.33237 -5.914101
v 3.646532 28.19478 -7.355631
vt 0.5320333 0.9698272
vt 0.6342627 0.9120059
vt 0.6342627 0.8414594
vt 0.5320333 0.8992807
vt 0.9481675 0.263321
vt 0.8903463 0.1610915
vt 0.8197997 0.1610915
vt 0.877621 0.263321
vt 0.5219949 0.8939416
vt 0.6242244 0.8361203
vt 0.6242244 0.7655737
vt 0.5219949 0.8233951
vt 0.4395578 0.8177969
vt 0.3817354 0.7155679
vt 0.3111893 0.7155679
vt 0.3690103 0.8177969
vt 0.08365303 0.6736283
vt 0.1858825 0.6158057
vt 0.1858825 0.5452592
vt 0.08365303 0.6030818
vt 0.7607847 0.9169652
vt 0.7029634 0.8147357
vt 0.6324169 0.8147357
vt 0.6902382 0.9169652
vt 0.2561511 0.8341938
vt 0.1539216 0.8920151
vt 0.1539216 0.9625615
vt 0.2561511 0.9047403
vt 0.799723 0.5776713
vt 0.9019525 0.51985
vt 0.9019525 0.4493034
vt 0.799723 0.5071247
vt 0.1037298 0.8278236
vt 0.2059588 0.7700027
vt 0.2059588 0.6994551
vt 0.1037298 0.7572775
vn 0.05842062 0.3505237 0.93473
vn 0.06178021 0.3706813 0.9267031
vn 0.05842062 0.3505237 0.93473
vn 0.1277753 0.2555506 0.9583148
vn 0.05842062 0.3505237 0.93473
vn 0.1203859 0.2407717 0.9630868
vn 0.06178021 0.3706813 0.9267031
vn 0.1360828 0.2721655 0.9525793
vn 0.122859 0.3685771 0.9214427
vn 0.1203859 0.2407717 0.9630868
vn 0.06178021 0.3706813 0.9267031
vn 0.1360828 0.2721655 0.9525793
vn 0.06551218 0.393073 0.9171705
vn 0.1277753 0.2555506 0.9583148
vn 0.1301889 0.3905668 0.9113224
vn 0.06178021 0.3706813 0.9267031
vn 0.06178021 0.3706813 0.9267031
vn 0.06851887 0.2740755 0.9592642
vn 0.122859 0.3685771 0.9214427
vn 0.05842062 0.3505237 0.93473
vn 0.06428243 0.2571297 0.9642365
vn 0.06178021 0.3706813 0.9267031
vn 0.06851887 0.2740755 0.9592642
vn 0.06178021 0.3706813 0.9267031
vn 0.06428243 0.2571297 0.9642365
vn 0.05842062 0.3505237 0.93473
vn 0.06428243 0.2571297 0.9642365
vn 0.06551218 0.393073 0.9171705
vn 0.06052276 0.242091 0.9683641
vn 0.06428243 0.2571297 0.9642365
vn 0.06052276 0.242091 0.9683641
vn 0.06178021 0.3706813 0.9267031
vn 0.06178021 0.3706813 0.9267031
vn 0.06428243 0.2571297 0.9642365
vn 0.06428243 0.2571297 0.9642365
vn 0.06178021 0.3706813 0.9267031
g Decal_04_0
f 3/3/3 2/2/2 1/1/1
f 4/4/4 3/3/3 1/1/1
f 7/7/7 6/6/6 5/5/5
f 8/8/8 7/7/7 5/5/5
f 11/11/11 10/10/10 9/9/9
f 12/12/12 11/11/11 9/9/9
f 15/15/15 14/14/14 13/13/13
f 16/16/16 15/15/15 13/13/13
f 19/19/19 18/18/18 17/17/17
f 20/20/20 19/19/19 17/17/17
f 23/23/23 22/22/22 21/21/21
f 24/24/24 23/23/23 21/21/21
f 27/27/27 26/26/26 25/25/25
f 28/28/28 27/27/27 25/25/25
f 31/31/31 30/30/30 29/29/29
f 32/32/32 31/31/31 29/29/29
f 35/35/35 34/34/34 33/33/33
f 36/36/36 35/35/35 33/33/33
