g EMV_FLR_Tier5_Drain
v -22.77583 19.0746 -24.1889
v -22.77583 19.0746 -24.72105
v 12.86541 16.48181 -24.72105
v 12.86541 16.48181 -24.1889
v 21.58961 15.84715 -36.85518
v 21.58961 15.84715 -37.36119
v 22.06585 15.81485 -37.36119
v 22.06585 15.81485 -36.85518
v 21.58961 15.84715 -25.2752
v 22.06585 15.81485 -25.2752
v 21.58961 15.84715 -36.85518
v 19.39074 16.07899 -36.85518
v 19.39074 16.07899 -37.36119
v 21.58961 15.84715 -37.36119
v -22.77583 19.0746 -24.1889
v -23.3791 19.0746 -24.1889
v -23.3791 19.0746 -24.72105
v -22.77583 19.0746 -24.72105
v -22.77583 19.0746 -36.8892
v -23.3791 19.0746 -36.8892
v -22.77583 19.0746 -37.4188
v -23.3791 19.0746 -37.4188
v -21.80444 18.96716 -37.42559
v -18.38033 18.738 -37.42559
v -18.38033 18.738 -36.89345
v -21.80444 18.96716 -36.89345
v -22.77583 19.0746 -37.4188
v -22.77583 19.0746 -36.8892
v 16.51275 16.32194 -43.48252
v 19.42045 16.10783 -37.08746
v 18.94545 16.10783 -36.84755
v 16.03776 16.32194 -43.24261
v -14.49513 18.39757 -43.76226
v 16.04827 16.33789 -43.76226
v 16.04827 16.33789 -43.23011
v -14.49513 18.39757 -43.23011
v -18.39965 18.71226 -37.42795
v -15.023 18.41089 -43.4517
v -14.5259 18.41089 -43.2618
v -17.90255 18.71226 -37.23804
vt 20.79256 -0.002545655
vt 20.79263 -1.002063
vt -11.99258 -1.002063
vt -11.99266 -0.002545655
vt 5.814784 -0.002545714
vt 6.291284 -0.002545714
vt 6.291662 -1.002063
vt 5.81516 -1.002063
vt -4.763479 -0.002545601
vt -4.763106 -1.002063
vt -1.235513 -0.002545595
vt 1.754649 -0.002545595
vt 1.757109 -1.002063
vt -1.233053 -1.002063
vt -4.984477 -1.002063
vt -4.984446 -0.002545655
vt -4.538697 -0.002545655
vt -4.53873 -1.002063
vt 5.349676 -1.002063
vt 5.349706 -0.002545655
vt 5.793297 -1.002063
vt 5.793328 -0.002545655
vt 1.570067 -1.002063
vt -2.012277 -1.002063
vt -2.012769 -0.002545655
vt 1.56984 -0.002545655
vt 2.489259 -1.002063
vt 2.48955 -0.002545655
vt 3.779371 -1.002063
vt -3.318627 -1.002063
vt -3.338159 -0.002545655
vt 3.759837 -0.002545595
vt 13.51166 -1.002063
vt -12.99002 -1.002063
vt -12.99008 -0.002545595
vt 13.51161 -0.002545655
vt -3.019407 -0.002545655
vt 3.715936 -0.002545655
vt 3.744645 -1.002063
vt -2.990701 -1.002063
vn 0 1 0
vn 0 1 0
vn 0.07255517 0.9973645 0
vn 0.07255518 0.9973645 0
vn 0 1 0
vn 0 1 0
vn 0 1 0
vn 0 1 0
vn 0.06766616 0.997708 0
vn 0.06766616 0.997708 0
vn 0 1 0
vn 0 1 0
vn 0 1 0
vn 0 1 0
vn 0 1 0
vn 0 1 0
vn 0 1 0
vn 0 1 0
vn 0 1 0
vn 0 1 0
vn 0 1 0
vn 0 1 0
vn 0 1 0
vn 0 1 0
vn 0 1 0
vn 0 1 0
vn 0 1 0
vn 0 1 0
vn 0 1 0
vn 0 1 0
vn 0 1 0
vn 0 1 0
vn 0 1 0
vn 0 1 0
vn 0 1 0
vn 0 1 0
vn 0 1 0
vn 0 1 0
vn 0 1 0
vn 0 1 0
g EMV_FLR_Tier5_Drain_0
f 3/3/3 2/2/2 1/1/1
f 4/4/4 3/3/3 1/1/1
f 7/7/7 6/6/6 5/5/5
f 8/8/8 7/7/7 5/5/5
f 8/8/8 5/5/5 9/9/9
f 10/10/10 8/8/8 9/9/9
f 13/13/13 12/12/12 11/11/11
f 14/14/14 13/13/13 11/11/11
f 17/17/17 16/16/16 15/15/15
f 18/18/18 17/17/17 15/15/15
f 18/18/18 19/19/19 17/17/17
f 19/19/19 20/20/20 17/17/17
f 19/19/19 21/21/21 20/20/20
f 21/21/21 22/22/22 20/20/20
f 25/25/25 24/24/24 23/23/23
f 26/26/26 25/25/25 23/23/23
f 23/23/23 27/27/27 26/26/26
f 27/27/27 28/28/28 26/26/26
f 31/31/31 30/30/30 29/29/29
f 32/32/32 31/31/31 29/29/29
f 35/35/35 34/34/34 33/33/33
f 36/36/36 35/35/35 33/33/33
f 39/39/39 38/38/38 37/37/37
f 40/40/40 39/39/39 37/37/37
