g ENV_inflatedWall07_Col
v 0.9355692 10.76618 15.80029
v 0.9861794 -1.429519 -18.96829
v 0.950642 -9.077003 -16.28738
v 0.8597375 3.125862 18.49041
v -0.570483 -1.42369 -18.96594
v -0.6281074 10.76516 15.79729
v -0.695963 3.125887 18.49041
v -0.693591 -9.076978 -16.2874
v -0.6281074 10.76516 15.79729
v -0.570483 -1.42369 -18.96594
v 0.9861794 -1.429519 -18.96829
v 0.9355692 10.76618 15.80029
v -0.570483 -1.42369 -18.96594
v -0.693591 -9.076978 -16.2874
v 0.950642 -9.077003 -16.28738
v 0.9861794 -1.429519 -18.96829
v -0.695963 3.125887 18.49041
v -0.6281074 10.76516 15.79729
v 0.9355692 10.76618 15.80029
v 0.8597375 3.125862 18.49041
vt 0.0799219 0.02336828
vt 0.07925615 0.9759931
vt 0.09456962 0.02399039
vt 0.09357136 0.977044
vt 0.07412055 0.9760189
vt 0.07461946 0.02340576
vt 0.02020961 0.02295926
vt 0.02054772 0.9759092
vt 0.07461946 0.02340576
vt 0.07412055 0.9760189
vt 0.07925615 0.9759931
vt 0.0799219 0.02336828
vt 0.07461946 0.02340576
vt 0.07925615 0.9759931
vt 0.09456962 0.02399039
vt 0.02054772 0.9759092
vt 0.07412055 0.9760189
vt 0.0799219 0.02336828
vt 0.02020961 0.02295926
vt 0.09357136 0.977044
vn 0.6882472 0.6882472 -0.2294157
vn 0.9326633 -0.2550874 0.2550874
vn 1 0 0
vn 0.6882472 0.6882472 -0.2294157
vn -0.6879544 0.725754 0
vn -0.6879544 0.725754 0
vn -0.6686659 0.7054058 -0.2351353
vn -0.6686659 0.7054058 -0.2351353
vn 0.009881634 0.9486369 -0.3162123
vn 0.009881634 0.9486369 -0.3162123
vn 0.01515673 0.970031 -0.2425078
vn 0.008666866 0.832019 -0.5546794
vn -0.001292044 -0.3305679 -0.9437814
vn -0.001292044 -0.3305678 -0.9437814
vn -0.001292044 -0.3305678 -0.9437814
vn -0.001292044 -0.3305678 -0.9437814
vn -0.001013185 0.3323037 0.9431719
vn -0.001013186 0.3323037 0.9431719
vn -0.001013186 0.3323037 0.9431719
vn -0.001013186 0.3323037 0.9431719
g ENV_inflatedWall07_Col_0
f 3/3/3 2/2/2 1/1/1
f 4/4/4 3/3/3 1/1/1
f 7/7/7 6/6/6 5/5/5
f 8/8/8 7/7/7 5/5/5
f 11/11/11 10/10/10 9/9/9
f 12/12/12 11/11/11 9/9/9
f 15/15/15 14/14/14 13/13/13
f 16/16/16 15/15/15 13/13/13
f 19/19/19 18/18/18 17/17/17
f 20/20/20 19/19/19 17/17/17
