g ENV_disc
v -0.12 0 1.238859E-08
v -3.979322E-09 0 -1.021794E-09
v -0.103923 0 0.06
v -0.1039231 0 -0.05999999
v -0.05999999 0 0.1039231
v -0.06000001 0 -0.103923
v 7.152557E-09 0 0.12
v -1.955048E-08 0 -0.12
v 0.06 0 0.103923
v 0.05999998 0 -0.1039231
v 0.1039231 0 0.05999999
v 0.103923 0 -0.06000002
v 0.12 0 -1.858289E-08
vt 0 0.4999999
vt 0.5 0.5
vt 0.06698731 0.25
vt 0.06698725 0.7499999
vt 0.25 0.06698728
vt 0.2499999 0.9330127
vt 0.5 0
vt 0.4999999 1
vt 0.75 0.06698734
vt 0.7499999 0.9330127
vt 0.9330127 0.2500001
vt 0.9330127 0.7500001
vt 1 0.5000001
vn 0 1 0
vn 0 1 0
vn 0 1 0
vn 0 1 0
vn 0 1 0
vn 0 1 0
vn 0 1 0
vn 0 1 0
vn 0 1 0
vn 0 1 0
vn 0 1 0
vn 0 1 0
vn 0 1 0
g ENV_disc_0
f 3/3/3 2/2/2 1/1/1
f 4/4/4 1/1/1 2/2/2
f 3/3/3 5/5/5 2/2/2
f 4/4/4 2/2/2 6/6/6
f 7/7/7 2/2/2 5/5/5
f 8/8/8 6/6/6 2/2/2
f 7/7/7 9/9/9 2/2/2
f 8/8/8 2/2/2 10/10/10
f 11/11/11 2/2/2 9/9/9
f 12/12/12 10/10/10 2/2/2
f 11/11/11 13/13/13 2/2/2
f 12/12/12 2/2/2 13/13/13
