g ENV_BLO_Wall_2
v -1.960954 0.03410204 0.8955526
v -1.948023 0.0470322 0.9529759
v -1.8906 0.03410204 0.965906
v -1.8906 0.004960691 0.8955526
v -1.960954 0.03410204 -0.8955526
v 1.8906 0.004960691 0.8955526
v 1.8906 0.03410204 0.965906
v -1.8906 0.004960691 -0.8955526
v 1.960953 0.03410204 0.8955526
v 1.948023 0.0470322 0.9529759
v -1.8906 0.03410204 -0.965906
v -1.948023 0.0470322 -0.9529759
v 1.8906 0.03410204 -0.965906
v 1.8906 0.004960691 -0.8955526
v 1.960953 0.03410204 -0.8955526
v 1.948023 0.0470322 -0.9529759
v 1.960953 0.1044555 -0.965906
v 1.960953 0.1044555 0.965906
v 1.8906 0.03410204 0.965906
v 1.990095 0.1044555 -0.8955526
v 1.960953 3.900952 -0.965906
v 1.990095 0.1044555 0.8955526
v 1.990095 3.900952 0.8955526
v 1.990095 3.900952 -0.8955526
v 1.960953 3.971305 -0.8955526
v 1.948023 3.958375 -0.9529759
v 1.8906 3.971305 -0.965906
v 1.960953 3.971305 0.8955526
v 1.960953 3.900952 0.965906
v 1.8906 0.1044555 0.9950474
v -1.8906 0.1044555 0.9950474
v -1.8906 0.03410204 0.965906
v 1.8906 3.900952 0.9950474
v -1.960954 0.1044555 0.965906
v -1.948023 0.0470322 0.9529759
v -1.8906 3.900952 0.9950474
v -1.960954 0.03410204 0.8955526
v 1.8906 3.971305 0.965906
v 1.948023 3.958375 0.9529759
v -1.8906 3.971305 0.965906
v 1.8906 3.971305 0.965906
v -1.960954 3.900952 0.965906
v -1.948023 3.958375 0.9529759
v -1.960954 3.971305 0.8955526
v -1.990095 0.1044555 0.8955526
v -1.990095 3.900952 0.8955526
v -1.960954 3.971305 -0.8955526
v -1.990095 0.1044555 -0.8955526
v -1.960954 0.03410204 -0.8955526
v 1.8906 4.000446 0.8955526
v -1.990095 3.900952 -0.8955526
v -1.960954 0.1044555 -0.965906
v -1.948023 0.0470322 -0.9529759
v -1.8906 0.03410204 -0.965906
v -1.960954 3.900952 -0.965906
v -1.948023 3.958375 -0.9529759
v -1.8906 3.971305 -0.965906
v -1.8906 4.000446 0.8955526
v -1.8906 3.971305 0.965906
v -1.8906 0.1044555 -0.9950474
v -1.8906 3.900952 -0.9950474
v 1.8906 0.1044555 -0.9950474
v 1.8906 3.971305 -0.965906
v 1.8906 0.03410204 -0.965906
v 1.8906 3.900952 -0.9950474
v 1.960953 0.1044555 -0.965906
v 1.948023 0.0470322 -0.9529759
v 1.960953 3.900952 -0.965906
v 1.948023 3.958375 -0.9529759
v -1.948023 3.958375 0.9529759
v -1.960954 3.971305 0.8955526
v -1.8906 4.000446 -0.8955526
v -1.960954 3.971305 -0.8955526
v 1.8906 4.000446 -0.8955526
v -1.8906 3.971305 -0.965906
v -1.948023 3.958375 -0.9529759
vt 0.8490898 0.3225687
vt 0.8460434 0.3232195
vt 0.8455785 0.3262876
vt 0.8492088 0.3261963
vt 0.9345332 0.320244
vt 0.8541275 0.5064445
vt 0.8504792 0.5065627
vt 0.9346139 0.323875
vt 0.8542468 0.5100386
vt 0.8508657 0.5102866
vt 0.9382449 0.3237661
vt 0.9376019 0.3207142
vt 0.9432046 0.504149
vt 0.9395614 0.5042289
vt 0.9396618 0.5078413
vt 0.9427266 0.5077522
vt 0.9434167 0.5113426
vt 0.8507771 0.5136725
vt 0.8470994 0.5100784
vt 0.939768 0.5114543
vt 0.9477925 0.6928452
vt 0.8543877 0.5136161
vt 0.858723 0.6950314
vt 0.9441443 0.6929101
vt 0.9442144 0.6965141
vt 0.9472808 0.6964475
vt 0.9479306 0.7000114
vt 0.8587703 0.6986133
vt 0.8551039 0.6951551
vt 0.847159 0.5137376
vt 0.6664004 0.5176048
vt 0.6663309 0.5139663
vt 0.8514752 0.6952705
vt 0.6627446 0.5176584
vt 0.6636934 0.5142218
vt 0.6701649 0.6999443
vt 0.660787 0.5110103
vt 0.8515901 0.6989409
vt 0.8553707 0.6985387
vt 0.6702375 0.7036068
vt 0.8551924 0.7022794
vt 0.6665105 0.7000418
vt 0.6666051 0.7031353
vt 0.6629918 0.7038441
vt 0.6590419 0.5177231
vt 0.6628541 0.7001435
vt 0.576344 0.7059963
vt 0.5716159 0.5188003
vt 0.5714063 0.5149895
vt 0.8588411 0.70221
vt 0.5762971 0.7022935
vt 0.5679484 0.5189007
vt 0.567825 0.5157814
vt 0.5642082 0.5153086
vt 0.5726338 0.7023823
vt 0.5727034 0.7054905
vt 0.5690876 0.7061625
vt 0.8631715 0.8823672
vt 0.8595418 0.882463
vt 0.5642828 0.5189963
vt 0.5689705 0.7024751
vt 0.3816053 0.5237463
vt 0.3864271 0.7108275
vt 0.3814995 0.5200682
vt 0.3863419 0.7071522
vt 0.3779263 0.5238324
vt 0.3784094 0.5207176
vt 0.3826645 0.707255
vt 0.3833162 0.7103432
vt 0.8601599 0.8854971
vt 0.8632383 0.8859955
vt 0.9485371 0.8803239
vt 0.9486434 0.8839502
vt 0.9442933 0.7001181
vt 0.9521658 0.8802466
vt 0.9516898 0.8833173
vn -0.707067 -0.7070674 0.01057064
vn -0.5773506 -0.5773496 0.5773506
vn -0.005081966 -0.7070978 0.7070975
vn -0.007467504 -0.9998511 0.01555674
vn -0.7070671 -0.7070674 -0.01057064
vn 0.007467504 -0.9998511 0.01555674
vn 0.005081968 -0.7070978 0.7070975
vn -0.007467504 -0.9998511 -0.01555674
vn 0.7070666 -0.707068 0.01057062
vn 0.5773505 -0.5773503 0.57735
vn -0.005081966 -0.7070978 -0.7070975
vn -0.5773507 -0.5773495 -0.5773506
vn 0.005081967 -0.7070978 -0.7070975
vn 0.007467504 -0.9998511 -0.01555674
vn 0.7070666 -0.707068 -0.01057063
vn 0.5773507 -0.5773501 -0.57735
vn 0.7070972 -0.005061759 -0.7070982
vn 0.7070972 -0.005061764 0.7070982
vn 0.005081968 -0.7070978 0.7070975
vn 0.9998513 -0.007438007 -0.01555716
vn 0.7070972 0.005061763 -0.7070982
vn 0.9998513 -0.007438007 0.01555716
vn 0.9998513 0.007438007 0.01555716
vn 0.9998513 0.007438007 -0.01555716
vn 0.7070662 0.7070683 -0.01057061
vn 0.5773498 0.5773506 -0.5773504
vn 0.005081972 0.7070982 -0.7070972
vn 0.7070662 0.7070683 0.0105706
vn 0.7070972 0.005061756 0.7070982
vn 0.007518771 -0.007488843 0.9999437
vn -0.007518771 -0.007488843 0.9999437
vn -0.005081966 -0.7070978 0.7070975
vn 0.007518771 0.007488844 0.9999437
vn -0.7070976 -0.005061746 0.7070978
vn -0.5773506 -0.5773496 0.5773506
vn -0.007518771 0.007488844 0.9999437
vn -0.707067 -0.7070674 0.01057064
vn 0.005081973 0.7070982 0.7070972
vn 0.5773501 0.5773506 0.5773501
vn -0.005081974 0.7070982 0.7070972
vn 0.005081973 0.7070982 0.7070972
vn -0.7070975 0.005061742 0.7070978
vn -0.5773503 0.5773501 0.5773504
vn -0.7070667 0.7070677 0.01057057
vn -0.9998513 -0.007437973 0.0155571
vn -0.9998513 0.007437972 0.0155571
vn -0.7070667 0.7070677 -0.01057058
vn -0.9998513 -0.007437972 -0.0155571
vn -0.7070671 -0.7070674 -0.01057064
vn 0.007467523 0.9998511 0.0155569
vn -0.9998513 0.007437972 -0.0155571
vn -0.7070976 -0.005061741 -0.7070978
vn -0.5773507 -0.5773495 -0.5773506
vn -0.005081966 -0.7070978 -0.7070975
vn -0.7070975 0.005061741 -0.7070978
vn -0.5773501 0.5773501 -0.5773507
vn -0.005081969 0.7070982 -0.7070972
vn -0.007467523 0.9998511 0.0155569
vn -0.005081974 0.7070982 0.7070972
vn -0.007518771 -0.007488843 -0.9999437
vn -0.007518771 0.007488844 -0.9999437
vn 0.007518771 -0.007488843 -0.9999437
vn 0.005081972 0.7070982 -0.7070972
vn 0.005081967 -0.7070978 -0.7070975
vn 0.007518771 0.007488844 -0.9999437
vn 0.7070972 -0.005061759 -0.7070982
vn 0.5773507 -0.5773501 -0.57735
vn 0.7070972 0.005061763 -0.7070982
vn 0.5773498 0.5773506 -0.5773504
vn -0.5773503 0.5773501 0.5773504
vn -0.7070667 0.7070677 0.01057057
vn -0.007467523 0.9998511 -0.0155569
vn -0.7070667 0.7070677 -0.01057058
vn 0.007467523 0.9998511 -0.0155569
vn -0.005081969 0.7070982 -0.7070972
vn -0.5773501 0.5773501 -0.5773507
g ENV_BLO_Wall_2_0
f 3/3/3 2/2/2 1/1/1
f 4/4/4 3/3/3 1/1/1
f 1/1/1 5/5/5 4/4/4
f 4/4/4 6/6/6 3/3/3
f 6/6/6 7/7/7 3/3/3
f 5/5/5 8/8/8 4/4/4
f 6/6/6 4/4/4 8/8/8
f 6/6/6 9/9/9 7/7/7
f 9/9/9 10/10/10 7/7/7
f 8/8/8 5/5/5 11/11/11
f 5/5/5 12/12/12 11/11/11
f 11/11/11 13/13/13 8/8/8
f 14/14/14 6/6/6 8/8/8
f 13/13/13 14/14/14 8/8/8
f 6/6/6 14/14/14 9/9/9
f 14/14/14 13/13/13 15/15/15
f 14/14/14 15/15/15 9/9/9
f 13/13/13 16/16/16 15/15/15
f 15/15/15 16/16/16 17/17/17
f 18/18/18 10/10/10 9/9/9
f 19/19/19 10/10/10 18/18/18
f 20/20/20 15/15/15 17/17/17
f 17/17/17 21/21/21 20/20/20
f 9/9/9 15/15/15 22/22/22
f 22/22/22 18/18/18 9/9/9
f 15/15/15 20/20/20 22/22/22
f 23/23/23 22/22/22 20/20/20
f 22/22/22 23/23/23 18/18/18
f 21/21/21 24/24/24 20/20/20
f 24/24/24 23/23/23 20/20/20
f 24/24/24 21/21/21 25/25/25
f 21/21/21 26/26/26 25/25/25
f 25/25/25 26/26/26 27/27/27
f 23/23/23 24/24/24 28/28/28
f 24/24/24 25/25/25 28/28/28
f 23/23/23 29/29/29 18/18/18
f 23/23/23 28/28/28 29/29/29
f 30/30/30 19/19/19 18/18/18
f 18/18/18 29/29/29 30/30/30
f 19/19/19 30/30/30 31/31/31
f 32/32/32 19/19/19 31/31/31
f 29/29/29 33/33/33 30/30/30
f 31/31/31 34/34/34 32/32/32
f 34/34/34 35/35/35 32/32/32
f 31/31/31 36/36/36 34/34/34
f 37/37/37 35/35/35 34/34/34
f 33/33/33 29/29/29 38/38/38
f 29/29/29 39/39/39 38/38/38
f 28/28/28 39/39/39 29/29/29
f 33/33/33 38/38/38 40/40/40
f 36/36/36 33/33/33 40/40/40
f 41/41/41 39/39/39 28/28/28
f 36/36/36 40/40/40 42/42/42
f 36/36/36 42/42/42 34/34/34
f 40/40/40 43/43/43 42/42/42
f 42/42/42 43/43/43 44/44/44
f 45/45/45 37/37/37 34/34/34
f 34/34/34 42/42/42 45/45/45
f 46/46/46 42/42/42 44/44/44
f 42/42/42 46/46/46 45/45/45
f 44/44/44 47/47/47 46/46/46
f 45/45/45 48/48/48 37/37/37
f 45/45/45 46/46/46 48/48/48
f 48/48/48 49/49/49 37/37/37
f 50/50/50 41/41/41 28/28/28
f 28/28/28 25/25/25 50/50/50
f 47/47/47 51/51/51 46/46/46
f 46/46/46 51/51/51 48/48/48
f 48/48/48 52/52/52 49/49/49
f 48/48/48 51/51/51 52/52/52
f 52/52/52 53/53/53 49/49/49
f 54/54/54 53/53/53 52/52/52
f 51/51/51 47/47/47 55/55/55
f 51/51/51 55/55/55 52/52/52
f 47/47/47 56/56/56 55/55/55
f 55/55/55 56/56/56 57/57/57
f 41/41/41 50/50/50 58/58/58
f 59/59/59 41/41/41 58/58/58
f 60/60/60 54/54/54 52/52/52
f 52/52/52 55/55/55 60/60/60
f 61/61/61 55/55/55 57/57/57
f 55/55/55 61/61/61 60/60/60
f 60/60/60 62/62/62 54/54/54
f 57/57/57 63/63/63 61/61/61
f 62/62/62 64/64/64 54/54/54
f 63/63/63 65/65/65 61/61/61
f 62/62/62 66/66/66 64/64/64
f 62/62/62 65/65/65 66/66/66
f 66/66/66 67/67/67 64/64/64
f 65/65/65 68/68/68 66/66/66
f 65/65/65 63/63/63 68/68/68
f 63/63/63 69/69/69 68/68/68
f 71/71/71 70/70/70 59/59/59
f 58/58/58 71/71/71 59/59/59
f 58/58/58 72/72/72 71/71/71
f 72/72/72 73/73/73 71/71/71
f 74/74/74 72/72/72 58/58/58
f 50/50/50 74/74/74 58/58/58
f 25/25/25 74/74/74 50/50/50
f 74/74/74 25/25/25 27/27/27
f 74/74/74 27/27/27 75/75/75
f 72/72/72 74/74/74 75/75/75
f 72/72/72 75/75/75 73/73/73
f 75/75/75 76/76/76 73/73/73
g ENV_BLO_Wall_2_1
f 61/61/61 65/65/65 62/62/62
f 60/60/60 61/61/61 62/62/62
f 36/36/36 31/31/31 30/30/30
f 33/33/33 36/36/36 30/30/30
