g ENV_FLR_Tier7Ramp_Unlit
v 0.5126405 27.07642 -51.24711
v 22.00885 24.50638 -51.24804
v 22.00664 24.50638 -50.71497
v 0.5126405 27.07642 -50.71497
v -13.34503 27.07642 -51.24711
v -13.34375 27.07862 -50.71532
v -13.87461 27.08082 -50.92691
v -13.34247 27.12291 -65.17599
v -13.34375 27.07862 -50.71532
v -13.87461 27.12291 -65.17599
v -13.34247 28.92376 -84.77909
v -13.87461 28.92376 -84.77909
v -0.9698808 27.08082 -64.22808
v -0.4377401 27.12291 -65.17599
v -0.4377401 27.08082 -64.22808
v -0.9698808 27.12291 -65.17599
v -0.4377401 28.92375 -84.76521
v -0.9698808 28.92375 -84.76521
v 0.5126405 27.07642 -64.22888
v 22.00664 24.50638 -64.22888
v 22.00885 24.50638 -63.69521
v 0.5126405 27.07642 -63.69674
v -13.34503 27.07642 -64.22888
v -13.34503 27.07642 -63.69674
v 22.00885 24.50638 -63.69521
v 22.00885 24.50638 -51.24804
v 21.47892 24.56998 -51.24896
v 21.47892 24.56998 -63.69368
v -0.9334354 27.08082 -51.24596
v -0.9334354 27.08082 -63.69847
v -0.4012947 27.08082 -63.69847
v -0.4012947 27.08082 -51.24596
vt -3.167451 0.0008119345
vt 16.50926 0.0008119345
vt 16.50955 -1.00303
vt -3.167158 -1.00303
vt -15.78007 0.0008119345
vt -15.77978 -1.00303
vt 15.64683 -1.00303
vt 3.267724 0.0008119345
vt 15.83932 0.0008120537
vt 3.267457 -1.00303
vt -15.51922 0.0008119345
vt -15.51949 -1.00303
vt 10.01148 -1.00303
vt 9.149746 0.0008119345
vt 10.0123 0.0008119345
vt 9.148925 -1.00303
vt -9.551309 0.0008119345
vt -9.552127 -1.00303
vt -3.167451 0.0008119345
vt 16.50925 0.0008119345
vt 16.50955 -1.00303
vt -3.167155 -1.00303
vt -15.78007 0.0008119345
vt -15.77978 -1.00303
vt -5.041848 0.0008119345
vt 5.74678 0.0008120537
vt 5.745761 -1.00303
vt -5.042864 -1.00303
vt 15.01837 -1.00303
vt 3.849439 -1.00303
vt 3.849706 0.0008119345
vt 15.01413 0.0008120537
vn 0.07297613 0.9973304 -0.002582722
vn 0.1193733 0.9928452 -0.002905961
vn 0.1193733 0.9928452 -0.002905961
vn 0.07297583 0.9973304 -0.00258272
vn 7.937721E-05 0.9999979 -0.002065823
vn 7.937722E-05 0.9999979 -0.002065823
vn 0.002052852 0.999998 8.022535E-05
vn 0.0008314911 0.9985384 0.05403944
vn 0.002052851 0.999998 8.022536E-05
vn 0.0008315204 0.9985385 0.05403815
vn 0 0.9958852 0.09062338
vn 0 0.9958852 0.09062338
vn 0 1 0
vn 0 0.9970292 0.07702411
vn 0 1 0
vn 0 0.9970292 0.07702411
vn 0 0.9967431 0.08064244
vn 0 0.9967431 0.08064244
vn 0.07295012 0.997334 0.001774856
vn 0.1193732 0.9928452 0.002904318
vn 0.1193733 0.9928452 0.002904317
vn 0.07295138 0.9973339 0.001774886
vn 0 1 0
vn 0 1 0
vn 0.1222731 0.9924965 0
vn 0.1222731 0.9924965 0
vn 0.1222731 0.9924965 0
vn 0.1222731 0.9924965 0
vn 0 1 0
vn 0 1 0
vn 0 1 0
vn 0 1 0
g ENV_FLR_Tier7Ramp_Unlit_0
f 3/3/3 2/2/2 1/1/1
f 4/4/4 3/3/3 1/1/1
f 1/1/1 5/5/5 4/4/4
f 5/5/5 6/6/6 4/4/4
f 9/9/9 8/8/8 7/7/7
f 8/8/8 10/10/10 7/7/7
f 8/8/8 11/11/11 10/10/10
f 11/11/11 12/12/12 10/10/10
f 15/15/15 14/14/14 13/13/13
f 14/14/14 16/16/16 13/13/13
f 14/14/14 17/17/17 16/16/16
f 17/17/17 18/18/18 16/16/16
f 21/21/21 20/20/20 19/19/19
f 22/22/22 21/21/21 19/19/19
f 19/19/19 23/23/23 22/22/22
f 23/23/23 24/24/24 22/22/22
f 27/27/27 26/26/26 25/25/25
f 28/28/28 27/27/27 25/25/25
f 31/31/31 30/30/30 29/29/29
f 32/32/32 31/31/31 29/29/29
