g ENV_TTT_RampCollision
v 15.18112 0.07851118 -15.12981
v 15.1995 0.07851124 -6.121139
v 11.65987 1.581174 -11.55884
v 6.121139 0.07851124 -15.1995
v 15.18112 0.07851118 -15.12981
v 11.65987 1.581174 -11.55884
v 15.12981 0.07851118 15.18112
v 6.121139 0.07851124 15.1995
v 11.55884 1.581174 11.65987
v 15.1995 0.07851124 6.121139
v 15.12981 0.07851118 15.18112
v 11.55884 1.581174 11.65987
v -15.18112 0.07851118 15.12981
v -15.1995 0.07851124 6.121139
v -11.65987 1.581174 11.55884
v -6.121139 0.07851124 15.1995
v -15.18112 0.07851118 15.12981
v -11.65987 1.581174 11.55884
v -15.12981 0.07851118 -15.18112
v -6.121139 0.07851124 -15.1995
v -11.55884 1.581174 -11.65987
v -15.1995 0.07851124 -6.121139
v -15.12981 0.07851118 -15.18112
v -11.55884 1.581174 -11.65987
v 2.996976 4.348821 -7.42935
v 6.121139 0.07851124 -15.1995
v 11.65987 1.581174 -11.55884
v 5.243262 4.348821 -5.213163
v 11.65987 1.581174 -11.55884
v 15.1995 0.07851124 -6.121139
v 7.42935 4.348821 -2.996976
v 5.243262 4.348821 -5.213163
v 7.42935 4.348821 2.996976
v 15.1995 0.07851124 6.121139
v 11.55884 1.581174 11.65987
v 5.213163 4.348821 5.243262
v 11.55884 1.581174 11.65987
v 6.121139 0.07851124 15.1995
v 2.996976 4.348821 7.42935
v 5.213163 4.348821 5.243262
v -3.057173 4.348821 7.42935
v -6.121139 0.07851124 15.1995
v -11.65987 1.581174 11.55884
v -5.243262 4.348821 5.213163
v -11.65987 1.581174 11.55884
v -15.1995 0.07851124 6.121139
v -7.42935 4.348821 2.996976
v -5.243262 4.348821 5.213163
v -7.42935 4.348821 -2.996976
v -15.1995 0.07851124 -6.121139
v -11.55884 1.581174 -11.65987
v -5.213163 4.348821 -5.243262
v -11.55884 1.581174 -11.65987
v -6.121139 0.07851124 -15.1995
v -2.996976 4.348821 -7.42935
v -5.213163 4.348821 -5.243262
v 5.243262 4.348821 -5.213163
v 5.007526 3.412671 -4.978112
v 2.806826 3.442019 -7.08646
v 2.996976 4.348821 -7.42935
v 2.996976 4.348821 -7.42935
v 2.806826 3.442019 -7.08646
v 6.069412 -0.824565 -14.79194
v 6.121139 0.07851124 -15.1995
v 15.18112 0.07851118 -15.12981
v 14.98232 -0.8495176 -14.93533
v 14.78794 -0.8230162 -6.072665
v 15.1995 0.07851124 -6.121139
v 7.42935 4.348821 -2.996976
v 7.08632 3.441788 -2.809237
v 5.007526 3.412671 -4.978112
v 5.243262 4.348821 -5.213163
v 15.1995 0.07851124 -6.121139
v 14.78794 -0.8230162 -6.072665
v 7.08632 3.441788 -2.809237
v 7.42935 4.348821 -2.996976
v 6.121139 0.07851124 -15.1995
v 6.069412 -0.824565 -14.79194
v 14.98232 -0.8495176 -14.93533
v 15.18112 0.07851118 -15.12981
v 5.213163 4.348821 5.243262
v 4.978112 3.412671 5.007526
v 7.08646 3.442019 2.806826
v 7.42935 4.348821 2.996976
v 7.42935 4.348821 2.996976
v 7.08646 3.442019 2.806826
v 14.79194 -0.8245651 6.069412
v 15.1995 0.07851124 6.121139
v 15.12981 0.07851118 15.18112
v 14.93533 -0.8495177 14.98232
v 6.072665 -0.8230162 14.78794
v 6.121139 0.07851124 15.1995
v 2.996976 4.348821 7.42935
v 2.809237 3.441788 7.08632
v 4.978112 3.412671 5.007526
v 5.213163 4.348821 5.243262
v 6.121139 0.07851124 15.1995
v 6.072665 -0.8230162 14.78794
v 2.809237 3.441788 7.08632
v 2.996976 4.348821 7.42935
v 15.1995 0.07851124 6.121139
v 14.79194 -0.8245651 6.069412
v 14.93533 -0.8495177 14.98232
v 15.12981 0.07851118 15.18112
v -5.243262 4.348821 5.213163
v -5.006753 3.412437 4.979754
v -2.865654 3.441853 7.08853
v -3.057173 4.348821 7.42935
v -3.057173 4.348821 7.42935
v -2.865654 3.441853 7.08853
v -6.069156 -0.8244178 14.7917
v -6.121139 0.07851124 15.1995
v -15.18112 0.07851118 15.12981
v -14.98232 -0.8495176 14.93533
v -14.78794 -0.8230162 6.072665
v -15.1995 0.07851124 6.121139
v -7.42935 4.348821 2.996976
v -7.08632 3.441788 2.809237
v -5.006753 3.412437 4.979754
v -5.243262 4.348821 5.213163
v -15.1995 0.07851124 6.121139
v -14.78794 -0.8230162 6.072665
v -7.08632 3.441788 2.809237
v -7.42935 4.348821 2.996976
v -6.121139 0.07851124 15.1995
v -6.069156 -0.8244178 14.7917
v -14.98232 -0.8495176 14.93533
v -15.18112 0.07851118 15.12981
v -5.213163 4.348821 -5.243262
v -4.978112 3.412671 -5.007526
v -7.08646 3.442019 -2.806826
v -7.42935 4.348821 -2.996976
v -7.42935 4.348821 -2.996976
v -7.08646 3.442019 -2.806826
v -14.79194 -0.8245651 -6.069412
v -15.1995 0.07851124 -6.121139
v -15.12981 0.07851118 -15.18112
v -14.93533 -0.8495177 -14.98232
v -6.072665 -0.8230162 -14.78794
v -6.121139 0.07851124 -15.1995
v -2.996976 4.348821 -7.42935
v -2.809237 3.441788 -7.08632
v -4.978112 3.412671 -5.007526
v -5.213163 4.348821 -5.243262
v -6.121139 0.07851124 -15.1995
v -6.072665 -0.8230162 -14.78794
v -2.809237 3.441788 -7.08632
v -2.996976 4.348821 -7.42935
v -15.1995 0.07851124 -6.121139
v -14.79194 -0.8245651 -6.069412
v -14.93533 -0.8495177 -14.98232
v -15.12981 0.07851118 -15.18112
v -9.408715 0.7117401 9.392846
v -5.006753 3.412437 4.979754
v -7.08632 3.441788 2.809237
v -14.78794 -0.8230162 6.072665
v -2.865654 3.441853 7.08853
v -14.98232 -0.8495176 14.93533
v -6.069156 -0.8244178 14.7917
v 9.390135 0.7146677 9.392318
v 4.978112 3.412671 5.007526
v 2.809237 3.441788 7.08632
v 6.072665 -0.8230162 14.78794
v 7.08646 3.442019 2.806826
v 14.93533 -0.8495177 14.98232
v 14.79194 -0.8245651 6.069412
v 9.392318 0.7146679 -9.390135
v 5.007526 3.412671 -4.978112
v 7.08632 3.441788 -2.809237
v 14.78794 -0.8230162 -6.072665
v 2.806826 3.442019 -7.08646
v 14.98232 -0.8495176 -14.93533
v 6.069412 -0.824565 -14.79194
v -9.390135 0.7146677 -9.392318
v -4.978112 3.412671 -5.007526
v -2.809237 3.441788 -7.08632
v -6.072665 -0.8230162 -14.78794
v -7.08646 3.442019 -2.806826
v -14.93533 -0.8495177 -14.98232
v -14.79194 -0.8245651 -6.069412
vt 0.4062469 0.4687531
vt 0.4374937 0.5
vt 0.4062469 0.4687531
vt 0.375 0.4375063
vt 0.4062469 0.4687531
vt 0.4062469 0.4687531
vt 0.4062469 0.4687531
vt 0.4374937 0.5
vt 0.4062469 0.4687531
vt 0.375 0.4375063
vt 0.4062469 0.4687531
vt 0.4062469 0.4687531
vt 0.4062469 0.4687531
vt 0.4374937 0.5
vt 0.4062469 0.4687531
vt 0.375 0.4375063
vt 0.4062469 0.4687531
vt 0.4062469 0.4687531
vt 0.4062469 0.4687531
vt 0.4374937 0.5
vt 0.4062469 0.4687531
vt 0.375 0.4375063
vt 0.4062469 0.4687531
vt 0.4062469 0.4687531
vt 0.375 0.4375063
vt 0.375 0.4375063
vt 0.4062469 0.4687531
vt 0.4062469 0.4687531
vt 0.4062469 0.4687531
vt 0.4374937 0.5
vt 0.4374937 0.5
vt 0.4062469 0.4687531
vt 0.375 0.4375063
vt 0.375 0.4375063
vt 0.4062469 0.4687531
vt 0.4062469 0.4687531
vt 0.4062469 0.4687531
vt 0.4374937 0.5
vt 0.4374937 0.5
vt 0.4062469 0.4687531
vt 0.375 0.4375063
vt 0.375 0.4375063
vt 0.4062469 0.4687531
vt 0.4062469 0.4687531
vt 0.4062469 0.4687531
vt 0.4374937 0.5
vt 0.4374937 0.5
vt 0.4062469 0.4687531
vt 0.375 0.4375063
vt 0.375 0.4375063
vt 0.4062469 0.4687531
vt 0.4062469 0.4687531
vt 0.4062469 0.4687531
vt 0.4374937 0.5
vt 0.4374937 0.5
vt 0.4062469 0.4687531
vt 0 0
vt 0 1
vt 1 1
vt 1 0
vt 0 0
vt 0 1
vt 1 1
vt 1 0
vt 0 0
vt 0 1
vt 1 1
vt 1 0
vt 0 0
vt 0 1
vt 1 1
vt 1 0
vt 0 0
vt 0 1
vt 1 1
vt 1 0
vt 0 0
vt 0 1
vt 1 1
vt 1 0
vt 0 0
vt 0 1
vt 1 1
vt 1 0
vt 0 0
vt 0 1
vt 1 1
vt 1 0
vt 0 0
vt 0 1
vt 1 1
vt 1 0
vt 0 0
vt 0 1
vt 1 1
vt 1 0
vt 0 0
vt 0 1
vt 1 1
vt 1 0
vt 0 0
vt 0 1
vt 1 1
vt 1 0
vt 0 0
vt 0 1
vt 1 1
vt 1 0
vt 0 0
vt 0 1
vt 1 1
vt 1 0
vt 0 0
vt 0 1
vt 1 1
vt 1 0
vt 0 0
vt 0 1
vt 1 1
vt 1 0
vt 0 0
vt 0 1
vt 1 1
vt 1 0
vt 0 0
vt 0 1
vt 1 1
vt 1 0
vt 0 0
vt 0 1
vt 1 1
vt 1 0
vt 0 0
vt 0 1
vt 1 1
vt 1 0
vt 0 0
vt 0 1
vt 1 1
vt 1 0
vt 0 0
vt 0 1
vt 1 1
vt 1 0
vt 0 0
vt 0 1
vt 1 1
vt 1 0
vt 0 0
vt 0 1
vt 1 1
vt 1 0
vt 0 1
vt 0 1
vt 0 1
vt 0 1
vt 0 1
vt 0 1
vt 0 1
vt 0 1
vt 0 1
vt 0 1
vt 0 1
vt 0 1
vt 0 1
vt 0 1
vt 0 1
vt 0 1
vt 0 1
vt 0 1
vt 0 1
vt 0 1
vt 0 1
vt 0 1
vt 0 1
vt 0 1
vt 0 1
vt 0 1
vt 0 1
vt 0 1
vn 0.3918103 0.9200457 -0.0007991617
vn 0.3918103 0.9200457 -0.0007991616
vn 0.3918103 0.9200457 -0.0007991617
vn 0.002964485 0.9227563 -0.3853727
vn 0.002964485 0.9227563 -0.3853727
vn 0.002964485 0.9227563 -0.3853727
vn 0.00079921 0.9200456 0.3918104
vn 0.0007992099 0.9200456 0.3918104
vn 0.0007992099 0.9200456 0.3918104
vn 0.3853725 0.9227563 0.002964373
vn 0.3853725 0.9227563 0.002964373
vn 0.3853725 0.9227563 0.002964373
vn -0.3918103 0.9200457 0.0007991617
vn -0.3918103 0.9200457 0.0007991616
vn -0.3918103 0.9200457 0.0007991617
vn -0.002964485 0.9227563 0.3853727
vn -0.002964485 0.9227563 0.3853727
vn -0.002964485 0.9227563 0.3853727
vn -0.00079921 0.9200456 -0.3918104
vn -0.0007992099 0.9200456 -0.3918104
vn -0.0007992099 0.9200456 -0.3918104
vn -0.3853725 0.9227563 -0.002964373
vn -0.3853725 0.9227563 -0.002964373
vn -0.3853725 0.9227563 -0.002964373
vn 0.1107192 0.9172915 -0.3825148
vn 0.1107192 0.9172915 -0.3825148
vn 0.1107192 0.9172915 -0.3825148
vn 0.1107192 0.9172915 -0.3825148
vn 0.383668 0.9172592 -0.1069318
vn 0.383668 0.9172591 -0.1069318
vn 0.383668 0.9172592 -0.1069318
vn 0.383668 0.9172592 -0.1069318
vn 0.3825148 0.9172914 0.1107192
vn 0.3825148 0.9172915 0.1107192
vn 0.3825148 0.9172915 0.1107192
vn 0.3825148 0.9172915 0.1107192
vn 0.1069318 0.9172592 0.383668
vn 0.1069318 0.9172592 0.383668
vn 0.1069318 0.9172592 0.383668
vn 0.1069318 0.9172592 0.383668
vn -0.1115211 0.9172341 0.3824197
vn -0.1115211 0.9172341 0.3824197
vn -0.1115211 0.9172341 0.3824197
vn -0.1115211 0.9172341 0.3824197
vn -0.383668 0.9172592 0.1069318
vn -0.383668 0.9172591 0.1069318
vn -0.383668 0.9172592 0.1069318
vn -0.383668 0.9172592 0.1069318
vn -0.3825148 0.9172914 -0.1107192
vn -0.3825148 0.9172915 -0.1107192
vn -0.3825148 0.9172915 -0.1107192
vn -0.3825148 0.9172915 -0.1107192
vn -0.1069318 0.9172592 -0.383668
vn -0.1069318 0.9172592 -0.383668
vn -0.1069318 0.9172592 -0.383668
vn -0.1069318 0.9172592 -0.383668
vn -0.6491683 0.3601233 0.6699937
vn -0.6491683 0.3601233 0.6699937
vn -0.6491683 0.3601233 0.6699937
vn -0.6491684 0.3601233 0.6699937
vn -0.9294209 -0.02834944 -0.3679307
vn -0.9294209 -0.02834944 -0.3679307
vn -0.9294209 -0.02834944 -0.3679307
vn -0.9294209 -0.02834944 -0.3679307
vn 0.9489483 -0.3152788 0.00981297
vn 0.9489483 -0.3152789 0.00981297
vn 0.9489483 -0.3152788 0.00981297
vn 0.9489483 -0.3152788 0.00981297
vn -0.6701573 0.359393 0.6494042
vn -0.6701573 0.3593931 0.6494042
vn -0.6701573 0.359393 0.6494042
vn -0.6701573 0.359393 0.6494042
vn 0.3665347 -0.03148111 0.9298716
vn 0.3665347 -0.0314811 0.9298716
vn 0.3665347 -0.03148111 0.9298716
vn 0.3665347 -0.0314811 0.9298716
vn -0.004329261 -0.3117977 -0.9501387
vn -0.004329261 -0.3117978 -0.9501387
vn -0.004329261 -0.3117978 -0.9501387
vn -0.004329261 -0.3117978 -0.9501387
vn -0.6699937 0.3601228 -0.6491687
vn -0.6699936 0.3601228 -0.6491687
vn -0.6699936 0.3601228 -0.6491687
vn -0.6699936 0.3601228 -0.6491687
vn 0.3679309 -0.02834967 -0.9294209
vn 0.3679309 -0.02834967 -0.9294209
vn 0.3679309 -0.02834967 -0.9294209
vn 0.3679309 -0.02834967 -0.9294209
vn -0.009813024 -0.3152789 0.9489483
vn -0.009813025 -0.315279 0.9489483
vn -0.009813026 -0.3152789 0.9489483
vn -0.009813025 -0.315279 0.9489483
vn -0.6494043 0.3593926 -0.6701575
vn -0.6494043 0.3593926 -0.6701575
vn -0.6494043 0.3593926 -0.6701575
vn -0.6494043 0.3593926 -0.6701574
vn -0.9298716 -0.03148159 0.3665348
vn -0.9298716 -0.03148158 0.3665347
vn -0.9298716 -0.03148158 0.3665347
vn -0.9298716 -0.03148158 0.3665348
vn 0.9501387 -0.3117975 -0.00432924
vn 0.9501387 -0.3117975 -0.00432924
vn 0.9501387 -0.3117975 -0.00432924
vn 0.9501387 -0.3117975 -0.00432924
vn 0.6585906 0.3589518 -0.6613712
vn 0.6585907 0.3589518 -0.6613712
vn 0.6585907 0.3589518 -0.6613711
vn 0.6585907 0.3589518 -0.6613712
vn 0.9312914 -0.02502206 0.3634148
vn 0.9312914 -0.02502206 0.3634148
vn 0.9312914 -0.02502206 0.3634148
vn 0.9312914 -0.02502206 0.3634147
vn -0.9489483 -0.3152788 -0.00981297
vn -0.9489483 -0.3152789 -0.00981297
vn -0.9489483 -0.3152788 -0.00981297
vn -0.9489483 -0.3152788 -0.00981297
vn 0.6703095 0.3590987 -0.6494099
vn 0.6703095 0.3590987 -0.64941
vn 0.6703095 0.3590987 -0.6494099
vn 0.6703095 0.3590987 -0.6494099
vn -0.3665347 -0.03148111 -0.9298716
vn -0.3665347 -0.0314811 -0.9298716
vn -0.3665347 -0.03148111 -0.9298716
vn -0.3665347 -0.0314811 -0.9298716
vn 0.004344211 -0.3119288 0.9500955
vn 0.004344211 -0.3119288 0.9500955
vn 0.004344211 -0.3119287 0.9500955
vn 0.004344211 -0.3119288 0.9500955
vn 0.6699937 0.3601228 0.6491687
vn 0.6699936 0.3601228 0.6491687
vn 0.6699936 0.3601228 0.6491687
vn 0.6699936 0.3601228 0.6491687
vn -0.3679309 -0.02834967 0.9294209
vn -0.3679309 -0.02834967 0.9294209
vn -0.3679309 -0.02834967 0.9294209
vn -0.3679309 -0.02834967 0.9294209
vn 0.009813024 -0.3152789 -0.9489483
vn 0.009813025 -0.315279 -0.9489483
vn 0.009813026 -0.3152789 -0.9489483
vn 0.009813025 -0.315279 -0.9489483
vn 0.6494043 0.3593926 0.6701575
vn 0.6494043 0.3593926 0.6701575
vn 0.6494043 0.3593926 0.6701575
vn 0.6494043 0.3593926 0.6701574
vn 0.9298716 -0.03148159 -0.3665348
vn 0.9298716 -0.03148158 -0.3665347
vn 0.9298716 -0.03148158 -0.3665347
vn 0.9298716 -0.03148158 -0.3665348
vn -0.9501387 -0.3117975 0.00432924
vn -0.9501387 -0.3117975 0.00432924
vn -0.9501387 -0.3117975 0.00432924
vn -0.9501387 -0.3117975 0.00432924
vn 0.2514036 -0.9348908 -0.2505499
vn 0.3062473 -0.9021165 -0.3039712
vn 0.3620295 -0.8993334 -0.2452224
vn 0.3241321 -0.936621 -0.1329639
vn 0.247823 -0.898906 -0.3613195
vn 0.1376597 -0.9808388 -0.1378591
vn 0.134686 -0.9365286 -0.3236881
vn -0.2512327 -0.9349004 -0.2506857
vn -0.3048254 -0.9022883 -0.3048888
vn -0.2458144 -0.8992155 -0.3619211
vn -0.1329054 -0.9367377 -0.3238188
vn -0.361669 -0.8992879 -0.2459203
vn -0.1376758 -0.9808332 -0.1378829
vn -0.3241626 -0.9364541 -0.134061
vn -0.2506856 -0.9349005 0.2512327
vn -0.3048888 -0.9022883 0.3048254
vn -0.361921 -0.8992155 0.2458144
vn -0.3238188 -0.9367377 0.1329055
vn -0.2459202 -0.8992879 0.361669
vn -0.137883 -0.9808332 0.1376759
vn -0.134061 -0.9364541 0.3241626
vn 0.2512327 -0.9349004 0.2506857
vn 0.3048254 -0.9022883 0.3048888
vn 0.2458144 -0.8992155 0.3619211
vn 0.1329054 -0.9367377 0.3238188
vn 0.361669 -0.8992879 0.2459203
vn 0.1376758 -0.9808332 0.1378829
vn 0.3241626 -0.9364541 0.134061
g ENV_TTT_RampCollision_0
f 3/3/3 2/2/2 1/1/1
f 6/6/6 5/5/5 4/4/4
f 9/9/9 8/8/8 7/7/7
f 12/12/12 11/11/11 10/10/10
f 15/15/15 14/14/14 13/13/13
f 18/18/18 17/17/17 16/16/16
f 21/21/21 20/20/20 19/19/19
f 24/24/24 23/23/23 22/22/22
f 27/27/27 26/26/26 25/25/25
f 28/28/28 27/27/27 25/25/25
f 31/31/31 30/30/30 29/29/29
f 32/32/32 31/31/31 29/29/29
f 35/35/35 34/34/34 33/33/33
f 36/36/36 35/35/35 33/33/33
f 39/39/39 38/38/38 37/37/37
f 40/40/40 39/39/39 37/37/37
f 43/43/43 42/42/42 41/41/41
f 44/44/44 43/43/43 41/41/41
f 47/47/47 46/46/46 45/45/45
f 48/48/48 47/47/47 45/45/45
f 51/51/51 50/50/50 49/49/49
f 52/52/52 51/51/51 49/49/49
f 55/55/55 54/54/54 53/53/53
f 56/56/56 55/55/55 53/53/53
f 59/59/59 58/58/58 57/57/57
f 60/60/60 59/59/59 57/57/57
f 63/63/63 62/62/62 61/61/61
f 64/64/64 63/63/63 61/61/61
f 67/67/67 66/66/66 65/65/65
f 68/68/68 67/67/67 65/65/65
f 71/71/71 70/70/70 69/69/69
f 72/72/72 71/71/71 69/69/69
f 75/75/75 74/74/74 73/73/73
f 76/76/76 75/75/75 73/73/73
f 79/79/79 78/78/78 77/77/77
f 80/80/80 79/79/79 77/77/77
f 83/83/83 82/82/82 81/81/81
f 84/84/84 83/83/83 81/81/81
f 87/87/87 86/86/86 85/85/85
f 88/88/88 87/87/87 85/85/85
f 91/91/91 90/90/90 89/89/89
f 92/92/92 91/91/91 89/89/89
f 95/95/95 94/94/94 93/93/93
f 96/96/96 95/95/95 93/93/93
f 99/99/99 98/98/98 97/97/97
f 100/100/100 99/99/99 97/97/97
f 103/103/103 102/102/102 101/101/101
f 104/104/104 103/103/103 101/101/101
f 107/107/107 106/106/106 105/105/105
f 108/108/108 107/107/107 105/105/105
f 111/111/111 110/110/110 109/109/109
f 112/112/112 111/111/111 109/109/109
f 115/115/115 114/114/114 113/113/113
f 116/116/116 115/115/115 113/113/113
f 119/119/119 118/118/118 117/117/117
f 120/120/120 119/119/119 117/117/117
f 123/123/123 122/122/122 121/121/121
f 124/124/124 123/123/123 121/121/121
f 127/127/127 126/126/126 125/125/125
f 128/128/128 127/127/127 125/125/125
f 131/131/131 130/130/130 129/129/129
f 132/132/132 131/131/131 129/129/129
f 135/135/135 134/134/134 133/133/133
f 136/136/136 135/135/135 133/133/133
f 139/139/139 138/138/138 137/137/137
f 140/140/140 139/139/139 137/137/137
f 143/143/143 142/142/142 141/141/141
f 144/144/144 143/143/143 141/141/141
f 147/147/147 146/146/146 145/145/145
f 148/148/148 147/147/147 145/145/145
f 151/151/151 150/150/150 149/149/149
f 152/152/152 151/151/151 149/149/149
f 155/155/155 154/154/154 153/153/153
f 156/156/156 155/155/155 153/153/153
f 154/154/154 157/157/157 153/153/153
f 158/158/158 156/156/156 153/153/153
f 157/157/157 159/159/159 153/153/153
f 159/159/159 158/158/158 153/153/153
f 162/162/162 161/161/161 160/160/160
f 163/163/163 162/162/162 160/160/160
f 161/161/161 164/164/164 160/160/160
f 165/165/165 163/163/163 160/160/160
f 164/164/164 166/166/166 160/160/160
f 166/166/166 165/165/165 160/160/160
f 169/169/169 168/168/168 167/167/167
f 170/170/170 169/169/169 167/167/167
f 168/168/168 171/171/171 167/167/167
f 172/172/172 170/170/170 167/167/167
f 171/171/171 173/173/173 167/167/167
f 173/173/173 172/172/172 167/167/167
f 176/176/176 175/175/175 174/174/174
f 177/177/177 176/176/176 174/174/174
f 175/175/175 178/178/178 174/174/174
f 179/179/179 177/177/177 174/174/174
f 178/178/178 180/180/180 174/174/174
f 180/180/180 179/179/179 174/174/174
