g ENV_goalCage_Col_MO
v -19.64639 18.76216 -48.72403
v -19.64639 -14.00331 -48.34806
v -19.64639 -14.00331 -71.03235
v 15.81395 -14.00331 -48.34806
v 16.76013 -14.00331 -47.40187
v 18.65287 -14.00331 -47.40187
v 19.59905 -14.00331 -48.34806
v 15.81395 -14.00331 -67.27939
v 19.59905 -14.00331 -71.03235
v -19.64639 -14.00331 -48.34806
v -18.70021 -14.00331 -47.40187
v -16.80747 -14.00331 -47.40187
v -15.86129 -14.00331 -48.34806
v -19.64639 -14.00331 -71.03235
v -15.86129 -14.00331 -67.27939
v 15.81395 -14.00331 -67.27939
v -15.86129 -14.00331 -67.27939
v -15.86129 11.78202 -64.41438
v 15.81395 11.78202 -64.41438
v 15.81395 -14.00331 -67.27939
v 19.59905 -14.00331 -71.03235
v -19.64639 -14.00331 -71.03235
v -15.86129 -14.00331 -67.27939
v 19.59905 -14.00331 -71.03235
v -19.64639 10.39746 -70.24353
v -19.64639 -14.00331 -71.03235
v 19.59905 10.39746 -70.24353
v -19.64639 13.36238 -68.26161
v 19.59905 13.36238 -68.26161
v 15.81395 -14.00331 -67.27939
v 15.81395 11.78202 -64.41438
v 15.81395 14.7046 -48.34806
v 15.81395 -14.00331 -48.34806
v -19.64639 18.45366 -53.42648
v -19.64639 10.39746 -70.24353
v -19.64639 13.36238 -68.26161
v -19.64639 18.96312 -50.62748
v -19.64639 -14.00331 -71.03235
v -19.64639 18.76216 -48.72403
v -15.86129 14.7046 -48.34806
v -15.86129 11.78202 -64.41438
v -15.86129 -14.00331 -67.27939
v -15.86129 -14.00331 -48.34806
v 19.59905 18.96312 -50.62748
v 19.59905 18.76216 -48.72403
v -19.64639 18.76216 -48.72403
v -19.64639 18.96312 -50.62748
v 19.59905 18.45366 -53.42648
v -19.64639 18.45366 -53.42648
v -15.86129 11.78202 -64.41438
v -15.86129 14.7046 -48.34806
v 15.81395 14.7046 -48.34806
v 15.81395 11.78202 -64.41438
v 19.59905 13.36238 -68.26161
v 19.59905 18.45366 -53.42648
v -19.64639 18.45366 -53.42648
v -19.64639 13.36238 -68.26161
v 15.81395 -14.00331 -48.34806
v 15.81395 14.7046 -48.34806
v 16.62157 15.41438 -47.40187
v 16.76013 -14.00331 -47.40187
v 18.65287 -14.00331 -47.40187
v 18.65287 17.22061 -47.10693
v 19.59905 18.76216 -48.72403
v 19.59905 -14.00331 -48.34806
v -19.64639 -14.00331 -48.34806
v -19.64639 18.76216 -48.72403
v -18.70021 17.22061 -47.10693
v -18.70021 -14.00331 -47.40187
v -16.80747 -14.00331 -47.40187
v -16.66891 15.41438 -47.40187
v -15.86129 14.7046 -48.34806
v -15.86129 -14.00331 -48.34806
v 16.62157 15.41438 -47.40187
v 18.65287 17.22061 -47.10693
v 18.65287 -14.00331 -47.40187
v 16.76013 -14.00331 -47.40187
v -18.70021 17.22061 -47.10693
v -16.66891 15.41438 -47.40187
v -16.80747 -14.00331 -47.40187
v -18.70021 -14.00331 -47.40187
v 19.59905 -14.00331 -71.03235
v 19.59905 -14.00331 -48.34806
v 19.59905 18.76216 -48.72403
v 19.59905 18.96312 -50.62748
v 19.59905 10.39746 -70.24353
v 19.59905 18.45366 -53.42648
v 19.59905 13.36238 -68.26161
v 16.62157 15.41438 -47.40187
v -16.66891 15.41438 -47.40187
v -18.70021 17.22061 -47.10693
v 18.65287 17.22061 -47.10693
v 19.59905 18.76216 -48.72403
v 18.65287 17.22061 -47.10693
v -18.70021 17.22061 -47.10693
v -19.64639 18.76216 -48.72403
v -15.86129 14.7046 -48.34806
v -16.66891 15.41438 -47.40187
v 16.62157 15.41438 -47.40187
v 15.81395 14.7046 -48.34806
vt 0.01580822 1.334607
vt 0.3560941 -0.004259781
vt 0.159391 0.02389993
vt 0.375 0.9838197
vt 0.4374937 1
vt 0.5625063 1
vt 0.625 0.9749532
vt 0.375 0.875
vt 0.625 0.7847605
vt 0.375 0.9748125
vt 0.4374937 1
vt 0.5625063 1
vt 0.625 0.9844298
vt 0.375 0.7777096
vt 0.625 0.875
vt 0.25 0
vt 0.75 0
vt 0.75 0.25
vt 0.25 0.25
vt 0.25 0
vt 0.08427547 1.101892E-11
vt 0.9259042 5.290362E-12
vt 0.75 0
vt 0.08427547 1.101892E-11
vt 0.9436125 0.25
vt 0.9259042 5.290362E-12
vt 0.05797079 0.25
vt 0.8731388 0.25
vt 0.02236675 0.2500026
vt 0.25 0
vt 0.25 0.25
vt 0.3720036 0.248371
vt 0.3557405 -0.002582095
vt 0.005938938 0.9745286
vt 0.145679 0.2425207
vt 0.3586341 -0.2943846
vt 0.4567187 0.2866116
vt 0.159391 0.02389993
vt 0.4432886 0.2653117
vt 0.6434898 0.252409
vt 0.75 0.25
vt 0.75 0
vt 0.6470262 -0.00362703
vt 0.5414338 0.2866077
vt 0.5768667 0.2738615
vt 0.4432886 0.2653117
vt 0.4567187 0.2866116
vt 0.5324136 0.312784
vt 0.4467232 0.3128845
vt 0 0
vt 4.768391E-06 0.5017686
vt 1.000005 0.5017686
vt 1 0
vt -0.1194981 0.5304866
vt -0.1195021 -3.131441E-06
vt 1.119452 -1.45335E-05
vt 1.119496 0.5304866
vt 0.3557405 -0.002582095
vt 0.3720036 0.248371
vt 0.4283417 0.25
vt 0.4374935 -7.450581E-09
vt 0.5625061 0
vt 0.5558389 0.2601593
vt 0.5768667 0.2738615
vt 0.6446157 -0.003972642
vt 0.3560941 -0.004259781
vt 0.348125 0.3090088
vt 0.4383835 0.2578379
vt 0.4374935 -7.450581E-09
vt 0.5625061 0
vt 0.5716583 0.25
vt 0.6434898 0.252409
vt 0.6470262 -0.00362703
vt 0.4283417 0.25
vt 0.5558389 0.2601593
vt 0.5625061 0
vt 0.4374935 -7.450581E-09
vt 0.4383835 0.2578379
vt 0.5716583 0.25
vt 0.5625061 0
vt 0.4374935 -7.450581E-09
vt 0.8283305 0.01478717
vt 0.6446157 -0.003972642
vt 0.5768667 0.2738615
vt 0.5414338 0.2866077
vt 0.6957679 1.510367
vt 0.5324136 0.312784
vt 0.3943676 1.293599
vt 0 0
vt 0.04753591 1
vt 0.1380143 1.05703
vt 0.08468615 -0.06497287
vt -0.09444185 0.04732517
vt -0.06572933 3.61205E-07
vt 1.0657 2.552873E-06
vt 1.094311 0.04732554
vt 0.02425963 0
vt 0 0.02842199
vt 1 0.02842199
vt 0.9757404 0
vn -1 0 0
vn -1 0 0
vn -1 0 0
vn 0 -1 0
vn 0 -1 -1.745074E-06
vn 0 -1 -1.745074E-06
vn 0 -1 0
vn 0 -1 0
vn 0 -1 0
vn 0 -1 0
vn 0 -1 -1.745075E-06
vn 0 -1 -1.745075E-06
vn 0 -1 0
vn 0 -1 0
vn 0 -1 0
vn 0 -0.1104305 0.9938838
vn 0 -0.1104305 0.9938838
vn 0 -0.1104305 0.9938838
vn 0 -0.1104305 0.9938838
vn 0 -1 0
vn 0 -1 0
vn 0 -1 0
vn 0 -1 0
vn 0 0.03231072 -0.9994779
vn 0 0.1007336 -0.9949135
vn 0 0.03231072 -0.9994779
vn 0 0.1007336 -0.9949135
vn 0 0.5557303 -0.8313625
vn 0 0.5557303 -0.8313625
vn -1 0 0
vn -1 0 0
vn -1 0 0
vn -1 0 0
vn -1 2.610899E-07 0
vn -1 0 0
vn -1 2.6109E-07 0
vn -1 0 0
vn -1 0 0
vn -1 0 0
vn 1 0 0
vn 1 0 0
vn 1 0 0
vn 1 0 0
vn 0 0.997855 -0.06546264
vn 0 0.9944729 0.1049935
vn 0 0.9944729 0.1049935
vn 0 0.997855 -0.06546264
vn 0 0.9530837 -0.3027069
vn 0 0.9530837 -0.3027069
vn 0 -0.9838545 0.1789703
vn 0 -0.9754709 0.2201286
vn 0 -0.9754709 0.2201286
vn 0 -0.9838545 0.1789703
vn 0 0.9458491 -0.3246068
vn 0 0.9530837 -0.3027069
vn 0 0.9530837 -0.3027069
vn 0 0.9458491 -0.3246068
vn -0.7331225 -0.001747705 0.6800945
vn -0.7331224 -0.001747705 0.6800944
vn -0.7331225 -0.001747705 0.6800944
vn -0.7331224 -0.001747705 0.6800944
vn 0.8042966 0.0007524482 0.5942276
vn 0.8042966 0.0007524482 0.5942277
vn 0.8042966 0.0007524481 0.5942276
vn 0.8042966 0.0007524482 0.5942277
vn -0.8042966 0.0007524405 0.5942277
vn -0.8042966 0.0007524405 0.5942276
vn -0.8042966 0.0007524405 0.5942277
vn -0.8042966 0.0007524405 0.5942276
vn 0.7331224 -0.001747705 0.6800944
vn 0.7331225 -0.001747705 0.6800944
vn 0.7331224 -0.001747705 0.6800944
vn 0.7331225 -0.001747705 0.6800945
vn -0.03408301 -0.0885115 0.9954919
vn -0.03766 -0.080826 0.9960166
vn -0.07265399 -0.005016856 0.9973447
vn -0.07265399 -0.005016857 0.9973447
vn 0.03766 -0.080826 0.9960166
vn 0.03408301 -0.0885115 0.9954919
vn 0.07265399 -0.005016857 0.9973447
vn 0.07265399 -0.005016856 0.9973447
vn 1 0 0
vn 1 0 0
vn 1 0 0
vn 1 0 0
vn 1 0 0
vn 1 1.044361E-06 0
vn 1 1.044362E-06 0
vn -0.03408301 -0.0885115 0.9954919
vn 0.03408301 -0.0885115 0.9954919
vn 0.03766 -0.080826 0.9960166
vn -0.03766 -0.080826 0.9960166
vn 0 0.7238123 0.6899969
vn 0 0.7238123 0.689997
vn 0 0.7238123 0.689997
vn 0 0.7238123 0.6899969
vn 0 -0.9754709 0.2201286
vn 0 -0.7999417 0.6000777
vn 0 -0.7999417 0.6000777
vn 0 -0.9754709 0.2201286
g ENV_goalCage_Col_MO_0
f 3/3/3 2/2/2 1/1/1
f 6/6/6 5/5/5 4/4/4
f 7/7/7 6/6/6 4/4/4
f 7/7/7 4/4/4 8/8/8
f 9/9/9 7/7/7 8/8/8
f 12/12/12 11/11/11 10/10/10
f 13/13/13 12/12/12 10/10/10
f 13/13/13 10/10/10 14/14/14
f 15/15/15 13/13/13 14/14/14
f 18/18/18 17/17/17 16/16/16
f 19/19/19 18/18/18 16/16/16
f 22/22/22 21/21/21 20/20/20
f 23/23/23 22/22/22 20/20/20
f 26/26/26 25/25/25 24/24/24
f 25/25/25 27/27/27 24/24/24
f 25/25/25 28/28/28 27/27/27
f 28/28/28 29/29/29 27/27/27
f 32/32/32 31/31/31 30/30/30
f 33/33/33 32/32/32 30/30/30
f 36/36/36 35/35/35 34/34/34
f 35/35/35 37/37/37 34/34/34
f 35/35/35 38/38/38 37/37/37
f 38/38/38 39/39/39 37/37/37
f 42/42/42 41/41/41 40/40/40
f 43/43/43 42/42/42 40/40/40
f 46/46/46 45/45/45 44/44/44
f 47/47/47 46/46/46 44/44/44
f 47/47/47 44/44/44 48/48/48
f 49/49/49 47/47/47 48/48/48
f 52/52/52 51/51/51 50/50/50
f 53/53/53 52/52/52 50/50/50
f 56/56/56 55/55/55 54/54/54
f 57/57/57 56/56/56 54/54/54
f 60/60/60 59/59/59 58/58/58
f 61/61/61 60/60/60 58/58/58
f 64/64/64 63/63/63 62/62/62
f 65/65/65 64/64/64 62/62/62
f 68/68/68 67/67/67 66/66/66
f 69/69/69 68/68/68 66/66/66
f 72/72/72 71/71/71 70/70/70
f 73/73/73 72/72/72 70/70/70
f 76/76/76 75/75/75 74/74/74
f 77/77/77 76/76/76 74/74/74
f 80/80/80 79/79/79 78/78/78
f 81/81/81 80/80/80 78/78/78
f 84/84/84 83/83/83 82/82/82
f 84/84/84 82/82/82 85/85/85
f 82/82/82 86/86/86 85/85/85
f 85/85/85 86/86/86 87/87/87
f 86/86/86 88/88/88 87/87/87
f 91/91/91 90/90/90 89/89/89
f 92/92/92 91/91/91 89/89/89
f 95/95/95 94/94/94 93/93/93
f 96/96/96 95/95/95 93/93/93
f 99/99/99 98/98/98 97/97/97
f 100/100/100 99/99/99 97/97/97
