g ENV_BLO_Wall_15
v -14.89657 0.02914135 0.8955526
v -14.88364 0.04207151 0.9529759
v -14.82622 0.02914135 0.965906
v -14.82622 0 0.8955526
v -14.89657 0.02914135 -0.8955526
v 14.82622 0 0.8955526
v 14.82622 0.02914135 0.965906
v -14.82622 0 -0.8955526
v 14.89657 0.02914135 0.8955526
v 14.88364 0.04207151 0.9529759
v -14.82622 0.02914135 -0.965906
v -14.88364 0.04207151 -0.9529759
v 14.82622 0.02914135 -0.965906
v 14.82622 0 -0.8955526
v 14.89657 0.02914135 -0.8955526
v 14.88364 0.04207151 -0.9529759
v 14.89657 0.09949479 -0.965906
v 14.89657 0.09949479 0.965906
v 14.82622 0.02914135 0.965906
v 14.92571 0.09949479 -0.8955526
v 14.89657 3.895991 -0.965906
v 14.92571 0.09949479 0.8955526
v 14.92571 3.895991 0.8955526
v 14.92571 3.895991 -0.8955526
v 14.89657 3.966344 -0.8955526
v 14.88364 3.953414 -0.9529759
v 14.82622 3.966344 -0.965906
v 14.89657 3.966344 0.8955526
v 14.89657 3.895991 0.965906
v 14.82622 0.09949479 0.9950474
v -14.82622 0.09949479 0.9950474
v -14.82622 0.02914135 0.965906
v 14.82622 3.895991 0.9950474
v -14.89657 0.09949479 0.965906
v -14.88364 0.04207151 0.9529759
v -14.82622 3.895991 0.9950474
v -14.89657 0.02914135 0.8955526
v 14.82622 3.966344 0.965906
v 14.88364 3.953414 0.9529759
v -14.82622 3.966344 0.965906
v 14.82622 3.966344 0.965906
v -14.89657 3.895991 0.965906
v -14.88364 3.953414 0.9529759
v -14.89657 3.966344 0.8955526
v -14.92571 0.09949479 0.8955526
v -14.92571 3.895991 0.8955526
v -14.89657 3.966344 -0.8955526
v -14.92571 0.09949479 -0.8955526
v -14.89657 0.02914135 -0.8955526
v 14.82622 3.995486 0.8955526
v -14.92571 3.895991 -0.8955526
v -14.89657 0.09949479 -0.965906
v -14.88364 0.04207151 -0.9529759
v -14.82622 0.02914135 -0.965906
v -14.89657 3.895991 -0.965906
v -14.88364 3.953414 -0.9529759
v -14.82622 3.966344 -0.965906
v -14.82622 3.995486 0.8955526
v -14.82622 3.966344 0.965906
v -14.82622 0.09949479 -0.9950474
v -14.82622 3.895991 -0.9950474
v 14.82622 0.09949479 -0.9950474
v 14.82622 3.966344 -0.965906
v 14.82622 0.02914135 -0.965906
v 14.82622 3.895991 -0.9950474
v 14.89657 0.09949479 -0.965906
v 14.88364 0.04207151 -0.9529759
v 14.89657 3.895991 -0.965906
v 14.88364 3.953414 -0.9529759
v -14.88364 3.953414 0.9529759
v -14.89657 3.966344 0.8955526
v -14.82622 3.995486 -0.8955526
v -14.89657 3.966344 -0.8955526
v 14.82622 3.995486 -0.8955526
v -14.82622 3.966344 -0.965906
v -14.88364 3.953414 -0.9529759
vt 0.6763988 0.4594384
vt 0.675114 0.4601137
vt 0.6753095 0.4613507
vt 0.6768224 0.4609461
vt 0.7120321 0.4498962
vt 0.8343042 1.049835
vt 0.8327915 1.050235
vt 0.7124257 0.4514018
vt 0.8338353 1.051052
vt 0.8321539 1.050801
vt 0.7139398 0.4509935
vt 0.7133942 0.4498298
vt 0.8726975 1.040447
vt 0.8711789 1.040856
vt 0.8723781 1.04281
vt 0.8739542 1.042122
vt 0.8756605 1.044399
vt 0.8314703 1.052263
vt 0.8295444 1.050153
vt 0.8735573 1.044792
vt 0.8936986 1.150039
vt 0.8333916 1.052315
vt 0.8329577 1.153698
vt 0.8915485 1.150417
vt 0.8926252 1.153054
vt 0.8947908 1.152342
vt 0.8964278 1.155649
vt 0.8321272 1.156041
vt 0.830857 1.153698
vt 0.8295179 1.052196
vt 0.03443924 1.04372
vt 0.03448439 1.041673
vt 0.8287874 1.153698
vt 0.03205639 1.043548
vt 0.03709564 1.037469
vt 0.03420445 1.146895
vt 0.03290045 1.019861
vt 0.8287691 1.155737
vt 0.8301657 1.155519
vt 0.03418559 1.148937
vt 0.8285578 1.158551
vt 0.03226098 1.147098
vt 0.03245082 1.148717
vt 0.03053519 1.149387
vt 0.02944037 1.043584
vt 0.03030807 1.1473
vt -0.0178217 1.153883
vt -0.03170019 1.045359
vt -0.03266439 1.042603
vt 0.8312743 1.158454
vt -0.01798829 1.151822
vt -0.03397405 1.045722
vt -0.03450838 1.043937
vt -0.03653428 1.043954
vt -0.01999024 1.152055
vt -0.01977041 1.153778
vt -0.02168572 1.154411
vt 0.8715985 2.216607
vt 0.8688798 2.216712
vt -0.03623217 1.046078
vt -0.02198869 1.152289
vt -0.8629315 1.163842
vt -0.8475828 1.271714
vt -0.8632343 1.161721
vt -0.8478845 1.269594
vt -0.8650516 1.164138
vt -0.8649106 1.162359
vt -0.8500004 1.269904
vt -0.8493814 1.271653
vt 0.8692964 2.219069
vt 0.8716874 2.219345
vt 0.9355335 2.214114
vt 0.9356543 2.216841
vt 0.8937098 1.155763
vt 0.9382504 2.214008
vt 0.9379894 2.216385
vn -0.7070598 -0.7070746 0.01057064
vn -0.5773409 -0.5773569 0.5773529
vn -0.0006557134 -0.7071068 0.7071065
vn -0.0009675319 -0.9998772 0.01564075
vn -0.7070597 -0.7070747 -0.01057068
vn 0.0009675322 -0.9998772 0.01564075
vn 0.0006557179 -0.7071068 0.7071065
vn -0.0009675322 -0.9998772 -0.01564075
vn 0.7070597 -0.7070747 0.01057068
vn 0.5773393 -0.5773587 0.5773527
vn -0.0006557179 -0.7071068 -0.7071065
vn -0.5773393 -0.5773587 -0.5773527
vn 0.0006557134 -0.7071068 -0.7071065
vn 0.0009675319 -0.9998772 -0.01564075
vn 0.7070598 -0.7070746 -0.01057064
vn 0.5773409 -0.5773569 -0.5773529
vn 0.7070904 -0.005061865 -0.707105
vn 0.7070904 -0.005061909 0.707105
vn 0.0006557179 -0.7071068 0.7071065
vn 0.9998513 -0.007437884 -0.01555716
vn 0.7070904 0.005061906 -0.707105
vn 0.9998513 -0.007437887 0.01555716
vn 0.9998513 0.007437885 0.01555716
vn 0.9998513 0.007437888 -0.01555716
vn 0.7070594 0.7070751 -0.01057076
vn 0.5773391 0.5773588 -0.5773528
vn 0.0006557192 0.7071074 -0.7071058
vn 0.7070594 0.707075 0.0105707
vn 0.7070904 0.005061863 0.707105
vn 0.0009742546 -0.007529904 0.9999712
vn -0.0009742545 -0.007529904 0.9999712
vn -0.0006557134 -0.7071068 0.7071065
vn 0.0009742547 0.007529905 0.9999712
vn -0.7070904 -0.005061865 0.707105
vn -0.5773409 -0.5773569 0.5773529
vn -0.0009742547 0.007529905 0.9999712
vn -0.7070598 -0.7070746 0.01057064
vn 0.0006557155 0.7071074 0.7071058
vn 0.5773408 0.5773574 0.5773525
vn -0.0006557192 0.7071074 0.7071058
vn 0.0006557155 0.7071074 0.7071058
vn -0.7070904 0.005061906 0.707105
vn -0.5773391 0.5773588 0.5773528
vn -0.7070594 0.7070751 0.01057076
vn -0.9998513 -0.007437884 0.01555716
vn -0.9998513 0.007437888 0.01555716
vn -0.7070594 0.707075 -0.0105707
vn -0.9998513 -0.007437887 -0.01555716
vn -0.7070597 -0.7070747 -0.01057068
vn 0.0009675345 0.9998772 0.01564077
vn -0.9998513 0.007437885 -0.01555716
vn -0.7070904 -0.005061909 -0.707105
vn -0.5773393 -0.5773587 -0.5773527
vn -0.0006557179 -0.7071068 -0.7071065
vn -0.7070904 0.005061863 -0.707105
vn -0.577341 0.5773574 -0.5773524
vn -0.0006557155 0.7071074 -0.7071058
vn -0.0009675347 0.9998772 0.01564077
vn -0.0006557192 0.7071074 0.7071058
vn -0.0009742546 -0.007529904 -0.9999712
vn -0.0009742547 0.007529905 -0.9999712
vn 0.0009742545 -0.007529904 -0.9999712
vn 0.0006557192 0.7071074 -0.7071058
vn 0.0006557134 -0.7071068 -0.7071065
vn 0.0009742547 0.007529905 -0.9999712
vn 0.7070904 -0.005061865 -0.707105
vn 0.5773409 -0.5773569 -0.5773529
vn 0.7070904 0.005061906 -0.707105
vn 0.5773391 0.5773588 -0.5773528
vn -0.5773391 0.5773588 0.5773528
vn -0.7070594 0.7070751 0.01057076
vn -0.0009675345 0.9998772 -0.01564077
vn -0.7070594 0.707075 -0.0105707
vn 0.0009675347 0.9998772 -0.01564077
vn -0.0006557155 0.7071074 -0.7071058
vn -0.577341 0.5773574 -0.5773524
g ENV_BLO_Wall_15_0
f 3/3/3 2/2/2 1/1/1
f 4/4/4 3/3/3 1/1/1
f 1/1/1 5/5/5 4/4/4
f 4/4/4 6/6/6 3/3/3
f 6/6/6 7/7/7 3/3/3
f 5/5/5 8/8/8 4/4/4
f 6/6/6 4/4/4 8/8/8
f 6/6/6 9/9/9 7/7/7
f 9/9/9 10/10/10 7/7/7
f 8/8/8 5/5/5 11/11/11
f 5/5/5 12/12/12 11/11/11
f 11/11/11 13/13/13 8/8/8
f 14/14/14 6/6/6 8/8/8
f 13/13/13 14/14/14 8/8/8
f 6/6/6 14/14/14 9/9/9
f 14/14/14 13/13/13 15/15/15
f 14/14/14 15/15/15 9/9/9
f 13/13/13 16/16/16 15/15/15
f 15/15/15 16/16/16 17/17/17
f 18/18/18 10/10/10 9/9/9
f 19/19/19 10/10/10 18/18/18
f 20/20/20 15/15/15 17/17/17
f 17/17/17 21/21/21 20/20/20
f 9/9/9 15/15/15 22/22/22
f 22/22/22 18/18/18 9/9/9
f 15/15/15 20/20/20 22/22/22
f 23/23/23 22/22/22 20/20/20
f 22/22/22 23/23/23 18/18/18
f 21/21/21 24/24/24 20/20/20
f 24/24/24 23/23/23 20/20/20
f 24/24/24 21/21/21 25/25/25
f 21/21/21 26/26/26 25/25/25
f 25/25/25 26/26/26 27/27/27
f 23/23/23 24/24/24 28/28/28
f 24/24/24 25/25/25 28/28/28
f 23/23/23 29/29/29 18/18/18
f 23/23/23 28/28/28 29/29/29
f 30/30/30 19/19/19 18/18/18
f 18/18/18 29/29/29 30/30/30
f 19/19/19 30/30/30 31/31/31
f 32/32/32 19/19/19 31/31/31
f 29/29/29 33/33/33 30/30/30
f 31/31/31 34/34/34 32/32/32
f 34/34/34 35/35/35 32/32/32
f 31/31/31 36/36/36 34/34/34
f 37/37/37 35/35/35 34/34/34
f 33/33/33 29/29/29 38/38/38
f 29/29/29 39/39/39 38/38/38
f 28/28/28 39/39/39 29/29/29
f 33/33/33 38/38/38 40/40/40
f 36/36/36 33/33/33 40/40/40
f 41/41/41 39/39/39 28/28/28
f 36/36/36 40/40/40 42/42/42
f 36/36/36 42/42/42 34/34/34
f 40/40/40 43/43/43 42/42/42
f 42/42/42 43/43/43 44/44/44
f 45/45/45 37/37/37 34/34/34
f 34/34/34 42/42/42 45/45/45
f 46/46/46 42/42/42 44/44/44
f 42/42/42 46/46/46 45/45/45
f 44/44/44 47/47/47 46/46/46
f 45/45/45 48/48/48 37/37/37
f 45/45/45 46/46/46 48/48/48
f 48/48/48 49/49/49 37/37/37
f 50/50/50 41/41/41 28/28/28
f 28/28/28 25/25/25 50/50/50
f 47/47/47 51/51/51 46/46/46
f 46/46/46 51/51/51 48/48/48
f 48/48/48 52/52/52 49/49/49
f 48/48/48 51/51/51 52/52/52
f 52/52/52 53/53/53 49/49/49
f 54/54/54 53/53/53 52/52/52
f 51/51/51 47/47/47 55/55/55
f 51/51/51 55/55/55 52/52/52
f 47/47/47 56/56/56 55/55/55
f 55/55/55 56/56/56 57/57/57
f 41/41/41 50/50/50 58/58/58
f 59/59/59 41/41/41 58/58/58
f 60/60/60 54/54/54 52/52/52
f 52/52/52 55/55/55 60/60/60
f 61/61/61 55/55/55 57/57/57
f 55/55/55 61/61/61 60/60/60
f 60/60/60 62/62/62 54/54/54
f 57/57/57 63/63/63 61/61/61
f 62/62/62 64/64/64 54/54/54
f 63/63/63 65/65/65 61/61/61
f 62/62/62 66/66/66 64/64/64
f 62/62/62 65/65/65 66/66/66
f 66/66/66 67/67/67 64/64/64
f 65/65/65 68/68/68 66/66/66
f 65/65/65 63/63/63 68/68/68
f 63/63/63 69/69/69 68/68/68
f 71/71/71 70/70/70 59/59/59
f 58/58/58 71/71/71 59/59/59
f 58/58/58 72/72/72 71/71/71
f 72/72/72 73/73/73 71/71/71
f 74/74/74 72/72/72 58/58/58
f 50/50/50 74/74/74 58/58/58
f 25/25/25 74/74/74 50/50/50
f 74/74/74 25/25/25 27/27/27
f 74/74/74 27/27/27 75/75/75
f 72/72/72 74/74/74 75/75/75
f 72/72/72 75/75/75 73/73/73
f 75/75/75 76/76/76 73/73/73
g ENV_BLO_Wall_15_1
f 61/61/61 65/65/65 62/62/62
f 60/60/60 61/61/61 62/62/62
f 36/36/36 31/31/31 30/30/30
f 33/33/33 36/36/36 30/30/30
