g ENV_BLO_Trip_6
v 3.001297 0.717006 0.986007
v -2.996519 0.7469999 0.9494234
v 3.001297 0.7469999 0.9494234
v -2.996519 0.717006 0.986007
v -2.996519 0.64701 1
v 3.001297 0.64701 1
v -2.996519 0.06269283 1
v 3.001297 0.06269283 1
v 3.001297 0.01678964 0.9809863
v -2.996519 0.01678964 0.9809863
v 3.001297 0.7469999 -0.9494234
v -2.996519 0.7469999 -0.9494234
v -2.996519 0.717006 -0.986007
v 3.001297 0.717006 -0.986007
v 3.001297 0.64701 -1
v -2.996519 0.64701 -1
v -2.996519 0.06269283 -1
v 3.001297 0.06269283 -1
v -2.996519 0.01678964 -0.9809863
v 3.001297 0.01678964 -0.9809863
v -2.996519 -0.002224088 -0.9350831
v 3.001297 -0.002224088 -0.9350831
v 3.001297 -0.002224088 0.9350831
v -2.996519 -0.002224088 0.9350831
v -2.996519 0.01678964 0.9809863
v 3.001297 0.01678964 0.9809863
vt 0.635848 0.5119441
vt 0.4491223 0.5138922
vt 0.635851 0.5134164
vt 0.4491223 0.5123871
vt 0.4491171 0.5101651
vt 0.6358434 0.5097227
vt 0.4490752 0.4919718
vt 0.6358059 0.4915367
vt 0.6358025 0.4899901
vt 0.4490715 0.4904249
vt 0.6359788 0.5725055
vt 0.4492637 0.5730011
vt 0.4492673 0.5744739
vt 0.6359823 0.5739774
vt 0.6359874 0.576198
vt 0.449273 0.5766963
vt 0.4493199 0.5948867
vt 0.6360313 0.5943769
vt 0.4493238 0.5964335
vt 0.6360351 0.5959228
vt 0.449328 0.5979801
vt 0.636039 0.5974689
vt 0.6361969 0.6556684
vt 0.4494905 0.6561961
vt 0.4494948 0.6577429
vt 0.6362012 0.6572148
vn 0 0.4513617 0.8923411
vn 0 0.99988 0.01549541
vn 0 0.99988 0.01549541
vn 0 0.4513617 0.8923411
vn 0 0.02138084 0.9997714
vn 0 0.02138084 0.9997714
vn 0 -0.0301562 0.9995452
vn 0 -0.0301562 0.9995452
vn 0 -0.7071067 0.7071068
vn 0 -0.7071067 0.7071068
vn 0 0.99988 -0.01549541
vn 0 0.99988 -0.01549541
vn 0 0.4513617 -0.8923411
vn 0 0.4513617 -0.8923411
vn 0 0.02138084 -0.9997714
vn 0 0.02138084 -0.9997714
vn 0 -0.0301562 -0.9995452
vn 0 -0.0301562 -0.9995452
vn 0 -0.7071067 -0.7071068
vn 0 -0.7071067 -0.7071068
vn 0 -0.9999508 -0.009922809
vn 0 -0.9999508 -0.009922809
vn 0 -0.9999508 0.009922809
vn 0 -0.9999508 0.009922809
vn 0 -0.7071067 0.7071068
vn 0 -0.7071067 0.7071068
g ENV_BLO_Trip_6_0
f 3/3/3 2/2/2 1/1/1
f 2/2/2 4/4/4 1/1/1
f 4/4/4 5/5/5 1/1/1
f 5/5/5 6/6/6 1/1/1
f 5/5/5 7/7/7 6/6/6
f 7/7/7 8/8/8 6/6/6
f 8/8/8 7/7/7 9/9/9
f 7/7/7 10/10/10 9/9/9
f 13/13/13 12/12/12 11/11/11
f 14/14/14 13/13/13 11/11/11
f 13/13/13 14/14/14 15/15/15
f 16/16/16 13/13/13 15/15/15
f 17/17/17 16/16/16 15/15/15
f 18/18/18 17/17/17 15/15/15
f 19/19/19 17/17/17 18/18/18
f 20/20/20 19/19/19 18/18/18
f 21/21/21 19/19/19 20/20/20
f 22/22/22 21/21/21 20/20/20
f 21/21/21 22/22/22 23/23/23
f 24/24/24 21/21/21 23/23/23
f 25/25/25 24/24/24 23/23/23
f 26/26/26 25/25/25 23/23/23
g ENV_BLO_Trip_6_1
f 2/2/2 3/3/3 11/11/11
f 12/12/12 2/2/2 11/11/11
