g ENV_platform11_Col
v -10.26969 6.491585 22.36601
v -10.26969 5.683498 22.67915
v -10.2983 5.674047 22.65214
v 10.26969 6.491536 22.36601
v 10.2983 5.673998 22.65216
v 10.26969 5.683448 22.67917
v 10.13416 -5.674097 -13.89631
v 10.29217 -6.491684 -12.10692
v 10.2632 -5.674097 -12.39307
v 10.16246 -6.491684 -13.90052
v 9.64616 -5.674097 -15.84451
v 9.6731 -6.491684 -15.85414
v 8.787467 -5.674097 -17.66009
v 8.812009 -6.491684 -17.67478
v 9.6731 -6.491684 -15.85414
v 9.64616 -5.674097 -15.84451
v 7.591078 -5.674097 -19.27323
v 7.612278 -6.491684 -19.29243
v 8.812009 -6.491684 -17.67478
v 8.787467 -5.674097 -17.66009
v 6.102968 -5.674097 -20.62196
v 6.120012 -6.491684 -20.64495
v 7.612278 -6.491684 -19.29243
v 7.591078 -5.674097 -19.27323
v 4.380324 -5.674097 -21.65448
v 4.392557 -6.491684 -21.68036
v 6.120012 -6.491684 -20.64495
v 6.102968 -5.674097 -20.62196
v 2.977569 -5.674097 -22.20878
v 2.985885 -6.491684 -22.2362
v 4.392557 -6.491684 -21.68036
v 4.380324 -5.674097 -21.65448
v 1.503263 -5.674097 -22.52723
v 1.507462 -6.491684 -22.55553
v 2.985885 -6.491684 -22.2362
v 2.977569 -5.674097 -22.20878
v 3.439712E-06 -5.674097 -22.65045
v 3.439712E-06 -6.491684 -22.67911
v 1.507462 -6.491684 -22.55553
v 1.503263 -5.674097 -22.52723
v -1.503257 -5.674097 -22.52723
v -1.507455 -6.491684 -22.55553
v 3.439712E-06 -6.491684 -22.67911
v 3.439712E-06 -5.674097 -22.65045
v -2.977562 -5.674097 -22.20878
v -2.985878 -6.491684 -22.2362
v -1.507455 -6.491684 -22.55553
v -1.503257 -5.674097 -22.52723
v -4.380318 -5.674097 -21.65448
v -4.392551 -6.491684 -21.68036
v -2.985878 -6.491684 -22.2362
v -2.977562 -5.674097 -22.20878
v -6.102963 -5.674097 -20.62196
v -6.120008 -6.491684 -20.64497
v -4.392551 -6.491684 -21.68036
v -4.380318 -5.674097 -21.65448
v -7.591074 -5.674097 -19.27323
v -7.612275 -6.491684 -19.29243
v -6.120008 -6.491684 -20.64497
v -6.102963 -5.674097 -20.62196
v -8.787465 -5.674097 -17.66009
v -8.812007 -6.491684 -17.6748
v -7.612275 -6.491684 -19.29243
v -7.591074 -5.674097 -19.27323
v -9.646158 -5.674097 -15.84454
v -9.673099 -6.491684 -15.85416
v -8.812007 -6.491684 -17.6748
v -8.787465 -5.674097 -17.66009
v -10.13416 -5.674097 -13.89631
v -10.16246 -6.491684 -13.90052
v -9.673099 -6.491684 -15.85416
v -9.646158 -5.674097 -15.84454
v -10.2632 -5.674097 -12.39309
v -10.16246 -6.491684 -13.90052
v -10.29217 -6.491635 -12.10692
v -10.26969 6.491585 22.36601
v -10.29217 -6.491635 -12.10692
v -10.2983 5.674047 22.65214
v 10.2632 -5.674097 -12.39307
v 10.29217 -6.491684 -12.10692
v 10.2983 5.673998 22.65216
v 10.26969 6.491536 22.36601
v -10.26969 5.683498 22.67915
v -10.26969 6.491585 22.36601
v 10.26969 6.491536 22.36601
v 10.26969 5.683448 22.67917
v -10.13416 -5.674097 -13.89631
v 5.329132E-07 -5.674097 -12.39307
v -10.2632 -5.674097 -12.39309
v -9.646158 -5.674097 -15.84454
v -8.787465 -5.674097 -17.66009
v -7.591074 -5.674097 -19.27323
v -6.102963 -5.674097 -20.62196
v -4.380318 -5.674097 -21.65448
v -2.977562 -5.674097 -22.20878
v -1.503257 -5.674097 -22.52723
v 3.439712E-06 -5.674097 -22.65045
v 1.503263 -5.674097 -22.52723
v 2.977569 -5.674097 -22.20878
v 4.380324 -5.674097 -21.65448
v 6.102968 -5.674097 -20.62196
v 7.591078 -5.674097 -19.27323
v 8.787467 -5.674097 -17.66009
v 9.64616 -5.674097 -15.84451
v 10.13416 -5.674097 -13.89631
v 10.2632 -5.674097 -12.39307
v -10.26969 6.491585 22.36601
v -10.2632 -5.674097 -12.39309
v 5.329132E-07 -5.674097 -12.39307
v 10.26969 6.491536 22.36601
v 10.2632 -5.674097 -12.39307
v 10.2983 5.673998 22.65216
v 10.29217 -6.491684 -12.10692
v -3.391266E-07 -6.491635 -12.10692
v -10.29217 -6.491635 -12.10692
v -10.2983 5.674047 22.65214
v 10.29217 -6.491684 -12.10692
v 10.16246 -6.491684 -13.90052
v -3.391266E-07 -6.491635 -12.10692
v 9.6731 -6.491684 -15.85414
v 8.812009 -6.491684 -17.67478
v -4.392551 -6.491684 -21.68036
v -2.985878 -6.491684 -22.2362
v -6.120008 -6.491684 -20.64497
v 7.612278 -6.491684 -19.29243
v -7.612275 -6.491684 -19.29243
v -1.507455 -6.491684 -22.55553
v 3.439712E-06 -6.491684 -22.67911
v 1.507462 -6.491684 -22.55553
v 6.120012 -6.491684 -20.64495
v 2.985885 -6.491684 -22.2362
v 4.392557 -6.491684 -21.68036
v -8.812007 -6.491684 -17.6748
v -9.673099 -6.491684 -15.85416
v -10.16246 -6.491684 -13.90052
v -10.29217 -6.491635 -12.10692
vt 0.4413584 0.9631658
vt 0.4412869 0.9804611
vt 0.4420837 0.9804688
vt 0.03682664 0.9623997
vt 0.03603002 0.9797005
vt 0.03682745 0.9796968
vt 0.04141437 0.2069993
vt 0.01953125 0.2350048
vt 0.0380626 0.2366937
vt 0.02590996 0.2034419
vt 0.05130478 0.1687995
vt 0.0360933 0.1631641
vt 0.06825969 0.1332617
vt 0.05433379 0.1248638
vt 0.0360933 0.1631641
vt 0.05130478 0.1687995
vt 0.09179617 0.1017071
vt 0.07975598 0.09076773
vt 0.05433379 0.1248638
vt 0.06825969 0.1332617
vt 0.1210317 0.07534531
vt 0.1113507 0.06227022
vt 0.07975598 0.09076773
vt 0.09179617 0.1017071
vt 0.1548463 0.05518515
vt 0.1478978 0.04047428
vt 0.1113507 0.06227022
vt 0.1210317 0.07534531
vt 0.1823673 0.04437762
vt 0.1776439 0.02878833
vt 0.1478978 0.04047428
vt 0.1548463 0.05518515
vt 0.211281 0.03818838
vt 0.2088961 0.02209459
vt 0.1776439 0.02878833
vt 0.1823673 0.04437762
vt 0.2407561 0.03582048
vt 0.2407556 0.01953125
vt 0.2088961 0.02209459
vt 0.211281 0.03818838
vt 0.2702256 0.03827631
vt 0.2726099 0.02218243
vt 0.2407556 0.01953125
vt 0.2407561 0.03582048
vt 0.2991248 0.0445528
vt 0.3038483 0.0289636
vt 0.2726099 0.02218243
vt 0.2702256 0.03827631
vt 0.3266198 0.05544582
vt 0.3335694 0.04073545
vt 0.3038483 0.0289636
vt 0.2991248 0.0445528
vt 0.3603845 0.07571557
vt 0.3700682 0.06264237
vt 0.3335694 0.04073545
vt 0.3266198 0.05544582
vt 0.3895518 0.1021796
vt 0.401597 0.0912445
vt 0.3700682 0.06264237
vt 0.3603845 0.07571557
vt 0.4130012 0.1338254
vt 0.4269389 0.125437
vt 0.401597 0.0912445
vt 0.3895518 0.1021796
vt 0.429845 0.1694406
vt 0.4451075 0.1638347
vt 0.4269389 0.125437
vt 0.4130012 0.1338254
vt 0.4395828 0.207698
vt 0.4552562 0.2042453
vt 0.4451075 0.1638347
vt 0.429845 0.1694406
vt 0.4427656 0.2374057
vt 0.4552562 0.2042453
vt 0.4612128 0.2365001
vt 0.4413584 0.9631658
vt 0.4600727 0.2378717
vt 0.4586537 0.9632058
vt 0.0380626 0.2366937
vt 0.02075806 0.2369778
vt 0.01953125 0.9623755
vt 0.03682664 0.9623997
vt 0.4412869 0.9804611
vt 0.4413584 0.9631658
vt 0.03682664 0.9623997
vt 0.03682745 0.9796968
vt 0.4395828 0.207698
vt 0.2404769 0.2375979
vt 0.4427656 0.2374057
vt 0.429845 0.1694406
vt 0.4130012 0.1338254
vt 0.3895518 0.1021796
vt 0.3603845 0.07571557
vt 0.3266198 0.05544582
vt 0.2991248 0.0445528
vt 0.2702256 0.03827631
vt 0.2407561 0.03582048
vt 0.211281 0.03818838
vt 0.1823673 0.04437762
vt 0.1548463 0.05518515
vt 0.1210317 0.07534531
vt 0.09179617 0.1017071
vt 0.06825969 0.1332617
vt 0.05130478 0.1687995
vt 0.04141437 0.2069993
vt 0.0380626 0.2366937
vt 0.4413584 0.9631658
vt 0.4427656 0.2374057
vt 0.2404769 0.2375979
vt 0.03682664 0.9623997
vt 0.0380626 0.2366937
vt 0.01953125 0.9623755
vt 0.02075806 0.2369778
vt 0.2404154 0.2374247
vt 0.4600727 0.2378717
vt 0.4586537 0.9632058
vt 0.02075806 0.2369778
vt 0.02590996 0.2034419
vt 0.2409854 0.2367389
vt 0.0360933 0.1631641
vt 0.05433379 0.1248638
vt 0.3335694 0.04073545
vt 0.3038483 0.0289636
vt 0.3700682 0.06264237
vt 0.07975598 0.09076773
vt 0.401597 0.0912445
vt 0.2726099 0.02218243
vt 0.2407556 0.01953125
vt 0.2088961 0.02209459
vt 0.1113507 0.06227022
vt 0.1776439 0.02878833
vt 0.1478978 0.04047428
vt 0.4269389 0.125437
vt 0.4451075 0.1638347
vt 0.4552562 0.2042453
vt 0.4612128 0.2365001
vn -0.7860909 0.2764276 0.5528551
vn -0.6686659 0.2351353 0.7054058
vn -0.6686659 0.2351353 0.7054058
vn 0.7090144 0.4986475 0.4986475
vn 0.7128571 0.4959006 0.4959006
vn 0.7090144 0.4986475 0.4986475
vn 1 0 0
vn 1 0 0
vn 1 0 0
vn 1 0 0
vn 0.9687594 0 -0.2480024
vn 0.9692308 0 -0.2461539
vn 0.9645734 0 -0.263815
vn 0.9645734 0 -0.263815
vn 0.8773218 0 -0.4799025
vn 0.8773218 0 -0.4799025
vn 0.7926239 0 -0.6097108
vn 0.7926239 0 -0.6097108
vn 0.8516583 0 -0.5240974
vn 0.8516583 0 -0.5240974
vn 0.6693922 0 -0.7429093
vn 0.6693922 0 -0.7429093
vn 0.6715195 0 -0.7409869
vn 0.6672483 0 -0.7448353
vn 0.5665288 0 -0.8240419
vn 0.5665288 0 -0.8240419
vn 0.5665288 0 -0.8240419
vn 0.5665288 0 -0.8240419
vn 0.3462996 0 -0.938124
vn 0.3479106 0 -0.9375277
vn 0.3869525 0 -0.9220996
vn 0.3446855 0 -0.9387181
vn 0.2082243 0 -0.978081
vn 0.2082243 0 -0.978081
vn 0.2082243 0 -0.978081
vn 0.2063957 0 -0.9784686
vn 0.08175664 0 -0.9966523
vn 0.08175664 0 -0.9966523
vn 0.08175664 0 -0.9966523
vn 0.08175664 0 -0.9966523
vn -0.08368973 0 -0.9964918
vn -0.08368973 0 -0.9964918
vn -0.08223999 0 -0.9966125
vn -0.08223999 0 -0.9966125
vn -0.2100507 0 -0.9776905
vn -0.2100507 0 -0.9776905
vn -0.2082243 0 -0.978081
vn -0.2082243 0 -0.978081
vn -0.3479106 0 -0.9375277
vn -0.3904443 0 -0.9206265
vn -0.3479106 0 -0.9375277
vn -0.3479106 0 -0.9375277
vn -0.5665288 0 -0.8240419
vn -0.5665288 0 -0.8240419
vn -0.5665288 0 -0.8240419
vn -0.5694326 0 -0.8220381
vn -0.6715195 0 -0.7409869
vn -0.6672483 0 -0.7448353
vn -0.6715195 0 -0.7409869
vn -0.6715195 0 -0.7409869
vn -0.8516583 0 -0.5240974
vn -0.8516583 0 -0.5240974
vn -0.7926239 0 -0.6097108
vn -0.7926239 0 -0.6097108
vn -0.9645734 0 -0.263815
vn -0.8755777 0 -0.4830773
vn -0.9645734 0 -0.263815
vn -0.9639927 0 -0.265929
vn -1 0 0
vn -0.9687594 0 -0.2480024
vn -0.9682773 0 -0.249878
vn -0.9687594 0 -0.2480024
vn -1 0 0
vn -1 0 0
vn -1 0 0
vn -1 0 0
vn -1 0 0
vn -1 0 0
vn 1 0 0
vn 1 0 0
vn 1 0 0
vn 1 0 0
vn 0 0.2425356 0.9701425
vn 0 0.2425356 0.9701425
vn 0 0.4472136 0.8944272
vn 0 0.4472136 0.8944272
vn 0 1 0
vn 0 1 0
vn 0 1 0
vn 0 1 0
vn 0 1 0
vn 0 1 0
vn 0 1 0
vn 0 1 0
vn 0 1 0
vn 0 1 0
vn 0 1 0
vn 0 1 0
vn 0 1 0
vn 0 1 0
vn 0 1 0
vn 0 1 0
vn 0 1 0
vn 0 1 0
vn 0 1 0
vn 0 1 0
vn 0 0.8320503 -0.5547002
vn 0 0.8320503 -0.5547002
vn 0 0.8320503 -0.5547002
vn 0 0.8320503 -0.5547002
vn 0 0.8320503 -0.5547002
vn 0 -0.8320503 0.5547002
vn 0 -0.8320503 0.5547002
vn 0 -0.8320503 0.5547002
vn 0 -0.8320503 0.5547002
vn 0 -0.8320503 0.5547002
vn 0 -1 0
vn 0 -1 0
vn 0 -1 0
vn 0 -1 0
vn 0 -1 0
vn 0 -1 0
vn 0 -1 0
vn 0 -1 0
vn 0 -1 0
vn 0 -1 0
vn 0 -1 0
vn 0 -1 0
vn 0 -1 0
vn 0 -1 0
vn 0 -1 0
vn 0 -1 0
vn 0 -1 0
vn 0 -1 0
vn 0 -1 0
vn 0 -1 0
g ENV_platform11_Col_0
f 3/3/3 2/2/2 1/1/1
f 6/6/6 5/5/5 4/4/4
f 9/9/9 8/8/8 7/7/7
f 8/8/8 10/10/10 7/7/7
f 7/7/7 10/10/10 11/11/11
f 10/10/10 12/12/12 11/11/11
f 15/15/15 14/14/14 13/13/13
f 16/16/16 15/15/15 13/13/13
f 19/19/19 18/18/18 17/17/17
f 20/20/20 19/19/19 17/17/17
f 23/23/23 22/22/22 21/21/21
f 24/24/24 23/23/23 21/21/21
f 27/27/27 26/26/26 25/25/25
f 28/28/28 27/27/27 25/25/25
f 31/31/31 30/30/30 29/29/29
f 32/32/32 31/31/31 29/29/29
f 35/35/35 34/34/34 33/33/33
f 36/36/36 35/35/35 33/33/33
f 39/39/39 38/38/38 37/37/37
f 40/40/40 39/39/39 37/37/37
f 43/43/43 42/42/42 41/41/41
f 44/44/44 43/43/43 41/41/41
f 47/47/47 46/46/46 45/45/45
f 48/48/48 47/47/47 45/45/45
f 51/51/51 50/50/50 49/49/49
f 52/52/52 51/51/51 49/49/49
f 55/55/55 54/54/54 53/53/53
f 56/56/56 55/55/55 53/53/53
f 59/59/59 58/58/58 57/57/57
f 60/60/60 59/59/59 57/57/57
f 63/63/63 62/62/62 61/61/61
f 64/64/64 63/63/63 61/61/61
f 67/67/67 66/66/66 65/65/65
f 68/68/68 67/67/67 65/65/65
f 71/71/71 70/70/70 69/69/69
f 72/72/72 71/71/71 69/69/69
f 69/69/69 74/74/74 73/73/73
f 74/74/74 75/75/75 73/73/73
f 73/73/73 77/77/77 76/76/76
f 77/77/77 78/78/78 76/76/76
f 81/81/81 80/80/80 79/79/79
f 82/82/82 81/81/81 79/79/79
f 85/85/85 84/84/84 83/83/83
f 86/86/86 85/85/85 83/83/83
f 89/89/89 88/88/88 87/87/87
f 87/87/87 88/88/88 90/90/90
f 90/90/90 88/88/88 91/91/91
f 91/91/91 88/88/88 92/92/92
f 92/92/92 88/88/88 93/93/93
f 93/93/93 88/88/88 94/94/94
f 94/94/94 88/88/88 95/95/95
f 95/95/95 88/88/88 96/96/96
f 96/96/96 88/88/88 97/97/97
f 97/97/97 88/88/88 98/98/98
f 98/98/98 88/88/88 99/99/99
f 99/99/99 88/88/88 100/100/100
f 100/100/100 88/88/88 101/101/101
f 101/101/101 88/88/88 102/102/102
f 102/102/102 88/88/88 103/103/103
f 103/103/103 88/88/88 104/104/104
f 104/104/104 88/88/88 105/105/105
f 105/105/105 88/88/88 106/106/106
f 109/109/109 108/108/108 107/107/107
f 110/110/110 109/109/109 107/107/107
f 110/110/110 111/111/111 109/109/109
f 114/114/114 113/113/113 112/112/112
f 112/112/112 115/115/115 114/114/114
f 112/112/112 116/116/116 115/115/115
f 119/119/119 118/118/118 117/117/117
f 118/118/118 119/119/119 120/120/120
f 119/119/119 121/121/121 120/120/120
f 122/122/122 121/121/121 119/119/119
f 122/122/122 123/123/123 121/121/121
f 124/124/124 122/122/122 119/119/119
f 123/123/123 125/125/125 121/121/121
f 126/126/126 124/124/124 119/119/119
f 123/123/123 127/127/127 125/125/125
f 127/127/127 128/128/128 125/125/125
f 128/128/128 129/129/129 125/125/125
f 129/129/129 130/130/130 125/125/125
f 129/129/129 131/131/131 130/130/130
f 131/131/131 132/132/132 130/130/130
f 133/133/133 126/126/126 119/119/119
f 134/134/134 133/133/133 119/119/119
f 135/135/135 134/134/134 119/119/119
f 135/135/135 119/119/119 136/136/136
