g ENV_bouncyTriangle02_Col
v 0.008940442 1.140147 -1.802482
v -0.1416406 0.9264303 -2.178298
v 0.1609033 0.9261822 -2.174528
v 2.438838 1.135782 1.838883
v 2.86947 0.9303494 1.930288
v 2.717351 0.9292084 2.206389
v -2.699282 0.9261574 2.209477
v -2.867476 0.9318377 1.923008
v -2.429878 1.134839 1.837246
v 2.438838 1.135782 1.838883
v -2.429878 1.134839 1.837246
v 0.008940442 1.140147 -1.802482
v -2.767202 -0.8741916 2.262622
v 2.565815 -1.24011 1.902482
v -2.556386 -1.24011 1.900647
v 2.785796 -0.8769946 2.259707
v 2.860718 0.5871021 2.322202
v -2.841689 0.5851178 2.325018
v -2.699282 0.9261574 2.209477
v 2.717351 0.9292084 2.206389
v 2.941059 -0.8780363 1.978732
v 0.1639502 -0.8751094 -2.248347
v 0.009216322 -1.24011 -1.96148
v 2.565815 -1.24011 1.902482
v -0.1444531 -0.8752582 -2.252216
v -3.017207 0.5887393 2.028267
v -2.93916 -0.8794254 1.971352
v -0.1473584 0.5838775 -2.322215
v -0.1416406 0.9264303 -2.178298
v -2.867476 0.9318377 1.923008
v 2.941059 -0.8780363 1.978732
v 0.1671289 0.5837287 -2.318271
v 0.1639502 -0.8751094 -2.248347
v 3.019097 0.5877719 2.035808
v 2.86947 0.9303494 1.930288
v 0.1609033 0.9261822 -2.174528
v -0.1444531 -0.8752582 -2.252216
v -2.93916 -0.8794254 1.971352
v -2.556386 -1.24011 1.900647
v 0.009216322 -1.24011 -1.96148
v -0.1416406 0.9264303 -2.178298
v 0.008940442 1.140147 -1.802482
v -2.429878 1.134839 1.837246
v -2.867476 0.9318377 1.923008
v 0.008940442 1.140147 -1.802482
v 0.1609033 0.9261822 -2.174528
v 2.86947 0.9303494 1.930288
v 2.438838 1.135782 1.838883
v 2.438838 1.135782 1.838883
v 2.717351 0.9292084 2.206389
v -2.699282 0.9261574 2.209477
v -2.429878 1.134839 1.837246
v -0.1444531 -0.8752582 -2.252216
v 0.009216322 -1.24011 -1.96148
v 0.1639502 -0.8751094 -2.248347
v -0.1473584 0.5838775 -2.322215
v 0.1671289 0.5837287 -2.318271
v 0.1609033 0.9261822 -2.174528
v -0.1416406 0.9264303 -2.178298
v 2.941059 -0.8780363 1.978732
v 2.565815 -1.24011 1.902482
v 2.785796 -0.8769946 2.259707
v 3.019097 0.5877719 2.035808
v 2.860718 0.5871021 2.322202
v 2.717351 0.9292084 2.206389
v 2.86947 0.9303494 1.930288
v -2.841689 0.5851178 2.325018
v -2.867476 0.9318377 1.923008
v -2.699282 0.9261574 2.209477
v -3.017207 0.5887393 2.028267
v -2.767202 -0.8741916 2.262622
v -2.93916 -0.8794254 1.971352
v -2.556386 -1.24011 1.900647
vt 0.4431726 0.4993346
vt 0.4460308 0.530974
vt 0.4968642 0.4675444
vt 0.2901272 0.2806009
vt 0.4943486 0.05060413
vt 0.1409436 0.5078043
vt 0.1411523 0.04796314
vt 0.4439564 0.9488224
vt 0.265365 0.4967959
vt 0.2901272 0.2806009
vt 0.265365 0.4967959
vt 0.4431726 0.4993346
vt 0.3095845 0.04135376
vt 0.5211931 0.2801159
vt 0.4955449 0.4971008
vt 0.3097425 0.5143826
vt 0.172073 0.519908
vt 0.1721273 0.03593981
vt 0.1411523 0.04796314
vt 0.1409436 0.5078043
vt 0.6599762 0.04176134
vt 0.6618159 0.4729704
vt 0.6714499 0.4994432
vt 0.5211931 0.2801159
vt 0.6110052 0.5257511
vt 0.4735204 0.9637023
vt 0.6091706 0.9573154
vt 0.4764462 0.5209595
vt 0.4460308 0.530974
vt 0.4439564 0.9488224
vt 0.6599762 0.04176134
vt 0.5272222 0.4775323
vt 0.6618159 0.4729704
vt 0.524079 0.03570831
vt 0.4943486 0.05060413
vt 0.4968642 0.4675444
vt 0.6110052 0.5257511
vt 0.6091706 0.9573154
vt 0.4955449 0.4971008
vt 0.6714499 0.4994432
vt 0.4460308 0.530974
vt 0.4431726 0.4993346
vt 0.265365 0.4967959
vt 0.4439564 0.9488224
vt 0.4431726 0.4993346
vt 0.4968642 0.4675444
vt 0.4943486 0.05060413
vt 0.2901272 0.2806009
vt 0.2901272 0.2806009
vt 0.1409436 0.5078043
vt 0.1411523 0.04796314
vt 0.265365 0.4967959
vt 0.6110052 0.5257511
vt 0.6714499 0.4994432
vt 0.6618159 0.4729704
vt 0.4764462 0.5209595
vt 0.5272222 0.4775323
vt 0.4968642 0.4675444
vt 0.4460308 0.530974
vt 0.6599762 0.04176134
vt 0.5211931 0.2801159
vt 0.3097425 0.5143826
vt 0.524079 0.03570831
vt 0.172073 0.519908
vt 0.1409436 0.5078043
vt 0.4943486 0.05060413
vt 0.1721273 0.03593981
vt 0.4439564 0.9488224
vt 0.1411523 0.04796314
vt 0.4735204 0.9637023
vt 0.3095845 0.04135376
vt 0.6091706 0.9573154
vt 0.4955449 0.4971008
vn 0.08402088 0.9667121 -0.241678
vn -0.3558829 0.7775764 -0.5183843
vn 0.300914 0.8529716 -0.4264858
vn 0.1462069 0.9597173 0.2399293
vn 0.5932706 0.8050032 0
vn 0.3587423 0.8348911 0.4174456
vn -0.3298337 0.8443742 0.4221871
vn -0.5959774 0.8030012 0
vn -0.1731269 0.9848995 0
vn 0 1 0
vn 0 1 0
vn -0.0004882812 0.9999999 0
vn -0.1093959 -0.4445295 0.889059
vn 0.07528413 -0.7051001 0.7051001
vn -0.06431639 -0.7056428 0.7056428
vn 0.1351742 -0.2403096 0.9612384
vn 0.1425352 0.2400593 0.9602371
vn -0.1240908 0.240661 0.9626441
vn -0.1185315 0.2408258 0.9633033
vn 0.1314851 0.24043 0.9617198
vn 0.8965249 -0.2457284 -0.3685927
vn 0.7983898 -0.2692856 -0.5385712
vn 0.520025 -0.603976 -0.603976
vn 0.6676295 -0.6658954 -0.3329477
vn -0.797049 -0.2700788 -0.5401577
vn -0.856042 0.2311675 -0.4623349
vn -0.8946166 -0.2478592 -0.3717887
vn -0.835825 0 -0.548996
vn -0.7909667 0.2736318 -0.5472635
vn -0.8179631 0.4602166 -0.3451625
vn 0.8965249 -0.2457284 -0.3685927
vn 0.8372306 0 -0.54685
vn 0.7983898 -0.2692856 -0.5385712
vn 0.8593658 0.2286878 -0.4573756
vn 0.8197361 0.4581931 -0.3436449
vn 0.7165781 0.4932119 -0.4932119
vn -0.797049 -0.2700788 -0.5401577
vn -0.8946166 -0.2478592 -0.3717887
vn -0.670498 -0.6635857 -0.3317928
vn -0.5178684 -0.6049018 -0.6049018
vn -0.5087835 0.7163075 -0.4775383
vn -0.1827955 0.9537965 -0.2384491
vn -0.2934455 0.9274328 -0.2318582
vn -0.7767553 0.5633126 -0.2816563
vn 0.1782882 0.9545992 -0.2386498
vn 0.4299016 0.8075566 -0.4037783
vn 0.6696315 0.7325883 -0.1220981
vn 0.2880341 0.9576201 0
vn 0.05478065 0.9349232 0.3505962
vn 0.1113357 0.7634451 0.6362042
vn -0.1162142 0.8264124 0.5509416
vn -0.06023975 0.9346287 0.3504858
vn -0.5695854 -0.2599178 -0.7797533
vn -0.4219571 -0.6410742 -0.6410742
vn 0.5231676 -0.472732 -0.709098
vn -0.6085616 0 -0.7935066
vn 0.5919042 0.2548822 -0.7646466
vn 0.5144529 0.4756657 -0.7134986
vn -0.5595139 0.2620962 -0.7862886
vn 0.8807086 -0.4736584 0
vn 0.6808899 -0.7323858 0
vn 0.5315297 -0.2678575 0.8035724
vn 0.9698054 0.2438803 0
vn 0.5069174 0.2368082 0.8288285
vn 0.4658961 0.4908206 0.7362309
vn 0.8715244 0.4903522 0
vn -0.5315297 0.2678575 0.8035724
vn -0.8719838 0.4895348 0
vn -0.436648 0.4990263 0.7485394
vn -0.9696917 0.2443318 0
vn -0.456817 -0.4934394 0.7401592
vn -0.8807086 -0.4736584 0
vn -0.2926843 -0.7345802 0.6121501
g ENV_bouncyTriangle02_Col_0
f 3/3/3 2/2/2 1/1/1
f 6/6/6 5/5/5 4/4/4
f 9/9/9 8/8/8 7/7/7
f 12/12/12 11/11/11 10/10/10
f 15/15/15 14/14/14 13/13/13
f 14/14/14 16/16/16 13/13/13
f 16/16/16 17/17/17 13/13/13
f 17/17/17 18/18/18 13/13/13
f 18/18/18 17/17/17 19/19/19
f 17/17/17 20/20/20 19/19/19
f 23/23/23 22/22/22 21/21/21
f 24/24/24 23/23/23 21/21/21
f 27/27/27 26/26/26 25/25/25
f 26/26/26 28/28/28 25/25/25
f 28/28/28 26/26/26 29/29/29
f 26/26/26 30/30/30 29/29/29
f 33/33/33 32/32/32 31/31/31
f 32/32/32 34/34/34 31/31/31
f 35/35/35 34/34/34 32/32/32
f 36/36/36 35/35/35 32/32/32
f 39/39/39 38/38/38 37/37/37
f 40/40/40 39/39/39 37/37/37
f 43/43/43 42/42/42 41/41/41
f 44/44/44 43/43/43 41/41/41
f 47/47/47 46/46/46 45/45/45
f 48/48/48 47/47/47 45/45/45
f 51/51/51 50/50/50 49/49/49
f 52/52/52 51/51/51 49/49/49
f 55/55/55 54/54/54 53/53/53
f 55/55/55 53/53/53 56/56/56
f 57/57/57 55/55/55 56/56/56
f 57/57/57 56/56/56 58/58/58
f 56/56/56 59/59/59 58/58/58
f 62/62/62 61/61/61 60/60/60
f 62/62/62 60/60/60 63/63/63
f 64/64/64 62/62/62 63/63/63
f 64/64/64 63/63/63 65/65/65
f 63/63/63 66/66/66 65/65/65
f 69/69/69 68/68/68 67/67/67
f 68/68/68 70/70/70 67/67/67
f 71/71/71 67/67/67 70/70/70
f 72/72/72 71/71/71 70/70/70
f 72/72/72 73/73/73 71/71/71
