g ENV_DOD_DoorBlockkSmall
v 1.07956 -1.859969 0.3477582
v 1.068156 -1.903415 -0.3477579
v 1.068156 -1.903415 0.3477582
v 1.07956 -1.859969 -0.3477579
v 1.07956 2.08694 -0.3477581
v 1.07956 2.08694 0.347758
v 1.068156 2.130386 0.347758
v 1.068156 2.130386 -0.3477581
v 1.037 2.162191 0.347758
v 1.037 2.162191 -0.3477581
v 0.9944404 2.173833 0.347758
v 0.9944404 2.173833 -0.3477581
v -0.9944403 2.173833 0.347758
v -0.9944403 2.173833 -0.3477581
v -1.037 2.162191 0.347758
v -1.037 2.162191 -0.3477581
v -1.068156 2.130386 0.347758
v -1.068156 2.130386 -0.3477581
v -1.07956 2.08694 0.347758
v -1.07956 2.08694 -0.3477581
v -1.07956 -1.859969 -0.3477579
v -1.07956 -1.859969 0.3477582
v -1.068156 -1.903415 0.3477582
v -1.068156 -1.903415 -0.3477579
v -1.037 -1.93522 0.3477582
v -1.037 -1.93522 -0.3477579
v -0.9944405 -1.946862 0.3477582
v -0.9944405 -1.946862 -0.3477579
v 0.9944403 -1.946862 0.3477582
v 0.9944403 -1.946862 -0.3477579
v 1.037 -1.93522 0.3477582
v 1.037 -1.93522 -0.3477579
v 1.068156 -1.903415 0.3477582
v 1.068156 -1.903415 -0.3477579
v -1.07956 -1.859969 0.3477582
v -1.07956 2.08694 0.347758
v -1.068156 2.08694 0.3922727
v -1.068156 2.130386 0.347758
v -1.068156 -1.859969 0.3922729
v -1.068156 -1.903415 0.3477582
v -1.061755 -1.897514 0.3862265
v -1.037 -1.93522 0.3477582
v -1.061755 2.124485 0.3862262
v -1.037 2.08694 0.4248598
v -1.031219 2.155657 0.3862262
v -1.037 2.162191 0.347758
v -1.031219 2.124485 0.4181647
v -0.9944403 2.162191 0.3922727
v -0.9944403 2.173833 0.347758
v -0.9944403 2.130386 0.4248598
v 0.9944404 2.162191 0.3922727
v 0.9944404 2.173833 0.347758
v 1.037 2.162191 0.347758
v 0.9944404 2.130386 0.4248598
v 1.031219 2.155657 0.3862262
v 1.061755 2.124485 0.3862262
v 1.068156 2.130386 0.347758
v 1.031219 2.124485 0.4181647
v 1.068156 2.08694 0.3922727
v 1.07956 2.08694 0.347758
v 1.037 2.08694 0.4248598
v 0.9944404 2.08694 0.4367874
v 1.068156 -1.859969 0.3922729
v 1.07956 -1.859969 0.3477582
v 1.068156 -1.903415 0.3477582
v 1.037 -1.859969 0.42486
v 1.061755 -1.897514 0.3862265
v 1.031219 -1.928686 0.3862265
v 1.037 -1.93522 0.3477582
v 1.031219 -1.897514 0.4181649
v 0.9944403 -1.93522 0.3922729
v 0.9944403 -1.946862 0.3477582
v 0.9944403 -1.859969 0.4367876
v 0.9944403 -1.903415 0.42486
v -0.9944405 -1.93522 0.3922729
v -0.9944405 -1.946862 0.3477582
v -0.9944405 -1.859969 0.4367876
v -0.9944405 -1.903415 0.42486
v -1.031219 -1.928686 0.3862265
v -1.031219 -1.897514 0.4181649
v -1.037 -1.859969 0.42486
v -0.9944403 2.08694 0.4367874
v -1.07956 2.08694 -0.3477581
v -1.07956 -1.859969 -0.3477579
v -1.068156 -1.859969 -0.3922726
v -1.068156 -1.903415 -0.3477579
v -1.068156 2.08694 -0.3922728
v -1.068156 2.130386 -0.3477581
v -1.061755 2.124485 -0.3862263
v -1.037 2.162191 -0.3477581
v -1.061755 -1.897514 -0.3862261
v -1.037 -1.859969 -0.4248596
v -1.031219 -1.928686 -0.3862261
v -1.037 -1.93522 -0.3477579
v -1.031219 -1.897514 -0.4181645
v -0.9944405 -1.93522 -0.3922726
v -0.9944405 -1.946862 -0.3477579
v -0.9944405 -1.903415 -0.4248596
v 0.9944403 -1.93522 -0.3922726
v 0.9944403 -1.946862 -0.3477579
v 1.037 -1.93522 -0.3477579
v 0.9944403 -1.903415 -0.4248596
v 1.031219 -1.928686 -0.3862261
v 1.061755 -1.897514 -0.3862261
v 1.068156 -1.903415 -0.3477579
v 1.031219 -1.897514 -0.4181645
v 1.068156 -1.859969 -0.3922726
v 1.07956 -1.859969 -0.3477579
v 1.037 -1.859969 -0.4248596
v 0.9944403 -1.859969 -0.4367873
v 1.068156 2.08694 -0.3922728
v 1.07956 2.08694 -0.3477581
v 1.068156 2.130386 -0.3477581
v 1.037 2.08694 -0.4248599
v 1.061755 2.124485 -0.3862263
v 1.031219 2.155657 -0.3862263
v 1.037 2.162191 -0.3477581
v 1.031219 2.124485 -0.4181649
v 0.9944404 2.162191 -0.3922728
v 0.9944404 2.173833 -0.3477581
v 0.9944404 2.08694 -0.4367876
v 0.9944404 2.130386 -0.4248599
v -0.9944403 2.162191 -0.3922728
v -0.9944403 2.173833 -0.3477581
v -0.9944403 2.08694 -0.4367876
v -0.9944403 2.130386 -0.4248599
v -1.031219 2.155657 -0.3862263
v -1.031219 2.124485 -0.4181649
v -1.037 2.08694 -0.4248599
v -0.9944405 -1.859969 -0.4367873
vt 0.2783153 -0.0281595
vt 0.3304597 -0.03161967
vt 0.27832 -0.03161275
vt 0.330465 -0.02816355
vt 0.3304698 0.2481866
vt 0.2782807 0.2481921
vt 0.2782717 0.2516518
vt 0.3304778 0.251644
vt 0.2782594 0.2551165
vt 0.3304913 0.2551011
vt 0.2782516 0.2585766
vt 0.3304999 0.2585654
vt 0.2782227 0.4640706
vt 0.3305165 0.4640941
vt 0.2782146 0.4675326
vt 0.3305205 0.4675624
vt 0.2782027 0.4709987
vt 0.3305297 0.4710298
vt 0.2781969 0.4744703
vt 0.3305318 0.4744937
vt 0.3305153 0.7518101
vt 0.2781727 0.7518072
vt 0.2781822 0.7552791
vt 0.330514 0.755276
vt 0.2782037 0.7587437
vt 0.3305195 0.7587457
vt 0.2782139 0.7622103
vt 0.3305159 0.7622089
vt 0.2782267 0.9677676
vt 0.3305042 0.967773
vt 0.278226 0.9712266
vt 0.3305041 0.9712396
vt 0.2782249 0.9746913
vt 0.3304943 0.9747008
vt 0.6982268 0.7678025
vt 0.6982142 0.3205378
vt 0.6919128 0.3205062
vt 0.6969809 0.3131693
vt 0.691925 0.7678363
vt 0.6970096 0.775158
vt 0.6909488 0.7726372
vt 0.6908963 0.7839131
vt 0.6909338 0.3157035
vt 0.6862264 0.320485
vt 0.6865775 0.310649
vt 0.6908598 0.3044422
vt 0.6854249 0.3162911
vt 0.6814934 0.309318
vt 0.6816442 0.3027968
vt 0.681316 0.3152025
vt 0.4412124 0.3092891
vt 0.441065 0.3027679
vt 0.4318247 0.3044037
vt 0.4413842 0.3151756
vt 0.4360992 0.3106179
vt 0.4317599 0.3156722
vt 0.4257022 0.3131327
vt 0.4372873 0.3162574
vt 0.4307797 0.3204792
vt 0.4244769 0.3205117
vt 0.436469 0.3204583
vt 0.4415133 0.3204277
vt 0.4307814 0.7678583
vt 0.4244793 0.7678258
vt 0.4257092 0.7752033
vt 0.4364685 0.7678798
vt 0.4317598 0.7726663
vt 0.4361181 0.7777233
vt 0.4318351 0.7839353
vt 0.4372705 0.7720776
vt 0.4412042 0.7790517
vt 0.4410548 0.7855749
vt 0.4415124 0.7679116
vt 0.4413799 0.7731647
vt 0.6814966 0.7790341
vt 0.6816461 0.7855582
vt 0.681193 0.7678927
vt 0.6813233 0.7731464
vt 0.6866126 0.7776988
vt 0.6854205 0.7720594
vt 0.6862369 0.7678597
vt 0.6811833 0.3204535
vt 0.6961274 0.3217968
vt 0.6971598 0.7661153
vt 0.6919647 0.7660705
vt 0.6955315 0.7739768
vt 0.6909356 0.321868
vt 0.6945091 0.3140234
vt 0.6899113 0.3171756
vt 0.6893653 0.3078481
vt 0.6909397 0.7708034
vt 0.6872835 0.7660237
vt 0.6873085 0.7752526
vt 0.6903287 0.7801425
vt 0.6865339 0.7700412
vt 0.6833305 0.7768158
vt 0.6834369 0.7831973
vt 0.6832173 0.7710941
vt 0.4394964 0.777384
vt 0.4394247 0.783767
vt 0.4325057 0.7807605
vt 0.4395772 0.7716589
vt 0.4354925 0.7758414
vt 0.4318446 0.7714167
vt 0.4272621 0.7746211
vt 0.4362604 0.7706346
vt 0.4307961 0.7666818
vt 0.4255981 0.7667559
vt 0.4354802 0.7666083
vt 0.4396314 0.7665594
vt 0.4297485 0.3221607
vt 0.4245511 0.3221153
vt 0.4261834 0.3142024
vt 0.4344321 0.3222106
vt 0.4307758 0.3173953
vt 0.4344097 0.3129435
vt 0.4313881 0.3080333
vt 0.4351832 0.3181714
vt 0.4383906 0.3114087
vt 0.4382863 0.3050237
vt 0.4385824 0.3222398
vt 0.438502 0.3171363
vt 0.6822586 0.3111638
vt 0.6823374 0.3047788
vt 0.682109 0.3219811
vt 0.68217 0.3168859
vt 0.686289 0.3127432
vt 0.6854901 0.3179328
vt 0.6862561 0.3219369
vt 0.6831349 0.7659986
vn 0.9998779 -0.002814725 0.01536752
vn 0.8704629 -0.492094 -0.0117398
vn 0.8704629 -0.492094 0.0117398
vn 0.9998779 -0.002814726 -0.01536752
vn 0.9998779 0.002814672 -0.01536752
vn 0.9998779 0.002814675 0.01536752
vn 0.8704643 0.4920915 0.01173992
vn 0.8704643 0.4920915 -0.01173981
vn 0.5074982 0.8615713 0.01184998
vn 0.5074982 0.8615713 -0.01184991
vn 0.005644056 0.9998616 0.01564894
vn 0.005644055 0.9998616 -0.01564894
vn -0.005644057 0.9998616 0.01564894
vn -0.005644057 0.9998616 -0.01564895
vn -0.5074974 0.8615718 0.0118498
vn -0.5074972 0.8615719 -0.01185009
vn -0.8704619 0.4920959 0.01173968
vn -0.8704618 0.4920959 -0.01173991
vn -0.9998779 0.002814726 0.01536768
vn -0.9998779 0.002814724 -0.01536768
vn -0.9998779 -0.002814716 -0.01536768
vn -0.9998779 -0.002814715 0.01536768
vn -0.8704608 -0.4920977 0.01173973
vn -0.8704609 -0.4920977 -0.01173963
vn -0.5074945 -0.8615735 0.01184976
vn -0.5074947 -0.8615734 -0.01184969
vn -0.005643996 -0.9998616 0.01564893
vn -0.005643996 -0.9998616 -0.01564893
vn 0.005643995 -0.9998616 0.01564894
vn 0.005643995 -0.9998616 -0.01564894
vn 0.5074937 -0.8615739 0.01184994
vn 0.5074938 -0.8615739 -0.01184994
vn 0.8704629 -0.492094 0.0117398
vn 0.8704629 -0.492094 -0.0117398
vn -0.9998779 -0.002814715 0.01536768
vn -0.9998779 0.002814726 0.01536768
vn -0.8754851 0.002169612 0.4832402
vn -0.8704619 0.4920959 0.01173968
vn -0.8754851 -0.002169527 0.4832402
vn -0.8704608 -0.4920977 0.01173973
vn -0.8180385 -0.4118383 0.4015002
vn -0.5074945 -0.8615735 0.01184976
vn -0.8180385 0.411836 0.4015022
vn -0.5168845 0.002213756 0.8560523
vn -0.4247944 0.8094844 0.4053203
vn -0.5074974 0.8615718 0.0118498
vn -0.4294637 0.4203236 0.7993054
vn -0.004329842 0.8712208 0.4908723
vn -0.005644057 0.9998616 0.01564894
vn -0.004377105 0.5090603 0.8607198
vn 0.004329841 0.8712208 0.4908723
vn 0.005644056 0.9998616 0.01564894
vn 0.5074982 0.8615713 0.01184998
vn 0.004377108 0.5090602 0.8607198
vn 0.4247945 0.8094846 0.4053201
vn 0.8180386 0.4118359 0.4015021
vn 0.8704643 0.4920915 0.01173992
vn 0.4294638 0.4203245 0.7993048
vn 0.8754874 0.002169591 0.4832361
vn 0.9998779 0.002814675 0.01536752
vn 0.5168846 0.002213726 0.8560523
vn 0.005855331 0.002973262 0.9999784
vn 0.8754874 -0.002169592 0.4832361
vn 0.9998779 -0.002814725 0.01536752
vn 0.8704629 -0.492094 0.0117398
vn 0.5168846 -0.002213689 0.8560522
vn 0.8180386 -0.4118378 0.4015002
vn 0.4247936 -0.8094853 0.4053197
vn 0.5074937 -0.8615739 0.01184994
vn 0.4294631 -0.4203258 0.7993045
vn 0.004329813 -0.8712221 0.4908698
vn 0.005643995 -0.9998616 0.01564894
vn 0.005855331 -0.002973157 0.9999784
vn 0.004377117 -0.5090616 0.860719
vn -0.004329818 -0.8712221 0.4908698
vn -0.005643996 -0.9998616 0.01564893
vn -0.005855333 -0.002973157 0.9999784
vn -0.00437712 -0.5090616 0.860719
vn -0.4247959 -0.8094857 0.4053164
vn -0.429465 -0.4203243 0.7993042
vn -0.5168846 -0.002213614 0.8560522
vn -0.005855332 0.002973262 0.9999784
vn -0.9998779 0.002814724 -0.01536768
vn -0.9998779 -0.002814716 -0.01536768
vn -0.8754851 -0.002169621 -0.4832402
vn -0.8704609 -0.4920977 -0.01173963
vn -0.8754851 0.002169538 -0.4832402
vn -0.8704618 0.4920959 -0.01173991
vn -0.8180382 0.4118383 -0.4015005
vn -0.5074972 0.8615719 -0.01185009
vn -0.8180382 -0.4118377 -0.4015011
vn -0.5168848 -0.002213767 -0.8560521
vn -0.4247954 -0.8094853 -0.4053175
vn -0.5074947 -0.8615734 -0.01184969
vn -0.4294655 -0.420324 -0.7993042
vn -0.004329831 -0.8712218 -0.4908705
vn -0.005643996 -0.9998616 -0.01564893
vn -0.004377155 -0.5090616 -0.860719
vn 0.004329829 -0.8712217 -0.4908705
vn 0.005643995 -0.9998616 -0.01564894
vn 0.5074938 -0.8615739 -0.01184994
vn 0.004377152 -0.5090616 -0.860719
vn 0.4247938 -0.8094849 -0.4053202
vn 0.8180385 -0.411838 -0.4015005
vn 0.8704629 -0.492094 -0.0117398
vn 0.429464 -0.4203255 -0.7993041
vn 0.8754874 -0.002169647 -0.483236
vn 0.9998779 -0.002814726 -0.01536752
vn 0.5168849 -0.002213799 -0.8560521
vn 0.00585536 -0.002973306 -0.9999784
vn 0.8754874 0.002169548 -0.483236
vn 0.9998779 0.002814672 -0.01536752
vn 0.8704643 0.4920915 -0.01173981
vn 0.5168849 0.002213634 -0.8560521
vn 0.818039 0.4118369 -0.4015003
vn 0.4247949 0.8094848 -0.4053193
vn 0.5074982 0.8615713 -0.01184991
vn 0.429464 0.4203255 -0.7993042
vn 0.004329846 0.8712211 -0.4908718
vn 0.005644055 0.9998616 -0.01564894
vn 0.00585536 0.002973149 -0.9999784
vn 0.004377117 0.5090607 -0.8607196
vn -0.00432984 0.8712211 -0.4908718
vn -0.005644057 0.9998616 -0.01564895
vn -0.005855361 0.002973149 -0.9999784
vn -0.004377111 0.5090607 -0.8607196
vn -0.4247952 0.8094848 -0.4053187
vn -0.429464 0.4203252 -0.7993044
vn -0.5168848 0.002213628 -0.8560521
vn -0.005855362 -0.002973306 -0.9999784
g ENV_DOD_DoorBlockkSmall_0
f 3/3/3 2/2/2 1/1/1
f 2/2/2 4/4/4 1/1/1
f 4/4/4 5/5/5 1/1/1
f 5/5/5 6/6/6 1/1/1
f 6/6/6 5/5/5 7/7/7
f 5/5/5 8/8/8 7/7/7
f 7/7/7 8/8/8 9/9/9
f 8/8/8 10/10/10 9/9/9
f 9/9/9 10/10/10 11/11/11
f 10/10/10 12/12/12 11/11/11
f 11/11/11 12/12/12 13/13/13
f 12/12/12 14/14/14 13/13/13
f 13/13/13 14/14/14 15/15/15
f 14/14/14 16/16/16 15/15/15
f 15/15/15 16/16/16 17/17/17
f 16/16/16 18/18/18 17/17/17
f 17/17/17 18/18/18 19/19/19
f 18/18/18 20/20/20 19/19/19
f 19/19/19 20/20/20 21/21/21
f 22/22/22 19/19/19 21/21/21
f 22/22/22 21/21/21 23/23/23
f 21/21/21 24/24/24 23/23/23
f 23/23/23 24/24/24 25/25/25
f 24/24/24 26/26/26 25/25/25
f 25/25/25 26/26/26 27/27/27
f 26/26/26 28/28/28 27/27/27
f 29/29/29 27/27/27 28/28/28
f 30/30/30 29/29/29 28/28/28
f 29/29/29 30/30/30 31/31/31
f 30/30/30 32/32/32 31/31/31
f 31/31/31 32/32/32 33/33/33
f 32/32/32 34/34/34 33/33/33
g ENV_DOD_DoorBlockkSmall_1
f 37/37/37 36/36/36 35/35/35
f 36/36/36 37/37/37 38/38/38
f 39/39/39 37/37/37 35/35/35
f 35/35/35 40/40/40 39/39/39
f 40/40/40 41/41/41 39/39/39
f 40/40/40 42/42/42 41/41/41
f 37/37/37 43/43/43 38/38/38
f 44/44/44 37/37/37 39/39/39
f 37/37/37 44/44/44 43/43/43
f 38/38/38 43/43/43 45/45/45
f 46/46/46 38/38/38 45/45/45
f 43/43/43 47/47/47 45/45/45
f 44/44/44 47/47/47 43/43/43
f 46/46/46 45/45/45 48/48/48
f 48/48/48 45/45/45 47/47/47
f 49/49/49 46/46/46 48/48/48
f 50/50/50 47/47/47 44/44/44
f 50/50/50 48/48/48 47/47/47
f 48/48/48 51/51/51 49/49/49
f 51/51/51 52/52/52 49/49/49
f 52/52/52 51/51/51 53/53/53
f 54/54/54 51/51/51 48/48/48
f 50/50/50 54/54/54 48/48/48
f 51/51/51 55/55/55 53/53/53
f 51/51/51 54/54/54 55/55/55
f 53/53/53 55/55/55 56/56/56
f 57/57/57 53/53/53 56/56/56
f 55/55/55 58/58/58 56/56/56
f 54/54/54 58/58/58 55/55/55
f 57/57/57 56/56/56 59/59/59
f 59/59/59 56/56/56 58/58/58
f 60/60/60 57/57/57 59/59/59
f 61/61/61 58/58/58 54/54/54
f 61/61/61 59/59/59 58/58/58
f 62/62/62 54/54/54 50/50/50
f 62/62/62 61/61/61 54/54/54
f 60/60/60 59/59/59 63/63/63
f 64/64/64 60/60/60 63/63/63
f 64/64/64 63/63/63 65/65/65
f 59/59/59 61/61/61 66/66/66
f 63/63/63 59/59/59 66/66/66
f 63/63/63 67/67/67 65/65/65
f 63/63/63 66/66/66 67/67/67
f 65/65/65 67/67/67 68/68/68
f 69/69/69 65/65/65 68/68/68
f 67/67/67 70/70/70 68/68/68
f 66/66/66 70/70/70 67/67/67
f 69/69/69 68/68/68 71/71/71
f 71/71/71 68/68/68 70/70/70
f 72/72/72 69/69/69 71/71/71
f 66/66/66 61/61/61 73/73/73
f 61/61/61 62/62/62 73/73/73
f 74/74/74 70/70/70 66/66/66
f 73/73/73 74/74/74 66/66/66
f 74/74/74 71/71/71 70/70/70
f 72/72/72 71/71/71 75/75/75
f 76/76/76 72/72/72 75/75/75
f 76/76/76 75/75/75 42/42/42
f 73/73/73 62/62/62 77/77/77
f 74/74/74 73/73/73 77/77/77
f 71/71/71 74/74/74 78/78/78
f 75/75/75 71/71/71 78/78/78
f 78/78/78 74/74/74 77/77/77
f 75/75/75 79/79/79 42/42/42
f 75/75/75 78/78/78 79/79/79
f 42/42/42 79/79/79 41/41/41
f 79/79/79 80/80/80 41/41/41
f 78/78/78 80/80/80 79/79/79
f 39/39/39 41/41/41 80/80/80
f 81/81/81 80/80/80 78/78/78
f 81/81/81 39/39/39 80/80/80
f 77/77/77 81/81/81 78/78/78
f 81/81/81 44/44/44 39/39/39
f 62/62/62 82/82/82 77/77/77
f 77/77/77 82/82/82 81/81/81
f 82/82/82 44/44/44 81/81/81
f 82/82/82 62/62/62 50/50/50
f 82/82/82 50/50/50 44/44/44
f 85/85/85 84/84/84 83/83/83
f 84/84/84 85/85/85 86/86/86
f 87/87/87 85/85/85 83/83/83
f 83/83/83 88/88/88 87/87/87
f 88/88/88 89/89/89 87/87/87
f 88/88/88 90/90/90 89/89/89
f 85/85/85 91/91/91 86/86/86
f 92/92/92 85/85/85 87/87/87
f 85/85/85 92/92/92 91/91/91
f 86/86/86 91/91/91 93/93/93
f 94/94/94 86/86/86 93/93/93
f 91/91/91 95/95/95 93/93/93
f 92/92/92 95/95/95 91/91/91
f 94/94/94 93/93/93 96/96/96
f 96/96/96 93/93/93 95/95/95
f 97/97/97 94/94/94 96/96/96
f 98/98/98 95/95/95 92/92/92
f 98/98/98 96/96/96 95/95/95
f 96/96/96 99/99/99 97/97/97
f 99/99/99 100/100/100 97/97/97
f 100/100/100 99/99/99 101/101/101
f 102/102/102 99/99/99 96/96/96
f 98/98/98 102/102/102 96/96/96
f 99/99/99 103/103/103 101/101/101
f 99/99/99 102/102/102 103/103/103
f 101/101/101 103/103/103 104/104/104
f 105/105/105 101/101/101 104/104/104
f 103/103/103 106/106/106 104/104/104
f 102/102/102 106/106/106 103/103/103
f 105/105/105 104/104/104 107/107/107
f 107/107/107 104/104/104 106/106/106
f 108/108/108 105/105/105 107/107/107
f 109/109/109 106/106/106 102/102/102
f 109/109/109 107/107/107 106/106/106
f 110/110/110 102/102/102 98/98/98
f 110/110/110 109/109/109 102/102/102
f 108/108/108 107/107/107 111/111/111
f 112/112/112 108/108/108 111/111/111
f 112/112/112 111/111/111 113/113/113
f 107/107/107 109/109/109 114/114/114
f 111/111/111 107/107/107 114/114/114
f 111/111/111 115/115/115 113/113/113
f 111/111/111 114/114/114 115/115/115
f 113/113/113 115/115/115 116/116/116
f 117/117/117 113/113/113 116/116/116
f 118/118/118 116/116/116 115/115/115
f 114/114/114 118/118/118 115/115/115
f 117/117/117 116/116/116 119/119/119
f 119/119/119 116/116/116 118/118/118
f 120/120/120 117/117/117 119/119/119
f 114/114/114 109/109/109 121/121/121
f 109/109/109 110/110/110 121/121/121
f 122/122/122 118/118/118 114/114/114
f 121/121/121 122/122/122 114/114/114
f 122/122/122 119/119/119 118/118/118
f 120/120/120 119/119/119 123/123/123
f 124/124/124 120/120/120 123/123/123
f 124/124/124 123/123/123 90/90/90
f 121/121/121 110/110/110 125/125/125
f 122/122/122 121/121/121 125/125/125
f 119/119/119 122/122/122 126/126/126
f 123/123/123 119/119/119 126/126/126
f 126/126/126 122/122/122 125/125/125
f 123/123/123 127/127/127 90/90/90
f 123/123/123 126/126/126 127/127/127
f 90/90/90 127/127/127 89/89/89
f 89/89/89 127/127/127 128/128/128
f 126/126/126 128/128/128 127/127/127
f 87/87/87 89/89/89 128/128/128
f 129/129/129 128/128/128 126/126/126
f 129/129/129 87/87/87 128/128/128
f 125/125/125 129/129/129 126/126/126
f 129/129/129 92/92/92 87/87/87
f 110/110/110 130/130/130 125/125/125
f 125/125/125 130/130/130 129/129/129
f 130/130/130 92/92/92 129/129/129
f 130/130/130 110/110/110 98/98/98
f 130/130/130 98/98/98 92/92/92
