g ENV_Screen_MO
v -0.004999998 0.009407058 -0.005
v -0.004999998 -0.000592941 -0.005
v 0.004999998 -0.000592941 -0.005
v 0.004999998 0.009407058 -0.005
v -0.004947377 -0.0005121118 0.0002096271
v 0.004947377 -0.0005121118 0.0002096271
v 0.004999998 -0.000592941 -0.0003354263
v -0.004999998 -0.000592941 -0.0003354263
v -0.004999998 -0.000592941 -0.0003354263
v -0.004999998 0.009407058 -0.0003354263
v -0.004947377 0.00932623 0.0002096271
v -0.004947377 -0.0005121118 0.0002096271
v 0.004947377 -0.0005121118 0.0002096271
v 0.004947377 0.00932623 0.0002096271
v 0.004999998 0.009407058 -0.0003354263
v 0.004999998 -0.000592941 -0.0003354263
v -0.004999998 0.009407058 -0.0003354263
v 0.004999998 0.009407058 -0.0003354263
v 0.004947377 0.00932623 0.0002096271
v -0.004947377 0.00932623 0.0002096271
v -0.004894745 -0.0004312673 -0.001146675
v 0.004894745 -0.0004312673 -0.001146675
v 0.004947377 -0.0005121118 0.0002096271
v -0.004947377 -0.0005121118 0.0002096271
v -0.004947377 -0.0005121118 0.0002096271
v -0.004947377 0.00932623 0.0002096271
v -0.004894745 0.009245384 -0.001146675
v -0.004894745 -0.0004312673 -0.001146675
v 0.004894745 -0.0004312673 -0.001146675
v 0.004894745 0.009245384 -0.001146675
v 0.004947377 0.00932623 0.0002096271
v 0.004947377 -0.0005121118 0.0002096271
v -0.004947377 0.00932623 0.0002096271
v 0.004947377 0.00932623 0.0002096271
v 0.004894745 0.009245384 -0.001146675
v -0.004894745 0.009245384 -0.001146675
v -0.004999998 0.009407058 -0.0003354263
v -0.004999998 0.009407058 -0.005
v 0.004999998 0.009407058 -0.005
v 0.004999998 0.009407058 -0.0003354263
v -0.004999998 -0.000592941 -0.005
v -0.004999998 -0.000592941 -0.0003354263
v 0.004999998 -0.000592941 -0.0003354263
v 0.004999998 -0.000592941 -0.005
v 0.004999998 -0.000592941 -0.0003354263
v 0.004999998 0.009407058 -0.0003354263
v 0.004999998 0.009407058 -0.005
v 0.004999998 -0.000592941 -0.005
v -0.004999998 -0.000592941 -0.005
v -0.004999998 0.009407058 -0.005
v -0.004999998 0.009407058 -0.0003354263
v -0.004999998 -0.000592941 -0.0003354263
v -0.004894745 -0.0004312673 -0.001146675
v -0.004894745 0.009245384 -0.001146675
v 0.004894745 0.009245384 -0.001146675
v 0.004894745 -0.0004312673 -0.001146675
vt 0.375 0.5
vt 0.375 0.75
vt 0.625 0.75
vt 0.625 0.5
vt 0.3388157 0.00202073
vt 0.6611843 0.002020863
vt 0.6498184 0.002612554
vt 0.3507137 0.002640255
vt 0.3500574 0.002606094
vt 0.3767244 0.2731998
vt 0.3763155 0.2854792
vt 0.3388157 0.00202073
vt 0.6611843 0.002020863
vt 0.6611844 0.2479793
vt 0.7583855 0.25
vt 0.7583855 -7.450581E-09
vt 0.3767008 0.2739066
vt 0.7583855 0.25
vt 0.6611844 0.2479793
vt 0.3763155 0.2854792
vt -0.02341247 -0.02630883
vt 1.023412 -0.02630883
vt 0.6611843 0.002020863
vt 0.3388157 0.00202073
vt 0.3388157 0.00202073
vt 0.3763155 0.2854792
vt -0.02341247 0.9799954
vt -0.02341247 -0.02630883
vt 1.023412 -0.02630883
vt 1.023412 0.9799954
vt 0.6611844 0.2479793
vt 0.6611843 0.002020863
vt 0.3763155 0.2854792
vt 0.6611844 0.2479793
vt 1.023412 0.9799954
vt -0.02341247 0.9799954
vt 0.375 0.3833855
vt 0.375 0.5
vt 0.625 0.5
vt 0.625 0.3833855
vt 0.375 0.75
vt 0.375 0.8666145
vt 0.625 0.8666145
vt 0.625 0.75
vt 0.7583855 -7.450581E-09
vt 0.7583855 0.25
vt 0.875 0.25
vt 0.875 0
vt 0.125 0
vt 0.125 0.25
vt 0.2416145 0.25
vt 0.2416145 -7.450581E-09
vt 0 0
vt 0 1
vt 1 1
vt 1 0
vn 0 0 -1
vn 0 0 -1
vn 0 0 -1
vn 0 0 -1
vn -0.7063205 -0.6871533 0.1700932
vn 0.7063205 -0.6871533 0.1700932
vn 0.6832158 -0.7098568 0.1712295
vn -0.6832157 -0.7098569 0.1712295
vn -0.6832157 -0.7098569 0.1712295
vn -0.683216 0.7098567 0.1712287
vn -0.7063203 0.6871536 0.1700925
vn -0.7063205 -0.6871533 0.1700932
vn 0.7063205 -0.6871533 0.1700932
vn 0.7063204 0.6871536 0.1700925
vn 0.6832161 0.7098566 0.1712287
vn 0.6832158 -0.7098568 0.1712295
vn -0.683216 0.7098567 0.1712287
vn 0.6832161 0.7098566 0.1712287
vn 0.7063204 0.6871536 0.1700925
vn -0.7063203 0.6871536 0.1700925
vn 0 0.9982283 0.05950085
vn 0 0.9982283 0.05950085
vn 0 0.9982283 0.05950086
vn 0 0.9982283 0.05950086
vn 0.9992478 0 0.03877661
vn 0.9992478 0 0.03877661
vn 0.9992478 0 0.03877661
vn 0.9992478 0 0.03877661
vn -0.9992478 0 0.03877661
vn -0.9992478 0 0.03877661
vn -0.9992478 0 0.03877661
vn -0.9992478 0 0.03877661
vn 0 -0.9982283 0.05950154
vn 0 -0.9982283 0.05950154
vn 0 -0.9982283 0.05950152
vn 0 -0.9982283 0.05950152
vn 0 1 0
vn 0 1 0
vn 0 1 0
vn 0 1 0
vn 0 -1 0
vn 0 -1 0
vn 0 -1 0
vn 0 -1 0
vn 1 0 0
vn 1 0 0
vn 1 0 0
vn 1 0 0
vn -1 0 0
vn -1 0 0
vn -1 0 0
vn -1 0 0
vn 0 0 1
vn 0 0 1
vn 0 0 1
vn 0 0 1
g ENV_Screen_MO_0
f 3/3/3 2/2/2 1/1/1
f 4/4/4 3/3/3 1/1/1
f 7/7/7 6/6/6 5/5/5
f 8/8/8 7/7/7 5/5/5
f 11/11/11 10/10/10 9/9/9
f 12/12/12 11/11/11 9/9/9
f 15/15/15 14/14/14 13/13/13
f 16/16/16 15/15/15 13/13/13
f 19/19/19 18/18/18 17/17/17
f 20/20/20 19/19/19 17/17/17
f 23/23/23 22/22/22 21/21/21
f 24/24/24 23/23/23 21/21/21
f 27/27/27 26/26/26 25/25/25
f 28/28/28 27/27/27 25/25/25
f 31/31/31 30/30/30 29/29/29
f 32/32/32 31/31/31 29/29/29
f 35/35/35 34/34/34 33/33/33
f 36/36/36 35/35/35 33/33/33
f 39/39/39 38/38/38 37/37/37
f 40/40/40 39/39/39 37/37/37
f 43/43/43 42/42/42 41/41/41
f 44/44/44 43/43/43 41/41/41
f 47/47/47 46/46/46 45/45/45
f 48/48/48 47/47/47 45/45/45
f 51/51/51 50/50/50 49/49/49
f 52/52/52 51/51/51 49/49/49
g ENV_Screen_MO_1
f 55/55/55 54/54/54 53/53/53
f 56/56/56 55/55/55 53/53/53
