g ENV_TerrainIslandLarge
v -33.516 10.77936 -11.52637
v -52.25767 -12.26315 -2.628241
v -51.57732 -12.26315 -15.77182
v -49.40632 -12.26315 -24.01155
v -34.33961 10.76813 -2.423127
v -33.76652 10.78271 3.163061
v -49.03783 -12.26315 14.0042
v -32.18109 12.11323 -5.338771
v -29.50988 12.25949 -15.98405
v -32.37437 10.71113 -15.66223
v -30.39078 10.84712 -20.00193
v -45.12403 -12.26315 -32.75898
v -31.01677 12.16971 4.941734
v -32.38283 10.675 9.05646
v -28.03558 10.77083 -23.50421
v -38.20749 -12.26315 -40.8381
v -29.4388 10.65144 15.35018
v -43.27305 -12.26315 25.67771
v -28.0265 12.07406 13.43695
v -24.68761 10.81233 21.54915
v -34.79208 -12.26315 35.73069
v -24.33944 12.1364 -24.3823
v -16.42618 12.25705 -29.37521
v -25.50901 10.79996 -26.28245
v -20.93287 10.80734 -29.88102
v -29.41056 -12.26315 -47.11519
v -12.49684 10.82928 -33.60649
v -18.56076 -12.26315 -51.62859
v -17.31176 10.71008 28.0931
v -19.96915 -12.26315 46.97946
v 0.002560019 11.06801 -9.50781
v -25.89744 12.26309 12.96392
v -10.9769 12.25516 29.33095
v -21.37391 12.12869 21.69471
v -5.96361 10.78724 -35.13713
v -6.930649 -12.26315 -53.88093
v -12.43256 10.75014 31.26596
v -6.96419 10.72639 33.84724
v -4.21576 -12.26315 53.14694
v 1.245206 10.82974 35.36854
v 6.711556 -12.26315 53.88889
v -1.643736 12.15768 32.80376
v 6.784197 10.72293 35.06824
v 16.55258 -12.26315 51.75433
v 8.7331 12.26314 29.49946
v 5.797467 12.138 32.78835
v 12.08352 10.78822 33.46622
v 11.87783 12.05427 31.29217
v 16.39608 10.74953 31.46404
v 27.87943 -12.26315 46.15786
v 17.34362 12.15764 27.97051
v 22.33139 10.70047 27.22763
v 37.57821 -12.26315 37.84731
v 23.61412 12.24261 22.19591
v 27.03222 10.78413 22.00987
v 46.2879 -12.26315 25.34847
v 29.39311 12.10606 13.76702
v 30.49995 10.61647 16.70852
v 32.53497 10.78097 11.29848
v 51.25038 -12.26315 10.97164
v 31.6993 12.1754 3.750312
v 33.49907 10.82503 7.277012
v 34.26093 10.83374 -3.435128
v 52.25767 -12.26315 -3.886847
v 31.71659 12.14441 -6.308699
v 33.28785 10.71452 -10.39667
v 48.46598 -12.26315 -22.04057
v 28.84947 12.14584 -15.66789
v 31.12227 10.7359 -16.20351
v 40.73867 -12.26315 -34.50821
v 27.26414 10.69819 -22.09668
v 15.11772 12.23785 -29.0121
v 22.37838 10.6794 -27.04306
v 31.54335 -12.26315 -43.3301
v 22.60244 12.08845 -23.80842
v 18.04855 10.8273 -30.1504
v 20.56621 -12.26315 -49.86833
v 12.82723 10.68992 -33.12368
v 8.578732 12.17932 -32.04058
v 7.501207 10.83652 -34.6945
v 6.436436 -12.26315 -53.88889
v -8.635201 12.13748 -32.305
v 0.8133674 12.06981 -33.32631
v 2.167026 10.59506 -35.60859
vt 0.3834636 0.4908096
vt 0.3764498 0.4874795
vt 0.3767043 0.4923984
vt 0.3775168 0.495482
vt 0.3831553 0.4874028
vt 0.3833698 0.4853122
vt 0.3776547 0.481255
vt 0.3839632 0.4884939
vt 0.3849629 0.4924778
vt 0.3838908 0.4923574
vt 0.3846332 0.4939815
vt 0.3791194 0.4987556
vt 0.3843989 0.4846465
vt 0.3838876 0.4831067
vt 0.3855146 0.4952921
vt 0.3817078 0.5017792
vt 0.3849894 0.4807513
vt 0.3798121 0.4768863
vt 0.385518 0.4814673
vt 0.3867675 0.4784314
vt 0.382986 0.4731241
vt 0.3868978 0.4956208
vt 0.3898593 0.4974893
vt 0.3864601 0.4963319
vt 0.3881727 0.4976786
vt 0.385 0.5041283
vt 0.3913298 0.4990728
vt 0.3890604 0.5058174
vt 0.3895279 0.4759823
vt 0.3885334 0.4689143
vt 0.3960076 0.4900541
vt 0.3863147 0.4816443
vt 0.3918986 0.4755191
vt 0.3880076 0.4783769
vt 0.3937748 0.4996457
vt 0.3934129 0.5066603
vt 0.3913538 0.4747949
vt 0.3934004 0.4738289
vt 0.3944289 0.4666062
vt 0.3964727 0.4732596
vt 0.3985184 0.4663286
vt 0.3953915 0.4742194
vt 0.3985456 0.473372
vt 0.4022013 0.4671274
vt 0.3992749 0.4754561
vt 0.3981763 0.4742252
vt 0.4005288 0.4739715
vt 0.4004518 0.4747851
vt 0.4021427 0.4747208
vt 0.4064403 0.4692218
vt 0.4024973 0.4760282
vt 0.4043639 0.4763063
vt 0.4100699 0.4723319
vt 0.404844 0.4781893
vt 0.4061232 0.4782589
vt 0.4133294 0.4770095
vt 0.4070067 0.4813437
vt 0.4074209 0.4802429
vt 0.4081826 0.4822676
vt 0.4151866 0.4823899
vt 0.4078698 0.4850924
vt 0.4085433 0.4837726
vt 0.4088285 0.4877815
vt 0.4155636 0.4879506
vt 0.4078763 0.4888569
vt 0.4084643 0.4903868
vt 0.4141446 0.4947444
vt 0.4068033 0.4923595
vt 0.4076539 0.4925599
vt 0.4112527 0.4994103
vt 0.4062099 0.4947654
vt 0.4016643 0.4973534
vt 0.4043815 0.4966165
vt 0.4078115 0.5027118
vt 0.4044654 0.495406
vt 0.4027612 0.4977794
vt 0.4037033 0.5051587
vt 0.4008071 0.4988922
vt 0.3992171 0.4984868
vt 0.3988139 0.49948
vt 0.3984154 0.5066633
vt 0.392775 0.4985858
vt 0.396311 0.4989679
vt 0.3968176 0.4998221
vn -0.7632838 0.6407596 -0.08261231
vn -0.7902682 0.612211 0.02595675
vn -0.7772596 0.6219049 -0.0954043
vn -0.7237831 0.631725 -0.2775996
vn -0.777985 0.6278073 -0.0244386
vn -0.7618701 0.6329919 0.1373873
vn -0.7635145 0.5987377 0.2419893
vn -0.2591847 0.9656809 -0.01684348
vn 0.01650041 0.9998623 -0.001745061
vn -0.7103621 0.6562684 -0.2543572
vn -0.6440607 0.6801069 -0.3502004
vn -0.6408392 0.637367 -0.4278884
vn -0.1154637 0.9930024 0.02478641
vn -0.7257093 0.6349036 0.2650352
vn -0.5878548 0.6598374 -0.4680187
vn -0.5192603 0.6385591 -0.5679885
vn -0.6737952 0.6206707 0.4009588
vn -0.673404 0.5960708 0.4372949
vn -0.2994233 0.9392464 0.1678151
vn -0.5683014 0.628378 0.5312011
vn -0.546938 0.591389 0.5925519
vn -0.1471047 0.9777981 -0.149235
vn 0.003395695 0.9999294 0.0113886
vn -0.5037113 0.6604235 -0.5568805
vn -0.3427854 0.6556811 -0.6727411
vn -0.3525206 0.6381278 -0.6844869
vn -0.2676222 0.6506808 -0.7106285
vn -0.2524861 0.6358536 -0.7293429
vn -0.4763736 0.6298435 0.6134862
vn -0.3952172 0.5944419 0.7003157
vn 0.006222317 0.9999429 0.008692965
vn 0.02728335 0.999541 -0.01316449
vn 0.0005630798 0.9999712 -0.007574123
vn -0.1583896 0.9733406 0.1658932
vn -0.09562331 0.6575668 -0.7473032
vn -0.07336247 0.6281171 -0.7746528
vn -0.3806844 0.6268313 0.6798249
vn -0.2433509 0.6383446 0.7302715
vn -0.1884686 0.6094082 0.7701307
vn -0.06467202 0.6508421 0.7564535
vn 0.05542655 0.624788 0.7788246
vn -0.03156269 0.9827216 0.1823788
vn 0.1358201 0.6526023 0.7454281
vn 0.2646388 0.6260169 0.733532
vn -0.004596103 0.9996687 -0.02532299
vn 0.03808826 0.9665011 0.2538209
vn 0.2676206 0.6493036 0.7118876
vn 0.1284764 0.9393306 0.3180438
vn 0.3894015 0.6477971 0.6547713
vn 0.4288875 0.6225575 0.654582
vn 0.1287205 0.9745784 0.1833789
vn 0.5029656 0.6519321 0.5674595
vn 0.5878386 0.6161994 0.5241603
vn -0.0003455978 0.999983 -0.005824462
vn 0.6094577 0.6486712 0.4558367
vn 0.7043962 0.6120031 0.3595527
vn 0.2131947 0.9725809 0.0929221
vn 0.6835213 0.6397281 0.351492
vn 0.7359834 0.6303968 0.2468368
vn 0.7787936 0.614219 0.1273401
vn 0.002701631 0.9999574 -0.00882261
vn 0.7719939 0.6312562 0.07443822
vn 0.7768465 0.6294877 0.0159671
vn 0.7902851 0.6121121 -0.02771853
vn 0.008856278 0.9999517 -0.004261161
vn 0.7493352 0.6373687 -0.1796046
vn 0.7377586 0.6120574 -0.2847773
vn 0.002114183 0.9999861 0.004838118
vn 0.6803581 0.6377406 -0.3611093
vn 0.6126441 0.6191256 -0.4912745
vn 0.5884638 0.6544234 -0.4748056
vn -0.002068029 0.9997666 0.02150474
vn 0.5113108 0.6427048 -0.5705188
vn 0.4741078 0.6221242 -0.6230435
vn 0.2019242 0.9587478 -0.200073
vn 0.4043201 0.6555361 -0.6378069
vn 0.3045116 0.6223677 -0.7210624
vn 0.2996846 0.6529998 -0.6955432
vn 0.02895329 0.9929375 -0.1150511
vn 0.1767674 0.6496965 -0.7393562
vn 0.1105684 0.625189 -0.7726017
vn -0.03532531 0.981087 -0.1903167
vn 0.002110968 0.9442812 -0.3291329
vn 0.02184465 0.6473982 -0.7618387
g ENV_TerrainIslandLarge_0
f 3/3/3 2/2/2 1/1/1
f 1/1/1 4/4/4 3/3/3
f 2/2/2 5/5/5 1/1/1
f 5/5/5 2/2/2 6/6/6
f 2/2/2 7/7/7 6/6/6
f 1/1/1 5/5/5 8/8/8
f 5/5/5 6/6/6 8/8/8
f 1/1/1 8/8/8 9/9/9
f 1/1/1 9/9/9 10/10/10
f 10/10/10 4/4/4 1/1/1
f 11/11/11 4/4/4 10/10/10
f 11/11/11 10/10/10 9/9/9
f 12/12/12 4/4/4 11/11/11
f 6/6/6 13/13/13 8/8/8
f 13/13/13 9/9/9 8/8/8
f 6/6/6 7/7/7 14/14/14
f 6/6/6 14/14/14 13/13/13
f 15/15/15 12/12/12 11/11/11
f 16/16/16 12/12/12 15/15/15
f 14/14/14 7/7/7 17/17/17
f 17/17/17 7/7/7 18/18/18
f 14/14/14 19/19/19 13/13/13
f 17/17/17 19/19/19 14/14/14
f 17/17/17 18/18/18 20/20/20
f 17/17/17 20/20/20 19/19/19
f 18/18/18 21/21/21 20/20/20
f 11/11/11 22/22/22 15/15/15
f 11/11/11 9/9/9 22/22/22
f 9/9/9 23/23/23 22/22/22
f 24/24/24 16/16/16 15/15/15
f 15/15/15 22/22/22 24/24/24
f 25/25/25 16/16/16 24/24/24
f 25/25/25 24/24/24 22/22/22
f 25/25/25 22/22/22 23/23/23
f 26/26/26 16/16/16 25/25/25
f 26/26/26 25/25/25 27/27/27
f 25/25/25 23/23/23 27/27/27
f 28/28/28 26/26/26 27/27/27
f 21/21/21 29/29/29 20/20/20
f 21/21/21 30/30/30 29/29/29
f 31/31/31 23/23/23 9/9/9
f 32/32/32 31/31/31 9/9/9
f 33/33/33 31/31/31 32/32/32
f 32/32/32 9/9/9 13/13/13
f 13/13/13 19/19/19 32/32/32
f 20/20/20 34/34/34 19/19/19
f 19/19/19 34/34/34 32/32/32
f 20/20/20 29/29/29 34/34/34
f 33/33/33 32/32/32 34/34/34
f 29/29/29 33/33/33 34/34/34
f 35/35/35 28/28/28 27/27/27
f 36/36/36 28/28/28 35/35/35
f 29/29/29 30/30/30 37/37/37
f 29/29/29 37/37/37 33/33/33
f 37/37/37 30/30/30 38/38/38
f 37/37/37 38/38/38 33/33/33
f 30/30/30 39/39/39 38/38/38
f 39/39/39 40/40/40 38/38/38
f 39/39/39 41/41/41 40/40/40
f 38/38/38 42/42/42 33/33/33
f 40/40/40 42/42/42 38/38/38
f 40/40/40 41/41/41 43/43/43
f 41/41/41 44/44/44 43/43/43
f 45/45/45 33/33/33 42/42/42
f 45/45/45 31/31/31 33/33/33
f 40/40/40 46/46/46 42/42/42
f 43/43/43 46/46/46 40/40/40
f 46/46/46 45/45/45 42/42/42
f 43/43/43 44/44/44 47/47/47
f 43/43/43 48/48/48 46/46/46
f 43/43/43 47/47/47 48/48/48
f 47/47/47 44/44/44 49/49/49
f 49/49/49 48/48/48 47/47/47
f 49/49/49 44/44/44 50/50/50
f 48/48/48 51/51/51 46/46/46
f 51/51/51 45/45/45 46/46/46
f 49/49/49 51/51/51 48/48/48
f 49/49/49 50/50/50 52/52/52
f 49/49/49 52/52/52 51/51/51
f 50/50/50 53/53/53 52/52/52
f 54/54/54 45/45/45 51/51/51
f 52/52/52 54/54/54 51/51/51
f 54/54/54 31/31/31 45/45/45
f 52/52/52 53/53/53 55/55/55
f 55/55/55 54/54/54 52/52/52
f 55/55/55 53/53/53 56/56/56
f 55/55/55 57/57/57 54/54/54
f 55/55/55 56/56/56 58/58/58
f 58/58/58 57/57/57 55/55/55
f 58/58/58 56/56/56 59/59/59
f 58/58/58 59/59/59 57/57/57
f 59/59/59 56/56/56 60/60/60
f 61/61/61 54/54/54 57/57/57
f 61/61/61 31/31/31 54/54/54
f 59/59/59 62/62/62 57/57/57
f 59/59/59 60/60/60 62/62/62
f 62/62/62 61/61/61 57/57/57
f 63/63/63 62/62/62 60/60/60
f 62/62/62 63/63/63 61/61/61
f 64/64/64 63/63/63 60/60/60
f 63/63/63 65/65/65 61/61/61
f 65/65/65 31/31/31 61/61/61
f 63/63/63 64/64/64 66/66/66
f 65/65/65 63/63/63 66/66/66
f 66/66/66 64/64/64 67/67/67
f 68/68/68 31/31/31 65/65/65
f 65/65/65 66/66/66 68/68/68
f 66/66/66 67/67/67 69/69/69
f 68/68/68 66/66/66 69/69/69
f 67/67/67 70/70/70 69/69/69
f 69/69/69 70/70/70 71/71/71
f 69/69/69 71/71/71 68/68/68
f 72/72/72 31/31/31 68/68/68
f 31/31/31 72/72/72 23/23/23
f 71/71/71 70/70/70 73/73/73
f 73/73/73 70/70/70 74/74/74
f 71/71/71 75/75/75 68/68/68
f 71/71/71 73/73/73 75/75/75
f 75/75/75 72/72/72 68/68/68
f 73/73/73 74/74/74 76/76/76
f 73/73/73 76/76/76 75/75/75
f 76/76/76 72/72/72 75/75/75
f 76/76/76 74/74/74 77/77/77
f 76/76/76 78/78/78 72/72/72
f 76/76/76 77/77/77 78/78/78
f 23/23/23 72/72/72 79/79/79
f 78/78/78 79/79/79 72/72/72
f 78/78/78 77/77/77 80/80/80
f 78/78/78 80/80/80 79/79/79
f 77/77/77 81/81/81 80/80/80
f 82/82/82 23/23/23 79/79/79
f 27/27/27 23/23/23 82/82/82
f 35/35/35 27/27/27 82/82/82
f 83/83/83 82/82/82 79/79/79
f 80/80/80 83/83/83 79/79/79
f 35/35/35 82/82/82 83/83/83
f 80/80/80 81/81/81 84/84/84
f 80/80/80 84/84/84 83/83/83
f 35/35/35 83/83/83 84/84/84
f 81/81/81 36/36/36 84/84/84
f 84/84/84 36/36/36 35/35/35
