g ENV_thinPlatform_Col
v -4.979278 0.6162902 -13.63968
v 4.979278 0.6162902 17.56144
v -4.979278 0.6162902 17.56144
v 4.979278 0.6162902 -13.63932
v -4.809726 0.6162902 -14.67491
v -4.330756 0.6162902 -15.57061
v -3.515392 0.6162902 -16.40097
v -2.471343 0.6162902 -17.03141
v -1.329747 0.6162902 -17.39911
v -0.005001831 0.6162902 -17.54322
v 1.326517 0.6162902 -17.39961
v 2.46566 0.6162902 -17.04248
v 3.52138 0.6162902 -16.40172
v 4.794927 0.6162902 -14.66738
v 4.336356 0.6162902 -15.57282
v 4.997476 -0.5588941 -13.6406
v -4.997476 -0.5588941 -13.6406
v -4.997476 -0.5588941 17.56144
v 4.997476 -0.5588941 17.56144
v 4.81233 -0.5588941 -14.67292
v -4.997476 -0.5588941 -13.6406
v 4.997476 -0.5588941 -13.6406
v 4.35118 -0.5588941 -15.5835
v 3.532678 -0.5588941 -16.41605
v 2.473082 -0.5588941 -17.05915
v 1.33027 -0.5588941 -17.41744
v -0.005083618 -0.5588941 -17.56144
v -1.333658 -0.5588941 -17.4169
v -2.47872 -0.5588941 -17.04808
v -3.526669 -0.5588941 -16.4153
v -4.345567 -0.5588941 -15.58128
v -4.826988 -0.5588941 -14.68098
v 4.979278 0.6162902 -13.63932
v 4.997476 -0.5588941 -13.6406
v 4.997476 -0.5588941 17.56144
v 4.979278 0.6162902 17.56144
v 4.979278 0.6162902 -13.63932
v 4.81233 -0.5588941 -14.67292
v 4.997476 -0.5588941 -13.6406
v 4.794927 0.6162902 -14.66738
v 4.35118 -0.5588941 -15.5835
v 4.336356 0.6162902 -15.57282
v 3.532678 -0.5588941 -16.41605
v 3.52138 0.6162902 -16.40172
v 2.473082 -0.5588941 -17.05915
v 2.46566 0.6162902 -17.04248
v 1.33027 -0.5588941 -17.41744
v 1.326517 0.6162902 -17.39961
v -0.005083618 -0.5588941 -17.56144
v -0.005001831 0.6162902 -17.54322
v -1.333658 -0.5588941 -17.4169
v -1.329747 0.6162902 -17.39911
v -2.47872 -0.5588941 -17.04808
v -2.471343 0.6162902 -17.03141
v -3.526669 -0.5588941 -16.4153
v -3.515392 0.6162902 -16.40097
v -4.345567 -0.5588941 -15.58128
v -4.330756 0.6162902 -15.57061
v -4.826988 -0.5588941 -14.68098
v -4.809726 0.6162902 -14.67491
v -4.997476 -0.5588941 -13.6406
v -4.979278 0.6162902 -13.63968
v -4.979278 0.6162902 17.56144
v -4.997476 -0.5588941 17.56144
v -4.997476 -0.5588941 -13.6406
v -4.979278 0.6162902 -13.63968
v -4.997476 -0.5588941 17.56144
v -4.979278 0.6162902 17.56144
v 4.979278 0.6162902 17.56144
v 4.997476 -0.5588941 17.56144
vt -0.1157417 -0.3330877
vt -0.2444246 -0.3333501
vt -0.1157486 1.333202
vt 0.01010954 -0.3333502
vt 0.01010954 0.3332353
vt 0.01010954 0.2792199
vt 0.01010954 0.2208858
vt 0.01010954 0.1599123
vt 0.01010954 0.0973177
vt 0.01010954 0.0279513
vt 0.01010954 -0.04180938
vt 0.01010954 -0.1041613
vt 0.01010954 -0.165993
vt 0.01010954 -0.2778183
vt 0.01010954 -0.2237211
vt -0.1812918 1.333089
vt 0.07374823 0.3892142
vt -0.05258143 1.333202
vt -0.1812528 -0.3333479
vt 0.07374823 -0.2778183
vt 0.07374823 0.3892142
vt -0.1812918 1.333089
vt 0.07374823 -0.2237211
vt 0.07374823 -0.165993
vt 0.07374823 -0.1041613
vt 0.07374823 -0.04180938
vt 0.07374823 0.0279513
vt 0.07374823 0.0973177
vt 0.07374823 0.1599123
vt 0.07374823 0.2208858
vt 0.07374823 0.2792199
vt 0.07374823 0.3332353
vt -0.2444261 1.333029
vt -0.1812918 1.333089
vt -0.1812528 -0.3333479
vt -0.2444246 -0.3333501
vt 0.01010954 -0.3333502
vt 0.07374823 -0.2778183
vt 0.07374823 -0.3333502
vt 0.01010954 -0.2778183
vt 0.07374823 -0.2237211
vt 0.01010954 -0.2237211
vt 0.07374823 -0.165993
vt 0.01010954 -0.165993
vt 0.07374823 -0.1041613
vt 0.01010954 -0.1041613
vt 0.07374823 -0.04180938
vt 0.01010954 -0.04180938
vt 0.07374823 0.0279513
vt 0.01010954 0.0279513
vt 0.07374823 0.0973177
vt 0.01010954 0.0973177
vt 0.07374823 0.1599123
vt 0.01010954 0.1599123
vt 0.07374823 0.2208858
vt 0.01010954 0.2208858
vt 0.07374823 0.2792199
vt 0.01010954 0.2792199
vt 0.07374823 0.3332353
vt 0.01010954 0.3332353
vt 0.07374823 0.3892142
vt 0.01010954 0.3892142
vt -0.1157486 1.333202
vt -0.05258143 1.333202
vt -0.05259383 -0.3331316
vt -0.1157417 -0.3330877
vt 0.01524936 0.01524929
vt 1 0
vt 0 1
vt 4.475062E-07 0.9694766
vn 0 1 0
vn 0 1 0
vn 0 1 0
vn 0 1 0
vn 0 1 0
vn 0 1 0
vn 0 1 0
vn 0 1 0
vn 0 1 0
vn 0 1 0
vn 0 1 0
vn 0 1 0
vn 0 1 0
vn 0 1 0
vn 0 1 0
vn 0 -1 0
vn 0 -1 0
vn 0 -1 0
vn 0 -1 0
vn 0 -1 0
vn 0 -1 0
vn 0 -1 0
vn 0 -1 0
vn 0 -1 0
vn 0 -1 0
vn 0 -1 0
vn 0 -1 0
vn 0 -1 0
vn 0 -1 0
vn 0 -1 0
vn 0 -1 0
vn 0 -1 1.405657E-07
vn 0.9998636 0.01548913 -0.005733178
vn 0.9998636 0.01548912 -0.005729071
vn 0.9998801 0.01548358 0
vn 0.9998801 0.01548358 0
vn 0.9998636 0.01548913 -0.005733178
vn 0.9487894 0.0155482 -0.3155267
vn 0.9998636 0.01548912 -0.005729071
vn 0.9487757 0.01554818 -0.3155678
vn 0.8059689 0.01555072 -0.5917535
vn 0.8059714 0.01555072 -0.59175
vn 0.6177233 0.01551492 -0.7862425
vn 0.6177278 0.01551492 -0.7862389
vn 0.4138348 0.01552858 -0.9102196
vn 0.413847 0.01552858 -0.910214
vn 0.1986201 0.0154956 -0.9799541
vn 0.1986166 0.0154956 -0.9799548
vn -0.0001981853 0.01550641 -0.9998797
vn -0.0001896302 0.01550641 -0.9998797
vn -0.2031795 0.0154996 -0.9790188
vn -0.203167 0.0154996 -0.9790214
vn -0.4153684 0.01551216 -0.9095209
vn -0.4153907 0.01551216 -0.9095109
vn -0.6177214 0.01550498 -0.7862441
vn -0.6177258 0.01550498 -0.7862406
vn -0.7999815 0.01553801 -0.5998235
vn -0.7999662 0.01553801 -0.599844
vn -0.9478331 0.01558839 -0.3183857
vn -0.9478449 0.01558838 -0.3183508
vn -0.9998662 0.01548652 -0.005269878
vn -0.9998661 0.01548652 -0.005276059
vn -0.9998801 0.01548388 0
vn -0.9998801 0.01548388 0
vn -0.9998662 0.01548652 -0.005269878
vn -0.9998661 0.01548652 -0.005276059
vn 0 0 1
vn 0 0 1
vn 0 0 1
vn 0 0 1
g ENV_thinPlatform_Col_0
f 3/3/3 2/2/2 1/1/1
f 2/2/2 4/4/4 1/1/1
f 1/1/1 4/4/4 5/5/5
f 4/4/4 6/6/6 5/5/5
f 6/6/6 4/4/4 7/7/7
f 4/4/4 8/8/8 7/7/7
f 8/8/8 4/4/4 9/9/9
f 4/4/4 10/10/10 9/9/9
f 10/10/10 4/4/4 11/11/11
f 4/4/4 12/12/12 11/11/11
f 12/12/12 4/4/4 13/13/13
f 4/4/4 14/14/14 13/13/13
f 15/15/15 13/13/13 14/14/14
g ENV_thinPlatform_Col_1
f 18/18/18 17/17/17 16/16/16
f 19/19/19 18/18/18 16/16/16
f 22/22/22 21/21/21 20/20/20
f 21/21/21 23/23/23 20/20/20
f 23/23/23 21/21/21 24/24/24
f 21/21/21 25/25/25 24/24/24
f 25/25/25 21/21/21 26/26/26
f 21/21/21 27/27/27 26/26/26
f 27/27/27 21/21/21 28/28/28
f 21/21/21 29/29/29 28/28/28
f 29/29/29 21/21/21 30/30/30
f 21/21/21 31/31/31 30/30/30
f 21/21/21 32/32/32 31/31/31
f 35/35/35 34/34/34 33/33/33
f 36/36/36 35/35/35 33/33/33
f 39/39/39 38/38/38 37/37/37
f 38/38/38 40/40/40 37/37/37
f 38/38/38 41/41/41 40/40/40
f 41/41/41 42/42/42 40/40/40
f 41/41/41 43/43/43 42/42/42
f 43/43/43 44/44/44 42/42/42
f 43/43/43 45/45/45 44/44/44
f 45/45/45 46/46/46 44/44/44
f 45/45/45 47/47/47 46/46/46
f 47/47/47 48/48/48 46/46/46
f 47/47/47 49/49/49 48/48/48
f 49/49/49 50/50/50 48/48/48
f 49/49/49 51/51/51 50/50/50
f 51/51/51 52/52/52 50/50/50
f 51/51/51 53/53/53 52/52/52
f 53/53/53 54/54/54 52/52/52
f 53/53/53 55/55/55 54/54/54
f 55/55/55 56/56/56 54/54/54
f 55/55/55 57/57/57 56/56/56
f 57/57/57 58/58/58 56/56/56
f 57/57/57 59/59/59 58/58/58
f 59/59/59 60/60/60 58/58/58
f 59/59/59 61/61/61 60/60/60
f 61/61/61 62/62/62 60/60/60
f 65/65/65 64/64/64 63/63/63
f 66/66/66 65/65/65 63/63/63
g ENV_thinPlatform_Col_2
f 69/69/69 68/68/68 67/67/67
f 70/70/70 69/69/69 67/67/67
