g ENV_BLO_Wall_7
v -6.936191 0.02914135 0.8955526
v -6.923261 0.04207151 0.9529759
v -6.865837 0.02914135 0.965906
v -6.865837 0 0.8955526
v -6.936191 0.02914135 -0.8955526
v 6.865837 0 0.8955526
v 6.865837 0.02914135 0.965906
v -6.865837 0 -0.8955526
v 6.936191 0.02914135 0.8955526
v 6.923261 0.04207151 0.9529759
v -6.865837 0.02914135 -0.965906
v -6.923261 0.04207151 -0.9529759
v 6.865837 0.02914135 -0.965906
v 6.865837 0 -0.8955526
v 6.936191 0.02914135 -0.8955526
v 6.923261 0.04207151 -0.9529759
v 6.936191 0.09949479 -0.965906
v 6.936191 0.09949479 0.965906
v 6.865837 0.02914135 0.965906
v 6.965332 0.09949479 -0.8955526
v 6.936191 3.895991 -0.965906
v 6.965332 0.09949479 0.8955526
v 6.965332 3.895991 0.8955526
v 6.965332 3.895991 -0.8955526
v 6.936191 3.966344 -0.8955526
v 6.923261 3.953414 -0.9529759
v 6.865837 3.966344 -0.965906
v 6.936191 3.966344 0.8955526
v 6.936191 3.895991 0.965906
v 6.865837 0.09949479 0.9950474
v -6.865837 0.09949479 0.9950474
v -6.865837 0.02914135 0.965906
v 6.865837 3.895991 0.9950474
v -6.936191 0.09949479 0.965906
v -6.923261 0.04207151 0.9529759
v -6.865837 3.895991 0.9950474
v -6.936191 0.02914135 0.8955526
v 6.865837 3.966344 0.965906
v 6.923261 3.953414 0.9529759
v -6.865837 3.966344 0.965906
v 6.865837 3.966344 0.965906
v -6.936191 3.895991 0.965906
v -6.923261 3.953414 0.9529759
v -6.936191 3.966344 0.8955526
v -6.965332 0.09949479 0.8955526
v -6.965332 3.895991 0.8955526
v -6.936191 3.966344 -0.8955526
v -6.965332 0.09949479 -0.8955526
v -6.936191 0.02914135 -0.8955526
v 6.865837 3.995486 0.8955526
v -6.965332 3.895991 -0.8955526
v -6.936191 0.09949479 -0.965906
v -6.923261 0.04207151 -0.9529759
v -6.865837 0.02914135 -0.965906
v -6.936191 3.895991 -0.965906
v -6.923261 3.953414 -0.9529759
v -6.865837 3.966344 -0.965906
v -6.865837 3.995486 0.8955526
v -6.865837 3.966344 0.965906
v -6.865837 0.09949479 -0.9950474
v -6.865837 3.895991 -0.9950474
v 6.865837 0.09949479 -0.9950474
v 6.865837 3.966344 -0.965906
v 6.865837 0.02914135 -0.965906
v 6.865837 3.895991 -0.9950474
v 6.936191 0.09949479 -0.965906
v 6.923261 0.04207151 -0.9529759
v 6.936191 3.895991 -0.965906
v 6.923261 3.953414 -0.9529759
v -6.923261 3.953414 0.9529759
v -6.936191 3.966344 0.8955526
v -6.865837 3.995486 -0.8955526
v -6.936191 3.966344 -0.8955526
v 6.865837 3.995486 -0.8955526
v -6.865837 3.966344 -0.965906
v -6.923261 3.953414 -0.9529759
vt 0.5594333 0.4112835
vt 0.558856 0.4113941
vt 0.55875 0.4119709
vt 0.5594378 0.411971
vt 0.5756222 0.4112705
vt 0.5595297 0.5360078
vt 0.5588408 0.5360093
vt 0.5756195 0.4119583
vt 0.5595297 0.536683
vt 0.5588873 0.5367075
vt 0.5763074 0.4119574
vt 0.5762056 0.4113787
vt 0.5764177 0.5360222
vt 0.575729 0.5360217
vt 0.5757346 0.5367133
vt 0.5763203 0.536712
vt 0.5764364 0.5374042
vt 0.5588474 0.5373433
vt 0.5581598 0.5366363
vt 0.5757411 0.5374044
vt 0.5762257 0.5719641
vt 0.5595349 0.5373557
vt 0.5595338 0.5718728
vt 0.575531 0.5719551
vt 0.5754995 0.5726401
vt 0.5760781 0.572657
vt 0.5761428 0.5733314
vt 0.5595405 0.572531
vt 0.558849 0.5718869
vt 0.5581582 0.5373328
vt 0.4327606 0.5371891
vt 0.4327677 0.5364934
vt 0.5581621 0.5718994
vt 0.4320381 0.5371674
vt 0.432751 0.5360085
vt 0.4327145 0.5721743
vt 0.4318649 0.5335041
vt 0.5581649 0.572596
vt 0.5589032 0.5725161
vt 0.4327152 0.5728706
vt 0.5588787 0.5731818
vt 0.4320121 0.5721968
vt 0.4320328 0.5727885
vt 0.4313352 0.5729383
vt 0.4312831 0.5371705
vt 0.4313084 0.5722203
vt 0.4144982 0.573365
vt 0.4133995 0.5369859
vt 0.4132807 0.5361955
vt 0.559553 0.5731898
vt 0.4144879 0.5726451
vt 0.4126841 0.5370122
vt 0.4126265 0.5364092
vt 0.411949 0.5363233
vt 0.4137774 0.572663
vt 0.4137904 0.5732642
vt 0.4130903 0.5733964
vt 0.5582282 0.6945646
vt 0.5575547 0.6945575
vt 0.4119706 0.5370378
vt 0.4130667 0.572682
vt 0.2831717 0.5410761
vt 0.2843121 0.5774204
vt 0.2831489 0.5403616
vt 0.2842903 0.5767061
vt 0.2824571 0.541096
vt 0.2825518 0.5404881
vt 0.2835762 0.5767311
vt 0.2837086 0.577333
vt 0.5576506 0.6951183
vt 0.5582165 0.6952368
vt 0.5740623 0.6947416
vt 0.5740584 0.6954144
vt 0.5754685 0.5733245
vt 0.5747358 0.69475
vt 0.5746285 0.6953106
vn -0.7070675 -0.707067 0.01057064
vn -0.5773472 -0.5773513 0.5773523
vn -0.00141313 -0.7071061 0.7071059
vn -0.002083641 -0.9998758 0.01562637
vn -0.7070675 -0.7070671 -0.01057061
vn 0.002083641 -0.9998758 0.01562637
vn 0.001413128 -0.7071061 0.7071059
vn -0.002083641 -0.9998758 -0.01562637
vn 0.7070675 -0.7070671 0.01057061
vn 0.5773465 -0.5773523 0.577352
vn -0.001413128 -0.7071061 -0.7071059
vn -0.5773465 -0.5773523 -0.577352
vn 0.00141313 -0.7071061 -0.7071059
vn 0.002083641 -0.9998758 -0.01562637
vn 0.7070675 -0.707067 -0.01057064
vn 0.5773472 -0.5773513 -0.5773523
vn 0.7070971 -0.005061793 -0.7070982
vn 0.7070972 -0.005061812 0.7070982
vn 0.001413128 -0.7071061 0.7071059
vn 0.9998513 -0.007437743 -0.01555666
vn 0.7070972 0.005061813 -0.7070982
vn 0.9998513 -0.007437745 0.01555666
vn 0.9998513 0.007437744 0.01555666
vn 0.9998513 0.007437745 -0.01555666
vn 0.7070671 0.7070673 -0.01057069
vn 0.5773459 0.577352 -0.5773529
vn 0.001413132 0.7071071 -0.707105
vn 0.7070672 0.7070673 0.01057071
vn 0.7070972 0.005061793 0.7070982
vn 0.00209809 -0.007522876 0.9999695
vn -0.00209809 -0.007522876 0.9999695
vn -0.00141313 -0.7071061 0.7071059
vn 0.00209809 0.007522876 0.9999695
vn -0.7070971 -0.005061793 0.7070982
vn -0.5773472 -0.5773513 0.5773523
vn -0.00209809 0.007522876 0.9999695
vn -0.7070675 -0.707067 0.01057064
vn 0.001413135 0.7071071 0.707105
vn 0.5773467 0.5773512 0.5773528
vn -0.001413132 0.7071071 0.707105
vn 0.001413135 0.7071071 0.707105
vn -0.7070972 0.005061813 0.7070982
vn -0.5773459 0.577352 0.5773529
vn -0.7070671 0.7070673 0.01057069
vn -0.9998513 -0.007437743 0.01555666
vn -0.9998513 0.007437745 0.01555666
vn -0.7070672 0.7070673 -0.01057071
vn -0.9998513 -0.007437745 -0.01555666
vn -0.7070675 -0.7070671 -0.01057061
vn 0.002083647 0.9998758 0.01562631
vn -0.9998513 0.007437744 -0.01555666
vn -0.7070972 -0.005061812 -0.7070982
vn -0.5773465 -0.5773523 -0.577352
vn -0.001413128 -0.7071061 -0.7071059
vn -0.7070972 0.005061793 -0.7070982
vn -0.5773467 0.5773512 -0.5773528
vn -0.001413135 0.7071071 -0.707105
vn -0.002083647 0.9998758 0.01562631
vn -0.001413132 0.7071071 0.707105
vn -0.00209809 -0.007522876 -0.9999695
vn -0.00209809 0.007522876 -0.9999695
vn 0.00209809 -0.007522876 -0.9999695
vn 0.001413132 0.7071071 -0.707105
vn 0.00141313 -0.7071061 -0.7071059
vn 0.00209809 0.007522876 -0.9999695
vn 0.7070971 -0.005061793 -0.7070982
vn 0.5773472 -0.5773513 -0.5773523
vn 0.7070972 0.005061813 -0.7070982
vn 0.5773459 0.577352 -0.5773529
vn -0.5773459 0.577352 0.5773529
vn -0.7070671 0.7070673 0.01057069
vn -0.002083647 0.9998758 -0.01562631
vn -0.7070672 0.7070673 -0.01057071
vn 0.002083647 0.9998758 -0.01562631
vn -0.001413135 0.7071071 -0.707105
vn -0.5773467 0.5773512 -0.5773528
g ENV_BLO_Wall_7_0
f 3/3/3 2/2/2 1/1/1
f 4/4/4 3/3/3 1/1/1
f 1/1/1 5/5/5 4/4/4
f 4/4/4 6/6/6 3/3/3
f 6/6/6 7/7/7 3/3/3
f 5/5/5 8/8/8 4/4/4
f 6/6/6 4/4/4 8/8/8
f 6/6/6 9/9/9 7/7/7
f 9/9/9 10/10/10 7/7/7
f 8/8/8 5/5/5 11/11/11
f 5/5/5 12/12/12 11/11/11
f 11/11/11 13/13/13 8/8/8
f 14/14/14 6/6/6 8/8/8
f 13/13/13 14/14/14 8/8/8
f 6/6/6 14/14/14 9/9/9
f 14/14/14 13/13/13 15/15/15
f 14/14/14 15/15/15 9/9/9
f 13/13/13 16/16/16 15/15/15
f 15/15/15 16/16/16 17/17/17
f 18/18/18 10/10/10 9/9/9
f 19/19/19 10/10/10 18/18/18
f 20/20/20 15/15/15 17/17/17
f 17/17/17 21/21/21 20/20/20
f 9/9/9 15/15/15 22/22/22
f 22/22/22 18/18/18 9/9/9
f 15/15/15 20/20/20 22/22/22
f 23/23/23 22/22/22 20/20/20
f 22/22/22 23/23/23 18/18/18
f 21/21/21 24/24/24 20/20/20
f 24/24/24 23/23/23 20/20/20
f 24/24/24 21/21/21 25/25/25
f 21/21/21 26/26/26 25/25/25
f 25/25/25 26/26/26 27/27/27
f 23/23/23 24/24/24 28/28/28
f 24/24/24 25/25/25 28/28/28
f 23/23/23 29/29/29 18/18/18
f 23/23/23 28/28/28 29/29/29
f 30/30/30 19/19/19 18/18/18
f 18/18/18 29/29/29 30/30/30
f 19/19/19 30/30/30 31/31/31
f 32/32/32 19/19/19 31/31/31
f 29/29/29 33/33/33 30/30/30
f 31/31/31 34/34/34 32/32/32
f 34/34/34 35/35/35 32/32/32
f 31/31/31 36/36/36 34/34/34
f 37/37/37 35/35/35 34/34/34
f 33/33/33 29/29/29 38/38/38
f 29/29/29 39/39/39 38/38/38
f 28/28/28 39/39/39 29/29/29
f 33/33/33 38/38/38 40/40/40
f 36/36/36 33/33/33 40/40/40
f 41/41/41 39/39/39 28/28/28
f 36/36/36 40/40/40 42/42/42
f 36/36/36 42/42/42 34/34/34
f 40/40/40 43/43/43 42/42/42
f 42/42/42 43/43/43 44/44/44
f 45/45/45 37/37/37 34/34/34
f 34/34/34 42/42/42 45/45/45
f 46/46/46 42/42/42 44/44/44
f 42/42/42 46/46/46 45/45/45
f 44/44/44 47/47/47 46/46/46
f 45/45/45 48/48/48 37/37/37
f 45/45/45 46/46/46 48/48/48
f 48/48/48 49/49/49 37/37/37
f 50/50/50 41/41/41 28/28/28
f 28/28/28 25/25/25 50/50/50
f 47/47/47 51/51/51 46/46/46
f 46/46/46 51/51/51 48/48/48
f 48/48/48 52/52/52 49/49/49
f 48/48/48 51/51/51 52/52/52
f 52/52/52 53/53/53 49/49/49
f 54/54/54 53/53/53 52/52/52
f 51/51/51 47/47/47 55/55/55
f 51/51/51 55/55/55 52/52/52
f 47/47/47 56/56/56 55/55/55
f 55/55/55 56/56/56 57/57/57
f 41/41/41 50/50/50 58/58/58
f 59/59/59 41/41/41 58/58/58
f 60/60/60 54/54/54 52/52/52
f 52/52/52 55/55/55 60/60/60
f 61/61/61 55/55/55 57/57/57
f 55/55/55 61/61/61 60/60/60
f 60/60/60 62/62/62 54/54/54
f 57/57/57 63/63/63 61/61/61
f 62/62/62 64/64/64 54/54/54
f 63/63/63 65/65/65 61/61/61
f 62/62/62 66/66/66 64/64/64
f 62/62/62 65/65/65 66/66/66
f 66/66/66 67/67/67 64/64/64
f 65/65/65 68/68/68 66/66/66
f 65/65/65 63/63/63 68/68/68
f 63/63/63 69/69/69 68/68/68
f 71/71/71 70/70/70 59/59/59
f 58/58/58 71/71/71 59/59/59
f 58/58/58 72/72/72 71/71/71
f 72/72/72 73/73/73 71/71/71
f 74/74/74 72/72/72 58/58/58
f 50/50/50 74/74/74 58/58/58
f 25/25/25 74/74/74 50/50/50
f 74/74/74 25/25/25 27/27/27
f 74/74/74 27/27/27 75/75/75
f 72/72/72 74/74/74 75/75/75
f 72/72/72 75/75/75 73/73/73
f 75/75/75 76/76/76 73/73/73
g ENV_BLO_Wall_7_1
f 61/61/61 65/65/65 62/62/62
f 60/60/60 61/61/61 62/62/62
f 36/36/36 31/31/31 30/30/30
f 33/33/33 36/36/36 30/30/30
