g ENV_egg_MO
v 0.5794397 0.1125294 0.0007679558
v 0.5942544 0 0.0007679558
v 0.5794397 0.09745339 0.05703268
v 0.5382808 0.2184215 0.0007679558
v 0.5382807 0.1891585 0.1099787
v 0.4717509 0.3110603 0.0007679558
v 0.4717509 0.2693861 0.1562981
v 0.3775528 0.3836634 0.0007679558
v 0.3775528 0.3322622 0.1925996
v 0.2440369 0.4309643 0.0007679558
v 0.2440369 0.373226 0.2162501
v 0.05628208 0.4480882 0.0007679558
v 0.05628208 0.3880557 0.224812
v -0.1189726 0.4248715 0.0007679558
v -0.1189726 0.3679494 0.2132037
v -0.2715184 0.3747726 0.0007679558
v -0.2715184 0.3245625 0.1881543
v -0.3965719 0.3010639 0.0007679558
v -0.3965719 0.260729 0.1512999
v -0.492635 0.2095752 0.0007679558
v -0.492635 0.1814974 0.1055555
v -0.5583881 0.1076049 0.0007679558
v -0.5583881 0.09318855 0.05457039
v -0.5942544 0 0.0007679558
v -0.5583881 0.09318855 -0.05303448
v -0.492635 0.1814974 -0.1040196
v -0.3965719 0.260729 -0.149764
v -0.2715184 0.3245625 -0.1866183
v -0.5583881 0.05380245 -0.09242059
v -0.492635 0.1047876 -0.1807295
v -0.5583881 0 -0.1068369
v -0.3965719 0.1505319 -0.259961
v -0.1189726 0.3679494 -0.2116678
v -0.5583881 -0.05380245 -0.09242059
v -0.5583881 -0.09318855 -0.05303448
v -0.492635 0 -0.2088072
v -0.492635 -0.1047876 -0.1807295
v -0.492635 -0.1814974 -0.1040196
v -0.2715184 0.1873863 -0.3237946
v -0.3965718 0 -0.3002959
v 0.05628208 0.3880557 -0.2232761
v -0.3965719 -0.1505319 -0.259961
v -0.2715184 0 -0.3740047
v -0.1189726 0.2124357 -0.3671815
v 0.2440369 0.373226 -0.2147142
v 0.0562821 0.2240441 -0.3872878
v -0.1189726 0 -0.4241035
v -0.2715184 -0.1873863 -0.3237946
v 0.3775528 0.3322622 -0.1910637
v 0.2440369 0.2154822 -0.3724581
v 0.0562821 0 -0.4473203
v 0.4717509 0.2693861 -0.1547622
v 0.3775528 0.1918317 -0.3314943
v 0.5382808 0.1891585 -0.1084428
v -0.3965719 -0.260729 -0.149764
v -0.1189726 -0.2124357 -0.3671815
v 0.2440369 0 -0.4301964
v 0.4717509 0.1555302 -0.2686182
v 0.5794397 0.09745339 -0.05549677
v 0.5942544 0 0.0007679558
v 0.5382807 0.1092107 -0.1883906
v 0.3775528 0 -0.3828954
v 0.0562821 -0.2240441 -0.3872878
v -0.2715184 -0.3245625 -0.1866183
v 0.5794397 0.05626472 -0.09668539
v 0.4717509 0 -0.3102924
v 0.2440369 -0.2154822 -0.3724581
v -0.1189726 -0.3679494 -0.2116678
v 0.5382808 0 -0.2176536
v 0.5794397 0 -0.1117615
v 0.3775528 -0.1918317 -0.3314943
v 0.05628208 -0.3880557 -0.2232761
v 0.5794397 -0.05626472 -0.09668539
v 0.5794397 -0.09745339 -0.05549677
v 0.5382808 -0.1891586 -0.1084428
v 0.5382807 -0.1092108 -0.1883906
v 0.4717509 -0.1555302 -0.2686182
v 0.2440369 -0.373226 -0.2147142
v 0.4717509 -0.2693861 -0.1547622
v 0.3775528 -0.3322622 -0.1910637
v 0.05628208 -0.4480882 0.0007679558
v 0.2440369 -0.4309643 0.0007679558
v 0.3775528 -0.3836634 0.0007679558
v 0.4717509 -0.3110603 0.0007679558
v -0.1189726 -0.4248714 0.0007679558
v 0.5382807 -0.2184215 0.0007679558
v 0.5794397 -0.09745339 -0.05549677
v -0.2715184 -0.3747726 0.0007679558
v 0.5794397 -0.1125294 0.0007679558
v 0.5942544 0 0.0007679558
v -0.3965719 -0.3010639 0.0007679558
v -0.492635 -0.2095752 0.0007679558
v -0.5583881 -0.1076049 0.0007679558
v -0.5583881 -0.09318855 -0.05303448
v -0.5942544 0 0.0007679558
v -0.5583881 -0.09318855 0.05457039
v -0.492635 -0.1814974 0.1055555
v -0.3965719 -0.260729 0.1512999
v -0.5583881 -0.05380245 0.0939565
v -0.492635 -0.1047876 0.1822654
v -0.2715184 -0.3245625 0.1881543
v -0.5583881 0 0.1083728
v -0.3965718 -0.1505319 0.2614969
v -0.1189726 -0.3679494 0.2132037
v -0.5583881 0.05380245 0.0939565
v -0.5583881 0.09318855 0.05457039
v -0.492635 0 0.2103432
v -0.492635 0.1047876 0.1822654
v -0.492635 0.1814974 0.1055555
v -0.2715184 -0.1873863 0.3253305
v -0.3965719 0 0.3018318
v -0.3965718 0.1505319 0.2614969
v -0.3965719 0.260729 0.1512999
v -0.2715184 0 0.3755405
v -0.2715184 0.1873863 0.3253305
v -0.2715184 0.3245625 0.1881543
v -0.1189726 -0.2124357 0.3687174
v -0.1189726 0.2124357 0.3687174
v -0.1189726 0.3679494 0.2132037
v -0.1189726 0 0.4256394
v 0.05628208 -0.3880557 0.224812
v 0.0562821 0.2240441 0.3888237
v 0.05628208 0.3880557 0.224812
v 0.0562821 0 0.4488561
v 0.0562821 -0.2240441 0.3888237
v 0.2440369 -0.373226 0.2162501
v 0.2440369 0.2154821 0.373994
v 0.2440369 0.373226 0.2162501
v 0.2440369 0 0.4317323
v 0.2440369 -0.2154822 0.373994
v 0.3775528 -0.3322622 0.1925996
v 0.3775528 0.1918317 0.3330302
v 0.3775528 0.3322622 0.1925996
v 0.3775528 0 0.3844313
v 0.3775528 -0.1918317 0.3330302
v 0.4717509 -0.2693861 0.1562981
v 0.4717509 0.1555302 0.2701541
v 0.4717509 0.2693861 0.1562981
v 0.4717509 0 0.3118283
v 0.4717509 -0.1555302 0.2701541
v 0.5382807 -0.1891586 0.1099787
v 0.5382808 0.1092107 0.1899265
v 0.5382807 0.1891585 0.1099787
v 0.5382807 0 0.2191895
v 0.5382808 -0.1092108 0.1899265
v 0.5794397 -0.09745339 0.05703268
v 0.5794397 -0.05626472 0.09822132
v 0.5794397 0 0.1132974
v 0.5794397 0.05626472 0.09822132
v 0.5794397 0.09745339 0.05703268
vt 0.4551851 0.9050969
vt 0.3840885 0.8768411
vt 0.4490599 0.9317398
vt 0.5224487 0.9175572
vt 0.5208283 0.9686989
vt 0.5867464 0.9165282
vt 0.5973 0.9867268
vt 0.6498764 0.9030291
vt 0.6773486 0.9849025
vt 0.7190358 0.872866
vt 0.7669665 0.957409
vt 0.7988594 0.8131237
vt 0.868327 0.8882203
vt 0.8581615 0.7405866
vt 0.9390071 0.7963932
vt 0.8965923 0.6634346
vt 0.9774985 0.6972585
vt 0.916457 0.5862643
vt 0.9867751 0.6001202
vt 0.920112 0.5109906
vt 0.9712537 0.5105783
vt 0.9091146 0.4394979
vt 0.93556 0.4334685
vt 0.8832911 0.3714519
vt 0.8802541 0.4323048
vt 0.8709351 0.4926341
vt 0.8537449 0.555108
vt 0.8265401 0.6186932
vt 0.8524618 0.4146438
vt 0.8255614 0.4605588
vt 0.8285691 0.3893552
vt 0.7976767 0.5124094
vt 0.787149 0.6827261
vt 0.8118459 0.3598232
vt 0.808152 0.3320376
vt 0.784623 0.4177042
vt 0.7467396 0.3651851
vt 0.7046739 0.3010714
vt 0.7641385 0.5670664
vt 0.7474847 0.4617849
vt 0.7336103 0.7447684
vt 0.7014292 0.4061044
vt 0.7078656 0.5113923
vt 0.7223142 0.6237138
vt 0.6660081 0.800033
vt 0.6704366 0.6807911
vt 0.6623714 0.5647176
vt 0.6560936 0.454124
vt 0.6088457 0.8328898
vt 0.6087793 0.7351773
vt 0.6093091 0.6205439
vt 0.5569969 0.853948
vt 0.5586025 0.771255
vt 0.5038902 0.8676832
vt 0.6550748 0.3492369
vt 0.6064638 0.5067982
vt 0.549225 0.676617
vt 0.5144457 0.7982826
vt 0.4471004 0.8751206
vt 0.3840885 0.8768411
vt 0.4708505 0.8214737
vt 0.502206 0.7165022
vt 0.5508599 0.5634722
vt 0.6055158 0.3980784
vt 0.4276107 0.8460892
vt 0.4625246 0.748816
vt 0.489819 0.6225952
vt 0.5526499 0.4506561
vt 0.4261334 0.7796913
vt 0.4000104 0.8212578
vt 0.4429775 0.6665695
vt 0.4951453 0.5080461
vt 0.3679931 0.8033744
vt 0.3358554 0.7981437
vt 0.302337 0.6981119
vt 0.370547 0.7411919
vt 0.4039987 0.7037367
vt 0.4333921 0.5695387
vt 0.3449634 0.6568882
vt 0.3860486 0.6165246
vt 0.440387 0.4515607
vt 0.3810278 0.512314
vt 0.3366227 0.5587396
vt 0.2985269 0.5970625
vt 0.4972707 0.3962036
vt 0.2584544 0.6299853
vt 0.2016152 0.6623858
vt 0.5503745 0.346975
vt 0.1973782 0.6327878
vt 0.1233769 0.616547
vt 0.5991085 0.3025253
vt 0.6403199 0.25976
vt 0.6453395 0.1937447
vt 0.6755443 0.1985058
vt 0.6339301 0.122686
vt 0.6156712 0.1768833
vt 0.5869985 0.2213866
vt 0.5428396 0.2563872
vt 0.5903602 0.1533221
vt 0.5439473 0.1798022
vt 0.4930894 0.2950186
vt 0.5726643 0.1258358
vt 0.4920672 0.2060301
vt 0.4395638 0.3399967
vt 0.5655153 0.09743168
vt 0.5713064 0.07189797
vt 0.5123116 0.1342372
vt 0.4947616 0.08559566
vt 0.496021 0.036031
vt 0.4373296 0.2386608
vt 0.4499177 0.1500413
vt 0.420037 0.08792158
vt 0.4082825 0.01912462
vt 0.3861952 0.1763187
vt 0.3429432 0.1065292
vt 0.3122169 0.02627274
vt 0.3805591 0.2799839
vt 0.265431 0.1438042
vt 0.2130612 0.06213065
vt 0.3219093 0.2151002
vt 0.3835835 0.3928
vt 0.1921685 0.2020434
vt 0.119795 0.1299641
vt 0.2595956 0.2682508
vt 0.3233787 0.3316432
vt 0.3273341 0.4528627
vt 0.1313815 0.2809969
vt 0.04726462 0.2291774
vt 0.2041508 0.3356684
vt 0.2689386 0.3933805
vt 0.2869162 0.4997625
vt 0.1002234 0.3497533
vt 0.01734619 0.3187917
vt 0.1707286 0.3925219
vt 0.2323656 0.4434451
vt 0.2535872 0.5392466
vt 0.08556046 0.4129017
vt 0.01371671 0.3999408
vt 0.1487162 0.4441091
vt 0.2043995 0.4873792
vt 0.2205723 0.5752532
vt 0.08317111 0.4776832
vt 0.0303541 0.4782465
vt 0.1335368 0.4971499
vt 0.1795196 0.530692
vt 0.1794224 0.6008164
vt 0.1541512 0.573311
vt 0.1248639 0.5539471
vt 0.09451835 0.5458019
vt 0.06691445 0.5521147
vn 0.9480752 0.3180462 2.615779E-07
vn 1 0 0
vn 0.9480752 0.2754363 0.1590232
vn 0.8560693 0.5168613 1.072719E-07
vn 0.8560691 0.447615 0.2584305
vn 0.6908541 0.7229943 0
vn 0.690854 0.6261314 0.3614971
vn 0.443928 0.8960625 0
vn 0.443928 0.7760128 0.4480312
vn 0.1878277 0.982202 0
vn 0.1878276 0.8506118 0.491101
vn -0.01601422 0.9998717 0
vn -0.0160142 0.8659143 0.4999358
vn -0.2109664 0.9774933 0
vn -0.2109664 0.846534 0.4887467
vn -0.3924366 0.9197791 0
vn -0.3924366 0.7965519 0.4598896
vn -0.5768496 0.8168504 0
vn -0.5768496 0.7074131 0.4084253
vn -0.7400277 0.6725764 0
vn -0.7400277 0.5824682 0.3362884
vn -0.865159 0.5014976 -1.307297E-07
vn -0.865159 0.4343097 0.2507488
vn -1 0 0
vn -0.865159 0.4343096 -0.2507488
vn -0.7400277 0.5824683 -0.3362882
vn -0.5768496 0.7074132 -0.4084252
vn -0.3924366 0.7965519 -0.4598896
vn -0.8651592 0.2507488 -0.4343093
vn -0.7400277 0.3362882 -0.5824682
vn -0.865159 0 -0.5014976
vn -0.5768496 0.4084252 -0.7074132
vn -0.2109665 0.846534 -0.4887466
vn -0.865159 -0.2507488 -0.4343095
vn -0.8651592 -0.4343096 -0.2507487
vn -0.7400276 0 -0.6725765
vn -0.7400277 -0.3362881 -0.5824683
vn -0.7400277 -0.5824683 -0.3362882
vn -0.3924366 0.4598896 -0.7965519
vn -0.5768495 0 -0.8168504
vn -0.01601418 0.8659143 -0.4999359
vn -0.5768496 -0.4084252 -0.7074133
vn -0.3924366 0 -0.9197791
vn -0.2109664 0.4887466 -0.846534
vn 0.1878276 0.8506119 -0.491101
vn -0.01601424 0.4999358 -0.8659143
vn -0.2109664 0 -0.9774933
vn -0.3924366 -0.4598896 -0.796552
vn 0.4439279 0.7760129 -0.4480312
vn 0.1878276 0.491101 -0.8506119
vn -0.01601429 0 -0.9998717
vn 0.6908541 0.6261314 -0.361497
vn 0.4439279 0.4480312 -0.7760128
vn 0.8560693 0.4476149 -0.2584307
vn -0.5768495 -0.7074132 -0.4084253
vn -0.2109664 -0.4887467 -0.846534
vn 0.1878277 0 -0.982202
vn 0.6908542 0.3614971 -0.6261312
vn 0.9480753 0.275436 -0.1590232
vn 1 0 0
vn 0.8560691 0.2584307 -0.4476151
vn 0.443928 0 -0.8960625
vn -0.01601423 -0.4999358 -0.8659143
vn -0.3924366 -0.7965519 -0.4598896
vn 0.9480751 0.1590232 -0.2754365
vn 0.6908541 0 -0.7229942
vn 0.1878276 -0.491101 -0.8506118
vn -0.2109664 -0.846534 -0.4887466
vn 0.8560693 0 -0.5168611
vn 0.9480751 0 -0.3180465
vn 0.443928 -0.4480312 -0.7760128
vn -0.01601417 -0.8659143 -0.4999358
vn 0.9480751 -0.1590232 -0.2754364
vn 0.9480753 -0.275436 -0.1590232
vn 0.8560693 -0.4476148 -0.2584306
vn 0.8560691 -0.2584307 -0.447615
vn 0.6908541 -0.3614971 -0.6261312
vn 0.1878277 -0.8506119 -0.491101
vn 0.6908541 -0.6261313 -0.361497
vn 0.4439279 -0.7760128 -0.4480312
vn -0.01601422 -0.9998717 0
vn 0.1878277 -0.982202 0
vn 0.443928 -0.8960625 0
vn 0.6908541 -0.7229942 0
vn -0.2109664 -0.9774933 0
vn 0.8560693 -0.5168613 1.609079E-07
vn 0.9480753 -0.275436 -0.1590232
vn -0.3924366 -0.9197791 0
vn 0.9480752 -0.3180462 2.615779E-07
vn 1 0 0
vn -0.5768496 -0.8168504 0
vn -0.7400277 -0.6725764 0
vn -0.865159 -0.5014976 1.307297E-07
vn -0.8651592 -0.4343096 -0.2507487
vn -1 0 0
vn -0.865159 -0.4343096 0.2507488
vn -0.7400277 -0.5824683 0.3362882
vn -0.5768496 -0.7074132 0.4084252
vn -0.8651592 -0.2507488 0.4343094
vn -0.7400277 -0.3362883 0.5824682
vn -0.3924367 -0.796552 0.4598896
vn -0.865159 0 0.5014976
vn -0.5768495 -0.4084253 0.7074132
vn -0.2109664 -0.846534 0.4887466
vn -0.865159 0.2507488 0.4343095
vn -0.865159 0.4343097 0.2507488
vn -0.7400277 0 0.6725764
vn -0.7400276 0.3362883 0.5824683
vn -0.7400277 0.5824682 0.3362884
vn -0.3924368 -0.4598895 0.7965519
vn -0.5768495 0 0.8168504
vn -0.5768495 0.4084252 0.7074133
vn -0.5768496 0.7074131 0.4084253
vn -0.3924368 0 0.919779
vn -0.3924367 0.4598895 0.7965519
vn -0.3924366 0.7965519 0.4598896
vn -0.2109664 -0.4887467 0.846534
vn -0.2109664 0.4887467 0.846534
vn -0.2109664 0.846534 0.4887467
vn -0.2109664 0 0.9774933
vn -0.01601419 -0.8659143 0.4999358
vn -0.01601417 0.4999359 0.8659143
vn -0.0160142 0.8659143 0.4999358
vn -0.0160142 0 0.9998717
vn -0.01601416 -0.4999359 0.8659143
vn 0.1878276 -0.8506118 0.491101
vn 0.1878276 0.491101 0.8506119
vn 0.1878276 0.8506118 0.491101
vn 0.1878277 0 0.982202
vn 0.1878276 -0.491101 0.8506119
vn 0.443928 -0.7760128 0.4480312
vn 0.443928 0.4480312 0.7760129
vn 0.443928 0.7760128 0.4480312
vn 0.4439281 0 0.8960624
vn 0.4439281 -0.4480312 0.7760128
vn 0.6908541 -0.6261314 0.3614971
vn 0.6908541 0.3614971 0.6261314
vn 0.690854 0.6261314 0.3614971
vn 0.6908541 0 0.7229943
vn 0.690854 -0.3614971 0.6261314
vn 0.8560691 -0.447615 0.2584306
vn 0.8560693 0.2584306 0.4476148
vn 0.8560691 0.447615 0.2584305
vn 0.8560691 0 0.5168613
vn 0.8560693 -0.2584306 0.447615
vn 0.9480751 -0.2754363 0.1590232
vn 0.9480752 -0.1590231 0.2754363
vn 0.9480751 0 0.3180465
vn 0.9480752 0.1590232 0.2754362
vn 0.9480752 0.2754363 0.1590232
g ENV_egg_MO_0
f 3/3/3 2/2/2 1/1/1
f 3/3/3 1/1/1 4/4/4
f 5/5/5 3/3/3 4/4/4
f 5/5/5 4/4/4 6/6/6
f 7/7/7 5/5/5 6/6/6
f 7/7/7 6/6/6 8/8/8
f 9/9/9 7/7/7 8/8/8
f 9/9/9 8/8/8 10/10/10
f 11/11/11 9/9/9 10/10/10
f 11/11/11 10/10/10 12/12/12
f 13/13/13 11/11/11 12/12/12
f 13/13/13 12/12/12 14/14/14
f 15/15/15 13/13/13 14/14/14
f 15/15/15 14/14/14 16/16/16
f 17/17/17 15/15/15 16/16/16
f 17/17/17 16/16/16 18/18/18
f 19/19/19 17/17/17 18/18/18
f 19/19/19 18/18/18 20/20/20
f 21/21/21 19/19/19 20/20/20
f 21/21/21 20/20/20 22/22/22
f 23/23/23 21/21/21 22/22/22
f 22/22/22 24/24/24 23/23/23
f 22/22/22 20/20/20 25/25/25
f 25/25/25 24/24/24 22/22/22
f 20/20/20 18/18/18 26/26/26
f 20/20/20 26/26/26 25/25/25
f 18/18/18 16/16/16 27/27/27
f 18/18/18 27/27/27 26/26/26
f 16/16/16 14/14/14 28/28/28
f 16/16/16 28/28/28 27/27/27
f 25/25/25 26/26/26 29/29/29
f 29/29/29 24/24/24 25/25/25
f 26/26/26 27/27/27 30/30/30
f 26/26/26 30/30/30 29/29/29
f 31/31/31 24/24/24 29/29/29
f 29/29/29 30/30/30 31/31/31
f 27/27/27 32/32/32 30/30/30
f 27/27/27 28/28/28 32/32/32
f 14/14/14 33/33/33 28/28/28
f 14/14/14 12/12/12 33/33/33
f 34/34/34 24/24/24 31/31/31
f 35/35/35 24/24/24 34/34/34
f 30/30/30 36/36/36 31/31/31
f 31/31/31 36/36/36 34/34/34
f 30/30/30 32/32/32 36/36/36
f 34/34/34 37/37/37 35/35/35
f 36/36/36 37/37/37 34/34/34
f 37/37/37 38/38/38 35/35/35
f 28/28/28 39/39/39 32/32/32
f 28/28/28 33/33/33 39/39/39
f 32/32/32 40/40/40 36/36/36
f 36/36/36 40/40/40 37/37/37
f 32/32/32 39/39/39 40/40/40
f 12/12/12 41/41/41 33/33/33
f 12/12/12 10/10/10 41/41/41
f 40/40/40 42/42/42 37/37/37
f 37/37/37 42/42/42 38/38/38
f 39/39/39 43/43/43 40/40/40
f 40/40/40 43/43/43 42/42/42
f 33/33/33 44/44/44 39/39/39
f 33/33/33 41/41/41 44/44/44
f 39/39/39 44/44/44 43/43/43
f 10/10/10 45/45/45 41/41/41
f 10/10/10 8/8/8 45/45/45
f 41/41/41 46/46/46 44/44/44
f 41/41/41 45/45/45 46/46/46
f 44/44/44 47/47/47 43/43/43
f 44/44/44 46/46/46 47/47/47
f 43/43/43 48/48/48 42/42/42
f 43/43/43 47/47/47 48/48/48
f 8/8/8 49/49/49 45/45/45
f 8/8/8 6/6/6 49/49/49
f 45/45/45 50/50/50 46/46/46
f 45/45/45 49/49/49 50/50/50
f 46/46/46 51/51/51 47/47/47
f 46/46/46 50/50/50 51/51/51
f 6/6/6 52/52/52 49/49/49
f 6/6/6 4/4/4 52/52/52
f 49/49/49 53/53/53 50/50/50
f 49/49/49 52/52/52 53/53/53
f 4/4/4 54/54/54 52/52/52
f 4/4/4 1/1/1 54/54/54
f 42/42/42 48/48/48 55/55/55
f 42/42/42 55/55/55 38/38/38
f 47/47/47 56/56/56 48/48/48
f 47/47/47 51/51/51 56/56/56
f 50/50/50 57/57/57 51/51/51
f 50/50/50 53/53/53 57/57/57
f 52/52/52 58/58/58 53/53/53
f 52/52/52 54/54/54 58/58/58
f 1/1/1 59/59/59 54/54/54
f 1/1/1 60/60/60 59/59/59
f 54/54/54 59/59/59 61/61/61
f 54/54/54 61/61/61 58/58/58
f 53/53/53 58/58/58 62/62/62
f 53/53/53 62/62/62 57/57/57
f 51/51/51 57/57/57 63/63/63
f 51/51/51 63/63/63 56/56/56
f 48/48/48 56/56/56 64/64/64
f 48/48/48 64/64/64 55/55/55
f 59/59/59 60/60/60 65/65/65
f 59/59/59 65/65/65 61/61/61
f 58/58/58 61/61/61 66/66/66
f 58/58/58 66/66/66 62/62/62
f 57/57/57 62/62/62 67/67/67
f 57/57/57 67/67/67 63/63/63
f 56/56/56 63/63/63 68/68/68
f 56/56/56 68/68/68 64/64/64
f 61/61/61 65/65/65 69/69/69
f 61/61/61 69/69/69 66/66/66
f 65/65/65 60/60/60 70/70/70
f 65/65/65 70/70/70 69/69/69
f 62/62/62 66/66/66 71/71/71
f 62/62/62 71/71/71 67/67/67
f 63/63/63 67/67/67 72/72/72
f 63/63/63 72/72/72 68/68/68
f 70/70/70 60/60/60 73/73/73
f 73/73/73 60/60/60 74/74/74
f 73/73/73 74/74/74 75/75/75
f 70/70/70 73/73/73 76/76/76
f 69/69/69 70/70/70 76/76/76
f 76/76/76 73/73/73 75/75/75
f 66/66/66 69/69/69 77/77/77
f 69/69/69 76/76/76 77/77/77
f 66/66/66 77/77/77 71/71/71
f 67/67/67 71/71/71 78/78/78
f 67/67/67 78/78/78 72/72/72
f 77/77/77 76/76/76 79/79/79
f 76/76/76 75/75/75 79/79/79
f 71/71/71 77/77/77 80/80/80
f 71/71/71 80/80/80 78/78/78
f 77/77/77 79/79/79 80/80/80
f 72/72/72 78/78/78 81/81/81
f 78/78/78 80/80/80 82/82/82
f 78/78/78 82/82/82 81/81/81
f 80/80/80 79/79/79 83/83/83
f 80/80/80 83/83/83 82/82/82
f 79/79/79 75/75/75 84/84/84
f 79/79/79 84/84/84 83/83/83
f 72/72/72 81/81/81 85/85/85
f 68/68/68 72/72/72 85/85/85
f 75/75/75 86/86/86 84/84/84
f 75/75/75 87/87/87 86/86/86
f 68/68/68 85/85/85 88/88/88
f 64/64/64 68/68/68 88/88/88
f 87/87/87 89/89/89 86/86/86
f 87/87/87 90/90/90 89/89/89
f 64/64/64 88/88/88 91/91/91
f 55/55/55 64/64/64 91/91/91
f 55/55/55 91/91/91 92/92/92
f 38/38/38 55/55/55 92/92/92
f 38/38/38 92/92/92 93/93/93
f 94/94/94 38/38/38 93/93/93
f 93/93/93 95/95/95 94/94/94
f 93/93/93 92/92/92 96/96/96
f 96/96/96 95/95/95 93/93/93
f 92/92/92 91/91/91 97/97/97
f 92/92/92 97/97/97 96/96/96
f 91/91/91 88/88/88 98/98/98
f 91/91/91 98/98/98 97/97/97
f 96/96/96 97/97/97 99/99/99
f 99/99/99 95/95/95 96/96/96
f 97/97/97 100/100/100 99/99/99
f 97/97/97 98/98/98 100/100/100
f 88/88/88 101/101/101 98/98/98
f 88/88/88 85/85/85 101/101/101
f 102/102/102 95/95/95 99/99/99
f 99/99/99 100/100/100 102/102/102
f 98/98/98 103/103/103 100/100/100
f 98/98/98 101/101/101 103/103/103
f 85/85/85 104/104/104 101/101/101
f 85/85/85 81/81/81 104/104/104
f 105/105/105 95/95/95 102/102/102
f 106/106/106 95/95/95 105/105/105
f 100/100/100 107/107/107 102/102/102
f 102/102/102 107/107/107 105/105/105
f 100/100/100 103/103/103 107/107/107
f 105/105/105 108/108/108 106/106/106
f 107/107/107 108/108/108 105/105/105
f 108/108/108 109/109/109 106/106/106
f 101/101/101 110/110/110 103/103/103
f 101/101/101 104/104/104 110/110/110
f 103/103/103 111/111/111 107/107/107
f 107/107/107 111/111/111 108/108/108
f 103/103/103 110/110/110 111/111/111
f 108/108/108 112/112/112 109/109/109
f 111/111/111 112/112/112 108/108/108
f 112/112/112 113/113/113 109/109/109
f 110/110/110 114/114/114 111/111/111
f 111/111/111 114/114/114 112/112/112
f 112/112/112 115/115/115 113/113/113
f 114/114/114 115/115/115 112/112/112
f 115/115/115 116/116/116 113/113/113
f 104/104/104 117/117/117 110/110/110
f 110/110/110 117/117/117 114/114/114
f 115/115/115 118/118/118 116/116/116
f 118/118/118 119/119/119 116/116/116
f 114/114/114 120/120/120 115/115/115
f 117/117/117 120/120/120 114/114/114
f 120/120/120 118/118/118 115/115/115
f 104/104/104 121/121/121 117/117/117
f 81/81/81 121/121/121 104/104/104
f 81/81/81 82/82/82 121/121/121
f 118/118/118 122/122/122 119/119/119
f 122/122/122 123/123/123 119/119/119
f 120/120/120 124/124/124 118/118/118
f 124/124/124 122/122/122 118/118/118
f 117/117/117 125/125/125 120/120/120
f 121/121/121 125/125/125 117/117/117
f 125/125/125 124/124/124 120/120/120
f 82/82/82 126/126/126 121/121/121
f 121/121/121 126/126/126 125/125/125
f 82/82/82 83/83/83 126/126/126
f 122/122/122 127/127/127 123/123/123
f 127/127/127 128/128/128 123/123/123
f 124/124/124 129/129/129 122/122/122
f 129/129/129 127/127/127 122/122/122
f 125/125/125 130/130/130 124/124/124
f 126/126/126 130/130/130 125/125/125
f 130/130/130 129/129/129 124/124/124
f 83/83/83 131/131/131 126/126/126
f 126/126/126 131/131/131 130/130/130
f 83/83/83 84/84/84 131/131/131
f 127/127/127 132/132/132 128/128/128
f 132/132/132 133/133/133 128/128/128
f 129/129/129 134/134/134 127/127/127
f 134/134/134 132/132/132 127/127/127
f 130/130/130 135/135/135 129/129/129
f 131/131/131 135/135/135 130/130/130
f 135/135/135 134/134/134 129/129/129
f 84/84/84 136/136/136 131/131/131
f 131/131/131 136/136/136 135/135/135
f 84/84/84 86/86/86 136/136/136
f 132/132/132 137/137/137 133/133/133
f 137/137/137 138/138/138 133/133/133
f 134/134/134 139/139/139 132/132/132
f 139/139/139 137/137/137 132/132/132
f 135/135/135 140/140/140 134/134/134
f 136/136/136 140/140/140 135/135/135
f 140/140/140 139/139/139 134/134/134
f 86/86/86 141/141/141 136/136/136
f 136/136/136 141/141/141 140/140/140
f 86/86/86 89/89/89 141/141/141
f 137/137/137 142/142/142 138/138/138
f 142/142/142 143/143/143 138/138/138
f 139/139/139 144/144/144 137/137/137
f 144/144/144 142/142/142 137/137/137
f 140/140/140 145/145/145 139/139/139
f 141/141/141 145/145/145 140/140/140
f 145/145/145 144/144/144 139/139/139
f 89/89/89 146/146/146 141/141/141
f 141/141/141 146/146/146 145/145/145
f 89/89/89 90/90/90 146/146/146
f 146/146/146 147/147/147 145/145/145
f 145/145/145 147/147/147 144/144/144
f 146/146/146 90/90/90 147/147/147
f 147/147/147 148/148/148 144/144/144
f 144/144/144 148/148/148 142/142/142
f 147/147/147 90/90/90 148/148/148
f 142/142/142 149/149/149 143/143/143
f 148/148/148 149/149/149 142/142/142
f 148/148/148 90/90/90 149/149/149
f 149/149/149 150/150/150 143/143/143
f 149/149/149 90/90/90 150/150/150
