g ENV_PL_Moving02_MO
v -5 0 5
v -5 1 5
v 5 1 5
v 5 0 5
v -5 1 5
v -5 1 -5
v 5 1 -5
v 5 1 5
v -5 1 -5
v -5 0 -5
v 5 0 -5
v 5 1 -5
v -5 0 -5
v -5 0 5
v 5 0 5
v 5 0 -5
v 5 0 5
v 5 1 5
v 5 1 -5
v 5 0 -5
v -5 0 -5
v -5 1 -5
v -5 1 5
v -5 0 5
vt -8.999992 -3.973965E-06
vt -8.999992 0.999996
vt 1 1
vt 1 2.286792E-07
vt -9 -8.999999
vt -9 0.9999999
vt 1 0.9999999
vt 1 -8.999999
vt -9 2.158056E-08
vt -9 1
vt 1 1
vt 1 0
vt -9 -5.939055E-08
vt -9 10
vt 1 10
vt 1 0
vt -9.000001 1.245058E-08
vt -9.000001 1
vt 1 1
vt 1 0
vt 9.12076E-12 -4.665002E-07
vt 9.120649E-12 0.9999995
vt 10 0.9999995
vt 10 -4.668065E-07
vn 0 0 1
vn 0 0 1
vn 0 0 1
vn 0 0 1
vn 0 1 0
vn 0 1 0
vn 0 1 0
vn 0 1 0
vn 0 0 -1
vn 0 0 -1
vn 0 0 -1
vn 0 0 -1
vn 0 -1 0
vn 0 -1 0
vn 0 -1 0
vn 0 -1 0
vn 1 0 0
vn 1 0 0
vn 1 0 0
vn 1 0 0
vn -1 0 0
vn -1 0 0
vn -1 0 0
vn -1 0 0
g ENV_PL_Moving02_MO_0
f 3/3/3 2/2/2 1/1/1
f 4/4/4 3/3/3 1/1/1
f 7/7/7 6/6/6 5/5/5
f 8/8/8 7/7/7 5/5/5
f 11/11/11 10/10/10 9/9/9
f 12/12/12 11/11/11 9/9/9
f 15/15/15 14/14/14 13/13/13
f 16/16/16 15/15/15 13/13/13
f 19/19/19 18/18/18 17/17/17
f 20/20/20 19/19/19 17/17/17
f 23/23/23 22/22/22 21/21/21
f 24/24/24 23/23/23 21/21/21
