g ENV_platform05_Col
v -21.86058 1.073637 43.41389
v -21.86006 6.307481 33.78658
v -21.85576 6.273552 43.20303
v -21.86605 1.106521 34.24863
v -21.90601 -6.358893 -31.74395
v -21.89152 -1.15029 -34.0435
v -21.90601 -7.634495 -34.40493
v -21.89144 -2.596871 -37.10087
v -21.63876 -3.324346 -38.67858
v -21.65306 -8.376453 -35.97764
v -20.66091 -4.208678 -40.59648
v -20.6733 -9.278773 -37.89024
v -19.02519 -4.898579 -42.0927
v -19.03401 -9.982755 -39.38247
v -16.92889 -5.310869 -42.98686
v -16.93292 -10.40349 -40.27431
v -2.473579E-09 -5.417339 -43.21779
v 0 -10.51214 -40.50459
v 16.93292 -10.40349 -40.27431
v 16.9289 -5.31087 -42.98691
v 19.03401 -9.982755 -39.38247
v 19.02524 -4.89859 -42.09278
v 20.6733 -9.278773 -37.89024
v 20.66102 -4.208683 -40.59655
v 21.65306 -8.376453 -35.97764
v 21.6389 -3.324332 -38.67862
v 21.90601 -7.634495 -34.40493
v 21.89151 -2.596839 -37.10087
v 21.90601 -6.395736 -31.74395
v 21.89151 -1.187105 -34.04351
v 21.85999 6.307397 33.78658
v 21.86605 1.106521 34.24863
v 21.86058 1.073637 43.41389
v 21.85568 6.273453 43.20303
v 21.85568 6.273453 43.20303
v -4.030762E-05 6.273502 43.20303
v -3.545977E-05 6.307558 33.78684
v 21.85999 6.307397 33.78658
v 21.89151 -1.187105 -34.04351
v 0 -1.149287 -34.04136
v 21.89151 -2.596839 -37.10087
v 21.6389 -3.324332 -38.67862
v 20.66102 -4.208683 -40.59655
v 19.02524 -4.89859 -42.09278
v 16.9289 -5.31087 -42.98691
v -2.473579E-09 -5.417339 -43.21779
v -16.92889 -5.310869 -42.98686
v -19.02519 -4.898579 -42.0927
v -20.66091 -4.208678 -40.59648
v -21.63876 -3.324346 -38.67858
v -21.89144 -2.596871 -37.10087
v -21.89152 -1.15029 -34.0435
v -21.86006 6.307481 33.78658
v -3.545977E-05 6.307558 33.78684
v -4.030762E-05 6.273502 43.20303
v -21.85576 6.273552 43.20303
v -4.030762E-05 6.273502 43.20303
v 21.85568 6.273453 43.20303
v 21.86058 1.073637 43.41389
v 0.007258472 1.073637 43.42112
v -21.85576 6.273552 43.20303
v -21.86058 1.073637 43.41389
vt 1.188594 0.0312249
vt 1.108237 0.04076616
vt 1.190094 0.03969928
vt 1.106731 0.03229168
vt 0.5078961 0.04009531
vt 0.5094475 0.04857051
vt 0.4803288 0.04007251
vt 0.4801438 0.04853355
vt 0.4650355 0.05111282
vt 0.4632644 0.04295638
vt 0.4467781 0.05983537
vt 0.4425508 0.05259798
vt 0.4325919 0.07405995
vt 0.4259674 0.06877244
vt 0.4241558 0.09212299
vt 0.4160423 0.08990239
vt 0.4215505 0.24079
vt 0.4125646 0.24079
vt 0.4160417 0.3916769
vt 0.4241554 0.3894563
vt 0.4259663 0.4128076
vt 0.4325911 0.4075199
vt 0.4425498 0.4289826
vt 0.4467772 0.4217448
vt 0.4632641 0.4386236
vt 0.4650351 0.4304669
vt 0.4803288 0.4415066
vt 0.4801437 0.4330455
vt 0.5078959 0.4414834
vt 0.5094474 0.4330082
vt 1.110723 0.4412338
vt 1.109324 0.4497175
vt 1.191542 0.4508431
vt 1.19292 0.4423582
vt 1.189454 0.4338583
vt 1.189421 0.2416058
vt 1.107715 0.2415076
vt 1.107674 0.4337561
vt 0.5094474 0.4330082
vt 0.5100283 0.24079
vt 0.4801437 0.4330455
vt 0.4650351 0.4304669
vt 0.4467772 0.4217448
vt 0.4325911 0.4075199
vt 0.4241554 0.3894563
vt 0.4215505 0.24079
vt 0.4241558 0.09212299
vt 0.4325919 0.07405995
vt 0.4467781 0.05983537
vt 0.4650355 0.05111282
vt 0.4801438 0.04853355
vt 0.5094475 0.04857051
vt 1.106948 0.04819823
vt 1.106995 0.2404889
vt 1.188602 0.2404477
vt 1.188628 0.04814734
vt 0.2896797 0.2409014
vt 0.2897043 0.04870583
vt 0.2810712 0.04869304
vt 0.2810715 0.2408379
vt 0.2897057 0.4331001
vt 0.2810715 0.4329827
vn -0.9999993 0.001074045 0.0005293107
vn -0.9999987 0.001572962 0.0004146273
vn -0.9999993 0.001074045 0.0005293107
vn -0.9999987 0.001551289 0.0004196093
vn -0.9999976 0.002163448 -0.0003456431
vn -0.9999975 0.00218555 -0.0004712585
vn -0.9975466 -0.03076549 -0.06288185
vn -0.9972079 -0.03297063 -0.06700099
vn -0.9569103 -0.1348037 -0.2571974
vn -0.9596925 -0.1303976 -0.2489714
vn -0.8174353 -0.2696907 -0.5089856
vn -0.8231745 -0.2658023 -0.5017298
vn -0.5724182 -0.3849413 -0.7239874
vn -0.5782142 -0.3830146 -0.7203944
vn -0.2229956 -0.4581119 -0.8604687
vn -0.226285 -0.4577534 -0.8598005
vn -6.923694E-07 -0.4700769 -0.8826255
vn -6.993744E-07 -0.4700769 -0.8826255
vn 0.2262791 -0.4577616 -0.8597977
vn 0.22299 -0.4581198 -0.8604659
vn 0.5782071 -0.383031 -0.7203913
vn 0.5724111 -0.3849575 -0.7239843
vn 0.8231713 -0.2658235 -0.5017241
vn 0.817432 -0.2697118 -0.5089797
vn 0.9596947 -0.1304131 -0.2489549
vn 0.9569125 -0.1348194 -0.257181
vn 0.9975663 -0.03064468 -0.06262747
vn 0.9971926 -0.03308038 -0.06717648
vn 0.9999976 0.002171596 -0.000326631
vn 0.9999975 0.002194898 -0.0004531085
vn 0.9999987 0.001583367 0.0004142285
vn 0.9999987 0.001562041 0.0004192141
vn 0.9999993 0.001088708 0.0005298649
vn 0.9999993 0.001088708 0.000529865
vn 4.826974E-06 0.9999936 0.003610756
vn 2.092562E-06 0.9999936 0.003610344
vn 0.0002109389 0.9985952 -0.05298777
vn 0.0004316244 0.9985905 -0.05307174
vn 0.001208015 0.9635065 -0.2676823
vn 0.0002497217 0.9631646 -0.2689125
vn 0.001509838 0.9080633 -0.4188303
vn 0.00144538 0.9079342 -0.4191101
vn 0.001315405 0.9077486 -0.4195124
vn 0.00110055 0.9075213 -0.4200046
vn 0.0007153095 0.9072045 -0.4206893
vn -6.251273E-07 0.9067232 -0.4217262
vn -0.0007167586 0.9072047 -0.420689
vn -0.00110208 0.9075215 -0.4200042
vn -0.001316764 0.9077486 -0.4195124
vn -0.001446846 0.9079345 -0.4191095
vn -0.000788144 0.9060951 -0.4230732
vn -9.24503E-06 0.9622204 -0.2722716
vn -9.615961E-06 0.9985978 -0.05293862
vn 0.0002109389 0.9985952 -0.05298777
vn 2.092562E-06 0.9999936 0.003610344
vn -6.418474E-07 0.9999936 0.003609932
vn 0 0.04121061 0.9991505
vn 0.0001655438 0.04121107 0.9991505
vn 0.0001655438 0.04121107 0.9991505
vn 2.57348E-07 0.04121061 0.9991505
vn -0.0001653245 0.04121015 0.9991505
vn -0.0001653245 0.04121015 0.9991505
g ENV_platform05_Col_0
f 3/3/3 2/2/2 1/1/1
f 2/2/2 4/4/4 1/1/1
f 5/5/5 4/4/4 2/2/2
f 6/6/6 5/5/5 2/2/2
f 7/7/7 5/5/5 6/6/6
f 8/8/8 7/7/7 6/6/6
f 8/8/8 9/9/9 7/7/7
f 9/9/9 10/10/10 7/7/7
f 9/9/9 11/11/11 10/10/10
f 11/11/11 12/12/12 10/10/10
f 11/11/11 13/13/13 12/12/12
f 13/13/13 14/14/14 12/12/12
f 13/13/13 15/15/15 14/14/14
f 15/15/15 16/16/16 14/14/14
f 15/15/15 17/17/17 16/16/16
f 17/17/17 18/18/18 16/16/16
f 18/18/18 17/17/17 19/19/19
f 17/17/17 20/20/20 19/19/19
f 19/19/19 20/20/20 21/21/21
f 20/20/20 22/22/22 21/21/21
f 21/21/21 22/22/22 23/23/23
f 22/22/22 24/24/24 23/23/23
f 23/23/23 24/24/24 25/25/25
f 24/24/24 26/26/26 25/25/25
f 25/25/25 26/26/26 27/27/27
f 26/26/26 28/28/28 27/27/27
f 27/27/27 28/28/28 29/29/29
f 28/28/28 30/30/30 29/29/29
f 30/30/30 31/31/31 29/29/29
f 31/31/31 32/32/32 29/29/29
f 32/32/32 31/31/31 33/33/33
f 31/31/31 34/34/34 33/33/33
f 37/37/37 36/36/36 35/35/35
f 38/38/38 37/37/37 35/35/35
f 37/37/37 38/38/38 39/39/39
f 40/40/40 37/37/37 39/39/39
f 41/41/41 40/40/40 39/39/39
f 40/40/40 41/41/41 42/42/42
f 40/40/40 42/42/42 43/43/43
f 40/40/40 43/43/43 44/44/44
f 40/40/40 44/44/44 45/45/45
f 40/40/40 45/45/45 46/46/46
f 47/47/47 40/40/40 46/46/46
f 48/48/48 40/40/40 47/47/47
f 49/49/49 40/40/40 48/48/48
f 50/50/50 40/40/40 49/49/49
f 51/51/51 40/40/40 50/50/50
f 52/52/52 40/40/40 51/51/51
f 52/52/52 53/53/53 40/40/40
f 53/53/53 54/54/54 40/40/40
f 54/54/54 53/53/53 55/55/55
f 53/53/53 56/56/56 55/55/55
f 59/59/59 58/58/58 57/57/57
f 60/60/60 59/59/59 57/57/57
f 60/60/60 57/57/57 61/61/61
f 62/62/62 60/60/60 61/61/61
