g ENV_BLO_Wall_10
v -9.921332 0.02914135 0.8955526
v -9.908402 0.04207151 0.9529759
v -9.850979 0.02914135 0.965906
v -9.850979 0 0.8955526
v -9.921332 0.02914135 -0.8955526
v 9.850979 0 0.8955526
v 9.850979 0.02914135 0.965906
v -9.850979 0 -0.8955526
v 9.921332 0.02914135 0.8955526
v 9.908402 0.04207151 0.9529759
v -9.850979 0.02914135 -0.965906
v -9.908402 0.04207151 -0.9529759
v 9.850979 0.02914135 -0.965906
v 9.850979 0 -0.8955526
v 9.921332 0.02914135 -0.8955526
v 9.908402 0.04207151 -0.9529759
v 9.921332 0.09949479 -0.965906
v 9.921332 0.09949479 0.965906
v 9.850979 0.02914135 0.965906
v 9.950474 0.09949479 -0.8955526
v 9.921332 3.895991 -0.965906
v 9.950474 0.09949479 0.8955526
v 9.950474 3.895991 0.8955526
v 9.950474 3.895991 -0.8955526
v 9.921332 3.966344 -0.8955526
v 9.908402 3.953414 -0.9529759
v 9.850979 3.966344 -0.965906
v 9.921332 3.966344 0.8955526
v 9.921332 3.895991 0.965906
v 9.850979 0.09949479 0.9950474
v -9.850979 0.09949479 0.9950474
v -9.850979 0.02914135 0.965906
v 9.850979 3.895991 0.9950474
v -9.921332 0.09949479 0.965906
v -9.908402 0.04207151 0.9529759
v -9.850979 3.895991 0.9950474
v -9.921332 0.02914135 0.8955526
v 9.850979 3.966344 0.965906
v 9.908402 3.953414 0.9529759
v -9.850979 3.966344 0.965906
v 9.850979 3.966344 0.965906
v -9.921332 3.895991 0.965906
v -9.908402 3.953414 0.9529759
v -9.921332 3.966344 0.8955526
v -9.950474 0.09949479 0.8955526
v -9.950474 3.895991 0.8955526
v -9.921332 3.966344 -0.8955526
v -9.950474 0.09949479 -0.8955526
v -9.921332 0.02914135 -0.8955526
v 9.850979 3.995486 0.8955526
v -9.950474 3.895991 -0.8955526
v -9.921332 0.09949479 -0.965906
v -9.908402 0.04207151 -0.9529759
v -9.850979 0.02914135 -0.965906
v -9.921332 3.895991 -0.965906
v -9.908402 3.953414 -0.9529759
v -9.850979 3.966344 -0.965906
v -9.850979 3.995486 0.8955526
v -9.850979 3.966344 0.965906
v -9.850979 0.09949479 -0.9950474
v -9.850979 3.895991 -0.9950474
v 9.850979 0.09949479 -0.9950474
v 9.850979 3.966344 -0.965906
v 9.850979 0.02914135 -0.965906
v 9.850979 3.895991 -0.9950474
v 9.921332 0.09949479 -0.965906
v 9.908402 0.04207151 -0.9529759
v 9.921332 3.895991 -0.965906
v 9.908402 3.953414 -0.9529759
v -9.908402 3.953414 0.9529759
v -9.921332 3.966344 0.8955526
v -9.850979 3.995486 -0.8955526
v -9.921332 3.966344 -0.8955526
v 9.850979 3.995486 -0.8955526
v -9.850979 3.966344 -0.965906
v -9.908402 3.953414 -0.9529759
vt 1.33447 0.2970203
vt 1.332781 0.2976099
vt 1.3328 0.2993491
vt 1.334809 0.2990279
vt 1.38176 0.2894368
vt 1.418078 0.8185838
vt 1.416071 0.8189061
vt 1.382079 0.2914476
vt 1.418306 0.8202223
vt 1.41667 0.8203247
vt 1.384089 0.2911241
vt 1.38347 0.2894788
vt 1.467495 0.8115239
vt 1.465479 0.8118435
vt 1.465815 0.8142036
vt 1.467731 0.8139665
vt 1.468277 0.816448
vt 1.416589 0.8218756
vt 1.414675 0.8197725
vt 1.466137 0.8165656
vt 1.472925 0.9226802
vt 1.418523 0.8218704
vt 1.419448 0.926409
vt 1.470791 0.9227674
vt 1.471 0.924763
vt 1.472759 0.9245872
vt 1.473425 0.9265592
vt 1.419519 0.9287325
vt 1.417235 0.926459
vt 1.414651 0.8218695
vt 0.8721128 0.8164172
vt 0.8721562 0.814319
vt 1.415019 0.9264905
vt 0.8699468 0.8162779
vt 0.8731583 0.8117407
vt 0.8704348 0.9222591
vt 0.86966 0.8001996
vt 1.415004 0.9285996
vt 1.417338 0.9286578
vt 0.8704157 0.924366
vt 1.417415 0.9312754
vt 0.8682495 0.9223313
vt 0.8683029 0.924148
vt 0.8661231 0.9246442
vt 0.8676351 0.8162599
vt 0.8660612 0.9224048
vt 0.8135954 0.9252709
vt 0.8123222 0.8143086
vt 0.8118284 0.8118556
vt 1.419618 0.9310781
vt 0.8135998 0.9230278
vt 0.8101904 0.8143504
vt 0.8100086 0.8125693
vt 0.8080548 0.8122127
vt 0.8113799 0.9230304
vt 0.8113638 0.9249063
vt 0.8091773 0.9252119
vt 1.471423 1.50026
vt 1.469223 1.500461
vt 0.8080661 0.8143878
vt 0.8091613 0.9230336
vt 0.2453128 0.8176675
vt 0.2459446 0.9283326
vt 0.2452989 0.8154924
vt 0.2459339 0.9261565
vt 0.2431382 0.817673
vt 0.2434771 0.8158547
vt 0.2437605 0.9261717
vt 0.2440954 0.9279413
vt 1.469742 1.502303
vt 1.471614 1.50246
vt 1.523151 1.49555
vt 1.523366 1.49775
vt 1.471226 0.9267622
vt 1.525349 1.49535
vt 1.52521 1.49724
vn -0.7070637 -0.7070708 0.01057059
vn -0.5773482 -0.5773542 0.5773483
vn -0.0009860215 -0.7071065 0.7071064
vn -0.001454461 -0.9998767 0.01563448
vn -0.7070637 -0.7070708 -0.01057058
vn 0.001454461 -0.9998767 0.01563448
vn 0.0009860215 -0.7071065 0.7071064
vn -0.001454461 -0.9998767 -0.01563448
vn 0.7070637 -0.7070708 0.01057058
vn 0.5773482 -0.5773542 0.5773483
vn -0.0009860215 -0.7071065 -0.7071064
vn -0.5773482 -0.5773542 -0.5773483
vn 0.0009860215 -0.7071065 -0.7071064
vn 0.001454461 -0.9998767 -0.01563448
vn 0.7070637 -0.7070708 -0.01057059
vn 0.5773482 -0.5773542 -0.5773483
vn 0.7070972 -0.005061868 -0.7070982
vn 0.7070972 -0.005061866 0.7070982
vn 0.0009860215 -0.7071065 0.7071064
vn 0.9998513 -0.007438146 -0.01555716
vn 0.7070972 0.005061863 -0.7070982
vn 0.9998513 -0.007438146 0.01555716
vn 0.9998513 0.007438145 0.01555716
vn 0.9998513 0.007438146 -0.01555716
vn 0.7070634 0.7070711 -0.01057065
vn 0.5773485 0.5773548 -0.5773475
vn 0.0009860224 0.7071063 -0.7071066
vn 0.7070634 0.7070711 0.01057063
vn 0.7070972 0.005061866 0.7070982
vn 0.001464559 -0.007526841 0.9999707
vn -0.001464559 -0.007526841 0.9999707
vn -0.0009860215 -0.7071065 0.7071064
vn 0.001464559 0.007526841 0.9999707
vn -0.7070972 -0.005061868 0.7070982
vn -0.5773482 -0.5773542 0.5773483
vn -0.001464559 0.007526841 0.9999707
vn -0.7070637 -0.7070708 0.01057059
vn 0.0009860238 0.7071063 0.7071066
vn 0.5773487 0.5773551 0.5773469
vn -0.0009860224 0.7071063 0.7071066
vn 0.0009860238 0.7071063 0.7071066
vn -0.7070972 0.005061863 0.7070982
vn -0.5773486 0.5773548 0.5773475
vn -0.7070634 0.7070711 0.01057065
vn -0.9998513 -0.007438146 0.01555716
vn -0.9998513 0.007438146 0.01555716
vn -0.7070634 0.7070711 -0.01057063
vn -0.9998513 -0.007438146 -0.01555716
vn -0.7070637 -0.7070708 -0.01057058
vn 0.001454466 0.9998767 0.0156345
vn -0.9998513 0.007438145 -0.01555716
vn -0.7070972 -0.005061866 -0.7070982
vn -0.5773482 -0.5773542 -0.5773483
vn -0.0009860215 -0.7071065 -0.7071064
vn -0.7070972 0.005061866 -0.7070982
vn -0.5773487 0.5773551 -0.5773469
vn -0.0009860238 0.7071063 -0.7071066
vn -0.001454465 0.9998767 0.0156345
vn -0.0009860224 0.7071063 0.7071066
vn -0.001464559 -0.007526841 -0.9999707
vn -0.001464559 0.007526841 -0.9999707
vn 0.001464559 -0.007526841 -0.9999707
vn 0.0009860224 0.7071063 -0.7071066
vn 0.0009860215 -0.7071065 -0.7071064
vn 0.001464559 0.007526841 -0.9999707
vn 0.7070972 -0.005061868 -0.7070982
vn 0.5773482 -0.5773542 -0.5773483
vn 0.7070972 0.005061863 -0.7070982
vn 0.5773485 0.5773548 -0.5773475
vn -0.5773486 0.5773548 0.5773475
vn -0.7070634 0.7070711 0.01057065
vn -0.001454466 0.9998767 -0.0156345
vn -0.7070634 0.7070711 -0.01057063
vn 0.001454465 0.9998767 -0.0156345
vn -0.0009860238 0.7071063 -0.7071066
vn -0.5773487 0.5773551 -0.5773469
g ENV_BLO_Wall_10_0
f 3/3/3 2/2/2 1/1/1
f 4/4/4 3/3/3 1/1/1
f 1/1/1 5/5/5 4/4/4
f 4/4/4 6/6/6 3/3/3
f 6/6/6 7/7/7 3/3/3
f 5/5/5 8/8/8 4/4/4
f 6/6/6 4/4/4 8/8/8
f 6/6/6 9/9/9 7/7/7
f 9/9/9 10/10/10 7/7/7
f 8/8/8 5/5/5 11/11/11
f 5/5/5 12/12/12 11/11/11
f 11/11/11 13/13/13 8/8/8
f 14/14/14 6/6/6 8/8/8
f 13/13/13 14/14/14 8/8/8
f 6/6/6 14/14/14 9/9/9
f 14/14/14 13/13/13 15/15/15
f 14/14/14 15/15/15 9/9/9
f 13/13/13 16/16/16 15/15/15
f 15/15/15 16/16/16 17/17/17
f 18/18/18 10/10/10 9/9/9
f 19/19/19 10/10/10 18/18/18
f 20/20/20 15/15/15 17/17/17
f 17/17/17 21/21/21 20/20/20
f 9/9/9 15/15/15 22/22/22
f 22/22/22 18/18/18 9/9/9
f 15/15/15 20/20/20 22/22/22
f 23/23/23 22/22/22 20/20/20
f 22/22/22 23/23/23 18/18/18
f 21/21/21 24/24/24 20/20/20
f 24/24/24 23/23/23 20/20/20
f 24/24/24 21/21/21 25/25/25
f 21/21/21 26/26/26 25/25/25
f 25/25/25 26/26/26 27/27/27
f 23/23/23 24/24/24 28/28/28
f 24/24/24 25/25/25 28/28/28
f 23/23/23 29/29/29 18/18/18
f 23/23/23 28/28/28 29/29/29
f 30/30/30 19/19/19 18/18/18
f 18/18/18 29/29/29 30/30/30
f 19/19/19 30/30/30 31/31/31
f 32/32/32 19/19/19 31/31/31
f 29/29/29 33/33/33 30/30/30
f 31/31/31 34/34/34 32/32/32
f 34/34/34 35/35/35 32/32/32
f 31/31/31 36/36/36 34/34/34
f 37/37/37 35/35/35 34/34/34
f 33/33/33 29/29/29 38/38/38
f 29/29/29 39/39/39 38/38/38
f 28/28/28 39/39/39 29/29/29
f 33/33/33 38/38/38 40/40/40
f 36/36/36 33/33/33 40/40/40
f 41/41/41 39/39/39 28/28/28
f 36/36/36 40/40/40 42/42/42
f 36/36/36 42/42/42 34/34/34
f 40/40/40 43/43/43 42/42/42
f 42/42/42 43/43/43 44/44/44
f 45/45/45 37/37/37 34/34/34
f 34/34/34 42/42/42 45/45/45
f 46/46/46 42/42/42 44/44/44
f 42/42/42 46/46/46 45/45/45
f 44/44/44 47/47/47 46/46/46
f 45/45/45 48/48/48 37/37/37
f 45/45/45 46/46/46 48/48/48
f 48/48/48 49/49/49 37/37/37
f 50/50/50 41/41/41 28/28/28
f 28/28/28 25/25/25 50/50/50
f 47/47/47 51/51/51 46/46/46
f 46/46/46 51/51/51 48/48/48
f 48/48/48 52/52/52 49/49/49
f 48/48/48 51/51/51 52/52/52
f 52/52/52 53/53/53 49/49/49
f 54/54/54 53/53/53 52/52/52
f 51/51/51 47/47/47 55/55/55
f 51/51/51 55/55/55 52/52/52
f 47/47/47 56/56/56 55/55/55
f 55/55/55 56/56/56 57/57/57
f 41/41/41 50/50/50 58/58/58
f 59/59/59 41/41/41 58/58/58
f 60/60/60 54/54/54 52/52/52
f 52/52/52 55/55/55 60/60/60
f 61/61/61 55/55/55 57/57/57
f 55/55/55 61/61/61 60/60/60
f 60/60/60 62/62/62 54/54/54
f 57/57/57 63/63/63 61/61/61
f 62/62/62 64/64/64 54/54/54
f 63/63/63 65/65/65 61/61/61
f 62/62/62 66/66/66 64/64/64
f 62/62/62 65/65/65 66/66/66
f 66/66/66 67/67/67 64/64/64
f 65/65/65 68/68/68 66/66/66
f 65/65/65 63/63/63 68/68/68
f 63/63/63 69/69/69 68/68/68
f 71/71/71 70/70/70 59/59/59
f 58/58/58 71/71/71 59/59/59
f 58/58/58 72/72/72 71/71/71
f 72/72/72 73/73/73 71/71/71
f 74/74/74 72/72/72 58/58/58
f 50/50/50 74/74/74 58/58/58
f 25/25/25 74/74/74 50/50/50
f 74/74/74 25/25/25 27/27/27
f 74/74/74 27/27/27 75/75/75
f 72/72/72 74/74/74 75/75/75
f 72/72/72 75/75/75 73/73/73
f 75/75/75 76/76/76 73/73/73
g ENV_BLO_Wall_10_1
f 61/61/61 65/65/65 62/62/62
f 60/60/60 61/61/61 62/62/62
f 36/36/36 31/31/31 30/30/30
f 33/33/33 36/36/36 30/30/30
