g ENV_BLO_Trip_2
v 0.9994965 0.717006 0.986007
v -0.9947176 0.7469999 0.9494234
v 0.9994965 0.7469999 0.9494234
v -0.9947176 0.717006 0.986007
v -0.9947176 0.64701 1
v 0.9994965 0.64701 1
v -0.9947176 0.06269283 1
v 0.9994965 0.06269283 1
v 0.9994965 0.01678964 0.9809863
v -0.9947176 0.01678964 0.9809863
v 0.9994965 -0.002224088 0.9350831
v -0.9947176 -0.002224088 0.9350831
v 0.9994965 0.7469999 -0.9494234
v -0.9947176 0.7469999 -0.9494234
v -0.9947176 0.717006 -0.986007
v 0.9994965 0.717006 -0.986007
v 0.9994965 0.64701 -1
v -0.9947176 0.64701 -1
v -0.9947176 0.06269283 -1
v 0.9994965 0.06269283 -1
v -0.9947176 0.01678964 -0.9809863
v 0.9994965 0.01678964 -0.9809863
v -0.9947176 -0.002224088 -0.9350831
v 0.9994965 -0.002224088 -0.9350831
v 0.9994965 -0.002224088 0.9350831
v -0.9947176 -0.002224088 0.9350831
vt 0.3062387 0.5161411
vt 0.2437269 0.5189316
vt 0.3062406 0.5176207
vt 0.2438223 0.5159579
vt 0.2438295 0.5137275
vt 0.3062382 0.5139046
vt 0.2438787 0.4954671
vt 0.3062388 0.4956346
vt 0.3062404 0.494082
vt 0.2438825 0.4939137
vt 0.3062431 0.4925287
vt 0.2438868 0.4923607
vt 0.3068976 0.5765222
vt 0.245189 0.5776684
vt 0.2452264 0.5791236
vt 0.3069128 0.5779792
vt 0.3069372 0.5801791
vt 0.2452766 0.5813193
vt 0.2456633 0.5992894
vt 0.3071873 0.5981645
vt 0.2456951 0.6008176
vt 0.3072087 0.5996933
vt 0.2457281 0.6023461
vt 0.3072317 0.6012226
vt 0.3082075 0.6587805
vt 0.2468209 0.6598873
vn 0 0.4513616 0.8923411
vn 0 0.99988 0.01549544
vn 0 0.99988 0.01549544
vn 0 0.4513616 0.8923411
vn 0 0.02138084 0.9997714
vn 0 0.02138084 0.9997714
vn 0 -0.03015621 0.9995452
vn 0 -0.03015621 0.9995452
vn 0 -0.7071067 0.7071068
vn 0 -0.7071067 0.7071068
vn 0 -0.9999508 0.009922809
vn 0 -0.9999508 0.009922809
vn 0 0.99988 -0.01549544
vn 0 0.99988 -0.01549544
vn 0 0.4513616 -0.8923411
vn 0 0.4513616 -0.8923411
vn 0 0.02138084 -0.9997714
vn 0 0.02138084 -0.9997714
vn 0 -0.03015621 -0.9995452
vn 0 -0.03015621 -0.9995452
vn 0 -0.7071067 -0.7071068
vn 0 -0.7071067 -0.7071068
vn 0 -0.9999508 -0.009922809
vn 0 -0.9999508 -0.009922809
vn 0 -0.9999508 0.009922809
vn 0 -0.9999508 0.009922809
g ENV_BLO_Trip_2_0
f 3/3/3 2/2/2 1/1/1
f 2/2/2 4/4/4 1/1/1
f 4/4/4 5/5/5 1/1/1
f 5/5/5 6/6/6 1/1/1
f 5/5/5 7/7/7 6/6/6
f 7/7/7 8/8/8 6/6/6
f 8/8/8 7/7/7 9/9/9
f 7/7/7 10/10/10 9/9/9
f 9/9/9 10/10/10 11/11/11
f 10/10/10 12/12/12 11/11/11
f 15/15/15 14/14/14 13/13/13
f 16/16/16 15/15/15 13/13/13
f 15/15/15 16/16/16 17/17/17
f 18/18/18 15/15/15 17/17/17
f 19/19/19 18/18/18 17/17/17
f 20/20/20 19/19/19 17/17/17
f 21/21/21 19/19/19 20/20/20
f 22/22/22 21/21/21 20/20/20
f 23/23/23 21/21/21 22/22/22
f 24/24/24 23/23/23 22/22/22
f 23/23/23 24/24/24 25/25/25
f 26/26/26 23/23/23 25/25/25
g ENV_BLO_Trip_2_1
f 2/2/2 3/3/3 13/13/13
f 14/14/14 2/2/2 13/13/13
