g ENV_TTT_GoopQuarter
v -6.751387 -0.6140287 -1.822397
v -6.536871 -0.09928804 -3.191518
v -6.092026 -0.53308 -2.849835
v -6.092026 -0.53308 -2.849835
v -6.536871 -0.09928804 -3.191518
v -3.517751 0.2997749 -6.186532
v -3.437141 -0.02383198 -5.569936
v -0.3399902 1.070122 -8.619382
v -0.3399902 1.194096 -9.208632
v 0.003571777 1.289679 -9.30176
v 0.003571777 1.165705 -8.712509
v 0.3483533 1.193267 -9.205832
v -0.3399902 0.8342645 -7.715728
v -3.358554 -0.01525394 -4.845027
v 0.3483533 1.069293 -8.616581
v 3.817543 0.2080012 -5.876435
v -5.869405 -0.4261828 -2.457168
v -6.751387 -0.6140287 -1.822397
v -5.476579 -0.3195976 -1.993221
v -6.705055 -0.8458223 -1.029781
v -3.282833 0.002970695 -4.26583
v 0.003571777 0.9298472 -7.808856
v -0.3496124 0.8296518 -7.304496
v 0.003150635 0.921189 -7.44511
v 0.3483533 0.8334351 -7.712928
v 3.711148 0.04033695 -5.139549
v -5.617776 -0.3239795 -1.216772
v -3.535474 0.5842323 7.362468
v 6.096819 -0.3939324 -2.672835
v 6.541664 -0.2699579 -3.262085
v 6.75618 -0.6297899 -1.769181
v 5.837541 -0.4298156 -2.444932
v 3.613872 -0.09398716 -4.578996
v 5.28057 -0.2780343 -1.981744
v 0.3601131 0.8274229 -7.285194
v 5.412114 -0.2822937 -1.208622
v 6.705055 -0.8614547 -0.9769922
v 3.496798 -0.06578708 -3.904358
v 3.228041 0.149671 -2.355646
v 0.8421221 0.8144059 -2.79028
v 2.780237 0.8228694 7.337142
v 3.452782 0.5858143 7.357165
v 3.106561 0.2172883 -1.65562
v -0.01135132 0.9042323 -2.873722
v 0.8756971 0.810634 -2.088137
v -0.8153793 0.8292983 -2.80225
v 2.594959 0.7905542 7.602436
v 3.232543 0.5580958 7.602436
v 1.552339 0.8978384 7.300584
v -0.01344727 0.90284 -2.180605
v -3.040992 0.2315928 -2.415958
v 2.427038 0.573979 7.801747
v 3.015815 0.5742068 7.80099
v 1.503702 0.8241876 7.602436
v 1.465155 0.5736069 7.802983
v 0.7505236 0.8439001 7.602436
v 0.7567191 0.5733329 7.803894
v -0.04295867 0.8564967 7.602437
v -0.04364319 0.5730233 7.804922
v -0.7060169 0.5727668 7.805774
v 0.7420679 0.9473093 7.276461
v -0.0419574 0.9830986 7.253119
v -0.7007896 0.8442261 7.602436
v -1.704497 0.5723804 7.807057
v -0.8444029 0.8270379 -2.101845
v -0.6936464 0.9489281 7.273518
v -2.948912 0.2877032 -1.711629
v -1.769845 0.8879292 7.307203
v -1.734068 0.8195984 7.602436
v -2.605988 0.5720314 7.808216
v -2.967833 0.8200275 7.344701
v -2.783474 0.7878531 7.602436
v -3.1031 0.5718389 7.808855
v -3.323938 0.5556736 7.602436
vt 0.9041899 0.4160404
vt 0.9040941 0.386472
vt 0.9041208 0.3947057
vt 0.9041208 0.3947057
vt 0.9040941 0.386472
vt 0.7167153 0.2040491
vt 0.7266048 0.2218848
vt 0.5195173 0.02027426
vt 0.5194907 0.01204062
vt 0.498211 0.005622983
vt 0.4982377 0.01385668
vt 0.4768979 0.01234865
vt 0.5195864 0.04160881
vt 0.7078962 0.2246657
vt 0.4769246 0.0205823
vt 0.2628834 0.2251927
vt 0.8645329 0.3769331
vt 0.9041899 0.4160404
vt 0.838539 0.403392
vt 0.9147436 0.4646744
vt 0.7023518 0.2594016
vt 0.4983068 0.03519136
vt 0.5202581 0.06687448
vt 0.4983586 0.04372025
vt 0.4769938 0.04191685
vt 0.2534201 0.2428646
vt 0.8474199 0.4510384
vt 0.720107 0.9662872
vt 0.09485903 0.4005585
vt 0.0948323 0.3923248
vt 0.09492826 0.4218931
vt 0.1365952 0.3799453
vt 0.2744906 0.2430101
vt 0.17291 0.4057861
vt 0.4763454 0.06821024
vt 0.1649135 0.4532787
vt 0.08496463 0.4705622
vt 0.2829118 0.2834076
vt 0.310081 0.3774537
vt 0.4695327 0.3445192
vt 0.329299 0.9658306
vt 0.2876875 0.9672641
vt 0.3191989 0.4199249
vt 0.5001444 0.3381964
vt 0.4684863 0.3876517
vt 0.5276126 0.3434885
vt 0.3408083 0.9806606
vt 0.3013562 0.980822
vt 0.4052714 0.9632137
vt 0.5004025 0.3807521
vt 0.6760726 0.372091
vt 0.3512394 0.9941014
vt 0.3148071 0.9941639
vt 0.4083328 0.9803882
vt 0.410759 0.9939992
vt 0.4549376 0.9802074
vt 0.4545957 0.993924
vt 0.5040365 0.9800237
vt 0.5041206 0.993839
vt 0.5451071 0.9937687
vt 0.4554043 0.9614868
vt 0.5039135 0.9598158
vt 0.5447419 0.9799315
vt 0.6068912 0.9936626
vt 0.5287594 0.3864956
vt 0.5442427 0.961023
vt 0.669252 0.4149515
vt 0.6108424 0.9630165
vt 0.6086792 0.9797944
vt 0.6626737 0.9935669
vt 0.684979 0.9652357
vt 0.6736145 0.9796703
vt 0.6934342 0.9935141
vt 0.7070575 0.9796078
vn 0 1 0
vn 0 1 0
vn 0 1 0
vn 0 1 0
vn 0 1 0
vn 0 1 0
vn 0 1 0
vn 0 1 0
vn 0 1 0
vn 0 1 0
vn 0 1 0
vn 0 1 0
vn 0 1 0
vn 0 1 0
vn 0 1 0
vn 0 1 0
vn 0 1 0
vn 0 1 0
vn 0 1 0
vn 0 1 0
vn 0 1 0
vn 0 1 0
vn 0 1 0
vn 0 1 0
vn 0 1 0
vn 0 1 0
vn 0 1 0
vn 0 1 0
vn 0 1 0
vn 0 1 0
vn 0 1 0
vn 0 1 0
vn 0 1 0
vn 0 1 0
vn 0 1 0
vn 0 1 0
vn 0 1 0
vn 0 1 0
vn 0 1 0
vn 0 1 0
vn 0 1 0
vn 0 1 0
vn 0 1 0
vn 0 1 0
vn 0 1 0
vn 0 1 0
vn 0 1 0
vn 0 1 0
vn 0 1 0
vn 0 1 0
vn 0 1 0
vn 0 1 0
vn 0 1 0
vn 0 1 0
vn 0 1 0
vn 0 1 0
vn 0 1 0
vn 0 1 0
vn 0 1 0
vn 0 1 0
vn 0 1 0
vn 0 1 0
vn 0 1 0
vn 0 1 0
vn 0 1 0
vn 0 1 0
vn 0 1 0
vn 0 1 0
vn 0 1 0
vn 0 1 0
vn 0 1 0
vn 0 1 0
vn 0 1 0
vn 0 1 0
g ENV_TTT_GoopQuarter_0
f 3/3/3 2/2/2 1/1/1
f 6/6/6 5/5/5 4/4/4
f 7/7/7 6/6/6 4/4/4
f 7/7/7 8/8/8 6/6/6
f 8/8/8 9/9/9 6/6/6
f 10/10/10 9/9/9 8/8/8
f 11/11/11 10/10/10 8/8/8
f 12/12/12 10/10/10 11/11/11
f 13/13/13 8/8/8 7/7/7
f 11/11/11 8/8/8 13/13/13
f 14/14/14 7/7/7 4/4/4
f 14/14/14 13/13/13 7/7/7
f 15/15/15 12/12/12 11/11/11
f 16/16/16 12/12/12 15/15/15
f 17/17/17 14/14/14 4/4/4
f 17/17/17 4/4/4 18/18/18
f 17/17/17 18/18/18 19/19/19
f 19/19/19 18/18/18 20/20/20
f 14/14/14 17/17/17 21/21/21
f 17/17/17 19/19/19 21/21/21
f 22/22/22 11/11/11 13/13/13
f 15/15/15 11/11/11 22/22/22
f 13/13/13 14/14/14 23/23/23
f 14/14/14 21/21/21 23/23/23
f 24/24/24 22/22/22 13/13/13
f 23/23/23 24/24/24 13/13/13
f 25/25/25 15/15/15 22/22/22
f 22/22/22 24/24/24 25/25/25
f 26/26/26 16/16/16 15/15/15
f 26/26/26 15/15/15 25/25/25
f 27/27/27 19/19/19 20/20/20
f 27/27/27 20/20/20 28/28/28
f 26/26/26 29/29/29 16/16/16
f 29/29/29 30/30/30 16/16/16
f 29/29/29 31/31/31 30/30/30
f 32/32/32 29/29/29 26/26/26
f 32/32/32 31/31/31 29/29/29
f 33/33/33 26/26/26 25/25/25
f 33/33/33 32/32/32 26/26/26
f 32/32/32 34/34/34 31/31/31
f 34/34/34 32/32/32 33/33/33
f 33/33/33 25/25/25 35/35/35
f 24/24/24 35/35/35 25/25/25
f 34/34/34 36/36/36 31/31/31
f 36/36/36 37/37/37 31/31/31
f 38/38/38 34/34/34 33/33/33
f 38/38/38 33/33/33 35/35/35
f 38/38/38 39/39/39 34/34/34
f 38/38/38 35/35/35 39/39/39
f 34/34/34 39/39/39 36/36/36
f 35/35/35 24/24/24 40/40/40
f 35/35/35 40/40/40 39/39/39
f 36/36/36 41/41/41 37/37/37
f 41/41/41 42/42/42 37/37/37
f 39/39/39 43/43/43 36/36/36
f 39/39/39 40/40/40 43/43/43
f 36/36/36 43/43/43 41/41/41
f 24/24/24 44/44/44 40/40/40
f 24/24/24 23/23/23 44/44/44
f 40/40/40 45/45/45 43/43/43
f 40/40/40 44/44/44 45/45/45
f 23/23/23 46/46/46 44/44/44
f 23/23/23 21/21/21 46/46/46
f 41/41/41 47/47/47 42/42/42
f 47/47/47 48/48/48 42/42/42
f 43/43/43 49/49/49 41/41/41
f 43/43/43 45/45/45 49/49/49
f 44/44/44 50/50/50 45/45/45
f 50/50/50 44/44/44 46/46/46
f 21/21/21 51/51/51 46/46/46
f 21/21/21 19/19/19 51/51/51
f 47/47/47 52/52/52 48/48/48
f 52/52/52 53/53/53 48/48/48
f 47/47/47 41/41/41 54/54/54
f 47/47/47 54/54/54 52/52/52
f 41/41/41 49/49/49 54/54/54
f 54/54/54 55/55/55 52/52/52
f 54/54/54 56/56/56 55/55/55
f 54/54/54 49/49/49 56/56/56
f 56/56/56 57/57/57 55/55/55
f 56/56/56 58/58/58 57/57/57
f 58/58/58 59/59/59 57/57/57
f 60/60/60 59/59/59 58/58/58
f 49/49/49 61/61/61 56/56/56
f 56/56/56 61/61/61 58/58/58
f 45/45/45 61/61/61 49/49/49
f 45/45/45 50/50/50 61/61/61
f 50/50/50 62/62/62 61/61/61
f 61/61/61 62/62/62 58/58/58
f 63/63/63 60/60/60 58/58/58
f 64/64/64 60/60/60 63/63/63
f 62/62/62 50/50/50 65/65/65
f 65/65/65 50/50/50 46/46/46
f 65/65/65 46/46/46 51/51/51
f 58/58/58 62/62/62 66/66/66
f 66/66/66 62/62/62 65/65/65
f 63/63/63 58/58/58 66/66/66
f 67/67/67 65/65/65 51/51/51
f 66/66/66 65/65/65 67/67/67
f 67/67/67 51/51/51 19/19/19
f 27/27/27 67/67/67 19/19/19
f 68/68/68 66/66/66 67/67/67
f 63/63/63 66/66/66 68/68/68
f 68/68/68 67/67/67 27/27/27
f 69/69/69 64/64/64 63/63/63
f 69/69/69 63/63/63 68/68/68
f 70/70/70 64/64/64 69/69/69
f 71/71/71 68/68/68 27/27/27
f 69/69/69 68/68/68 71/71/71
f 71/71/71 27/27/27 28/28/28
f 72/72/72 70/70/70 69/69/69
f 72/72/72 69/69/69 71/71/71
f 72/72/72 71/71/71 28/28/28
f 73/73/73 70/70/70 72/72/72
f 74/74/74 72/72/72 28/28/28
f 74/74/74 73/73/73 72/72/72
