g ENV_BLO_Wall_5
v -4.946095 0.02914135 0.8955526
v -4.933166 0.04207151 0.9529759
v -4.875742 0.02914135 0.965906
v -4.875742 0 0.8955526
v -4.946095 0.02914135 -0.8955526
v 4.875742 0 0.8955526
v 4.875742 0.02914135 0.965906
v -4.875742 0 -0.8955526
v 4.946095 0.02914135 0.8955526
v 4.933166 0.04207151 0.9529759
v -4.875742 0.02914135 -0.965906
v -4.933166 0.04207151 -0.9529759
v 4.875742 0.02914135 -0.965906
v 4.875742 0 -0.8955526
v 4.946095 0.02914135 -0.8955526
v 4.933166 0.04207151 -0.9529759
v 4.946095 0.09949479 -0.965906
v 4.946095 0.09949479 0.965906
v 4.875742 0.02914135 0.965906
v 4.975237 0.09949479 -0.8955526
v 4.946095 3.895991 -0.965906
v 4.975237 0.09949479 0.8955526
v 4.975237 3.895991 0.8955526
v 4.975237 3.895991 -0.8955526
v 4.946095 3.966344 -0.8955526
v 4.933166 3.953414 -0.9529759
v 4.875742 3.966344 -0.965906
v 4.946095 3.966344 0.8955526
v 4.946095 3.895991 0.965906
v 4.875742 0.09949479 0.9950474
v -4.875742 0.09949479 0.9950474
v -4.875742 0.02914135 0.965906
v 4.875742 3.895991 0.9950474
v -4.946095 0.09949479 0.965906
v -4.933166 0.04207151 0.9529759
v -4.875742 3.895991 0.9950474
v -4.946095 0.02914135 0.8955526
v 4.875742 3.966344 0.965906
v 4.933166 3.953414 0.9529759
v -4.875742 3.966344 0.965906
v 4.875742 3.966344 0.965906
v -4.946095 3.895991 0.965906
v -4.933166 3.953414 0.9529759
v -4.946095 3.966344 0.8955526
v -4.975237 0.09949479 0.8955526
v -4.975237 3.895991 0.8955526
v -4.946095 3.966344 -0.8955526
v -4.975237 0.09949479 -0.8955526
v -4.946095 0.02914135 -0.8955526
v 4.875742 3.995486 0.8955526
v -4.975237 3.895991 -0.8955526
v -4.946095 0.09949479 -0.965906
v -4.933166 0.04207151 -0.9529759
v -4.875742 0.02914135 -0.965906
v -4.946095 3.895991 -0.965906
v -4.933166 3.953414 -0.9529759
v -4.875742 3.966344 -0.965906
v -4.875742 3.995486 0.8955526
v -4.875742 3.966344 0.965906
v -4.875742 0.09949479 -0.9950474
v -4.875742 3.895991 -0.9950474
v 4.875742 0.09949479 -0.9950474
v 4.875742 3.966344 -0.965906
v 4.875742 0.02914135 -0.965906
v 4.875742 3.895991 -0.9950474
v 4.946095 0.09949479 -0.965906
v 4.933166 0.04207151 -0.9529759
v 4.946095 3.895991 -0.965906
v 4.933166 3.953414 -0.9529759
v -4.933166 3.953414 0.9529759
v -4.946095 3.966344 0.8955526
v -4.875742 3.995486 -0.8955526
v -4.946095 3.966344 -0.8955526
v 4.875742 3.995486 -0.8955526
v -4.875742 3.966344 -0.965906
v -4.933166 3.953414 -0.9529759
vt 0.3433793 0.1798908
vt 0.3427986 0.1799954
vt 0.3426917 0.1805752
vt 0.3433802 0.1805789
vt 0.3595757 0.1799629
vt 0.3429869 0.2687061
vt 0.3422974 0.2687042
vt 0.3595689 0.180651
vt 0.3429856 0.2693853
vt 0.342343 0.2694077
vt 0.3602569 0.1806534
vt 0.3601561 0.1800727
vt 0.3598766 0.2688023
vt 0.3591875 0.2687978
vt 0.3591866 0.2694847
vt 0.3597682 0.2694852
vt 0.3598807 0.2701735
vt 0.3423026 0.2700492
vt 0.3416204 0.2693426
vt 0.3591871 0.2701721
vt 0.3595863 0.3046838
vt 0.3429892 0.2700623
vt 0.3428184 0.3045405
vt 0.358893 0.3046731
vt 0.3588702 0.3053568
vt 0.3594474 0.3053711
vt 0.3595288 0.306047
vt 0.3428152 0.3052068
vt 0.3421334 0.3045482
vt 0.3416142 0.2700381
vt 0.2527331 0.2694673
vt 0.2527429 0.268773
vt 0.3414466 0.3045546
vt 0.2520223 0.2694486
vt 0.2525305 0.2685093
vt 0.2524919 0.304345
vt 0.251811 0.2667735
vt 0.3414467 0.3052506
vt 0.3421769 0.3051838
vt 0.2524885 0.3050406
vt 0.3421367 0.3058654
vt 0.2517916 0.3043557
vt 0.2518022 0.304946
vt 0.2511074 0.3050798
vt 0.251289 0.2694451
vt 0.2510908 0.3043673
vt 0.2344025 0.3052595
vt 0.2339222 0.2691621
vt 0.2338475 0.2683977
vt 0.3428169 0.3058749
vt 0.2344033 0.3045456
vt 0.2332141 0.2691745
vt 0.2331791 0.268573
vt 0.2324979 0.2684768
vt 0.2336978 0.3045529
vt 0.2337029 0.3051516
vt 0.2330039 0.3052703
vt 0.341746 0.3927908
vt 0.3410672 0.392783
vt 0.2325068 0.2691863
vt 0.2329923 0.3045609
vt 0.1417376 0.2704779
vt 0.1422434 0.3065274
vt 0.1417268 0.2697691
vt 0.1422345 0.3058187
vt 0.1410288 0.2704862
vt 0.1411312 0.2698873
vt 0.1415255 0.3058307
vt 0.1416453 0.3064271
vt 0.3411617 0.3933533
vt 0.3417335 0.3934689
vt 0.3577141 0.3929921
vt 0.3577093 0.3936701
vt 0.3588488 0.3060397
vt 0.3583931 0.3930014
vt 0.3582826 0.3935694
vn -0.7070656 -0.7070688 0.01057061
vn -0.5773503 -0.5773501 0.5773504
vn -0.001986889 -0.7071055 0.7071053
vn -0.002928067 -0.9998738 0.01561548
vn -0.7070656 -0.7070688 -0.01057061
vn 0.002928067 -0.9998738 0.01561548
vn 0.001986888 -0.7071055 0.7071053
vn -0.002928067 -0.9998738 -0.01561548
vn 0.7070656 -0.7070688 0.01057061
vn 0.5773507 -0.5773497 0.5773504
vn -0.001986888 -0.7071055 -0.7071053
vn -0.5773507 -0.5773497 -0.5773504
vn 0.001986889 -0.7071055 -0.7071053
vn 0.002928067 -0.9998738 -0.01561548
vn 0.7070656 -0.7070688 -0.01057061
vn 0.5773503 -0.5773501 -0.5773504
vn 0.7070972 -0.005061739 -0.7070982
vn 0.7070972 -0.005061726 0.7070982
vn 0.001986888 -0.7071055 0.7071053
vn 0.9998513 -0.007438007 -0.01555716
vn 0.7070972 0.005061722 -0.7070982
vn 0.9998513 -0.007438005 0.01555716
vn 0.9998513 0.007438006 0.01555716
vn 0.9998513 0.007438005 -0.01555716
vn 0.7070653 0.7070692 -0.01057068
vn 0.577351 0.5773503 -0.5773495
vn 0.00198689 0.7071052 -0.7071055
vn 0.7070652 0.7070692 0.01057065
vn 0.7070972 0.005061738 0.7070982
vn 0.00294834 -0.007517554 0.9999675
vn -0.00294834 -0.007517554 0.9999675
vn -0.001986889 -0.7071055 0.7071053
vn 0.00294834 0.007517554 0.9999675
vn -0.7070972 -0.005061739 0.7070982
vn -0.5773503 -0.5773501 0.5773504
vn -0.00294834 0.007517554 0.9999675
vn -0.7070656 -0.7070688 0.01057061
vn 0.001986893 0.7071053 0.7071055
vn 0.5773507 0.5773511 0.577349
vn -0.00198689 0.7071052 0.7071055
vn 0.001986893 0.7071053 0.7071055
vn -0.7070972 0.005061722 0.7070982
vn -0.577351 0.5773503 0.5773495
vn -0.7070653 0.7070692 0.01057068
vn -0.9998513 -0.007438007 0.01555716
vn -0.9998513 0.007438005 0.01555716
vn -0.7070652 0.7070692 -0.01057065
vn -0.9998513 -0.007438005 -0.01555716
vn -0.7070656 -0.7070688 -0.01057061
vn 0.002928075 0.9998738 0.01561551
vn -0.9998513 0.007438006 -0.01555716
vn -0.7070972 -0.005061726 -0.7070982
vn -0.5773507 -0.5773497 -0.5773504
vn -0.001986888 -0.7071055 -0.7071053
vn -0.7070972 0.005061738 -0.7070982
vn -0.5773507 0.5773511 -0.5773489
vn -0.001986893 0.7071053 -0.7071055
vn -0.002928075 0.9998738 0.01561551
vn -0.00198689 0.7071052 0.7071055
vn -0.00294834 -0.007517554 -0.9999675
vn -0.00294834 0.007517554 -0.9999675
vn 0.00294834 -0.007517554 -0.9999675
vn 0.00198689 0.7071052 -0.7071055
vn 0.001986889 -0.7071055 -0.7071053
vn 0.00294834 0.007517554 -0.9999675
vn 0.7070972 -0.005061739 -0.7070982
vn 0.5773503 -0.5773501 -0.5773504
vn 0.7070972 0.005061722 -0.7070982
vn 0.577351 0.5773503 -0.5773495
vn -0.577351 0.5773503 0.5773495
vn -0.7070653 0.7070692 0.01057068
vn -0.002928075 0.9998738 -0.01561551
vn -0.7070652 0.7070692 -0.01057065
vn 0.002928075 0.9998738 -0.01561551
vn -0.001986893 0.7071053 -0.7071055
vn -0.5773507 0.5773511 -0.5773489
g ENV_BLO_Wall_5_0
f 3/3/3 2/2/2 1/1/1
f 4/4/4 3/3/3 1/1/1
f 1/1/1 5/5/5 4/4/4
f 4/4/4 6/6/6 3/3/3
f 6/6/6 7/7/7 3/3/3
f 5/5/5 8/8/8 4/4/4
f 6/6/6 4/4/4 8/8/8
f 6/6/6 9/9/9 7/7/7
f 9/9/9 10/10/10 7/7/7
f 8/8/8 5/5/5 11/11/11
f 5/5/5 12/12/12 11/11/11
f 11/11/11 13/13/13 8/8/8
f 14/14/14 6/6/6 8/8/8
f 13/13/13 14/14/14 8/8/8
f 6/6/6 14/14/14 9/9/9
f 14/14/14 13/13/13 15/15/15
f 14/14/14 15/15/15 9/9/9
f 13/13/13 16/16/16 15/15/15
f 15/15/15 16/16/16 17/17/17
f 18/18/18 10/10/10 9/9/9
f 19/19/19 10/10/10 18/18/18
f 20/20/20 15/15/15 17/17/17
f 17/17/17 21/21/21 20/20/20
f 9/9/9 15/15/15 22/22/22
f 22/22/22 18/18/18 9/9/9
f 15/15/15 20/20/20 22/22/22
f 23/23/23 22/22/22 20/20/20
f 22/22/22 23/23/23 18/18/18
f 21/21/21 24/24/24 20/20/20
f 24/24/24 23/23/23 20/20/20
f 24/24/24 21/21/21 25/25/25
f 21/21/21 26/26/26 25/25/25
f 25/25/25 26/26/26 27/27/27
f 23/23/23 24/24/24 28/28/28
f 24/24/24 25/25/25 28/28/28
f 23/23/23 29/29/29 18/18/18
f 23/23/23 28/28/28 29/29/29
f 30/30/30 19/19/19 18/18/18
f 18/18/18 29/29/29 30/30/30
f 19/19/19 30/30/30 31/31/31
f 32/32/32 19/19/19 31/31/31
f 29/29/29 33/33/33 30/30/30
f 31/31/31 34/34/34 32/32/32
f 34/34/34 35/35/35 32/32/32
f 31/31/31 36/36/36 34/34/34
f 37/37/37 35/35/35 34/34/34
f 33/33/33 29/29/29 38/38/38
f 29/29/29 39/39/39 38/38/38
f 28/28/28 39/39/39 29/29/29
f 33/33/33 38/38/38 40/40/40
f 36/36/36 33/33/33 40/40/40
f 41/41/41 39/39/39 28/28/28
f 36/36/36 40/40/40 42/42/42
f 36/36/36 42/42/42 34/34/34
f 40/40/40 43/43/43 42/42/42
f 42/42/42 43/43/43 44/44/44
f 45/45/45 37/37/37 34/34/34
f 34/34/34 42/42/42 45/45/45
f 46/46/46 42/42/42 44/44/44
f 42/42/42 46/46/46 45/45/45
f 44/44/44 47/47/47 46/46/46
f 45/45/45 48/48/48 37/37/37
f 45/45/45 46/46/46 48/48/48
f 48/48/48 49/49/49 37/37/37
f 50/50/50 41/41/41 28/28/28
f 28/28/28 25/25/25 50/50/50
f 47/47/47 51/51/51 46/46/46
f 46/46/46 51/51/51 48/48/48
f 48/48/48 52/52/52 49/49/49
f 48/48/48 51/51/51 52/52/52
f 52/52/52 53/53/53 49/49/49
f 54/54/54 53/53/53 52/52/52
f 51/51/51 47/47/47 55/55/55
f 51/51/51 55/55/55 52/52/52
f 47/47/47 56/56/56 55/55/55
f 55/55/55 56/56/56 57/57/57
f 41/41/41 50/50/50 58/58/58
f 59/59/59 41/41/41 58/58/58
f 60/60/60 54/54/54 52/52/52
f 52/52/52 55/55/55 60/60/60
f 61/61/61 55/55/55 57/57/57
f 55/55/55 61/61/61 60/60/60
f 60/60/60 62/62/62 54/54/54
f 57/57/57 63/63/63 61/61/61
f 62/62/62 64/64/64 54/54/54
f 63/63/63 65/65/65 61/61/61
f 62/62/62 66/66/66 64/64/64
f 62/62/62 65/65/65 66/66/66
f 66/66/66 67/67/67 64/64/64
f 65/65/65 68/68/68 66/66/66
f 65/65/65 63/63/63 68/68/68
f 63/63/63 69/69/69 68/68/68
f 71/71/71 70/70/70 59/59/59
f 58/58/58 71/71/71 59/59/59
f 58/58/58 72/72/72 71/71/71
f 72/72/72 73/73/73 71/71/71
f 74/74/74 72/72/72 58/58/58
f 50/50/50 74/74/74 58/58/58
f 25/25/25 74/74/74 50/50/50
f 74/74/74 25/25/25 27/27/27
f 74/74/74 27/27/27 75/75/75
f 72/72/72 74/74/74 75/75/75
f 72/72/72 75/75/75 73/73/73
f 75/75/75 76/76/76 73/73/73
g ENV_BLO_Wall_5_1
f 61/61/61 65/65/65 62/62/62
f 60/60/60 61/61/61 62/62/62
f 36/36/36 31/31/31 30/30/30
f 33/33/33 36/36/36 30/30/30
