g ENV_DF_ConveyorSides_Collision
v -21.34262 1.209356 -5.438425
v -21.36484 3.199453 -21.21716
v -21.3458 5.995459 -12.92364
v -21.3458 5.995459 -12.92364
v -21.36484 3.199453 -21.21716
v -14.09069 2.209895 -13.36705
v -14.09069 2.209895 -13.36705
v -21.36484 3.199453 -21.21716
v -21.34262 1.209356 -5.438425
v -14.09069 2.209895 -13.36705
v -21.34262 1.209356 -5.438425
v -21.3458 5.995459 -12.92364
v -21.27085 -2.097596 19.1998
v -21.29306 -0.1074986 3.421065
v -21.27403 2.688507 11.71459
v -21.27403 2.688507 11.71459
v -21.29306 -0.1074986 3.421065
v -14.01892 -1.097057 11.27117
v -14.01892 -1.097057 11.27117
v -21.29306 -0.1074986 3.421065
v -21.27085 -2.097596 19.1998
v -14.01892 -1.097057 11.27117
v -21.27085 -2.097596 19.1998
v -21.27403 2.688507 11.71459
v -22.05754 4.011653 -26.42528
v -21.49671 5.365286 -36.86112
v -21.47768 11.60141 -36.21361
v -21.47768 11.60141 -36.21361
v -21.49671 5.365286 -36.86112
v -10.59677 5.466865 -37.5463
v -10.59677 5.466865 -37.5463
v -21.49671 5.365286 -36.86112
v -22.05754 4.011653 -26.42528
v -10.59677 5.466865 -37.5463
v -22.05754 4.011653 -26.42528
v -21.47768 11.60141 -36.21361
v 21.43497 -0.2463779 6.061985
v 21.43815 4.539725 -1.423229
v 21.45718 1.74372 -9.716753
v 21.43815 4.539725 -1.423229
v 14.18304 0.7541609 -1.866645
v 21.45718 1.74372 -9.716753
v 14.18304 0.7541609 -1.866645
v 21.43497 -0.2463779 6.061985
v 21.45718 1.74372 -9.716753
v 14.18304 0.7541609 -1.866645
v 21.43815 4.539725 -1.423229
v 21.43497 -0.2463779 6.061985
v 21.43497 -3.400632 29.76315
v 21.43815 1.385471 22.27794
v 21.45718 -1.410535 13.98441
v 21.43815 1.385471 22.27794
v 14.18304 -2.400093 21.83452
v 21.45718 -1.410535 13.98441
v 14.18304 -2.400093 21.83452
v 21.43497 -3.400632 29.76315
v 21.45718 -1.410535 13.98441
v 14.18304 -2.400093 21.83452
v 21.43815 1.385471 22.27794
v 21.43497 -3.400632 29.76315
v 21.88157 4.011653 -26.42528
v 21.3017 11.60141 -36.21361
v 21.32074 5.365286 -36.86112
v 21.3017 11.60141 -36.21361
v 10.4208 5.466865 -37.5463
v 21.32074 5.365286 -36.86112
v 10.4208 5.466865 -37.5463
v 21.88157 4.011653 -26.42528
v 21.32074 5.365286 -36.86112
v 10.4208 5.466865 -37.5463
v 21.3017 11.60141 -36.21361
v 21.88157 4.011653 -26.42528
vt 0.375 0
vt 0.6250075 1.312175E-05
vt 0.5 0.2499928
vt 0.5 0.4745875
vt 0.660684 0.9999681
vt 0.375 0.75
vt 0.375 0.75
vt 0.660684 0.9999681
vt 0.375 1
vt 0.125 0
vt 0.375 0
vt 0.5 0.2499928
vt 0.375 0
vt 0.6250075 1.312175E-05
vt 0.5 0.2499928
vt 0.5 0.4745875
vt 0.660684 0.9999681
vt 0.375 0.75
vt 0.375 0.75
vt 0.660684 0.9999681
vt 0.375 1
vt 0.125 0
vt 0.375 0
vt 0.5 0.2499928
vt 0.375 0
vt 0.6250075 1.312175E-05
vt 0.5 0.2499928
vt 0.5 0.4745875
vt 0.660684 0.9999681
vt 0.375 0.75
vt 0.375 0.75
vt 0.660684 0.9999681
vt 0.375 1
vt 0.125 0
vt 0.375 0
vt 0.5 0.2499928
vt 0.375 0
vt 0.5 0.2499928
vt 0.6250075 1.312175E-05
vt 0.5 0.4745875
vt 0.375 0.75
vt 0.660684 0.9999681
vt 0.375 0.75
vt 0.375 1
vt 0.660684 0.9999681
vt 0.125 0
vt 0.5 0.2499928
vt 0.375 0
vt 0.375 0
vt 0.5 0.2499928
vt 0.6250075 1.312175E-05
vt 0.5 0.4745875
vt 0.375 0.75
vt 0.660684 0.9999681
vt 0.375 0.75
vt 0.375 1
vt 0.660684 0.9999681
vt 0.125 0
vt 0.5 0.2499928
vt 0.375 0
vt 0.375 0
vt 0.5 0.2499928
vt 0.6250075 1.312175E-05
vt 0.5 0.4745875
vt 0.375 0.75
vt 0.660684 0.9999681
vt 0.375 0.75
vt 0.375 1
vt 0.660684 0.9999681
vt 0.125 0
vt 0.5 0.2499928
vt 0.375 0
vn -0.9999968 0.001914945 0.001649559
vn -0.9999968 0.001914946 0.001649559
vn -0.9999968 0.001914945 0.001649559
vn 0.4288205 0.8557519 -0.289485
vn 0.4288205 0.8557519 -0.289485
vn 0.4288205 0.8557519 -0.289485
vn 7.351303E-05 -0.9921399 -0.125134
vn 7.351302E-05 -0.9921399 -0.125134
vn 7.351302E-05 -0.9921399 -0.125134
vn 0.4272566 0.7618104 0.4869259
vn 0.4272566 0.7618103 0.4869259
vn 0.4272566 0.7618103 0.4869259
vn -0.9999968 0.001915952 0.001649559
vn -0.9999968 0.001915952 0.001649559
vn -0.9999968 0.001915952 0.001649559
vn 0.428821 0.8557518 -0.289485
vn 0.428821 0.8557518 -0.289485
vn 0.428821 0.8557518 -0.289485
vn 7.349653E-05 -0.9921399 -0.125134
vn 7.349653E-05 -0.9921399 -0.125134
vn 7.349653E-05 -0.9921399 -0.125134
vn 0.4272567 0.7618103 0.4869259
vn 0.4272567 0.7618102 0.4869259
vn 0.4272567 0.7618102 0.4869259
vn -0.9985814 0.008505736 -0.05256138
vn -0.9985814 0.008505736 -0.05256138
vn -0.9985814 0.008505735 -0.05256137
vn -0.06336039 0.1032614 -0.9926341
vn -0.06336039 0.1032614 -0.9926341
vn -0.06336039 0.1032614 -0.9926341
vn 0.00115973 -0.9916997 -0.128571
vn 0.00115973 -0.9916997 -0.128571
vn 0.00115973 -0.9916997 -0.128571
vn 0.4574671 0.6893986 0.5616524
vn 0.4574672 0.6893986 0.5616524
vn 0.4574672 0.6893986 0.5616524
vn 0.9999968 0.001915448 0.001649559
vn 0.9999968 0.001915448 0.001649559
vn 0.9999968 0.001915448 0.001649559
vn -0.4288209 0.8557517 -0.2894851
vn -0.4288209 0.8557517 -0.289485
vn -0.4288209 0.8557517 -0.2894851
vn -7.352955E-05 -0.9921399 -0.125134
vn -7.352955E-05 -0.9921399 -0.125134
vn -7.352955E-05 -0.9921399 -0.125134
vn -0.4272565 0.7618104 0.4869258
vn -0.4272565 0.7618104 0.4869259
vn -0.4272565 0.7618104 0.4869258
vn 0.9999968 0.001914945 0.001649559
vn 0.9999968 0.001914945 0.001649559
vn 0.9999968 0.001914945 0.001649559
vn -0.4288207 0.8557519 -0.2894848
vn -0.4288207 0.8557519 -0.2894849
vn -0.4288207 0.8557519 -0.2894849
vn -7.348E-05 -0.9921399 -0.125134
vn -7.347998E-05 -0.9921399 -0.125134
vn -7.347999E-05 -0.9921399 -0.125134
vn -0.4272565 0.7618105 0.4869258
vn -0.4272565 0.7618104 0.4869259
vn -0.4272565 0.7618105 0.4869259
vn 0.9985814 0.008505731 -0.05256135
vn 0.9985814 0.008505732 -0.05256135
vn 0.9985814 0.008505732 -0.05256135
vn 0.06336039 0.1032615 -0.9926341
vn 0.06336039 0.1032615 -0.9926341
vn 0.06336039 0.1032615 -0.9926341
vn -0.001159747 -0.9916997 -0.128571
vn -0.001159747 -0.9916997 -0.128571
vn -0.001159747 -0.9916997 -0.128571
vn -0.4574671 0.6893986 0.5616524
vn -0.4574671 0.6893986 0.5616524
vn -0.4574671 0.6893986 0.5616524
g ENV_DF_ConveyorSides_Collision_0
f 3/3/3 2/2/2 1/1/1
f 6/6/6 5/5/5 4/4/4
f 9/9/9 8/8/8 7/7/7
f 12/12/12 11/11/11 10/10/10
f 15/15/15 14/14/14 13/13/13
f 18/18/18 17/17/17 16/16/16
f 21/21/21 20/20/20 19/19/19
f 24/24/24 23/23/23 22/22/22
f 27/27/27 26/26/26 25/25/25
f 30/30/30 29/29/29 28/28/28
f 33/33/33 32/32/32 31/31/31
f 36/36/36 35/35/35 34/34/34
f 39/39/39 38/38/38 37/37/37
f 42/42/42 41/41/41 40/40/40
f 45/45/45 44/44/44 43/43/43
f 48/48/48 47/47/47 46/46/46
f 51/51/51 50/50/50 49/49/49
f 54/54/54 53/53/53 52/52/52
f 57/57/57 56/56/56 55/55/55
f 60/60/60 59/59/59 58/58/58
f 63/63/63 62/62/62 61/61/61
f 66/66/66 65/65/65 64/64/64
f 69/69/69 68/68/68 67/67/67
f 72/72/72 71/71/71 70/70/70
