g ENV_Door_B_Mid_col
v -5.451381 0.619646 1.82346
v -5.451381 0.619646 -0.6202546
v -0.7029524 0.619646 -0.6202546
v -0.7029524 0.619646 1.82346
v -6.137446 -7.629394E-08 -0.6202546
v -0.7029524 0.619646 -0.6202546
v -5.451381 0.619646 -0.6202546
v 0 0 -0.6202546
v -0.7029524 5.023634 -0.6202546
v -0.7029524 0.619646 -0.6202546
v 0 6.759874 -0.6202546
v -5.451381 5.023634 -0.6202546
v -6.137446 6.759874 -0.6202546
v -6.137446 -7.629394E-08 1.82346
v 0 0 1.82346
v 0 0 -0.6202546
v -6.137446 -7.629394E-08 -0.6202546
v -6.137446 -7.629394E-08 1.82346
v -6.137446 6.759874 1.82346
v -5.451381 5.023634 1.82346
v -5.451381 0.619646 1.82346
v 0 0 1.82346
v -0.7029524 0.619646 1.82346
v 0 6.759874 1.82346
v -0.7029524 5.023634 1.82346
v -6.137446 6.759874 1.82346
v -5.451381 5.023634 1.82346
v -5.451381 0.619646 1.82346
v -5.451381 5.023634 1.82346
v -5.451381 5.023634 -0.6202546
v -5.451381 0.619646 -0.6202546
v -5.451381 0.619646 -0.6202546
v -5.451381 5.023634 -0.6202546
v -6.137446 6.759874 -0.6202546
v -6.137446 -7.629394E-08 -0.6202546
v -6.137446 -7.629394E-08 -0.6202546
v -6.137446 6.759874 -0.6202546
v -6.137446 6.759874 1.82346
v -6.137446 -7.629394E-08 1.82346
v 0 0 1.82346
v 0 6.759874 1.82346
v 0 6.759874 -0.6202546
v 0 0 -0.6202546
v -0.7029524 0.619646 -0.6202546
v -0.7029524 5.023634 -0.6202546
v -0.7029524 5.023634 1.82346
v -0.7029524 0.619646 1.82346
v -5.451381 5.023634 1.82346
v -0.7029524 5.023634 1.82346
v -0.7029524 5.023634 -0.6202546
v -5.451381 5.023634 -0.6202546
v -6.137446 6.759874 -0.6202546
v 0 6.759874 -0.6202546
v 0 6.759874 1.82346
v -6.137446 6.759874 1.82346
vt 0.2157533 0.6977688
vt 0.4067155 0.6977688
vt 0.4067155 0.4195307
vt 0.2157533 0.4195307
vt 0.3691926 0.4155393
vt 0.3315437 0.04922469
vt 0.3315437 0.3274628
vt 0.3691926 0.001847944
vt 0.1074839 0.04922469
vt 0.3315437 0.04922469
vt 0.001992046 0.001847944
vt 0.1074839 0.3274628
vt 0.001992046 0.4155393
vt 0.5673479 0.4155393
vt 0.5673479 0.001847944
vt 0.3763858 0.001847944
vt 0.3763858 0.4155393
vt 0.575179 0.4155392
vt 0.9423796 0.4155392
vt 0.8368878 0.3274628
vt 0.6128279 0.3274628
vt 0.575179 0.001847957
vt 0.6128279 0.04922473
vt 0.9423796 0.001847957
vt 0.8368878 0.04922473
vt 0.9423796 0.4155392
vt 0.8368878 0.3274628
vt 0.001992032 0.7017603
vt 0.001992032 0.9258201
vt 0.1929542 0.9258201
vt 0.1929542 0.7017603
vt 0.3315437 0.3274628
vt 0.1074839 0.3274628
vt 0.001992046 0.4155393
vt 0.3691926 0.4155393
vt 0.6099482 0.4195307
vt 0.6099482 0.7867313
vt 0.8009104 0.7867313
vt 0.8009104 0.4195307
vt 0.4128507 0.4195307
vt 0.4128507 0.7867313
vt 0.6038129 0.7867313
vt 0.6038129 0.4195307
vt 0.2009801 0.7017603
vt 0.2009801 0.9258201
vt 0.3919423 0.9258201
vt 0.3919423 0.7017603
vt 0.2096179 0.6977688
vt 0.2096179 0.4195307
vt 0.01865572 0.4195307
vt 0.01865572 0.6977688
vt 0.9980081 0.833222
vt 0.9980081 0.4195307
vt 0.8070458 0.4195307
vt 0.8070458 0.833222
vn 0 1 0
vn 0 1 0
vn 0 1 0
vn 0 1 0
vn 0 0 -1
vn 0 0 -1
vn 0 0 -1
vn 0 0 -1
vn 0 0 -1
vn 0 0 -1
vn 0 0 -1
vn 0 0 -1
vn 0 0 -1
vn 0 -1 0
vn 0 -1 0
vn 0 -1 0
vn 0 -1 0
vn -1.036925E-07 0 1
vn -1.798269E-07 0 1
vn -1.798269E-07 0 1
vn 0 0 1
vn 0 0 1
vn 0 0 1
vn 0 0 1
vn 0 0 1
vn 0 0 1
vn 0 0 1
vn 1 0 0
vn 1 0 0
vn 1 0 0
vn 1 0 0
vn 0 0 -1
vn 0 0 -1
vn 0 0 -1
vn 0 0 -1
vn -1 0 0
vn -1 0 0
vn -1 0 0
vn -1 0 0
vn 1 0 0
vn 1 0 0
vn 1 0 0
vn 1 0 0
vn -1 0 0
vn -1 0 0
vn -1 0 0
vn -1 0 0
vn 0 -1 0
vn 0 -1 0
vn 0 -1 0
vn 0 -1 0
vn 0 1 0
vn 0 1 0
vn 0 1 0
vn 0 1 0
g ENV_Door_B_Mid_col_0
f 3/3/3 2/2/2 1/1/1
f 4/4/4 3/3/3 1/1/1
f 7/7/7 6/6/6 5/5/5
f 6/6/6 8/8/8 5/5/5
f 10/10/10 9/9/9 8/8/8
f 9/9/9 11/11/11 8/8/8
f 11/11/11 9/9/9 12/12/12
f 13/13/13 11/11/11 12/12/12
f 16/16/16 15/15/15 14/14/14
f 17/17/17 16/16/16 14/14/14
f 20/20/20 19/19/19 18/18/18
f 21/21/21 20/20/20 18/18/18
f 18/18/18 22/22/22 21/21/21
f 22/22/22 23/23/23 21/21/21
f 22/22/22 24/24/24 23/23/23
f 24/24/24 25/25/25 23/23/23
f 25/25/25 24/24/24 26/26/26
f 27/27/27 25/25/25 26/26/26
f 30/30/30 29/29/29 28/28/28
f 31/31/31 30/30/30 28/28/28
f 34/34/34 33/33/33 32/32/32
f 35/35/35 34/34/34 32/32/32
f 38/38/38 37/37/37 36/36/36
f 39/39/39 38/38/38 36/36/36
f 42/42/42 41/41/41 40/40/40
f 43/43/43 42/42/42 40/40/40
f 46/46/46 45/45/45 44/44/44
f 47/47/47 46/46/46 44/44/44
f 50/50/50 49/49/49 48/48/48
f 51/51/51 50/50/50 48/48/48
f 54/54/54 53/53/53 52/52/52
f 55/55/55 54/54/54 52/52/52
