g ENV_Ramp_COL
v -2.977412 -7.233169 0.02094107
v 1.736319 2.211447 1.675065
v 3.24203 2.223287 0.1302243
v -3.325187 -6.046627 1.666792
v -3.37975 -5.898025 1.746176
v 1.568166 2.210747 1.746199
v -4.148167 -7.029624 1.667865
v -3.960668 -8.302037 0.01792003
v -4.18363 -6.873993 1.746162
v -3.37975 -5.898025 1.746176
v -5.338143 -7.826649 1.670683
v -5.260487 -9.241049 0.01287538
v -6.68239 -9.550536 0.007201326
v -6.682391 -8.035086 1.672729
v -6.682391 -7.869405 1.746157
v -5.355021 -7.664285 1.746155
v -5.355021 -7.664285 1.746155
v -4.18363 -6.873993 1.746162
v -7.800939 -7.876457 1.670683
v -6.682391 -8.035086 1.672729
v -6.68239 -9.550536 0.007201326
v -7.878594 -9.290856 0.01287538
v -9.367486 -8.352205 0.01792003
v -9.179989 -7.079791 1.667865
v -10.40212 -7.197214 0.02094107
v -9.145018 -6.924026 1.746161
v -7.786333 -7.71381 1.746155
v -10.05434 -6.010673 1.666792
v -9.999492 -5.862189 1.746177
v -9.145018 -6.924026 1.746161
v -15.1011 2.105302 1.675065
v -16.60681 2.117142 0.1302243
v -14.93295 2.104602 1.746199
v -9.999492 -5.862189 1.746177
v -15.1011 2.211447 1.675065
v -16.60681 2.223287 0.1302243
v -7.786333 -7.71381 1.746155
v -6.682391 -7.869405 1.746157
v -6.682391 -8.035086 1.672729
v -7.800939 -7.876457 1.670683
v -15.1011 2.105302 1.675065
v -15.1011 2.211447 1.675065
v -14.93295 2.210747 1.746199
v -14.93295 2.104602 1.746199
v -6.68239 2.197699 1.764201
v -6.68239 2.091554 1.764201
v -9.999492 -5.862189 1.746177
v 1.568166 2.210747 1.746199
v -9.145018 -6.924026 1.746161
v -3.37975 -5.898025 1.746176
v -7.786333 -7.71381 1.746155
v -4.18363 -6.873993 1.746162
v -6.682391 -7.869405 1.746157
v -5.355021 -7.664285 1.746155
vt 0.7709307 0.2984457
vt 0.8774798 0.01276776
vt 0.7709306 0.01251587
vt 0.877175 0.2984046
vt 0.8834256 0.2967519
vt 0.8835804 0.01441175
vt 0.8772482 0.338577
vt 0.7709307 0.3386275
vt 0.88379 0.3368827
vt 0.8839092 0.2970376
vt 0.8775284 0.3936318
vt 0.7709307 0.3936577
vt 0.7709307 0.4329362
vt 0.8777542 0.4329279
vt 0.8844125 0.4322679
vt 0.8843534 0.3933546
vt 0.8847347 0.3917549
vt 0.8847826 0.3371713
vt 0.8776608 0.3930599
vt 0.8777465 0.4329364
vt 0.7709307 0.4329362
vt 0.7709307 0.3930832
vt 0.7709307 0.3380638
vt 0.8773643 0.3380185
vt 0.7709307 0.2978937
vt 0.8778211 0.3369342
vt 0.8781651 0.3914864
vt 0.877183 0.2978708
vt 0.8783408 0.2965632
vt 0.8787527 0.3363896
vt 0.8775128 0.01235028
vt 0.7709307 0.01205657
vt 0.878534 0.01402827
vt 0.8785873 0.2962205
vt 0.8775128 0.01235028
vt 0.7709307 0.01205657
vt 0.8776757 0.3926535
vt 0.8776574 0.4321423
vt 0.8777465 0.4329364
vt 0.8776608 0.3930599
vt 0.03959006 0.9841217
vt 0.03959006 0.9841217
vt 0.03362077 0.984166
vt 0.03362077 0.984166
vt 0.2177728 0.9827976
vt 0.2177728 0.9827976
vt 0.03686627 0.5818864
vt 0.4762286 0.9872891
vt 0.07909253 0.5240079
vt 0.4695767 0.5966428
vt 0.2045082 0.5170131
vt 0.4132262 0.5208683
vt 0.2586385 0.51789
vt 0.3114911 0.5185027
vn 0.6612141 -0.5193065 0.5414024
vn 0.6105652 -0.3876431 0.6906105
vn 0.6932842 -0.4452569 0.5666598
vn 0.5573495 -0.4117348 0.7209966
vn 0.2223334 -0.1519336 0.9630597
vn 0.289481 -0.1773357 0.9406129
vn 0.4627579 -0.5102038 0.7249463
vn 0.5353942 -0.631007 0.5614119
vn 0.1950528 -0.1968701 0.9608312
vn 0.2223334 -0.1519336 0.9630597
vn 0.2514334 -0.5875083 0.7691653
vn 0.2792547 -0.7212346 0.6339065
vn 0.002483228 -0.7485287 0.6630978
vn 0.00269333 -0.6049896 0.7962288
vn 0.001603969 -0.2294422 0.973321
vn 0.1026253 -0.2315352 0.9673983
vn 0.1026253 -0.2315352 0.9673983
vn 0.1950528 -0.1968701 0.9608312
vn -0.2250137 -0.5921561 0.7737699
vn 0.00269333 -0.6049896 0.7962288
vn 0.002483228 -0.7485287 0.6630978
vn -0.2566669 -0.7271664 0.6366719
vn -0.5112742 -0.6432428 0.5699451
vn -0.4496204 -0.519042 0.7269366
vn -0.6652622 -0.516661 0.5389689
vn -0.194168 -0.2024587 0.9598486
vn -0.08910058 -0.2310033 0.9688646
vn -0.5592367 -0.410765 0.7200878
vn -0.2216627 -0.1515925 0.963268
vn -0.194168 -0.2024587 0.9598486
vn -0.598645 -0.195724 0.7767344
vn -0.7249661 -0.1974894 0.6598653
vn -0.244996 -0.08924688 0.9654077
vn -0.2216627 -0.1515925 0.963268
vn -0.5644872 0 0.8254418
vn -0.7161183 0 0.6979789
vn -0.08910058 -0.2310033 0.9688646
vn 0.001603969 -0.2294422 0.973321
vn 0.00269333 -0.6049896 0.7962288
vn -0.2250137 -0.5921561 0.7737699
vn -0.598645 -0.195724 0.7767344
vn -0.5644872 0 0.8254418
vn -0.2001779 0 0.9797595
vn -0.244996 -0.08924688 0.9654077
vn 9.595984E-06 -0.0006642783 0.9999998
vn 7.669206E-06 -0.001045433 0.9999995
vn -0.2216627 -0.1515925 0.963268
vn 0.289481 -0.1773357 0.9406129
vn -0.194168 -0.2024587 0.9598486
vn 0.2223334 -0.1519336 0.9630597
vn -0.08910058 -0.2310033 0.9688646
vn 0.1950528 -0.1968701 0.9608312
vn 0.001603969 -0.2294422 0.973321
vn 0.1026253 -0.2315352 0.9673983
g ENV_Ramp_COL_0
f 3/3/3 2/2/2 1/1/1
f 2/2/2 4/4/4 1/1/1
f 4/4/4 2/2/2 5/5/5
f 2/2/2 6/6/6 5/5/5
f 1/1/1 4/4/4 7/7/7
f 8/8/8 1/1/1 7/7/7
f 7/7/7 4/4/4 9/9/9
f 4/4/4 10/10/10 9/9/9
f 8/8/8 7/7/7 11/11/11
f 12/12/12 8/8/8 11/11/11
f 13/13/13 12/12/12 11/11/11
f 14/14/14 13/13/13 11/11/11
f 14/14/14 11/11/11 15/15/15
f 11/11/11 16/16/16 15/15/15
f 11/11/11 7/7/7 17/17/17
f 7/7/7 18/18/18 17/17/17
f 21/21/21 20/20/20 19/19/19
f 22/22/22 21/21/21 19/19/19
f 22/22/22 19/19/19 23/23/23
f 19/19/19 24/24/24 23/23/23
f 23/23/23 24/24/24 25/25/25
f 24/24/24 19/19/19 26/26/26
f 19/19/19 27/27/27 26/26/26
f 24/24/24 28/28/28 25/25/25
f 28/28/28 24/24/24 29/29/29
f 24/24/24 30/30/30 29/29/29
f 25/25/25 28/28/28 31/31/31
f 32/32/32 25/25/25 31/31/31
f 31/31/31 28/28/28 33/33/33
f 28/28/28 34/34/34 33/33/33
f 31/31/31 35/35/35 32/32/32
f 35/35/35 36/36/36 32/32/32
f 39/39/39 38/38/38 37/37/37
f 40/40/40 39/39/39 37/37/37
f 43/43/43 42/42/42 41/41/41
f 44/44/44 43/43/43 41/41/41
f 45/45/45 43/43/43 44/44/44
f 46/46/46 45/45/45 44/44/44
f 44/44/44 47/47/47 46/46/46
f 48/48/48 45/45/45 46/46/46
f 49/49/49 46/46/46 47/47/47
f 50/50/50 48/48/48 46/46/46
f 51/51/51 46/46/46 49/49/49
f 52/52/52 50/50/50 46/46/46
f 53/53/53 46/46/46 51/51/51
f 54/54/54 52/52/52 46/46/46
f 53/53/53 54/54/54 46/46/46
