g ENV_Ramp_Short02_MO
v -2.5 0 1.5
v -2.5 2 1.5
v 2.5 0 1.5
v -2.5 2 -1.5
v -2.5 0 -1.5
v 2.5 0 -1.5
v -2.5 2 -1.5
v 2.5 0 -1.5
v 2.5 0 1.5
v -2.5 2 1.5
v -2.5 0 -1.5
v -2.5 0 1.5
v 2.5 0 1.5
v 2.5 0 -1.5
v -2.5 0 -1.5
v -2.5 2 -1.5
v -2.5 2 1.5
v -2.5 0 1.5
vt 2.980232E-08 0
vt -7.718309E-09 2
vt 5 4.749448E-08
vt 10 1
vt 10 -0.9999995
vt 5.000005 -0.9999995
vt 2.999999 4.382227
vt 2.999999 -1
vt -2.975716E-07 -0.9999998
vt 0 4.382227
vt 1.001024E-07 -2
vt 2.980232E-08 1
vt 5 1
vt 5 -2
vt -1.999999 4.53866E-08
vt -1.999999 2
vt 0.9999999 2
vt 0.9999999 0
vn 0 0 1
vn 0 0 1
vn 0 0 1
vn 0 0 -1
vn 0 0 -1
vn 0 0 -1
vn 0.3713907 0.9284768 0
vn 0.3713907 0.9284768 0
vn 0.3713907 0.9284768 0
vn 0.3713907 0.9284768 0
vn 0 -1 0
vn 0 -1 0
vn 0 -1 0
vn 0 -1 0
vn -1 0 0
vn -1 0 0
vn -1 0 0
vn -1 0 0
g ENV_Ramp_Short02_MO_0
f 3/3/3 2/2/2 1/1/1
f 6/6/6 5/5/5 4/4/4
f 9/9/9 8/8/8 7/7/7
f 10/10/10 9/9/9 7/7/7
f 13/13/13 12/12/12 11/11/11
f 14/14/14 13/13/13 11/11/11
f 17/17/17 16/16/16 15/15/15
f 18/18/18 17/17/17 15/15/15
