g ENV_Bumper_04
v -22.82239 -147.1461 57.4993
v -22.82223 -139.8868 54.03144
v -20.78312 -143.4914 55.73214
v -22.78489 -148.6939 54.29177
v -22.82239 -147.1461 57.4993
v -20.78312 -143.4914 55.73214
v -20.7803 -145.0132 52.5486
v -20.7803 -145.0132 52.5486
v -20.78312 -143.4914 55.73214
v -22.82223 -139.8868 54.03144
v -22.83554 -141.4034 50.72312
vt 0.087952 0.745163
vt 0.9767791 0.7494813
vt 0.5340178 0.5118359
vt 0.500045 0.0095435
vt 0.497305 0.497533
vt 0.9940619 0.4975208
vt 0.9860285 0.0095435
vt 0.004552 0.0101255
vt 0.004552 0.497532
vt 0.493063 0.497533
vt 0.4948897 0.008076333
vn 0.009404911 0.4310344 0.9022864
vn 0.009404912 0.4310344 0.9022865
vn 0.009404911 0.4310344 0.9022864
vn 0.8953882 -0.3991606 0.1973594
vn 0.8953882 -0.3991606 0.1973594
vn 0.8953882 -0.3991606 0.1973594
vn 0.8953882 -0.3991606 0.1973594
vn 0.8908597 0.4108922 -0.1937439
vn 0.8908597 0.4108922 -0.1937439
vn 0.8908597 0.4108922 -0.1937439
vn 0.8908597 0.4108922 -0.1937439
g ENV_Bumper_04_0
f 3/3/3 2/2/2 1/1/1
f 6/6/6 5/5/5 4/4/4
f 7/7/7 6/6/6 4/4/4
f 10/10/10 9/9/9 8/8/8
f 11/11/11 10/10/10 8/8/8
