g ENV_PachinkoPillarVert04_Col
v 0.9717639 4.160871 -0.499209
v 0.9717639 -4.115701 -0.499209
v 1.081256 -4.117737 0.1661816
v 1.081256 4.162584 0.1661816
v 0.7710925 -4.117302 0.7653418
v 0.7710925 4.162218 0.7653418
v 0.1724133 -4.114483 1.067959
v 0.1724133 4.159848 1.067959
v 0.4973645 4.1616 -0.9767675
v 0.9717639 -4.115701 -0.499209
v 0.9717639 4.160871 -0.499209
v 0.4973645 -4.116569 -0.9767675
v -0.1677893 4.158593 -1.074443
v -0.1677893 -4.112988 -1.074443
v -0.7663586 4.161721 -0.7754004
v -0.1677893 -4.112988 -1.074443
v -0.1677893 4.158593 -1.074443
v -0.7663586 -4.11671 -0.7754004
v -1.076932 4.161922 -0.1760644
v -1.076932 -4.116951 -0.1760644
v -0.9688537 4.160552 0.4893847
v -0.9688537 -4.115321 0.4893847
v -0.4954431 4.163701 0.9700879
v -0.9688537 -4.115321 0.4893847
v -0.9688537 4.160552 0.4893847
v -0.4954431 -4.119068 0.9701074
v 0.1724133 4.159848 1.067959
v 0.1724133 -4.114483 1.067959
v 0.001929932 4.398975 -0.005224609
v 1.081256 4.162584 0.1661816
v 0.7710925 4.162218 0.7653418
v 0.9717639 4.160871 -0.499209
v 0.1724133 4.159848 1.067959
v 0.4973645 4.1616 -0.9767675
v -0.4954431 4.163701 0.9700879
v -0.1677893 4.158593 -1.074443
v -0.9688537 4.160552 0.4893847
v -0.7663586 4.161721 -0.7754004
v -1.076932 4.161922 -0.1760644
v 0.001929932 -4.398975 -0.005205078
v 0.7710925 -4.117302 0.7653418
v 1.081256 -4.117737 0.1661816
v 0.9717639 -4.115701 -0.499209
v 0.1724133 -4.114483 1.067959
v 0.4973645 -4.116569 -0.9767675
v -0.4954431 -4.119068 0.9701074
v -0.1677893 -4.112988 -1.074443
v -0.9688537 -4.115321 0.4893847
v -0.7663586 -4.11671 -0.7754004
v -1.076932 -4.116951 -0.1760644
vt 0.799431 0.032412
vt 0.799431 0.032412
vt 0.8717915 0.011914
vt 0.8717915 0.011914
vt 0.942198 0.0384815
vt 0.942198 0.0384815
vt 0.983968 0.100868
vt 0.983968 0.100868
vt 0.75293 0.091326
vt 0.799431 0.032412
vt 0.799431 0.032412
vt 0.75293 0.091326
vt 0.7501755 0.166151
vt 0.7501755 0.166151
vt 0.7914129 0.228616
vt 0.7501755 0.166151
vt 0.7501755 0.166151
vt 0.7914129 0.228616
vt 0.8616255 0.25544
vt 0.8616255 0.25544
vt 0.9341925 0.235194
vt 0.9341925 0.235194
vt 0.981026 0.176146
vt 0.9341925 0.235194
vt 0.9341925 0.235194
vt 0.981026 0.176146
vt 0.983968 0.100868
vt 0.983968 0.100868
vt 0.866875 0.133585
vt 0.8717915 0.011914
vt 0.942198 0.0384815
vt 0.799431 0.032412
vt 0.983968 0.100868
vt 0.75293 0.091326
vt 0.981026 0.176146
vt 0.7501755 0.166151
vt 0.9341925 0.235194
vt 0.7914129 0.228616
vt 0.8616255 0.25544
vt 0.866875 0.133585
vt 0.942198 0.0384815
vt 0.8717915 0.011914
vt 0.799431 0.032412
vt 0.983968 0.100868
vt 0.75293 0.091326
vt 0.981026 0.176146
vt 0.7501755 0.166151
vt 0.9341925 0.235194
vt 0.7914129 0.228616
vt 0.8616255 0.25544
vn 0.8906007 0 -0.4547862
vn 0.8906132 0 -0.4547616
vn 0.9875982 0 0.1570023
vn 0.9876045 0 0.1569628
vn 0.7047407 0 0.709465
vn 0.7046843 0 0.7095209
vn 0.1593069 6.257965E-07 0.9872291
vn 0.1593479 6.257148E-07 0.9872225
vn 0.4509974 0 -0.8925252
vn 0.8906132 0 -0.4547616
vn 0.8906007 0 -0.4547862
vn 0.451059 0 -0.8924941
vn -0.1573879 0 -0.9875368
vn -0.1573912 0 -0.9875364
vn -0.7033022 0 -0.710891
vn -0.1573912 0 -0.9875364
vn -0.1573879 0 -0.9875368
vn -0.7033721 0 -0.7108219
vn -0.9873919 0 -0.1582949
vn -0.9873864 0 -0.1583286
vn -0.8916583 3.48574E-07 0.452709
vn -0.8916354 3.486293E-07 0.4527542
vn -0.4522759 9.765905E-07 0.8918781
vn -0.8916354 3.486293E-07 0.4527542
vn -0.8916583 3.48574E-07 0.452709
vn -0.4522946 9.765731E-07 0.8918687
vn 0.1593479 6.257148E-07 0.9872225
vn 0.1593069 6.257965E-07 0.9872291
vn -0.0001037873 0.9999999 -0.0006103438
vn 0.2089717 0.9773941 0.0321178
vn 0.1483163 0.9771605 0.152183
vn 0.1900033 0.9768968 -0.09783331
vn 0.03524159 0.9766309 0.2120148
vn 0.09449004 0.9771187 -0.1905536
vn -0.09463464 0.9776793 0.1875835
vn -0.03394325 0.976225 -0.2140852
vn -0.1912214 0.9768818 0.09558406
vn -0.1481911 0.9770288 -0.1531477
vn -0.2095738 0.9772508 -0.03255338
vn -0.0001243834 -0.9999998 -0.0007137023
vn 0.1748166 -0.9681209 0.1793909
vn 0.2463298 -0.9684465 0.03785555
vn 0.2239407 -0.9677577 -0.1153068
vn 0.04154634 -0.9673922 0.2498523
vn 0.1113571 -0.9680657 -0.2246073
vn -0.1115697 -0.9688362 0.221153
vn -0.0400115 -0.9668356 -0.2522461
vn -0.2253703 -0.9677395 0.1126434
vn -0.1746481 -0.9679412 -0.1805211
vn -0.2470317 -0.9682473 -0.03837275
g ENV_PachinkoPillarVert04_Col_0
f 3/3/3 2/2/2 1/1/1
f 4/4/4 3/3/3 1/1/1
f 5/5/5 3/3/3 4/4/4
f 6/6/6 5/5/5 4/4/4
f 7/7/7 5/5/5 6/6/6
f 8/8/8 7/7/7 6/6/6
f 11/11/11 10/10/10 9/9/9
f 10/10/10 12/12/12 9/9/9
f 9/9/9 12/12/12 13/13/13
f 12/12/12 14/14/14 13/13/13
f 17/17/17 16/16/16 15/15/15
f 16/16/16 18/18/18 15/15/15
f 15/15/15 18/18/18 19/19/19
f 18/18/18 20/20/20 19/19/19
f 19/19/19 20/20/20 21/21/21
f 20/20/20 22/22/22 21/21/21
f 25/25/25 24/24/24 23/23/23
f 24/24/24 26/26/26 23/23/23
f 23/23/23 26/26/26 27/27/27
f 26/26/26 28/28/28 27/27/27
f 31/31/31 30/30/30 29/29/29
f 30/30/30 32/32/32 29/29/29
f 33/33/33 31/31/31 29/29/29
f 32/32/32 34/34/34 29/29/29
f 35/35/35 33/33/33 29/29/29
f 34/34/34 36/36/36 29/29/29
f 37/37/37 35/35/35 29/29/29
f 36/36/36 38/38/38 29/29/29
f 39/39/39 37/37/37 29/29/29
f 38/38/38 39/39/39 29/29/29
f 42/42/42 41/41/41 40/40/40
f 43/43/43 42/42/42 40/40/40
f 41/41/41 44/44/44 40/40/40
f 45/45/45 43/43/43 40/40/40
f 44/44/44 46/46/46 40/40/40
f 47/47/47 45/45/45 40/40/40
f 46/46/46 48/48/48 40/40/40
f 49/49/49 47/47/47 40/40/40
f 48/48/48 50/50/50 40/40/40
f 50/50/50 49/49/49 40/40/40
