g ENV_curve02_Col
v 2.857555 0.710006 -2.290879
v 2.852037 0.7131994 2.292461
v -2.852164 0.7154604 -2.284648
v -2.852164 -0.7129661 -2.284648
v 2.852037 -0.7129654 2.292461
v 2.857555 -0.7159258 -2.290879
v -2.852164 0.7154604 -2.284648
v 2.852037 0.7131994 2.292461
v 2.852037 -0.7129654 2.292461
v -2.852164 -0.7129661 -2.284648
v -2.852164 0.7154604 -2.284648
v -2.852164 -0.7129661 -2.284648
v 2.857555 -0.7159258 -2.290879
v 2.857555 0.710006 -2.290879
v 2.857555 0.710006 -2.290879
v 2.857555 -0.7159258 -2.290879
v 2.852037 -0.7129654 2.292461
v 2.852037 0.7131994 2.292461
vt 0.6820814 0.3945465
vt 0.208951 0.02075667
vt 0.2102683 0.9777688
vt 0 1
vt 0.01716793 0.01863913
vt 0 1
vt 0.2102683 0.9777688
vt 0.208951 0.02075667
vt 0.01716793 0.01863913
vt 0.01720338 0.9802281
vt 0 0
vt 0 1
vt 1 1
vt 1 0
vt 0 0
vt 0 1
vt 1 1
vt 1 0
vn 0.0009545243 0.9999993 -0.0006955254
vn 0.0009545243 0.9999993 -0.0006955254
vn 0.0009545244 0.9999993 -0.0006955254
vn -0.0005176654 -0.9999996 0.0006453108
vn -0.0005176654 -0.9999996 0.0006453107
vn -0.0005176655 -0.9999996 0.0006453108
vn -0.6258407 0 0.779951
vn -0.6258407 0 0.779951
vn -0.6258407 0 0.779951
vn -0.6258407 0 0.779951
vn -0.001089118 0 -0.9999994
vn -0.001089118 0 -0.9999994
vn -0.001089118 0 -0.9999994
vn -0.001089118 0 -0.9999994
vn 0.9999993 0 0.001204097
vn 0.9999993 0 0.001204097
vn 0.9999993 0 0.001204097
vn 0.9999993 0 0.001204097
g ENV_curve02_Col_0
f 3/3/3 2/2/2 1/1/1
f 6/6/6 5/5/5 4/4/4
f 9/9/9 8/8/8 7/7/7
f 10/10/10 9/9/9 7/7/7
f 13/13/13 12/12/12 11/11/11
f 14/14/14 13/13/13 11/11/11
f 17/17/17 16/16/16 15/15/15
f 18/18/18 17/17/17 15/15/15
