g ENV_inflatedWall06_Col
v 12.18226 -8.423719 -31.29616
v 11.0773 -7.652041 -32.40475
v 10.51996 -7.647583 -30.64349
v 10.64851 -8.410585 -28.19993
v 9.817934 -7.638801 -29.49089
v 8.872249 -7.634238 -28.51722
v 2.456889 3.751312 -3.534345
v -10.86648 3.854103 10.43663
v -12.52408 3.850704 10.37395
v 0.7650076 3.753693 -3.597473
v 2.456889 3.751312 -3.534345
v 2.562871 3.734221 -24.73582
v 2.569371 -8.423277 -24.73683
v 2.461422 -8.40131 -3.516275
v 1.245034 3.735041 -25.62681
v 0.7650076 3.753693 -3.597473
v 0.7433252 -7.627342 -3.609603
v 1.228651 -7.645994 -25.63111
v 0.7650076 3.753693 -3.597473
v 1.245034 3.735041 -25.62681
v 2.562871 3.734221 -24.73582
v 2.456889 3.751312 -3.534345
v 5.499263 3.752249 -25.39499
v 5.491627 -8.44345 -25.37575
v 2.569371 -8.423277 -24.73683
v 2.562871 3.734221 -24.73582
v -10.86648 3.854103 10.43663
v 2.456889 3.751312 -3.534345
v 2.461422 -8.40131 -3.516275
v -10.82054 -8.205676 10.84558
v 0.7433252 -7.627342 -3.609603
v 0.7650076 3.753693 -3.597473
v -12.52408 3.850704 10.37395
v -12.55977 -7.431732 10.49279
v -10.82054 -8.205676 10.84558
v -10.96962 0.3560341 27.28589
v -11.02432 12.41021 26.87393
v -10.86648 3.854103 10.43663
v -12.82175 1.921073 27.2859
v -12.55977 -7.431732 10.49279
v -12.52408 3.850704 10.37395
v -12.79152 12.40869 26.87677
v -12.52408 3.850704 10.37395
v -10.86648 3.854103 10.43663
v -11.02432 12.41021 26.87393
v -12.79152 12.40869 26.87677
v -11.09042 0.3348261 33.7937
v -11.07983 12.48556 33.78004
v -11.02432 12.41021 26.87393
v -10.96962 0.3560341 27.28589
v -12.79152 12.40869 26.87677
v -12.89567 12.48559 33.77689
v -12.89828 1.899841 33.7937
v -12.82175 1.921073 27.2859
v -12.89567 12.48559 33.77689
v -12.79152 12.40869 26.87677
v -11.02432 12.41021 26.87393
v -11.07983 12.48556 33.78004
v 12.18226 -8.423719 -31.29616
v 12.62426 -8.428422 -34.55254
v 11.3847 -7.654454 -34.6493
v 11.0773 -7.652041 -32.40475
v 10.64851 -8.410585 -28.19993
v 12.18226 -8.423719 -31.29616
v 10.51996 -7.647583 -30.64349
v 9.817934 -7.638801 -29.49089
v 12.62426 -8.428422 -34.55254
v 12.14572 3.735211 -31.31586
v 12.59846 3.726036 -34.57461
v 12.18226 -8.423719 -31.29616
v 10.63008 3.742972 -28.22396
v 10.64851 -8.410585 -28.19993
v 12.14572 3.735211 -31.31586
v 11.44077 3.730749 -34.65055
v 12.59846 3.726036 -34.57461
v 11.1346 3.734922 -32.39114
v 10.57166 3.739158 -30.6197
v 10.63008 3.742972 -28.22396
v 9.852265 3.741596 -29.46051
v 8.885008 3.745483 -28.48495
v 8.289339 3.751064 -26.25566
v 7.92111 3.752554 -27.68933
v 6.846271 3.758654 -27.08026
v 5.499263 3.752249 -25.39499
v 5.638058 3.762378 -26.61938
v 4.371727 3.760167 -26.35977
v 1.844529 3.739372 -26.24149
v 2.562871 3.734221 -24.73582
v 1.484014 3.735875 -26.00877
v 1.245034 3.735041 -25.62681
v 11.44077 3.730749 -34.65055
v 11.0773 -7.652041 -32.40475
v 11.3847 -7.654454 -34.6493
v 11.1346 3.734922 -32.39114
v 10.51996 -7.647583 -30.64349
v 10.57166 3.739158 -30.6197
v 9.817934 -7.638801 -29.49089
v 9.852265 3.741596 -29.46051
v 8.872249 -7.634238 -28.51722
v 8.885008 3.745483 -28.48495
v 7.882591 -7.617476 -27.71202
v 7.92111 3.752554 -27.68933
v 6.854881 -7.650361 -27.10547
v 6.846271 3.758654 -27.08026
v 5.653509 -7.673029 -26.63909
v 5.638058 3.762378 -26.61938
v 4.390169 -7.678712 -26.37838
v 4.371727 3.760167 -26.35977
v 1.828165 -7.652494 -26.24814
v 1.844529 3.739372 -26.24149
v 1.484014 3.735875 -26.00877
v 1.467708 -7.647868 -26.01366
v 10.64851 -8.410585 -28.19993
v 8.26108 -8.439351 -26.23514
v 8.289339 3.751064 -26.25566
v 10.63008 3.742972 -28.22396
v 8.26108 -8.439351 -26.23514
v 5.491627 -8.44345 -25.37575
v 5.499263 3.752249 -25.39499
v 8.289339 3.751064 -26.25566
v 1.467708 -7.647868 -26.01366
v 1.484014 3.735875 -26.00877
v 1.245034 3.735041 -25.62681
v 1.228651 -7.645994 -25.63111
v 11.3847 -7.654454 -34.6493
v 12.62426 -8.428422 -34.55254
v 12.59846 3.726036 -34.57461
v 11.44077 3.730749 -34.65055
v -12.89828 1.899841 33.7937
v -12.89567 12.48559 33.77689
v -11.07983 12.48556 33.78004
v -11.09042 0.3348261 33.7937
vt 0.5827831 0.8802253
vt 0.6777251 0.9526724
vt 0.6781165 0.9380359
vt 0.5830457 0.899252
vt 0.6782833 0.9297441
vt 0.6784183 0.9230402
vt 0.485374 0.6777562
vt 0.5979365 0.01332681
vt 0.5902719 0.01334378
vt 0.477958 0.6777878
vt 0.18705 0.01334165
vt 0.1861017 0.7809984
vt 0.01024439 0.03578869
vt 0.008849815 0.8040879
vt 0.178678 0.7821608
vt 0.1793911 0.01338687
vt 0.1007957 0.01274284
vt 0.1012703 0.7819729
vt 0.1793911 0.01338687
vt 0.178678 0.7821608
vt 0.1861017 0.7809984
vt 0.18705 0.01334165
vt 0.7625177 0.8953059
vt 0.5817175 0.9303832
vt 0.581752 0.9720916
vt 0.7644835 0.8625113
vt 0.5979365 0.01332681
vt 0.485374 0.6777562
vt 0.2137351 0.01415224
vt 0.3061902 0.6792523
vt 0.4005814 0.6776032
vt 0.477958 0.6777878
vt 0.5902719 0.01334378
vt 0.5116031 0.01274979
vt 0.6245252 0.01413457
vt 0.3714418 0.737193
vt 0.7996296 0.01336702
vt 0.7990474 0.6400449
vt 0.3631696 0.4931675
vt 0.7174826 0.6398586
vt 0.7948684 0.6400332
vt 0.7956166 0.01338024
vt 0.7948684 0.6400332
vt 0.7990474 0.6400449
vt 0.7996296 0.01336702
vt 0.7956166 0.01338024
vt 0.1184138 0.9743423
vt 0.09531837 0.8331532
vt 0.09422705 0.9738404
vt 0.3714418 0.737193
vt 0.08680417 0.9737701
vt 0.08764571 0.8331087
vt 0.008862644 0.8323997
vt 0.3631696 0.4931675
vt 0.08764571 0.8331087
vt 0.08680417 0.9737701
vt 0.09422705 0.9738404
vt 0.09531837 0.8331532
vt 0.5827831 0.8802253
vt 0.5824122 0.8581064
vt 0.6773309 0.9674156
vt 0.6777251 0.9526724
vt 0.5830457 0.899252
vt 0.5827831 0.8802253
vt 0.6781165 0.9380359
vt 0.6782833 0.9297441
vt 0.5824122 0.8581064
vt 0.7624319 0.9456041
vt 0.7625406 0.9679541
vt 0.5827831 0.8802253
vt 0.7623656 0.926527
vt 0.5830457 0.899252
vt 0.7624319 0.9456041
vt 0.7549961 0.9684576
vt 0.7625406 0.9679541
vt 0.7547224 0.9532365
vt 0.7544506 0.9381254
vt 0.7623656 0.926527
vt 0.7546177 0.9297926
vt 0.7547528 0.9230554
vt 0.7623991 0.911467
vt 0.7547653 0.9160118
vt 0.7547817 0.9067236
vt 0.7625177 0.8953059
vt 0.7547079 0.9014126
vt 0.7545372 0.8891301
vt 0.754703 0.8628424
vt 0.7644835 0.8625113
vt 0.756545 0.8591884
vt 0.758387 0.8555343
vt 0.7549961 0.9684576
vt 0.6777251 0.9526724
vt 0.6773309 0.9674156
vt 0.7547224 0.9532365
vt 0.6781165 0.9380359
vt 0.7544506 0.9381254
vt 0.6782833 0.9297441
vt 0.7546177 0.9297926
vt 0.6784183 0.9230402
vt 0.7547528 0.9230554
vt 0.6782458 0.9160171
vt 0.7547653 0.9160118
vt 0.6780183 0.9067559
vt 0.7547817 0.9067236
vt 0.6776856 0.9014512
vt 0.7547079 0.9014126
vt 0.6769164 0.8891832
vt 0.7545372 0.8891301
vt 0.6761094 0.8636303
vt 0.754703 0.8628424
vt 0.754723 0.8576777
vt 0.6760398 0.8585768
vt 0.5830457 0.899252
vt 0.5826968 0.9142961
vt 0.7623991 0.911467
vt 0.7623656 0.926527
vt 0.5826968 0.9142961
vt 0.5817175 0.9303832
vt 0.7625177 0.8953059
vt 0.7623991 0.911467
vt 0.6760398 0.8585768
vt 0.754723 0.8576777
vt 0.754743 0.852513
vt 0.6759701 0.8535233
vt 0.1793911 0.01338687
vt 0.18705 0.01334165
vt 0.1012703 0.7819729
vt 0.1007957 0.01274284
vt 0.754703 0.8628424
vt 0.6761094 0.8636303
vt 0.6784183 0.9230402
vt 0.7644835 0.8625113
vn -0.4871222 -0.8608823 -0.1469479
vn -0.5036854 -0.8585026 -0.09630228
vn -0.4665547 -0.858235 -0.2139147
vn -0.4132837 -0.8687238 -0.2729753
vn -0.4124815 -0.8689597 -0.2734374
vn -0.3314915 -0.8883229 -0.3177983
vn 0.0008396704 0.999995 -0.003070945
vn 0.002838902 0.9800547 -0.1987077
vn 0.004485309 0.9512756 -0.3083094
vn 0.0005197396 0.9999894 -0.004576868
vn 0.9999872 0.0004574181 0.005042444
vn 0.9999872 0.0004574181 0.005042444
vn 0.9999872 0.0004574181 0.005042444
vn 0.9999872 0.0004574181 0.005042443
vn -0.9581126 0.001617544 -0.2863873
vn -0.9997585 0.001687751 -0.02191065
vn -0.9997585 0.001687751 -0.02191065
vn -0.9580173 0.001617383 -0.2867061
vn 0.0005197396 0.9999894 -0.004576868
vn 0.0001359485 0.9999996 0.0008052434
vn -0.002027491 0.9999903 0.003907632
vn 0.0008396704 0.999995 -0.003070945
vn 0.2562555 0.0009229999 0.9666086
vn 0.2562012 0.0009227252 0.9666231
vn 0.216321 0.0007208776 0.9763219
vn 0.216321 0.0007208777 0.9763219
vn 0.7289851 0.01358979 0.6843947
vn 0.7289851 0.01358979 0.6843947
vn 0.7289851 0.01358979 0.6843947
vn 0.7289851 0.01358979 0.6843946
vn -0.7260118 -0.001399844 -0.6876808
vn -0.7260118 -0.001399844 -0.6876808
vn -0.7260118 -0.001399844 -0.6876807
vn -0.7260118 -0.001399844 -0.6876808
vn 0.9999655 0.004413013 0.007037096
vn 0.999947 0.003366217 0.009742144
vn 0.9999396 0.003046656 0.01056789
vn 0.9999655 0.004413013 0.007037096
vn -0.999876 0.002024185 -0.01561393
vn -0.9998469 0.00260818 -0.01730098
vn -0.9998469 0.00260818 -0.01730098
vn -0.9998844 0.001845201 -0.01509687
vn 0.004485309 0.9512756 -0.3083094
vn 0.002838902 0.9800547 -0.1987077
vn 0.003295503 0.9697639 -0.2440229
vn 0.00323512 0.9707063 -0.2402475
vn 0.9999117 0.002053368 0.01313449
vn 0.9999117 0.002053368 0.01313448
vn 0.9999396 0.003046656 0.01056789
vn 0.999947 0.003366217 0.009742144
vn -0.9998844 0.001845201 -0.01509687
vn -0.9999083 0.001285668 -0.01348045
vn -0.9999083 0.001285668 -0.01348045
vn -0.999876 0.002024185 -0.01561393
vn -0.0004143883 0.9999391 -0.01103184
vn 0.00323512 0.9707063 -0.2402475
vn 0.003295503 0.9697639 -0.2440229
vn -0.0004143882 0.9999391 -0.01103184
vn -0.4871222 -0.8608823 -0.1469479
vn -0.5236294 -0.8490459 -0.07023777
vn -0.5236294 -0.8490459 -0.07023776
vn -0.5036854 -0.8585026 -0.09630228
vn -0.4132837 -0.8687238 -0.2729753
vn -0.4871222 -0.8608823 -0.1469479
vn -0.4665547 -0.858235 -0.2139147
vn -0.4124815 -0.8689597 -0.2734374
vn 0.990698 0.002774406 0.13605
vn 0.9561116 0.002835385 0.2929887
vn 0.990698 0.002774406 0.13605
vn 0.9562271 0.002835324 0.2926119
vn 0.7852808 0.002029344 0.6191364
vn 0.7851558 0.002028531 0.619295
vn 0.00207858 0.9999962 -0.001842369
vn 0.003097765 0.9999932 -0.001992946
vn 0.003097764 0.9999932 -0.001992946
vn 0.002645601 0.9999946 -0.00194868
vn 0.001522057 0.9999975 -0.001684645
vn 0.002106104 0.9999962 -0.001822555
vn 0.001588623 0.999997 -0.001866892
vn 0.002795462 0.9999945 -0.0018136
vn 0.003919653 0.9999917 0.001159505
vn 0.004101338 0.9999909 -0.001140739
vn 0.004033281 0.9999825 0.004342189
vn -0.000480061 0.9999679 0.007996588
vn 0.00207331 0.9999722 0.007171132
vn -0.004171252 0.9999489 0.009218048
vn -0.005733253 0.999954 0.007689506
vn -0.002027491 0.9999903 0.003907632
vn -0.003332595 0.9999859 0.004124218
vn 0.0001359485 0.9999996 0.0008052434
vn -0.9908345 0.005006136 -0.1349886
vn -0.975633 0.005051155 -0.2193505
vn -0.9908345 0.005006136 -0.1349886
vn -0.9755859 0.005051221 -0.2195599
vn -0.9094362 0.004798662 -0.4158157
vn -0.9092244 0.004797421 -0.4162787
vn -0.787971 0.003961556 -0.6156995
vn -0.7876294 0.003958933 -0.6161366
vn -0.6749792 0.003356123 -0.7378293
vn -0.674605 0.00335562 -0.7381713
vn -0.5686712 0.002894884 -0.8225598
vn -0.5688875 0.002896214 -0.8224102
vn -0.4302312 0.001966882 -0.9027166
vn -0.4309295 0.001971922 -0.9023834
vn -0.2807987 0.001404506 -0.9597657
vn -0.281146 0.001404758 -0.959664
vn -0.1257258 0.001226054 -0.9920643
vn -0.1256501 0.001225935 -0.9920739
vn -0.3053282 0.001194134 -0.9522465
vn -0.3053308 0.001194135 -0.9522455
vn -0.5438166 0.001205505 -0.8392033
vn -0.5438166 0.001205505 -0.8392033
vn 0.7851558 0.002028531 0.619295
vn 0.475836 0.00115791 0.8795334
vn 0.4768883 0.00115799 0.8789631
vn 0.7852808 0.002029344 0.6191364
vn 0.475836 0.00115791 0.8795334
vn 0.2562012 0.0009227252 0.9666231
vn 0.2562555 0.0009229999 0.9666086
vn 0.4768883 0.00115799 0.8789631
vn -0.8478892 0.00143156 -0.5301716
vn -0.8478892 0.00143156 -0.5301716
vn -0.9581126 0.001617544 -0.2863873
vn -0.9580173 0.001617383 -0.2867061
vn 0.07150403 -0.001080156 -0.9974397
vn 0.07150403 -0.001080156 -0.9974397
vn 0.07150403 -0.001080156 -0.9974397
vn 0.07150403 -0.001080156 -0.9974397
vn -0.0002901821 0.001340962 0.999999
vn -0.0002901821 0.001340962 0.999999
vn -0.0002901821 0.001340962 0.999999
vn -0.0002901821 0.001340962 0.999999
g ENV_inflatedWall06_Col_0
f 3/3/3 2/2/2 1/1/1
f 6/6/6 5/5/5 4/4/4
f 9/9/9 8/8/8 7/7/7
f 10/10/10 9/9/9 7/7/7
f 13/13/13 12/12/12 11/11/11
f 14/14/14 13/13/13 11/11/11
f 17/17/17 16/16/16 15/15/15
f 18/18/18 17/17/17 15/15/15
f 21/21/21 20/20/20 19/19/19
f 22/22/22 21/21/21 19/19/19
f 25/25/25 24/24/24 23/23/23
f 26/26/26 25/25/25 23/23/23
f 29/29/29 28/28/28 27/27/27
f 30/30/30 29/29/29 27/27/27
f 33/33/33 32/32/32 31/31/31
f 34/34/34 33/33/33 31/31/31
f 37/37/37 36/36/36 35/35/35
f 38/38/38 37/37/37 35/35/35
f 41/41/41 40/40/40 39/39/39
f 42/42/42 41/41/41 39/39/39
f 45/45/45 44/44/44 43/43/43
f 46/46/46 45/45/45 43/43/43
f 49/49/49 48/48/48 47/47/47
f 50/50/50 49/49/49 47/47/47
f 53/53/53 52/52/52 51/51/51
f 54/54/54 53/53/53 51/51/51
f 57/57/57 56/56/56 55/55/55
f 58/58/58 57/57/57 55/55/55
f 61/61/61 60/60/60 59/59/59
f 62/62/62 61/61/61 59/59/59
f 65/65/65 64/64/64 63/63/63
f 66/66/66 65/65/65 63/63/63
f 69/69/69 68/68/68 67/67/67
f 68/68/68 70/70/70 67/67/67
f 68/68/68 71/71/71 70/70/70
f 71/71/71 72/72/72 70/70/70
f 75/75/75 74/74/74 73/73/73
f 74/74/74 76/76/76 73/73/73
f 76/76/76 77/77/77 73/73/73
f 73/73/73 77/77/77 78/78/78
f 77/77/77 79/79/79 78/78/78
f 79/79/79 80/80/80 78/78/78
f 78/78/78 80/80/80 81/81/81
f 80/80/80 82/82/82 81/81/81
f 81/81/81 82/82/82 83/83/83
f 81/81/81 83/83/83 84/84/84
f 83/83/83 85/85/85 84/84/84
f 85/85/85 86/86/86 84/84/84
f 86/86/86 87/87/87 84/84/84
f 87/87/87 88/88/88 84/84/84
f 87/87/87 89/89/89 88/88/88
f 89/89/89 90/90/90 88/88/88
f 93/93/93 92/92/92 91/91/91
f 92/92/92 94/94/94 91/91/91
f 92/92/92 95/95/95 94/94/94
f 95/95/95 96/96/96 94/94/94
f 95/95/95 97/97/97 96/96/96
f 97/97/97 98/98/98 96/96/96
f 97/97/97 99/99/99 98/98/98
f 99/99/99 100/100/100 98/98/98
f 99/99/99 101/101/101 100/100/100
f 101/101/101 102/102/102 100/100/100
f 101/101/101 103/103/103 102/102/102
f 103/103/103 104/104/104 102/102/102
f 103/103/103 105/105/105 104/104/104
f 105/105/105 106/106/106 104/104/104
f 105/105/105 107/107/107 106/106/106
f 107/107/107 108/108/108 106/106/106
f 108/108/108 107/107/107 109/109/109
f 110/110/110 108/108/108 109/109/109
f 111/111/111 110/110/110 109/109/109
f 112/112/112 111/111/111 109/109/109
f 115/115/115 114/114/114 113/113/113
f 116/116/116 115/115/115 113/113/113
f 119/119/119 118/118/118 117/117/117
f 120/120/120 119/119/119 117/117/117
f 123/123/123 122/122/122 121/121/121
f 124/124/124 123/123/123 121/121/121
f 127/127/127 126/126/126 125/125/125
f 128/128/128 127/127/127 125/125/125
f 131/131/131 130/130/130 129/129/129
f 132/132/132 131/131/131 129/129/129
