g ENV_BLO_Wall_3
v -2.956001 0.02914135 0.8955526
v -2.943071 0.04207151 0.9529759
v -2.885648 0.02914135 0.965906
v -2.885648 0 0.8955526
v -2.956001 0.02914135 -0.8955526
v 2.885648 0 0.8955526
v 2.885648 0.02914135 0.965906
v -2.885648 0 -0.8955526
v 2.956001 0.02914135 0.8955526
v 2.943071 0.04207151 0.9529759
v -2.885648 0.02914135 -0.965906
v -2.943071 0.04207151 -0.9529759
v 2.885648 0.02914135 -0.965906
v 2.885648 0 -0.8955526
v 2.956001 0.02914135 -0.8955526
v 2.943071 0.04207151 -0.9529759
v 2.956001 0.09949479 -0.965906
v 2.956001 0.09949479 0.965906
v 2.885648 0.02914135 0.965906
v 2.985142 0.09949479 -0.8955526
v 2.956001 3.895991 -0.965906
v 2.985142 0.09949479 0.8955526
v 2.985142 3.895991 0.8955526
v 2.985142 3.895991 -0.8955526
v 2.956001 3.966344 -0.8955526
v 2.943071 3.953414 -0.9529759
v 2.885648 3.966344 -0.965906
v 2.956001 3.966344 0.8955526
v 2.956001 3.895991 0.965906
v 2.885648 0.09949479 0.9950474
v -2.885648 0.09949479 0.9950474
v -2.885648 0.02914135 0.965906
v 2.885648 3.895991 0.9950474
v -2.956001 0.09949479 0.965906
v -2.943071 0.04207151 0.9529759
v -2.885648 3.895991 0.9950474
v -2.956001 0.02914135 0.8955526
v 2.885648 3.966344 0.965906
v 2.943071 3.953414 0.9529759
v -2.885648 3.966344 0.965906
v 2.885648 3.966344 0.965906
v -2.956001 3.895991 0.965906
v -2.943071 3.953414 0.9529759
v -2.956001 3.966344 0.8955526
v -2.985142 0.09949479 0.8955526
v -2.985142 3.895991 0.8955526
v -2.956001 3.966344 -0.8955526
v -2.985142 0.09949479 -0.8955526
v -2.956001 0.02914135 -0.8955526
v 2.885648 3.995486 0.8955526
v -2.985142 3.895991 -0.8955526
v -2.956001 0.09949479 -0.965906
v -2.943071 0.04207151 -0.9529759
v -2.885648 0.02914135 -0.965906
v -2.956001 3.895991 -0.965906
v -2.943071 3.953414 -0.9529759
v -2.885648 3.966344 -0.965906
v -2.885648 3.995486 0.8955526
v -2.885648 3.966344 0.965906
v -2.885648 0.09949479 -0.9950474
v -2.885648 3.895991 -0.9950474
v 2.885648 0.09949479 -0.9950474
v 2.885648 3.966344 -0.965906
v 2.885648 0.02914135 -0.965906
v 2.885648 3.895991 -0.9950474
v 2.956001 0.09949479 -0.965906
v 2.943071 0.04207151 -0.9529759
v 2.956001 3.895991 -0.965906
v 2.943071 3.953414 -0.9529759
v -2.943071 3.953414 0.9529759
v -2.956001 3.966344 0.8955526
v -2.885648 3.995486 -0.8955526
v -2.956001 3.966344 -0.8955526
v 2.885648 3.995486 -0.8955526
v -2.885648 3.966344 -0.965906
v -2.943071 3.953414 -0.9529759
vt -0.145781 -0.5817837
vt -0.1468289 -0.5802805
vt -0.1457876 -0.5787716
vt -0.1442686 -0.5802747
vt -0.1100813 -0.6172032
vt -0.03018594 -0.4652944
vt -0.03170282 -0.4637784
vt -0.108584 -0.6156775
vt -0.02868295 -0.4638013
vt -0.03003019 -0.4623265
vt -0.1070694 -0.6171864
vt -0.1085708 -0.6182364
vt 0.007032216 -0.5021937
vt 0.005506575 -0.5006917
vt 0.006998658 -0.4991866
vt 0.008278251 -0.5004565
vt 0.01000899 -0.4992021
vt -0.02869767 -0.4608407
vt -0.03172195 -0.4608827
vt 0.008494914 -0.4976844
vt 0.08503634 -0.4234659
vt -0.0271768 -0.4623242
vt 0.04779685 -0.3865755
vt 0.08350486 -0.4219666
vt 0.08499479 -0.4204617
vt 0.08627468 -0.4217291
vt 0.08800447 -0.4204758
vt 0.04926443 -0.3850519
vt 0.04629529 -0.3850681
vt -0.03021759 -0.45935
vt -0.1455289 -0.3453673
vt -0.1470404 -0.3468859
vt 0.04478657 -0.383562
vt -0.1470446 -0.3438693
vt -0.1483134 -0.3451995
vt -0.07051015 -0.2694894
vt -0.1501537 -0.3440154
vt 0.04630262 -0.3820399
vt 0.04777151 -0.3837156
vt -0.06900829 -0.2679588
vt 0.04921812 -0.3820223
vt -0.0720261 -0.2679899
vt -0.07074988 -0.2667083
vt -0.0720056 -0.264976
vt -0.1485628 -0.3423699
vt -0.07354069 -0.2664883
vt -0.107855 -0.2295056
vt -0.1844058 -0.3069324
vt -0.1859438 -0.3084437
vt 0.05074847 -0.3835294
vt -0.1093515 -0.2310563
vt -0.18592 -0.3054327
vt -0.1871958 -0.3067119
vt -0.1889372 -0.3054651
vt -0.1108689 -0.229557
vt -0.1096011 -0.2282665
vt -0.1108711 -0.2265381
vt 0.1649941 -0.2683752
vt 0.1634773 -0.2668659
vt -0.1874358 -0.3039345
vt -0.1123847 -0.228057
vt -0.3027978 -0.1898694
vt -0.2262564 -0.1124537
vt -0.3043055 -0.1913888
vt -0.2277593 -0.1139792
vt -0.3043236 -0.1883686
vt -0.3053616 -0.1898851
vt -0.2292768 -0.1124697
vt -0.2277743 -0.1114146
vt 0.1649805 -0.2658123
vt 0.166493 -0.2668483
vt 0.2007287 -0.3038273
vt 0.2022437 -0.3023167
vt 0.08648837 -0.4189596
vt 0.2022499 -0.3053324
vt 0.2032931 -0.3038212
vn -0.7070675 -0.707067 0.01057065
vn -0.577351 -0.5773497 0.5773502
vn -0.003345049 -0.707103 0.7071026
vn -0.004923297 -0.9998664 0.0155897
vn -0.7070675 -0.7070669 -0.01057065
vn 0.004923297 -0.9998664 0.0155897
vn 0.003345049 -0.707103 0.7071026
vn -0.004923297 -0.9998664 -0.0155897
vn 0.7070675 -0.7070669 0.01057065
vn 0.5773511 -0.5773495 0.5773503
vn -0.003345049 -0.707103 -0.7071026
vn -0.5773511 -0.5773495 -0.5773503
vn 0.003345049 -0.707103 -0.7071026
vn 0.004923297 -0.9998664 -0.0155897
vn 0.7070675 -0.707067 -0.01057065
vn 0.577351 -0.5773497 -0.5773502
vn 0.707098 -0.00506173 -0.7070974
vn 0.707098 -0.005061724 0.7070974
vn 0.003345049 -0.707103 0.7071026
vn 0.9998513 -0.00743794 -0.01555716
vn 0.707098 0.005061723 -0.7070974
vn 0.9998513 -0.007437939 0.01555716
vn 0.9998513 0.00743794 0.01555716
vn 0.9998513 0.007437939 -0.01555716
vn 0.7070672 0.7070673 -0.01057067
vn 0.5773512 0.5773498 -0.5773497
vn 0.003345056 0.7071034 -0.7071022
vn 0.7070671 0.7070673 0.01057067
vn 0.707098 0.005061729 0.7070974
vn 0.004957256 -0.007504953 0.9999596
vn -0.004957256 -0.007504953 0.9999596
vn -0.003345049 -0.707103 0.7071026
vn 0.004957257 0.007504953 0.9999596
vn -0.707098 -0.00506173 0.7070974
vn -0.577351 -0.5773497 0.5773502
vn -0.004957257 0.007504953 0.9999596
vn -0.7070675 -0.707067 0.01057065
vn 0.003345058 0.7071034 0.7071022
vn 0.5773509 0.57735 0.57735
vn -0.003345056 0.7071034 0.7071022
vn 0.003345058 0.7071034 0.7071022
vn -0.707098 0.005061723 0.7070974
vn -0.5773512 0.5773498 0.5773497
vn -0.7070672 0.7070673 0.01057067
vn -0.9998513 -0.00743794 0.01555716
vn -0.9998513 0.007437939 0.01555716
vn -0.7070671 0.7070673 -0.01057067
vn -0.9998513 -0.007437939 -0.01555716
vn -0.7070675 -0.7070669 -0.01057065
vn 0.00492331 0.9998664 0.01558979
vn -0.9998513 0.00743794 -0.01555716
vn -0.707098 -0.005061724 -0.7070974
vn -0.5773511 -0.5773495 -0.5773503
vn -0.003345049 -0.707103 -0.7071026
vn -0.707098 0.005061729 -0.7070974
vn -0.5773509 0.57735 -0.57735
vn -0.003345058 0.7071034 -0.7071022
vn -0.00492331 0.9998664 0.01558979
vn -0.003345056 0.7071034 0.7071022
vn -0.004957256 -0.007504953 -0.9999596
vn -0.004957257 0.007504953 -0.9999596
vn 0.004957256 -0.007504953 -0.9999596
vn 0.003345056 0.7071034 -0.7071022
vn 0.003345049 -0.707103 -0.7071026
vn 0.004957257 0.007504953 -0.9999596
vn 0.707098 -0.00506173 -0.7070974
vn 0.577351 -0.5773497 -0.5773502
vn 0.707098 0.005061723 -0.7070974
vn 0.5773512 0.5773498 -0.5773497
vn -0.5773512 0.5773498 0.5773497
vn -0.7070672 0.7070673 0.01057067
vn -0.00492331 0.9998664 -0.01558979
vn -0.7070671 0.7070673 -0.01057067
vn 0.00492331 0.9998664 -0.01558979
vn -0.003345058 0.7071034 -0.7071022
vn -0.5773509 0.57735 -0.57735
g ENV_BLO_Wall_3_0
f 3/3/3 2/2/2 1/1/1
f 4/4/4 3/3/3 1/1/1
f 1/1/1 5/5/5 4/4/4
f 4/4/4 6/6/6 3/3/3
f 6/6/6 7/7/7 3/3/3
f 5/5/5 8/8/8 4/4/4
f 6/6/6 4/4/4 8/8/8
f 6/6/6 9/9/9 7/7/7
f 9/9/9 10/10/10 7/7/7
f 8/8/8 5/5/5 11/11/11
f 5/5/5 12/12/12 11/11/11
f 11/11/11 13/13/13 8/8/8
f 14/14/14 6/6/6 8/8/8
f 13/13/13 14/14/14 8/8/8
f 6/6/6 14/14/14 9/9/9
f 14/14/14 13/13/13 15/15/15
f 14/14/14 15/15/15 9/9/9
f 13/13/13 16/16/16 15/15/15
f 15/15/15 16/16/16 17/17/17
f 18/18/18 10/10/10 9/9/9
f 19/19/19 10/10/10 18/18/18
f 20/20/20 15/15/15 17/17/17
f 17/17/17 21/21/21 20/20/20
f 9/9/9 15/15/15 22/22/22
f 22/22/22 18/18/18 9/9/9
f 15/15/15 20/20/20 22/22/22
f 23/23/23 22/22/22 20/20/20
f 22/22/22 23/23/23 18/18/18
f 21/21/21 24/24/24 20/20/20
f 24/24/24 23/23/23 20/20/20
f 24/24/24 21/21/21 25/25/25
f 21/21/21 26/26/26 25/25/25
f 25/25/25 26/26/26 27/27/27
f 23/23/23 24/24/24 28/28/28
f 24/24/24 25/25/25 28/28/28
f 23/23/23 29/29/29 18/18/18
f 23/23/23 28/28/28 29/29/29
f 30/30/30 19/19/19 18/18/18
f 18/18/18 29/29/29 30/30/30
f 19/19/19 30/30/30 31/31/31
f 32/32/32 19/19/19 31/31/31
f 29/29/29 33/33/33 30/30/30
f 31/31/31 34/34/34 32/32/32
f 34/34/34 35/35/35 32/32/32
f 31/31/31 36/36/36 34/34/34
f 37/37/37 35/35/35 34/34/34
f 33/33/33 29/29/29 38/38/38
f 29/29/29 39/39/39 38/38/38
f 28/28/28 39/39/39 29/29/29
f 33/33/33 38/38/38 40/40/40
f 36/36/36 33/33/33 40/40/40
f 41/41/41 39/39/39 28/28/28
f 36/36/36 40/40/40 42/42/42
f 36/36/36 42/42/42 34/34/34
f 40/40/40 43/43/43 42/42/42
f 42/42/42 43/43/43 44/44/44
f 45/45/45 37/37/37 34/34/34
f 34/34/34 42/42/42 45/45/45
f 46/46/46 42/42/42 44/44/44
f 42/42/42 46/46/46 45/45/45
f 44/44/44 47/47/47 46/46/46
f 45/45/45 48/48/48 37/37/37
f 45/45/45 46/46/46 48/48/48
f 48/48/48 49/49/49 37/37/37
f 50/50/50 41/41/41 28/28/28
f 28/28/28 25/25/25 50/50/50
f 47/47/47 51/51/51 46/46/46
f 46/46/46 51/51/51 48/48/48
f 48/48/48 52/52/52 49/49/49
f 48/48/48 51/51/51 52/52/52
f 52/52/52 53/53/53 49/49/49
f 54/54/54 53/53/53 52/52/52
f 51/51/51 47/47/47 55/55/55
f 51/51/51 55/55/55 52/52/52
f 47/47/47 56/56/56 55/55/55
f 55/55/55 56/56/56 57/57/57
f 41/41/41 50/50/50 58/58/58
f 59/59/59 41/41/41 58/58/58
f 60/60/60 54/54/54 52/52/52
f 52/52/52 55/55/55 60/60/60
f 61/61/61 55/55/55 57/57/57
f 55/55/55 61/61/61 60/60/60
f 60/60/60 62/62/62 54/54/54
f 57/57/57 63/63/63 61/61/61
f 62/62/62 64/64/64 54/54/54
f 63/63/63 65/65/65 61/61/61
f 62/62/62 66/66/66 64/64/64
f 62/62/62 65/65/65 66/66/66
f 66/66/66 67/67/67 64/64/64
f 65/65/65 68/68/68 66/66/66
f 65/65/65 63/63/63 68/68/68
f 63/63/63 69/69/69 68/68/68
f 71/71/71 70/70/70 59/59/59
f 58/58/58 71/71/71 59/59/59
f 58/58/58 72/72/72 71/71/71
f 72/72/72 73/73/73 71/71/71
f 74/74/74 72/72/72 58/58/58
f 50/50/50 74/74/74 58/58/58
f 25/25/25 74/74/74 50/50/50
f 74/74/74 25/25/25 27/27/27
f 74/74/74 27/27/27 75/75/75
f 72/72/72 74/74/74 75/75/75
f 72/72/72 75/75/75 73/73/73
f 75/75/75 76/76/76 73/73/73
g ENV_BLO_Wall_3_1
f 61/61/61 65/65/65 62/62/62
f 60/60/60 61/61/61 62/62/62
f 36/36/36 31/31/31 30/30/30
f 33/33/33 36/36/36 30/30/30
