g ENV_platform10_Col
v -16.62473 -4.36436 -8.40895
v -22.26869 -4.375001 -14.38689
v 0 -4.375001 -14.38689
v 0 -4.36436 -8.40895
v -16.13553 4.367212 8.295854
v 16.62473 -4.36436 -8.40895
v 22.26869 -4.375001 -14.38689
v 4.699325E-06 4.359424 8.271358
v 16.13553 4.367212 8.295841
v 4.699325E-06 4.374976 8.320335
v -9.240442 4.374976 12.22688
v -13.22931 4.374976 13.31211
v -16.13494 4.374976 14.36044
v -16.13494 0.6287988 14.3737
v -13.22165 0.6305351 13.33568
v -9.235095 0.6305351 12.2511
v -6.190113 4.374976 11.65586
v -6.186533 0.6305351 11.68042
v -3.10253 4.374976 11.33179
v -3.100736 0.6305351 11.35653
v -5.329132E-07 4.374976 11.20694
v -5.329132E-07 0.6305351 11.23175
v 3.102536 4.374976 11.3318
v 3.100743 0.6305351 11.35653
v 6.190123 4.374976 11.65586
v 6.186543 0.6305351 11.68042
v 9.240452 4.374976 12.22688
v 9.235105 0.6305351 12.2511
v 13.22933 4.374976 13.31211
v 16.13494 4.374976 14.36044
v 13.22167 0.6305351 13.33568
v 16.13494 0.6287988 14.3737
v 0 -4.375001 -14.38689
v -22.26869 -4.375001 -14.38689
v -22.26869 -8.12289 -14.38689
v 0 -8.12289 -14.38689
v 22.26869 -8.12289 -14.38689
v 22.26869 -4.375001 -14.38689
v -16.62473 -4.36436 -8.40895
v -16.62473 -8.112249 -8.40895
v -22.26869 -8.12289 -14.38689
v -22.26869 -4.375001 -14.38689
v 22.26869 -4.375001 -14.38689
v 22.26869 -8.12289 -14.38689
v 16.62473 -8.112249 -8.40895
v 16.62473 -4.36436 -8.40895
v 16.62473 -4.36436 -8.40895
v 16.62473 -8.112249 -8.40895
v 16.13553 0.6193234 8.295841
v 16.13553 4.367212 8.295841
v -16.13553 4.367212 8.295854
v -16.13553 0.6193234 8.295854
v -16.62473 -8.112249 -8.40895
v -16.62473 -4.36436 -8.40895
v 16.13553 4.367212 8.295841
v 16.13553 0.6193234 8.295841
v 16.13494 0.6287988 14.3737
v 16.13494 4.374976 14.36044
v -16.13494 4.374976 14.36044
v -16.13494 0.6287988 14.3737
v -16.13553 0.6193234 8.295854
v -16.13553 4.367212 8.295854
v -16.62473 -8.112249 -8.40895
v 0 -8.12289 -14.38689
v -22.26869 -8.12289 -14.38689
v 0 -8.112249 -8.40895
v 22.26869 -8.12289 -14.38689
v 16.62473 -8.112249 -8.40895
v -16.13553 0.6193234 8.295854
v 0 -8.112249 -8.40895
v -16.62473 -8.112249 -8.40895
v -6.298065E-07 0.6193234 8.295841
v 16.62473 -8.112249 -8.40895
v 16.13553 0.6193234 8.295841
v 3.100743 0.6305351 11.35653
v 16.13553 0.6193234 8.295841
v -6.298065E-07 0.6193234 8.295841
v -5.329132E-07 0.6305351 11.23175
v -5.329132E-07 0.6305351 11.23175
v -6.298065E-07 0.6193234 8.295841
v -16.13553 0.6193234 8.295854
v -3.100736 0.6305351 11.35653
v -6.186533 0.6305351 11.68042
v -3.100736 0.6305351 11.35653
v -16.13553 0.6193234 8.295854
v -9.235095 0.6305351 12.2511
v 16.13553 0.6193234 8.295841
v 3.100743 0.6305351 11.35653
v 6.186543 0.6305351 11.68042
v 9.235105 0.6305351 12.2511
v -13.22165 0.6305351 13.33568
v -9.235095 0.6305351 12.2511
v -16.13553 0.6193234 8.295854
v -16.13494 0.6287988 14.3737
v 16.13553 0.6193234 8.295841
v 9.235105 0.6305351 12.2511
v 13.22167 0.6305351 13.33568
v 16.13494 0.6287988 14.3737
vt 0.8646679 0.2225287
vt 0.9856253 0.09254402
vt 0.5050634 0.09515795
vt 0.5052257 0.2245681
vt 0.8562339 0.6297
vt 0.1457954 0.2234848
vt 0.02450681 0.09368676
vt 0.5059208 0.632399
vt 0.155535 0.6309062
vt 0.5059228 0.6335168
vt 0.7089548 0.7166501
vt 0.7972535 0.7380866
vt 0.8618874 0.7568084
vt 0.842214 0.8339619
vt 0.7783544 0.816699
vt 0.6943236 0.7965471
vt 0.6420052 0.7048919
vt 0.6316949 0.7854777
vt 0.5742545 0.6982917
vt 0.5690064 0.7792351
vt 0.5060467 0.6958468
vt 0.5061768 0.7769283
vt 0.4378412 0.6985191
vt 0.4433812 0.7794991
vt 0.3701023 0.7053556
vt 0.3807733 0.786012
vt 0.3031859 0.7173548
vt 0.3182662 0.797362
vt 0.214984 0.7391418
vt 0.1505367 0.7581372
vt 0.2344134 0.8180522
vt 0.1703781 0.8356555
vt 0 0
vt 0 0
vt 0 1
vt 0.5 1
vt 1 1
vt 1 0
vt 0 0
vt 0 1
vt 1 1
vt 1 0
vt 0 0
vt 0 1
vt 1 1
vt 1 0
vt 0 0
vt 0 1
vt 1 1
vt 1 0
vt 0 0
vt 0 1
vt 1 1
vt 1 0
vt 0 0
vt 0 1
vt 1 1
vt 1 0
vt 0 0
vt 0 1
vt 1 1
vt 1 0
vt 0.7048414 5.616877E-16
vt 0.4866439 0.5
vt 0.9587084 0
vt 0.3524207 0.373276
vt 0.01457938 1
vt 0 0.746552
vt 0.02518947 0
vt 0.5794957 0.5
vt 0.5924724 1.368144E-16
vt 0.01259474 0.4852869
vt 0.5665189 0.9999999
vt 0 0.9705738
vt 0.8001976 0
vt 0 0.2221936
vt 0.9999999 0.1819501
vt 0.9926775 0
vt 0.007322436 0
vt 0 0.1819501
vt 0.9999999 0.2221931
vt 0.1998018 0
vt 0.2524849 0.02036351
vt 0 0
vt 1 0.4414088
vt 0.5056893 0.02036351
vt 0 0.4414098
vt 1 0
vt 0.7475147 0.02036358
vt 0.4943101 0.02036358
vt 0.5711758 0.04386349
vt 0 0
vt 0.7172271 0.837743
vt 1 0.04386349
vt 0.2827752 0.8377458
vt 1 0
vt 0.428823 0.0438646
vt 0 0.0438646
vn 0 0.8944272 -0.4472136
vn 0 1 0
vn 0 1 0
vn 0 0.8944272 -0.4472136
vn 0 0.8320503 -0.5547002
vn 0 0.8944272 -0.4472136
vn 0 1 0
vn 0 0.8320503 -0.5547002
vn 0 0.8320503 -0.5547002
vn 0 1 0
vn 0 1 0
vn 0 1 0
vn 0 1 0
vn 0.3381988 0 0.9410747
vn 0.3117704 0 0.9501575
vn 0.2353827 0 0.9719027
vn 0 1 0
vn 0.1468287 0 0.989162
vn 0.003124985 0.9999951 0
vn 0.0971939 0 0.9952655
vn 0 1 0
vn 0 0 1
vn 0 1 0
vn -0.0507159 0 0.9987131
vn 0 1 0
vn -0.1468287 0 0.989162
vn 0 1 0
vn -0.1842885 0 0.9828722
vn 0 1 0
vn 0 1 0
vn -0.2707456 0 0.962651
vn -0.3250798 0 0.9456866
vn 0 0 -1
vn 0 0 -1
vn 0 0 -1
vn 0 0 -1
vn 0 0 -1
vn 0 0 -1
vn -0.7615394 0 0.6481186
vn -0.7615394 0 0.6481186
vn -0.7071068 0 0.7071068
vn -0.7071068 0 0.7071068
vn 0.6996247 0 0.7145104
vn 0.6996247 0 0.7145104
vn 0.7615394 0 0.6481186
vn 0.7615394 0 0.6481186
vn 1 0 0
vn 1 0 0
vn 1 0 0
vn 1 0 0
vn -1 0 0
vn -1 0 0
vn -1 0 0
vn -1 0 0
vn 1 0 0
vn 1 0 0
vn 1 0 0
vn 1 0 0
vn -1 0 0
vn -1 0 0
vn -1 0 0
vn -1 0 0
vn 0 -1 0
vn 0 -1 0
vn 0 -1 0
vn 0 -1 0
vn 0 -1 0
vn 0 -1 0
vn 0 -0.8944272 0.4472136
vn 0 -0.8944272 0.4472136
vn 0 -0.8944272 0.4472136
vn 0 -0.8944272 0.4472136
vn 0 -0.8944272 0.4472136
vn 0 -0.8944272 0.4472136
vn 0 -1 0
vn 0 -1 0
vn 0 -1 0
vn 0 -1 0
vn 0 -1 0
vn 0 -1 0
vn 0 -1 0
vn 0 -1 0
vn 0 -1 0
vn 0 -1 0
vn 0 -1 0
vn 0 -1 0
vn 0 -1 0
vn 0 -1 0
vn 0 -1 0
vn 0 -1 0
vn 0 -1 0
vn 0 -1 0
vn 0 -1 0
vn 0 -1 0
vn 0 -1 0
vn 0 -1 0
vn 0 -1 0
vn 0 -1 0
g ENV_platform10_Col_0
f 3/3/3 2/2/2 1/1/1
f 4/4/4 3/3/3 1/1/1
f 4/4/4 1/1/1 5/5/5
f 4/4/4 6/6/6 3/3/3
f 6/6/6 7/7/7 3/3/3
f 4/4/4 8/8/8 6/6/6
f 8/8/8 4/4/4 5/5/5
f 8/8/8 9/9/9 6/6/6
f 10/10/10 8/8/8 5/5/5
f 8/8/8 10/10/10 9/9/9
f 10/10/10 5/5/5 11/11/11
f 11/11/11 5/5/5 12/12/12
f 12/12/12 5/5/5 13/13/13
f 13/13/13 14/14/14 12/12/12
f 14/14/14 15/15/15 12/12/12
f 12/12/12 15/15/15 11/11/11
f 15/15/15 16/16/16 11/11/11
f 11/11/11 16/16/16 17/17/17
f 17/17/17 10/10/10 11/11/11
f 16/16/16 18/18/18 17/17/17
f 17/17/17 18/18/18 19/19/19
f 19/19/19 10/10/10 17/17/17
f 18/18/18 20/20/20 19/19/19
f 19/19/19 20/20/20 21/21/21
f 21/21/21 10/10/10 19/19/19
f 20/20/20 22/22/22 21/21/21
f 21/21/21 22/22/22 23/23/23
f 23/23/23 10/10/10 21/21/21
f 22/22/22 24/24/24 23/23/23
f 25/25/25 10/10/10 23/23/23
f 23/23/23 24/24/24 25/25/25
f 24/24/24 26/26/26 25/25/25
f 9/9/9 10/10/10 25/25/25
f 25/25/25 26/26/26 27/27/27
f 27/27/27 9/9/9 25/25/25
f 26/26/26 28/28/28 27/27/27
f 29/29/29 9/9/9 27/27/27
f 27/27/27 28/28/28 29/29/29
f 30/30/30 9/9/9 29/29/29
f 28/28/28 31/31/31 29/29/29
f 30/30/30 29/29/29 32/32/32
f 29/29/29 31/31/31 32/32/32
f 35/35/35 34/34/34 33/33/33
f 36/36/36 35/35/35 33/33/33
f 36/36/36 33/33/33 37/37/37
f 33/33/33 38/38/38 37/37/37
f 41/41/41 40/40/40 39/39/39
f 42/42/42 41/41/41 39/39/39
f 45/45/45 44/44/44 43/43/43
f 46/46/46 45/45/45 43/43/43
f 49/49/49 48/48/48 47/47/47
f 50/50/50 49/49/49 47/47/47
f 53/53/53 52/52/52 51/51/51
f 54/54/54 53/53/53 51/51/51
f 57/57/57 56/56/56 55/55/55
f 58/58/58 57/57/57 55/55/55
f 61/61/61 60/60/60 59/59/59
f 62/62/62 61/61/61 59/59/59
f 65/65/65 64/64/64 63/63/63
f 64/64/64 66/66/66 63/63/63
f 64/64/64 67/67/67 66/66/66
f 67/67/67 68/68/68 66/66/66
f 71/71/71 70/70/70 69/69/69
f 70/70/70 72/72/72 69/69/69
f 70/70/70 73/73/73 72/72/72
f 73/73/73 74/74/74 72/72/72
f 77/77/77 76/76/76 75/75/75
f 78/78/78 77/77/77 75/75/75
f 81/81/81 80/80/80 79/79/79
f 82/82/82 81/81/81 79/79/79
f 85/85/85 84/84/84 83/83/83
f 86/86/86 85/85/85 83/83/83
f 89/89/89 88/88/88 87/87/87
f 90/90/90 89/89/89 87/87/87
f 93/93/93 92/92/92 91/91/91
f 94/94/94 93/93/93 91/91/91
f 97/97/97 96/96/96 95/95/95
f 98/98/98 97/97/97 95/95/95
