g ENV_BLO_Trip_10
v 4.999103 0.717006 0.986007
v -4.994324 0.7469997 0.9494234
v 4.999103 0.7469997 0.9494234
v -4.994324 0.717006 0.986007
v -4.994324 0.64701 1
v 4.999103 0.64701 1
v -4.994324 0.06269283 1
v 4.999103 0.06269283 1
v 4.999103 0.01678964 0.9809863
v -4.994324 0.01678964 0.9809863
v 4.999103 0.7469997 -0.9494234
v -4.994324 0.7469997 -0.9494234
v -4.994324 0.717006 -0.986007
v 4.999103 0.717006 -0.986007
v 4.999103 0.64701 -1
v -4.994324 0.64701 -1
v -4.994324 0.06269283 -1
v 4.999103 0.06269283 -1
v -4.994324 0.01678964 -0.9809863
v 4.999103 0.01678964 -0.9809863
v -4.994324 -0.002224088 -0.9350831
v 4.999103 -0.002224088 -0.9350831
v 4.999103 -0.002224088 0.9350831
v -4.994324 -0.002224088 0.9350831
v -4.994324 0.01678964 0.9809863
v 4.999103 0.01678964 0.9809863
vt 0.6799644 0.5121919
vt 0.3688718 0.5136611
vt 0.6799642 0.5136645
vt 0.3688719 0.512189
vt 0.3688719 0.5099676
vt 0.6799644 0.5099698
vt 0.3688714 0.4917853
vt 0.6799647 0.4917801
vt 0.6799645 0.4902335
vt 0.3688713 0.4902386
vt 0.6799631 0.5727755
vt 0.3688678 0.5727611
vt 0.3688678 0.5742336
vt 0.6799631 0.5742482
vt 0.6799631 0.5764703
vt 0.3688676 0.5764558
vt 0.3688666 0.5946467
vt 0.6799624 0.5946602
vt 0.3688666 0.5961934
vt 0.6799624 0.5962068
vt 0.3688666 0.5977402
vt 0.6799622 0.5977535
vt 0.6799594 0.6559718
vt 0.3688645 0.6559608
vt 0.3688645 0.6575075
vt 0.6799594 0.6575184
vn 0 0.4513621 0.8923408
vn 0 0.99988 0.01549534
vn 0 0.99988 0.01549534
vn 0 0.4513621 0.8923408
vn 0 0.02138085 0.9997714
vn 0 0.02138085 0.9997714
vn 0 -0.03015621 0.9995452
vn 0 -0.03015621 0.9995452
vn 0 -0.7071067 0.7071068
vn 0 -0.7071067 0.7071068
vn 0 0.99988 -0.01549534
vn 0 0.99988 -0.01549534
vn 0 0.4513621 -0.8923408
vn 0 0.4513621 -0.8923408
vn 0 0.02138085 -0.9997714
vn 0 0.02138085 -0.9997714
vn 0 -0.03015621 -0.9995452
vn 0 -0.03015621 -0.9995452
vn 0 -0.7071067 -0.7071068
vn 0 -0.7071067 -0.7071068
vn 0 -0.9999508 -0.009922809
vn 0 -0.9999508 -0.009922809
vn 0 -0.9999508 0.009922809
vn 0 -0.9999508 0.009922809
vn 0 -0.7071067 0.7071068
vn 0 -0.7071067 0.7071068
g ENV_BLO_Trip_10_0
f 3/3/3 2/2/2 1/1/1
f 2/2/2 4/4/4 1/1/1
f 4/4/4 5/5/5 1/1/1
f 5/5/5 6/6/6 1/1/1
f 5/5/5 7/7/7 6/6/6
f 7/7/7 8/8/8 6/6/6
f 8/8/8 7/7/7 9/9/9
f 7/7/7 10/10/10 9/9/9
f 13/13/13 12/12/12 11/11/11
f 14/14/14 13/13/13 11/11/11
f 13/13/13 14/14/14 15/15/15
f 16/16/16 13/13/13 15/15/15
f 17/17/17 16/16/16 15/15/15
f 18/18/18 17/17/17 15/15/15
f 19/19/19 17/17/17 18/18/18
f 20/20/20 19/19/19 18/18/18
f 21/21/21 19/19/19 20/20/20
f 22/22/22 21/21/21 20/20/20
f 21/21/21 22/22/22 23/23/23
f 24/24/24 21/21/21 23/23/23
f 25/25/25 24/24/24 23/23/23
f 26/26/26 25/25/25 23/23/23
g ENV_BLO_Trip_10_1
f 2/2/2 3/3/3 11/11/11
f 12/12/12 2/2/2 11/11/11
