g ENV_TerrainIslandSmall
v -2.433619 10.52121 -16.70109
v -11.91597 -12.17584 -26.48831
v -3.875068 -12.17584 -29.23175
v 3.177982 -12.17584 -29.88244
v -5.493024 10.65562 -15.50818
v -9.658918 10.36539 -13.56451
v -17.83142 -12.17584 -23.17191
v -23.06044 -12.17584 -18.01456
v -0.6859969 11.98704 -15.18708
v 0.2162911 10.46629 -17.15224
v 3.481658 10.64836 -16.82451
v 7.566373 10.39694 -15.66827
v 10.301 -12.17584 -28.357
v 16.88885 -12.17584 -24.1532
v -6.076612 12.06984 -13.1501
v 4.413368 12.04646 -14.66639
v 11.08021 10.31453 -12.79186
v 21.95841 -12.17584 -18.47189
v 0.2313026 11.55755 2.166437
v 7.806897 11.90596 -13.13026
v 9.619345 12.12854 -10.79929
v 13.20298 10.56259 -9.53259
v 25.32527 -12.17584 -11.58906
v 12.6474 12.15489 -4.523966
v -9.139318 12.17583 -9.756837
v 13.07024 12.17158 5.59229
v 15.4191 10.38585 -3.017234
v 27.27011 -12.17584 -3.903339
v 13.78413 11.93301 0.8581228
v 15.79989 10.27749 -0.07121736
v 27.78517 -12.17584 2.946462
v 15.87358 10.31976 3.21792
v 27.46997 -12.17584 8.436274
v 14.66565 10.42218 8.155858
v 26.02654 -12.17584 13.16621
v 22.93889 -12.17584 18.13218
v 11.47278 12.02766 9.040329
v 11.23287 10.2948 12.3805
v 17.22519 -12.17584 23.19575
v 7.556266 12.11311 12.16301
v 8.11726 10.2727 14.57301
v 9.396051 -12.17584 27.77672
v 5.445966 10.46243 15.61461
v 2.487458 12.05287 14.64705
v 2.251892 10.33394 17.07994
v 2.398395 -12.17584 29.88244
v -0.981162 11.93864 15.29339
v -0.9515314 10.22702 17.39918
v -5.002202 -12.17584 29.29127
v -4.548735 10.29605 16.60781
v -11.29275 -12.17584 26.63556
v -5.594096 12.0558 13.57622
v -8.034755 10.30647 14.5051
v -15.93838 -12.17584 23.23546
v -11.76405 10.29703 11.12271
v -22.13965 -12.17584 16.44066
v -10.86381 12.16757 8.362052
v -14.51958 10.2948 5.966517
v -25.367 -12.17584 10.56641
v -27.78517 -12.17584 0.06338847
v -12.30124 12.10483 -5.525835
v -13.09834 12.06679 2.625383
v -15.3443 10.37118 1.635127
v -15.26279 10.47171 -1.99969
v -27.10278 -12.17584 -9.700235
v -13.63043 10.44378 -8.586785
v -9.722073 11.99924 -10.6765
v -11.97453 10.25038 -11.43521
vt 0.4588853 0.5373886
vt 0.4553366 0.5410513
vt 0.4583458 0.542078
vt 0.4609854 0.5423215
vt 0.4577403 0.5369421
vt 0.4561813 0.5362147
vt 0.4531228 0.5398102
vt 0.4511659 0.5378801
vt 0.4595393 0.536822
vt 0.459877 0.5375574
vt 0.461099 0.5374348
vt 0.4626276 0.537002
vt 0.4636511 0.5417506
vt 0.4661165 0.5401774
vt 0.4575219 0.5360596
vt 0.4614477 0.5366271
vt 0.4639427 0.5359256
vt 0.4680138 0.5380512
vt 0.4598826 0.5303276
vt 0.4627177 0.5360522
vt 0.463396 0.5351799
vt 0.4647371 0.5347058
vt 0.4692737 0.5354754
vt 0.4645292 0.5328314
vt 0.4563757 0.5347897
vt 0.4646874 0.5290455
vt 0.4655665 0.5322675
vt 0.4700016 0.5325991
vt 0.4649546 0.5308172
vt 0.465709 0.531165
vt 0.4701943 0.5300356
vt 0.4657365 0.529934
vt 0.4700764 0.5279812
vt 0.4652845 0.528086
vt 0.4695362 0.526211
vt 0.4683806 0.5243525
vt 0.4640896 0.527755
vt 0.4639998 0.526505
vt 0.4662424 0.5224575
vt 0.4626239 0.5265864
vt 0.4628338 0.5256845
vt 0.4633124 0.5207431
vt 0.4618341 0.5252947
vt 0.4607269 0.5256568
vt 0.4606388 0.5247463
vt 0.4606936 0.5199551
vt 0.4594288 0.5254149
vt 0.4594399 0.5246269
vt 0.457924 0.5201764
vt 0.4580937 0.524923
vt 0.4555698 0.5211702
vt 0.4577025 0.5260575
vt 0.4567891 0.5257099
vt 0.4538312 0.5224426
vt 0.4553934 0.5269758
vt 0.4515105 0.5249856
vt 0.4557303 0.5280089
vt 0.4543622 0.5289054
vt 0.4503027 0.5271839
vt 0.4493977 0.5311146
vt 0.4551924 0.5332063
vt 0.4548941 0.5301558
vt 0.4540536 0.5305263
vt 0.4540841 0.5318867
vt 0.4496531 0.5347686
vt 0.454695 0.5343519
vt 0.4561576 0.5351339
vt 0.4553147 0.5354178
vn -0.2189294 0.5033188 -0.8359067
vn -0.3512562 0.4808193 -0.8033878
vn -0.1889177 0.4837836 -0.8545546
vn 0.05724333 0.4959157 -0.8664819
vn -0.3441018 0.5241533 -0.7790104
vn -0.4836341 0.5160947 -0.7069259
vn -0.5301696 0.4878045 -0.6935179
vn -0.7182064 0.4923716 -0.4916805
vn -0.005170236 0.9988545 -0.04757153
vn -0.03417708 0.5130727 -0.8576645
vn 0.1766592 0.5223358 -0.8342403
vn 0.405117 0.5103259 -0.7585827
vn 0.3269579 0.4928711 -0.8063353
vn 0.567174 0.4749845 -0.6728323
vn -0.01550915 0.9976533 -0.06668863
vn 0.001590979 0.9985335 -0.05411518
vn 0.633677 0.5056648 -0.5854542
vn 0.7328816 0.4676985 -0.494108
vn 0.01459172 0.999893 0.001077037
vn 0.3113985 0.8580061 -0.4084807
vn 0.03324002 0.9990407 -0.02850955
vn 0.7780972 0.5199967 -0.3523749
vn 0.8324128 0.463178 -0.3042287
vn 0.06104066 0.9978865 -0.0222851
vn 0.0370301 0.9993122 0.001967103
vn 0.05386315 0.9981304 0.02889045
vn 0.8364978 0.5062305 -0.2097668
vn 0.8738707 0.4630258 -0.1481796
vn 0.4643138 0.8854901 -0.01788919
vn 0.8667166 0.4952035 -0.05979761
vn 0.8849104 0.4655984 -0.01231394
vn 0.8519896 0.5137298 0.1009721
vn 0.8658468 0.476 0.154056
vn 0.7617252 0.5217535 0.3841197
vn 0.7942038 0.4814695 0.3707121
vn 0.6614514 0.4797758 0.5764523
vn 0.09173408 0.9917458 0.08958419
vn 0.5873684 0.5179021 0.621913
vn 0.511169 0.4747946 0.7164331
vn 0.04115685 0.9974117 0.05895781
vn 0.4310555 0.5100312 0.7443516
vn 0.3581136 0.4788502 0.8015342
vn 0.3373641 0.5373116 0.7729694
vn 0.009128588 0.9964367 0.08384865
vn 0.217831 0.5211508 0.8251979
vn 0.0931987 0.4851689 0.8694395
vn -0.01097234 0.9938912 0.109817
vn -0.06340506 0.5147069 0.8550185
vn -0.1997686 0.4774624 0.8556414
vn -0.3228248 0.5163139 0.7932239
vn -0.4266565 0.4673465 0.7743071
vn -0.03302145 0.9960511 0.08241227
vn -0.5258354 0.5033526 0.6856627
vn -0.6050825 0.4558038 0.6527773
vn -0.6822804 0.5037064 0.5298805
vn -0.7162264 0.4566159 0.5277516
vn -0.04979157 0.99715 0.0566802
vn -0.8148344 0.4982762 0.2962528
vn -0.8372695 0.4635474 0.290006
vn -0.8784387 0.4733434 0.0655093
vn -0.216403 0.9746915 -0.05609057
vn -0.3098121 0.9498118 0.0432877
vn -0.8574539 0.505927 0.09386511
vn -0.8319888 0.5423559 -0.1168109
vn -0.8420537 0.490772 -0.2238042
vn -0.7869948 0.5378343 -0.3022805
vn -0.3627281 0.8744366 -0.3221631
vn -0.6607914 0.5225368 -0.5388043
g ENV_TerrainIslandSmall_0
f 3/3/3 2/2/2 1/1/1
f 4/4/4 3/3/3 1/1/1
f 1/1/1 2/2/2 5/5/5
f 2/2/2 6/6/6 5/5/5
f 6/6/6 2/2/2 7/7/7
f 6/6/6 7/7/7 8/8/8
f 1/1/1 5/5/5 9/9/9
f 4/4/4 1/1/1 10/10/10
f 10/10/10 1/1/1 9/9/9
f 4/4/4 10/10/10 11/11/11
f 10/10/10 9/9/9 11/11/11
f 4/4/4 11/11/11 12/12/12
f 12/12/12 13/13/13 4/4/4
f 14/14/14 13/13/13 12/12/12
f 5/5/5 6/6/6 15/15/15
f 5/5/5 15/15/15 9/9/9
f 11/11/11 9/9/9 16/16/16
f 12/12/12 11/11/11 16/16/16
f 17/17/17 14/14/14 12/12/12
f 18/18/18 14/14/14 17/17/17
f 15/15/15 19/19/19 9/9/9
f 16/16/16 9/9/9 19/19/19
f 12/12/12 16/16/16 20/20/20
f 12/12/12 20/20/20 17/17/17
f 20/20/20 16/16/16 21/21/21
f 19/19/19 21/21/21 16/16/16
f 17/17/17 20/20/20 21/21/21
f 22/22/22 18/18/18 17/17/17
f 22/22/22 17/17/17 21/21/21
f 23/23/23 18/18/18 22/22/22
f 19/19/19 24/24/24 21/21/21
f 22/22/22 21/21/21 24/24/24
f 25/25/25 19/19/19 15/15/15
f 24/24/24 19/19/19 26/26/26
f 23/23/23 22/22/22 27/27/27
f 22/22/22 24/24/24 27/27/27
f 28/28/28 23/23/23 27/27/27
f 24/24/24 29/29/29 27/27/27
f 29/29/29 24/24/24 26/26/26
f 30/30/30 28/28/28 27/27/27
f 30/30/30 27/27/27 29/29/29
f 31/31/31 28/28/28 30/30/30
f 32/32/32 30/30/30 29/29/29
f 32/32/32 31/31/31 30/30/30
f 32/32/32 29/29/29 26/26/26
f 32/32/32 33/33/33 31/31/31
f 33/33/33 32/32/32 34/34/34
f 34/34/34 32/32/32 26/26/26
f 34/34/34 35/35/35 33/33/33
f 36/36/36 35/35/35 34/34/34
f 34/34/34 26/26/26 37/37/37
f 19/19/19 37/37/37 26/26/26
f 36/36/36 34/34/34 38/38/38
f 34/34/34 37/37/37 38/38/38
f 38/38/38 39/39/39 36/36/36
f 38/38/38 37/37/37 40/40/40
f 19/19/19 40/40/40 37/37/37
f 41/41/41 39/39/39 38/38/38
f 38/38/38 40/40/40 41/41/41
f 42/42/42 39/39/39 41/41/41
f 43/43/43 41/41/41 40/40/40
f 43/43/43 42/42/42 41/41/41
f 43/43/43 40/40/40 44/44/44
f 40/40/40 19/19/19 44/44/44
f 45/45/45 42/42/42 43/43/43
f 43/43/43 44/44/44 45/45/45
f 46/46/46 42/42/42 45/45/45
f 45/45/45 44/44/44 47/47/47
f 47/47/47 44/44/44 19/19/19
f 48/48/48 46/46/46 45/45/45
f 48/48/48 45/45/45 47/47/47
f 48/48/48 49/49/49 46/46/46
f 50/50/50 49/49/49 48/48/48
f 48/48/48 47/47/47 50/50/50
f 50/50/50 51/51/51 49/49/49
f 47/47/47 19/19/19 52/52/52
f 50/50/50 47/47/47 52/52/52
f 53/53/53 51/51/51 50/50/50
f 50/50/50 52/52/52 53/53/53
f 53/53/53 54/54/54 51/51/51
f 55/55/55 54/54/54 53/53/53
f 55/55/55 53/53/53 52/52/52
f 55/55/55 56/56/56 54/54/54
f 52/52/52 19/19/19 57/57/57
f 55/55/55 52/52/52 57/57/57
f 57/57/57 19/19/19 25/25/25
f 58/58/58 56/56/56 55/55/55
f 58/58/58 55/55/55 57/57/57
f 59/59/59 56/56/56 58/58/58
f 60/60/60 59/59/59 58/58/58
f 57/57/57 25/25/25 61/61/61
f 58/58/58 57/57/57 62/62/62
f 62/62/62 57/57/57 61/61/61
f 60/60/60 58/58/58 63/63/63
f 58/58/58 62/62/62 63/63/63
f 64/64/64 60/60/60 63/63/63
f 64/64/64 63/63/63 62/62/62
f 64/64/64 62/62/62 61/61/61
f 65/65/65 60/60/60 64/64/64
f 66/66/66 65/65/65 64/64/64
f 66/66/66 64/64/64 61/61/61
f 8/8/8 65/65/65 66/66/66
f 61/61/61 25/25/25 67/67/67
f 66/66/66 61/61/61 67/67/67
f 15/15/15 67/67/67 25/25/25
f 6/6/6 67/67/67 15/15/15
f 6/6/6 8/8/8 68/68/68
f 68/68/68 8/8/8 66/66/66
f 6/6/6 68/68/68 67/67/67
f 68/68/68 66/66/66 67/67/67
