g ENV_solidBlock01_Col
v -4.432407 1.071017 -3.064346
v 4.434858 1.071017 -3.063081
v 0.0009022705 1.068784 3.097051
v -4.431505 -1.06995 -3.063081
v -4.432407 1.071017 -3.064346
v 0.0009022705 1.068784 3.097051
v 0.001172021 -1.069082 3.097423
v 4.433309 -1.06995 -3.063081
v 4.434858 1.071017 -3.063081
v -4.432407 1.071017 -3.064346
v -4.431505 -1.06995 -3.063081
v 0.001172021 -1.069082 3.097423
v 0.0009022705 1.068784 3.097051
v 4.434858 1.071017 -3.063081
v 4.433309 -1.06995 -3.063081
vt 0.1958346 0.1528446
vt 0.1883515 0.843359
vt 0.6746048 0.5025582
vt 0.2932439 0.0178777
vt 0.1958346 0.1528446
vt 0.6722172 0.4953828
vt 0.7693356 0.3605572
vt 0.02188525 0.8430762
vt 0.1883515 0.843359
vt 0.1883252 0.1540924
vt 0.02177848 0.154025
vt 0.7718097 0.6374781
vt 0.6746048 0.5025582
vt 0.1937653 0.848725
vt 0.2911131 0.9838883
vn 0 1 0
vn 0 1 0
vn 0 1 0
vn -0.8516583 0 0.5240974
vn -0.7926239 0 0.6097108
vn -0.7926239 0 0.6097108
vn -0.7926239 0 0.6097108
vn 0 0 -1
vn 0 0 -1
vn 0 0 -1
vn 0 0 -1
vn 0.7926239 0 0.6097108
vn 0.7926239 0 0.6097108
vn 0.8516583 0 0.5240974
vn 0.8516583 0 0.5240974
g ENV_solidBlock01_Col_0
f 3/3/3 2/2/2 1/1/1
f 6/6/6 5/5/5 4/4/4
f 7/7/7 6/6/6 4/4/4
f 10/10/10 9/9/9 8/8/8
f 11/11/11 10/10/10 8/8/8
f 14/14/14 13/13/13 12/12/12
f 15/15/15 14/14/14 12/12/12
