g ENV_bouncyTriangle01_Col
v 0.1489209 0.5807769 3.463032
v -0.1655664 0.5806281 3.459113
v -0.007377929 1.137072 2.943324
v -4.111743 0.5846713 -3.135337
v -3.953364 0.5840263 -3.421707
v -3.531484 1.132681 -2.938413
v 3.522524 1.131763 -2.936776
v 3.934336 0.5820172 -3.42456
v 4.109853 0.5856635 -3.127747
v 3.649033 -1.243211 -3.000176
v 4.087802 -0.6022082 -3.105324
v 3.913305 -0.5987604 -3.400698
v -0.007653808 -1.243211 3.102322
v -0.1646142 -0.5997773 3.44552
v 0.1480713 -0.5998766 3.449439
v -3.658462 -1.243211 -3.001987
v -3.932182 -0.6005959 -3.397771
v -4.089697 -0.6013152 -3.112864
v -3.531484 1.132681 -2.938413
v 3.522524 1.131763 -2.936776
v -0.007377929 1.137072 2.943324
v 3.934336 0.5820172 -3.42456
v -3.953364 0.5840263 -3.421707
v -3.932182 -0.6005959 -3.397771
v 3.913305 -0.5987604 -3.400698
v 3.934336 0.5820172 -3.42456
v 3.522524 1.131763 -2.936776
v -3.531484 1.132681 -2.938413
v -3.953364 0.5840263 -3.421707
v -4.111743 0.5846713 -3.135337
v -0.1655664 0.5806281 3.459113
v -0.1646142 -0.5997773 3.44552
v -4.089697 -0.6013152 -3.112864
v -4.111743 0.5846713 -3.135337
v -3.531484 1.132681 -2.938413
v -0.007377929 1.137072 2.943324
v -0.1655664 0.5806281 3.459113
v 0.1489209 0.5807769 3.463032
v -0.007377929 1.137072 2.943324
v 3.522524 1.131763 -2.936776
v 4.109853 0.5856635 -3.127747
v 0.1489209 0.5807769 3.463032
v 4.109853 0.5856635 -3.127747
v 4.087802 -0.6022082 -3.105324
v 0.1480713 -0.5998766 3.449439
v 0.1489209 0.5807769 3.463032
v 0.1480713 -0.5998766 3.449439
v -0.1646142 -0.5997773 3.44552
v -0.1655664 0.5806281 3.459113
v -4.111743 0.5846713 -3.135337
v -4.089697 -0.6013152 -3.112864
v -3.932182 -0.6005959 -3.397771
v -3.953364 0.5840263 -3.421707
v 4.109853 0.5856635 -3.127747
v 3.934336 0.5820172 -3.42456
v 3.913305 -0.5987604 -3.400698
v 4.087802 -0.6022082 -3.105324
v -3.658462 -1.243211 -3.001987
v -4.089697 -0.6013152 -3.112864
v -0.1646142 -0.5997773 3.44552
v -0.007653808 -1.243211 3.102322
v 3.649033 -1.243211 -3.000176
v -0.007653808 -1.243211 3.102322
v 0.1480713 -0.5998766 3.449439
v 4.087802 -0.6022082 -3.105324
v -3.658462 -1.243211 -3.001987
v 3.649033 -1.243211 -3.000176
v 3.913305 -0.5987604 -3.400698
v -3.932182 -0.6005959 -3.397771
vt 0.8226709 0.03408344
vt 0.4997053 0.6308272
vt 0.608037 0.332525
vt 0.49611 0.03442705
vt 0.164156 0.6469549
vt 0.2769811 0.3428557
vt 0.4393257 0.33055
vt 0.1644959 0.03462011
vt 0.8195648 0.6311339
vt 0.6505341 0.3307599
vt 0.9225097 0.6305805
vt 0.2687201 0.03485334
vt 0.8164591 0.3324744
vt 0.601068 0.6311367
vt 0.9241336 0.03376128
vt 0.4892337 0.342482
vt 0.2687483 0.6468395
vt 0.5993217 0.03457081
vt 0.2769811 0.3428557
vt 0.4393257 0.33055
vt 0.608037 0.332525
vt 0.1644959 0.03462011
vt 0.164156 0.6469549
vt 0.2687483 0.6468395
vt 0.2687201 0.03485334
vt 0.1644959 0.03462011
vt 0.4393257 0.33055
vt 0.2769811 0.3428557
vt 0.164156 0.6469549
vt 0.49611 0.03442705
vt 0.4997053 0.6308272
vt 0.601068 0.6311367
vt 0.5993217 0.03457081
vt 0.49611 0.03442705
vt 0.2769811 0.3428557
vt 0.608037 0.332525
vt 0.4997053 0.6308272
vt 0.8226709 0.03408344
vt 0.608037 0.332525
vt 0.4393257 0.33055
vt 0.8195648 0.6311339
vt 0.8226709 0.03408344
vt 0.8195648 0.6311339
vt 0.9225097 0.6305805
vt 0.9241336 0.03376128
vt 0.8226709 0.03408344
vt 0.9241336 0.03376128
vt 0.601068 0.6311367
vt 0.4997053 0.6308272
vt 0.49611 0.03442705
vt 0.5993217 0.03457081
vt 0.2687483 0.6468395
vt 0.164156 0.6469549
vt 0.8195648 0.6311339
vt 0.1644959 0.03462011
vt 0.2687201 0.03485334
vt 0.9225097 0.6305805
vt 0.4892337 0.342482
vt 0.5993217 0.03457081
vt 0.601068 0.6311367
vt 0.8164591 0.3324744
vt 0.6505341 0.3307599
vt 0.8164591 0.3324744
vt 0.9241336 0.03376128
vt 0.9225097 0.6305805
vt 0.4892337 0.342482
vt 0.6505341 0.3307599
vt 0.2687201 0.03485334
vt 0.2687483 0.6468395
vn -0.01056255 0.5546693 0.832004
vn -0.00897658 0.7070783 0.7070783
vn -0.01056255 0.5546693 0.832004
vn -0.4991366 0.8406512 -0.2101628
vn -0.6005326 0.7585675 -0.2528558
vn -0.6005326 0.7585675 -0.2528558
vn 0.5398728 0.7003755 -0.466917
vn 0.5902836 0.7657734 -0.2552578
vn 0.5398728 0.7003755 -0.466917
vn 0.7109437 -0.4972721 -0.4972721
vn 0.6234459 -0.6505522 -0.4337015
vn 0.789358 -0.5491185 -0.2745593
vn -0.01101291 -0.2425209 0.9700836
vn -0.01089451 -0.2425212 0.970085
vn -0.01004433 -0.447191 0.8943821
vn -0.7941357 -0.5435795 -0.2717898
vn -0.7203541 -0.4904539 -0.4904539
vn -0.7941357 -0.5435795 -0.2717898
vn 0 1 0
vn 0 1 0
vn 0.0001220703 1 0
vn 0 0 -1
vn 0 0 -1
vn 0 0 -1
vn 0 0 -1
vn 0 0.7071068 -0.7071068
vn 0 0.5547002 -0.8320503
vn 0 0.7071068 -0.7071068
vn 0 0.5547002 -0.8320503
vn -0.8653369 0 0.5011906
vn -0.7555413 0 0.655101
vn -0.7555413 0 0.655101
vn -0.7548996 0 0.6558403
vn -0.6129239 0.6574379 0.4382919
vn -0.6129239 0.6574379 0.4382919
vn -0.7818595 0.5576348 0.2788174
vn -0.6139911 0.6567481 0.4378321
vn 0.7802109 0.5594789 0.2797394
vn 0.7802109 0.5594789 0.2797394
vn 0.7810639 0.5585261 0.279263
vn 0.7793536 0.560434 0.280217
vn 0.8654597 0 0.5009784
vn 0.8653369 0 0.5011906
vn 0.8663155 0 0.4994972
vn 0.8654597 0 0.5009784
vn -0.01257225 0 0.999921
vn -0.01257225 0 0.999921
vn -0.01245021 0 0.9999225
vn -0.01245021 0 0.9999225
vn -0.9621639 0 -0.2724712
vn -0.9621639 0 -0.2724712
vn -0.8701322 0 -0.4928182
vn -0.9621639 0 -0.2724712
vn 0.7563632 0 -0.6541519
vn 0.8663155 0 -0.4994972
vn 0.8663155 0 -0.4994972
vn 0.7563632 0 -0.6541519
vn -0.8118662 -0.2611027 0.5222054
vn -0.7397361 -0.4758101 0.4758101
vn -0.8121268 -0.2609406 0.5218813
vn -0.8121268 -0.2609406 0.5218813
vn 0.9094825 -0.2939741 0.2939741
vn 0.8109506 -0.2616712 0.5233423
vn 0.8109506 -0.5233423 0.2616712
vn 0.8118662 -0.5222054 0.2611027
vn 0 -0.5547002 -0.8320503
vn 0 -0.5547002 -0.8320503
vn 0 -0.5547002 -0.8320503
vn 0 -0.5547002 -0.8320503
g ENV_bouncyTriangle01_Col_0
f 3/3/3 2/2/2 1/1/1
f 6/6/6 5/5/5 4/4/4
f 9/9/9 8/8/8 7/7/7
f 12/12/12 11/11/11 10/10/10
f 15/15/15 14/14/14 13/13/13
f 18/18/18 17/17/17 16/16/16
f 21/21/21 20/20/20 19/19/19
f 24/24/24 23/23/23 22/22/22
f 25/25/25 24/24/24 22/22/22
f 28/28/28 27/27/27 26/26/26
f 29/29/29 28/28/28 26/26/26
f 32/32/32 31/31/31 30/30/30
f 33/33/33 32/32/32 30/30/30
f 36/36/36 35/35/35 34/34/34
f 37/37/37 36/36/36 34/34/34
f 40/40/40 39/39/39 38/38/38
f 41/41/41 40/40/40 38/38/38
f 44/44/44 43/43/43 42/42/42
f 45/45/45 44/44/44 42/42/42
f 48/48/48 47/47/47 46/46/46
f 49/49/49 48/48/48 46/46/46
f 52/52/52 51/51/51 50/50/50
f 53/53/53 52/52/52 50/50/50
f 56/56/56 55/55/55 54/54/54
f 57/57/57 56/56/56 54/54/54
f 60/60/60 59/59/59 58/58/58
f 61/61/61 60/60/60 58/58/58
f 64/64/64 63/63/63 62/62/62
f 65/65/65 64/64/64 62/62/62
f 68/68/68 67/67/67 66/66/66
f 69/69/69 68/68/68 66/66/66
