g ENV_DOD_DoorBlockMedium2
v 1.426494 -1.905706 0.3477582
v 1.414809 -1.950221 -0.3477579
v 1.414809 -1.950221 0.3477582
v 1.426494 -1.905706 -0.3477579
v 1.426494 1.842308 -0.3477581
v 1.426494 1.842308 0.347758
v 1.41481 1.886822 0.347758
v 1.41481 1.886822 -0.3477581
v 1.382888 1.91941 0.347758
v 1.382888 1.91941 -0.3477581
v 1.339281 1.931337 0.347758
v 1.339281 1.931337 -0.3477581
v -1.339281 1.931337 0.347758
v -1.339281 1.931337 -0.3477581
v -1.382887 1.91941 0.347758
v -1.382887 1.91941 -0.3477581
v -1.414809 1.886822 0.347758
v -1.414809 1.886822 -0.3477581
v -1.426494 1.842308 0.347758
v -1.426494 1.842308 -0.3477581
v -1.426494 -1.905706 -0.3477579
v -1.426494 -1.905706 0.3477582
v -1.41481 -1.950221 0.3477582
v -1.41481 -1.950221 -0.3477579
v -1.382887 -1.982808 0.3477582
v -1.382888 -1.982808 -0.3477579
v -1.339281 -1.994735 0.3477582
v -1.339281 -1.994735 -0.3477579
v 1.339281 -1.994735 0.3477582
v 1.339281 -1.994735 -0.3477579
v 1.382887 -1.982808 0.3477582
v 1.382887 -1.982808 -0.3477579
v 1.414809 -1.950221 0.3477582
v 1.414809 -1.950221 -0.3477579
v -1.426494 -1.905706 0.3477582
v -1.426494 1.842308 0.347758
v -1.414809 1.842308 0.3922727
v -1.414809 1.886822 0.347758
v -1.41481 -1.905706 0.3922729
v -1.41481 -1.950221 0.3477582
v -1.408251 -1.944174 0.3862265
v -1.382887 -1.982808 0.3477582
v -1.408251 1.880776 0.3862262
v -1.382887 1.842308 0.4248598
v -1.376964 1.912714 0.3862262
v -1.382887 1.91941 0.347758
v -1.376964 1.880776 0.4181647
v -1.339281 1.91941 0.3922727
v -1.339281 1.931337 0.347758
v -1.339281 1.886822 0.4248598
v 1.339281 1.91941 0.3922727
v 1.339281 1.931337 0.347758
v 1.382888 1.91941 0.347758
v 1.339281 1.886822 0.4248598
v 1.376964 1.912714 0.3862262
v 1.408251 1.880776 0.3862262
v 1.41481 1.886822 0.347758
v 1.376964 1.880776 0.4181647
v 1.41481 1.842308 0.3922727
v 1.426494 1.842308 0.347758
v 1.382888 1.842308 0.4248598
v 1.339281 1.842308 0.4367874
v 1.414809 -1.905706 0.3922729
v 1.426494 -1.905706 0.3477582
v 1.414809 -1.950221 0.3477582
v 1.382887 -1.905706 0.42486
v 1.408251 -1.944174 0.3862265
v 1.376964 -1.976113 0.3862265
v 1.382887 -1.982808 0.3477582
v 1.376964 -1.944174 0.4181649
v 1.339281 -1.982808 0.3922729
v 1.339281 -1.994735 0.3477582
v 1.339281 -1.905706 0.4367876
v 1.339281 -1.950221 0.42486
v -1.339281 -1.982808 0.3922729
v -1.339281 -1.994735 0.3477582
v -1.339281 -1.905706 0.4367876
v -1.339281 -1.950221 0.42486
v -1.376964 -1.976113 0.3862265
v -1.376964 -1.944174 0.4181649
v -1.382888 -1.905706 0.42486
v -1.339281 1.842308 0.4367874
v -1.426494 1.842308 -0.3477581
v -1.426494 -1.905706 -0.3477579
v -1.41481 -1.905706 -0.3922726
v -1.41481 -1.950221 -0.3477579
v -1.414809 1.842308 -0.3922728
v -1.414809 1.886822 -0.3477581
v -1.408251 1.880776 -0.3862263
v -1.382887 1.91941 -0.3477581
v -1.408251 -1.944174 -0.3862261
v -1.382887 -1.905706 -0.4248596
v -1.376964 -1.976113 -0.3862261
v -1.382888 -1.982808 -0.3477579
v -1.376964 -1.944174 -0.4181645
v -1.339281 -1.982808 -0.3922726
v -1.339281 -1.994735 -0.3477579
v -1.339281 -1.950221 -0.4248596
v 1.339281 -1.982808 -0.3922726
v 1.339281 -1.994735 -0.3477579
v 1.382887 -1.982808 -0.3477579
v 1.339281 -1.950221 -0.4248596
v 1.376964 -1.976113 -0.3862261
v 1.408251 -1.944174 -0.3862261
v 1.414809 -1.950221 -0.3477579
v 1.376964 -1.944174 -0.4181645
v 1.414809 -1.905706 -0.3922726
v 1.426494 -1.905706 -0.3477579
v 1.382887 -1.905706 -0.4248596
v 1.339281 -1.905706 -0.4367873
v 1.41481 1.842308 -0.3922728
v 1.426494 1.842308 -0.3477581
v 1.41481 1.886822 -0.3477581
v 1.382888 1.842308 -0.4248599
v 1.408251 1.880776 -0.3862263
v 1.376964 1.912714 -0.3862263
v 1.382888 1.91941 -0.3477581
v 1.376964 1.880776 -0.4181649
v 1.339281 1.91941 -0.3922728
v 1.339281 1.931337 -0.3477581
v 1.339281 1.842308 -0.4367876
v 1.339281 1.886822 -0.4248599
v -1.339281 1.91941 -0.3922728
v -1.339281 1.931337 -0.3477581
v -1.339281 1.842308 -0.4367876
v -1.339281 1.886822 -0.4248599
v -1.376964 1.912714 -0.3862263
v -1.376964 1.880776 -0.4181649
v -1.382887 1.842308 -0.4248599
v -1.339281 -1.905706 -0.4367873
vt 0.2783153 -0.0281595
vt 0.3304597 -0.03161967
vt 0.27832 -0.03161275
vt 0.330465 -0.02816355
vt 0.3304698 0.2481866
vt 0.2782807 0.2481921
vt 0.2782717 0.2516518
vt 0.3304778 0.251644
vt 0.2782594 0.2551165
vt 0.3304913 0.2551011
vt 0.2782516 0.2585766
vt 0.3304999 0.2585654
vt 0.2782227 0.4640706
vt 0.3305165 0.4640941
vt 0.2782146 0.4675326
vt 0.3305205 0.4675624
vt 0.2782027 0.4709987
vt 0.3305297 0.4710298
vt 0.2781969 0.4744703
vt 0.3305318 0.4744937
vt 0.3305153 0.7518101
vt 0.2781727 0.7518072
vt 0.2781822 0.7552791
vt 0.330514 0.755276
vt 0.2782037 0.7587437
vt 0.3305195 0.7587457
vt 0.2782139 0.7622103
vt 0.3305159 0.7622089
vt 0.2782267 0.9677676
vt 0.3305042 0.967773
vt 0.278226 0.9712266
vt 0.3305041 0.9712396
vt 0.2782249 0.9746913
vt 0.3304943 0.9747008
vt 0.7675052 0.7659035
vt 0.7674328 0.2619741
vt 0.7613558 0.261922
vt 0.772952 0.2536568
vt 0.7614273 0.7659591
vt 0.7730753 0.7742013
vt 0.7631376 0.7717125
vt 0.764504 0.7846256
vt 0.7630441 0.2561636
vt 0.7552382 0.2618737
vt 0.7576427 0.2499827
vt 0.7643464 0.2432716
vt 0.755325 0.2565803
vt 0.7496487 0.2489866
vt 0.7498268 0.2425098
vt 0.7493847 0.2554177
vt 0.3732403 0.249031
vt 0.3730658 0.2425555
vt 0.3585368 0.2433151
vt 0.3734984 0.2554596
vt 0.365238 0.2500298
vt 0.3598335 0.2562119
vt 0.3499176 0.2537042
vt 0.3675558 0.2566276
vt 0.3615199 0.2619689
vt 0.3554402 0.2620227
vt 0.3676388 0.2619171
vt 0.3737666 0.261855
vt 0.361491 0.7659872
vt 0.3554106 0.7659335
vt 0.3498985 0.7742552
vt 0.3676122 0.766039
vt 0.3598113 0.7717478
vt 0.365205 0.7779314
vt 0.3584985 0.7846464
vt 0.3675295 0.7713318
vt 0.3732157 0.7789302
vt 0.3730397 0.785408
vt 0.3737433 0.7661006
vt 0.3734752 0.7724987
vt 0.7497166 0.7789062
vt 0.7498939 0.7853842
vt 0.7491824 0.7660764
vt 0.7494546 0.7724749
vt 0.7577475 0.7779062
vt 0.7554059 0.7713045
vt 0.7553096 0.7660127
vt 0.7491117 0.2618137
vt 0.8122872 0.3026395
vt 0.3106983 0.3013001
vt 0.3107306 0.3075929
vt 0.3012625 0.3033578
vt 0.8122252 0.3089283
vt 0.8213082 0.3046781
vt 0.8179904 0.3101467
vt 0.8287111 0.3116217
vt 0.3048252 0.308817
vt 0.3107703 0.3138435
vt 0.2996078 0.3139947
vt 0.2941963 0.3103761
vt 0.3056523 0.3148753
vt 0.2983273 0.3198922
vt 0.2920214 0.3198029
vt 0.3045758 0.3199916
vt 0.2972361 0.6922783
vt 0.2909303 0.6923296
vt 0.2930262 0.7017618
vt 0.3034866 0.6922176
vt 0.2984754 0.6981851
vt 0.3036578 0.7033973
vt 0.3000377 0.7088377
vt 0.3045304 0.6973422
vt 0.3095663 0.704662
vt 0.3094959 0.7109576
vt 0.3096439 0.6984081
vt 0.3097069 0.6921755
vt 0.8112909 0.7060262
vt 0.8113252 0.7123231
vt 0.8207575 0.7102535
vt 0.8112493 0.6997703
vt 0.817198 0.7047922
vt 0.8224133 0.6996154
vt 0.8278251 0.7032335
vt 0.8163705 0.6987334
vt 0.8236985 0.6937051
vt 0.8300069 0.6937911
vt 0.8112222 0.6935356
vt 0.8174458 0.69361
vt 0.8246036 0.3212832
vt 0.8309259 0.3212247
vt 0.8121096 0.3214045
vt 0.8183403 0.3213534
vt 0.823283 0.3153201
vt 0.8172408 0.3162193
vt 0.8121597 0.315177
vt 0.3107954 0.3200725
vn 0.9998715 -0.003034267 0.01574207
vn 0.870455 -0.4921013 -0.01201873
vn 0.870455 -0.4921013 0.01201874
vn 0.9998715 -0.003034265 -0.01574207
vn 0.9998715 0.003034188 -0.01574207
vn 0.9998715 0.003034188 0.01574206
vn 0.8704547 0.4921019 0.01201863
vn 0.8704547 0.4921019 -0.01201858
vn 0.5075046 0.8615637 0.01213103
vn 0.5075046 0.8615636 -0.01213098
vn 0.004315101 0.9998618 0.01605312
vn 0.004315101 0.9998618 -0.01605311
vn -0.0043151 0.9998618 0.01605312
vn -0.004315101 0.9998618 -0.01605312
vn -0.5075047 0.8615636 0.01213091
vn -0.5075045 0.8615637 -0.01213103
vn -0.8704543 0.4921025 0.01201846
vn -0.8704542 0.4921027 -0.01201862
vn -0.9998715 0.003034267 0.01574206
vn -0.9998715 0.003034265 -0.01574207
vn -0.9998715 -0.003034187 -0.01574207
vn -0.9998715 -0.003034184 0.01574207
vn -0.8704543 -0.4921026 0.01201871
vn -0.8704543 -0.4921026 -0.01201867
vn -0.5075006 -0.861566 0.01213105
vn -0.5075007 -0.861566 -0.01213096
vn -0.004315016 -0.9998618 0.01605288
vn -0.004315016 -0.9998618 -0.01605288
vn 0.004315016 -0.9998618 0.01605288
vn 0.004315016 -0.9998618 -0.01605288
vn 0.5075006 -0.861566 0.01213101
vn 0.5075006 -0.861566 -0.012131
vn 0.870455 -0.4921013 0.01201874
vn 0.870455 -0.4921013 -0.01201873
vn -0.9998715 -0.003034184 0.01574207
vn -0.9998715 0.003034267 0.01574206
vn -0.8704461 0.00232533 0.4922581
vn -0.8704543 0.4921025 0.01201846
vn -0.8704461 -0.002325199 0.4922581
vn -0.8704543 -0.4921026 0.01201871
vn -0.8147922 -0.409947 0.4099478
vn -0.5075006 -0.861566 0.01213105
vn -0.8147922 0.4099468 0.4099479
vn -0.5077091 0.002346966 0.8615254
vn -0.4228285 0.8062065 0.4138202
vn -0.5075047 0.8615636 0.01213091
vn -0.4228285 0.4138194 0.8062068
vn -0.003287396 0.8660439 0.4999572
vn -0.0043151 0.9998618 0.01605312
vn -0.003287393 0.4999525 0.8660466
vn 0.003287394 0.8660439 0.4999572
vn 0.004315101 0.9998618 0.01605312
vn 0.5075046 0.8615637 0.01213103
vn 0.003287387 0.4999525 0.8660466
vn 0.4228284 0.806206 0.413821
vn 0.8147919 0.409948 0.4099472
vn 0.8704547 0.4921019 0.01201863
vn 0.4228279 0.4138201 0.8062068
vn 0.8704468 0.002325302 0.4922571
vn 0.9998715 0.003034188 0.01574206
vn 0.5077091 0.002346966 0.8615254
vn 0.004368728 0.003132385 0.9999856
vn 0.8704468 -0.002325287 0.492257
vn 0.9998715 -0.003034267 0.01574207
vn 0.870455 -0.4921013 0.01201874
vn 0.5077091 -0.002346866 0.8615254
vn 0.8147914 -0.409948 0.4099482
vn 0.4228276 -0.8062076 0.4138189
vn 0.5075006 -0.861566 0.01213101
vn 0.4228274 -0.4138195 0.8062074
vn 0.003287394 -0.8660466 0.4999524
vn 0.004315016 -0.9998618 0.01605288
vn 0.004368727 -0.003132275 0.9999856
vn 0.003287401 -0.499952 0.8660469
vn -0.003287398 -0.8660466 0.4999525
vn -0.004315016 -0.9998618 0.01605288
vn -0.004368728 -0.003132275 0.9999856
vn -0.003287402 -0.499952 0.8660469
vn -0.4228284 -0.806207 0.4138192
vn -0.4228275 -0.4138189 0.8062077
vn -0.5077091 -0.002346836 0.8615254
vn -0.004368728 0.003132385 0.9999856
vn -0.9998715 0.003034265 -0.01574207
vn -0.9998715 -0.003034187 -0.01574207
vn -0.8704461 -0.002325288 -0.4922582
vn -0.8704543 -0.4921026 -0.01201867
vn -0.8704461 0.002325261 -0.4922581
vn -0.8704542 0.4921027 -0.01201862
vn -0.8147919 0.4099499 -0.4099454
vn -0.5075045 0.8615637 -0.01213103
vn -0.8147914 -0.4099464 -0.4099497
vn -0.5077091 -0.002346975 -0.8615254
vn -0.4228276 -0.8062074 -0.4138193
vn -0.5075007 -0.861566 -0.01213096
vn -0.4228278 -0.4138188 -0.8062076
vn -0.0032874 -0.8660464 -0.499953
vn -0.004315016 -0.9998618 -0.01605288
vn -0.003287403 -0.499952 -0.8660469
vn 0.003287398 -0.8660464 -0.499953
vn 0.004315016 -0.9998618 -0.01605288
vn 0.5075006 -0.861566 -0.012131
vn 0.003287405 -0.499952 -0.8660469
vn 0.4228274 -0.8062078 -0.4138189
vn 0.8147916 -0.4099475 -0.4099486
vn 0.870455 -0.4921013 -0.01201873
vn 0.4228274 -0.4138199 -0.8062072
vn 0.8704468 -0.002325325 -0.4922571
vn 0.9998715 -0.003034265 -0.01574207
vn 0.507709 -0.002346996 -0.8615254
vn 0.004368739 -0.003132432 -0.9999856
vn 0.8704468 0.002325241 -0.4922571
vn 0.9998715 0.003034188 -0.01574207
vn 0.8704547 0.4921019 -0.01201858
vn 0.5077091 0.002346833 -0.8615254
vn 0.8147926 0.4099476 -0.4099465
vn 0.4228288 0.8062063 -0.4138203
vn 0.5075046 0.8615636 -0.01213098
vn 0.4228282 0.4138198 -0.8062069
vn 0.0032874 0.8660442 -0.4999567
vn 0.004315101 0.9998618 -0.01605311
vn 0.00436874 0.003132268 -0.9999856
vn 0.003287392 0.499953 -0.8660464
vn -0.003287394 0.8660442 -0.4999567
vn -0.004315101 0.9998618 -0.01605312
vn -0.00436874 0.003132267 -0.9999856
vn -0.003287384 0.499953 -0.8660464
vn -0.422829 0.8062065 -0.4138197
vn -0.422828 0.4138206 -0.8062065
vn -0.507709 0.002346847 -0.8615254
vn -0.00436874 -0.003132433 -0.9999856
g ENV_DOD_DoorBlockMedium2_0
f 3/3/3 2/2/2 1/1/1
f 2/2/2 4/4/4 1/1/1
f 4/4/4 5/5/5 1/1/1
f 5/5/5 6/6/6 1/1/1
f 6/6/6 5/5/5 7/7/7
f 5/5/5 8/8/8 7/7/7
f 7/7/7 8/8/8 9/9/9
f 8/8/8 10/10/10 9/9/9
f 9/9/9 10/10/10 11/11/11
f 10/10/10 12/12/12 11/11/11
f 11/11/11 12/12/12 13/13/13
f 12/12/12 14/14/14 13/13/13
f 13/13/13 14/14/14 15/15/15
f 14/14/14 16/16/16 15/15/15
f 15/15/15 16/16/16 17/17/17
f 16/16/16 18/18/18 17/17/17
f 17/17/17 18/18/18 19/19/19
f 18/18/18 20/20/20 19/19/19
f 19/19/19 20/20/20 21/21/21
f 22/22/22 19/19/19 21/21/21
f 22/22/22 21/21/21 23/23/23
f 21/21/21 24/24/24 23/23/23
f 23/23/23 24/24/24 25/25/25
f 24/24/24 26/26/26 25/25/25
f 25/25/25 26/26/26 27/27/27
f 26/26/26 28/28/28 27/27/27
f 29/29/29 27/27/27 28/28/28
f 30/30/30 29/29/29 28/28/28
f 29/29/29 30/30/30 31/31/31
f 30/30/30 32/32/32 31/31/31
f 31/31/31 32/32/32 33/33/33
f 32/32/32 34/34/34 33/33/33
g ENV_DOD_DoorBlockMedium2_1
f 37/37/37 36/36/36 35/35/35
f 36/36/36 37/37/37 38/38/38
f 39/39/39 37/37/37 35/35/35
f 35/35/35 40/40/40 39/39/39
f 40/40/40 41/41/41 39/39/39
f 40/40/40 42/42/42 41/41/41
f 37/37/37 43/43/43 38/38/38
f 44/44/44 37/37/37 39/39/39
f 37/37/37 44/44/44 43/43/43
f 38/38/38 43/43/43 45/45/45
f 46/46/46 38/38/38 45/45/45
f 43/43/43 47/47/47 45/45/45
f 44/44/44 47/47/47 43/43/43
f 46/46/46 45/45/45 48/48/48
f 48/48/48 45/45/45 47/47/47
f 49/49/49 46/46/46 48/48/48
f 50/50/50 47/47/47 44/44/44
f 50/50/50 48/48/48 47/47/47
f 48/48/48 51/51/51 49/49/49
f 51/51/51 52/52/52 49/49/49
f 52/52/52 51/51/51 53/53/53
f 54/54/54 51/51/51 48/48/48
f 50/50/50 54/54/54 48/48/48
f 51/51/51 55/55/55 53/53/53
f 51/51/51 54/54/54 55/55/55
f 53/53/53 55/55/55 56/56/56
f 57/57/57 53/53/53 56/56/56
f 55/55/55 58/58/58 56/56/56
f 54/54/54 58/58/58 55/55/55
f 57/57/57 56/56/56 59/59/59
f 59/59/59 56/56/56 58/58/58
f 60/60/60 57/57/57 59/59/59
f 61/61/61 58/58/58 54/54/54
f 61/61/61 59/59/59 58/58/58
f 62/62/62 54/54/54 50/50/50
f 62/62/62 61/61/61 54/54/54
f 60/60/60 59/59/59 63/63/63
f 64/64/64 60/60/60 63/63/63
f 64/64/64 63/63/63 65/65/65
f 59/59/59 61/61/61 66/66/66
f 63/63/63 59/59/59 66/66/66
f 63/63/63 67/67/67 65/65/65
f 63/63/63 66/66/66 67/67/67
f 65/65/65 67/67/67 68/68/68
f 69/69/69 65/65/65 68/68/68
f 67/67/67 70/70/70 68/68/68
f 66/66/66 70/70/70 67/67/67
f 69/69/69 68/68/68 71/71/71
f 71/71/71 68/68/68 70/70/70
f 72/72/72 69/69/69 71/71/71
f 66/66/66 61/61/61 73/73/73
f 61/61/61 62/62/62 73/73/73
f 74/74/74 70/70/70 66/66/66
f 73/73/73 74/74/74 66/66/66
f 74/74/74 71/71/71 70/70/70
f 72/72/72 71/71/71 75/75/75
f 76/76/76 72/72/72 75/75/75
f 76/76/76 75/75/75 42/42/42
f 73/73/73 62/62/62 77/77/77
f 74/74/74 73/73/73 77/77/77
f 71/71/71 74/74/74 78/78/78
f 75/75/75 71/71/71 78/78/78
f 78/78/78 74/74/74 77/77/77
f 75/75/75 79/79/79 42/42/42
f 75/75/75 78/78/78 79/79/79
f 42/42/42 79/79/79 41/41/41
f 79/79/79 80/80/80 41/41/41
f 78/78/78 80/80/80 79/79/79
f 39/39/39 41/41/41 80/80/80
f 81/81/81 80/80/80 78/78/78
f 81/81/81 39/39/39 80/80/80
f 77/77/77 81/81/81 78/78/78
f 81/81/81 44/44/44 39/39/39
f 62/62/62 82/82/82 77/77/77
f 77/77/77 82/82/82 81/81/81
f 82/82/82 44/44/44 81/81/81
f 82/82/82 62/62/62 50/50/50
f 82/82/82 50/50/50 44/44/44
f 85/85/85 84/84/84 83/83/83
f 84/84/84 85/85/85 86/86/86
f 87/87/87 85/85/85 83/83/83
f 83/83/83 88/88/88 87/87/87
f 88/88/88 89/89/89 87/87/87
f 88/88/88 90/90/90 89/89/89
f 85/85/85 91/91/91 86/86/86
f 92/92/92 85/85/85 87/87/87
f 85/85/85 92/92/92 91/91/91
f 86/86/86 91/91/91 93/93/93
f 94/94/94 86/86/86 93/93/93
f 91/91/91 95/95/95 93/93/93
f 92/92/92 95/95/95 91/91/91
f 94/94/94 93/93/93 96/96/96
f 96/96/96 93/93/93 95/95/95
f 97/97/97 94/94/94 96/96/96
f 98/98/98 95/95/95 92/92/92
f 98/98/98 96/96/96 95/95/95
f 96/96/96 99/99/99 97/97/97
f 99/99/99 100/100/100 97/97/97
f 100/100/100 99/99/99 101/101/101
f 102/102/102 99/99/99 96/96/96
f 98/98/98 102/102/102 96/96/96
f 99/99/99 103/103/103 101/101/101
f 99/99/99 102/102/102 103/103/103
f 101/101/101 103/103/103 104/104/104
f 105/105/105 101/101/101 104/104/104
f 103/103/103 106/106/106 104/104/104
f 102/102/102 106/106/106 103/103/103
f 105/105/105 104/104/104 107/107/107
f 107/107/107 104/104/104 106/106/106
f 108/108/108 105/105/105 107/107/107
f 109/109/109 106/106/106 102/102/102
f 109/109/109 107/107/107 106/106/106
f 110/110/110 102/102/102 98/98/98
f 110/110/110 109/109/109 102/102/102
f 108/108/108 107/107/107 111/111/111
f 112/112/112 108/108/108 111/111/111
f 112/112/112 111/111/111 113/113/113
f 107/107/107 109/109/109 114/114/114
f 111/111/111 107/107/107 114/114/114
f 111/111/111 115/115/115 113/113/113
f 111/111/111 114/114/114 115/115/115
f 113/113/113 115/115/115 116/116/116
f 117/117/117 113/113/113 116/116/116
f 118/118/118 116/116/116 115/115/115
f 114/114/114 118/118/118 115/115/115
f 117/117/117 116/116/116 119/119/119
f 119/119/119 116/116/116 118/118/118
f 120/120/120 117/117/117 119/119/119
f 114/114/114 109/109/109 121/121/121
f 109/109/109 110/110/110 121/121/121
f 122/122/122 118/118/118 114/114/114
f 121/121/121 122/122/122 114/114/114
f 122/122/122 119/119/119 118/118/118
f 120/120/120 119/119/119 123/123/123
f 124/124/124 120/120/120 123/123/123
f 124/124/124 123/123/123 90/90/90
f 121/121/121 110/110/110 125/125/125
f 122/122/122 121/121/121 125/125/125
f 119/119/119 122/122/122 126/126/126
f 123/123/123 119/119/119 126/126/126
f 126/126/126 122/122/122 125/125/125
f 123/123/123 127/127/127 90/90/90
f 123/123/123 126/126/126 127/127/127
f 90/90/90 127/127/127 89/89/89
f 89/89/89 127/127/127 128/128/128
f 126/126/126 128/128/128 127/127/127
f 87/87/87 89/89/89 128/128/128
f 129/129/129 128/128/128 126/126/126
f 129/129/129 87/87/87 128/128/128
f 125/125/125 129/129/129 126/126/126
f 129/129/129 92/92/92 87/87/87
f 110/110/110 130/130/130 125/125/125
f 125/125/125 130/130/130 129/129/129
f 130/130/130 92/92/92 129/129/129
f 130/130/130 110/110/110 98/98/98
f 130/130/130 98/98/98 92/92/92
