g ENV_Ramp_Short08_MO
v -2.5 0 1.5
v -2.5 4 1.5
v 2.5 0 1.5
v -2.5 4 -1.5
v -2.5 0 -1.5
v 2.5 0 -1.5
v -2.5 4 -1.5
v 2.5 0 -1.5
v 2.5 0 1.5
v -2.5 4 1.5
v -2.5 0 -1.5
v -2.5 0 1.5
v 2.5 0 1.5
v 2.5 0 -1.5
v -2.5 0 -1.5
v -2.5 4 -1.5
v -2.5 4 1.5
v -2.5 0 1.5
vt -1.984185E-08 -2.028942E-08
vt -1.126218E-07 4
vt 5 2.05384E-08
vt 9.999991 3
vt 9.999997 -1
vt 4.999998 -1
vt 4.999999 5.379361
vt 4.999999 -1.000002
vt 2 -0.9999998
vt 1.999999 5.379361
vt 2.339996E-08 -4
vt 2.641294E-08 -1
vt 5 -1
vt 5 -4
vt -3.999999 2.2512E-07
vt -3.999999 4
vt -0.9999999 4
vt -0.9999999 9.044208E-10
vn 0 0 1
vn 0 0 1
vn 0 0 1
vn 0 0 -1
vn 0 0 -1
vn 0 0 -1
vn 0.6246951 0.7808689 0
vn 0.6246951 0.7808689 0
vn 0.6246951 0.7808689 0
vn 0.6246951 0.7808689 0
vn 0 -1 0
vn 0 -1 0
vn 0 -1 0
vn 0 -1 0
vn -1 0 0
vn -1 0 0
vn -1 0 0
vn -1 0 0
g ENV_Ramp_Short08_MO_0
f 3/3/3 2/2/2 1/1/1
f 6/6/6 5/5/5 4/4/4
f 9/9/9 8/8/8 7/7/7
f 10/10/10 9/9/9 7/7/7
f 13/13/13 12/12/12 11/11/11
f 14/14/14 13/13/13 11/11/11
f 17/17/17 16/16/16 15/15/15
f 18/18/18 17/17/17 15/15/15
