g ENV_solidBlock01_MO
v 0.0009022705 -1.124967 3.051001
v -4.377583 -1.124967 -3.035474
v -4.44924 -1.06995 -3.028466
v -0.03832789 -1.069479 3.097795
v -0.0388674 1.068784 3.097051
v -4.451046 1.072009 -3.030972
v -4.377583 1.125041 -3.035474
v 0.0009022705 1.125041 3.051001
v 4.379388 1.125041 -3.035474
v -4.413769 1.070025 -3.097721
v -4.451046 1.072009 -3.030972
v 4.418667 1.072009 -3.097721
v 4.415576 -1.06995 -3.097721
v -4.413769 -1.06995 -3.097721
v -4.44924 -1.06995 -3.028466
v -4.377583 -1.124967 -3.035474
v 4.379388 -1.124967 -3.035474
v 4.451046 1.070025 -3.028466
v 4.418667 1.072009 -3.097721
v 0.04067349 1.068784 3.097051
v -0.0388674 1.068784 3.097051
v -0.03832789 -1.069479 3.097795
v 0.04067349 -1.06871 3.097051
v 0.0009022705 -1.124967 3.051001
v 4.379388 -1.124967 -3.035474
v 4.451046 -1.06995 -3.028466
v 4.415576 -1.06995 -3.097721
vt 0.5753354 0.4305139
vt 0.3491545 0.2676247
vt 0.3462586 0.2693458
vt 0.5740278 0.4332886
vt 0.5275649 0.4977911
vt 0.2996566 0.3339159
vt 0.2990671 0.3372365
vt 0.5253656 0.4999481
vt 0.2991167 0.6628074
vt 0.2959809 0.3359165
vt 0.2961471 0.3331092
vt 0.2960766 0.6642678
vt 0.2164367 0.6641326
vt 0.2164339 0.3359103
vt 0.2163374 0.3330509
vt 0.213348 0.3372279
vt 0.213348 0.6627862
vt 0.2998532 0.6660805
vt 0.29748 0.6675895
vt 0.5275419 0.5021143
vt 0.5298724 0.5003335
vt 0.5764227 0.5649644
vt 0.5740001 0.5665786
vt 0.575366 0.569329
vt 0.3492405 0.7323579
vt 0.3463701 0.730623
vt 0.3441083 0.7323753
vn 0 -0.8944272 0.4472136
vn -0.2961744 -0.9477582 -0.1184698
vn -0.7981892 0 0.6024069
vn -0.8516583 0 0.5240974
vn -0.7926239 0 0.6097108
vn -0.8516583 0 0.5240974
vn -0.01562309 0.9998779 0
vn 0 1 0
vn 0.03123475 0.9995121 0
vn -0.0178543 0 -0.9998406
vn -0.8516583 0 0.5240974
vn 0 0 -1
vn 0 0 -1
vn -0.0178543 0 -0.9998406
vn -0.7981892 0 0.6024069
vn -0.2961744 -0.9477582 -0.1184698
vn 0.3095945 -0.943526 -0.1179407
vn 0.7926239 0 0.6097108
vn 0 0 -1
vn 0.7926239 0 0.6097108
vn -0.7926239 0 0.6097108
vn -0.8516583 0 0.5240974
vn 0.7926239 0 0.6097108
vn 0 -0.8944272 0.4472136
vn 0.3095945 -0.943526 -0.1179407
vn 0.7926239 0 0.6097108
vn 0 0 -1
g ENV_solidBlock01_MO_0
f 3/3/3 2/2/2 1/1/1
f 4/4/4 3/3/3 1/1/1
f 4/4/4 5/5/5 3/3/3
f 5/5/5 6/6/6 3/3/3
f 7/7/7 6/6/6 5/5/5
f 8/8/8 7/7/7 5/5/5
f 9/9/9 7/7/7 8/8/8
f 7/7/7 9/9/9 10/10/10
f 11/11/11 7/7/7 10/10/10
f 9/9/9 12/12/12 10/10/10
f 10/10/10 12/12/12 13/13/13
f 11/11/11 10/10/10 14/14/14
f 14/14/14 10/10/10 13/13/13
f 15/15/15 11/11/11 14/14/14
f 15/15/15 14/14/14 16/16/16
f 14/14/14 13/13/13 16/16/16
f 13/13/13 17/17/17 16/16/16
f 18/18/18 9/9/9 8/8/8
f 19/19/19 9/9/9 18/18/18
f 20/20/20 18/18/18 8/8/8
f 21/21/21 20/20/20 8/8/8
f 20/20/20 21/21/21 22/22/22
f 23/23/23 20/20/20 22/22/22
f 18/18/18 20/20/20 23/23/23
f 22/22/22 24/24/24 23/23/23
f 24/24/24 25/25/25 23/23/23
f 19/19/19 18/18/18 26/26/26
f 26/26/26 18/18/18 23/23/23
f 25/25/25 26/26/26 23/23/23
f 27/27/27 19/19/19 26/26/26
f 27/27/27 26/26/26 25/25/25
