g ENV_crashPadSide_Col_MO
v 21.91553 4.286575 -53.39595
v 19.3696 4.516961 -50.916
v 19.25196 2.429272 -50.81226
v 19.27199 -2.949504 -50.82103
v 18.84217 0.9752201 -50.41062
v 17.84245 -0.01732793 -49.42848
v 36.77227 4.286576 -0.06012524
v 33.06157 2.429285 -0.05318375
v 33.20643 4.509311 -0.06778836
v 33.09955 -2.950603 -0.06771367
v 31.08624 -0.01733016 -0.06015789
v 32.48782 0.9752735 -0.05486817
v 31.08624 -0.01733016 -0.06015789
v 32.45381 1.010582 -32.535
v 32.48782 0.9752735 -0.05486817
v 31.07651 -0.01786869 -32.53453
v 32.08309 1.010582 -35.97227
v 30.82421 -0.01908573 -35.48495
v 30.29018 1.010582 -38.69411
v 29.26713 -0.01818748 -37.77187
v 33.01113 2.435443 -32.535
v 33.21379 4.531898 -32.53548
v 33.20643 4.509311 -0.06778836
v 33.06157 2.429285 -0.05318375
v 33.06157 2.429285 -0.05318375
v 32.48782 0.9752735 -0.05486817
v 32.45381 1.010582 -32.535
v 33.01113 2.435443 -32.535
v 32.59318 2.435443 -36.16888
v 33.21379 4.531898 -32.53548
v 32.08309 1.010582 -35.97227
v 32.77758 4.52984 -36.23897
v 30.70407 2.435442 -39.06733
v 30.8543 4.531202 -39.20217
v 19.3696 4.516961 -50.916
v 30.29018 1.010582 -38.69411
v 19.25196 2.429272 -50.81226
v 18.84217 0.9752201 -50.41062
v 36.77227 4.286576 -0.06012524
v 33.05845 -2.972458 -32.53509
v 33.09955 -2.950603 -0.06771367
v 36.77843 4.311319 -32.53351
v 32.63295 -2.971859 -36.1841
v 36.03889 4.312596 -37.49784
v 30.73824 -2.972229 -39.09805
v 33.50064 4.311911 -41.5908
v 19.27199 -2.949504 -50.82103
v 21.91553 4.286575 -53.39595
v 30.29018 1.010582 -38.69411
v 29.26713 -0.01818748 -37.77187
v 17.84245 -0.01732793 -49.42848
v 18.84217 0.9752201 -50.41062
v 33.09955 -2.950603 -0.06771367
v 33.05845 -2.972458 -32.53509
v 31.07651 -0.01786869 -32.53453
v 31.08624 -0.01733016 -0.06015789
v 33.21379 4.531898 -32.53548
v 36.77227 4.286576 -0.06012524
v 33.20643 4.509311 -0.06778836
v 36.77843 4.311319 -32.53351
v 36.03889 4.312596 -37.49784
v 32.77758 4.52984 -36.23897
v 21.91553 4.286575 -53.39595
v 33.50064 4.311911 -41.5908
v 30.8543 4.531202 -39.20217
v 19.3696 4.516961 -50.916
v 30.73824 -2.972229 -39.09805
v 19.27199 -2.949504 -50.82103
v 17.84245 -0.01732793 -49.42848
v 29.26713 -0.01818748 -37.77187
v 31.07651 -0.01786869 -32.53453
v 33.05845 -2.972458 -32.53509
v 32.63295 -2.971859 -36.1841
v 30.82421 -0.01908573 -35.48495
v 30.73824 -2.972229 -39.09805
v 29.26713 -0.01818748 -37.77187
v 19.25196 2.429272 -50.81226
v 18.84217 0.9752201 -50.41062
v 19.27199 -2.949504 -50.82103
v 21.91553 4.286575 -53.39595
v 33.50064 4.311911 -41.5908
v 36.03889 4.312596 -37.49784
v 32.77758 4.52984 -36.23897
v 30.8543 4.531202 -39.20217
v 33.06157 2.429285 -0.05318375
v 36.77227 4.286576 -0.06012524
v 33.09955 -2.950603 -0.06771367
v 32.48782 0.9752735 -0.05486817
vt 0.2892445 3.048004
vt 0.2904073 3.573211
vt 0.2837874 3.73421
vt 0.2906014 3.50407
vt 0.283789 3.516031
vt 0.2893354 3.322718
vt 0.2895914 3.555594
vt 0.283789 3.549733
vt 0.2889093 3.319682
vt 0.2889467 3.043869
vt 0.2903925 3.574872
vt 0.283789 3.763577
vt 0.2890872 3.375938
vt 0.5231667 0.4841015
vt 0.2837884 3.565652
vt 0.2837876 0.4270703
vt 0.5237174 0.4752731
vt 0.2837876 0.08118206
vt 0.5226851 0.4670166
vt 0.2837876 -0.2437472
vt 0.5271449 0.4845052
vt 0.283787 1.328723
vt 0.2953694 -2.203984
vt 0.2837884 3.735234
vt 0.2837884 3.735234
vt 0.2837884 3.565652
vt 0.5231667 0.4841015
vt 0.5271449 0.4845052
vt 0.527678 0.4751174
vt 0.283787 1.328723
vt 0.5237174 0.4752731
vt 0.2837861 1.775733
vt 0.526617 0.4663
vt 0.2837876 2.171196
vt 0.2891851 3.376453
vt 0.5226851 0.4670166
vt 0.2837861 3.606208
vt 0.2837861 3.775939
vt 0.2603273 2.755834
vt 0.3276607 0.3667914
vt 0.2768645 -1.471941
vt 0.3106806 0.6497284
vt 0.3134701 1.605226
vt 0.3245694 -0.1055646
vt 0.3093538 2.118642
vt 0.3175231 -0.6698349
vt 0.2534734 3.399493
vt 0.2592213 -1.278129
vt 0.5226851 0.4670166
vt 0.2837876 -0.2437472
vt 0.2887514 -2.023797
vt 0.2837861 3.775939
vt 0.2891012 3.574477
vt 0.2838256 1.419309
vt 0.2837876 1.528046
vt 0.288856 -2.008518
vt 0.2837868 0.4399992
vt 0.2886792 -2.391082
vt 0.2890977 3.573723
vt 0.2837195 0.3057038
vt 0.2837757 1.606404
vt 0.2837868 0.01331183
vt 0.2891987 3.572968
vt 0.2837324 2.442884
vt 0.2837868 -0.3872419
vt 0.2893112 -2.159918
vt 0.2837197 -0.7731652
vt 0.2887274 -2.165212
vt 0.2891603 3.574908
vt 0.2837876 2.182611
vt 0.2837876 1.528046
vt 0.2838256 1.419309
vt 0.2837795 -0.03237603
vt 0.2837895 1.873475
vt 0.2837197 -0.7731652
vt 0.2837876 2.182611
vt 0.2837874 3.73421
vt 0.283789 3.516031
vt 0.2906014 3.50407
vt 0.2892445 3.048004
vt 0.2837324 2.442884
vt 0.2837757 1.606404
vt 0.2837868 0.01331183
vt 0.2837868 -0.3872419
vt 0.283789 3.549733
vt 0.2895914 3.555594
vt 0.2889467 3.043869
vt 0.283789 3.763577
vn -0.6963134 -0.0003353019 -0.7177377
vn -0.6975859 0.003710071 -0.7164915
vn -0.6961667 -0.0007991752 -0.7178798
vn -0.6965842 -0.001505516 -0.7174734
vn -0.6963559 -0.001474415 -0.7176951
vn -0.6998197 -0.001947342 -0.7143168
vn 0.00224718 -0.0006172046 0.9999973
vn 0.002688969 -0.001484761 0.9999954
vn -0.001703007 0.007139755 0.9999731
vn 0.002564585 -0.002804359 0.9999928
vn -0.001312075 -0.003476436 0.9999931
vn 0.002832265 -0.00275795 0.9999923
vn -0.5881816 0.8087285 0.0008289706
vn -0.589895 0.8074597 0.005723353
vn -0.5881816 0.8087285 0.0008289707
vn -0.5900555 0.8073391 0.006184134
vn -0.5639573 0.801517 0.1988033
vn -0.5652861 0.8014899 0.195104
vn -0.4338955 0.8069567 0.4006938
vn -0.4350733 0.8067955 0.3997402
vn -0.9787326 0.2047847 0.01206018
vn -0.9963865 0.08402996 0.01236258
vn -0.9965557 0.08292406 0.0006977534
vn -0.9786817 0.2053805 0.001025689
vn -0.9786817 0.2053805 0.001025689
vn -0.9307408 0.3656768 0.001443385
vn -0.9310132 0.3648002 0.01162301
vn -0.9787326 0.2047847 0.01206018
vn -0.923095 0.2036435 0.326228
vn -0.9963865 0.08402996 0.01236258
vn -0.8787826 0.3641683 0.3084198
vn -0.9384129 0.09574796 0.3319845
vn -0.7227671 0.2049932 0.6599891
vn -0.7358918 0.08695985 0.6714919
vn -0.7124453 0.08534022 0.696519
vn -0.6877607 0.3647408 0.6276537
vn -0.7000189 0.2064083 0.6836439
vn -0.6664082 0.3655651 0.6498171
vn 0.8911577 -0.4536934 -0.0004994685
vn 0.8913957 -0.4529763 -0.01503958
vn 0.8911577 -0.4536934 -0.0004994685
vn 0.8913859 -0.4530265 -0.01408186
vn 0.8393763 -0.4534884 -0.2996593
vn 0.8386703 -0.4534955 -0.301619
vn 0.6630598 -0.4539157 -0.5952414
vn 0.6615557 -0.4539651 -0.596875
vn 0.6363069 -0.4544584 -0.6233628
vn 0.6363069 -0.4544584 -0.6233627
vn -0.4338955 0.8069567 0.4006938
vn -0.4350733 0.8067955 0.3997402
vn -0.4211295 0.808576 0.4109192
vn -0.4211295 0.808576 0.4109192
vn -0.8274802 -0.5614942 0.0008412561
vn -0.8282973 -0.5602267 0.008348079
vn -0.8283504 -0.5601405 0.008851526
vn -0.8274802 -0.5614942 0.0008412563
vn 0.06209876 0.9980699 -0.0004074882
vn 0.06205076 0.9980727 0.0007403189
vn 0.06205076 0.9980727 0.0007403189
vn 0.06209199 0.9980704 -0.000245569
vn 0.05781383 0.9981089 -0.02088694
vn 0.05792822 0.9981086 -0.02058232
vn 0.04420241 0.9980069 -0.04503767
vn 0.04583454 0.9980268 -0.04291309
vn 0.04606469 0.9980291 -0.04261346
vn 0.0442024 0.9980069 -0.04503766
vn -0.6096484 -0.5584733 0.5625268
vn -0.5924546 -0.5596154 0.5795068
vn -0.5924547 -0.5596154 0.5795069
vn -0.6107426 -0.5583886 0.5614229
vn -0.8283504 -0.5601405 0.008851526
vn -0.8282973 -0.5602267 0.008348079
vn -0.7832767 -0.5570845 0.2759245
vn -0.7844365 -0.5570633 0.2726533
vn -0.6096484 -0.5584733 0.5625268
vn -0.6107426 -0.5583886 0.5614229
vn -0.6961667 -0.0007991752 -0.7178798
vn -0.6963559 -0.001474415 -0.7176951
vn -0.6965842 -0.001505516 -0.7174734
vn -0.6963134 -0.0003353019 -0.7177377
vn 0.04583454 0.9980268 -0.04291309
vn 0.05781383 0.9981089 -0.02088694
vn 0.05792822 0.9981086 -0.02058232
vn 0.04606469 0.9980291 -0.04261346
vn 0.002688969 -0.001484761 0.9999954
vn 0.00224718 -0.0006172046 0.9999973
vn 0.002564585 -0.002804359 0.9999928
vn 0.002832265 -0.00275795 0.9999923
g ENV_crashPadSide_Col_MO_0
f 3/3/3 2/2/2 1/1/1
f 6/6/6 5/5/5 4/4/4
f 9/9/9 8/8/8 7/7/7
f 12/12/12 11/11/11 10/10/10
f 15/15/15 14/14/14 13/13/13
f 14/14/14 16/16/16 13/13/13
f 14/14/14 17/17/17 16/16/16
f 17/17/17 18/18/18 16/16/16
f 17/17/17 19/19/19 18/18/18
f 19/19/19 20/20/20 18/18/18
f 23/23/23 22/22/22 21/21/21
f 24/24/24 23/23/23 21/21/21
f 27/27/27 26/26/26 25/25/25
f 28/28/28 27/27/27 25/25/25
f 27/27/27 28/28/28 29/29/29
f 29/29/29 28/28/28 30/30/30
f 31/31/31 27/27/27 29/29/29
f 32/32/32 29/29/29 30/30/30
f 29/29/29 33/33/33 31/31/31
f 33/33/33 29/29/29 32/32/32
f 34/34/34 33/33/33 32/32/32
f 33/33/33 34/34/34 35/35/35
f 33/33/33 36/36/36 31/31/31
f 37/37/37 33/33/33 35/35/35
f 36/36/36 33/33/33 37/37/37
f 38/38/38 36/36/36 37/37/37
f 41/41/41 40/40/40 39/39/39
f 40/40/40 42/42/42 39/39/39
f 42/42/42 40/40/40 43/43/43
f 44/44/44 42/42/42 43/43/43
f 43/43/43 45/45/45 44/44/44
f 45/45/45 46/46/46 44/44/44
f 46/46/46 45/45/45 47/47/47
f 48/48/48 46/46/46 47/47/47
f 51/51/51 50/50/50 49/49/49
f 52/52/52 51/51/51 49/49/49
f 55/55/55 54/54/54 53/53/53
f 56/56/56 55/55/55 53/53/53
f 59/59/59 58/58/58 57/57/57
f 58/58/58 60/60/60 57/57/57
f 57/57/57 60/60/60 61/61/61
f 62/62/62 57/57/57 61/61/61
f 65/65/65 64/64/64 63/63/63
f 66/66/66 65/65/65 63/63/63
f 69/69/69 68/68/68 67/67/67
f 70/70/70 69/69/69 67/67/67
f 73/73/73 72/72/72 71/71/71
f 74/74/74 73/73/73 71/71/71
f 75/75/75 73/73/73 74/74/74
f 76/76/76 75/75/75 74/74/74
f 79/79/79 78/78/78 77/77/77
f 80/80/80 79/79/79 77/77/77
f 83/83/83 82/82/82 81/81/81
f 84/84/84 83/83/83 81/81/81
f 87/87/87 86/86/86 85/85/85
f 88/88/88 87/87/87 85/85/85
