g ENV_scafolding01_Col
v -0.4416431 6.169149 -0.8765039
v -0.8698718 6.169004 -0.4475488
v -0.8714093 -6.168516 -0.4481445
v -0.4425476 -6.168961 -0.8788086
v -0.8698718 6.169004 -0.4475488
v -0.9635541 6.166967 0.1511719
v -0.9654163 -6.168944 0.1516602
v -0.8714093 -6.168516 -0.4481445
v -0.9635541 6.166967 0.1511719
v -0.6916095 6.16915 0.6946191
v -0.6931738 -6.169244 0.6957763
v -0.9654163 -6.168944 0.1516602
v -0.6916095 6.16915 0.6946191
v -0.1501013 6.16779 0.9703613
v -0.1500622 -6.168313 0.9719726
v -0.6931738 -6.169244 0.6957763
v -0.1501013 6.16779 0.9703613
v 0.4494507 6.167017 0.8709766
v 0.4500903 -6.167822 0.8729248
v -0.1500622 -6.168313 0.9719726
v 0.4494507 6.167017 0.8709766
v 0.8781445 6.170729 0.4435791
v 0.8801501 -6.169476 0.4446387
v 0.4500903 -6.167822 0.8729248
v 0.8781445 6.170729 0.4435791
v 0.9676178 6.164677 -0.1537549
v 0.969237 -6.16674 -0.1542187
v 0.8801501 -6.169476 0.4446387
v 0.9676178 6.164677 -0.1537549
v 0.6989551 6.167433 -0.6956152
v 0.7000598 -6.16801 -0.6966308
v 0.969237 -6.16674 -0.1542187
v 0.6989551 6.167433 -0.6956152
v 0.1589813 6.167566 -0.9733203
v 0.1589783 -6.168701 -0.9749365
v 0.7000598 -6.16801 -0.6966308
v 0.1589813 6.167566 -0.9733203
v -0.4416431 6.169149 -0.8765039
v -0.4425476 -6.168961 -0.8788086
v 0.1589783 -6.168701 -0.9749365
v 0.969237 -6.16674 -0.1542187
v 0.003004761 -6.168499 -0.001010742
v 0.8801501 -6.169476 0.4446387
v 0.4500903 -6.167822 0.8729248
v -0.1500622 -6.168313 0.9719726
v -0.6931738 -6.169244 0.6957763
v -0.9654163 -6.168944 0.1516602
v -0.8714093 -6.168516 -0.4481445
v -0.4425476 -6.168961 -0.8788086
v 0.1589783 -6.168701 -0.9749365
v 0.7000598 -6.16801 -0.6966308
v 0.003004761 -6.168499 -0.001010742
v 0.969237 -6.16674 -0.1542187
v 0.1589783 -6.168701 -0.9749365
v 0.1589813 6.167566 -0.9733203
v 0.004266968 6.168498 -0.001503906
v -0.4416431 6.169149 -0.8765039
v 0.6989551 6.167433 -0.6956152
v -0.8698718 6.169004 -0.4475488
v 0.9676178 6.164677 -0.1537549
v -0.9635541 6.166967 0.1511719
v 0.8781445 6.170729 0.4435791
v -0.6916095 6.16915 0.6946191
v 0.4494507 6.167017 0.8709766
v -0.1501013 6.16779 0.9703613
vt 0.9091215 0.0196095
vt 0.967959 0.066408
vt 0.4243765 0.760093
vt 0.4973935 0.760093
vt 0.967959 0.066408
vt 0.9885265 0.138684
vt 0.351374 0.760093
vt 0.4243765 0.760093
vt 0.9885265 0.138684
vt 0.962262 0.209421
vt 0.2779385 0.760093
vt 0.351374 0.760093
vt 0.962262 0.209421
vt 0.899546 0.251121
vt 0.2050095 0.760093
vt 0.2779385 0.760093
vt 0.899546 0.251121
vt 0.824317 0.2475565
vt 0.1317715 0.760093
vt 0.2050095 0.760093
vt 0.824317 0.2475565
vt 0.7659265 0.200587
vt 0.058924 0.760093
vt 0.1317715 0.760093
vt 0.7659265 0.200587
vt 0.745643 0.1285525
vt 0.004883 0.760093
vt 0.058924 0.760093
vt 0.745643 0.1285525
vt 0.771557 0.0582425
vt 0.643649 0.760093
vt 0.716454 0.760093
vt 0.771557 0.0582425
vt 0.8338925 0.0163665
vt 0.570637 0.760093
vt 0.643649 0.760093
vt 0.8338925 0.0163665
vt 0.9091215 0.0196095
vt 0.4973935 0.760093
vt 0.570637 0.760093
vt 0.004883 0.760093
vt 0.2598972 0.7683529
vt 0.058924 0.760093
vt 0.1317715 0.760093
vt 0.2050095 0.760093
vt 0.2779385 0.760093
vt 0.351374 0.760093
vt 0.4243765 0.760093
vt 0.4973935 0.760093
vt 0.570637 0.760093
vt 0.643649 0.760093
vt 0.6435798 0.768353
vt 0.716454 0.760093
vt 0.570637 0.760093
vt 0.8338925 0.0163665
vt 0.8668693 0.1336347
vt 0.9091215 0.0196095
vt 0.771557 0.0582425
vt 0.967959 0.066408
vt 0.745643 0.1285525
vt 0.9885265 0.138684
vt 0.7659265 0.200587
vt 0.962262 0.209421
vt 0.824317 0.2475565
vt 0.899546 0.251121
vn -0.7081443 0.0001530755 -0.7060677
vn -0.7081443 0.0001530755 -0.7060677
vn -0.7081443 0.0001530755 -0.7060677
vn -0.7081443 0.0001530755 -0.7060677
vn -0.9879591 0.0001368207 -0.1547152
vn -0.9879591 0.0001368207 -0.1547152
vn -0.9879591 0.0001368207 -0.1547152
vn -0.9879591 0.0001368207 -0.1547152
vn -0.8942944 0.0001540274 0.447479
vn -0.8942944 0.0001540274 0.447479
vn -0.8942944 0.0001540274 0.4474791
vn -0.8942944 0.0001540274 0.4474791
vn -0.4535356 0.0001280299 0.8912382
vn -0.4535356 0.0001280298 0.891238
vn -0.4535356 0.0001280299 0.8912382
vn -0.4535356 0.0001280299 0.8912382
vn 0.1631839 0.0001468361 0.9865957
vn 0.1631839 0.0001468361 0.9865957
vn 0.1631839 0.000146836 0.9865957
vn 0.1631839 0.0001468361 0.9865957
vn 0.7058389 0.0001620044 0.7083724
vn 0.7058388 0.0001620044 0.7083724
vn 0.7058389 0.0001620044 0.7083724
vn 0.7058388 0.0001620044 0.7083724
vn 0.9890413 0.0001489253 0.1476386
vn 0.9890413 0.0001489253 0.1476387
vn 0.9890413 0.0001489253 0.1476387
vn 0.9890413 0.0001489253 0.1476386
vn 0.8958427 0.000125606 -0.4443711
vn 0.8958427 0.000125606 -0.4443711
vn 0.8958427 0.000125606 -0.4443712
vn 0.8958427 0.000125606 -0.4443712
vn 0.4573781 0.0001152372 -0.8892723
vn 0.4573781 0.0001152372 -0.8892723
vn 0.4573781 0.0001152372 -0.8892723
vn 0.4573781 0.0001152372 -0.8892723
vn -0.158477 0.0001627281 -0.9873627
vn -0.158477 0.0001627282 -0.9873627
vn -0.158477 0.0001627282 -0.9873627
vn -0.158477 0.0001627281 -0.9873627
vn 0.001576391 -0.9999976 -0.001531283
vn 0.0005405358 -0.9999999 -4.978258E-05
vn -0.0004644388 -0.999999 -0.001281234
vn -0.0005802977 -0.9999993 0.001068965
vn 0.001186123 -0.9999993 0.0003782175
vn 0.0009247884 -0.9999996 -0.0001488142
vn 0.0003510159 -0.9999998 -0.0006938904
vn 7.869572E-06 -1 2.519106E-05
vn 7.203813E-05 -0.9999999 0.0004904826
vn 0.0007792962 -0.9999996 0.0003323782
vn 0.001551256 -0.9999985 0.0008530519
vn 0.0005405358 -0.9999999 -4.978258E-05
vn 0.001576391 -0.9999976 -0.001531283
vn 0.0007792962 -0.9999996 0.0003323782
vn 0.001615819 0.9999985 -0.0007016434
vn 0.0006028836 0.9999999 -0.0001342244
vn 0.001411933 0.999999 2.435675E-05
vn 0.002535681 0.9999963 0.001002708
vn -0.0003995833 0.9999981 0.001917368
vn 0.003424595 0.9999883 -0.003427673
vn -0.001564357 0.9999988 0.0001105713
vn -0.001114461 0.9999955 -0.002824644
vn -2.813676E-05 0.9999995 -0.0009653739
vn -0.001570827 0.9999957 0.002498677
vn 0.001715737 0.9999981 0.001000439
g ENV_scafolding01_Col_0
f 3/3/3 2/2/2 1/1/1
f 4/4/4 3/3/3 1/1/1
f 7/7/7 6/6/6 5/5/5
f 8/8/8 7/7/7 5/5/5
f 11/11/11 10/10/10 9/9/9
f 12/12/12 11/11/11 9/9/9
f 15/15/15 14/14/14 13/13/13
f 16/16/16 15/15/15 13/13/13
f 19/19/19 18/18/18 17/17/17
f 20/20/20 19/19/19 17/17/17
f 23/23/23 22/22/22 21/21/21
f 24/24/24 23/23/23 21/21/21
f 27/27/27 26/26/26 25/25/25
f 28/28/28 27/27/27 25/25/25
f 31/31/31 30/30/30 29/29/29
f 32/32/32 31/31/31 29/29/29
f 35/35/35 34/34/34 33/33/33
f 36/36/36 35/35/35 33/33/33
f 39/39/39 38/38/38 37/37/37
f 40/40/40 39/39/39 37/37/37
f 43/43/43 42/42/42 41/41/41
f 44/44/44 42/42/42 43/43/43
f 45/45/45 42/42/42 44/44/44
f 46/46/46 42/42/42 45/45/45
f 47/47/47 42/42/42 46/46/46
f 48/48/48 42/42/42 47/47/47
f 49/49/49 42/42/42 48/48/48
f 50/50/50 42/42/42 49/49/49
f 53/53/53 52/52/52 51/51/51
f 51/51/51 52/52/52 54/54/54
f 57/57/57 56/56/56 55/55/55
f 55/55/55 56/56/56 58/58/58
f 59/59/59 56/56/56 57/57/57
f 58/58/58 56/56/56 60/60/60
f 61/61/61 56/56/56 59/59/59
f 60/60/60 56/56/56 62/62/62
f 63/63/63 56/56/56 61/61/61
f 62/62/62 56/56/56 64/64/64
f 65/65/65 56/56/56 63/63/63
f 64/64/64 56/56/56 65/65/65
