g ENV_FLR_Tier7_Goop_03
v -15.12656 8.106231E-07 2.997788
v -4.754659 -9.059906E-07 3.823154
v -16.24249 -9.632111E-07 3.823154
v -18.01284 -9.441375E-07 3.466228
v -3.481894 8.487701E-07 2.997788
v 6.73321 -8.296967E-07 3.823154
v -16.61315 8.106231E-07 2.698109
v -15.73568 8.487701E-07 0.8993416
v -16.89379 -9.059906E-07 1.15538
v 5.460375 9.059906E-07 2.997788
v 16.24296 -7.534027E-07 3.823154
v -3.218549 8.869171E-07 0.99926
v -14.72628 9.059906E-07 -0.899437
v -15.6065 -8.296967E-07 -1.155495
v -2.915624 9.250641E-07 -0.9992752
v 4.894064 9.250641E-07 -0.9992752
v 5.197021 9.250641E-07 0.99926
v -13.9959 9.441375E-07 -2.698212
v -14.67504 -7.915497E-07 -3.466354
v -13.21525 -7.724762E-07 -3.823151
v -12.77009 9.632111E-07 -2.997818
v -2.696432 9.632111E-07 -2.997822
v -3.7456 -7.724762E-07 -3.823151
v 4.674847 9.632111E-07 -2.997822
v 5.724071 -7.724762E-07 -3.823151
v 12.33846 9.632111E-07 -2.997822
v 13.21562 -7.724762E-07 -3.823154
v 14.67504 -7.724762E-07 -3.466274
v 13.56395 9.632111E-07 -2.69812
v 14.29433 9.632111E-07 -0.8994217
v 15.6065 -7.724762E-07 -1.155464
v 15.30373 9.632111E-07 0.8993187
v 16.89382 -7.724762E-07 1.15535
v 16.1812 9.632111E-07 2.698048
v 18.01284 -7.724762E-07 3.466175
v 14.69496 9.441375E-07 2.997788
vt 0.7850927 0.2340875
vt 0.8635767 0.3861524
vt 0.8635995 0.158367
vt 0.8296667 0.1232605
vt 0.785075 0.411398
vt 0.8635541 0.6139382
vt 0.7565988 0.2046079
vt 0.58555 0.2045915
vt 0.6099226 0.1232395
vt 0.7850573 0.5887088
vt 0.8635313 0.8417239
vt 0.595031 0.4113805
vt 0.4145014 0.2045751
vt 0.3901781 0.1232184
vt 0.4049873 0.4113631
vt 0.40497 0.5886698
vt 0.5950135 0.5886893
vt 0.2434531 0.2045587
vt 0.1704339 0.1231973
vt 0.1365033 0.158307
vt 0.2149608 0.2340411
vt 0.2149434 0.4113455
vt 0.1364812 0.3860852
vt 0.2149262 0.5886503
vt 0.1364591 0.6138638
vt 0.214909 0.765955
vt 0.1364367 0.8416424
vt 0.1703686 0.8767496
vt 0.2434026 0.7954354
vt 0.4144458 0.7954522
vt 0.3901068 0.8767712
vt 0.5854895 0.795469
vt 0.6098451 0.8767929
vt 0.7565333 0.7954859
vt 0.8295835 0.8768145
vt 0.7850396 0.7660195
vn 0 1 0
vn 0 1 0
vn 0 1 0
vn 0 1 0
vn 0 1 0
vn 0 1 0
vn 0 1 0
vn 0 1 0
vn 0 1 0
vn 0 1 0
vn 0 1 0
vn 0 1 0
vn 0 1 0
vn 0 1 0
vn 0 1 0
vn 0 1 0
vn 0 1 0
vn 0 1 0
vn 0 1 0
vn 0 1 0
vn 0 1 0
vn 0 1 0
vn 0 1 0
vn 0 1 0
vn 0 1 0
vn 0 1 0
vn 0 1 0
vn 0 1 0
vn 0 1 0
vn 0 1 0
vn 0 1 0
vn 0 1 0
vn 0 1 0
vn 0 1 0
vn 0 1 0
vn 0 1 0
g ENV_FLR_Tier7_Goop_03_0
f 3/3/3 2/2/2 1/1/1
f 3/3/3 1/1/1 4/4/4
f 2/2/2 5/5/5 1/1/1
f 2/2/2 6/6/6 5/5/5
f 1/1/1 7/7/7 4/4/4
f 7/7/7 1/1/1 5/5/5
f 4/4/4 7/7/7 8/8/8
f 9/9/9 4/4/4 8/8/8
f 6/6/6 10/10/10 5/5/5
f 6/6/6 11/11/11 10/10/10
f 7/7/7 5/5/5 12/12/12
f 12/12/12 8/8/8 7/7/7
f 9/9/9 8/8/8 13/13/13
f 14/14/14 9/9/9 13/13/13
f 15/15/15 13/13/13 8/8/8
f 12/12/12 15/15/15 8/8/8
f 15/15/15 12/12/12 16/16/16
f 12/12/12 5/5/5 17/17/17
f 5/5/5 10/10/10 17/17/17
f 12/12/12 17/17/17 16/16/16
f 14/14/14 13/13/13 18/18/18
f 18/18/18 13/13/13 15/15/15
f 19/19/19 14/14/14 18/18/18
f 19/19/19 18/18/18 20/20/20
f 21/21/21 18/18/18 15/15/15
f 18/18/18 21/21/21 20/20/20
f 15/15/15 22/22/22 21/21/21
f 20/20/20 21/21/21 22/22/22
f 15/15/15 16/16/16 22/22/22
f 23/23/23 20/20/20 22/22/22
f 23/23/23 22/22/22 24/24/24
f 16/16/16 24/24/24 22/22/22
f 25/25/25 23/23/23 24/24/24
f 25/25/25 24/24/24 26/26/26
f 26/26/26 24/24/24 16/16/16
f 27/27/27 25/25/25 26/26/26
f 27/27/27 26/26/26 28/28/28
f 16/16/16 29/29/29 26/26/26
f 26/26/26 29/29/29 28/28/28
f 16/16/16 30/30/30 29/29/29
f 28/28/28 29/29/29 30/30/30
f 31/31/31 28/28/28 30/30/30
f 16/16/16 17/17/17 30/30/30
f 31/31/31 30/30/30 32/32/32
f 17/17/17 32/32/32 30/30/30
f 33/33/33 31/31/31 32/32/32
f 34/34/34 32/32/32 17/17/17
f 33/33/33 32/32/32 34/34/34
f 35/35/35 33/33/33 34/34/34
f 17/17/17 10/10/10 34/34/34
f 35/35/35 34/34/34 11/11/11
f 11/11/11 36/36/36 10/10/10
f 34/34/34 36/36/36 11/11/11
f 10/10/10 36/36/36 34/34/34
