g ENV_Bumper_02
v -11.63678 -151.8703 59.32358
v -9.602613 -155.3826 61.12045
v -9.845372 -157.079 58.02974
v -11.87322 -153.577 56.22725
v -11.63678 -151.8703 59.32358
v -9.749133 -148.458 57.25934
v -7.754401 -151.9317 59.06077
v -9.602613 -155.3826 61.12045
v -9.845372 -157.079 58.02974
v -9.602613 -155.3826 61.12045
v -7.754401 -151.9317 59.06077
v -7.973099 -153.6937 56.00806
v -7.973099 -153.6937 56.00806
v -7.754401 -151.9317 59.06077
v -9.749133 -148.458 57.25934
v -9.983346 -150.2043 54.18258
v -9.983346 -150.2043 54.18258
v -9.749133 -148.458 57.25934
v -11.63678 -151.8703 59.32358
v -11.87322 -153.577 56.22725
vt 0.004552 0.497532
vt 0.497305 0.497533
vt 0.500045 0.0095435
vt 0.004552 0.0101255
vt 0.5343385 0.9877519
vt 0.9767791 0.7494813
vt 0.5340178 0.5118359
vt 0.087952 0.745163
vt 0.500045 0.0095435
vt 0.497305 0.497533
vt 0.9940619 0.4975208
vt 0.9860285 0.0095435
vt 0.004552 0.0101255
vt 0.004552 0.497532
vt 0.493063 0.497533
vt 0.4948897 0.008076333
vt 0.4948897 0.008076333
vt 0.493063 0.497533
vt 0.9940451 0.4992058
vt 0.9860285 0.0095435
vn -0.8865531 -0.3729141 0.2737857
vn -0.8865531 -0.3729142 0.2737857
vn -0.8865531 -0.3729142 0.2737857
vn -0.8865531 -0.3729141 0.2737857
vn 0.06665988 0.4869966 0.8708563
vn 0.06665988 0.4869966 0.8708564
vn 0.06665988 0.4869967 0.8708563
vn 0.06665988 0.4869966 0.8708563
vn 0.9037474 -0.3984603 0.1564286
vn 0.9037474 -0.3984603 0.1564286
vn 0.9037474 -0.3984603 0.1564286
vn 0.9037474 -0.3984603 0.1564286
vn 0.8882858 0.3672414 -0.27583
vn 0.8882858 0.3672414 -0.27583
vn 0.8882858 0.3672414 -0.27583
vn 0.8882858 0.3672414 -0.27583
vn -0.9003215 0.4054695 -0.158163
vn -0.9003215 0.4054696 -0.158163
vn -0.9003215 0.4054695 -0.158163
vn -0.9003215 0.4054695 -0.158163
g ENV_Bumper_02_0
f 3/3/3 2/2/2 1/1/1
f 4/4/4 3/3/3 1/1/1
f 7/7/7 6/6/6 5/5/5
f 8/8/8 7/7/7 5/5/5
f 11/11/11 10/10/10 9/9/9
f 12/12/12 11/11/11 9/9/9
f 15/15/15 14/14/14 13/13/13
f 16/16/16 15/15/15 13/13/13
f 19/19/19 18/18/18 17/17/17
f 20/20/20 19/19/19 17/17/17
