g ENV_RotatingFlag_MO
v -0.05137236 -0.1398534 0.858835
v -0.1256512 -0.02543029 0.858835
v -0.1256517 -0.02542812 7.428133
v -0.05137255 -0.1398504 7.435657
v 0.0848603 -0.1327377 0.858835
v -0.1385528 -0.0254277 7.476863
v 0.08486059 -0.1327352 7.449457
v 0.1468142 -0.0111987 0.8588346
v -0.0799166 -0.1398508 7.522496
v -0.1573308 -0.02542787 7.488667
v 0.1468147 -0.01119655 7.455732
v 0.07253539 0.1032244 0.858835
v 0.06239131 -0.1327348 7.559197
v -0.1398246 -0.1398506 7.562003
v -0.6297899 -0.02542783 7.517995
v 0.07253559 0.103227 7.448208
v -0.06369726 0.09610853 0.8588348
v 0.1203409 -0.01119581 7.585033
v -0.007138862 -0.1327351 7.653186
v -0.6317644 -0.1398505 7.592539
v -1.177408 -0.02542784 7.45474
v -0.06369755 0.09611118 7.434408
v -0.1256512 -0.02543029 0.858835
v -0.1256517 -0.02542812 7.428133
v 0.05086307 0.1032268 7.554056
v -0.08964597 0.09611148 7.514924
v -0.1385528 -0.0254277 7.476863
v 0.03272512 -0.01119576 7.703472
v -0.107717 -0.1327353 7.696505
v -1.194069 -0.1398502 7.527589
v -1.838995 -0.0254278 7.224657
v -0.01506917 0.1032272 7.643183
v -0.1427294 0.09611147 7.549834
v -0.1573308 -0.02542787 7.488667
v -0.0931154 -0.0111959 7.757672
v -0.6353858 -0.1327347 7.729259
v -0.1106217 0.1032268 7.684336
v -1.872732 -0.1398505 7.291566
v -2.315004 -0.02542811 6.899452
v -0.6314368 0.09611171 7.58017
v -0.6297899 -0.02542783 7.517995
v -0.6370327 -0.01119579 7.791433
v -1.224626 -0.1327348 7.661197
v -0.6350582 0.1032268 7.71689
v -2.368737 -0.1398508 6.952703
v -2.568131 -0.02542801 6.52165
v -1.191304 0.09611128 7.515499
v -1.177408 -0.02542784 7.45474
v -1.238522 -0.01119565 7.721957
v -1.934608 -0.1327353 7.414283
v -1.221861 0.1032268 7.649109
v -2.634963 -0.1398509 6.555347
v -2.713863 -0.02542796 6.114443
v -1.867134 0.09611135 7.280464
v -1.838995 -0.0254278 7.224657
v -1.962748 -0.01119608 7.470092
v -2.467285 -0.1327349 7.050365
v -1.92901 0.1032272 7.403182
v -2.788142 -0.1398513 6.127335
v -2.713863 -0.02543009 1.791255
v -2.359821 0.09611116 6.943865
v -2.315004 -0.02542811 6.899452
v -2.512102 -0.01119619 7.094779
v -2.75754 -0.1327349 6.617149
v -2.45837 0.1032271 7.041529
v -2.788142 -0.1398533 1.781373
v -2.707275 -0.02543008 1.768854
v -2.623874 0.09611095 6.549757
v -2.568131 -0.02542801 6.52165
v -2.813282 -0.01119654 6.645255
v -2.924375 -0.1327349 6.150979
v -2.74645 0.103227 6.611558
v -2.759793 -0.1398532 1.716327
v -2.684866 -0.02543018 1.76225
v -2.775817 0.0961111 6.125196
v -2.713863 -0.02542796 6.114443
v -2.986329 -0.01119643 6.161731
v -2.924375 -0.1327374 1.763248
v -2.91205 0.1032269 6.148839
v -2.775817 0.09610874 1.783013
v -2.713863 -0.02543009 1.791255
v -2.986328 -0.01119862 1.755005
v -2.91205 0.1032247 1.764887
v -2.751079 0.09610874 1.725042
v -2.707275 -0.02543008 1.768854
v -2.896512 -0.1327374 1.660382
v -2.885475 0.1032244 1.666775
v -2.951993 -0.01119864 1.628245
v -2.815721 -0.1327376 1.579595
v -2.847848 -0.01119854 1.524109
v -2.694744 -0.1398534 1.687971
v -1.798461 -0.02543012 1.76225
v -2.712861 -0.1327376 1.551738
v -1.798461 -0.1398534 1.687971
v -0.8939399 -0.02543013 1.76225
v -2.809329 0.1032245 1.590633
v -2.7211 -0.01119869 1.489783
v -1.798461 -0.1327376 1.551738
v -0.8939398 -0.1398534 1.687971
v 0.01058153 -0.02543014 1.76225
v 0.01058156 -0.1297657 1.687971
v -0.89394 -0.1327376 1.551738
v 0.01058157 -0.1232404 1.551738
v -2.711222 0.1032245 1.564063
v -1.798461 -0.01119876 1.489784
v -0.89394 -0.01119876 1.489784
v 0.0105816 -0.01119877 1.489784
v -2.693105 0.09610872 1.700296
v -2.684866 -0.02543018 1.76225
v -1.798461 0.1032245 1.564063
v -0.8939399 0.1032245 1.564063
v 0.01058157 0.0931368 1.564063
v -1.798461 0.09610872 1.700296
v -1.798461 -0.02543012 1.76225
v -0.8939398 0.09610872 1.700296
v 0.01058156 0.08661155 1.700296
v -0.8939399 -0.02543013 1.76225
v 0.01058153 -0.02543014 1.76225
v -0.07054657 0.02345396 7.610007
v -0.9434534 0.02345397 7.631849
v -0.07054659 0.02345295 1.649863
v -1.881619 0.02345377 7.383681
v -2.581996 0.0234539 6.850208
v -2.889702 0.02345384 6.106366
v -2.889703 0.02345286 1.649862
v -0.07054655 -0.06187511 7.610007
v -0.07054656 -0.06187624 1.649861
v -0.9434535 -0.0618751 7.631849
v -1.881619 -0.06187528 7.38368
v -2.581996 -0.06187513 6.850206
v -2.889703 -0.06187522 6.106365
v -2.889703 -0.0618762 1.649861
vt 0.9540379 0.01089519
vt 0.9461744 0.01179731
vt 0.9463641 0.3825584
vt 0.9540451 0.381242
vt 0.962041 0.009177327
vt 0.9469901 0.3881216
vt 0.9618092 0.3791763
vt 0.9701784 0.008419037
vt 0.9547543 0.3873962
vt 0.9470206 0.3923039
vt 0.9702123 0.3783035
vt 0.9783107 0.009370178
vt 0.9625892 0.3839439
vt 0.9548364 0.3927561
vt 0.9468945 0.4214188
vt 0.9785655 0.3793796
vt 0.9863073 0.01116505
vt 0.9701529 0.3832736
vt 0.9628805 0.3889604
vt 0.9547091 0.421587
vt 0.9470332 0.4544295
vt 0.9862704 0.3815135
vt 0.9941693 0.01206794
vt 0.9939601 0.3827578
vt 0.9777297 0.3840799
vt 0.9855708 0.3874541
vt 0.9933777 0.3881524
vt 0.9701425 0.3888672
vt 0.9625374 0.393536
vt 0.9548443 0.4543385
vt 0.9476048 0.4959076
vt 0.9774464 0.3889403
vt 0.9855195 0.3925541
vt 0.9933317 0.3920799
vt 0.9701971 0.3938135
vt 0.9626077 0.4219338
vt 0.9778461 0.393416
vt 0.9554403 0.4956887
vt 0.9484138 0.5306252
vt 0.9864628 0.4213663
vt 0.9942523 0.4210666
vt 0.9706548 0.4220769
vt 0.9626531 0.4542172
vt 0.9786445 0.4218197
vt 0.9562795 0.5305176
vt 0.9483832 0.558588
vt 0.9864461 0.4541143
vt 0.994306 0.4540673
vt 0.9705495 0.4541425
vt 0.9632885 0.4953828
vt 0.9785175 0.4541214
vt 0.9562224 0.5584977
vt 0.9488159 0.5853862
vt 0.9868882 0.4954525
vt 0.9947175 0.4954534
vt 0.9711627 0.4952132
vt 0.9641292 0.5303855
vt 0.9790417 0.4952814
vt 0.9566587 0.5851759
vt 0.9489036 0.8314225
vt 0.9875019 0.5302773
vt 0.9953775 0.5301914
vt 0.9718885 0.530297
vt 0.964125 0.5583773
vt 0.979644 0.5302758
vt 0.9566539 0.8308401
vt 0.9490888 0.8359326
vt 0.9880097 0.5582882
vt 0.9958438 0.5582706
vt 0.9721273 0.5582935
vt 0.9645018 0.5848367
vt 0.9801211 0.5582747
vt 0.9568681 0.8361928
vt 0.9488041 0.8403313
vt 0.9879137 0.585032
vt 0.9957418 0.5851759
vt 0.9723046 0.584663
vt 0.964361 0.8300088
vt 0.9800963 0.5847703
vt 0.9879405 0.8307649
vt 0.9957175 0.8312311
vt 0.9722958 0.8296839
vt 0.9802254 0.8299844
vt 0.9877703 0.8359804
vt 0.9955863 0.8356801
vt 0.9648972 0.8342237
vt 0.9797247 0.8341767
vt 0.9722948 0.8340538
vt 0.9648809 0.8389068
vt 0.9723397 0.8393192
vt 0.9565418 0.841414
vt 0.9488036 0.8921351
vt 0.9642696 0.8431483
vt 0.9565934 0.8926046
vt 0.9489267 0.9435739
vt 0.9798077 0.8387308
vt 0.97242 0.8438315
vt 0.9644284 0.8935246
vt 0.9567078 0.943737
vt 0.9489354 0.9945656
vt 0.95647 0.9946658
vt 0.9644642 0.9440559
vt 0.9647009 0.9948497
vt 0.9805009 0.8429206
vt 0.9723806 0.8939118
vt 0.9723628 0.9441764
vt 0.9723156 0.9949011
vt 0.9881222 0.8410597
vt 0.9958504 0.8400247
vt 0.9803214 0.8933682
vt 0.9802703 0.9439595
vt 0.979982 0.9947679
vt 0.9881328 0.892355
vt 0.9959105 0.8918545
vt 0.9880453 0.9435678
vt 0.9883003 0.994521
vt 0.9958362 0.9433674
vt 0.9958705 0.9943858
vt 0.01146905 0.9857882
vt 0.1508103 0.9893669
vt 0.01146902 0.009266537
vt 0.3005688 0.9487066
vt 0.4123694 0.8613012
vt 0.4614883 0.7394289
vt 0.4614883 0.009266499
vt 0.9262286 0.9863933
vt 0.9391722 0.01504709
vt 0.7839212 0.9880573
vt 0.6315655 0.9455751
vt 0.5185813 0.8571122
vt 0.4700483 0.7352182
vt 0.4797246 0.008926074
vn -0.4541458 -0.8909274 3.240817E-07
vn -0.9986387 -0.05216157 0
vn -0.9874403 -0.05425509 -0.1483848
vn -0.410294 -0.9099171 -0.06090696
vn 0.5444927 -0.8387655 2.956949E-07
vn -0.7996124 -0.05989627 -0.5975218
vn 0.561992 -0.8251339 0.05761078
vn 0.9986387 0.05216154 0
vn -0.2886198 -0.9324945 -0.2171462
vn -0.3207327 -0.05706287 -0.9454492
vn 0.9936272 0.0506878 0.1006763
vn 0.4541461 0.8909272 -3.713928E-07
vn 0.5340261 -0.8111966 0.2382777
vn -0.1191837 -0.9236918 -0.3641273
vn 0.02646157 -0.0538008 -0.998201
vn 0.4759918 0.8781602 0.04760774
vn -0.5444924 0.8387657 -3.619306E-07
vn 0.9122039 0.0494315 0.4067439
vn 0.3675153 -0.8064712 0.4631811
vn 0.01140881 -0.9025694 -0.4303931
vn 0.222627 -0.05425086 -0.9733931
vn -0.5036482 0.8608552 -0.07257229
vn -0.9986387 -0.05216157 0
vn -0.9874403 -0.05425509 -0.1483848
vn 0.457907 0.8652741 0.2040141
vn -0.3625547 0.8909723 -0.2733542
vn -0.7996124 -0.05989627 -0.5975218
vn 0.620463 0.04904783 0.7827004
vn 0.1348798 -0.8164175 0.5614889
vn 0.09464185 -0.9054331 -0.4138042
vn 0.4495546 -0.05474895 -0.8915735
vn 0.3159976 0.8607377 0.399094
vn -0.1463793 0.8779571 -0.4558119
vn -0.3207327 -0.05706287 -0.9454492
vn 0.231911 0.04986728 0.9714579
vn -0.01491867 -0.8264821 0.5627652
vn 0.1137609 0.8699239 0.4798863
vn 0.1881801 -0.9084632 -0.3732062
vn 0.709178 -0.05616299 -0.7027889
vn 0.01386764 0.8521309 -0.5231448
vn 0.02646157 -0.0538008 -0.998201
vn -0.02646496 0.05084988 0.9983556
vn -0.1264181 -0.8237085 0.5527411
vn -0.01259343 0.8798709 0.475046
vn 0.2843994 -0.9163429 -0.2818379
vn 0.8915969 -0.0545447 -0.4495329
vn 0.1154508 0.855489 -0.5047867
vn 0.222627 -0.05425086 -0.9733931
vn -0.2226687 0.05057625 0.9735814
vn -0.2571294 -0.8208749 0.5099499
vn -0.1069954 0.877324 0.4678189
vn 0.3755649 -0.907246 -0.1893557
vn 0.9837429 -0.05568628 -0.1707303
vn 0.2304499 0.8590749 -0.4570374
vn 0.4495546 -0.05474895 -0.8915735
vn -0.4496585 0.05030606 0.8917829
vn -0.4126131 -0.813974 0.4088968
vn -0.2182084 0.8747022 0.4327599
vn 0.400168 -0.9138064 -0.06944978
vn 0.9805864 -0.05468625 0.1883072
vn 0.3520137 0.8685591 -0.3488431
vn 0.709178 -0.05616299 -0.7027889
vn -0.7094207 0.04968379 0.7030318
vn -0.5085093 -0.8220005 0.2563853
vn -0.3524257 0.8682282 0.3492506
vn 0.3948216 -0.9156832 0.07510272
vn 0.7058041 -0.06277742 0.70562
vn 0.4592007 0.8576311 -0.2315244
vn 0.8915969 -0.0545447 -0.4495329
vn -0.89179 0.05041288 0.4496321
vn -0.56937 -0.8161209 0.09881584
vn -0.431079 0.8757465 0.2173454
vn 0.2448449 -0.9381465 0.2448103
vn 0.1884154 -0.05469049 0.9805654
vn 0.4935634 0.8654812 -0.08565937
vn 0.9837429 -0.05568628 -0.1707303
vn -0.9840456 0.04987189 0.1707839
vn -0.565588 -0.8211811 -0.07597324
vn -0.4853442 0.8702562 0.0842323
vn 0.4891708 0.8675529 0.08979948
vn 0.9805864 -0.05468625 0.1883072
vn -0.9900112 0.05030675 -0.1317084
vn -0.4808973 0.8744881 -0.06331169
vn 0.3094856 0.8991486 0.3094356
vn 0.7058041 -0.06277742 0.70562
vn -0.5111995 -0.806758 -0.2963386
vn -0.4401522 0.8610533 -0.2546627
vn -0.8642923 0.04907095 -0.5005905
vn -0.2963138 -0.8067602 -0.5112104
vn -0.500536 0.04907083 -0.864324
vn 0.07513073 -0.9156907 0.3947988
vn 2.481435E-07 -0.0521611 0.9986387
vn -0.07596099 -0.8211853 -0.5655835
vn 1.126436E-07 -0.8909271 0.4541464
vn 0.001623362 -0.05326806 0.9985789
vn -0.2546421 0.8610547 -0.4401615
vn -0.1316835 0.0503064 -0.9900146
vn 2.004326E-07 -0.8387663 -0.5444915
vn 0.004012239 -0.8933778 0.4492882
vn 0.003264684 -0.05438709 0.9985146
vn 0.007986565 -0.8943981 0.4472004
vn 0.003825839 -0.8417484 -0.5398566
vn 0.00761673 -0.8427879 -0.5381919
vn -0.06329957 0.8744907 -0.480894
vn 3.898437E-07 0.05216092 -0.9986387
vn 0.001623331 0.05326815 -0.9985789
vn 0.003264385 0.05438725 -0.9985146
vn 0.08983828 0.8675649 0.4891424
vn 0.1884154 -0.05469049 0.9805654
vn 1.923011E-07 0.8909273 -0.4541459
vn 0.004012249 0.8933781 -0.4492877
vn 0.007986479 0.8943981 -0.4472004
vn 1.384453E-07 0.8387661 0.5444919
vn 2.481435E-07 -0.0521611 0.9986387
vn 0.003825885 0.8417481 0.539857
vn 0.007616947 0.8427879 0.5381919
vn 0.001623362 -0.05326806 0.9985789
vn 0.003264684 -0.05438709 0.9985146
vn 0 1 -1.608581E-07
vn 0 1 -1.703203E-07
vn 0 1 -1.750514E-07
vn 0 1 -1.655892E-07
vn 0 1 -1.632236E-07
vn 0 1 -1.821481E-07
vn 0 1 -1.797825E-07
vn 0 -1 1.679547E-07
vn 0 -1 1.726858E-07
vn 0 -1 1.750514E-07
vn 0 -1 1.679547E-07
vn 0 -1 1.679547E-07
vn 0 -1 1.797825E-07
vn 0 -1 1.750514E-07
g ENV_RotatingFlag_MO_0
f 3/3/3 2/2/2 1/1/1
f 4/4/4 3/3/3 1/1/1
f 4/4/4 1/1/1 5/5/5
f 6/6/6 3/3/3 4/4/4
f 7/7/7 4/4/4 5/5/5
f 7/7/7 5/5/5 8/8/8
f 9/9/9 6/6/6 4/4/4
f 9/9/9 4/4/4 7/7/7
f 10/10/10 6/6/6 9/9/9
f 11/11/11 7/7/7 8/8/8
f 11/11/11 8/8/8 12/12/12
f 13/13/13 9/9/9 7/7/7
f 13/13/13 7/7/7 11/11/11
f 14/14/14 10/10/10 9/9/9
f 15/15/15 10/10/10 14/14/14
f 16/16/16 11/11/11 12/12/12
f 16/16/16 12/12/12 17/17/17
f 18/18/18 13/13/13 11/11/11
f 18/18/18 11/11/11 16/16/16
f 19/19/19 9/9/9 13/13/13
f 14/14/14 9/9/9 19/19/19
f 19/19/19 13/13/13 18/18/18
f 20/20/20 15/15/15 14/14/14
f 21/21/21 15/15/15 20/20/20
f 22/22/22 16/16/16 17/17/17
f 22/22/22 17/17/17 23/23/23
f 24/24/24 22/22/22 23/23/23
f 25/25/25 18/18/18 16/16/16
f 25/25/25 16/16/16 22/22/22
f 26/26/26 22/22/22 24/24/24
f 26/26/26 25/25/25 22/22/22
f 27/27/27 26/26/26 24/24/24
f 28/28/28 19/19/19 18/18/18
f 28/28/28 18/18/18 25/25/25
f 29/29/29 14/14/14 19/19/19
f 20/20/20 14/14/14 29/29/29
f 29/29/29 19/19/19 28/28/28
f 30/30/30 21/21/21 20/20/20
f 31/31/31 21/21/21 30/30/30
f 32/32/32 28/28/28 25/25/25
f 32/32/32 25/25/25 26/26/26
f 33/33/33 26/26/26 27/27/27
f 34/34/34 33/33/33 27/27/27
f 35/35/35 29/29/29 28/28/28
f 35/35/35 28/28/28 32/32/32
f 36/36/36 20/20/20 29/29/29
f 30/30/30 20/20/20 36/36/36
f 36/36/36 29/29/29 35/35/35
f 37/37/37 32/32/32 26/26/26
f 37/37/37 35/35/35 32/32/32
f 33/33/33 37/37/37 26/26/26
f 38/38/38 31/31/31 30/30/30
f 39/39/39 31/31/31 38/38/38
f 40/40/40 33/33/33 34/34/34
f 41/41/41 40/40/40 34/34/34
f 42/42/42 36/36/36 35/35/35
f 42/42/42 35/35/35 37/37/37
f 43/43/43 30/30/30 36/36/36
f 38/38/38 30/30/30 43/43/43
f 43/43/43 36/36/36 42/42/42
f 44/44/44 37/37/37 33/33/33
f 44/44/44 42/42/42 37/37/37
f 40/40/40 44/44/44 33/33/33
f 45/45/45 39/39/39 38/38/38
f 46/46/46 39/39/39 45/45/45
f 47/47/47 40/40/40 41/41/41
f 48/48/48 47/47/47 41/41/41
f 49/49/49 43/43/43 42/42/42
f 49/49/49 42/42/42 44/44/44
f 50/50/50 38/38/38 43/43/43
f 45/45/45 38/38/38 50/50/50
f 50/50/50 43/43/43 49/49/49
f 51/51/51 44/44/44 40/40/40
f 51/51/51 49/49/49 44/44/44
f 47/47/47 51/51/51 40/40/40
f 52/52/52 46/46/46 45/45/45
f 53/53/53 46/46/46 52/52/52
f 54/54/54 47/47/47 48/48/48
f 55/55/55 54/54/54 48/48/48
f 56/56/56 50/50/50 49/49/49
f 56/56/56 49/49/49 51/51/51
f 57/57/57 45/45/45 50/50/50
f 52/52/52 45/45/45 57/57/57
f 57/57/57 50/50/50 56/56/56
f 58/58/58 51/51/51 47/47/47
f 58/58/58 56/56/56 51/51/51
f 54/54/54 58/58/58 47/47/47
f 59/59/59 53/53/53 52/52/52
f 60/60/60 53/53/53 59/59/59
f 61/61/61 54/54/54 55/55/55
f 62/62/62 61/61/61 55/55/55
f 63/63/63 57/57/57 56/56/56
f 63/63/63 56/56/56 58/58/58
f 64/64/64 52/52/52 57/57/57
f 59/59/59 52/52/52 64/64/64
f 64/64/64 57/57/57 63/63/63
f 65/65/65 58/58/58 54/54/54
f 65/65/65 63/63/63 58/58/58
f 61/61/61 65/65/65 54/54/54
f 66/66/66 60/60/60 59/59/59
f 67/67/67 60/60/60 66/66/66
f 68/68/68 61/61/61 62/62/62
f 69/69/69 68/68/68 62/62/62
f 70/70/70 64/64/64 63/63/63
f 70/70/70 63/63/63 65/65/65
f 71/71/71 59/59/59 64/64/64
f 66/66/66 59/59/59 71/71/71
f 71/71/71 64/64/64 70/70/70
f 72/72/72 65/65/65 61/61/61
f 72/72/72 70/70/70 65/65/65
f 68/68/68 72/72/72 61/61/61
f 73/73/73 67/67/67 66/66/66
f 74/74/74 67/67/67 73/73/73
f 75/75/75 68/68/68 69/69/69
f 76/76/76 75/75/75 69/69/69
f 77/77/77 71/71/71 70/70/70
f 77/77/77 70/70/70 72/72/72
f 78/78/78 66/66/66 71/71/71
f 73/73/73 66/66/66 78/78/78
f 78/78/78 71/71/71 77/77/77
f 79/79/79 72/72/72 68/68/68
f 79/79/79 77/77/77 72/72/72
f 75/75/75 79/79/79 68/68/68
f 80/80/80 75/75/75 76/76/76
f 81/81/81 80/80/80 76/76/76
f 82/82/82 78/78/78 77/77/77
f 82/82/82 77/77/77 79/79/79
f 83/83/83 79/79/79 75/75/75
f 80/80/80 83/83/83 75/75/75
f 83/83/83 82/82/82 79/79/79
f 84/84/84 80/80/80 81/81/81
f 85/85/85 84/84/84 81/81/81
f 86/86/86 78/78/78 82/82/82
f 86/86/86 73/73/73 78/78/78
f 87/87/87 83/83/83 80/80/80
f 84/84/84 87/87/87 80/80/80
f 88/88/88 82/82/82 83/83/83
f 88/88/88 86/86/86 82/82/82
f 87/87/87 88/88/88 83/83/83
f 89/89/89 73/73/73 86/86/86
f 89/89/89 86/86/86 88/88/88
f 90/90/90 88/88/88 87/87/87
f 90/90/90 89/89/89 88/88/88
f 91/91/91 73/73/73 89/89/89
f 91/91/91 74/74/74 73/73/73
f 92/92/92 74/74/74 91/91/91
f 93/93/93 91/91/91 89/89/89
f 93/93/93 89/89/89 90/90/90
f 94/94/94 92/92/92 91/91/91
f 94/94/94 91/91/91 93/93/93
f 95/95/95 92/92/92 94/94/94
f 96/96/96 90/90/90 87/87/87
f 96/96/96 87/87/87 84/84/84
f 97/97/97 93/93/93 90/90/90
f 97/97/97 90/90/90 96/96/96
f 98/98/98 94/94/94 93/93/93
f 98/98/98 93/93/93 97/97/97
f 99/99/99 95/95/95 94/94/94
f 99/99/99 94/94/94 98/98/98
f 100/100/100 95/95/95 99/99/99
f 101/101/101 100/100/100 99/99/99
f 101/101/101 99/99/99 102/102/102
f 102/102/102 99/99/99 98/98/98
f 103/103/103 101/101/101 102/102/102
f 104/104/104 96/96/96 84/84/84
f 104/104/104 97/97/97 96/96/96
f 105/105/105 98/98/98 97/97/97
f 102/102/102 98/98/98 105/105/105
f 105/105/105 97/97/97 104/104/104
f 103/103/103 102/102/102 106/106/106
f 106/106/106 102/102/102 105/105/105
f 107/107/107 103/103/103 106/106/106
f 108/108/108 104/104/104 84/84/84
f 108/108/108 84/84/84 85/85/85
f 109/109/109 108/108/108 85/85/85
f 110/110/110 105/105/105 104/104/104
f 106/106/106 105/105/105 110/110/110
f 110/110/110 104/104/104 108/108/108
f 107/107/107 106/106/106 111/111/111
f 111/111/111 106/106/106 110/110/110
f 112/112/112 107/107/107 111/111/111
f 113/113/113 108/108/108 109/109/109
f 113/113/113 110/110/110 108/108/108
f 111/111/111 110/110/110 113/113/113
f 114/114/114 113/113/113 109/109/109
f 112/112/112 111/111/111 115/115/115
f 115/115/115 111/111/111 113/113/113
f 115/115/115 113/113/113 114/114/114
f 116/116/116 112/112/112 115/115/115
f 117/117/117 115/115/115 114/114/114
f 116/116/116 115/115/115 117/117/117
f 118/118/118 116/116/116 117/117/117
f 121/121/121 120/120/120 119/119/119
f 122/122/122 120/120/120 121/121/121
f 123/123/123 122/122/122 121/121/121
f 124/124/124 123/123/123 121/121/121
f 125/125/125 124/124/124 121/121/121
f 128/128/128 127/127/127 126/126/126
f 128/128/128 129/129/129 127/127/127
f 129/129/129 130/130/130 127/127/127
f 130/130/130 131/131/131 127/127/127
f 131/131/131 132/132/132 127/127/127
