g ENV_PushPullBlock01_MO
v -1.5 0 1.525682
v -1.5 3.011383 1.525682
v 1.5 2.988616 1.525682
v 1.5 0 1.525682
v -1.5 3.011383 1.525682
v -1.5 3.011383 -1.525682
v 1.5 3.011383 -1.525682
v 1.5 2.988616 1.525682
v -1.5 3.011383 -1.525682
v -1.5 0 -1.525682
v 1.5 0 -1.525682
v 1.5 3.011383 -1.525682
v -1.5 0 -1.525682
v -1.5 0 1.525682
v 1.5 0 1.525682
v 1.5 0 -1.525682
v 1.5 0 1.525682
v 1.5 2.988616 1.525682
v 1.5 3.011383 -1.525682
v 1.5 0 -1.525682
v -1.5 0 -1.525682
v -1.5 3.011383 -1.525682
v -1.5 3.011383 1.525682
v -1.5 0 1.525682
vt -2 8.23605E-08
vt -2 3.011384
vt 1 2.988617
vt 1 0
vt -2 3.026328E-06
vt -2 3.051368
vt 0.9999996 3.051368
vt 0.9999996 2.959883E-06
vt -2 -2.011384
vt -2 1
vt 1 1
vt 1 -2.011384
vt -2 -2.051365
vt -2 1
vt 1 1
vt 1 -2.051365
vt 0 0
vt 1.160502E-08 2.988617
vt 3.051365 3.011384
vt 3.051365 2.250844E-08
vt -2.051365 2.516067E-08
vt -2.051365 3.011383
vt 1 3.011383
vt 1 -1.782279E-07
vn 0 0 1
vn 0 0 1
vn 0 0 1
vn 0 0 1
vn 0.0037944 0.9999858 0.003730518
vn 0.0037944 0.9999858 0.003730518
vn 0.0037944 0.9999858 0.003730518
vn 0.0037944 0.9999858 0.003730518
vn 0 0 -1
vn 0 0 -1
vn 0 0 -1
vn 0 0 -1
vn 0 -1 0
vn 0 -1 0
vn 0 -1 0
vn 0 -1 0
vn 1 0 0
vn 1 0 0
vn 1 0 0
vn 1 0 0
vn -1 0 0
vn -1 0 0
vn -1 0 0
vn -1 0 0
g ENV_PushPullBlock01_MO_0
f 3/3/3 2/2/2 1/1/1
f 4/4/4 3/3/3 1/1/1
f 7/7/7 6/6/6 5/5/5
f 8/8/8 7/7/7 5/5/5
f 11/11/11 10/10/10 9/9/9
f 12/12/12 11/11/11 9/9/9
f 15/15/15 14/14/14 13/13/13
f 16/16/16 15/15/15 13/13/13
f 19/19/19 18/18/18 17/17/17
f 20/20/20 19/19/19 17/17/17
f 23/23/23 22/22/22 21/21/21
f 24/24/24 23/23/23 21/21/21
