g ENV_Door05_MO
v 7.097471 -2.903844 0.419331
v 7.097471 2.705251 0.419331
v 7.114602 2.707506 0.4021972
v 7.114602 -2.903844 0.4021972
v 7.120874 2.708332 0.3787939
v 7.111084 -2.924068 0.3990186
v 7.094292 -2.924068 0.4158105
v 7.120874 -2.903844 0.3787939
v 7.120874 2.708332 -0.3787891
v 7.114602 -2.927248 0.3787939
v 7.111084 -2.924068 0.3990186
v 7.114602 -2.927248 -0.3787939
v 7.120874 -2.903844 -0.3787939
v 7.114619 2.707425 -0.4021924
v 7.114602 -2.903844 -0.4021972
v 7.111084 -2.924068 -0.3990186
v 7.097532 2.704948 -0.419331
v 7.097471 -2.903844 -0.419331
v 7.094292 -2.924068 -0.4158105
v 7.111084 -2.924068 -0.3990186
v -7.097471 -2.903844 -0.419331
v -7.097471 2.705251 -0.419331
v -7.114604 2.707506 -0.4021972
v -7.114604 -2.903844 -0.4021972
v -7.120874 2.708332 -0.3787939
v -7.111084 -2.924068 -0.3990186
v -7.094292 -2.924068 -0.4158105
v -7.120874 -2.903844 -0.3787939
v -7.120874 2.708332 0.3787891
v -7.114604 -2.927248 -0.3787939
v -7.111084 -2.924068 -0.3990186
v -7.114604 -2.927248 0.3787939
v -7.120874 -2.903844 0.3787939
v -7.114619 2.707425 0.4021924
v -7.114604 -2.903844 0.4021972
v -7.111084 -2.924068 0.3990186
v -7.097532 2.704948 0.419331
v -7.097471 -2.903844 0.419331
v -7.094292 -2.924068 0.4158105
v -7.111084 -2.924068 0.3990186
v -7.114619 2.707425 0.4021924
v -7.067619 2.817128 0.419331
v -7.097532 2.704948 0.419331
v -7.082839 2.82618 0.4021924
v -6.987888 2.897086 0.419331
v -7.120874 2.708332 0.3787891
v -6.996545 2.912533 0.4021924
v -6.875772 2.927189 0.419331
v -7.08841 2.829492 0.3787891
v -6.87781 2.944365 0.4021924
v 6.875473 2.927248 0.419331
v -7.08841 2.829492 -0.3787939
v -7.120874 2.708332 -0.3787939
v -7.114604 2.707506 -0.4021972
v -6.999714 2.918187 0.3787891
v 6.877729 2.94438 0.4021972
v 6.9876 2.897204 0.419331
v -7.082788 2.826245 -0.4021972
v -7.097471 2.705251 -0.419331
v -7.067427 2.817377 -0.419331
v -6.999714 2.918187 -0.3787939
v -6.996469 2.912564 -0.4021972
v -6.9876 2.897204 -0.419331
v -6.878554 2.950651 0.3787891
v -6.878554 2.950651 -0.3787939
v -6.877729 2.94438 -0.4021972
v -6.875473 2.927248 -0.419331
v 6.87781 2.944365 -0.4021924
v 6.875774 2.927189 -0.419331
v 6.996535 2.912514 -0.4021924
v 6.987849 2.897013 -0.419331
v 7.082817 2.826168 -0.4021924
v 7.067546 2.817086 -0.419331
v 6.878554 2.950651 0.3787939
v 6.878554 2.950651 -0.3787891
v 6.87781 2.944365 -0.4021924
v 6.999714 2.918187 -0.3787891
v 6.996535 2.912514 -0.4021924
v 7.114619 2.707425 -0.4021924
v 7.097532 2.704948 -0.419331
v 7.120874 2.708332 -0.3787891
v 7.088408 2.829492 -0.3787891
v 6.996467 2.912564 0.4021972
v 7.067424 2.817377 0.419331
v 6.999714 2.918187 0.3787939
v 7.088408 2.829492 0.3787939
v 7.120874 2.708332 0.3787939
v 7.114602 2.707506 0.4021972
v 7.082786 2.826245 0.4021972
v 7.097471 2.705251 0.419331
v -7.097471 -2.944381 0.3787939
v -7.094292 -2.940861 0.3990186
v -7.074067 -2.944381 0.4021972
v -7.074067 -2.950651 0.3787939
v -7.097471 -2.944381 -0.3787939
v -7.074067 -2.950651 -0.3787939
v 7.074067 -2.950651 0.3787939
v -7.074067 -2.944381 -0.4021972
v -7.094292 -2.940861 -0.3990186
v 7.074067 -2.944381 0.4021972
v -7.074067 -2.927248 0.419331
v -7.094292 -2.940861 0.3990186
v -7.094292 -2.924068 0.4158105
v -7.111084 -2.924068 0.3990186
v 7.074067 -2.927248 0.419331
v -7.097471 -2.944381 0.3787939
v -7.114604 -2.927248 0.3787939
v -7.114604 -2.927248 -0.3787939
v -7.097471 -2.944381 -0.3787939
v -7.094292 -2.940861 -0.3990186
v -7.111084 -2.924068 -0.3990186
v -7.094292 -2.924068 -0.4158105
v -7.074067 -2.927248 -0.419331
v 7.094292 -2.924068 0.4158105
v 7.074067 -2.927248 -0.419331
v 7.094292 -2.940861 0.3990186
v 7.111084 -2.924068 0.3990186
v 7.114602 -2.927248 0.3787939
v 7.097471 -2.944381 0.3787939
v 7.097471 -2.944381 -0.3787939
v 7.114602 -2.927248 -0.3787939
v 7.111084 -2.924068 -0.3990186
v 7.094292 -2.940861 -0.3990186
v 7.094292 -2.924068 -0.4158105
v 7.074067 -2.944381 -0.4021972
v 7.074067 -2.950651 -0.3787939
v 7.097471 -2.944381 -0.3787939
v 7.094292 -2.940861 -0.3990186
v 7.097471 -2.944381 0.3787939
v 7.094292 -2.940861 0.3990186
v -7.074067 -2.927248 0.419331
v -7.094292 -2.924068 0.4158105
v -7.097471 -2.903844 0.419331
v -7.074067 -2.903844 0.4256006
v 7.074067 -2.927248 0.419331
v -7.074189 2.701563 0.4256006
v -7.097532 2.704948 0.419331
v -7.046828 2.804766 0.4256006
v 7.074067 -2.903844 0.4256006
v -7.067619 2.817128 0.419331
v -6.976062 2.875985 0.4256006
v -6.987888 2.897086 0.419331
v -6.872991 2.903726 0.4256006
v -6.875772 2.927189 0.419331
v 6.872393 2.903844 0.4256006
v 6.875473 2.927248 0.419331
v 6.975486 2.87622 0.4256006
v 6.9876 2.897204 0.419331
v 7.04644 2.805262 0.4256006
v 7.067424 2.817377 0.419331
v 7.074067 2.702169 0.4256006
v 7.097471 2.705251 0.419331
v 7.097471 -2.903844 0.419331
v 7.094292 -2.924068 0.4158105
v -7.097471 -2.903844 -0.419331
v -7.094292 -2.924068 -0.4158105
v -7.074067 -2.927248 -0.419331
v -7.074067 -2.903844 -0.4256006
v -7.097471 2.705251 -0.419331
v 7.074067 -2.903844 -0.4256006
v 7.074067 -2.927248 -0.419331
v -7.074067 2.70217 -0.4256006
v 7.097471 -2.903844 -0.419331
v -7.046443 2.805262 -0.4256006
v 7.094292 -2.924068 -0.4158105
v -7.067427 2.817377 -0.419331
v -6.9876 2.897204 -0.419331
v -6.975486 2.87622 -0.4256006
v -6.875473 2.927248 -0.419331
v -6.872393 2.903844 -0.4256006
v 6.875774 2.927189 -0.419331
v 6.872991 2.903726 -0.4256006
v 6.987849 2.897013 -0.419331
v 6.975981 2.87584 -0.4256006
v 7.067546 2.817086 -0.419331
v 7.046682 2.804681 -0.4256006
v 7.097532 2.704948 -0.419331
v 7.074189 2.701563 -0.4256006
vt 0.4433967 0.5286858
vt 0.009730101 0.5286816
vt 0.009730071 0.5305366
vt 0.4423771 0.5305366
vt 0.009730071 0.5323845
vt 0.4450489 0.5305746
vt 0.4450489 0.5286858
vt 0.4413478 0.5323886
vt 0.009729594 0.5923159
vt 0.4450489 0.5322268
vt 0.4450489 0.5305746
vt 0.4450484 0.5924823
vt 0.4413473 0.5923205
vt 0.009729594 0.5941642
vt 0.4423766 0.5941722
vt 0.4450484 0.5941345
vt 0.009729564 0.5960191
vt 0.4433962 0.5960233
vt 0.4450484 0.5960233
vt 0.4450484 0.5941345
vt 0.01191813 0.6801895
vt 0.4455849 0.6801933
vt 0.4455849 0.6783383
vt 0.01293927 0.6783358
vt 0.4455849 0.6764904
vt 0.01026595 0.6783007
vt 0.01026595 0.6801895
vt 0.01396704 0.6764867
vt 0.4455854 0.6165588
vt 0.01026601 0.6766484
vt 0.01026595 0.6783007
vt 0.0102666 0.616393
vt 0.01396763 0.6165547
vt 0.4455854 0.6147105
vt 0.01293844 0.614703
vt 0.01026666 0.6147407
vt 0.4455854 0.6128556
vt 0.01191884 0.6128519
vt 0.01026666 0.6128519
vt 0.01026666 0.6147407
vt 0.007807702 0.4512749
vt 0.01739252 0.4494202
vt 0.007807702 0.4494201
vt 0.01739934 0.4513183
vt 0.02676472 0.4494202
vt 0.007807702 0.4531231
vt 0.02677155 0.4513184
vt 0.03634942 0.4494202
vt 0.0173924 0.4531234
vt 0.03630021 0.4512641
vt 0.7648677 0.4494202
vt 0.01739171 0.513055
vt 0.007807285 0.5130549
vt 0.007807285 0.5149028
vt 0.02676472 0.4531232
vt 0.7649224 0.4512641
vt 0.7744527 0.4494203
vt 0.01739046 0.514859
vt 0.007807165 0.5167578
vt 0.01739171 0.5167578
vt 0.0267643 0.513055
vt 0.0267624 0.5148591
vt 0.0267643 0.5167578
vt 0.03634942 0.4531232
vt 0.03634942 0.5130548
vt 0.03629461 0.514898
vt 0.03634942 0.5167577
vt 0.7649169 0.5148978
vt 0.7648677 0.5167578
vt 0.7744389 0.5148578
vt 0.7744523 0.5167578
vt 0.7833266 0.5148582
vt 0.7833265 0.5167578
vt 0.7648677 0.4531231
vt 0.7648677 0.5130545
vt 0.7649169 0.5148978
vt 0.7744523 0.5130545
vt 0.7744389 0.5148578
vt 0.7929114 0.5149029
vt 0.7929114 0.5167578
vt 0.7929113 0.5130547
vt 0.7833266 0.5130545
vt 0.7744477 0.4513186
vt 0.7833272 0.4494203
vt 0.7744526 0.4531231
vt 0.783327 0.453123
vt 0.7929119 0.4531232
vt 0.7929119 0.4512753
vt 0.7833351 0.4513191
vt 0.7929119 0.4494205
vt -1.134845 0.6995251
vt -1.133485 0.6998832
vt -1.133291 0.6987868
vt -1.134911 0.6978911
vt -1.187398 0.6995251
vt -1.187332 0.697891
vt -1.134911 0.03360529
vt -1.188951 0.6987868
vt -1.188758 0.6998832
vt -1.133291 0.03270955
vt -1.131672 0.6996847
vt -1.133485 0.6998832
vt -1.131672 0.7011299
vt -1.133324 0.7011299
vt -1.131672 0.03181167
vt -1.134845 0.6995251
vt -1.134769 0.7011299
vt -1.187474 0.7011299
vt -1.187398 0.6995251
vt -1.188758 0.6998832
vt -1.188919 0.7011299
vt -1.190571 0.7011299
vt -1.190571 0.6996847
vt -1.131672 0.03036648
vt -1.190571 0.03181167
vt -1.133485 0.03161317
vt -1.133324 0.03036648
vt -1.134769 0.03036648
vt -1.134845 0.03197125
vt -1.187398 0.03197125
vt -1.187474 0.03036648
vt -1.188919 0.03036648
vt -1.188758 0.03161317
vt -1.190571 0.03036648
vt -1.188951 0.03270956
vt -1.187332 0.0336053
vt -1.187398 0.03197125
vt -1.188758 0.03161317
vt -1.134845 0.03197125
vt -1.133485 0.03161317
vt 0.003519773 0.007099098
vt 0.00203836 0.007331928
vt 0.001805484 0.008813387
vt 0.003519773 0.008813387
vt 0.7662942 0.007099098
vt 0.003510833 0.4161523
vt 0.001801014 0.4164003
vt 0.00551486 0.4237118
vt 0.7662942 0.008813387
vt 0.003992081 0.4246172
vt 0.01069838 0.4289283
vt 0.009832144 0.4304739
vt 0.01824808 0.4309603
vt 0.01804447 0.4326789
vt 0.7515221 0.4309689
vt 0.7517477 0.4326831
vt 0.7590733 0.4289456
vt 0.7599607 0.4304825
vt 0.7642706 0.423748
vt 0.7658077 0.4246354
vt 0.7662942 0.4161968
vt 0.7680083 0.4164224
vt 0.7680083 0.008813387
vt 0.7677755 0.007331928
vt 0.001805484 0.008813387
vt 0.00203836 0.007331928
vt 0.003519773 0.007099098
vt 0.003519773 0.008813387
vt 0.001805484 0.4164225
vt 0.7662942 0.008813387
vt 0.7662942 0.007099098
vt 0.003519773 0.4161968
vt 0.7680083 0.008813387
vt 0.005543232 0.423748
vt 0.7677755 0.007331928
vt 0.004006147 0.4246354
vt 0.009853244 0.4304825
vt 0.01074064 0.4289456
vt 0.01806629 0.4326831
vt 0.01829189 0.4309689
vt 0.7517697 0.4326789
vt 0.7515659 0.4309603
vt 0.759979 0.4304686
vt 0.7591096 0.4289177
vt 0.7658166 0.4246142
vt 0.7642883 0.4237055
vt 0.7680129 0.4164003
vt 0.7663033 0.4161523
vn 0.7071563 -0.0008266738 0.7070568
vn 0.7068996 0.003818855 0.7073035
vn 0.8714019 0.004814523 0.4905462
vn 0.8660577 -0.0008338147 0.4999434
vn 0.999953 0.005660778 0.007865
vn 0.7078649 -0.49946 0.4994666
vn 0.4994994 -0.499473 0.7078327
vn 0.9999672 -0.001104483 0.008021718
vn 0.9999533 0.005661414 -0.007838467
vn 0.866066 -0.4998932 0.006043096
vn 0.946111 -0.2289919 0.2289903
vn 0.8660661 -0.499893 -0.006043102
vn 0.9999673 -0.001104524 -0.008010779
vn 0.8722066 0.004824914 -0.4891137
vn 0.8663536 -0.0008370987 -0.4994305
vn 0.9461131 -0.228983 -0.2289906
vn 0.7074033 0.003770888 -0.7068
vn 0.7076591 -0.0008317548 -0.7065536
vn 0.4994994 -0.4994733 -0.7078325
vn 0.7078651 -0.49946 -0.4994664
vn -0.707106 -0.0008268001 -0.7071071
vn -0.7068498 0.003818464 -0.7073533
vn -0.8714026 0.004814159 -0.4905451
vn -0.8660577 -0.0008338842 -0.4999433
vn -0.9999532 0.005660339 -0.007861969
vn -0.7078356 -0.4994825 -0.4994859
vn -0.4994859 -0.4994819 -0.7078359
vn -0.9999672 -0.001104041 -0.008018605
vn -0.9999533 0.005660924 0.007836677
vn -0.9660791 -0.2581836 -0.005686457
vn -0.9461114 -0.228992 -0.2289889
vn -0.966079 -0.2581838 0.00568643
vn -0.9999673 -0.001104075 0.008009221
vn -0.8722153 0.004821184 0.4890984
vn -0.8663536 -0.0008370094 0.4994304
vn -0.9461095 -0.2290004 0.2289882
vn -0.7073922 0.003763966 0.7068112
vn -0.7076339 -0.0008318158 0.7065789
vn -0.4994843 -0.4994819 0.707837
vn -0.7078336 -0.4994816 0.4994894
vn -0.8722153 0.004821184 0.4890984
vn -0.6040084 0.345016 0.7184272
vn -0.7073922 0.003763966 0.7068112
vn -0.7569202 0.4357826 0.4869961
vn -0.3474172 0.6020312 0.7189296
vn -0.9999533 0.005660924 0.007836677
vn -0.4356846 0.7566479 0.4875066
vn -0.001137165 0.5142668 0.8576295
vn -0.8659998 0.4999828 0.007851962
vn -0.001984596 0.8706803 0.4918454
vn 0.001129843 0.5158457 0.8566807
vn -0.8660057 0.4999723 -0.007865691
vn -0.9999532 0.005660339 -0.007861969
vn -0.8714026 0.004814159 -0.4905451
vn -0.4999598 0.866013 0.007861867
vn 0.001986315 0.8712078 0.4909104
vn 0.3460193 0.6024842 0.7192243
vn -0.7565256 0.43563 -0.4877454
vn -0.7068498 0.003818464 -0.7073533
vn -0.6024679 0.3460021 -0.7192461
vn -0.4999709 0.8660065 -0.007866113
vn -0.4356361 0.7565217 -0.4877459
vn -0.3459993 0.6024777 -0.7192392
vn -0.002338225 0.9999661 0.007888089
vn -0.002338466 0.9999663 -0.007871829
vn -0.00198631 0.8712076 -0.4909108
vn -0.001129843 0.5158481 -0.8566794
vn 0.001562921 0.7066256 -0.7075859
vn 0.001139703 0.5142649 -0.8576307
vn 0.3451175 0.6023139 -0.7197999
vn 0.2634645 0.4576933 -0.849178
vn 0.7564511 0.4356062 -0.4878822
vn 0.4590095 0.2622867 -0.8488322
vn 0.002338466 0.9999663 0.007871831
vn 0.002338245 0.9999661 -0.007888205
vn 0.002248328 0.9658179 -0.259212
vn 0.4999651 0.8660097 -0.007880361
vn 0.4819609 0.8342719 -0.2677761
vn 0.8722066 0.004824914 -0.4891137
vn 0.7074033 0.003770888 -0.7068
vn 0.9999533 0.005661414 -0.007838467
vn 0.865999 0.4999837 -0.00787062
vn 0.4356293 0.7565261 0.4877454
vn 0.6024885 0.3460162 0.7192221
vn 0.4999759 0.8660036 0.007866732
vn 0.8660058 0.4999723 0.007867004
vn 0.999953 0.005660778 0.007865
vn 0.8714019 0.004814523 0.4905462
vn 0.7565244 0.435629 0.4877479
vn 0.7068996 0.003818855 0.7073035
vn -0.2582531 -0.9660605 0.005687053
vn -0.2290125 -0.9461005 0.2290129
vn -0.0003314039 -0.8660299 0.4999922
vn -0.0004391498 -0.9999677 0.008026184
vn -0.258253 -0.9660605 -0.005686889
vn -0.0004391496 -0.9999677 -0.008026183
vn 0.0004391496 -0.9999677 0.008026183
vn -0.0003313996 -0.8660299 -0.4999922
vn -0.2290107 -0.9461023 -0.229008
vn 0.0003313996 -0.8660299 0.4999922
vn -0.0003285618 -0.7071275 0.7070858
vn -0.4994762 -0.707844 0.4994801
vn -0.4994843 -0.4994819 0.707837
vn -0.7078336 -0.4994816 0.4994894
vn 0.0003285584 -0.7071275 0.7070858
vn -0.7070724 -0.7071158 0.005987652
vn -0.7070724 -0.7071158 0.005987569
vn -0.7070724 -0.7071158 -0.005987416
vn -0.7070724 -0.7071158 -0.005987499
vn -0.4994767 -0.7078453 -0.4994778
vn -0.7078356 -0.4994825 -0.4994859
vn -0.4994859 -0.4994819 -0.7078359
vn -0.0003285584 -0.7071275 -0.7070858
vn 0.4994994 -0.499473 0.7078327
vn 0.0003285618 -0.7071275 -0.7070858
vn 0.4994893 -0.7078411 0.4994712
vn 0.7078649 -0.49946 0.4994666
vn 0.866066 -0.4998932 0.006043096
vn 0.7071248 -0.7070634 0.005986752
vn 0.7071248 -0.7070633 -0.00598675
vn 0.8660661 -0.499893 -0.006043102
vn 0.7078651 -0.49946 -0.4994664
vn 0.4994896 -0.7078407 -0.4994714
vn 0.4994994 -0.4994733 -0.7078325
vn 0.0003314039 -0.8660299 -0.4999922
vn 0.0004391498 -0.9999677 -0.008026184
vn 0.2582531 -0.9660605 -0.005687053
vn 0.2290125 -0.9461005 -0.2290129
vn 0.258253 -0.9660605 0.005686889
vn 0.2290107 -0.9461023 0.229008
vn -0.0003116288 -0.258729 0.9659498
vn -0.2289942 -0.2289881 0.946111
vn -0.2590025 -0.0007899049 0.9658763
vn -0.0009040008 -0.002276785 0.999997
vn 0.0003116252 -0.258729 0.9659498
vn -0.1350028 0.00066349 0.990845
vn -0.2589256 0.001316896 0.9658964
vn -0.004163857 0.002347786 0.9999886
vn 0.0008790157 -0.002213642 0.9999971
vn -0.2180198 0.1243781 0.9679863
vn -0.001685725 0.002934732 0.9999943
vn -0.1237791 0.2179183 0.9680859
vn -4.786859E-06 0.002251844 0.9999975
vn -0.001137165 0.5142668 0.8576295
vn 1.745585E-05 0.008414031 0.9999646
vn 0.001129843 0.5158457 0.8566807
vn 0.0006957576 0.001221586 0.999999
vn 0.123977 0.2176785 0.9681146
vn 0.001046056 0.0005957663 0.9999993
vn 0.2176819 0.1239768 0.9681139
vn 0.00124317 6.272735E-06 0.9999993
vn 0.2586051 0.001304814 0.9659822
vn 0.2586874 -0.0007846698 0.9659607
vn 0.2289929 -0.2289868 0.9461116
vn -0.2586887 -0.0007846694 -0.9659604
vn -0.2289929 -0.2289868 -0.9461116
vn -0.0003116252 -0.258729 -0.9659498
vn -0.0008790205 -0.002213642 -0.9999971
vn -0.2586064 0.001304715 -0.9659819
vn 0.0009040007 -0.002276784 -0.999997
vn 0.0003116288 -0.258729 -0.9659498
vn -0.001243176 6.272106E-06 -0.9999993
vn 0.2590025 -0.0007899049 -0.9658763
vn -0.001046077 0.0005957792 -0.9999993
vn 0.2289942 -0.2289881 -0.946111
vn -0.2176816 0.1239769 -0.9681139
vn -0.1239765 0.2176803 -0.9681142
vn -0.000695739 0.001221576 -0.999999
vn -0.001129843 0.5158481 -0.8566794
vn -1.745587E-05 0.008414033 -0.9999646
vn 0.001139703 0.5142649 -0.8576307
vn 4.808646E-06 0.002252004 -0.9999975
vn 0.2634645 0.4576933 -0.849178
vn 0.001686778 0.002932343 -0.9999943
vn 0.4590095 0.2622867 -0.8488322
vn 0.00416118 0.002349674 -0.9999886
vn 0.2589156 0.001321303 -0.9658991
vn 0.1346864 0.0006650588 -0.9908881
g ENV_Door05_MO_0
f 3/3/3 2/2/2 1/1/1
f 4/4/4 3/3/3 1/1/1
f 5/5/5 3/3/3 4/4/4
f 4/4/4 1/1/1 6/6/6
f 1/1/1 7/7/7 6/6/6
f 8/8/8 5/5/5 4/4/4
f 9/9/9 5/5/5 8/8/8
f 8/8/8 4/4/4 10/10/10
f 4/4/4 11/11/11 10/10/10
f 10/10/10 12/12/12 8/8/8
f 13/13/13 9/9/9 8/8/8
f 12/12/12 13/13/13 8/8/8
f 14/14/14 9/9/9 13/13/13
f 13/13/13 12/12/12 15/15/15
f 15/15/15 14/14/14 13/13/13
f 12/12/12 16/16/16 15/15/15
f 17/17/17 14/14/14 15/15/15
f 18/18/18 17/17/17 15/15/15
f 18/18/18 15/15/15 19/19/19
f 15/15/15 20/20/20 19/19/19
f 23/23/23 22/22/22 21/21/21
f 24/24/24 23/23/23 21/21/21
f 25/25/25 23/23/23 24/24/24
f 24/24/24 21/21/21 26/26/26
f 21/21/21 27/27/27 26/26/26
f 28/28/28 25/25/25 24/24/24
f 29/29/29 25/25/25 28/28/28
f 28/28/28 24/24/24 30/30/30
f 24/24/24 31/31/31 30/30/30
f 28/28/28 30/30/30 32/32/32
f 33/33/33 29/29/29 28/28/28
f 33/33/33 28/28/28 32/32/32
f 34/34/34 29/29/29 33/33/33
f 33/33/33 32/32/32 35/35/35
f 35/35/35 34/34/34 33/33/33
f 32/32/32 36/36/36 35/35/35
f 37/37/37 34/34/34 35/35/35
f 38/38/38 37/37/37 35/35/35
f 38/38/38 35/35/35 39/39/39
f 35/35/35 40/40/40 39/39/39
f 43/43/43 42/42/42 41/41/41
f 42/42/42 44/44/44 41/41/41
f 42/42/42 45/45/45 44/44/44
f 41/41/41 44/44/44 46/46/46
f 45/45/45 47/47/47 44/44/44
f 47/47/47 45/45/45 48/48/48
f 44/44/44 49/49/49 46/46/46
f 44/44/44 47/47/47 49/49/49
f 50/50/50 47/47/47 48/48/48
f 48/48/48 51/51/51 50/50/50
f 49/49/49 52/52/52 46/46/46
f 52/52/52 53/53/53 46/46/46
f 53/53/53 52/52/52 54/54/54
f 47/47/47 55/55/55 49/49/49
f 55/55/55 47/47/47 50/50/50
f 51/51/51 56/56/56 50/50/50
f 51/51/51 57/57/57 56/56/56
f 52/52/52 58/58/58 54/54/54
f 54/54/54 58/58/58 59/59/59
f 58/58/58 60/60/60 59/59/59
f 61/61/61 52/52/52 49/49/49
f 52/52/52 61/61/61 58/58/58
f 55/55/55 61/61/61 49/49/49
f 58/58/58 62/62/62 60/60/60
f 61/61/61 62/62/62 58/58/58
f 62/62/62 63/63/63 60/60/60
f 64/64/64 55/55/55 50/50/50
f 50/50/50 56/56/56 64/64/64
f 65/65/65 61/61/61 55/55/55
f 62/62/62 61/61/61 65/65/65
f 64/64/64 65/65/65 55/55/55
f 63/63/63 62/62/62 66/66/66
f 66/66/66 62/62/62 65/65/65
f 67/67/67 63/63/63 66/66/66
f 66/66/66 68/68/68 67/67/67
f 68/68/68 69/69/69 67/67/67
f 68/68/68 70/70/70 69/69/69
f 70/70/70 71/71/71 69/69/69
f 70/70/70 72/72/72 71/71/71
f 72/72/72 73/73/73 71/71/71
f 56/56/56 74/74/74 64/64/64
f 64/64/64 74/74/74 65/65/65
f 65/65/65 75/75/75 66/66/66
f 74/74/74 75/75/75 65/65/65
f 75/75/75 76/76/76 66/66/66
f 75/75/75 77/77/77 76/76/76
f 77/77/77 75/75/75 74/74/74
f 77/77/77 78/78/78 76/76/76
f 73/73/73 72/72/72 79/79/79
f 80/80/80 73/73/73 79/79/79
f 79/79/79 72/72/72 81/81/81
f 82/82/82 72/72/72 78/78/78
f 77/77/77 82/82/82 78/78/78
f 72/72/72 82/82/82 81/81/81
f 56/56/56 83/83/83 74/74/74
f 57/57/57 83/83/83 56/56/56
f 57/57/57 84/84/84 83/83/83
f 85/85/85 77/77/77 74/74/74
f 82/82/82 77/77/77 85/85/85
f 83/83/83 85/85/85 74/74/74
f 81/81/81 82/82/82 86/86/86
f 86/86/86 82/82/82 85/85/85
f 87/87/87 81/81/81 86/86/86
f 87/87/87 86/86/86 88/88/88
f 84/84/84 89/89/89 83/83/83
f 83/83/83 89/89/89 85/85/85
f 89/89/89 86/86/86 85/85/85
f 86/86/86 89/89/89 88/88/88
f 89/89/89 84/84/84 90/90/90
f 88/88/88 89/89/89 90/90/90
f 93/93/93 92/92/92 91/91/91
f 94/94/94 93/93/93 91/91/91
f 91/91/91 95/95/95 94/94/94
f 95/95/95 96/96/96 94/94/94
f 94/94/94 97/97/97 93/93/93
f 97/97/97 94/94/94 96/96/96
f 96/96/96 95/95/95 98/98/98
f 95/95/95 99/99/99 98/98/98
f 97/97/97 100/100/100 93/93/93
f 93/93/93 100/100/100 101/101/101
f 93/93/93 101/101/101 102/102/102
f 101/101/101 103/103/103 102/102/102
f 102/102/102 103/103/103 104/104/104
f 100/100/100 105/105/105 101/101/101
f 106/106/106 102/102/102 104/104/104
f 107/107/107 106/106/106 104/104/104
f 107/107/107 108/108/108 106/106/106
f 108/108/108 109/109/109 106/106/106
f 109/109/109 108/108/108 110/110/110
f 108/108/108 111/111/111 110/110/110
f 112/112/112 110/110/110 111/111/111
f 98/98/98 110/110/110 112/112/112
f 113/113/113 98/98/98 112/112/112
f 105/105/105 100/100/100 114/114/114
f 113/113/113 115/115/115 98/98/98
f 100/100/100 116/116/116 114/114/114
f 117/117/117 114/114/114 116/116/116
f 118/118/118 117/117/117 116/116/116
f 119/119/119 118/118/118 116/116/116
f 119/119/119 120/120/120 118/118/118
f 120/120/120 121/121/121 118/118/118
f 121/121/121 120/120/120 122/122/122
f 120/120/120 123/123/123 122/122/122
f 122/122/122 123/123/123 124/124/124
f 115/115/115 124/124/124 123/123/123
f 125/125/125 115/115/115 123/123/123
f 115/115/115 125/125/125 98/98/98
f 98/98/98 125/125/125 96/96/96
f 125/125/125 126/126/126 96/96/96
f 126/126/126 97/97/97 96/96/96
f 126/126/126 125/125/125 127/127/127
f 125/125/125 128/128/128 127/127/127
f 126/126/126 127/127/127 129/129/129
f 97/97/97 126/126/126 129/129/129
f 97/97/97 129/129/129 100/100/100
f 129/129/129 130/130/130 100/100/100
f 133/133/133 132/132/132 131/131/131
f 134/134/134 133/133/133 131/131/131
f 131/131/131 135/135/135 134/134/134
f 134/134/134 136/136/136 133/133/133
f 136/136/136 137/137/137 133/133/133
f 136/136/136 134/134/134 138/138/138
f 136/136/136 138/138/138 137/137/137
f 135/135/135 139/139/139 134/134/134
f 138/138/138 140/140/140 137/137/137
f 138/138/138 141/141/141 140/140/140
f 138/138/138 134/134/134 141/141/141
f 141/141/141 142/142/142 140/140/140
f 142/142/142 141/141/141 143/143/143
f 141/141/141 134/134/134 143/143/143
f 144/144/144 142/142/142 143/143/143
f 143/143/143 145/145/145 144/144/144
f 143/143/143 134/134/134 145/145/145
f 145/145/145 146/146/146 144/144/144
f 145/145/145 147/147/147 146/146/146
f 145/145/145 134/134/134 147/147/147
f 147/147/147 148/148/148 146/146/146
f 147/147/147 149/149/149 148/148/148
f 147/147/147 134/134/134 149/149/149
f 149/149/149 150/150/150 148/148/148
f 149/149/149 134/134/134 151/151/151
f 150/150/150 149/149/149 151/151/151
f 152/152/152 150/150/150 151/151/151
f 151/151/151 134/134/134 139/139/139
f 152/152/152 151/151/151 139/139/139
f 153/153/153 152/152/152 139/139/139
f 139/139/139 135/135/135 153/153/153
f 135/135/135 154/154/154 153/153/153
f 157/157/157 156/156/156 155/155/155
f 158/158/158 157/157/157 155/155/155
f 155/155/155 159/159/159 158/158/158
f 158/158/158 160/160/160 157/157/157
f 160/160/160 161/161/161 157/157/157
f 159/159/159 162/162/162 158/158/158
f 162/162/162 160/160/160 158/158/158
f 160/160/160 163/163/163 161/161/161
f 164/164/164 160/160/160 162/162/162
f 163/163/163 165/165/165 161/161/161
f 159/159/159 166/166/166 162/162/162
f 166/166/166 164/164/164 162/162/162
f 166/166/166 167/167/167 164/164/164
f 167/167/167 168/168/168 164/164/164
f 168/168/168 160/160/160 164/164/164
f 168/168/168 167/167/167 169/169/169
f 170/170/170 168/168/168 169/169/169
f 170/170/170 160/160/160 168/168/168
f 169/169/169 171/171/171 170/170/170
f 171/171/171 172/172/172 170/170/170
f 172/172/172 160/160/160 170/170/170
f 171/171/171 173/173/173 172/172/172
f 173/173/173 174/174/174 172/172/172
f 174/174/174 160/160/160 172/172/172
f 173/173/173 175/175/175 174/174/174
f 175/175/175 176/176/176 174/174/174
f 176/176/176 160/160/160 174/174/174
f 176/176/176 175/175/175 177/177/177
f 160/160/160 176/176/176 178/178/178
f 178/178/178 176/176/176 177/177/177
f 160/160/160 178/178/178 163/163/163
f 178/178/178 177/177/177 163/163/163
