g ENV_PL_Rotating01_MO
v -2.5 0 5
v -2.5 1 5
v 2.5 1 5
v 2.5 0 5
v -2.5 1 5
v -2.5 1 -5
v 2.5 1 -5
v 2.5 1 5
v -2.5 1 -5
v -2.5 0 -5
v 2.5 0 -5
v 2.5 1 -5
v -2.5 0 -5
v -2.5 0 5
v 2.5 0 5
v 2.5 0 -5
v 2.5 0 5
v 2.5 1 5
v 2.5 1 -5
v 2.5 0 -5
v -2.5 0 -5
v -2.5 1 -5
v -2.5 1 5
v -2.5 0 5
vt -4 2.349045E-07
vt -4 1
vt 1 1
vt 1 2.286792E-07
vt -4 -8.999999
vt -4 0.9999999
vt 1 0.9999999
vt 1 -8.999999
vt -4 6.629815E-09
vt -4 1
vt 1 1
vt 1 0
vt -4 1.245058E-08
vt -4 10
vt 1 10
vt 1 0
vt -9.000001 1.245058E-08
vt -9.000001 1
vt 1 1
vt 1 0
vt -1.735174E-08 1.245058E-08
vt -1.735174E-08 1
vt 10 1
vt 10 1.122529E-08
vn 0 0 1
vn 0 0 1
vn 0 0 1
vn 0 0 1
vn 0 1 0
vn 0 1 0
vn 0 1 0
vn 0 1 0
vn 0 0 -1
vn 0 0 -1
vn 0 0 -1
vn 0 0 -1
vn 0 -1 0
vn 0 -1 0
vn 0 -1 0
vn 0 -1 0
vn 1 0 0
vn 1 0 0
vn 1 0 0
vn 1 0 0
vn -1 0 0
vn -1 0 0
vn -1 0 0
vn -1 0 0
g ENV_PL_Rotating01_MO_0
f 3/3/3 2/2/2 1/1/1
f 4/4/4 3/3/3 1/1/1
f 7/7/7 6/6/6 5/5/5
f 8/8/8 7/7/7 5/5/5
f 11/11/11 10/10/10 9/9/9
f 12/12/12 11/11/11 9/9/9
f 15/15/15 14/14/14 13/13/13
f 16/16/16 15/15/15 13/13/13
f 19/19/19 18/18/18 17/17/17
f 20/20/20 19/19/19 17/17/17
f 23/23/23 22/22/22 21/21/21
f 24/24/24 23/23/23 21/21/21
