g ENV_BLO_Trip_14
v 6.999473 0.7167282 0.986007
v -6.994694 0.746722 0.9494234
v 6.999473 0.746722 0.9494234
v -6.994694 0.7167282 0.986007
v -6.994694 0.6467322 1
v 6.999473 0.6467322 1
v -6.994694 0.06241507 1
v 6.999473 0.06241507 1
v 6.999473 0.01651188 0.9809863
v -6.994694 0.01651188 0.9809863
v 6.999473 -0.002501845 0.9350831
v -6.994694 -0.002501845 0.9350831
v 6.999473 0.746722 -0.9494234
v -6.994694 0.746722 -0.9494234
v -6.994694 0.7167282 -0.986007
v 6.999473 0.7167282 -0.986007
v 6.999473 0.6467322 -1
v -6.994694 0.6467322 -1
v -6.994694 0.06241507 -1
v 6.999473 0.06241507 -1
v -6.994694 0.01651188 -0.9809863
v 6.999473 0.01651188 -0.9809863
v -6.994694 -0.002501845 -0.9350831
v 6.999473 -0.002501845 -0.9350831
v 6.999473 -0.002501845 0.9350831
v -6.994694 -0.002501845 0.9350831
vt 1.187147 0.5118591
vt 0.7519947 0.5136116
vt 1.187146 0.5133301
vt 0.7520354 0.511269
vt 0.7520388 0.5090495
vt 1.187149 0.5096398
vt 0.7520655 0.4908817
vt 1.187165 0.4914734
vt 1.187167 0.4899287
vt 0.7520679 0.4893369
vt 1.187169 0.488384
vt 0.7520702 0.4877922
vt 1.187119 0.5723627
vt 0.7520365 0.5726302
vt 0.7520375 0.5741007
vt 1.187118 0.5738331
vt 1.187118 0.5760515
vt 0.7520386 0.5763195
vt 0.7520499 0.5944859
vt 1.187118 0.5942105
vt 0.7520508 0.5960305
vt 1.187118 0.5957546
vt 0.7520519 0.5975751
vt 1.187119 0.5972992
vt 1.187144 0.6554418
vt 0.7520902 0.6557094
vn 0 0.4513621 0.892341
vn 0 0.99988 0.01549535
vn 0 0.99988 0.01549535
vn 0 0.4513621 0.892341
vn 0 0.02138084 0.9997714
vn 0 0.02138084 0.9997714
vn 0 -0.0301562 0.9995452
vn 0 -0.0301562 0.9995452
vn 0 -0.7071068 0.7071068
vn 0 -0.7071068 0.7071068
vn 0 -0.9999508 0.009922807
vn 0 -0.9999508 0.009922807
vn 0 0.99988 -0.01549535
vn 0 0.99988 -0.01549535
vn 0 0.4513621 -0.892341
vn 0 0.4513621 -0.892341
vn 0 0.02138084 -0.9997714
vn 0 0.02138084 -0.9997714
vn 0 -0.0301562 -0.9995452
vn 0 -0.0301562 -0.9995452
vn 0 -0.7071068 -0.7071068
vn 0 -0.7071068 -0.7071068
vn 0 -0.9999508 -0.009922807
vn 0 -0.9999508 -0.009922807
vn 0 -0.9999508 0.009922807
vn 0 -0.9999508 0.009922807
g ENV_BLO_Trip_14_0
f 3/3/3 2/2/2 1/1/1
f 2/2/2 4/4/4 1/1/1
f 4/4/4 5/5/5 1/1/1
f 5/5/5 6/6/6 1/1/1
f 5/5/5 7/7/7 6/6/6
f 7/7/7 8/8/8 6/6/6
f 8/8/8 7/7/7 9/9/9
f 7/7/7 10/10/10 9/9/9
f 9/9/9 10/10/10 11/11/11
f 10/10/10 12/12/12 11/11/11
f 15/15/15 14/14/14 13/13/13
f 16/16/16 15/15/15 13/13/13
f 15/15/15 16/16/16 17/17/17
f 18/18/18 15/15/15 17/17/17
f 19/19/19 18/18/18 17/17/17
f 20/20/20 19/19/19 17/17/17
f 21/21/21 19/19/19 20/20/20
f 22/22/22 21/21/21 20/20/20
f 23/23/23 21/21/21 22/22/22
f 24/24/24 23/23/23 22/22/22
f 23/23/23 24/24/24 25/25/25
f 26/26/26 23/23/23 25/25/25
g ENV_BLO_Trip_14_1
f 2/2/2 3/3/3 13/13/13
f 14/14/14 2/2/2 13/13/13
