g ENV_inflatedWall05_Col
v 3.461863 6.301879 -37.12812
v 1.640532 6.294437 -39.29458
v 1.64026 -1.007393 -39.29491
v 3.461373 -1.023218 -37.12806
v 3.461373 -1.023218 -37.12806
v 4.437202 -1.050751 -34.52286
v 4.421228 6.299349 -34.51465
v 3.461863 6.301879 -37.12812
v -0.8190291 6.288038 -40.70886
v -3.075409 6.27576 -41.03289
v -3.069481 -1.02808 -41.03003
v -0.8147998 -1.02106 -40.70949
v 0.6050639 6.295157 -38.33322
v 2.366749 6.307559 -36.28249
v 2.34328 -1.023764 -36.26996
v 0.5863549 -1.007195 -38.30415
v 2.34328 -1.023764 -36.26996
v 2.366749 6.307559 -36.28249
v 3.432274 6.3087 -33.53753
v 3.407383 -1.051719 -33.53122
v 4.421228 6.299349 -34.51465
v 4.560606 6.294711 -31.89148
v 3.406539 6.294686 -31.8761
v 3.432274 6.3087 -33.53753
v 3.432274 6.3087 -33.53753
v 3.461863 6.301879 -37.12812
v 2.366749 6.307559 -36.28249
v 1.640532 6.294437 -39.29458
v 0.6050639 6.295157 -38.33322
v -0.8190291 6.288038 -40.70886
v -1.865731 6.288931 -39.73335
v -3.075409 6.27576 -41.03289
v -1.865731 6.288931 -39.73335
v -3.312505 6.280472 -39.99487
v -3.312505 6.280472 -39.99487
v -1.865731 6.288931 -39.73335
v -1.867136 -1.020936 -39.72968
v -3.308954 -1.02808 -39.99481
v 3.428718 6.271989 43.47143
v 3.406539 6.294686 -31.8761
v 4.560606 6.294711 -31.89148
v 4.478226 6.276677 43.46725
v -0.8147998 -1.02106 -40.70949
v 1.64026 -1.007393 -39.29491
v 1.640532 6.294437 -39.29458
v -0.8190291 6.288038 -40.70886
v -1.865731 6.288931 -39.73335
v 0.6050639 6.295157 -38.33322
v 0.5863549 -1.007195 -38.30415
v -1.867136 -1.020936 -39.72968
v 3.428718 6.271989 43.47143
v 3.399008 -1.031875 43.46878
v 3.417125 -1.005458 -31.86913
v 3.406539 6.294686 -31.8761
v 4.536086 -1.031875 43.46878
v 4.478226 6.276677 43.46725
v 4.560606 6.294711 -31.89148
v 4.563213 -1.005458 -31.86913
v 4.421228 6.299349 -34.51465
v 4.437202 -1.050751 -34.52286
v 4.563213 -1.005458 -31.86913
v 4.560606 6.294711 -31.89148
v 3.407383 -1.051719 -33.53122
v 3.432274 6.3087 -33.53753
v 3.406539 6.294686 -31.8761
v 3.417125 -1.005458 -31.86913
v 4.536086 -1.031875 43.46878
v 3.399008 -1.031875 43.46878
v 3.428718 6.271989 43.47143
v 4.478226 6.276677 43.46725
v -3.069481 -1.02808 -41.03003
v -3.075409 6.27576 -41.03289
v -3.312505 6.280472 -39.99487
v -3.308954 -1.02808 -39.99481
vt 0.876182 0.4342851
vt 0.8761229 0.4506516
vt 0.700503 0.429143
vt 0.6999592 0.4454767
vt 0.6999592 0.4454767
vt 0.6986913 0.4630765
vt 0.8763385 0.4165857
vt 0.876182 0.4342851
vt 0.8761615 0.4656852
vt 0.8763068 0.495475
vt 0.6998295 0.3845938
vt 0.7003227 0.4140755
vt 0.8685122 0.4505374
vt 0.8685411 0.4341914
vt 0.7917112 0.4342234
vt 0.7921113 0.4505219
vt 0.7917112 0.4342234
vt 0.8685411 0.4341914
vt 0.8682963 0.4165828
vt 0.7906088 0.4166354
vt 0.8763385 0.4165857
vt 0.08698047 0.01527961
vt 0.09462838 0.01597407
vt 0.8682963 0.4165828
vt 0.8682963 0.4165828
vt 0.876182 0.4342851
vt 0.8685411 0.4341914
vt 0.8761229 0.4506516
vt 0.8685122 0.4505374
vt 0.8761615 0.4656852
vt 0.8682095 0.4656206
vt 0.8763068 0.495475
vt 0.8682095 0.4656206
vt 0.8687558 0.4959791
vt 0.8687558 0.4959791
vt 0.8682095 0.4656206
vt 0.7918088 0.4655307
vt 0.7910236 0.4949356
vt 0.4990793 0.8505526
vt 0.09462838 0.01597407
vt 0.08698047 0.01527961
vt 0.4916566 0.8505798
vt 0.7003227 0.4140755
vt 0.700503 0.429143
vt 0.8761229 0.4506516
vt 0.8761615 0.4656852
vt 0.8682095 0.4656206
vt 0.8685122 0.4505374
vt 0.7921113 0.4505219
vt 0.7918088 0.4655307
vt 0.4990793 0.8505526
vt 0.5265373 0.01427527
vt 0.2257707 0.9841242
vt 0.09462838 0.01597407
vt 0.4142104 0.8503522
vt 0.4916566 0.8505798
vt 0.08698047 0.01527961
vt 0.008350319 0.01611538
vt 0.8763385 0.4165857
vt 0.6986913 0.4630765
vt 0.008350319 0.01611538
vt 0.08698047 0.01527961
vt 0.7906088 0.4166354
vt 0.8682963 0.4165828
vt 0.09462838 0.01597407
vt 0.2257707 0.9841242
vt 1.043745 0.2947492
vt 1.047759 0.09057298
vt -0.2538604 0.08744551
vt -0.2574053 0.2254365
vt -0.0468698 0.290376
vt 1.259578 0.2567168
vt 1.259606 0.1163206
vt -0.04886187 0.08862933
vn 0.7654903 -2.832496E-05 -0.6434475
vn 0.7654903 -2.832496E-05 -0.6434475
vn 0.7654902 -2.832495E-05 -0.6434476
vn 0.7654902 -2.832495E-05 -0.6434475
vn 0.9376125 0.001182138 -0.3476799
vn 0.9376125 0.001182138 -0.3476799
vn 0.9376125 0.001182138 -0.3476799
vn 0.9376125 0.001182138 -0.3476799
vn 0.1414498 -5.249137E-05 -0.9899455
vn 0.1414498 -5.249137E-05 -0.9899455
vn 0.1414498 -5.249137E-05 -0.9899455
vn 0.1414498 -5.249136E-05 -0.9899455
vn -0.757665 0.004039459 0.6526313
vn -0.757665 0.004039459 0.6526313
vn -0.757665 0.004039459 0.6526313
vn -0.757665 0.004039459 0.6526313
vn -0.9321609 0.003532942 0.3620272
vn -0.9321609 0.003532942 0.3620272
vn -0.9321609 0.003532942 0.3620272
vn -0.9321609 0.003532942 0.3620272
vn 0.005591291 0.9999827 -0.001853661
vn 0.006290911 0.9999715 0.004186269
vn 0.006290912 0.9999715 0.004186269
vn 0.006290912 0.9999715 0.004186269
vn 0.005591291 0.9999827 -0.001853661
vn -0.000573684 0.9999909 -0.004217993
vn -0.0005736841 0.9999909 -0.004217993
vn -0.000573684 0.9999909 -0.004217993
vn -0.000573684 0.9999909 -0.004217993
vn -0.004686862 0.9999723 -0.005772285
vn -0.001292469 0.9999968 -0.002221856
vn -0.004686863 0.9999723 -0.005772286
vn -0.004686862 0.9999723 -0.005772286
vn -0.004686863 0.9999723 -0.005772286
vn -0.1793671 0.000225111 0.9837821
vn -0.1793671 0.000225111 0.9837821
vn -0.1793671 0.000225111 0.9837821
vn -0.1793671 0.000225111 0.9837821
vn -0.002136177 0.9999977 0.00026941
vn -0.002136177 0.9999977 0.00026941
vn -0.002136177 0.9999977 0.00026941
vn -0.002136177 0.9999977 0.0002694099
vn 0.498863 0.0001920975 -0.8666808
vn 0.498863 0.0001920975 -0.8666808
vn 0.498863 0.0001920975 -0.8666808
vn 0.498863 0.0001920975 -0.8666808
vn -0.4977077 0.002628942 0.8673408
vn -0.4977077 0.002628942 0.8673408
vn -0.4977077 0.002628942 0.8673409
vn -0.4977077 0.002628942 0.8673408
vn -0.9999992 0.001309539 2.738208E-05
vn -0.9999992 0.001309539 2.738208E-05
vn -0.9999992 0.001309539 2.738208E-05
vn -0.9999992 0.001309539 2.738208E-05
vn 0.9999912 0.004140299 0.0007278832
vn 0.9999912 0.004140299 0.0007278832
vn 0.9999912 0.004140299 0.0007278833
vn 0.9999912 0.004140299 0.0007278832
vn 0.9987366 0.001218252 -0.05023833
vn 0.9987366 0.001218252 -0.05023834
vn 0.9987366 0.001218252 -0.05023833
vn 0.9987366 0.001218252 -0.05023833
vn -0.999988 0.0009714403 -0.004821384
vn -0.999988 0.0009714402 -0.004821384
vn -0.999988 0.0009714402 -0.004821383
vn -0.999988 0.0009714402 -0.004821384
vn 0.001908784 -7.228613E-05 0.9999982
vn 0.001908784 -7.228614E-05 0.9999982
vn 0.001908784 -7.228613E-05 0.9999982
vn 0.001908784 -7.228613E-05 0.9999982
vn -0.9745837 -0.0006769531 -0.2240226
vn -0.9745837 -0.0006769531 -0.2240226
vn -0.9745837 -0.0006769531 -0.2240226
vn -0.9745837 -0.0006769531 -0.2240226
g ENV_inflatedWall05_Col_0
f 3/3/3 2/2/2 1/1/1
f 4/4/4 3/3/3 1/1/1
f 7/7/7 6/6/6 5/5/5
f 8/8/8 7/7/7 5/5/5
f 11/11/11 10/10/10 9/9/9
f 12/12/12 11/11/11 9/9/9
f 15/15/15 14/14/14 13/13/13
f 16/16/16 15/15/15 13/13/13
f 19/19/19 18/18/18 17/17/17
f 20/20/20 19/19/19 17/17/17
f 23/23/23 22/22/22 21/21/21
f 24/24/24 23/23/23 21/21/21
f 21/21/21 26/26/26 25/25/25
f 26/26/26 27/27/27 25/25/25
f 27/27/27 26/26/26 28/28/28
f 29/29/29 27/27/27 28/28/28
f 29/29/29 28/28/28 30/30/30
f 31/31/31 29/29/29 30/30/30
f 33/33/33 30/30/30 32/32/32
f 34/34/34 33/33/33 32/32/32
f 37/37/37 36/36/36 35/35/35
f 38/38/38 37/37/37 35/35/35
f 41/41/41 40/40/40 39/39/39
f 42/42/42 41/41/41 39/39/39
f 45/45/45 44/44/44 43/43/43
f 46/46/46 45/45/45 43/43/43
f 49/49/49 48/48/48 47/47/47
f 50/50/50 49/49/49 47/47/47
f 53/53/53 52/52/52 51/51/51
f 54/54/54 53/53/53 51/51/51
f 57/57/57 56/56/56 55/55/55
f 58/58/58 57/57/57 55/55/55
f 61/61/61 60/60/60 59/59/59
f 62/62/62 61/61/61 59/59/59
f 65/65/65 64/64/64 63/63/63
f 66/66/66 65/65/65 63/63/63
f 69/69/69 68/68/68 67/67/67
f 70/70/70 69/69/69 67/67/67
f 73/73/73 72/72/72 71/71/71
f 74/74/74 73/73/73 71/71/71
