g ENV_Door04_MO
v 4.146118 -2.903843 0.419331
v 4.146118 2.705251 0.419331
v 4.163249 2.707507 0.4022021
v 4.163249 -2.903843 0.4022021
v 4.169521 2.708332 0.3787939
v 4.159731 -2.924068 0.3990186
v 4.14294 -2.924068 0.4158154
v 4.169521 -2.903843 0.3787939
v 4.169521 2.708332 -0.3787939
v 4.163249 -2.927247 0.3787939
v 4.159731 -2.924068 0.3990186
v 4.163249 -2.927247 -0.3787939
v 4.169521 -2.903843 -0.3787939
v 4.163267 2.707426 -0.4021924
v 4.163249 -2.903843 -0.4021924
v 4.159731 -2.924068 -0.3990186
v 4.146179 2.704948 -0.419331
v 4.146118 -2.903843 -0.419331
v 4.14294 -2.924068 -0.4158057
v 4.159731 -2.924068 -0.3990186
v -4.146117 -2.903843 -0.419331
v -4.146117 2.705251 -0.419331
v -4.163249 2.707507 -0.4021924
v -4.163249 -2.903843 -0.4021924
v -4.16952 2.708332 -0.3787939
v -4.159729 -2.924068 -0.3990186
v -4.142937 -2.924068 -0.4158057
v -4.16952 -2.903843 -0.3787939
v -4.16952 2.708332 0.3787842
v -4.163249 -2.927247 -0.3787939
v -4.159729 -2.924068 -0.3990186
v -4.163249 -2.927247 0.3787939
v -4.16952 -2.903843 0.3787939
v -4.163265 2.707426 0.4021924
v -4.163249 -2.903843 0.4022021
v -4.159729 -2.924068 0.3990186
v -4.146178 2.704948 0.419331
v -4.146117 -2.903843 0.419331
v -4.142937 -2.924068 0.4158154
v -4.159729 -2.924068 0.3990186
v -4.163265 2.707426 0.4021924
v -4.116264 2.817128 0.419331
v -4.146178 2.704948 0.419331
v -4.131485 2.82618 0.4021924
v -4.036534 2.897087 0.419331
v -4.16952 2.708332 0.3787842
v -4.045192 2.912534 0.4021924
v -3.924418 2.927189 0.419331
v -4.137055 2.829492 0.3787842
v -3.926455 2.944365 0.4021924
v 3.924121 2.927248 0.419331
v -4.137055 2.829492 -0.3787939
v -4.16952 2.708332 -0.3787939
v -4.163249 2.707507 -0.4021924
v -4.04836 2.918188 0.3787842
v 3.926377 2.944381 0.4022021
v 4.036247 2.897204 0.419331
v -4.131433 2.826246 -0.4021924
v -4.146117 2.705251 -0.419331
v -4.116073 2.817377 -0.419331
v -4.04836 2.918188 -0.3787939
v -4.045115 2.912565 -0.4021924
v -4.036246 2.897204 -0.419331
v -3.927201 2.950651 0.3787842
v -3.927201 2.950651 -0.3787939
v -3.926376 2.944381 -0.4021924
v -3.92412 2.927248 -0.419331
v 3.926457 2.944365 -0.4021924
v 3.924421 2.927189 -0.419331
v 4.045183 2.912514 -0.4021924
v 4.036497 2.897013 -0.419331
v 4.131465 2.826169 -0.4021924
v 4.116194 2.817087 -0.419331
v 3.927202 2.950651 0.3787939
v 3.927202 2.950651 -0.3787939
v 3.926457 2.944365 -0.4021924
v 4.048362 2.918188 -0.3787939
v 4.045183 2.912514 -0.4021924
v 4.163267 2.707426 -0.4021924
v 4.146179 2.704948 -0.419331
v 4.169521 2.708332 -0.3787939
v 4.137055 2.829492 -0.3787939
v 4.045115 2.912565 0.4022021
v 4.116072 2.817377 0.419331
v 4.048362 2.918188 0.3787939
v 4.137055 2.829492 0.3787939
v 4.169521 2.708332 0.3787939
v 4.163249 2.707507 0.4022021
v 4.131433 2.826246 0.4022021
v 4.146118 2.705251 0.419331
v -4.146117 -2.944381 0.3787939
v -4.142937 -2.94086 0.3990186
v -4.122712 -2.944381 0.4022021
v -4.122712 -2.950651 0.3787939
v -4.146117 -2.944381 -0.3787939
v -4.122712 -2.950651 -0.3787939
v 4.122715 -2.950651 0.3787939
v -4.122712 -2.944381 -0.4021924
v -4.142937 -2.94086 -0.3990186
v 4.122715 -2.944381 0.4022021
v -4.122712 -2.927247 0.419331
v -4.142937 -2.94086 0.3990186
v -4.142937 -2.924068 0.4158154
v -4.159729 -2.924068 0.3990186
v 4.122715 -2.927247 0.419331
v -4.146117 -2.944381 0.3787939
v -4.163249 -2.927247 0.3787939
v -4.163249 -2.927247 -0.3787939
v -4.146117 -2.944381 -0.3787939
v -4.142937 -2.94086 -0.3990186
v -4.159729 -2.924068 -0.3990186
v -4.142937 -2.924068 -0.4158057
v -4.122712 -2.927247 -0.419331
v 4.14294 -2.924068 0.4158154
v 4.122715 -2.927247 -0.419331
v 4.14294 -2.94086 0.3990186
v 4.159731 -2.924068 0.3990186
v 4.163249 -2.927247 0.3787939
v 4.146118 -2.944381 0.3787939
v 4.146118 -2.944381 -0.3787939
v 4.163249 -2.927247 -0.3787939
v 4.159731 -2.924068 -0.3990186
v 4.14294 -2.94086 -0.3990186
v 4.14294 -2.924068 -0.4158057
v 4.122715 -2.944381 -0.4021924
v 4.122715 -2.950651 -0.3787939
v 4.146118 -2.944381 -0.3787939
v 4.14294 -2.94086 -0.3990186
v 4.146118 -2.944381 0.3787939
v 4.14294 -2.94086 0.3990186
v -4.122712 -2.927247 0.419331
v -4.142937 -2.924068 0.4158154
v -4.146117 -2.903843 0.419331
v -4.122712 -2.903843 0.4256006
v 4.122715 -2.927247 0.419331
v -4.122836 2.701563 0.4256006
v 4.122715 -2.903843 0.4256006
v -4.146178 2.704948 0.419331
v -4.095474 2.804766 0.4256006
v -4.116264 2.817128 0.419331
v -4.024708 2.875986 0.4256006
v -4.036534 2.897087 0.419331
v -3.921636 2.903727 0.4256006
v -3.924418 2.927189 0.419331
v 3.92104 2.903845 0.4256006
v 3.924121 2.927248 0.419331
v 4.024133 2.87622 0.4256006
v 4.036247 2.897204 0.419331
v 4.095088 2.805263 0.4256006
v 4.116072 2.817377 0.419331
v 4.122715 2.70217 0.4256006
v 4.146118 2.705251 0.419331
v 4.146118 -2.903843 0.419331
v 4.14294 -2.924068 0.4158154
v -4.146117 -2.903843 -0.419331
v -4.142937 -2.924068 -0.4158057
v -4.122712 -2.927247 -0.419331
v -4.122712 -2.903843 -0.4256006
v -4.146117 2.705251 -0.419331
v 4.122715 -2.903843 -0.4256006
v -4.122712 2.70217 -0.4256006
v -4.116073 2.817377 -0.419331
v 4.122715 -2.927247 -0.419331
v -4.095089 2.805263 -0.4256006
v -4.036246 2.897204 -0.419331
v -4.024131 2.87622 -0.4256006
v -3.92412 2.927248 -0.419331
v -3.921039 2.903845 -0.4256006
v 3.924421 2.927189 -0.419331
v 3.921638 2.903727 -0.4256006
v 4.036497 2.897013 -0.419331
v 4.024629 2.87584 -0.4256006
v 4.116194 2.817087 -0.419331
v 4.095329 2.804682 -0.4256006
v 4.146179 2.704948 -0.419331
v 4.122837 2.701563 -0.4256006
v 4.146118 -2.903843 -0.419331
v 4.14294 -2.924068 -0.4158057
vt 0.4751783 0.6818669
vt 0.04913858 0.6818629
vt 0.04913858 0.6836852
vt 0.4741766 0.6836852
vt 0.04913858 0.6855006
vt 0.4768013 0.6837226
vt 0.4768013 0.6818669
vt 0.4731653 0.6855046
vt 0.0491381 0.744378
vt 0.4768013 0.6853457
vt 0.4768013 0.6837226
vt 0.4768008 0.7445415
vt 0.4731648 0.7443826
vt 0.0491381 0.7461938
vt 0.4741761 0.7462017
vt 0.4768008 0.7461647
vt 0.04913804 0.7480161
vt 0.4751777 0.7480202
vt 0.4768008 0.7480202
vt 0.4768008 0.7461647
vt 0.05043378 0.6703122
vt 0.4764736 0.6703159
vt 0.4764736 0.6684936
vt 0.05143704 0.6684912
vt 0.4764736 0.6666782
vt 0.04881068 0.6684566
vt 0.04881068 0.6703122
vt 0.05244674 0.6666746
vt 0.4764741 0.6078007
vt 0.04881074 0.6668335
vt 0.04881068 0.6684566
vt 0.04881133 0.6076377
vt 0.05244734 0.6077967
vt 0.4764741 0.6059849
vt 0.0514362 0.6059775
vt 0.04881139 0.6060145
vt 0.4764741 0.6041626
vt 0.05043454 0.6041589
vt 0.04881139 0.6041589
vt 0.04881139 0.6060145
vt 0.04833657 0.4479033
vt 0.05775267 0.4460813
vt 0.04833657 0.4460811
vt 0.05775946 0.4479459
vt 0.06696004 0.4460813
vt 0.04833657 0.449719
vt 0.06696683 0.447946
vt 0.07637614 0.4460813
vt 0.05775267 0.4497193
vt 0.07632786 0.4478927
vt 0.6650668 0.4460813
vt 0.05775195 0.5085968
vt 0.04833609 0.5085968
vt 0.04833609 0.5104121
vt 0.06696004 0.4497191
vt 0.6651206 0.4478927
vt 0.6744832 0.4460813
vt 0.05775076 0.5103691
vt 0.04833597 0.5122344
vt 0.05775195 0.5122344
vt 0.0669598 0.5085968
vt 0.06695789 0.5103692
vt 0.0669598 0.5122344
vt 0.07637614 0.4497191
vt 0.07637614 0.5085966
vt 0.07632238 0.5104074
vt 0.07637614 0.5122345
vt 0.6651152 0.5104074
vt 0.6650668 0.5122345
vt 0.6744696 0.5103679
vt 0.6744829 0.5122345
vt 0.6832011 0.5103682
vt 0.6832011 0.5122346
vt 0.6650668 0.449719
vt 0.6650668 0.5085965
vt 0.6651152 0.5104074
vt 0.6744829 0.5085964
vt 0.6744696 0.5103679
vt 0.6926173 0.5104123
vt 0.6926173 0.5122345
vt 0.6926173 0.5085965
vt 0.6832012 0.5085965
vt 0.6744783 0.4479463
vt 0.6832017 0.4460813
vt 0.6744832 0.449719
vt 0.6832017 0.4497189
vt 0.6926178 0.4497191
vt 0.6926178 0.4479037
vt 0.6832098 0.4479468
vt 0.6926179 0.4460814
vt 0.05006075 0.5862529
vt 0.04965854 0.5877802
vt 0.05089003 0.5879977
vt 0.0518961 0.5861792
vt 0.05006075 0.5272278
vt 0.05189615 0.5273015
vt 0.6709763 0.5861793
vt 0.05089003 0.5254831
vt 0.04965866 0.5257005
vt 0.6719824 0.5879977
vt 0.04988146 0.5898169
vt 0.04965854 0.5877802
vt 0.0482583 0.5898169
vt 0.0482583 0.5879614
vt 0.6729909 0.589817
vt 0.05006075 0.5862529
vt 0.0482583 0.5863382
vt 0.04825833 0.5271425
vt 0.05006075 0.5272278
vt 0.04965866 0.5257005
vt 0.0482583 0.5255193
vt 0.0482583 0.5236638
vt 0.04988146 0.5236638
vt 0.674614 0.589817
vt 0.6729908 0.5236638
vt 0.6732138 0.5877803
vt 0.674614 0.5879614
vt 0.674614 0.5863382
vt 0.6728116 0.5862529
vt 0.6728116 0.5272278
vt 0.674614 0.5271425
vt 0.674614 0.5255193
vt 0.6732138 0.5257005
vt 0.674614 0.5236638
vt 0.6719824 0.5254831
vt 0.6709763 0.5273015
vt 0.6728116 0.5272278
vt 0.6732138 0.5257005
vt 0.6728116 0.5862529
vt 0.6732138 0.5877803
vt 0.09447041 0.009414807
vt 0.09301239 0.009643987
vt 0.09278315 0.01110201
vt 0.09447041 0.01110201
vt 0.6889009 0.009414807
vt 0.09446153 0.4152077
vt 0.6889009 0.01110201
vt 0.09277877 0.4154518
vt 0.09643412 0.422648
vt 0.09493527 0.4235392
vt 0.1015357 0.4277822
vt 0.1006832 0.4293035
vt 0.1089665 0.4297822
vt 0.1087659 0.4314737
vt 0.6743616 0.4297907
vt 0.6745839 0.4314779
vt 0.6817939 0.4277992
vt 0.6826672 0.4293119
vt 0.6869093 0.4226837
vt 0.6884219 0.423557
vt 0.6889009 0.4152515
vt 0.6905879 0.4154736
vt 0.6905879 0.01110201
vt 0.6903588 0.009643987
vt 0.09278315 0.01110201
vt 0.09301239 0.009643987
vt 0.09447041 0.009414807
vt 0.09447041 0.01110201
vt 0.09278315 0.4154736
vt 0.6889009 0.01110201
vt 0.09447041 0.4152515
vt 0.09494907 0.423557
vt 0.6889009 0.009414807
vt 0.09646183 0.4226837
vt 0.100704 0.4293119
vt 0.1015774 0.4277992
vt 0.1087874 0.4314779
vt 0.1090095 0.4297907
vt 0.6746054 0.4314737
vt 0.6744049 0.4297822
vt 0.6826851 0.4292982
vt 0.6818296 0.4277718
vt 0.6884308 0.4235361
vt 0.6869265 0.4226419
vt 0.6905925 0.4154518
vt 0.6889097 0.4152077
vt 0.6905879 0.01110201
vt 0.6903588 0.009643987
vn 0.707056 -0.0008269361 0.707157
vn 0.706799 0.003818257 0.7074041
vn 0.8714033 0.004814619 0.4905436
vn 0.8660577 -0.0008338732 0.4999434
vn 0.999953 0.005660755 0.007865072
vn 0.7078686 -0.4994884 0.4994331
vn 0.4995066 -0.4994877 0.7078172
vn 0.9999672 -0.001104478 0.008021642
vn 0.9999533 0.005661383 -0.007838687
vn 0.8660677 -0.4998901 0.006042928
vn 0.9461128 -0.2290095 0.2289653
vn 0.8660677 -0.4998903 -0.006042939
vn 0.9999673 -0.001104526 -0.00801079
vn 0.8721918 0.004824507 -0.4891402
vn 0.8663409 -0.0008373365 -0.4994524
vn 0.9461132 -0.22896 -0.2290134
vn 0.7074526 0.003770138 -0.7067506
vn 0.7077093 -0.0008319384 -0.7065033
vn 0.4994858 -0.4994635 -0.707849
vn 0.7078703 -0.4994331 -0.4994858
vn -0.707232 -0.0008267594 -0.7069811
vn -0.7069763 0.003819057 -0.707227
vn -0.8713995 0.00481438 -0.4905507
vn -0.8660577 -0.0008339215 -0.4999434
vn -0.999953 0.005660527 -0.007863638
vn -0.707838 -0.4994588 -0.499506
vn -0.4994693 -0.4994919 -0.7078406
vn -0.9999672 -0.001104268 -0.008020236
vn -0.9999533 0.005661112 0.007837658
vn -0.966062 -0.2582478 -0.005687211
vn -0.9461016 -0.2289816 -0.2290395
vn -0.9660617 -0.2582489 0.005687168
vn -0.9999673 -0.001104297 0.008009982
vn -0.8722283 0.004822118 0.4890753
vn -0.8663666 -0.0008369049 0.4994079
vn -0.9461007 -0.229034 0.2289913
vn -0.7073551 0.003764579 0.7068483
vn -0.7075964 -0.0008318537 0.7066163
vn -0.4994911 -0.4995132 0.7078101
vn -0.7078394 -0.4995076 0.4994552
vn -0.8722283 0.004822118 0.4890753
vn -0.6040058 0.3450099 0.7184325
vn -0.7073551 0.003764579 0.7068483
vn -0.7569436 0.435798 0.486946
vn -0.3474171 0.6020306 0.7189302
vn -0.9999533 0.005661112 0.007837658
vn -0.4356992 0.7566716 0.487457
vn -0.001980436 0.5142585 0.8576329
vn -0.8660006 0.4999814 0.007851629
vn -0.003454492 0.8706881 0.4918234
vn 0.00196689 0.515818 0.856696
vn -0.8660066 0.4999708 -0.007866168
vn -0.999953 0.005660527 -0.007863638
vn -0.8713995 0.00481438 -0.4905507
vn -0.4999614 0.8660119 0.007861826
vn 0.003456817 0.8712094 0.4908995
vn 0.3459667 0.6023894 0.7193289
vn -0.7565232 0.4356304 -0.4877489
vn -0.7069763 0.003819057 -0.707227
vn -0.6025762 0.3460615 -0.7191268
vn -0.4999729 0.8660053 -0.007866243
vn -0.4356295 0.7565207 -0.4877534
vn -0.3460606 0.6025695 -0.7191327
vn -0.004068569 0.9999607 0.007887991
vn -0.004068978 0.9999608 -0.007871958
vn -0.003457458 0.8711828 -0.4909466
vn -0.001967876 0.5158994 -0.856647
vn 0.002720567 0.7066088 -0.7075992
vn 0.001984399 0.5143304 -0.8575898
vn 0.3451163 0.6023148 -0.7197998
vn 0.263465 0.4576958 -0.8491765
vn 0.7564268 0.435597 -0.4879281
vn 0.4590083 0.2622842 -0.8488336
vn 0.004069021 0.9999608 0.007872186
vn 0.004068641 0.9999607 -0.00788824
vn 0.003912271 0.9657904 -0.2592946
vn 0.4999647 0.86601 -0.007880251
vn 0.4819537 0.8342593 -0.2678286
vn 0.8721918 0.004824507 -0.4891402
vn 0.7074526 0.003770138 -0.7067506
vn 0.9999533 0.005661383 -0.007838687
vn 0.8659999 0.4999821 -0.007870113
vn 0.4356316 0.7565316 0.4877344
vn 0.6023996 0.3459623 0.7193225
vn 0.4999757 0.8660038 0.007866441
vn 0.8660066 0.4999708 0.007866738
vn 0.999953 0.005660755 0.007865072
vn 0.8714033 0.004814619 0.4905436
vn 0.7565306 0.4356333 0.4877345
vn 0.706799 0.003818257 0.7074041
vn -0.2582291 -0.966067 0.005687031
vn -0.2290342 -0.9460985 0.2289997
vn -0.0005681443 -0.8660269 0.499997
vn -0.0007526052 -0.9999676 0.008023236
vn -0.258228 -0.9660672 -0.005687093
vn -0.0007526072 -0.9999676 -0.008023336
vn 0.0007526053 -0.9999676 0.008023237
vn -0.0005680661 -0.8660269 -0.499997
vn -0.2289841 -0.9460993 -0.2290464
vn 0.0005681451 -0.8660269 0.499997
vn -0.0005633603 -0.7070072 0.7072061
vn -0.4995072 -0.7078303 0.4994685
vn -0.4994911 -0.4995132 0.7078101
vn -0.7078394 -0.4995076 0.4994552
vn 0.0005633615 -0.7070072 0.7072062
vn -0.7071224 -0.7070658 0.005988278
vn -0.7071224 -0.7070658 0.005988183
vn -0.7071224 -0.7070658 -0.00598818
vn -0.7071224 -0.7070658 -0.005988275
vn -0.4994566 -0.7078292 -0.4995208
vn -0.707838 -0.4994588 -0.499506
vn -0.4994693 -0.4994919 -0.7078406
vn -0.0005630546 -0.7072082 -0.7070051
vn 0.4995066 -0.4994877 0.7078172
vn 0.0005630534 -0.7072082 -0.7070051
vn 0.4995225 -0.7078359 0.4994454
vn 0.7078686 -0.4994884 0.4994331
vn 0.8660677 -0.4998901 0.006042928
vn 0.7071435 -0.7070447 0.005986341
vn 0.7071435 -0.7070447 -0.005986341
vn 0.8660677 -0.4998903 -0.006042939
vn 0.7078703 -0.4994331 -0.4994858
vn 0.4994717 -0.7078356 -0.4994965
vn 0.4994858 -0.4994635 -0.707849
vn 0.0005680646 -0.8660269 -0.499997
vn 0.0007526072 -0.9999676 -0.008023337
vn 0.2582412 -0.9660638 -0.005687397
vn 0.2289918 -0.9460974 -0.2290465
vn 0.2582421 -0.9660634 0.005687279
vn 0.2290381 -0.9460993 0.2289929
vn -0.0005339199 -0.2587128 0.9659541
vn -0.2288824 -0.2288993 0.9461595
vn -0.2589959 -0.0007895012 0.9658781
vn -0.0007317219 -0.001074977 0.9999992
vn 0.0005339202 -0.2587128 0.9659541
vn -0.0004431821 2.178147E-06 0.9999999
vn 0.0007317963 -0.001074976 0.9999992
vn -0.2589194 0.001316874 0.965898
vn -1.674252E-05 9.440661E-06 1
vn -0.2180227 0.1243788 0.9679855
vn -9.582979E-06 1.668355E-05 1
vn -0.1237805 0.2179203 0.9680853
vn -2.252733E-06 0.0006084269 0.9999999
vn -0.001980436 0.5142585 0.8576329
vn 2.214238E-06 0.0006125597 0.9999999
vn 0.00196689 0.515818 0.856696
vn 9.511092E-06 1.669892E-05 1
vn 0.1239762 0.2176797 0.9681143
vn 1.669878E-05 9.510547E-06 1
vn 0.2176815 0.1239756 0.968114
vn 0.0004404657 2.222482E-06 0.9999999
vn 0.2586051 0.001304814 0.9659822
vn 0.258687 -0.000784241 0.9659609
vn 0.2288885 -0.228887 0.9461612
vn -0.2586752 -0.0007850905 -0.965964
vn -0.2290876 -0.2291044 -0.9460603
vn -0.0005345034 -0.2587133 -0.9659539
vn -0.0007317993 -0.001074979 -0.9999992
vn -0.2585926 0.001304623 -0.9659855
vn 0.0007317248 -0.00107498 -0.9999992
vn -0.0004404593 2.222195E-06 -0.9999999
vn -0.2176773 0.1239741 -0.9681152
vn 0.0005345038 -0.2587133 -0.9659539
vn -1.669955E-05 9.510996E-06 -1
vn -0.1239771 0.217679 -0.9681144
vn -9.51095E-06 1.669909E-05 -1
vn -0.001967876 0.5158994 -0.856647
vn -2.214323E-06 0.0006125607 -0.9999999
vn 0.001984399 0.5143304 -0.8575898
vn 2.264215E-06 0.0006087663 -0.9999999
vn 0.263465 0.4576958 -0.8491765
vn 9.581335E-06 1.66568E-05 -1
vn 0.4590083 0.2622842 -0.8488336
vn 1.671514E-05 9.438802E-06 -1
vn 0.2589156 0.001321303 -0.9658991
vn 0.0004434178 2.189533E-06 -0.9999999
vn 0.2590028 -0.0007903232 -0.9658762
vn 0.2290939 -0.229092 -0.9460617
g ENV_Door04_MO_0
f 3/3/3 2/2/2 1/1/1
f 4/4/4 3/3/3 1/1/1
f 5/5/5 3/3/3 4/4/4
f 4/4/4 1/1/1 6/6/6
f 1/1/1 7/7/7 6/6/6
f 8/8/8 5/5/5 4/4/4
f 9/9/9 5/5/5 8/8/8
f 8/8/8 4/4/4 10/10/10
f 4/4/4 11/11/11 10/10/10
f 10/10/10 12/12/12 8/8/8
f 13/13/13 9/9/9 8/8/8
f 12/12/12 13/13/13 8/8/8
f 14/14/14 9/9/9 13/13/13
f 13/13/13 12/12/12 15/15/15
f 15/15/15 14/14/14 13/13/13
f 12/12/12 16/16/16 15/15/15
f 17/17/17 14/14/14 15/15/15
f 18/18/18 17/17/17 15/15/15
f 18/18/18 15/15/15 19/19/19
f 15/15/15 20/20/20 19/19/19
f 23/23/23 22/22/22 21/21/21
f 24/24/24 23/23/23 21/21/21
f 25/25/25 23/23/23 24/24/24
f 24/24/24 21/21/21 26/26/26
f 21/21/21 27/27/27 26/26/26
f 28/28/28 25/25/25 24/24/24
f 29/29/29 25/25/25 28/28/28
f 28/28/28 24/24/24 30/30/30
f 24/24/24 31/31/31 30/30/30
f 28/28/28 30/30/30 32/32/32
f 33/33/33 29/29/29 28/28/28
f 33/33/33 28/28/28 32/32/32
f 34/34/34 29/29/29 33/33/33
f 33/33/33 32/32/32 35/35/35
f 35/35/35 34/34/34 33/33/33
f 32/32/32 36/36/36 35/35/35
f 37/37/37 34/34/34 35/35/35
f 38/38/38 37/37/37 35/35/35
f 38/38/38 35/35/35 39/39/39
f 35/35/35 40/40/40 39/39/39
f 43/43/43 42/42/42 41/41/41
f 42/42/42 44/44/44 41/41/41
f 42/42/42 45/45/45 44/44/44
f 41/41/41 44/44/44 46/46/46
f 45/45/45 47/47/47 44/44/44
f 47/47/47 45/45/45 48/48/48
f 44/44/44 49/49/49 46/46/46
f 44/44/44 47/47/47 49/49/49
f 50/50/50 47/47/47 48/48/48
f 48/48/48 51/51/51 50/50/50
f 49/49/49 52/52/52 46/46/46
f 52/52/52 53/53/53 46/46/46
f 53/53/53 52/52/52 54/54/54
f 47/47/47 55/55/55 49/49/49
f 55/55/55 47/47/47 50/50/50
f 51/51/51 56/56/56 50/50/50
f 51/51/51 57/57/57 56/56/56
f 52/52/52 58/58/58 54/54/54
f 54/54/54 58/58/58 59/59/59
f 58/58/58 60/60/60 59/59/59
f 61/61/61 52/52/52 49/49/49
f 52/52/52 61/61/61 58/58/58
f 55/55/55 61/61/61 49/49/49
f 58/58/58 62/62/62 60/60/60
f 61/61/61 62/62/62 58/58/58
f 62/62/62 63/63/63 60/60/60
f 64/64/64 55/55/55 50/50/50
f 50/50/50 56/56/56 64/64/64
f 65/65/65 61/61/61 55/55/55
f 62/62/62 61/61/61 65/65/65
f 64/64/64 65/65/65 55/55/55
f 63/63/63 62/62/62 66/66/66
f 66/66/66 62/62/62 65/65/65
f 67/67/67 63/63/63 66/66/66
f 66/66/66 68/68/68 67/67/67
f 68/68/68 69/69/69 67/67/67
f 68/68/68 70/70/70 69/69/69
f 70/70/70 71/71/71 69/69/69
f 70/70/70 72/72/72 71/71/71
f 72/72/72 73/73/73 71/71/71
f 56/56/56 74/74/74 64/64/64
f 64/64/64 74/74/74 65/65/65
f 65/65/65 75/75/75 66/66/66
f 74/74/74 75/75/75 65/65/65
f 75/75/75 76/76/76 66/66/66
f 75/75/75 77/77/77 76/76/76
f 77/77/77 75/75/75 74/74/74
f 77/77/77 78/78/78 76/76/76
f 73/73/73 72/72/72 79/79/79
f 80/80/80 73/73/73 79/79/79
f 79/79/79 72/72/72 81/81/81
f 82/82/82 72/72/72 78/78/78
f 77/77/77 82/82/82 78/78/78
f 72/72/72 82/82/82 81/81/81
f 56/56/56 83/83/83 74/74/74
f 57/57/57 83/83/83 56/56/56
f 57/57/57 84/84/84 83/83/83
f 85/85/85 77/77/77 74/74/74
f 82/82/82 77/77/77 85/85/85
f 83/83/83 85/85/85 74/74/74
f 81/81/81 82/82/82 86/86/86
f 86/86/86 82/82/82 85/85/85
f 87/87/87 81/81/81 86/86/86
f 87/87/87 86/86/86 88/88/88
f 84/84/84 89/89/89 83/83/83
f 83/83/83 89/89/89 85/85/85
f 89/89/89 86/86/86 85/85/85
f 86/86/86 89/89/89 88/88/88
f 89/89/89 84/84/84 90/90/90
f 88/88/88 89/89/89 90/90/90
f 93/93/93 92/92/92 91/91/91
f 94/94/94 93/93/93 91/91/91
f 91/91/91 95/95/95 94/94/94
f 95/95/95 96/96/96 94/94/94
f 94/94/94 97/97/97 93/93/93
f 97/97/97 94/94/94 96/96/96
f 96/96/96 95/95/95 98/98/98
f 95/95/95 99/99/99 98/98/98
f 97/97/97 100/100/100 93/93/93
f 93/93/93 100/100/100 101/101/101
f 93/93/93 101/101/101 102/102/102
f 101/101/101 103/103/103 102/102/102
f 102/102/102 103/103/103 104/104/104
f 100/100/100 105/105/105 101/101/101
f 106/106/106 102/102/102 104/104/104
f 107/107/107 106/106/106 104/104/104
f 107/107/107 108/108/108 106/106/106
f 108/108/108 109/109/109 106/106/106
f 109/109/109 108/108/108 110/110/110
f 108/108/108 111/111/111 110/110/110
f 112/112/112 110/110/110 111/111/111
f 98/98/98 110/110/110 112/112/112
f 113/113/113 98/98/98 112/112/112
f 105/105/105 100/100/100 114/114/114
f 113/113/113 115/115/115 98/98/98
f 100/100/100 116/116/116 114/114/114
f 117/117/117 114/114/114 116/116/116
f 118/118/118 117/117/117 116/116/116
f 119/119/119 118/118/118 116/116/116
f 119/119/119 120/120/120 118/118/118
f 120/120/120 121/121/121 118/118/118
f 121/121/121 120/120/120 122/122/122
f 120/120/120 123/123/123 122/122/122
f 122/122/122 123/123/123 124/124/124
f 115/115/115 124/124/124 123/123/123
f 125/125/125 115/115/115 123/123/123
f 115/115/115 125/125/125 98/98/98
f 98/98/98 125/125/125 96/96/96
f 125/125/125 126/126/126 96/96/96
f 126/126/126 97/97/97 96/96/96
f 126/126/126 125/125/125 127/127/127
f 125/125/125 128/128/128 127/127/127
f 126/126/126 127/127/127 129/129/129
f 97/97/97 126/126/126 129/129/129
f 97/97/97 129/129/129 100/100/100
f 129/129/129 130/130/130 100/100/100
f 133/133/133 132/132/132 131/131/131
f 134/134/134 133/133/133 131/131/131
f 131/131/131 135/135/135 134/134/134
f 134/134/134 136/136/136 133/133/133
f 135/135/135 137/137/137 134/134/134
f 136/136/136 138/138/138 133/133/133
f 136/136/136 139/139/139 138/138/138
f 139/139/139 136/136/136 134/134/134
f 139/139/139 140/140/140 138/138/138
f 139/139/139 141/141/141 140/140/140
f 141/141/141 139/139/139 134/134/134
f 141/141/141 142/142/142 140/140/140
f 142/142/142 141/141/141 143/143/143
f 143/143/143 141/141/141 134/134/134
f 144/144/144 142/142/142 143/143/143
f 143/143/143 145/145/145 144/144/144
f 145/145/145 143/143/143 134/134/134
f 145/145/145 146/146/146 144/144/144
f 145/145/145 147/147/147 146/146/146
f 147/147/147 145/145/145 134/134/134
f 147/147/147 148/148/148 146/146/146
f 149/149/149 147/147/147 134/134/134
f 147/147/147 149/149/149 148/148/148
f 149/149/149 150/150/150 148/148/148
f 149/149/149 134/134/134 137/137/137
f 150/150/150 149/149/149 151/151/151
f 137/137/137 151/151/151 149/149/149
f 152/152/152 150/150/150 151/151/151
f 152/152/152 151/151/151 137/137/137
f 153/153/153 152/152/152 137/137/137
f 137/137/137 135/135/135 153/153/153
f 135/135/135 154/154/154 153/153/153
f 157/157/157 156/156/156 155/155/155
f 158/158/158 157/157/157 155/155/155
f 155/155/155 159/159/159 158/158/158
f 158/158/158 160/160/160 157/157/157
f 159/159/159 161/161/161 158/158/158
f 159/159/159 162/162/162 161/161/161
f 160/160/160 163/163/163 157/157/157
f 162/162/162 164/164/164 161/161/161
f 158/158/158 161/161/161 164/164/164
f 162/162/162 165/165/165 164/164/164
f 165/165/165 166/166/166 164/164/164
f 158/158/158 164/164/164 166/166/166
f 166/166/166 165/165/165 167/167/167
f 168/168/168 166/166/166 167/167/167
f 158/158/158 166/166/166 168/168/168
f 167/167/167 169/169/169 168/168/168
f 169/169/169 170/170/170 168/168/168
f 158/158/158 168/168/168 170/170/170
f 169/169/169 171/171/171 170/170/170
f 171/171/171 172/172/172 170/170/170
f 158/158/158 170/170/170 172/172/172
f 171/171/171 173/173/173 172/172/172
f 158/158/158 172/172/172 174/174/174
f 173/173/173 174/174/174 172/172/172
f 160/160/160 158/158/158 174/174/174
f 174/174/174 173/173/173 175/175/175
f 176/176/176 174/174/174 175/175/175
f 174/174/174 176/176/176 160/160/160
f 176/176/176 175/175/175 177/177/177
f 160/160/160 176/176/176 177/177/177
f 160/160/160 177/177/177 163/163/163
f 177/177/177 178/178/178 163/163/163
