g ENV_solidBlock03_Col
v -2.912919 0.7064375 3.027666
v -0.7650576 0.7131348 -2.963279
v 1.27037 0.718691 3.032993
v -0.7650576 0.7131348 -2.963279
v -0.7878106 -2.321496 -3.101014
v 1.371413 -2.323033 3.193064
v 1.27037 0.718691 3.032993
v -2.949903 -2.325762 3.126563
v -0.7878106 -2.321496 -3.101014
v -0.7650576 0.7131348 -2.963279
v -2.912919 0.7064375 3.027666
v 1.371413 -2.323033 3.193064
v -2.949903 -2.325762 3.126563
v -2.912919 0.7064375 3.027666
v 1.27037 0.718691 3.032993
vt 0.6022043 0.02357704
vt 0.7916753 0.5696449
vt 0.9749853 0.01928677
vt 0.7916753 0.5696449
vt 0.1556582 0.3125293
vt 0.2969564 0.6060925
vt 0.9749853 0.01928677
vt 0.4508246 0.500038
vt 0.1556582 0.3125293
vt 0.7916753 0.5696449
vt 0.6022043 0.02357704
vt 0.2969564 0.6060925
vt 0.4508246 0.500038
vt 0.6022043 0.02357704
vt 0.9749853 0.01928677
vn -0.001953121 0.9999981 0
vn -0.001953121 0.9999981 0
vn 0 1 0
vn 0.9308209 0 -0.3654757
vn 0.930566 0 -0.3661243
vn 0.9502295 0 -0.3115507
vn 0.930566 0 -0.3661243
vn -0.9303097 0 -0.3667751
vn -0.9303097 0 -0.3667751
vn -0.9300519 0 -0.3674279
vn -0.9300519 0 -0.3674279
vn -0.007812262 0 0.9999695
vn -0.007812262 0 0.9999695
vn -0.007812262 0 0.9999695
vn -0.007812262 0 0.9999695
g ENV_solidBlock03_Col_0
f 3/3/3 2/2/2 1/1/1
f 6/6/6 5/5/5 4/4/4
f 7/7/7 6/6/6 4/4/4
f 10/10/10 9/9/9 8/8/8
f 11/11/11 10/10/10 8/8/8
f 14/14/14 13/13/13 12/12/12
f 15/15/15 14/14/14 12/12/12
