g ENV_PushPullBlock04_MO
v -2 0 2
v -2 1.5 2
v 2 1.5 2
v 2 0 2
v -2 1.5 2
v -2 1.5 -2
v 2 1.5 -2
v 2 1.5 2
v -2 1.5 -2
v -2 0 -2
v 2 0 -2
v 2 1.5 -2
v -2 0 -2
v -2 0 2
v 2 0 2
v 2 0 -2
v 2 0 2
v 2 1.5 2
v 2 1.5 -2
v 2 0 -2
v -2 0 -2
v -2 1.5 -2
v -2 1.5 2
v -2 0 2
vt -3 -1.309434E-08
vt -3 1.5
vt 1 1.5
vt 1 0
vt -3 -1.793391E-07
vt -3 3.999999
vt 1 4
vt 0.9999999 1.007816E-08
vt -2.999999 -0.5000002
vt -2.999999 1
vt 1 1
vt 1 -0.5000002
vt -3 -3
vt -3 1
vt 1 1
vt 1 -3
vt 0 0
vt 5.534075E-09 1.5
vt 4.000001 1.5
vt 4.000001 3.498457E-09
vt -3 -2.903704E-08
vt -3 1.5
vt 1 1.5
vt 1 -2.991165E-08
vn 0 0 1
vn 0 0 1
vn 0 0 1
vn 0 0 1
vn 0 1 0
vn 0 1 0
vn 0 1 0
vn 0 1 0
vn 0 0 -1
vn 0 0 -1
vn 0 0 -1
vn 0 0 -1
vn 0 -1 0
vn 0 -1 0
vn 0 -1 0
vn 0 -1 0
vn 1 0 0
vn 1 0 0
vn 1 0 0
vn 1 0 0
vn -1 0 0
vn -1 0 0
vn -1 0 0
vn -1 0 0
g ENV_PushPullBlock04_MO_0
f 3/3/3 2/2/2 1/1/1
f 4/4/4 3/3/3 1/1/1
f 7/7/7 6/6/6 5/5/5
f 8/8/8 7/7/7 5/5/5
f 11/11/11 10/10/10 9/9/9
f 12/12/12 11/11/11 9/9/9
f 15/15/15 14/14/14 13/13/13
f 16/16/16 15/15/15 13/13/13
f 19/19/19 18/18/18 17/17/17
f 20/20/20 19/19/19 17/17/17
f 23/23/23 22/22/22 21/21/21
f 24/24/24 23/23/23 21/21/21
