g ENV_inflatedWall03_Col
v 1.604052 10.92751 28.41197
v 1.661823 3.447653 -38.29242
v 1.626305 -4.790182 -38.10125
v 1.544455 2.615009 28.44622
v -0.1726251 3.45125 -38.28506
v -0.2123808 10.92292 28.41274
v -0.1491831 2.615034 28.44622
v -0.140486 -4.790182 -38.10125
v 1.604052 10.92751 28.41197
v -0.1726251 3.45125 -38.28506
v 1.661823 3.447653 -38.29242
v -0.2123808 10.92292 28.41274
v 1.680238 10.97119 38.27167
v -0.1541317 10.96848 38.28222
v -0.2123808 10.92292 28.41274
v -0.1541317 10.96848 38.28222
v -0.1186548 2.719883 38.27734
v -0.1491831 2.615034 28.44622
v 1.648124 2.719883 38.27507
v 1.680238 10.97119 38.27167
v 1.604052 10.92751 28.41197
v 1.544455 2.615009 28.44622
v -0.1726251 3.45125 -38.28506
v -0.140486 -4.790182 -38.10125
v 1.626305 -4.790182 -38.10125
v 1.661823 3.447653 -38.29242
v 1.680238 10.97119 38.27167
v 1.648124 2.719883 38.27507
v -0.1186548 2.719883 38.27734
v -0.1541317 10.96848 38.28222
v -43.18203 10.92751 28.41197
v -43.12244 2.615009 28.44622
v -43.20429 -4.790182 -38.10125
v -43.2398 3.447653 -38.29242
v -41.40536 3.45125 -38.28506
v -41.4375 -4.790182 -38.10125
v -41.4288 2.615034 28.44622
v -41.3656 10.92292 28.41274
v -43.18203 10.92751 28.41197
v -43.2398 3.447653 -38.29242
v -41.40536 3.45125 -38.28506
v -41.3656 10.92292 28.41274
v -43.25822 10.97119 38.27167
v -41.42385 10.96848 38.28222
v -41.3656 10.92292 28.41274
v -41.4288 2.615034 28.44622
v -41.45933 2.719883 38.27734
v -41.42385 10.96848 38.28222
v -43.2261 2.719883 38.27507
v -43.12244 2.615009 28.44622
v -43.18203 10.92751 28.41197
v -43.25822 10.97119 38.27167
v -41.40536 3.45125 -38.28506
v -43.2398 3.447653 -38.29242
v -43.20429 -4.790182 -38.10125
v -41.4375 -4.790182 -38.10125
v -43.25822 10.97119 38.27167
v -41.42385 10.96848 38.28222
v -41.45933 2.719883 38.27734
v -43.2261 2.719883 38.27507
vt 0.4677148 0.9497785
vt 0.5719312 0.0264972
vt 0.5711099 0.0132415
vt 0.3850928 0.9424457
vt 0.2248643 0.9463474
vt 0.103513 0.05023231
vt 0.02126186 0.05799994
vt 0.5105141 0.7392851
vt 0.118755 0.05038326
vt 0.2248643 0.9463474
vt 0.2409229 0.9461905
vt 0.103513 0.05023231
vt 0.780109 0.3765075
vt 0.8491111 0.2014479
vt 0.103513 0.05023231
vt 0.8491111 0.2014479
vt 0.8220468 0.02632895
vt 0.02126186 0.05799994
vt 0.700148 0.3759776
vt 0.780109 0.3765075
vt 0.4677148 0.9497785
vt 0.3850928 0.9424457
vt 0.2248643 0.9463474
vt 0.5105141 0.7392851
vt 0.5719312 0.0264972
vt 0.5711099 0.0132415
vt 0.02431576 0.1640135
vt 0.1032789 0.163467
vt 0.02126186 0.05799994
vt 0.4677148 0.9497785
vt 0.4677148 0.9497785
vt 0.3850928 0.9424457
vt 0.5711099 0.0132415
vt 0.5719312 0.0264972
vt 0.2248643 0.9463474
vt 0.5105141 0.7392851
vt 0.02126186 0.05799994
vt 0.103513 0.05023231
vt 0.118755 0.05038326
vt 0.2409229 0.9461905
vt 0.2248643 0.9463474
vt 0.103513 0.05023231
vt 0.780109 0.3765075
vt 0.8491111 0.2014479
vt 0.103513 0.05023231
vt 0.02126186 0.05799994
vt 0.8220468 0.02632895
vt 0.8491111 0.2014479
vt 0.700148 0.3759776
vt 0.3850928 0.9424457
vt 0.4677148 0.9497785
vt 0.780109 0.3765075
vt 0.2248643 0.9463474
vt 0.5711099 0.0132415
vt 0.5719312 0.0264972
vt 0.5105141 0.7392851
vt 0.02431576 0.1640135
vt 0.4677148 0.9497785
vt 0.02126186 0.05799994
vt 0.1032789 0.163467
vn 0.9999765 -0.005637718 -0.003894428
vn 0.9999822 -0.005723941 0.001687178
vn 0.9999822 -0.005723941 0.001687177
vn 0.9999779 -0.005643596 -0.003514352
vn -0.9999834 -0.005757011 0.0002791418
vn -0.9999797 -0.005857911 0.002491482
vn -0.9999802 -0.005851034 0.002340675
vn -0.9999834 -0.00575701 0.0002791418
vn -0.001268145 0.9983203 -0.0579216
vn -0.0005181784 0.9937776 -0.1113815
vn -0.0005181784 0.9937776 -0.1113815
vn -0.001265511 0.9983094 -0.0581101
vn -0.002011482 0.9999878 -0.004509858
vn -0.002011482 0.9999878 -0.004509858
vn -0.9999797 -0.005857911 0.002491482
vn -0.999972 -0.005951847 0.004551655
vn -0.999972 -0.005951847 0.004551655
vn -0.9999802 -0.005851034 0.002340675
vn 0.9999433 -0.005557261 -0.009092592
vn 0.9999433 -0.005557261 -0.009092593
vn 0.9999765 -0.005637718 -0.003894428
vn 0.9999779 -0.005643596 -0.003514352
vn -0.002066148 -0.02274821 -0.9997391
vn -0.002066148 -0.02274821 -0.9997391
vn -0.002066148 -0.02274821 -0.9997391
vn -0.002066148 -0.02274821 -0.9997391
vn 0.003558553 -8.890984E-05 0.9999937
vn 0.003558553 -8.890983E-05 0.9999937
vn 0.003558552 -8.890983E-05 0.9999937
vn 0.003558553 -8.890983E-05 0.9999937
vn -0.9999765 -0.005637583 -0.003894438
vn -0.9999779 -0.005643451 -0.003514363
vn -0.9999822 -0.00572366 0.001687158
vn -0.9999822 -0.00572366 0.001687158
vn 0.9999834 -0.00575701 0.000279165
vn 0.9999834 -0.00575701 0.000279165
vn 0.9999802 -0.005851079 0.002340726
vn 0.9999797 -0.005857959 0.002491534
vn 0.001268147 0.9983203 -0.0579216
vn 0.0005181789 0.9937776 -0.1113815
vn 0.0005181789 0.9937776 -0.1113815
vn 0.001265513 0.9983094 -0.05811009
vn 0.002011484 0.9999878 -0.004509858
vn 0.002011484 0.9999878 -0.004509857
vn 0.9999797 -0.005857959 0.002491534
vn 0.9999802 -0.005851079 0.002340726
vn 0.999972 -0.005951941 0.004551735
vn 0.999972 -0.005951941 0.004551735
vn -0.9999433 -0.005557261 -0.009092593
vn -0.9999779 -0.005643451 -0.003514363
vn -0.9999765 -0.005637583 -0.003894438
vn -0.9999433 -0.005557261 -0.009092594
vn 0.002066147 -0.02274821 -0.9997391
vn 0.002066146 -0.02274821 -0.9997391
vn 0.002066147 -0.02274821 -0.9997391
vn 0.002066146 -0.02274821 -0.9997391
vn -0.003558558 -8.891019E-05 0.9999937
vn -0.003558557 -8.891017E-05 0.9999937
vn -0.003558557 -8.891017E-05 0.9999937
vn -0.003558557 -8.891017E-05 0.9999937
g ENV_inflatedWall03_Col_0
f 3/3/3 2/2/2 1/1/1
f 4/4/4 3/3/3 1/1/1
f 7/7/7 6/6/6 5/5/5
f 8/8/8 7/7/7 5/5/5
f 11/11/11 10/10/10 9/9/9
f 10/10/10 12/12/12 9/9/9
f 9/9/9 12/12/12 13/13/13
f 12/12/12 14/14/14 13/13/13
f 17/17/17 16/16/16 15/15/15
f 18/18/18 17/17/17 15/15/15
f 21/21/21 20/20/20 19/19/19
f 22/22/22 21/21/21 19/19/19
f 25/25/25 24/24/24 23/23/23
f 26/26/26 25/25/25 23/23/23
f 29/29/29 28/28/28 27/27/27
f 30/30/30 29/29/29 27/27/27
f 33/33/33 32/32/32 31/31/31
f 34/34/34 33/33/33 31/31/31
f 37/37/37 36/36/36 35/35/35
f 38/38/38 37/37/37 35/35/35
f 41/41/41 40/40/40 39/39/39
f 42/42/42 41/41/41 39/39/39
f 42/42/42 39/39/39 43/43/43
f 44/44/44 42/42/42 43/43/43
f 47/47/47 46/46/46 45/45/45
f 48/48/48 47/47/47 45/45/45
f 51/51/51 50/50/50 49/49/49
f 52/52/52 51/51/51 49/49/49
f 55/55/55 54/54/54 53/53/53
f 56/56/56 55/55/55 53/53/53
f 59/59/59 58/58/58 57/57/57
f 60/60/60 59/59/59 57/57/57
