g ENV_sideWall_Col_MO
v 33.80787 4.306703 -34.51583
v 34.16543 66.33672 -1.218387
v 33.93023 4.329043 -1.040362
v 34.10945 66.37094 -34.53927
v 33.14375 4.305024 -37.32486
v 33.42489 66.37266 -37.43857
v 34.10945 66.37094 -34.53927
v 35.35835 66.33862 -1.187968
v 34.16543 66.33672 -1.218387
v 35.14024 66.35896 -34.84703
v 33.42489 66.37266 -37.43857
v 34.43568 66.36012 -37.82685
v 22.49792 66.38522 -50.62434
v 32.11773 66.37332 -39.73977
v 21.7054 66.39252 -49.71957
v 33.04865 66.36143 -40.25302
v 33.42489 66.37266 -37.43857
v 34.43568 66.36012 -37.82685
v 21.7054 66.39252 -49.71957
v 31.87529 4.306091 -39.55247
v 21.43185 4.322442 -49.58408
v 32.11773 66.37332 -39.73977
v 33.42489 66.37266 -37.43857
v 33.14375 4.305024 -37.32486
v 35.35835 66.33862 -1.187968
v 35.29939 4.355879 -34.85807
v 35.4745 4.36639 -1.194435
v 35.14024 66.35896 -34.84703
v 34.58429 4.354844 -37.88683
v 34.43568 66.36012 -37.82685
v 33.17747 4.355064 -40.35331
v 22.49792 66.38522 -50.62434
v 22.63902 4.361487 -50.70148
v 33.04865 66.36143 -40.25302
v 34.43568 66.36012 -37.82685
v 34.58429 4.354844 -37.88683
v 20.50593 66.38736 -52.59414
v 19.71342 66.39468 -51.68937
v 19.43987 4.324596 -51.55389
v 20.64704 4.363641 -52.67128
v 22.49792 66.38522 -50.62434
v 21.9517 66.38213 -52.12272
v 22.0928 4.35841 -52.19986
v 22.63902 4.361487 -50.70148
v 21.43185 4.322442 -49.58408
v 20.005 4.327498 -50.0771
v 20.27855 66.39758 -50.21258
v 21.7054 66.39252 -49.71957
v 21.7054 66.39252 -49.71957
v 21.9517 66.38213 -52.12272
v 22.49792 66.38522 -50.62434
v 20.27855 66.39758 -50.21258
v 20.50593 66.38736 -52.59414
v 19.71342 66.39468 -51.68937
v 20.005 4.327498 -50.0771
v 19.43987 4.324596 -51.55389
v 19.71342 66.39468 -51.68937
v 20.27855 66.39758 -50.21258
v 21.9517 66.38213 -52.12272
v 20.50593 66.38736 -52.59414
v 20.64704 4.363641 -52.67128
v 22.0928 4.35841 -52.19986
v 33.80787 4.306703 34.51583
v 33.93023 4.329043 1.040362
v 34.16543 66.33672 1.218387
v 34.10945 66.37094 34.53927
v 33.14375 4.305024 37.32486
v 33.42489 66.37266 37.43857
v 34.10945 66.37094 34.53927
v 34.16543 66.33672 1.218387
v 35.35835 66.33862 1.187968
v 35.14024 66.35896 34.84703
v 33.42489 66.37266 37.43857
v 34.43568 66.36012 37.82685
v 22.49792 66.38522 50.62434
v 21.7054 66.39252 49.71957
v 32.11773 66.37332 39.73977
v 33.04865 66.36143 40.25302
v 33.42489 66.37266 37.43857
v 34.43568 66.36012 37.82685
v 21.7054 66.39252 49.71957
v 21.43185 4.322442 49.58408
v 31.87529 4.306091 39.55247
v 32.11773 66.37332 39.73977
v 33.42489 66.37266 37.43857
v 33.14375 4.305024 37.32486
v 35.35835 66.33862 1.187968
v 35.4745 4.36639 1.194435
v 35.29939 4.355879 34.85807
v 35.14024 66.35896 34.84703
v 34.58429 4.354844 37.88683
v 34.43568 66.36012 37.82685
v 33.17747 4.355064 40.35331
v 22.63902 4.361487 50.70148
v 22.49792 66.38522 50.62434
v 33.04865 66.36143 40.25302
v 34.43568 66.36012 37.82685
v 34.58429 4.354844 37.88683
v 20.50593 66.38736 52.59414
v 20.64704 4.363641 52.67128
v 19.43987 4.324596 51.55389
v 19.71342 66.39468 51.68937
v 22.49792 66.38522 50.62434
v 22.63902 4.361487 50.70148
v 22.0928 4.35841 52.19986
v 21.9517 66.38213 52.12272
v 21.43185 4.322442 49.58408
v 21.7054 66.39252 49.71957
v 20.27855 66.39758 50.21258
v 20.005 4.327498 50.0771
v 21.7054 66.39252 49.71957
v 22.49792 66.38522 50.62434
v 21.9517 66.38213 52.12272
v 20.27855 66.39758 50.21258
v 20.50593 66.38736 52.59414
v 19.71342 66.39468 51.68937
v 20.005 4.327498 50.0771
v 20.27855 66.39758 50.21258
v 19.71342 66.39468 51.68937
v 19.43987 4.324596 51.55389
v 21.9517 66.38213 52.12272
v 22.0928 4.35841 52.19986
v 20.64704 4.363641 52.67128
v 20.50593 66.38736 52.59414
v 34.16543 66.33672 -1.218387
v 33.66369 66.33911 0
v 33.42849 4.331444 0
v 33.93023 4.329043 -1.040362
v 33.93023 4.329043 -1.040362
v 36.10174 4.36879 0
v 35.4745 4.36639 -1.194435
v 33.42849 4.331444 0
v 35.4745 4.36639 1.194435
v 33.93023 4.329043 1.040362
v 35.4745 4.36639 -1.194435
v 36.10174 4.36879 0
v 35.98558 66.34101 0
v 35.35835 66.33862 -1.187968
v 35.35835 66.33862 -1.187968
v 33.66369 66.33911 0
v 34.16543 66.33672 -1.218387
v 35.98558 66.34101 0
v 34.16543 66.33672 1.218387
v 35.35835 66.33862 1.187968
v 35.35835 66.33862 1.187968
v 35.98558 66.34101 0
v 36.10174 4.36879 0
v 35.4745 4.36639 1.194435
v 33.93023 4.329043 1.040362
v 33.42849 4.331444 0
v 33.66369 66.33911 0
v 34.16543 66.33672 1.218387
v 33.93023 4.329043 -1.040362
v 35.4745 4.36639 -1.194435
v 35.29939 4.355879 -34.85807
v 33.80787 4.306703 -34.51583
v 33.80787 4.306703 -34.51583
v 35.29939 4.355879 -34.85807
v 34.58429 4.354844 -37.88683
v 33.14375 4.305024 -37.32486
v 33.14375 4.305024 -37.32486
v 34.58429 4.354844 -37.88683
v 33.17747 4.355064 -40.35331
v 31.87529 4.306091 -39.55247
v 31.87529 4.306091 -39.55247
v 33.17747 4.355064 -40.35331
v 22.63902 4.361487 -50.70148
v 21.43185 4.322442 -49.58408
v 21.43185 4.322442 -49.58408
v 22.63902 4.361487 -50.70148
v 22.0928 4.35841 -52.19986
v 20.005 4.327498 -50.0771
v 20.005 4.327498 -50.0771
v 22.0928 4.35841 -52.19986
v 20.64704 4.363641 -52.67128
v 19.43987 4.324596 -51.55389
v 33.80787 4.306703 34.51583
v 35.29939 4.355879 34.85807
v 35.4745 4.36639 1.194435
v 33.93023 4.329043 1.040362
v 33.14375 4.305024 37.32486
v 34.58429 4.354844 37.88683
v 35.29939 4.355879 34.85807
v 33.80787 4.306703 34.51583
v 31.87529 4.306091 39.55247
v 33.17747 4.355064 40.35331
v 34.58429 4.354844 37.88683
v 33.14375 4.305024 37.32486
v 21.43185 4.322442 49.58408
v 22.63902 4.361487 50.70148
v 33.17747 4.355064 40.35331
v 31.87529 4.306091 39.55247
v 20.005 4.327498 50.0771
v 22.0928 4.35841 52.19986
v 22.63902 4.361487 50.70148
v 21.43185 4.322442 49.58408
v 19.43987 4.324596 51.55389
v 20.64704 4.363641 52.67128
v 22.0928 4.35841 52.19986
v 20.005 4.327498 50.0771
vt 0.7084664 0.255301
vt 0.006647 0.078097
vt 0.008174 0.254976
vt 0.7084664 0.075024
vt 0.731273 0.255301
vt 0.731273 0.075024
vt 0.7084664 0.075024
vt 0.006647 0.078097
vt 0.006647 0.078097
vt 0.7084664 0.075024
vt 0.731273 0.075024
vt 0.731273 0.075024
vt 0.730767 0.374986
vt 0.07896665 0.373828
vt 0.730767 0.374986
vt 0.07896665 0.373828
vt 0.003532 0.373828
vt 0.003532 0.373828
vt 0.730767 0.374986
vt 0.07896665 0.554263
vt 0.731123 0.554162
vt 0.07896665 0.373828
vt 0.003532 0.373828
vt 0.003532 0.554263
vt 0.006647 0.078097
vt 0.7084664 0.255301
vt 0.008174 0.254976
vt 0.7084664 0.075024
vt 0.731273 0.255301
vt 0.731273 0.075024
vt 0.07896665 0.554263
vt 0.730767 0.374986
vt 0.731123 0.554162
vt 0.07896665 0.373828
vt 0.003532 0.373828
vt 0.003532 0.554263
vt 0.03064016 0
vt 0 0.4624908
vt 0.9663796 0.4971957
vt 0.9999999 0
vt 0.03064016 0
vt 0.03064016 0
vt 0.9999999 0
vt 0.9999999 0
vt 0.9663796 0.4971957
vt 0.9663796 0.4971957
vt 0 0.4624908
vt 0 0.4624908
vt 0 0.4624908
vt 0.03064016 0
vt 0.03064016 0
vt 0 0.4624908
vt 0.03064016 0
vt 0 0.4624908
vt 0.9663796 0.4971957
vt 0.9663796 0.4971957
vt 0 0.4624908
vt 0 0.4624908
vt 0.03064016 0
vt 0.03064016 0
vt 0.9999999 0
vt 0.9999999 0
vt 0.7084664 0.255301
vt 0.008174 0.254976
vt 0.006647 0.078097
vt 0.7084664 0.075024
vt 0.731273 0.255301
vt 0.731273 0.075024
vt 0.7084664 0.075024
vt 0.006647 0.078097
vt 0.006647 0.078097
vt 0.7084664 0.075024
vt 0.731273 0.075024
vt 0.731273 0.075024
vt 0.730767 0.374986
vt 0.730767 0.374986
vt 0.07896665 0.373828
vt 0.07896665 0.373828
vt 0.003532 0.373828
vt 0.003532 0.373828
vt 0.730767 0.374986
vt 0.731123 0.554162
vt 0.07896665 0.554263
vt 0.07896665 0.373828
vt 0.003532 0.373828
vt 0.003532 0.554263
vt 0.006647 0.078097
vt 0.008174 0.254976
vt 0.7084664 0.255301
vt 0.7084664 0.075024
vt 0.731273 0.255301
vt 0.731273 0.075024
vt 0.07896665 0.554263
vt 0.731123 0.554162
vt 0.730767 0.374986
vt 0.07896665 0.373828
vt 0.003532 0.373828
vt 0.003532 0.554263
vt 0.03064016 0
vt 0.9999999 0
vt 0.9663796 0.4971957
vt 0 0.4624908
vt 0.03064016 0
vt 0.9999999 0
vt 0.9999999 0
vt 0.03064016 0
vt 0.9663796 0.4971957
vt 0 0.4624908
vt 0 0.4624908
vt 0.9663796 0.4971957
vt 0 0.4624908
vt 0.03064016 0
vt 0.03064016 0
vt 0 0.4624908
vt 0.03064016 0
vt 0 0.4624908
vt 0.9663796 0.4971957
vt 0 0.4624908
vt 0 0.4624908
vt 0.9663796 0.4971957
vt 0.03064016 0
vt 0.9999999 0
vt 0.9999999 0
vt 0.03064016 0
vt 0 0
vt 0 0
vt 0.9755794 1.81301E-15
vt 0.9755794 1.81301E-15
vt 0.9755794 1.81301E-15
vt 1 0.4813562
vt 1 0.4813562
vt 0.9755794 1.81301E-15
vt 1 0.4813562
vt 0.9755794 1.81301E-15
vt 1 0.4813562
vt 1 0.4813562
vt 0.01883841 0.4753574
vt 0.01883841 0.4753574
vt 0.01883841 0.4753574
vt 0 0
vt 0 0
vt 0.01883841 0.4753574
vt 0 0
vt 0.01883841 0.4753574
vt 0.01883841 0.4753574
vt 0.01883841 0.4753574
vt 1 0.4813562
vt 1 0.4813562
vt 0.9755794 1.81301E-15
vt 0.9755794 1.81301E-15
vt 0 0
vt 0 0
vt 0 0
vt 0.004388961 0.04570116
vt 1 0.0441719
vt 0.9900408 1.344911E-16
vt 0.003261467 0
vt 0 0.4919717
vt 1 0.4922866
vt 0.9307759 0
vt 0.07904397 0
vt 0 0.5390844
vt 1 0.5383552
vt 0.9818311 0
vt 0.02585097 0
vt 0 0.09959102
vt 0.9935101 0.1104957
vt 1 0
vt 0.289053 0
vt 0 0.5401031
vt 0.3746103 0.9999999
vt 0.8514328 3.388114E-15
vt 0 0
vt 0.4564446 0.9999999
vt 0.8097594 0.5636905
vt 0.583782 0
vt 0.009959185 1.344911E-16
vt 0 0.04417197
vt 0.9956111 0.04570109
vt 1 0
vt 0.06922413 0
vt 0 0.4922866
vt 1 0.4919717
vt 0.9967386 2.922506E-15
vt 0.01816895 0
vt 0 0.5383553
vt 1 0.5390844
vt 0.920956 0
vt 0 0
vt 0.00648995 0.1104964
vt 1 0.09959037
vt 0.974149 0
vt 0 0
vt 0.4761003 1
vt 0.8501431 0.5396327
vt 0.561528 0
vt 0.2259677 0
vt 0 0.5638415
vt 0.3532996 1
vt 0.8097247 1.67883E-15
vn -0.9997682 0.004379017 0.02108264
vn -0.9999201 0.004292153 -0.01188575
vn -0.9999191 0.0042919 -0.01198025
vn -0.9997682 0.004379005 0.02107815
vn -0.9337307 0.004892058 0.3579428
vn -0.9337168 0.004892065 0.357979
vn 0.005074277 0.999987 0.0005995374
vn 0.004635736 0.9999889 0.0007955267
vn 0.004635736 0.9999889 0.0007955267
vn 0.005293685 0.9999859 0.0005014805
vn 0.01071127 0.9999359 -0.003671572
vn 0.01071751 0.9999359 -0.003654724
vn 0.006970163 0.9999629 -0.005067706
vn 0.007375349 0.9999598 -0.005102555
vn 0.006970163 0.9999629 -0.005067706
vn 0.00753764 0.9999585 -0.005116513
vn 0.01071127 0.9999359 -0.003671572
vn 0.01071751 0.9999359 -0.003654724
vn -0.6629879 0.004672541 0.7486156
vn -0.7232703 0.004796791 0.6905484
vn -0.6629691 0.004672488 0.7486321
vn -0.7232202 0.004796728 0.6906009
vn -0.9337168 0.004892065 0.357979
vn -0.9337307 0.004892058 0.3579428
vn 0.9997182 0.002209972 -0.02363232
vn 0.9996918 0.002253253 -0.0247228
vn 0.9997187 0.002209986 -0.02361155
vn 0.9996916 0.002253269 -0.02473217
vn 0.9327418 0.002591005 -0.3605358
vn 0.9327333 0.002591008 -0.3605576
vn 0.7313663 0.002564748 -0.68198
vn 0.7303446 0.002569414 -0.6830741
vn 0.7303628 0.002569428 -0.6830546
vn 0.7313258 0.002564725 -0.6820235
vn 0.9327333 0.002591008 -0.3605576
vn 0.9327418 0.002591005 -0.3605358
vn -0.711051 0.0004282618 -0.7031402
vn -0.7110509 0.0004282617 -0.7031403
vn -0.711051 0.0004282618 -0.7031402
vn -0.711051 0.0004282618 -0.7031402
vn 0.7303446 0.002569414 -0.6830741
vn 0.9395168 0.002563294 -0.3424931
vn 0.9395168 0.002563294 -0.3424932
vn 0.7303628 0.002569428 -0.6830546
vn -0.6629691 0.004672488 0.7486321
vn -0.3265652 0.003502351 0.9451682
vn -0.3265652 0.003502351 0.9451682
vn -0.6629879 0.004672541 0.7486156
vn 0.00486527 0.9999809 -0.003822493
vn 0.00486517 0.9999809 -0.003826862
vn 0.00486527 0.9999809 -0.003822493
vn 0.004865178 0.9999809 -0.003826496
vn 0.004865076 0.9999808 -0.003830864
vn 0.004865076 0.9999808 -0.003830864
vn -0.933944 0.004896061 0.3573857
vn -0.933944 0.004896061 0.3573857
vn -0.933944 0.004896061 0.3573857
vn -0.933944 0.004896061 0.3573857
vn 0.3100111 0.001887679 -0.950731
vn 0.3100112 0.001887679 -0.950731
vn 0.3100112 0.001887679 -0.950731
vn 0.3100112 0.001887679 -0.950731
vn -0.9997682 0.004379019 -0.02108266
vn -0.9999191 0.004291902 0.01198025
vn -0.9999201 0.004292156 0.01188575
vn -0.9997682 0.004379007 -0.02107817
vn -0.9337307 0.004892059 -0.3579428
vn -0.9337168 0.004892067 -0.3579791
vn 0.005074275 0.999987 -0.0005996154
vn 0.004635735 0.9999889 -0.0007956101
vn 0.004635735 0.9999889 -0.0007956101
vn 0.005293683 0.9999859 -0.0005015557
vn 0.01071127 0.9999359 0.003671573
vn 0.01071751 0.9999359 0.003654726
vn 0.006970165 0.9999629 0.005069249
vn 0.006970165 0.9999629 0.00506925
vn 0.007375351 0.9999598 0.005103899
vn 0.007537642 0.9999585 0.005117777
vn 0.01071127 0.9999359 0.003671573
vn 0.01071751 0.9999359 0.003654726
vn -0.6629879 0.004672545 -0.7486155
vn -0.6629691 0.004672492 -0.7486321
vn -0.7232702 0.004796796 -0.6905485
vn -0.7232202 0.004796733 -0.6906009
vn -0.9337168 0.004892067 -0.3579791
vn -0.9337307 0.004892059 -0.3579428
vn 0.9997182 0.002209981 0.02363232
vn 0.9997187 0.002209994 0.02361155
vn 0.9996918 0.002253266 0.02472279
vn 0.9996916 0.002253282 0.02473217
vn 0.9327418 0.002591026 0.3605357
vn 0.9327333 0.00259103 0.3605576
vn 0.7313663 0.002564737 0.68198
vn 0.7303628 0.002569421 0.6830545
vn 0.7303446 0.002569408 0.683074
vn 0.7313259 0.002564715 0.6820235
vn 0.9327333 0.00259103 0.3605576
vn 0.9327418 0.002591026 0.3605357
vn -0.7110504 0.0004282854 0.7031409
vn -0.7110504 0.0004282853 0.7031409
vn -0.7110505 0.0004282854 0.7031409
vn -0.7110505 0.0004282853 0.7031409
vn 0.7303446 0.002569408 0.683074
vn 0.7303628 0.002569421 0.6830545
vn 0.9395168 0.002563311 0.3424932
vn 0.9395168 0.002563311 0.3424932
vn -0.6629691 0.004672492 -0.7486321
vn -0.6629879 0.004672545 -0.7486155
vn -0.3265657 0.003502354 -0.945168
vn -0.3265657 0.003502354 -0.945168
vn 0.004865258 0.9999809 0.003822498
vn 0.004865257 0.9999809 0.003822498
vn 0.004865168 0.9999809 0.003827487
vn 0.004865176 0.9999809 0.003827069
vn 0.004865085 0.9999808 0.003832058
vn 0.004865086 0.9999808 0.003832059
vn -0.9339442 0.004896048 -0.3573855
vn -0.9339442 0.004896048 -0.3573855
vn -0.9339442 0.004896048 -0.3573855
vn -0.9339442 0.004896048 -0.3573855
vn 0.3100108 0.001887679 0.9507312
vn 0.3100107 0.001887679 0.9507312
vn 0.3100107 0.001887679 0.9507312
vn 0.3100107 0.001887679 0.9507312
vn -0.9999201 0.004292153 -0.01188575
vn -0.9138674 0.00288352 -0.4060027
vn -0.9138674 0.00288352 -0.4060026
vn -0.9999191 0.0042919 -0.01198025
vn 0.02787512 -0.9996113 0.0004117993
vn 0.01774926 -0.9998424 0
vn 0.02799192 -0.9996081 0.000403268
vn 0.01774926 -0.9998424 0
vn 0.02799192 -0.9996081 -0.000403245
vn 0.02787513 -0.9996113 -0.0004117747
vn 0.9997187 0.002209986 -0.02361155
vn 0.8848273 0.001682805 -0.4659161
vn 0.8848273 0.001682805 -0.4659161
vn 0.9997182 0.002209972 -0.02363232
vn -0.001064004 0.9999976 -0.001938413
vn -0.001064006 0.9999995 1.478449E-06
vn -0.001064004 0.9999976 -0.001938413
vn -0.001064006 0.9999995 1.478599E-06
vn -0.001064004 0.9999976 0.00194137
vn -0.001064004 0.9999976 0.00194137
vn 0.9997182 0.002209981 0.02363232
vn 0.8848273 0.001682805 0.4659161
vn 0.8848273 0.001682805 0.4659161
vn 0.9997187 0.002209994 0.02361155
vn -0.9999191 0.004291902 0.01198025
vn -0.9138674 0.00288352 0.4060026
vn -0.9138674 0.00288352 0.4060027
vn -0.9999201 0.004292156 0.01188575
vn 0.02787512 -0.9996113 0.0004117993
vn 0.02799192 -0.9996081 0.000403268
vn 0.02883565 -0.9995841 -0.0003326325
vn 0.02877171 -0.999586 -0.0001778139
vn 0.02877171 -0.999586 -0.0001778139
vn 0.02883565 -0.9995841 -0.0003326325
vn 0.02986904 -0.9994894 -0.01134748
vn 0.02986193 -0.9994894 -0.0113655
vn 0.02986193 -0.9994894 -0.0113655
vn 0.02986904 -0.9994894 -0.01134748
vn 0.02066751 -0.9995858 -0.02002515
vn 0.02035073 -0.999589 -0.02019137
vn 0.02035073 -0.999589 -0.02019137
vn 0.02066751 -0.9995858 -0.02002515
vn 0.01783686 -0.9996526 -0.01940442
vn 0.01770394 -0.9996578 -0.01925978
vn 0.01770394 -0.9996578 -0.01925978
vn 0.01783686 -0.9996526 -0.01940442
vn 0.0101063 -0.999885 -0.01131094
vn 0.01010399 -0.999885 -0.01131328
vn 0.01010399 -0.999885 -0.01131328
vn 0.0101063 -0.999885 -0.01131094
vn 0.009952195 -0.9998847 -0.01146759
vn 0.009952195 -0.9998847 -0.01146759
vn 0.02877172 -0.999586 0.0001778282
vn 0.02883565 -0.9995841 0.0003326464
vn 0.02799192 -0.9996081 -0.000403245
vn 0.02787513 -0.9996113 -0.0004117747
vn 0.02986193 -0.9994894 0.0113655
vn 0.02986906 -0.9994894 0.01134749
vn 0.02883565 -0.9995841 0.0003326464
vn 0.02877172 -0.999586 0.0001778282
vn 0.02035072 -0.999589 0.02019138
vn 0.02066751 -0.9995858 0.02002517
vn 0.02986906 -0.9994894 0.01134749
vn 0.02986193 -0.9994894 0.0113655
vn 0.01770393 -0.9996578 0.01925978
vn 0.01783685 -0.9996526 0.01940442
vn 0.02066751 -0.9995858 0.02002517
vn 0.02035072 -0.999589 0.02019138
vn 0.01010398 -0.999885 0.01131322
vn 0.01010628 -0.999885 0.01131088
vn 0.01783685 -0.9996526 0.01940442
vn 0.01770393 -0.9996578 0.01925978
vn 0.0099522 -0.9998847 0.0114676
vn 0.0099522 -0.9998847 0.0114676
vn 0.01010628 -0.999885 0.01131088
vn 0.01010398 -0.999885 0.01131322
g ENV_sideWall_Col_MO_0
f 3/3/3 2/2/2 1/1/1
f 2/2/2 4/4/4 1/1/1
f 1/1/1 4/4/4 5/5/5
f 4/4/4 6/6/6 5/5/5
f 9/9/9 8/8/8 7/7/7
f 8/8/8 10/10/10 7/7/7
f 7/7/7 10/10/10 11/11/11
f 10/10/10 12/12/12 11/11/11
f 15/15/15 14/14/14 13/13/13
f 14/14/14 16/16/16 13/13/13
f 14/14/14 17/17/17 16/16/16
f 17/17/17 18/18/18 16/16/16
f 21/21/21 20/20/20 19/19/19
f 20/20/20 22/22/22 19/19/19
f 23/23/23 22/22/22 20/20/20
f 24/24/24 23/23/23 20/20/20
f 27/27/27 26/26/26 25/25/25
f 26/26/26 28/28/28 25/25/25
f 26/26/26 29/29/29 28/28/28
f 29/29/29 30/30/30 28/28/28
f 33/33/33 32/32/32 31/31/31
f 32/32/32 34/34/34 31/31/31
f 31/31/31 34/34/34 35/35/35
f 36/36/36 31/31/31 35/35/35
f 39/39/39 38/38/38 37/37/37
f 40/40/40 39/39/39 37/37/37
f 43/43/43 42/42/42 41/41/41
f 44/44/44 43/43/43 41/41/41
f 47/47/47 46/46/46 45/45/45
f 48/48/48 47/47/47 45/45/45
f 51/51/51 50/50/50 49/49/49
f 50/50/50 52/52/52 49/49/49
f 50/50/50 53/53/53 52/52/52
f 53/53/53 54/54/54 52/52/52
f 57/57/57 56/56/56 55/55/55
f 58/58/58 57/57/57 55/55/55
f 61/61/61 60/60/60 59/59/59
f 62/62/62 61/61/61 59/59/59
f 65/65/65 64/64/64 63/63/63
f 66/66/66 65/65/65 63/63/63
f 66/66/66 63/63/63 67/67/67
f 68/68/68 66/66/66 67/67/67
f 71/71/71 70/70/70 69/69/69
f 72/72/72 71/71/71 69/69/69
f 72/72/72 69/69/69 73/73/73
f 74/74/74 72/72/72 73/73/73
f 77/77/77 76/76/76 75/75/75
f 78/78/78 77/77/77 75/75/75
f 79/79/79 77/77/77 78/78/78
f 80/80/80 79/79/79 78/78/78
f 83/83/83 82/82/82 81/81/81
f 84/84/84 83/83/83 81/81/81
f 84/84/84 85/85/85 83/83/83
f 85/85/85 86/86/86 83/83/83
f 89/89/89 88/88/88 87/87/87
f 90/90/90 89/89/89 87/87/87
f 91/91/91 89/89/89 90/90/90
f 92/92/92 91/91/91 90/90/90
f 95/95/95 94/94/94 93/93/93
f 96/96/96 95/95/95 93/93/93
f 96/96/96 93/93/93 97/97/97
f 93/93/93 98/98/98 97/97/97
f 101/101/101 100/100/100 99/99/99
f 102/102/102 101/101/101 99/99/99
f 105/105/105 104/104/104 103/103/103
f 106/106/106 105/105/105 103/103/103
f 109/109/109 108/108/108 107/107/107
f 110/110/110 109/109/109 107/107/107
f 113/113/113 112/112/112 111/111/111
f 114/114/114 113/113/113 111/111/111
f 115/115/115 113/113/113 114/114/114
f 116/116/116 115/115/115 114/114/114
f 119/119/119 118/118/118 117/117/117
f 120/120/120 119/119/119 117/117/117
f 123/123/123 122/122/122 121/121/121
f 124/124/124 123/123/123 121/121/121
f 127/127/127 126/126/126 125/125/125
f 128/128/128 127/127/127 125/125/125
f 131/131/131 130/130/130 129/129/129
f 130/130/130 132/132/132 129/129/129
f 132/132/132 130/130/130 133/133/133
f 134/134/134 132/132/132 133/133/133
f 137/137/137 136/136/136 135/135/135
f 138/138/138 137/137/137 135/135/135
f 141/141/141 140/140/140 139/139/139
f 140/140/140 142/142/142 139/139/139
f 142/142/142 140/140/140 143/143/143
f 144/144/144 142/142/142 143/143/143
f 147/147/147 146/146/146 145/145/145
f 148/148/148 147/147/147 145/145/145
f 151/151/151 150/150/150 149/149/149
f 152/152/152 151/151/151 149/149/149
f 155/155/155 154/154/154 153/153/153
f 156/156/156 155/155/155 153/153/153
f 159/159/159 158/158/158 157/157/157
f 160/160/160 159/159/159 157/157/157
f 163/163/163 162/162/162 161/161/161
f 164/164/164 163/163/163 161/161/161
f 167/167/167 166/166/166 165/165/165
f 168/168/168 167/167/167 165/165/165
f 171/171/171 170/170/170 169/169/169
f 172/172/172 171/171/171 169/169/169
f 175/175/175 174/174/174 173/173/173
f 176/176/176 175/175/175 173/173/173
f 179/179/179 178/178/178 177/177/177
f 180/180/180 179/179/179 177/177/177
f 183/183/183 182/182/182 181/181/181
f 184/184/184 183/183/183 181/181/181
f 187/187/187 186/186/186 185/185/185
f 188/188/188 187/187/187 185/185/185
f 191/191/191 190/190/190 189/189/189
f 192/192/192 191/191/191 189/189/189
f 195/195/195 194/194/194 193/193/193
f 196/196/196 195/195/195 193/193/193
f 199/199/199 198/198/198 197/197/197
f 200/200/200 199/199/199 197/197/197
