g ENV_BLO_Trip_20
v 10.00417 0.7198594 0.986007
v -9.999388 0.7498533 0.9494234
v 10.00417 0.7498533 0.9494234
v -9.999388 0.7198594 0.986007
v -9.999388 0.6498634 1
v 10.00417 0.6498634 1
v -9.999388 0.06554627 1
v 10.00417 0.06554627 1
v 10.00417 0.01964309 0.9809863
v -9.999388 0.01964309 0.9809863
v 10.00417 0.0006293654 0.9350831
v -9.999388 0.0006293654 0.9350831
v 10.00417 0.7498533 -0.9494234
v -9.999388 0.7498533 -0.9494234
v -9.999388 0.7198594 -0.986007
v 10.00417 0.7198594 -0.986007
v 10.00417 0.6498634 -1
v -9.999388 0.6498634 -1
v -9.999388 0.06554627 -1
v 10.00417 0.06554627 -1
v -9.999388 0.01964309 -0.9809863
v 10.00417 0.01964309 -0.9809863
v -9.999388 0.0006293654 -0.9350831
v 10.00417 0.0006293654 -0.9350831
v 10.00417 0.0006293654 0.9350831
v -9.999388 0.0006293654 0.9350831
vt 0.8435916 0.5128117
vt 0.2216528 0.5164567
vt 0.8435955 0.5142826
vt 0.2216745 0.5141372
vt 0.2216699 0.5119181
vt 0.8435858 0.5105924
vt 0.2216319 0.4937522
vt 0.8435415 0.4924253
vt 0.8435377 0.4908806
vt 0.2216287 0.4922075
vt 0.8435344 0.4893358
vt 0.2216255 0.4906629
vt 0.84376 0.5733159
vt 0.2218569 0.575493
vt 0.2218621 0.5769637
vt 0.8437644 0.5747869
vt 0.8437707 0.577006
vt 0.2218696 0.5791829
vt 0.2219333 0.5973467
vt 0.843827 0.5951736
vt 0.2219387 0.5988913
vt 0.843832 0.5967184
vt 0.2219439 0.6004359
vt 0.8438368 0.598263
vt 0.8440351 0.6564014
vt 0.2221464 0.6585793
vn 0 0.4513616 0.8923411
vn 0 0.99988 0.0154954
vn 0 0.99988 0.0154954
vn 0 0.4513616 0.8923411
vn 0 0.02138085 0.9997714
vn 0 0.02138085 0.9997714
vn 0 -0.03015621 0.9995452
vn 0 -0.03015621 0.9995452
vn 0 -0.7071068 0.7071068
vn 0 -0.7071068 0.7071068
vn 0 -0.9999508 0.009922804
vn 0 -0.9999508 0.009922804
vn 0 0.99988 -0.0154954
vn 0 0.99988 -0.0154954
vn 0 0.4513616 -0.8923411
vn 0 0.4513616 -0.8923411
vn 0 0.02138085 -0.9997714
vn 0 0.02138085 -0.9997714
vn 0 -0.03015621 -0.9995452
vn 0 -0.03015621 -0.9995452
vn 0 -0.7071068 -0.7071068
vn 0 -0.7071068 -0.7071068
vn 0 -0.9999508 -0.009922804
vn 0 -0.9999508 -0.009922804
vn 0 -0.9999508 0.009922804
vn 0 -0.9999508 0.009922804
g ENV_BLO_Trip_20_0
f 3/3/3 2/2/2 1/1/1
f 2/2/2 4/4/4 1/1/1
f 4/4/4 5/5/5 1/1/1
f 5/5/5 6/6/6 1/1/1
f 5/5/5 7/7/7 6/6/6
f 7/7/7 8/8/8 6/6/6
f 8/8/8 7/7/7 9/9/9
f 7/7/7 10/10/10 9/9/9
f 9/9/9 10/10/10 11/11/11
f 10/10/10 12/12/12 11/11/11
f 15/15/15 14/14/14 13/13/13
f 16/16/16 15/15/15 13/13/13
f 15/15/15 16/16/16 17/17/17
f 18/18/18 15/15/15 17/17/17
f 19/19/19 18/18/18 17/17/17
f 20/20/20 19/19/19 17/17/17
f 21/21/21 19/19/19 20/20/20
f 22/22/22 21/21/21 20/20/20
f 23/23/23 21/21/21 22/22/22
f 24/24/24 23/23/23 22/22/22
f 23/23/23 24/24/24 25/25/25
f 26/26/26 23/23/23 25/25/25
g ENV_BLO_Trip_20_1
f 2/2/2 3/3/3 13/13/13
f 14/14/14 2/2/2 13/13/13
