g ENV_BLO_Wall_12
v -11.91143 0.02914135 0.8955526
v -11.8985 0.04207151 0.9529759
v -11.84107 0.02914135 0.965906
v -11.84107 0 0.8955526
v -11.91143 0.02914135 -0.8955526
v 11.84107 0 0.8955526
v 11.84107 0.02914135 0.965906
v -11.84107 0 -0.8955526
v 11.91143 0.02914135 0.8955526
v 11.8985 0.04207151 0.9529759
v -11.84107 0.02914135 -0.965906
v -11.8985 0.04207151 -0.9529759
v 11.84107 0.02914135 -0.965906
v 11.84107 0 -0.8955526
v 11.91143 0.02914135 -0.8955526
v 11.8985 0.04207151 -0.9529759
v 11.91143 0.09949479 -0.965906
v 11.91143 0.09949479 0.965906
v 11.84107 0.02914135 0.965906
v 11.94057 0.09949479 -0.8955526
v 11.91143 3.895991 -0.965906
v 11.94057 0.09949479 0.8955526
v 11.94057 3.895991 0.8955526
v 11.94057 3.895991 -0.8955526
v 11.91143 3.966344 -0.8955526
v 11.8985 3.953414 -0.9529759
v 11.84107 3.966344 -0.965906
v 11.91143 3.966344 0.8955526
v 11.91143 3.895991 0.965906
v 11.84107 0.09949479 0.9950474
v -11.84107 0.09949479 0.9950474
v -11.84107 0.02914135 0.965906
v 11.84107 3.895991 0.9950474
v -11.91143 0.09949479 0.965906
v -11.8985 0.04207151 0.9529759
v -11.84107 3.895991 0.9950474
v -11.91143 0.02914135 0.8955526
v 11.84107 3.966344 0.965906
v 11.8985 3.953414 0.9529759
v -11.84107 3.966344 0.965906
v 11.84107 3.966344 0.965906
v -11.91143 3.895991 0.965906
v -11.8985 3.953414 0.9529759
v -11.91143 3.966344 0.8955526
v -11.94057 0.09949479 0.8955526
v -11.94057 3.895991 0.8955526
v -11.91143 3.966344 -0.8955526
v -11.94057 0.09949479 -0.8955526
v -11.91143 0.02914135 -0.8955526
v 11.84107 3.995486 0.8955526
v -11.94057 3.895991 -0.8955526
v -11.91143 0.09949479 -0.965906
v -11.8985 0.04207151 -0.9529759
v -11.84107 0.02914135 -0.965906
v -11.91143 3.895991 -0.965906
v -11.8985 3.953414 -0.9529759
v -11.84107 3.966344 -0.965906
v -11.84107 3.995486 0.8955526
v -11.84107 3.966344 0.965906
v -11.84107 0.09949479 -0.9950474
v -11.84107 3.895991 -0.9950474
v 11.84107 0.09949479 -0.9950474
v 11.84107 3.966344 -0.965906
v 11.84107 0.02914135 -0.965906
v 11.84107 3.895991 -0.9950474
v 11.91143 0.09949479 -0.965906
v 11.8985 0.04207151 -0.9529759
v 11.91143 3.895991 -0.965906
v 11.8985 3.953414 -0.9529759
v -11.8985 3.953414 0.9529759
v -11.91143 3.966344 0.8955526
v -11.84107 3.995486 -0.8955526
v -11.91143 3.966344 -0.8955526
v 11.84107 3.995486 -0.8955526
v -11.84107 3.966344 -0.965906
v -11.8985 3.953414 -0.9529759
vt 1.119876 0.6390276
vt 1.118186 0.6396101
vt 1.118217 0.6413516
vt 1.120219 0.6410286
vt 1.167013 0.6314068
vt 1.220832 1.263495
vt 1.218831 1.263819
vt 1.167329 0.6334099
vt 1.221053 1.265073
vt 1.219468 1.265132
vt 1.169332 0.6330855
vt 1.168723 0.6314304
vt 1.270056 1.256351
vt 1.268048 1.256672
vt 1.268378 1.259088
vt 1.270276 1.258848
vt 1.270838 1.261419
vt 1.219349 1.266639
vt 1.217484 1.264506
vt 1.268693 1.261506
vt 1.27396 1.367916
vt 1.221262 1.266665
vt 1.220593 1.37102
vt 1.271822 1.367971
vt 1.271981 1.369959
vt 1.273691 1.36983
vt 1.274347 1.371768
vt 1.220668 1.373345
vt 1.218369 1.371042
vt 1.21743 1.266599
vt 0.5662917 1.250319
vt 0.5663674 1.248222
vt 1.216139 1.371045
vt 0.5641054 1.25013
vt 0.5680391 1.244963
vt 0.5630996 1.356042
vt 0.5641756 1.230972
vt 1.216093 1.373148
vt 1.218482 1.373262
vt 0.5630499 1.358144
vt 1.218578 1.375862
vt 0.5609073 1.356118
vt 0.5609683 1.357953
vt 0.5587584 1.358452
vt 0.5617428 1.250095
vt 0.5587097 1.356194
vt 0.5058445 1.358886
vt 0.5051198 1.247326
vt 0.5045342 1.244802
vt 1.220769 1.375691
vt 0.5058587 1.356624
vt 0.5029811 1.24736
vt 0.502768 1.245563
vt 0.5008499 1.245203
vt 0.5036222 1.356615
vt 0.503598 1.358502
vt 0.5013918 1.358797
vt 1.274998 2.056176
vt 1.27281 2.056351
vt 0.5008507 1.24739
vt 0.5013878 1.356607
vt -0.1793473 1.248068
vt -0.1792469 1.35933
vt -0.1793499 1.245881
vt -0.179248 1.357142
vt -0.1815343 1.248064
vt -0.181177 1.246201
vt -0.1814347 1.357146
vt -0.1810854 1.358962
vt 1.273294 2.058193
vt 1.27516 2.058365
vt 1.326454 2.052076
vt 1.326645 2.054264
vt 1.27216 1.371944
vt 1.328641 2.051903
vt 1.328494 2.053786
vn -0.7070674 -0.7070671 0.01057058
vn -0.5773507 -0.5773523 0.5773477
vn -0.000820666 -0.7071066 0.7071064
vn -0.001210732 -0.999877 0.01563762
vn -0.7070673 -0.7070671 -0.01057051
vn 0.001210731 -0.999877 0.01563762
vn 0.0008206607 -0.7071066 0.7071064
vn -0.001210731 -0.999877 -0.01563762
vn 0.7070673 -0.7070671 0.01057051
vn 0.5773502 -0.5773534 0.5773473
vn -0.0008206607 -0.7071066 -0.7071064
vn -0.5773502 -0.5773534 -0.5773473
vn 0.000820666 -0.7071066 -0.7071064
vn 0.001210732 -0.999877 -0.01563762
vn 0.7070674 -0.7070671 -0.01057058
vn 0.5773507 -0.5773523 -0.5773477
vn 0.7070971 -0.005061833 -0.7070982
vn 0.7070971 -0.005061848 0.7070982
vn 0.0008206607 -0.7071066 0.7071064
vn 0.9998513 -0.007437878 -0.01555716
vn 0.7070972 0.005061847 -0.7070982
vn 0.9998513 -0.00743788 0.01555716
vn 0.9998513 0.007437879 0.01555716
vn 0.9998513 0.00743788 -0.01555716
vn 0.707067 0.7070675 -0.01057051
vn 0.5773507 0.5773542 -0.5773458
vn 0.0008206622 0.7071071 -0.7071059
vn 0.707067 0.7070674 0.01057058
vn 0.7070972 0.00506183 0.7070982
vn 0.00121914 -0.007528374 0.9999709
vn -0.00121914 -0.007528374 0.9999709
vn -0.000820666 -0.7071066 0.7071064
vn 0.00121914 0.007528374 0.9999709
vn -0.7070971 -0.005061833 0.7070982
vn -0.5773507 -0.5773523 0.5773477
vn -0.00121914 0.007528374 0.9999709
vn -0.7070674 -0.7070671 0.01057058
vn 0.0008206681 0.7071071 0.7071059
vn 0.5773513 0.5773532 0.5773463
vn -0.0008206622 0.7071071 0.7071059
vn 0.0008206681 0.7071071 0.7071059
vn -0.7070972 0.005061847 0.7070982
vn -0.5773507 0.5773542 0.5773458
vn -0.707067 0.7070675 0.01057051
vn -0.9998513 -0.007437878 0.01555716
vn -0.9998513 0.00743788 0.01555716
vn -0.707067 0.7070674 -0.01057058
vn -0.9998513 -0.00743788 -0.01555716
vn -0.7070673 -0.7070671 -0.01057051
vn 0.001210735 0.999877 0.01563767
vn -0.9998513 0.007437879 -0.01555716
vn -0.7070971 -0.005061848 -0.7070982
vn -0.5773502 -0.5773534 -0.5773473
vn -0.0008206607 -0.7071066 -0.7071064
vn -0.7070972 0.00506183 -0.7070982
vn -0.5773513 0.5773532 -0.5773463
vn -0.0008206681 0.7071071 -0.7071059
vn -0.001210735 0.999877 0.01563767
vn -0.0008206622 0.7071071 0.7071059
vn -0.00121914 -0.007528374 -0.9999709
vn -0.00121914 0.007528374 -0.9999709
vn 0.00121914 -0.007528374 -0.9999709
vn 0.0008206622 0.7071071 -0.7071059
vn 0.000820666 -0.7071066 -0.7071064
vn 0.00121914 0.007528374 -0.9999709
vn 0.7070971 -0.005061833 -0.7070982
vn 0.5773507 -0.5773523 -0.5773477
vn 0.7070972 0.005061847 -0.7070982
vn 0.5773507 0.5773542 -0.5773458
vn -0.5773507 0.5773542 0.5773458
vn -0.707067 0.7070675 0.01057051
vn -0.001210735 0.999877 -0.01563767
vn -0.707067 0.7070674 -0.01057058
vn 0.001210735 0.999877 -0.01563767
vn -0.0008206681 0.7071071 -0.7071059
vn -0.5773513 0.5773532 -0.5773463
g ENV_BLO_Wall_12_0
f 3/3/3 2/2/2 1/1/1
f 4/4/4 3/3/3 1/1/1
f 1/1/1 5/5/5 4/4/4
f 4/4/4 6/6/6 3/3/3
f 6/6/6 7/7/7 3/3/3
f 5/5/5 8/8/8 4/4/4
f 6/6/6 4/4/4 8/8/8
f 6/6/6 9/9/9 7/7/7
f 9/9/9 10/10/10 7/7/7
f 8/8/8 5/5/5 11/11/11
f 5/5/5 12/12/12 11/11/11
f 11/11/11 13/13/13 8/8/8
f 14/14/14 6/6/6 8/8/8
f 13/13/13 14/14/14 8/8/8
f 6/6/6 14/14/14 9/9/9
f 14/14/14 13/13/13 15/15/15
f 14/14/14 15/15/15 9/9/9
f 13/13/13 16/16/16 15/15/15
f 15/15/15 16/16/16 17/17/17
f 18/18/18 10/10/10 9/9/9
f 19/19/19 10/10/10 18/18/18
f 20/20/20 15/15/15 17/17/17
f 17/17/17 21/21/21 20/20/20
f 9/9/9 15/15/15 22/22/22
f 22/22/22 18/18/18 9/9/9
f 15/15/15 20/20/20 22/22/22
f 23/23/23 22/22/22 20/20/20
f 22/22/22 23/23/23 18/18/18
f 21/21/21 24/24/24 20/20/20
f 24/24/24 23/23/23 20/20/20
f 24/24/24 21/21/21 25/25/25
f 21/21/21 26/26/26 25/25/25
f 25/25/25 26/26/26 27/27/27
f 23/23/23 24/24/24 28/28/28
f 24/24/24 25/25/25 28/28/28
f 23/23/23 29/29/29 18/18/18
f 23/23/23 28/28/28 29/29/29
f 30/30/30 19/19/19 18/18/18
f 18/18/18 29/29/29 30/30/30
f 19/19/19 30/30/30 31/31/31
f 32/32/32 19/19/19 31/31/31
f 29/29/29 33/33/33 30/30/30
f 31/31/31 34/34/34 32/32/32
f 34/34/34 35/35/35 32/32/32
f 31/31/31 36/36/36 34/34/34
f 37/37/37 35/35/35 34/34/34
f 33/33/33 29/29/29 38/38/38
f 29/29/29 39/39/39 38/38/38
f 28/28/28 39/39/39 29/29/29
f 33/33/33 38/38/38 40/40/40
f 36/36/36 33/33/33 40/40/40
f 41/41/41 39/39/39 28/28/28
f 36/36/36 40/40/40 42/42/42
f 36/36/36 42/42/42 34/34/34
f 40/40/40 43/43/43 42/42/42
f 42/42/42 43/43/43 44/44/44
f 45/45/45 37/37/37 34/34/34
f 34/34/34 42/42/42 45/45/45
f 46/46/46 42/42/42 44/44/44
f 42/42/42 46/46/46 45/45/45
f 44/44/44 47/47/47 46/46/46
f 45/45/45 48/48/48 37/37/37
f 45/45/45 46/46/46 48/48/48
f 48/48/48 49/49/49 37/37/37
f 50/50/50 41/41/41 28/28/28
f 28/28/28 25/25/25 50/50/50
f 47/47/47 51/51/51 46/46/46
f 46/46/46 51/51/51 48/48/48
f 48/48/48 52/52/52 49/49/49
f 48/48/48 51/51/51 52/52/52
f 52/52/52 53/53/53 49/49/49
f 54/54/54 53/53/53 52/52/52
f 51/51/51 47/47/47 55/55/55
f 51/51/51 55/55/55 52/52/52
f 47/47/47 56/56/56 55/55/55
f 55/55/55 56/56/56 57/57/57
f 41/41/41 50/50/50 58/58/58
f 59/59/59 41/41/41 58/58/58
f 60/60/60 54/54/54 52/52/52
f 52/52/52 55/55/55 60/60/60
f 61/61/61 55/55/55 57/57/57
f 55/55/55 61/61/61 60/60/60
f 60/60/60 62/62/62 54/54/54
f 57/57/57 63/63/63 61/61/61
f 62/62/62 64/64/64 54/54/54
f 63/63/63 65/65/65 61/61/61
f 62/62/62 66/66/66 64/64/64
f 62/62/62 65/65/65 66/66/66
f 66/66/66 67/67/67 64/64/64
f 65/65/65 68/68/68 66/66/66
f 65/65/65 63/63/63 68/68/68
f 63/63/63 69/69/69 68/68/68
f 71/71/71 70/70/70 59/59/59
f 58/58/58 71/71/71 59/59/59
f 58/58/58 72/72/72 71/71/71
f 72/72/72 73/73/73 71/71/71
f 74/74/74 72/72/72 58/58/58
f 50/50/50 74/74/74 58/58/58
f 25/25/25 74/74/74 50/50/50
f 74/74/74 25/25/25 27/27/27
f 74/74/74 27/27/27 75/75/75
f 72/72/72 74/74/74 75/75/75
f 72/72/72 75/75/75 73/73/73
f 75/75/75 76/76/76 73/73/73
g ENV_BLO_Wall_12_1
f 61/61/61 65/65/65 62/62/62
f 60/60/60 61/61/61 62/62/62
f 36/36/36 31/31/31 30/30/30
f 33/33/33 36/36/36 30/30/30
