g ENV_CornerRamp_02
v -2.51072 0 0
v -11 0 0
v -2.51072 5 0
v 0 0 0
v 0 5 0
v -11 0 0
v 0 0 -11
v 0 5 -2.537927
v -2.51072 5 0
v 0 5 0
v 0 0 0
v 0 5 0
v 0 5 -2.537927
v 0 0 -2.537927
v 0 0 -11
v -2.51072 0 0
v 0 0 -11
v -11 0 0
v 0 0 -2.537927
v 0 0 0
vt 0.499464 0
vt 0.375 0.25
vt 0.499464 0.25
vt 0.625 0
vt 0.625 0.25
vt 0.375 0.25
vt 0.625 0.5
vt 0.625 0.3768964
vt 0.499464 0.25
vt 0.625 0.25
vt 0.625 0
vt 0.625 0.25
vt 0.7518963 0.25
vt 0.7518963 0
vt 0.875 0.25
vt 0.499464 1
vt 0.625 0.5
vt 0.375 0.25
vt 0.625 0.8731036
vt 0.625 1
vn 0 0 1
vn 0 0 1
vn 0 0 1
vn 0 0 1
vn 0 0 1
vn -0.4534364 0.7678649 -0.4525251
vn -0.4534364 0.7678649 -0.4525251
vn -0.4482756 0.7738895 -0.4473747
vn -0.4481871 0.7739919 -0.4472863
vn 0 1 0
vn 1 0 0
vn 1 0 0
vn 1 0 0
vn 1 0 0
vn 1 0 0
vn 0 -1 0
vn 0 -1 0
vn 0 -1 0
vn 0 -1 0
vn 0 -1 0
g ENV_CornerRamp_02_0
f 3/3/3 2/2/2 1/1/1
f 1/1/1 4/4/4 3/3/3
f 4/4/4 5/5/5 3/3/3
f 8/8/8 7/7/7 6/6/6
f 9/9/9 8/8/8 6/6/6
f 9/9/9 10/10/10 8/8/8
f 13/13/13 12/12/12 11/11/11
f 14/14/14 13/13/13 11/11/11
f 14/14/14 15/15/15 13/13/13
f 18/18/18 17/17/17 16/16/16
f 17/17/17 19/19/19 16/16/16
f 19/19/19 20/20/20 16/16/16
