g Floor_01_COL
v -17.85914 65.52064 9.020817
v -8.838173 47.81804 9.020458
v -13.39934 44.99999 9.020458
v 13.28737 12.00642 9.020696
v 37.66884 0 9.020817
v 13.21722 0 9.020682
v -6.700157 48.52943 1.400459
v -19.60751 64.64391 1.40081
v -15.4723 42.69506 1.400459
v 37.66888 -3.100586E-05 1.400817
v 13.2874 12.00639 1.400696
v 13.21727 9.301758E-06 1.400684
v 19.60751 64.64391 1.40081
v -1.112271E-12 66.26285 1.400817
v 5.559636 48.67096 1.400459
v -16.59369 41.79931 9.020458
v -15.4723 42.69506 1.400459
v -18.49634 38.98057 9.020458
v -13.39934 44.99999 9.020458
v -16.59369 41.79931 9.020458
v -8.838173 47.81804 9.020458
v -6.700157 48.52943 1.400459
v 8.838173 47.81804 9.020458
v 5.559636 48.67096 1.400459
v 4.562059 49.24055 9.020459
v 4.562059 49.24055 9.020459
v 0 49.80664 9.02046
v 17.85914 65.52064 9.020817
v 19.60751 64.64391 1.40081
v 21.35578 63.76693 9.020802
v 18.49634 38.98057 9.020458
v 18.94367 37.59583 1.400459
v 16.59369 41.79931 9.020458
v 21.25662 30.18954 9.020452
v 21.25669 30.18953 1.400452
v 20.34187 34.80155 9.020459
v 18.49634 38.98057 9.020458
v -37.66884 0 9.020817
v -39.53524 32.10818 9.020772
v -21.25662 30.18954 9.020452
v -21.06838 24.76022 9.020655
v -19.66751 20.05494 9.020681
v -16.86233 15.29568 9.020678
v -13.28737 12.00642 9.020696
v -13.21722 0 9.020682
v -17.85914 65.52064 9.020817
v -4.562059 49.24055 9.020459
v -8.838173 47.81804 9.020458
v 0 66.26268 9.020817
v 0 49.80664 9.02046
v -13.39934 44.99999 9.020458
v -21.35578 63.76693 9.020802
v -17.85914 65.52064 9.020817
v -16.59369 41.79931 9.020458
v -18.49634 38.98057 9.020458
v -20.34187 34.80155 9.020459
v -21.25662 30.18954 9.020452
v -39.53524 32.10818 9.020772
v 37.66884 0 9.020817
v 21.25662 30.18954 9.020452
v 39.53524 32.10818 9.020772
v 21.06838 24.76022 9.020655
v 19.66751 20.05494 9.020681
v 16.86233 15.29568 9.020678
v 13.28737 12.00642 9.020696
v 17.85914 65.52064 9.020817
v 8.838173 47.81804 9.020458
v 4.562059 49.24055 9.020459
v 0 66.26268 9.020817
v 0 49.80664 9.02046
v 21.25662 30.18954 9.020452
v 21.35578 63.76693 9.020802
v 39.53524 32.10818 9.020772
v 20.34187 34.80155 9.020459
v 18.49634 38.98057 9.020458
v 16.59369 41.79931 9.020458
v 13.39934 44.99999 9.020458
v 17.85914 65.52064 9.020817
v 8.838173 47.81804 9.020458
v -20.79943 32.49558 1.400456
v -39.53537 32.10821 1.400772
v -37.66888 -3.100586E-05 1.400817
v -21.06814 24.76 1.400655
v -18.26494 17.67528 1.40068
v -13.2874 12.00639 1.400696
v -13.21727 9.301758E-06 1.400684
v 5.559636 48.67096 1.400459
v -1.112271E-12 66.26285 1.400817
v -6.700157 48.52943 1.400459
v -19.60751 64.64391 1.40081
v -19.60751 64.64391 1.40081
v -39.53537 32.10821 1.400772
v -20.79943 32.49558 1.400456
v -15.4723 42.69506 1.400459
v 21.25669 30.18953 1.400452
v 37.66888 -3.100586E-05 1.400817
v 39.53537 32.10821 1.400772
v 21.06814 24.76 1.400655
v 18.26494 17.67528 1.40068
v 13.2874 12.00639 1.400696
v 19.60751 64.64391 1.40081
v 21.25669 30.18953 1.400452
v 39.53537 32.10821 1.400772
v 18.94367 37.59583 1.400459
v 13.39943 45.0001 1.400459
v 5.559636 48.67096 1.400459
v -21.25662 30.18954 9.020452
v -20.79943 32.49558 1.400456
v -21.06814 24.76 1.400655
v -21.06838 24.76022 9.020655
v -18.26494 17.67528 1.40068
v -19.66751 20.05494 9.020681
v -16.86233 15.29568 9.020678
v -37.66884 0 9.020817
v -37.66888 -3.100586E-05 1.400817
v -39.53537 32.10821 1.400772
v -39.53524 32.10818 9.020772
v -16.86233 15.29568 9.020678
v -18.26494 17.67528 1.40068
v -13.2874 12.00639 1.400696
v -13.28737 12.00642 9.020696
v -13.21722 0 9.020682
v -13.21727 9.301758E-06 1.400684
v -37.66888 -3.100586E-05 1.400817
v -37.66884 0 9.020817
v -13.28737 12.00642 9.020696
v -13.2874 12.00639 1.400696
v -13.21727 9.301758E-06 1.400684
v -13.21722 0 9.020682
v -4.562059 49.24055 9.020459
v -6.700157 48.52943 1.400459
v -8.838173 47.81804 9.020458
v 0 49.80664 9.02046
v 5.559636 48.67096 1.400459
v -21.35578 63.76693 9.020802
v -19.60751 64.64391 1.40081
v -17.85914 65.52064 9.020817
v -39.53524 32.10818 9.020772
v -39.53537 32.10821 1.400772
v -20.34187 34.80155 9.020459
v -20.79943 32.49558 1.400456
v -21.25662 30.18954 9.020452
v -18.49634 38.98057 9.020458
v -15.4723 42.69506 1.400459
v -17.85914 65.52064 9.020817
v -19.60751 64.64391 1.40081
v -1.112271E-12 66.26285 1.400817
v 0 66.26268 9.020817
v 19.60751 64.64391 1.40081
v 17.85914 65.52064 9.020817
v 39.53524 32.10818 9.020772
v 39.53537 32.10821 1.400772
v 37.66888 -3.100586E-05 1.400817
v 37.66884 0 9.020817
v 21.06838 24.76022 9.020655
v 21.25669 30.18953 1.400452
v 21.25662 30.18954 9.020452
v 21.06814 24.76 1.400655
v 19.66751 20.05494 9.020681
v 18.26494 17.67528 1.40068
v 13.28737 12.00642 9.020696
v 13.2874 12.00639 1.400696
v 18.26494 17.67528 1.40068
v 16.86233 15.29568 9.020678
v 19.66751 20.05494 9.020681
v 13.21722 0 9.020682
v 13.21727 9.301758E-06 1.400684
v 13.2874 12.00639 1.400696
v 13.28737 12.00642 9.020696
v 37.66884 0 9.020817
v 37.66888 -3.100586E-05 1.400817
v 13.21727 9.301758E-06 1.400684
v 13.21722 0 9.020682
v 21.35578 63.76693 9.020802
v 19.60751 64.64391 1.40081
v 39.53537 32.10821 1.400772
v 39.53524 32.10818 9.020772
v 16.59369 41.79931 9.020458
v 18.94367 37.59583 1.400459
v 13.39943 45.0001 1.400459
v 13.39934 44.99999 9.020458
v 5.559636 48.67096 1.400459
v 8.838173 47.81804 9.020458
vt 0.4656833 0.9939579
vt 0.2637931 0.509397
vt 0.3058092 0.5089564
vt 0.4847186 0.2136017
vt 0.01019085 0.3208541
vt 0.4842494 0.2908148
vt 0.2637931 0.509397
vt 0.4074593 0.9934714
vt 0.3058092 0.5089564
vt 0.01019085 0.3208541
vt 0.4847186 0.2136017
vt 0.4842494 0.2908148
vt 0.1792867 0.9955574
vt 0.3153996 0.9955574
vt 0.2411024 0.5042134
vt 0.2605787 0.5090274
vt 0.3058092 0.5089564
vt 0.2605787 0.5090274
vt 0.3058092 0.5089564
vt 0.3058092 0.5089564
vt 0.2637931 0.509397
vt 0.2637931 0.509397
vt 0.2411024 0.5042134
vt 0.2411024 0.5042134
vt 0.2411024 0.5042134
vt 0.2715484 0.5042051
vt 0.2715484 0.5042051
vt 0.2910111 0.9924984
vt 0.2910111 0.9924984
vt 0.2910111 0.9924984
vt 0.2605787 0.5090274
vt 0.2126026 0.5089679
vt 0.2605787 0.5090274
vt 0.263793 0.509397
vt 0.263793 0.509397
vt 0.2126026 0.5089679
vt 0.2126026 0.5089679
vt 0.01019085 0.3208541
vt 0.01011531 0.4899078
vt 0.4842494 0.2908148
vt 0.4834377 0.410432
vt 0.4836431 0.3111237
vt 0.4840832 0.2716711
vt 0.4847186 0.2136017
vt 0.4862715 0.009652915
vt 0.1792867 0.9955574
vt 0.1582895 0.5042046
vt 0.08887184 0.5042548
vt 0.3153996 0.9955574
vt 0.2106563 0.5042216
vt 0.3058092 0.5089564
vt 0.4074593 0.9934714
vt 0.4656833 0.9939579
vt 0.2605787 0.5090274
vt 0.2293901 0.508996
vt 0.115031 0.5091298
vt 0.06543551 0.5093511
vt 0.06545619 0.9920119
vt 0.01019085 0.3208541
vt 0.4837822 0.4889546
vt 0.01011531 0.4899078
vt 0.4834377 0.410432
vt 0.4832031 0.3505763
vt 0.4836431 0.3111237
vt 0.4847186 0.2136017
vt 0.1792867 0.9955574
vt 0.2411024 0.5042134
vt 0.2715484 0.5042051
vt 0.3153996 0.9955574
vt 0.3153897 0.5042557
vt 0.263793 0.509397
vt 0.232787 0.9920119
vt 0.06545619 0.9920119
vt 0.2126026 0.5089679
vt 0.2605787 0.5090274
vt 0.2917672 0.5090589
vt 0.3510397 0.5088854
vt 0.2910111 0.9924984
vt 0.4804991 0.5111821
vt 0.4842494 0.2908148
vt 0.01011531 0.4899078
vt 0.01019085 0.3208541
vt 0.4834377 0.410432
vt 0.4836431 0.3111237
vt 0.4847186 0.2136017
vt 0.4862715 0.009652915
vt 0.2106563 0.5042216
vt 0.3153996 0.9955574
vt 0.1582895 0.5042046
vt 0.1792867 0.9955574
vt 0.4074593 0.9934714
vt 0.06545619 0.9920119
vt 0.115031 0.5091298
vt 0.3058092 0.5089564
vt 0.4837822 0.4889546
vt 0.01019085 0.3208541
vt 0.01011531 0.4899078
vt 0.4834377 0.410432
vt 0.4836431 0.3111237
vt 0.4847186 0.2136017
vt 0.2910111 0.9924984
vt 0.263793 0.509397
vt 0.06545619 0.9920119
vt 0.2126026 0.5089679
vt 0.3510397 0.5088854
vt 0.4804991 0.5111821
vt 0.4842494 0.2908148
vt 0.4842494 0.2908148
vt 0.4834377 0.410432
vt 0.4834377 0.410432
vt 0.4836431 0.3111237
vt 0.4836431 0.3111237
vt 0.4836431 0.3111237
vt 0.01019085 0.3208541
vt 0.01019085 0.3208541
vt 0.01011531 0.4899078
vt 0.01011531 0.4899078
vt 0.4840832 0.2716711
vt 0.4836431 0.3111237
vt 0.4847186 0.2136017
vt 0.4847186 0.2136017
vt 0.4862715 0.009652915
vt 0.4862715 0.009652915
vt 0.01019085 0.3208541
vt 0.01019085 0.3208541
vt 0.4847186 0.2136017
vt 0.4847186 0.2136017
vt 0.4862715 0.009652915
vt 0.4862715 0.009652915
vt 0.1582895 0.5042046
vt 0.1582895 0.5042046
vt 0.1582895 0.5042046
vt 0.2106563 0.5042216
vt 0.2106563 0.5042216
vt 0.4074593 0.9934714
vt 0.4074593 0.9934714
vt 0.4074593 0.9934714
vt 0.06545619 0.9920119
vt 0.06545619 0.9920119
vt 0.115031 0.5091298
vt 0.115031 0.5091298
vt 0.115031 0.5091298
vt 0.2293901 0.508996
vt 0.3058092 0.5089564
vt 0.1792867 0.9955574
vt 0.1792867 0.9955574
vt 0.3153996 0.9955574
vt 0.3153996 0.9955574
vt 0.1792867 0.9955574
vt 0.1792867 0.9955574
vt 0.01011531 0.4899078
vt 0.01011531 0.4899078
vt 0.01019085 0.3208541
vt 0.01019085 0.3208541
vt 0.4834377 0.410432
vt 0.4837822 0.4889546
vt 0.4837822 0.4889546
vt 0.4834377 0.410432
vt 0.4832031 0.3505763
vt 0.4836431 0.3111237
vt 0.4847186 0.2136017
vt 0.4847186 0.2136017
vt 0.4836431 0.3111237
vt 0.4836431 0.3111237
vt 0.4836431 0.3111237
vt 0.4842494 0.2908148
vt 0.4842494 0.2908148
vt 0.4847186 0.2136017
vt 0.4847186 0.2136017
vt 0.01019085 0.3208541
vt 0.01019085 0.3208541
vt 0.4842494 0.2908148
vt 0.4842494 0.2908148
vt 0.232787 0.9920119
vt 0.2910111 0.9924984
vt 0.06545619 0.9920119
vt 0.06545619 0.9920119
vt 0.2917672 0.5090589
vt 0.2126026 0.5089679
vt 0.3510397 0.5088854
vt 0.3510397 0.5088854
vt 0.4804991 0.5111821
vt 0.4804991 0.5111821
vn 3.725873E-06 -1.808584E-05 1
vn 7.513142E-06 -1.640109E-05 1
vn 1.118272E-05 -1.399081E-05 1
vn -3.417328E-06 3.131941E-06 1
vn -6.065867E-06 4.092352E-06 1
vn -5.484315E-06 -1.065495E-06 1
vn -4.214154E-06 1.79601E-05 -1
vn -8.91132E-06 1.624621E-05 -1
vn -1.79718E-05 1.259458E-05 -1
vn 6.032698E-06 -4.107324E-06 -1
vn 3.848167E-06 -2.257028E-06 -1
vn 5.452614E-06 1.001129E-06 -1
vn 8.825798E-06 1.624793E-05 -1
vn 0 2.061505E-05 -1
vn 2.926664E-06 1.870367E-05 -1
vn 0.7781276 -0.6267776 0.04083267
vn 0.7376055 -0.6702821 0.08161043
vn 0.871325 -0.4820217 0.09191307
vn 0.6084027 -0.7910394 0.06405387
vn 0.7781276 -0.6267776 0.04083267
vn 0.453382 -0.8897146 0.05341166
vn 0.3050075 -0.9478556 0.09241389
vn -0.4098079 -0.9111746 0.04264169
vn -0.2382948 -0.9684313 0.07318723
vn -0.2115202 -0.9763239 0.04528791
vn -0.2115202 -0.9763239 0.04528791
vn -0.007806181 -0.9940861 0.1083133
vn 0.2304993 0.9726253 -0.02949997
vn 0.5110553 0.8577365 -0.05577321
vn 0.7119368 0.7010267 -0.04132172
vn -0.8695287 -0.4923846 0.03843288
vn -0.8919923 -0.4498833 0.04421388
vn -0.7898015 -0.6108675 0.05526781
vn -0.99332 -0.1135132 0.02074242
vn -0.9933196 -0.1135162 0.02074284
vn -0.9485968 -0.3147567 0.03305047
vn -0.8695287 -0.4923846 0.03843288
vn 6.065867E-06 4.092352E-06 1
vn 1.302673E-05 -7.795447E-07 1
vn 1.339047E-05 -1.523052E-06 1
vn 7.04402E-06 6.793911E-06 1
vn 2.471844E-06 4.545222E-06 1
vn 3.192725E-06 4.728246E-06 1
vn 3.417328E-06 3.131941E-06 1
vn 5.484315E-06 -1.065495E-06 1
vn 3.725873E-06 -1.808584E-05 1
vn 3.168261E-06 -1.999225E-05 1
vn 7.513142E-06 -1.640109E-05 1
vn 0 -2.130433E-05 1
vn 0 -2.166788E-05 1
vn 1.118272E-05 -1.399081E-05 1
vn 9.016162E-06 -1.456799E-05 1
vn 3.725873E-06 -1.808584E-05 1
vn 1.616923E-05 -1.216179E-05 1
vn 2.362004E-05 -1.116037E-05 1
vn 1.874523E-05 -1.048115E-05 1
vn 1.339047E-05 -1.523052E-06 1
vn 1.302673E-05 -7.795447E-07 1
vn -6.065867E-06 4.092352E-06 1
vn -1.339047E-05 -1.523051E-06 1
vn -1.302673E-05 -7.795444E-07 1
vn -7.044021E-06 6.793911E-06 1
vn -2.471844E-06 4.545222E-06 1
vn -3.192725E-06 4.728246E-06 1
vn -3.417328E-06 3.131941E-06 1
vn -3.725873E-06 -1.808584E-05 1
vn -7.513142E-06 -1.640109E-05 1
vn -3.168261E-06 -1.999225E-05 1
vn 0 -2.130433E-05 1
vn 0 -2.166788E-05 1
vn -1.339047E-05 -1.523051E-06 1
vn -9.016162E-06 -1.456799E-05 1
vn -1.302673E-05 -7.795444E-07 1
vn -1.874523E-05 -1.048115E-05 1
vn -2.362004E-05 -1.116037E-05 1
vn -1.616923E-05 -1.216179E-05 1
vn -1.118272E-05 -1.399081E-05 1
vn -3.725873E-06 -1.808584E-05 1
vn -7.513142E-06 -1.640109E-05 1
vn -1.426153E-05 4.015269E-06 -1
vn -1.215749E-05 6.767834E-07 -1
vn -5.933828E-06 -3.858845E-06 -1
vn -7.267363E-06 -5.980587E-06 -1
vn -2.684862E-06 -4.814854E-06 -1
vn -3.848166E-06 -2.257028E-06 -1
vn -5.452614E-06 1.001129E-06 -1
vn 2.926664E-06 1.870367E-05 -1
vn 0 2.061505E-05 -1
vn -4.214154E-06 1.79601E-05 -1
vn -8.91132E-06 1.624621E-05 -1
vn -8.91132E-06 1.624621E-05 -1
vn -1.215749E-05 6.767834E-07 -1
vn -1.426153E-05 4.015269E-06 -1
vn -1.79718E-05 1.259458E-05 -1
vn 1.375545E-05 2.232791E-06 -1
vn 6.032698E-06 -4.107324E-06 -1
vn 1.317646E-05 1.053873E-06 -1
vn 7.413767E-06 -6.421179E-06 -1
vn 2.684862E-06 -4.814853E-06 -1
vn 3.848167E-06 -2.257028E-06 -1
vn 8.825798E-06 1.624793E-05 -1
vn 1.375545E-05 2.232791E-06 -1
vn 1.317646E-05 1.053873E-06 -1
vn 1.790561E-05 1.151254E-05 -1
vn 1.297469E-05 1.373554E-05 -1
vn 2.926664E-06 1.870367E-05 -1
vn 0.9964032 -0.08294501 0.01734472
vn 0.9727427 -0.2247132 0.05723389
vn 0.9853793 0.1673154 0.03214156
vn 0.9853799 0.1673122 0.03214151
vn 0.8531602 0.5207903 0.0299178
vn 0.9142128 0.4046925 0.02095111
vn 0.782047 0.6227077 0.02525241
vn -0.9983147 -0.05803198 1.159676E-05
vn -0.9983147 -0.05803198 1.159676E-05
vn -0.9710679 0.2360526 -0.03614253
vn -0.9710679 0.2360528 -0.03614255
vn 0.782047 0.6227077 0.02525241
vn 0.8531602 0.5207903 0.0299178
vn 0.7226784 0.6899545 0.04121648
vn 0.7226784 0.6899545 0.04121648
vn 8.242399E-07 -1 1.424149E-06
vn 8.242399E-07 -1 1.424149E-06
vn 8.242399E-07 -1 1.424149E-06
vn 8.242399E-07 -1 1.424149E-06
vn 0.999983 0.005841776 -4.481217E-06
vn 0.999983 0.005841776 -4.481217E-06
vn 0.999983 0.005841776 -4.481217E-06
vn 0.999983 0.005841776 -4.481217E-06
vn 0.1555666 -0.9847943 0.0773247
vn 0.3050075 -0.9478556 0.09241389
vn 0.453382 -0.8897146 0.05341166
vn -0.007806181 -0.9940861 0.1083133
vn -0.2382948 -0.9684313 0.07318723
vn -0.7119369 0.7010267 -0.04132173
vn -0.5110553 0.8577365 -0.05577321
vn -0.2304993 0.9726253 -0.02949997
vn -0.9710679 0.2360528 -0.03614255
vn -0.9710679 0.2360526 -0.03614253
vn 0.9359257 -0.3460925 0.06529358
vn 0.9727427 -0.2247132 0.05723389
vn 0.9964032 -0.08294501 0.01734472
vn 0.871325 -0.4820217 0.09191307
vn 0.7376055 -0.6702821 0.08161043
vn -0.2304993 0.9726253 -0.02949997
vn -0.5110553 0.8577365 -0.05577321
vn 0 0.998738 -0.05022476
vn 0 0.998738 -0.05022476
vn 0.5110553 0.8577365 -0.05577321
vn 0.2304993 0.9726253 -0.02949997
vn 0.9710679 0.2360528 -0.03614255
vn 0.9710679 0.2360526 -0.03614254
vn 0.9983147 -0.05803198 1.159676E-05
vn 0.9983147 -0.05803198 1.159676E-05
vn -0.9821281 0.187414 0.0173288
vn -0.9933196 -0.1135162 0.02074284
vn -0.99332 -0.1135132 0.02074242
vn -0.9821277 0.1874163 0.01732907
vn -0.9142128 0.4046925 0.02095111
vn -0.8531602 0.5207903 0.0299178
vn -0.7226784 0.6899545 0.04121648
vn -0.7226784 0.6899545 0.04121648
vn -0.8531602 0.5207903 0.0299178
vn -0.782047 0.6227077 0.02525241
vn -0.9142128 0.4046925 0.02095111
vn -0.999983 0.005841776 -4.481217E-06
vn -0.999983 0.005841776 -4.481217E-06
vn -0.999983 0.005841776 -4.481217E-06
vn -0.999983 0.005841776 -4.481217E-06
vn -8.2424E-07 -1 1.424149E-06
vn -8.2424E-07 -1 1.424149E-06
vn -8.242399E-07 -1 1.424149E-06
vn -8.242399E-07 -1 1.424149E-06
vn 0.7119368 0.7010267 -0.04132172
vn 0.5110553 0.8577365 -0.05577321
vn 0.9710679 0.2360526 -0.03614254
vn 0.9710679 0.2360528 -0.03614255
vn -0.7898015 -0.6108675 0.05526781
vn -0.8919923 -0.4498833 0.04421388
vn -0.6292626 -0.775296 0.05426569
vn -0.6292626 -0.775296 0.05426569
vn -0.2382948 -0.9684313 0.07318723
vn -0.4098079 -0.9111746 0.04264169
g Floor_01_COL_0
f 3/3/3 2/2/2 1/1/1
f 6/6/6 5/5/5 4/4/4
f 9/9/9 8/8/8 7/7/7
f 12/12/12 11/11/11 10/10/10
f 15/15/15 14/14/14 13/13/13
f 18/18/18 17/17/17 16/16/16
f 20/20/20 17/17/17 19/19/19
f 19/19/19 17/17/17 21/21/21
f 17/17/17 22/22/22 21/21/21
f 25/25/25 24/24/24 23/23/23
f 27/27/27 24/24/24 26/26/26
f 30/30/30 29/29/29 28/28/28
f 33/33/33 32/32/32 31/31/31
f 32/32/32 35/35/35 34/34/34
f 36/36/36 32/32/32 34/34/34
f 37/37/37 32/32/32 36/36/36
f 40/40/40 39/39/39 38/38/38
f 41/41/41 40/40/40 38/38/38
f 38/38/38 42/42/42 41/41/41
f 43/43/43 42/42/42 38/38/38
f 38/38/38 44/44/44 43/43/43
f 38/38/38 45/45/45 44/44/44
f 48/48/48 47/47/47 46/46/46
f 46/46/46 47/47/47 49/49/49
f 47/47/47 50/50/50 49/49/49
f 53/53/53 52/52/52 51/51/51
f 54/54/54 51/51/51 52/52/52
f 55/55/55 54/54/54 52/52/52
f 56/56/56 55/55/55 52/52/52
f 56/56/56 52/52/52 57/57/57
f 52/52/52 58/58/58 57/57/57
f 61/61/61 60/60/60 59/59/59
f 60/60/60 62/62/62 59/59/59
f 63/63/63 59/59/59 62/62/62
f 63/63/63 64/64/64 59/59/59
f 65/65/65 59/59/59 64/64/64
f 68/68/68 67/67/67 66/66/66
f 68/68/68 66/66/66 69/69/69
f 70/70/70 68/68/68 69/69/69
f 73/73/73 72/72/72 71/71/71
f 72/72/72 74/74/74 71/71/71
f 75/75/75 74/74/74 72/72/72
f 76/76/76 75/75/75 72/72/72
f 77/77/77 76/76/76 72/72/72
f 72/72/72 78/78/78 77/77/77
f 79/79/79 77/77/77 78/78/78
f 82/82/82 81/81/81 80/80/80
f 83/83/83 82/82/82 80/80/80
f 82/82/82 83/83/83 84/84/84
f 82/82/82 84/84/84 85/85/85
f 82/82/82 85/85/85 86/86/86
f 89/89/89 88/88/88 87/87/87
f 90/90/90 88/88/88 89/89/89
f 93/93/93 92/92/92 91/91/91
f 93/93/93 91/91/91 94/94/94
f 97/97/97 96/96/96 95/95/95
f 96/96/96 98/98/98 95/95/95
f 99/99/99 98/98/98 96/96/96
f 100/100/100 99/99/99 96/96/96
f 103/103/103 102/102/102 101/101/101
f 102/102/102 104/104/104 101/101/101
f 105/105/105 101/101/101 104/104/104
f 106/106/106 101/101/101 105/105/105
f 109/109/109 108/108/108 107/107/107
f 110/110/110 109/109/109 107/107/107
f 111/111/111 109/109/109 110/110/110
f 112/112/112 111/111/111 110/110/110
f 113/113/113 111/111/111 112/112/112
f 116/116/116 115/115/115 114/114/114
f 117/117/117 116/116/116 114/114/114
f 120/120/120 119/119/119 118/118/118
f 121/121/121 120/120/120 118/118/118
f 124/124/124 123/123/123 122/122/122
f 125/125/125 124/124/124 122/122/122
f 128/128/128 127/127/127 126/126/126
f 129/129/129 128/128/128 126/126/126
f 132/132/132 131/131/131 130/130/130
f 130/130/130 131/131/131 133/133/133
f 131/131/131 134/134/134 133/133/133
f 137/137/137 136/136/136 135/135/135
f 135/135/135 136/136/136 138/138/138
f 136/136/136 139/139/139 138/138/138
f 142/142/142 141/141/141 140/140/140
f 140/140/140 141/141/141 143/143/143
f 141/141/141 144/144/144 143/143/143
f 147/147/147 146/146/146 145/145/145
f 148/148/148 147/147/147 145/145/145
f 149/149/149 147/147/147 148/148/148
f 150/150/150 149/149/149 148/148/148
f 153/153/153 152/152/152 151/151/151
f 154/154/154 153/153/153 151/151/151
f 157/157/157 156/156/156 155/155/155
f 156/156/156 158/158/158 155/155/155
f 155/155/155 158/158/158 159/159/159
f 158/158/158 160/160/160 159/159/159
f 163/163/163 162/162/162 161/161/161
f 164/164/164 163/163/163 161/161/161
f 165/165/165 163/163/163 164/164/164
f 168/168/168 167/167/167 166/166/166
f 169/169/169 168/168/168 166/166/166
f 172/172/172 171/171/171 170/170/170
f 173/173/173 172/172/172 170/170/170
f 176/176/176 175/175/175 174/174/174
f 177/177/177 176/176/176 174/174/174
f 180/180/180 179/179/179 178/178/178
f 181/181/181 180/180/180 178/178/178
f 182/182/182 180/180/180 181/181/181
f 183/183/183 182/182/182 181/181/181
