g Floor_COL
v -0.08223063 -30.14204 2.05487
v -2.960943 -20.10468 2.05487
v -0.08223063 -20.10468 2.05487
v -2.960943 -30.14204 2.05487
v -12.54231 -20.10468 2.05487
v -12.54231 -30.14204 2.05487
v -17.41415 -24.934 2.05487
v -17.41415 -15.84578 2.05487
v -12.54231 -13.6911 2.05487
v -45.36536 -15.84578 2.05487
v -45.36536 -24.934 2.05487
v -52.4712 -19.00349 2.05487
v -52.4712 -15.84578 2.05487
v -45.36536 -10.03868 2.05487
v -52.4712 -10.03868 2.05487
v -17.41415 -10.03868 2.05487
v -45.36536 0 2.05487
v -52.4712 0 2.05487
v -17.41415 0 2.05487
v -12.54231 0 2.05487
v -2.960943 0 2.05487
v -2.960943 -13.6911 2.05487
v -12.54231 -13.6911 -2.009352
v -2.960944 -20.10468 -2.009352
v -12.54231 -20.10468 -2.009352
v -2.960944 -13.6911 -2.009352
v -0.08223063 -20.10468 -2.009352
v -0.08223063 -13.6911 -2.009352
v -0.08223063 0 -2.009352
v -2.960943 0 -2.009352
v -2.960943 -13.6911 2.05487
v -2.960944 -13.6911 -2.009352
v -12.54231 -13.6911 -2.009352
v -12.54231 -13.6911 2.05487
v -12.54231 -13.6911 2.05487
v -12.54231 -13.6911 -2.009352
v -12.54231 -20.10468 -2.009352
v -12.54231 -20.10468 2.05487
v -12.54231 -20.10468 2.05487
v -12.54231 -20.10468 -2.009352
v -2.960944 -20.10468 -2.009352
v -2.960943 -20.10468 2.05487
v -0.08223063 -20.10468 2.05487
v -0.08223063 -20.10468 -2.009352
v 2.796482 -20.10468 -2.009352
v 2.796482 -20.10468 2.05487
v 12.37785 -20.10468 2.05487
v 12.37785 -20.10468 -2.009352
v -2.960943 -13.6911 2.05487
v -2.960943 0 -2.009352
v -2.960944 -13.6911 -2.009352
v -2.960943 0 2.05487
v -2.960943 13.6911 2.05487
v -2.960944 13.6911 -2.009352
v -2.960943 20.10468 2.05487
v -0.08223063 30.14204 2.05487
v -0.08223063 20.10468 2.05487
v -2.960943 30.14204 2.05487
v -12.54231 20.10468 2.05487
v -12.54231 30.14204 2.05487
v -17.41415 24.934 2.05487
v -17.41415 15.84578 2.05487
v -12.54231 13.6911 2.05487
v -45.36536 15.84578 2.05487
v -45.36536 24.934 2.05487
v -52.4712 19.00349 2.05487
v -52.4712 15.84578 2.05487
v -45.36536 10.03868 2.05487
v -52.4712 10.03868 2.05487
v -17.41415 10.03868 2.05487
v -45.36536 0 2.05487
v -52.4712 0 2.05487
v -17.41415 0 2.05487
v -12.54231 0 2.05487
v -2.960943 0 2.05487
v -2.960943 13.6911 2.05487
v -2.960944 20.10468 -2.009352
v -12.54231 13.6911 -2.009352
v -12.54231 20.10468 -2.009352
v -2.960944 13.6911 -2.009352
v -0.08223063 13.6911 -2.009352
v -0.08223063 20.10468 -2.009352
v -0.08223063 0 -2.009352
v -2.960943 0 -2.009352
v -2.960943 13.6911 2.05487
v -12.54231 13.6911 2.05487
v -12.54231 13.6911 -2.009352
v -2.960944 13.6911 -2.009352
v -12.54231 13.6911 2.05487
v -12.54231 20.10468 2.05487
v -12.54231 20.10468 -2.009352
v -12.54231 13.6911 -2.009352
v -12.54231 20.10468 2.05487
v -2.960944 20.10468 -2.009352
v -12.54231 20.10468 -2.009352
v -2.960943 20.10468 2.05487
v -0.08223063 20.10468 2.05487
v -0.08223063 20.10468 -2.009352
v 2.796482 20.10468 -2.009352
v 2.796482 20.10468 2.05487
v 12.37785 20.10468 2.05487
v 12.37785 20.10468 -2.009352
v 2.796482 -20.10468 2.05487
v -0.08223063 -30.14204 2.05487
v -0.08223063 -20.10468 2.05487
v 2.796482 -30.14204 2.05487
v 12.37785 -20.10468 2.05487
v 12.37785 -30.14204 2.05487
v 17.24969 -24.934 2.05487
v 17.24969 -15.84578 2.05487
v 12.37785 -13.6911 2.05487
v 45.2009 -15.84578 2.05487
v 45.2009 -24.934 2.05487
v 52.30675 -19.00349 2.05487
v 52.30675 -15.84578 2.05487
v 45.2009 -10.03868 2.05487
v 52.30675 -10.03868 2.05487
v 17.24969 -10.03868 2.05487
v 45.2009 0 2.05487
v 52.30675 0 2.05487
v 17.24969 0 2.05487
v 12.37784 0 2.05487
v 2.796482 0 2.05487
v 2.796482 -13.6911 2.05487
v 2.796482 -20.10468 -2.009352
v 12.37785 -13.6911 -2.009352
v 12.37785 -20.10468 -2.009352
v 2.796482 -13.6911 -2.009352
v -0.08223063 -20.10468 -2.009352
v -0.08223063 -13.6911 -2.009352
v -0.08223063 0 -2.009352
v 2.796482 0 -2.009352
v 2.796482 -13.6911 2.05487
v 12.37785 -13.6911 2.05487
v 12.37785 -13.6911 -2.009352
v 2.796482 -13.6911 -2.009352
v 12.37785 -13.6911 2.05487
v 12.37785 -20.10468 2.05487
v 12.37785 -20.10468 -2.009352
v 12.37785 -13.6911 -2.009352
v 2.796482 0 -2.009352
v 2.796482 -13.6911 2.05487
v 2.796482 -13.6911 -2.009352
v 2.796482 0 2.05487
v 2.796482 13.6911 2.05487
v 2.796482 13.6911 -2.009352
v -0.08223063 30.14204 2.05487
v 2.796482 20.10468 2.05487
v -0.08223063 20.10468 2.05487
v 2.796482 30.14204 2.05487
v 12.37785 20.10468 2.05487
v 12.37785 30.14204 2.05487
v 17.24969 24.934 2.05487
v 17.24969 15.84578 2.05487
v 12.37785 13.6911 2.05487
v 45.2009 15.84578 2.05487
v 45.2009 24.934 2.05487
v 52.30675 19.00349 2.05487
v 52.30675 15.84578 2.05487
v 45.2009 10.03868 2.05487
v 52.30675 10.03868 2.05487
v 17.24969 10.03868 2.05487
v 45.2009 0 2.05487
v 52.30675 0 2.05487
v 17.24969 0 2.05487
v 12.37784 0 2.05487
v 2.796482 0 2.05487
v 2.796482 13.6911 2.05487
v 12.37785 13.6911 -2.009352
v 2.796482 20.10468 -2.009352
v 12.37785 20.10468 -2.009352
v 2.796482 13.6911 -2.009352
v -0.08223063 13.6911 -2.009352
v -0.08223063 20.10468 -2.009352
v -0.08223063 0 -2.009352
v 2.796482 0 -2.009352
v 2.796482 13.6911 2.05487
v 2.796482 13.6911 -2.009352
v 12.37785 13.6911 -2.009352
v 12.37785 13.6911 2.05487
v 12.37785 13.6911 2.05487
v 12.37785 13.6911 -2.009352
v 12.37785 20.10468 -2.009352
v 12.37785 20.10468 2.05487
vt 0.4999999 0
vt 0.4725256 0.1822456
vt 0.5 0.1822456
vt 0.4725255 0
vt 0.3810811 0.1822456
vt 0.3810811 0
vt 0.3345842 0
vt 0.3345843 0.1822456
vt 0.3810811 0.298695
vt 0.06781811 0.1822456
vt 0.0678181 0
vt 0 0
vt 0 0.1822456
vt 0.06781811 0.298695
vt 0 0.298695
vt 0.3345843 0.298695
vt 0.06781811 0.5
vt 0 0.5460678
vt 0.3345843 0.5
vt 0.3810811 0.5472805
vt 0.4725256 0.5472805
vt 0.4725256 0.298695
vt 0.3810811 0.298695
vt 0.4725256 0.1822456
vt 0.3810811 0.1822456
vt 0.4725256 0.298695
vt 0.5 0.1822456
vt 0.5 0.298695
vt 0.4999999 0.5472805
vt 0.4725256 0.5472805
vt 0.4725256 0.298695
vt 0.4725256 0.298695
vt 0.3810811 0.298695
vt 0.3810811 0.298695
vt 0.3810811 0.298695
vt 0.3810811 0.298695
vt 0.3810811 0.1822456
vt 0.3810811 0.1822456
vt 0.3810811 0.1822456
vt 0.3810811 0.1822456
vt 0.4725256 0.1822456
vt 0.4725256 0.1822456
vt 0.5 0.1822456
vt 0.5 0.1822456
vt 0.4725256 0.1822456
vt 0.4725256 0.1822456
vt 0.3810811 0.1822456
vt 0.3810811 0.1822456
vt 0.4725256 0.298695
vt 0.4725256 0.5472805
vt 0.4725256 0.298695
vt 0.4725256 0.5472805
vt 0.4725256 0.298695
vt 0.4725256 0.298695
vt 0.4725256 0.1822456
vt 0.4999999 0
vt 0.5 0.1822456
vt 0.4725255 0
vt 0.3810811 0.1822456
vt 0.3810811 0
vt 0.3345842 0
vt 0.3345843 0.1822456
vt 0.3810811 0.298695
vt 0.06781811 0.1822456
vt 0.0678181 0
vt 0 0
vt 0 0.1822456
vt 0.06781811 0.298695
vt 0 0.298695
vt 0.3345843 0.298695
vt 0.06781811 0.5
vt 0 0.5460678
vt 0.3345843 0.5
vt 0.3810811 0.5472805
vt 0.4725256 0.5472805
vt 0.4725256 0.298695
vt 0.4725256 0.1822456
vt 0.3810811 0.298695
vt 0.3810811 0.1822456
vt 0.4725256 0.298695
vt 0.5 0.298695
vt 0.5 0.1822456
vt 0.4999999 0.5472805
vt 0.4725256 0.5472805
vt 0.4725256 0.298695
vt 0.3810811 0.298695
vt 0.3810811 0.298695
vt 0.4725256 0.298695
vt 0.3810811 0.298695
vt 0.3810811 0.1822456
vt 0.3810811 0.1822456
vt 0.3810811 0.298695
vt 0.3810811 0.1822456
vt 0.4725256 0.1822456
vt 0.3810811 0.1822456
vt 0.4725256 0.1822456
vt 0.5 0.1822456
vt 0.5 0.1822456
vt 0.4725256 0.1822456
vt 0.4725256 0.1822456
vt 0.3810811 0.1822456
vt 0.3810811 0.1822456
vt 0.4725256 0.1822456
vt 0.4999999 0
vt 0.5 0.1822456
vt 0.4725255 0
vt 0.3810811 0.1822456
vt 0.3810811 0
vt 0.3345842 0
vt 0.3345843 0.1822456
vt 0.3810811 0.298695
vt 0.06781811 0.1822456
vt 0.0678181 0
vt 0 0
vt 0 0.1822456
vt 0.06781811 0.298695
vt 0 0.298695
vt 0.3345843 0.298695
vt 0.06781811 0.5
vt 0 0.5460678
vt 0.3345843 0.5
vt 0.3810811 0.5472805
vt 0.4725256 0.5472805
vt 0.4725256 0.298695
vt 0.4725256 0.1822456
vt 0.3810811 0.298695
vt 0.3810811 0.1822456
vt 0.4725256 0.298695
vt 0.5 0.1822456
vt 0.5 0.298695
vt 0.4999999 0.5472805
vt 0.4725256 0.5472805
vt 0.4725256 0.298695
vt 0.3810811 0.298695
vt 0.3810811 0.298695
vt 0.4725256 0.298695
vt 0.3810811 0.298695
vt 0.3810811 0.1822456
vt 0.3810811 0.1822456
vt 0.3810811 0.298695
vt 0.4725256 0.5472805
vt 0.4725256 0.298695
vt 0.4725256 0.298695
vt 0.4725256 0.5472805
vt 0.4725256 0.298695
vt 0.4725256 0.298695
vt 0.4999999 0
vt 0.4725256 0.1822456
vt 0.5 0.1822456
vt 0.4725255 0
vt 0.3810811 0.1822456
vt 0.3810811 0
vt 0.3345842 0
vt 0.3345843 0.1822456
vt 0.3810811 0.298695
vt 0.06781811 0.1822456
vt 0.0678181 0
vt 0 0
vt 0 0.1822456
vt 0.06781811 0.298695
vt 0 0.298695
vt 0.3345843 0.298695
vt 0.06781811 0.5
vt 0 0.5460678
vt 0.3345843 0.5
vt 0.3810811 0.5472805
vt 0.4725256 0.5472805
vt 0.4725256 0.298695
vt 0.3810811 0.298695
vt 0.4725256 0.1822456
vt 0.3810811 0.1822456
vt 0.4725256 0.298695
vt 0.5 0.298695
vt 0.5 0.1822456
vt 0.4999999 0.5472805
vt 0.4725256 0.5472805
vt 0.4725256 0.298695
vt 0.4725256 0.298695
vt 0.3810811 0.298695
vt 0.3810811 0.298695
vt 0.3810811 0.298695
vt 0.3810811 0.298695
vt 0.3810811 0.1822456
vt 0.3810811 0.1822456
vn 0 0 1
vn 0 0 1
vn 0 0 1
vn 0 0 1
vn 0 0 1
vn 0 0 1
vn 0 0 1
vn 0 0 1
vn 0 0 1
vn 0 0 1
vn 0 0 1
vn 0 0 1
vn 0 0 1
vn 0 0 1
vn 0 0 1
vn 0 0 1
vn 0 0 1
vn 0 0 1
vn 0 0 1
vn 0 0 1
vn 0 0 1
vn 0 0 1
vn 0 0 1
vn 0 0 1
vn 0 0 1
vn 0 0 1
vn 0 0 1
vn 0 0 1
vn 0 0 1
vn 0 0 1
vn 0 -1 0
vn 0 -1 0
vn 0 -1 0
vn 0 -1 0
vn 1 0 0
vn 1 0 0
vn 1 0 0
vn 1 0 0
vn 0 1 0
vn 0 1 0
vn 0 1 0
vn 0 1 0
vn 0 1 0
vn 0 1 0
vn 0 1 0
vn 0 1 0
vn 0 1 0
vn 0 1 0
vn 1 0 0
vn 1 0 0
vn 1 0 0
vn 1 0 0
vn 1 0 0
vn 1 0 0
vn 0 0 1
vn 0 0 1
vn 0 0 1
vn 0 0 1
vn 0 0 1
vn 0 0 1
vn 0 0 1
vn 0 0 1
vn 0 0 1
vn 0 0 1
vn 0 0 1
vn 0 0 1
vn 0 0 1
vn 0 0 1
vn 0 0 1
vn 0 0 1
vn 0 0 1
vn 0 0 1
vn 0 0 1
vn 0 0 1
vn 0 0 1
vn 0 0 1
vn 0 0 1
vn 0 0 1
vn 0 0 1
vn 0 0 1
vn 0 0 1
vn 0 0 1
vn 0 0 1
vn 0 0 1
vn 0 1 0
vn 0 1 0
vn 0 1 0
vn 0 1 0
vn 1 0 0
vn 1 0 0
vn 1 0 0
vn 1 0 0
vn 0 -1 0
vn 0 -1 0
vn 0 -1 0
vn 0 -1 0
vn 0 -1 0
vn 0 -1 0
vn 0 -1 0
vn 0 -1 0
vn 0 -1 0
vn 0 -1 0
vn 0 0 1
vn 0 0 1
vn 0 0 1
vn 0 0 1
vn 0 0 1
vn 0 0 1
vn 0 0 1
vn 0 0 1
vn 0 0 1
vn 0 0 1
vn 0 0 1
vn 0 0 1
vn 0 0 1
vn 0 0 1
vn 0 0 1
vn 0 0 1
vn 0 0 1
vn 0 0 1
vn 0 0 1
vn 0 0 1
vn 0 0 1
vn 0 0 1
vn 0 0 1
vn 0 0 1
vn 0 0 1
vn 0 0 1
vn 0 0 1
vn 0 0 1
vn 0 0 1
vn 0 0 1
vn 0 -1 0
vn 0 -1 0
vn 0 -1 0
vn 0 -1 0
vn -1 0 0
vn -1 0 0
vn -1 0 0
vn -1 0 0
vn -1 0 0
vn -1 0 0
vn -1 0 0
vn -1 0 0
vn -1 0 0
vn -1 0 0
vn 0 0 1
vn 0 0 1
vn 0 0 1
vn 0 0 1
vn 0 0 1
vn 0 0 1
vn 0 0 1
vn 0 0 1
vn 0 0 1
vn 0 0 1
vn 0 0 1
vn 0 0 1
vn 0 0 1
vn 0 0 1
vn 0 0 1
vn 0 0 1
vn 0 0 1
vn 0 0 1
vn 0 0 1
vn 0 0 1
vn 0 0 1
vn 0 0 1
vn 0 0 1
vn 0 0 1
vn 0 0 1
vn 0 0 1
vn 0 0 1
vn 0 0 1
vn 0 0 1
vn 0 0 1
vn 0 1 0
vn 0 1 0
vn 0 1 0
vn 0 1 0
vn -1 0 0
vn -1 0 0
vn -1 0 0
vn -1 0 0
g Floor_COL_0
f 3/3/3 2/2/2 1/1/1
f 2/2/2 4/4/4 1/1/1
f 2/2/2 5/5/5 4/4/4
f 5/5/5 6/6/6 4/4/4
f 6/6/6 5/5/5 7/7/7
f 5/5/5 8/8/8 7/7/7
f 8/8/8 5/5/5 9/9/9
f 8/8/8 10/10/10 7/7/7
f 10/10/10 11/11/11 7/7/7
f 11/11/11 10/10/10 12/12/12
f 10/10/10 13/13/13 12/12/12
f 10/10/10 14/14/14 13/13/13
f 14/14/14 10/10/10 8/8/8
f 14/14/14 15/15/15 13/13/13
f 16/16/16 14/14/14 8/8/8
f 16/16/16 8/8/8 9/9/9
f 14/14/14 17/17/17 15/15/15
f 17/17/17 14/14/14 16/16/16
f 17/17/17 18/18/18 15/15/15
f 19/19/19 17/17/17 16/16/16
f 19/19/19 16/16/16 20/20/20
f 16/16/16 9/9/9 20/20/20
f 21/21/21 20/20/20 9/9/9
f 22/22/22 21/21/21 9/9/9
f 25/25/25 24/24/24 23/23/23
f 24/24/24 26/26/26 23/23/23
f 24/24/24 27/27/27 26/26/26
f 27/27/27 28/28/28 26/26/26
f 28/28/28 29/29/29 26/26/26
f 29/29/29 30/30/30 26/26/26
f 33/33/33 32/32/32 31/31/31
f 34/34/34 33/33/33 31/31/31
f 37/37/37 36/36/36 35/35/35
f 38/38/38 37/37/37 35/35/35
f 41/41/41 40/40/40 39/39/39
f 42/42/42 41/41/41 39/39/39
f 41/41/41 42/42/42 43/43/43
f 44/44/44 41/41/41 43/43/43
f 44/44/44 43/43/43 45/45/45
f 43/43/43 46/46/46 45/45/45
f 45/45/45 46/46/46 47/47/47
f 48/48/48 45/45/45 47/47/47
f 51/51/51 50/50/50 49/49/49
f 50/50/50 52/52/52 49/49/49
f 53/53/53 52/52/52 50/50/50
f 54/54/54 53/53/53 50/50/50
f 57/57/57 56/56/56 55/55/55
f 56/56/56 58/58/58 55/55/55
f 55/55/55 58/58/58 59/59/59
f 58/58/58 60/60/60 59/59/59
f 59/59/59 60/60/60 61/61/61
f 62/62/62 59/59/59 61/61/61
f 63/63/63 59/59/59 62/62/62
f 62/62/62 61/61/61 64/64/64
f 61/61/61 65/65/65 64/64/64
f 65/65/65 66/66/66 64/64/64
f 66/66/66 67/67/67 64/64/64
f 64/64/64 67/67/67 68/68/68
f 62/62/62 64/64/64 68/68/68
f 67/67/67 69/69/69 68/68/68
f 70/70/70 62/62/62 68/68/68
f 70/70/70 63/63/63 62/62/62
f 68/68/68 69/69/69 71/71/71
f 70/70/70 68/68/68 71/71/71
f 69/69/69 72/72/72 71/71/71
f 73/73/73 70/70/70 71/71/71
f 73/73/73 74/74/74 70/70/70
f 74/74/74 63/63/63 70/70/70
f 63/63/63 74/74/74 75/75/75
f 76/76/76 63/63/63 75/75/75
f 79/79/79 78/78/78 77/77/77
f 78/78/78 80/80/80 77/77/77
f 80/80/80 81/81/81 77/77/77
f 81/81/81 82/82/82 77/77/77
f 81/81/81 80/80/80 83/83/83
f 80/80/80 84/84/84 83/83/83
f 87/87/87 86/86/86 85/85/85
f 88/88/88 87/87/87 85/85/85
f 91/91/91 90/90/90 89/89/89
f 92/92/92 91/91/91 89/89/89
f 95/95/95 94/94/94 93/93/93
f 94/94/94 96/96/96 93/93/93
f 97/97/97 96/96/96 94/94/94
f 98/98/98 97/97/97 94/94/94
f 98/98/98 99/99/99 97/97/97
f 99/99/99 100/100/100 97/97/97
f 100/100/100 99/99/99 101/101/101
f 99/99/99 102/102/102 101/101/101
f 105/105/105 104/104/104 103/103/103
f 104/104/104 106/106/106 103/103/103
f 103/103/103 106/106/106 107/107/107
f 106/106/106 108/108/108 107/107/107
f 107/107/107 108/108/108 109/109/109
f 110/110/110 107/107/107 109/109/109
f 111/111/111 107/107/107 110/110/110
f 110/110/110 109/109/109 112/112/112
f 109/109/109 113/113/113 112/112/112
f 113/113/113 114/114/114 112/112/112
f 114/114/114 115/115/115 112/112/112
f 112/112/112 115/115/115 116/116/116
f 110/110/110 112/112/112 116/116/116
f 115/115/115 117/117/117 116/116/116
f 118/118/118 110/110/110 116/116/116
f 118/118/118 111/111/111 110/110/110
f 116/116/116 117/117/117 119/119/119
f 118/118/118 116/116/116 119/119/119
f 117/117/117 120/120/120 119/119/119
f 121/121/121 118/118/118 119/119/119
f 121/121/121 122/122/122 118/118/118
f 122/122/122 111/111/111 118/118/118
f 111/111/111 122/122/122 123/123/123
f 124/124/124 111/111/111 123/123/123
f 127/127/127 126/126/126 125/125/125
f 126/126/126 128/128/128 125/125/125
f 125/125/125 128/128/128 129/129/129
f 128/128/128 130/130/130 129/129/129
f 130/130/130 128/128/128 131/131/131
f 128/128/128 132/132/132 131/131/131
f 135/135/135 134/134/134 133/133/133
f 136/136/136 135/135/135 133/133/133
f 139/139/139 138/138/138 137/137/137
f 140/140/140 139/139/139 137/137/137
f 143/143/143 142/142/142 141/141/141
f 142/142/142 144/144/144 141/141/141
f 141/141/141 144/144/144 145/145/145
f 146/146/146 141/141/141 145/145/145
f 149/149/149 148/148/148 147/147/147
f 148/148/148 150/150/150 147/147/147
f 148/148/148 151/151/151 150/150/150
f 151/151/151 152/152/152 150/150/150
f 152/152/152 151/151/151 153/153/153
f 151/151/151 154/154/154 153/153/153
f 154/154/154 151/151/151 155/155/155
f 154/154/154 156/156/156 153/153/153
f 156/156/156 157/157/157 153/153/153
f 157/157/157 156/156/156 158/158/158
f 156/156/156 159/159/159 158/158/158
f 156/156/156 160/160/160 159/159/159
f 160/160/160 156/156/156 154/154/154
f 160/160/160 161/161/161 159/159/159
f 162/162/162 160/160/160 154/154/154
f 162/162/162 154/154/154 155/155/155
f 160/160/160 163/163/163 161/161/161
f 163/163/163 160/160/160 162/162/162
f 163/163/163 164/164/164 161/161/161
f 165/165/165 163/163/163 162/162/162
f 165/165/165 162/162/162 166/166/166
f 162/162/162 155/155/155 166/166/166
f 167/167/167 166/166/166 155/155/155
f 168/168/168 167/167/167 155/155/155
f 171/171/171 170/170/170 169/169/169
f 170/170/170 172/172/172 169/169/169
f 172/172/172 170/170/170 173/173/173
f 170/170/170 174/174/174 173/173/173
f 173/173/173 175/175/175 172/172/172
f 175/175/175 176/176/176 172/172/172
f 179/179/179 178/178/178 177/177/177
f 180/180/180 179/179/179 177/177/177
f 183/183/183 182/182/182 181/181/181
f 184/184/184 183/183/183 181/181/181
