g Floor_06_COL
v -5.306853 -37.62154 8.903769
v 1.372655E-07 -28.39112 8.903827
v -2.576102 -38.73386 8.904313
v 2.576102 -38.73386 8.904313
v 5.306853 -37.62154 8.903769
v -5.174648 -19.69864 8.903755
v 1.372655E-07 -28.39112 8.903827
v -7.228164 -21.3783 8.903755
v -2.782604 -18.67839 8.903756
v 1.372655E-07 -28.39112 8.903827
v -5.174648 -19.69864 8.903755
v 0 -18.34232 8.90366
v 1.372655E-07 -28.39112 8.903827
v -2.782604 -18.67839 8.903756
v 10.41135 -28.08552 8.90376
v 9.905525 -25.48654 8.903755
v 8.838789 -23.36097 8.903755
v 7.228164 -21.3783 8.903755
v 7.228164 -21.3783 8.903755
v 1.372655E-07 -28.39112 8.903827
v 5.174648 -19.69864 8.903755
v 5.174648 -19.69864 8.903755
v 1.372655E-07 -28.39112 8.903827
v 2.782604 -18.67839 8.903756
v 2.782604 -18.67839 8.903756
v 1.372655E-07 -28.39112 8.903827
v 0 -18.34232 8.90366
v -9.905525 -25.48654 8.903755
v -10.41135 -28.08552 8.90376
v -8.838789 -23.36097 8.903755
v -7.228164 -21.3783 8.903755
v -5.921727E-08 -42.33378 7.245165
v -1.653225 -42.46538 0.4439543
v -3.337115 -41.9656 7.241038
v 6.883533 -40.35805 7.25666
v 5.089246 -41.40625 0.4757415
v 3.337115 -41.9656 7.241038
v -1.653225 -42.46538 0.4439543
v -0.0007699546 -28.49306 0.5102844
v -8.702457 -39.05457 0.4966247
v 5.089246 -41.40625 0.4757415
v -0.0007699546 -28.49306 0.5102844
v -1.653225 -42.46538 0.4439543
v -2.576102 -38.73386 8.904313
v -5.921727E-08 -42.33378 7.245165
v -3.337115 -41.9656 7.241038
v 0 -39.11149 8.904313
v 3.337115 -41.9656 7.241038
v 2.576102 -38.73386 8.904313
v -6.883533 -40.35805 7.25666
v -5.306853 -37.62154 8.903769
v -2.576102 -38.73386 8.904313
v -3.337115 -41.9656 7.241038
v -10.33506 -37.53809 7.256667
v -5.306853 -37.62154 8.903769
v -6.883533 -40.35805 7.25666
v -7.973374 -35.44167 8.903768
v -9.554286 -33.13108 8.903767
v -12.40052 -34.42275 7.265978
v -13.42554 -30.93396 7.25748
v -10.3408 -30.35003 8.903767
v -10.41135 -28.08552 8.90376
v -13.53362 -27.94126 7.258086
v -12.88839 -24.59261 7.258598
v -10.41135 -28.08552 8.90376
v -13.53362 -27.94126 7.258086
v -9.905525 -25.48654 8.903755
v -11.45278 -21.70808 7.259551
v -8.838789 -23.36097 8.903755
v -9.37816 -19.17039 7.260046
v -7.228164 -21.3783 8.903755
v -5.174648 -19.69864 8.903755
v -6.658053 -16.94224 7.257881
v -2.782604 -18.67839 8.903756
v -3.596062 -15.70394 7.203762
v -5.908558E-08 -15.21889 7.229661
v 0 -18.34232 8.90366
v 3.596061 -15.70394 7.203762
v 2.782604 -18.67839 8.903756
v 6.658053 -16.94224 7.257881
v 5.174648 -19.69864 8.903755
v 9.37816 -19.17039 7.260046
v 7.228164 -21.3783 8.903755
v 11.45278 -21.70808 7.259551
v 8.838789 -23.36097 8.903755
v 9.905525 -25.48654 8.903755
v 12.88839 -24.59261 7.258598
v 10.41135 -28.08552 8.90376
v 13.53362 -27.94126 7.258086
v 5.306853 -37.62154 8.903769
v 6.883533 -40.35805 7.25666
v 3.337115 -41.9656 7.241038
v 2.576102 -38.73386 8.904313
v 7.973374 -35.44167 8.903768
v 6.883533 -40.35805 7.25666
v 5.306853 -37.62154 8.903769
v 10.33506 -37.53809 7.256667
v 9.554286 -33.13108 8.903767
v 12.40052 -34.42275 7.265978
v 10.3408 -30.35003 8.903767
v 13.42554 -30.93396 7.25748
v 13.53362 -27.94126 7.258086
v 10.41135 -28.08552 8.90376
v -2.576102 -38.73386 8.904313
v 1.372655E-07 -28.39112 8.903827
v 0 -39.11149 8.904313
v 2.576102 -38.73386 8.904313
v -7.973374 -35.44167 8.903768
v 1.372655E-07 -28.39112 8.903827
v -5.306853 -37.62154 8.903769
v -9.554286 -33.13108 8.903767
v -10.3408 -30.35003 8.903767
v -10.41135 -28.08552 8.90376
v 5.306853 -37.62154 8.903769
v 7.973374 -35.44167 8.903768
v 9.554286 -33.13108 8.903767
v 10.3408 -30.35003 8.903767
v 10.41135 -28.08552 8.90376
v -3.337115 -41.9656 7.241038
v -1.653225 -42.46538 0.4439543
v -8.702457 -39.05457 0.4966247
v -6.883533 -40.35805 7.25666
v -6.883533 -40.35805 7.25666
v -8.702457 -39.05457 0.4966247
v -10.33506 -37.53809 7.256667
v -13.0017 -32.79113 0.5132753
v -12.40052 -34.42275 7.265978
v -12.40052 -34.42275 7.265978
v -13.42554 -30.93396 7.25748
v -13.26065 -26.41706 0.5194295
v -13.53362 -27.94126 7.258086
v -13.53362 -27.94126 7.258086
v -13.26065 -26.41706 0.5194295
v -12.88839 -24.59261 7.258598
v -10.39524 -20.58457 0.5342957
v -11.45278 -21.70808 7.259551
v -11.45278 -21.70808 7.259551
v -9.37816 -19.17039 7.260046
v -5.130804 -16.47554 0.5318238
v -6.658053 -16.94224 7.257881
v -3.596062 -15.70394 7.203762
v 1.827034 -15.64616 0.5221255
v -5.908558E-08 -15.21889 7.229661
v 3.596061 -15.70394 7.203762
v 7.960792 -18.1347 0.5348561
v 6.658053 -16.94224 7.257881
v 6.658053 -16.94224 7.257881
v 9.37816 -19.17039 7.260046
v 12.20751 -23.31778 0.5282224
v 11.45278 -21.70808 7.259551
v 11.45278 -21.70808 7.259551
v 12.88839 -24.59261 7.258598
v 13.54489 -29.57615 0.5137869
v 13.53362 -27.94126 7.258086
v 3.337115 -41.9656 7.241038
v 5.089246 -41.40625 0.4757415
v -1.653225 -42.46538 0.4439543
v -5.921727E-08 -42.33378 7.245165
v 10.33506 -37.53809 7.256667
v 5.089246 -41.40625 0.4757415
v 6.883533 -40.35805 7.25666
v 11.50536 -36.04751 0.5092763
v 12.40052 -34.42275 7.265978
v 13.42554 -30.93396 7.25748
v 12.40052 -34.42275 7.265978
v 13.54489 -29.57615 0.5137869
v 13.53362 -27.94126 7.258086
v -8.702457 -39.05457 0.4966247
v -0.0007699546 -28.49306 0.5102844
v -13.0017 -32.79113 0.5132753
v -13.26065 -26.41706 0.5194295
v 11.50536 -36.04751 0.5092763
v 5.089246 -41.40625 0.4757415
v 13.54489 -29.57615 0.5137869
v -13.26065 -26.41706 0.5194295
v -0.0007699546 -28.49306 0.5102844
v -10.39524 -20.58457 0.5342957
v -5.130804 -16.47554 0.5318238
v -5.130804 -16.47554 0.5318238
v -0.0007699546 -28.49306 0.5102844
v 1.827034 -15.64616 0.5221255
v 7.960792 -18.1347 0.5348561
v 12.20751 -23.31778 0.5282224
v -0.0007699546 -28.49306 0.5102844
v 13.54489 -29.57615 0.5137869
v 7.960792 -18.1347 0.5348561
vt 0.8693029 0.5232291
vt 0.8692895 0.5317978
vt 0.869276 0.5403664
vt 0.869276 0.5403664
vt 0.8693029 0.5232291
vt 0.7561111 0.2649027
vt 0.7561112 0.3160191
vt 0.7561111 0.280568
vt 0.7561111 0.2572142
vt 0.7561112 0.3160191
vt 0.7561111 0.2649027
vt 0.7561111 0.2641422
vt 0.7561112 0.3160191
vt 0.7561111 0.2572142
vt 0.7561111 0.4377126
vt 0.7561111 0.3806558
vt 0.7561111 0.3269383
vt 0.7561111 0.280568
vt 0.7561111 0.280568
vt 0.7561112 0.3160191
vt 0.7561111 0.2649027
vt 0.7561111 0.2649027
vt 0.7561112 0.3160191
vt 0.7561111 0.2572142
vt 0.7561111 0.2572142
vt 0.7561112 0.3160191
vt 0.7561111 0.2641422
vt 0.7561111 0.3806558
vt 0.7561111 0.4377126
vt 0.7561111 0.3269383
vt 0.7561111 0.280568
vt 0.8568636 0.629472
vt 0.8568636 0.629472
vt 0.8568636 0.629472
vt 0.8692895 0.5317978
vt 0.8692895 0.5317978
vt 0.8692895 0.5317978
vt 0.869276 0.5403664
vt 0.8692895 0.5317978
vt 0.8693029 0.5232291
vt 0.8568636 0.6030118
vt 0.8568636 0.629472
vt 0.8568636 0.6559322
vt 0.8568636 0.6030118
vt 0.8568636 0.6559322
vt 0.8568636 0.629472
vt 0.8568636 0.6559322
vt 0.8568636 0.6030118
vt 0.8568636 0.6030118
vt 0.8693029 0.5232291
vt 0.8693029 0.5232291
vt 0.869276 0.5403664
vt 0.869276 0.5403664
vt 0.6222184 0.358388
vt 0.6222184 0.3870311
vt 0.6222184 0.3870311
vt 0.6222184 0.329745
vt 0.6222184 0.2233621
vt 0.6222184 0.2233621
vt 0.6222184 0.1910086
vt 0.6222184 0.1586551
vt 0.6222184 0.09579005
vt 0.6222184 0.09579005
vt 0.7561111 0.4091842
vt 0.7561111 0.4377126
vt 0.7561111 0.4377126
vt 0.7561111 0.3806558
vt 0.7561111 0.3269383
vt 0.7561111 0.3269383
vt 0.7561111 0.3037532
vt 0.7561111 0.280568
vt 0.7561111 0.2649027
vt 0.7561111 0.2495058
vt 0.7561111 0.2572142
vt 0.7561111 0.2491127
vt 0.7561111 0.2494244
vt 0.7561111 0.2641422
vt 0.7561111 0.249072
vt 0.7561111 0.2572142
vt 0.7561111 0.2495058
vt 0.7561111 0.2649027
vt 0.7561111 0.2650369
vt 0.7561111 0.280568
vt 0.7561111 0.3269383
vt 0.7561111 0.3269383
vt 0.7561111 0.3806558
vt 0.7561111 0.353797
vt 0.7561111 0.4377126
vt 0.7561111 0.4377126
vt 0.8693029 0.5232291
vt 0.8693029 0.5232291
vt 0.8692895 0.5317978
vt 0.869276 0.5403664
vt 0.6222184 0.329745
vt 0.6222184 0.3870311
vt 0.6222184 0.3870311
vt 0.6222184 0.2765536
vt 0.6222184 0.2233621
vt 0.6222184 0.2233621
vt 0.6222184 0.1586551
vt 0.6222184 0.1272226
vt 0.6222184 0.09579005
vt 0.6222184 0.09579005
vt 0.8568636 0.6030118
vt 0.8568636 0.629472
vt 0.8568636 0.6559322
vt 0.8568636 0.6030118
vt 0.6222184 0.329745
vt 0.6222184 0.2389167
vt 0.6222184 0.3870311
vt 0.6222184 0.2233621
vt 0.6222184 0.1586551
vt 0.6222184 0.09579005
vt 0.6222184 0.3870311
vt 0.6222184 0.329745
vt 0.6222184 0.2233621
vt 0.6222184 0.1586551
vt 0.6222184 0.09579005
vt 0.869276 0.5403664
vt 0.869276 0.5403664
vt 0.8693029 0.5232291
vt 0.8693029 0.5232291
vt 0.6222184 0.358388
vt 0.6222184 0.358388
vt 0.6222184 0.358388
vt 0.6222184 0.1910086
vt 0.6222184 0.2233621
vt 0.6222184 0.1910086
vt 0.6222184 0.1910086
vt 0.6222184 0.09579005
vt 0.6222184 0.09579005
vt 0.7561111 0.4091842
vt 0.7561111 0.4091842
vt 0.7561111 0.4091842
vt 0.7561111 0.3037532
vt 0.7561111 0.3269383
vt 0.7561111 0.3037532
vt 0.7561111 0.3037532
vt 0.7561111 0.2491127
vt 0.7561111 0.2495058
vt 0.7561111 0.2491127
vt 0.7561111 0.2494244
vt 0.7561111 0.2494244
vt 0.7561111 0.249072
vt 0.7561111 0.2650369
vt 0.7561111 0.2495058
vt 0.7561111 0.2650369
vt 0.7561111 0.2650369
vt 0.7561111 0.353797
vt 0.7561111 0.3269383
vt 0.7561111 0.353797
vt 0.7561111 0.353797
vt 0.7561111 0.4377126
vt 0.7561111 0.4377126
vt 0.8568636 0.6030118
vt 0.8568636 0.6030118
vt 0.8568636 0.6559322
vt 0.8568636 0.6559322
vt 0.6222184 0.2765536
vt 0.6222184 0.3870311
vt 0.6222184 0.3870311
vt 0.6222184 0.2765536
vt 0.6222184 0.2765536
vt 0.6222184 0.1272226
vt 0.6222184 0.2233621
vt 0.6222184 0.1272226
vt 0.6222184 0.1272226
vt 0.6222184 0.358388
vt 0.6222184 0.2389167
vt 0.6222184 0.1910086
vt 0.6222184 0.09579005
vt 0.6222184 0.2765536
vt 0.6222184 0.3870311
vt 0.6222184 0.1272226
vt 0.7561111 0.4091842
vt 0.7561112 0.3105035
vt 0.7561111 0.3037532
vt 0.7561111 0.2491127
vt 0.7561111 0.2491127
vt 0.7561112 0.3105035
vt 0.7561111 0.2494244
vt 0.7561111 0.2650369
vt 0.7561111 0.353797
vt 0.7561112 0.3105035
vt 0.7561111 0.4377126
vt 0.7561111 0.2650369
vn -0.000163536 8.772362E-05 1
vn -0.000163536 8.772362E-05 1
vn -0.000163536 8.772363E-05 1
vn 0.000163536 8.772361E-05 1
vn 0.000163536 8.772361E-05 1
vn -4.512985E-06 5.517451E-06 1
vn -4.512985E-06 5.517451E-06 1
vn -4.512985E-06 5.517451E-06 1
vn -3.04903E-06 6.388944E-06 1
vn -3.04903E-06 6.388945E-06 1
vn -3.04903E-06 6.388945E-06 1
vn 3.280871E-05 1.666185E-05 1
vn 3.280871E-05 1.666185E-05 1
vn 3.280871E-05 1.666185E-05 1
vn 6.388306E-06 3.032826E-06 1
vn 6.388307E-06 3.032826E-06 1
vn 6.437249E-06 2.865916E-06 1
vn 5.517467E-06 4.482124E-06 1
vn 4.512985E-06 5.517452E-06 1
vn 4.512985E-06 5.517451E-06 1
vn 4.512985E-06 5.517451E-06 1
vn 3.04903E-06 6.388945E-06 1
vn 3.04903E-06 6.388945E-06 1
vn 3.04903E-06 6.388944E-06 1
vn -3.280871E-05 1.666185E-05 1
vn -6.388307E-06 3.032827E-06 1
vn -3.280871E-05 1.666185E-05 1
vn -6.388308E-06 3.032827E-06 1
vn -6.388308E-06 3.032827E-06 1
vn -6.437249E-06 2.865916E-06 1
vn -5.517467E-06 4.482124E-06 1
vn 0.03442886 -0.9994049 0.00212231
vn -0.1424711 -0.9894188 -0.02743011
vn -0.2983967 -0.9543955 -0.00941334
vn 0.5513943 -0.8340095 -0.01981536
vn 0.4025399 -0.9149104 -0.03000575
vn 0.2564543 -0.9665459 -0.004468817
vn -0.004894594 0.005325992 -0.9999739
vn -0.004894593 0.005325992 -0.9999739
vn -0.004894593 0.005325991 -0.9999739
vn 0.004043817 0.004268921 -0.9999827
vn 0.004043817 0.00426892 -0.9999827
vn 0.004043817 0.004268921 -0.9999827
vn -0.120527 -0.4373783 0.891164
vn 0 -0.4523134 0.8918591
vn -0.1179511 -0.4379969 0.8912049
vn 0 -0.4523134 0.8918591
vn 0.1179511 -0.4379969 0.8912049
vn 0.120527 -0.4373783 0.891164
vn -0.2374966 -0.3933132 0.8882005
vn -0.2390719 -0.3924878 0.8881429
vn -0.120527 -0.4373783 0.891164
vn -0.1179511 -0.4379969 0.8912049
vn -0.3424992 -0.3122083 0.8861266
vn -0.2390719 -0.3924878 0.8881429
vn -0.2374966 -0.3933132 0.8882005
vn -0.3418429 -0.3129239 0.8861275
vn -0.4190753 -0.1960877 0.8865244
vn -0.4194447 -0.1952899 0.8865258
vn -0.4588915 -0.07324766 0.8854679
vn -0.4592014 -0.07137397 0.8854603
vn -0.4647897 0.03756683 0.8846238
vn -0.4649148 0.03562827 0.8846382
vn -0.4428495 0.1489284 0.8841406
vn -0.4647897 0.03756683 0.8846238
vn -0.4649148 0.03562827 0.8846382
vn -0.4420603 0.1514185 0.8841126
vn -0.3949822 0.2547209 0.8826699
vn -0.3946715 0.2552087 0.8826681
vn -0.3326444 0.3326587 0.8824319
vn -0.333192 0.3321156 0.8824298
vn -0.2390819 0.4044145 0.8827733
vn -0.2356869 0.4065439 0.8827082
vn -0.1199014 0.4606619 0.8794397
vn -0.1202231 0.4605647 0.8794467
vn 0 0.4774829 0.878641
vn 0 0.4774829 0.878641
vn 0.1202231 0.4605647 0.8794467
vn 0.1199014 0.460662 0.8794397
vn 0.2356869 0.4065439 0.8827082
vn 0.2390819 0.4044145 0.8827733
vn 0.3326444 0.3326587 0.8824319
vn 0.333192 0.3321157 0.8824298
vn 0.3949822 0.254721 0.88267
vn 0.3946714 0.2552086 0.8826681
vn 0.4420603 0.1514185 0.8841126
vn 0.4428496 0.1489284 0.8841406
vn 0.4647897 0.03756683 0.8846238
vn 0.4649148 0.03562827 0.8846382
vn 0.2390719 -0.3924879 0.8881429
vn 0.2374966 -0.3933132 0.8882005
vn 0.1179511 -0.4379969 0.8912049
vn 0.120527 -0.4373783 0.891164
vn 0.3418429 -0.3129239 0.8861275
vn 0.2374966 -0.3933132 0.8882005
vn 0.2390719 -0.3924879 0.8881429
vn 0.3424992 -0.3122083 0.8861266
vn 0.4190753 -0.1960877 0.8865244
vn 0.4194447 -0.1952899 0.8865258
vn 0.4592014 -0.07137397 0.8854602
vn 0.4588915 -0.07324766 0.8854679
vn 0.4649148 0.03562827 0.8846382
vn 0.4647897 0.03756683 0.8846238
vn 6.645813E-06 4.533583E-05 1
vn 6.645813E-06 4.533583E-05 1
vn 6.645813E-06 4.533583E-05 1
vn -6.645813E-06 4.533583E-05 1
vn -3.898097E-06 -4.05717E-06 1
vn -3.898097E-06 -4.05717E-06 1
vn -3.898097E-06 -4.057171E-06 1
vn -4.848773E-06 -2.982064E-06 1
vn -6.392748E-06 2.88154E-06 1
vn -6.392749E-06 2.88154E-06 1
vn 3.898097E-06 -4.057171E-06 1
vn 3.898097E-06 -4.05717E-06 1
vn 4.848773E-06 -2.982064E-06 1
vn 6.392747E-06 2.881539E-06 1
vn 6.392747E-06 2.88154E-06 1
vn -0.2983967 -0.9543955 -0.00941334
vn -0.1424711 -0.9894188 -0.02743011
vn -0.6460834 -0.7620125 -0.04373789
vn -0.513545 -0.8577967 -0.02136531
vn -0.513545 -0.8577967 -0.02136531
vn -0.6460834 -0.7620125 -0.04373789
vn -0.7567848 -0.6528456 -0.03270175
vn -0.9498072 -0.3091186 -0.04808202
vn -0.8931102 -0.4486701 -0.0323947
vn -0.8931102 -0.4486701 -0.0323947
vn -0.9898114 -0.1405632 -0.0227007
vn -0.9782028 0.2013056 -0.0509467
vn -0.9978569 0.05923379 -0.02779893
vn -0.9978569 0.05923379 -0.02779893
vn -0.9782028 0.2013056 -0.0509467
vn -0.9396474 0.339895 -0.03916996
vn -0.7771404 0.6258411 -0.06614869
vn -0.8484551 0.5272419 -0.04625873
vn -0.8484551 0.5272419 -0.04625873
vn -0.6888763 0.7229729 -0.05253246
vn -0.385493 0.9194474 -0.07753471
vn -0.5211478 0.8517204 -0.05456345
vn -0.2319011 0.9707638 -0.06196289
vn 0.1316597 0.9878428 -0.08265754
vn -0.0165696 0.9977474 -0.06500451
vn 0.2757838 0.9590408 -0.06468443
vn 0.5983735 0.7981839 -0.06965484
vn 0.4898553 0.8697784 -0.05939093
vn 0.4898553 0.8697784 -0.05939093
vn 0.7176046 0.6950608 -0.04398052
vn 0.902005 0.4284866 -0.05278505
vn 0.8290699 0.5576676 -0.04061982
vn 0.8290699 0.5576676 -0.04061982
vn 0.9500523 0.3102857 -0.03351673
vn 0.9978187 -0.04912488 -0.04409669
vn 0.994468 0.1015562 -0.02682936
vn 0.2564543 -0.9665459 -0.004468817
vn 0.4025399 -0.9149104 -0.03000575
vn -0.1424711 -0.9894188 -0.02743011
vn 0.03442886 -0.9994049 0.00212231
vn 0.7265546 -0.6867278 -0.02288044
vn 0.4025399 -0.9149104 -0.03000575
vn 0.5513943 -0.8340095 -0.01981536
vn 0.8314099 -0.5541819 -0.04049587
vn 0.9138553 -0.4055696 -0.0195364
vn 0.9828715 -0.1828157 -0.02327958
vn 0.9138553 -0.4055696 -0.0195364
vn 0.9978187 -0.04912488 -0.04409669
vn 0.994468 0.1015562 -0.02682936
vn -0.0009038052 0.002037989 -0.9999975
vn -0.0009038053 0.002037989 -0.9999975
vn -0.0009038052 0.002037989 -0.9999975
vn -0.0005419707 0.0009434987 -0.9999994
vn 0.002251302 0.003562383 -0.9999912
vn 0.002251302 0.003562383 -0.9999912
vn 0.0003065753 0.0006003845 -0.9999998
vn -0.0002698741 0.002681425 -0.9999964
vn -0.0002698741 0.002681425 -0.9999964
vn -0.0002698741 0.002681425 -0.9999964
vn -0.001401535 0.001194042 -0.9999983
vn -0.001529667 0.001139345 -0.9999982
vn -0.001529667 0.001139345 -0.9999982
vn -0.001529666 0.001139345 -0.9999982
vn 0.00231577 0.0005922308 -0.9999971
vn 0.0004507007 0.002402906 -0.999997
vn 0.0004507007 0.002402906 -0.999997
vn 0.0004507007 0.002402906 -0.999997
vn 0.0006878583 0.001843465 -0.9999981
g Floor_06_COL_0
f 3/3/3 2/2/2 1/1/1
f 5/5/5 2/2/2 4/4/4
f 8/8/8 7/7/7 6/6/6
f 11/11/11 10/10/10 9/9/9
f 14/14/14 13/13/13 12/12/12
f 16/16/16 13/13/13 15/15/15
f 17/17/17 13/13/13 16/16/16
f 18/18/18 13/13/13 17/17/17
f 21/21/21 20/20/20 19/19/19
f 24/24/24 23/23/23 22/22/22
f 27/27/27 26/26/26 25/25/25
f 29/29/29 26/26/26 28/28/28
f 28/28/28 26/26/26 30/30/30
f 30/30/30 26/26/26 31/31/31
f 34/34/34 33/33/33 32/32/32
f 37/37/37 36/36/36 35/35/35
f 40/40/40 39/39/39 38/38/38
f 43/43/43 42/42/42 41/41/41
f 46/46/46 45/45/45 44/44/44
f 45/45/45 47/47/47 44/44/44
f 45/45/45 48/48/48 47/47/47
f 48/48/48 49/49/49 47/47/47
f 52/52/52 51/51/51 50/50/50
f 53/53/53 52/52/52 50/50/50
f 56/56/56 55/55/55 54/54/54
f 55/55/55 57/57/57 54/54/54
f 54/54/54 57/57/57 58/58/58
f 59/59/59 54/54/54 58/58/58
f 59/59/59 58/58/58 60/60/60
f 58/58/58 61/61/61 60/60/60
f 60/60/60 61/61/61 62/62/62
f 63/63/63 60/60/60 62/62/62
f 66/66/66 65/65/65 64/64/64
f 65/65/65 67/67/67 64/64/64
f 64/64/64 67/67/67 68/68/68
f 67/67/67 69/69/69 68/68/68
f 68/68/68 69/69/69 70/70/70
f 69/69/69 71/71/71 70/70/70
f 70/70/70 71/71/71 72/72/72
f 73/73/73 70/70/70 72/72/72
f 72/72/72 74/74/74 73/73/73
f 74/74/74 75/75/75 73/73/73
f 75/75/75 74/74/74 76/76/76
f 74/74/74 77/77/77 76/76/76
f 78/78/78 76/76/76 77/77/77
f 79/79/79 78/78/78 77/77/77
f 78/78/78 79/79/79 80/80/80
f 79/79/79 81/81/81 80/80/80
f 82/82/82 80/80/80 81/81/81
f 83/83/83 82/82/82 81/81/81
f 84/84/84 82/82/82 83/83/83
f 85/85/85 84/84/84 83/83/83
f 84/84/84 85/85/85 86/86/86
f 87/87/87 84/84/84 86/86/86
f 87/87/87 86/86/86 88/88/88
f 89/89/89 87/87/87 88/88/88
f 92/92/92 91/91/91 90/90/90
f 93/93/93 92/92/92 90/90/90
f 96/96/96 95/95/95 94/94/94
f 95/95/95 97/97/97 94/94/94
f 94/94/94 97/97/97 98/98/98
f 97/97/97 99/99/99 98/98/98
f 98/98/98 99/99/99 100/100/100
f 99/99/99 101/101/101 100/100/100
f 101/101/101 102/102/102 100/100/100
f 102/102/102 103/103/103 100/100/100
f 106/106/106 105/105/105 104/104/104
f 107/107/107 105/105/105 106/106/106
f 110/110/110 109/109/109 108/108/108
f 108/108/108 109/109/109 111/111/111
f 111/111/111 109/109/109 112/112/112
f 112/112/112 109/109/109 113/113/113
f 115/115/115 109/109/109 114/114/114
f 116/116/116 109/109/109 115/115/115
f 117/117/117 109/109/109 116/116/116
f 118/118/118 109/109/109 117/117/117
f 121/121/121 120/120/120 119/119/119
f 122/122/122 121/121/121 119/119/119
f 125/125/125 124/124/124 123/123/123
f 126/126/126 124/124/124 125/125/125
f 127/127/127 126/126/126 125/125/125
f 129/129/129 126/126/126 128/128/128
f 130/130/130 126/126/126 129/129/129
f 131/131/131 130/130/130 129/129/129
f 134/134/134 133/133/133 132/132/132
f 135/135/135 133/133/133 134/134/134
f 136/136/136 135/135/135 134/134/134
f 138/138/138 135/135/135 137/137/137
f 139/139/139 135/135/135 138/138/138
f 140/140/140 139/139/139 138/138/138
f 141/141/141 139/139/139 140/140/140
f 142/142/142 139/139/139 141/141/141
f 143/143/143 142/142/142 141/141/141
f 144/144/144 142/142/142 143/143/143
f 145/145/145 142/142/142 144/144/144
f 146/146/146 145/145/145 144/144/144
f 148/148/148 145/145/145 147/147/147
f 149/149/149 145/145/145 148/148/148
f 150/150/150 149/149/149 148/148/148
f 152/152/152 149/149/149 151/151/151
f 153/153/153 149/149/149 152/152/152
f 154/154/154 153/153/153 152/152/152
f 157/157/157 156/156/156 155/155/155
f 158/158/158 157/157/157 155/155/155
f 161/161/161 160/160/160 159/159/159
f 160/160/160 162/162/162 159/159/159
f 159/159/159 162/162/162 163/163/163
f 165/165/165 162/162/162 164/164/164
f 162/162/162 166/166/166 164/164/164
f 164/164/164 166/166/166 167/167/167
f 170/170/170 169/169/169 168/168/168
f 171/171/171 169/169/169 170/170/170
f 173/173/173 169/169/169 172/172/172
f 172/172/172 169/169/169 174/174/174
f 177/177/177 176/176/176 175/175/175
f 178/178/178 176/176/176 177/177/177
f 181/181/181 180/180/180 179/179/179
f 182/182/182 180/180/180 181/181/181
f 185/185/185 184/184/184 183/183/183
f 183/183/183 184/184/184 186/186/186
