g FX_SlipperyPlane
v -3.426171 -3.700743E-16 3.439379
v -4.114996 -1.110223E-15 4.784662
v -4.696077 -3.700743E-16 4.210638
v -3.426171 -1.110223E-15 5
v -5 -2.950407E-16 3.439378
v -3.426171 3.700744E-16 -3.439379
v -5 3.059464E-16 -3.43938
v -4.696077 3.700744E-16 -4.210638
v -4.114996 1.110223E-15 -4.784662
v -3.426172 1.110223E-15 -5
v 3.426172 1.110223E-15 -5
v 3.426171 -1.110223E-15 5
v 3.426171 3.700744E-16 -3.439379
v 4.114996 1.110223E-15 -4.784662
v 4.696077 3.700744E-16 -4.210638
v 5 2.890864E-16 -3.439378
v 3.426171 -3.700743E-16 3.439379
v 4.114996 -1.110223E-15 4.784662
v 5 -2.983914E-16 3.439379
v 4.696077 -3.700743E-16 4.210638
vt 0.1017485 0.1002133
vt 0.1017485 -2.980232E-08
vt -2.980232E-08 0.1002133
vt 0.1633174 -2.980232E-08
vt -2.980232E-08 0.1812711
vt 0.1017485 0.8997866
vt -2.980232E-08 0.8305099
vt -2.980232E-08 0.8997866
vt 0.1017485 0.9999999
vt 0.1484414 0.9999999
vt 0.794264 0.9999999
vt 0.7853597 -2.980232E-08
vt 0.8982514 0.8997866
vt 0.8982514 0.9999999
vt 0.9999999 0.8997866
vt 0.9999999 0.8122963
vt 0.8982514 0.1002133
vt 0.8982514 -2.980232E-08
vt 0.9999999 0.1776515
vt 0.9999999 0.1002133
vn 0 1 0
vn 0 1 0
vn 0 1 0
vn 0 1 0
vn 0 1 0
vn 0 1 0
vn 0 1 0
vn 0 1 0
vn 0 1 0
vn 0 1 0
vn 0 1 0
vn 0 1 0
vn 0 1 0
vn 0 1 0
vn 0 1 0
vn 0 1 0
vn 0 1 0
vn 0 1 0
vn 0 1 0
vn 0 1 0
g FX_SlipperyPlane_0
f 3/3/3 2/2/2 1/1/1
f 4/4/4 1/1/1 2/2/2
f 1/1/1 5/5/5 3/3/3
f 1/1/1 6/6/6 5/5/5
f 6/6/6 7/7/7 5/5/5
f 6/6/6 8/8/8 7/7/7
f 8/8/8 6/6/6 9/9/9
f 10/10/10 9/9/9 6/6/6
f 11/11/11 10/10/10 6/6/6
f 4/4/4 12/12/12 1/1/1
f 13/13/13 11/11/11 6/6/6
f 13/13/13 6/6/6 1/1/1
f 13/13/13 14/14/14 11/11/11
f 14/14/14 13/13/13 15/15/15
f 16/16/16 15/15/15 13/13/13
f 12/12/12 17/17/17 1/1/1
f 17/17/17 13/13/13 1/1/1
f 16/16/16 13/13/13 17/17/17
f 12/12/12 18/18/18 17/17/17
f 19/19/19 16/16/16 17/17/17
f 18/18/18 20/20/20 17/17/17
f 20/20/20 19/19/19 17/17/17
