g FX_WaterEdge_Ring
v 3.054738E-07 0 -0.9848077
v -0.1282724 0 -0.72747
v -0.1710298 0 -0.96996
v 2.291054E-07 0 -0.7386058
v -0.08551491 0 -0.48498
v 0.1710304 0 -0.9699599
v 1.527369E-07 0 -0.4924039
v 0.1282728 0 -0.7274699
v 0.3368244 0 -0.9254165
v 0.08551521 0 -0.4849799
v 0.2526183 0 -0.6940624
v 0.4924618 0 -0.8529683
v 0.1684122 0 -0.4627082
v 0.3693464 0 -0.6397262
v 0.6330224 0 -0.7544063
v 0.2462309 0 -0.4264841
v 0.4747668 0 -0.5658047
v 0.7544951 0 -0.6330961
v 0.3165112 0 -0.3772031
v 0.5658713 0 -0.4748221
v 0.8528687 0 -0.4924036
v 0.3772475 0 -0.316548
v 0.6396515 0 -0.3693027
v 0.9255251 0 -0.3368633
v 0.4264343 0 -0.2462018
v 0.6941438 0 -0.2526474
v 0.9698464 0 -0.1710099
v 0.4627626 0 -0.1684316
v 0.7273848 0 -0.1282574
v 0.9849232 0 4.470348E-08
v 0.4849232 0 -0.08550495
v 0.7386924 0 3.352761E-08
v 0.9698463 0 0.1710101
v 0.4924616 0 2.235174E-08
v 0.7273847 0 0.1282576
v 0.9255251 0 0.3368636
v 0.4849232 0 0.08550504
v 0.6941438 0 0.2526477
v 0.8528685 0 0.4924039
v 0.4627625 0 0.1684318
v 0.6396514 0 0.3693029
v 0.7544948 0 0.6330964
v 0.4264342 0 0.2462019
v 0.5658712 0 0.4748223
v 0.6330222 0 0.7544066
v 0.3772474 0 0.3165482
v 0.4747666 0 0.565805
v 0.4924615 0 0.8529685
v 0.3165111 0 0.3772033
v 0.3693461 0 0.6397264
v 0.336824 0 0.9254166
v 0.2462308 0 0.4264843
v 0.252618 0 0.6940625
v 0.17103 0 0.96996
v 0.168412 0 0.4627083
v 0.1282725 0 0.72747
v -1.043081E-07 0 0.9848077
v 0.08551501 0 0.48498
v -7.82311E-08 0 0.7386059
v -0.1710302 0 0.96996
v -5.215406E-08 0 0.4924039
v -0.1282727 0 0.72747
v -0.3368242 0 0.9254165
v -0.08551511 0 0.48498
v -0.2526181 0 0.6940624
v -0.4924617 0 0.8529683
v -0.1684121 0 0.4627083
v -0.3693463 0 0.6397263
v -0.6330223 0 0.7544064
v -0.2462308 0 0.4264842
v -0.4747667 0 0.5658048
v -0.754495 0 0.6330962
v -0.3165112 0 0.3772032
v -0.5658712 0 0.4748222
v -0.8528686 0 0.4924037
v -0.3772475 0 0.3165481
v -0.6396514 0 0.3693028
v -0.9255251 0 0.3368634
v -0.4264343 0 0.2462018
v -0.6941438 0 0.2526475
v -0.9698463 0 0.1710099
v -0.4627625 0 0.1684317
v -0.7273847 0 0.1282574
v -0.9849231 0 -2.30968E-07
v -0.4849232 0 0.08550493
v -0.7386923 0 -1.722947E-07
v -0.9698462 0 -0.1710103
v -0.4924616 0 -1.15484E-07
v -0.7273847 0 -0.1282577
v -0.9255249 0 -0.3368638
v -0.4849231 0 -0.08550515
v -0.6941437 0 -0.2526478
v -0.8528684 0 -0.492404
v -0.4627624 0 -0.1684319
v -0.6396512 0 -0.369303
v -0.7544948 0 -0.6330966
v -0.4264342 0 -0.246202
v -0.5658711 0 -0.4748224
v -0.633022 0 -0.7544066
v -0.3772474 0 -0.3165483
v -0.4747665 0 -0.565805
v -0.4924613 0 -0.8529686
v -0.316511 0 -0.3772033
v -0.369346 0 -0.6397265
v -0.3368238 0 -0.9254166
v -0.2462307 0 -0.4264843
v -0.2526179 0 -0.6940625
v -0.1710298 0 -0.96996
v -0.1684119 0 -0.4627083
v -0.1282724 0 -0.72747
v -0.08551491 0 -0.48498
vt 0.0006112754 0.02534972
vt 0.5003056 0
vt 0.0006112754 0
vt 0.5003055 0.02534972
vt 0.9999999 0
vt 0.0006112754 0.05069944
vt 0.9999999 0.02534972
vt 0.5003055 0.05122838
vt 0.0006112754 0.07816491
vt 0.9999999 0.05069944
vt 0.5003055 0.07816491
vt 0.0006112754 0.1056304
vt 0.9999999 0.07816491
vt 0.5003055 0.1053312
vt 0.0006112754 0.131899
vt 0.9999999 0.1056304
vt 0.5003055 0.131899
vt 0.0006112754 0.1581677
vt 0.9999999 0.131899
vt 0.5003055 0.1602422
vt 0.0006112754 0.1927343
vt 0.9999999 0.1581677
vt 0.5003055 0.1927343
vt 0.0006112754 0.2273009
vt 0.9999999 0.1927343
vt 0.5003055 0.2254001
vt 0.0006112754 0.2542642
vt 0.9999999 0.227301
vt 0.5003055 0.2542642
vt 0.0006112754 0.2812275
vt 0.9999999 0.2542642
vt 0.5003055 0.2812825
vt 0.0006112754 0.308411
vt 0.9999999 0.2812275
vt 0.5003055 0.308411
vt 0.0006112754 0.3355945
vt 0.9999999 0.308411
vt 0.5003055 0.3370525
vt 0.0006112754 0.3686098
vt 0.9999999 0.3355945
vt 0.5003055 0.3686098
vt 0.0006112754 0.4016252
vt 0.9999999 0.3686098
vt 0.5003055 0.4001696
vt 0.0006112754 0.428818
vt 0.9999999 0.4016252
vt 0.5003055 0.428818
vt 0.0006112754 0.4560108
vt 0.9999999 0.428818
vt 0.5002674 0.4561163
vt 0.0003056526 0.4836256
vt 0.9999999 0.4560109
vt 0.5001528 0.4836256
vt 2.980232E-08 0.5112404
vt 0.9999999 0.4836257
vt 0.4999999 0.5108637
vt -0.000305593 0.5373484
vt 0.9999999 0.5112404
vt 0.4998471 0.5373484
vt -0.0006112158 0.5634565
vt 0.9999999 0.5373484
vt 0.4997326 0.5637985
vt -0.0006112158 0.5909329
vt 0.9999999 0.5634565
vt 0.4996943 0.5909328
vt -0.0006112158 0.6184093
vt 0.9999999 0.5909328
vt 0.4996943 0.6180888
vt -0.0006112158 0.6446037
vt 0.9999999 0.6184092
vt 0.4996943 0.6446037
vt -0.0006112158 0.6707981
vt 0.9999999 0.6446036
vt 0.4996943 0.6717601
vt -0.0006112158 0.7008405
vt 0.9999999 0.6707981
vt 0.4996943 0.7008404
vt -0.0006112158 0.7308828
vt 0.9999999 0.7008404
vt 0.4996943 0.7302063
vt -0.0006112158 0.7582195
vt 0.9999999 0.7308826
vt 0.4996943 0.7582195
vt -0.0006112158 0.7855563
vt 0.9999999 0.7582194
vt 0.4996943 0.7853985
vt -0.0006112158 0.8122623
vt 0.9999999 0.7855563
vt 0.4996943 0.8122623
vt -0.0006112158 0.8389683
vt 0.9999999 0.8122623
vt 0.4996943 0.8389205
vt -0.0006112158 0.865483
vt 0.9999999 0.8389683
vt 0.4996943 0.865483
vt -0.0006112158 0.8919977
vt 0.9999999 0.865483
vt 0.4996944 0.8922109
vt -0.0006112158 0.9193653
vt 1 0.8919977
vt 0.4996944 0.9193652
vt -0.0006112158 0.9467329
vt 1 0.9193652
vt 0.4996944 0.9465494
vt -0.0006112605 0.9733665
vt 1 0.9467328
vt 0.4996943 0.9733664
vt -0.0006113052 1
vt 0.9999999 0.9733664
vt 0.4996943 1
vt 0.9999999 1
vn 0 1 0
vn 0 1 0
vn 0 1 0
vn 0 1 0
vn 0 1 0
vn 0 1 0
vn 0 1 0
vn 0 1 0
vn 0 1 0
vn 0 1 0
vn 0 1 0
vn 0 1 0
vn 0 1 0
vn 0 1 0
vn 0 1 0
vn 0 1 0
vn 0 1 0
vn 0 1 0
vn 0 1 0
vn 0 1 0
vn 0 1 0
vn 0 1 0
vn 0 1 0
vn 0 1 0
vn 0 1 0
vn 0 1 0
vn 0 1 0
vn 0 1 0
vn 0 1 0
vn 0 1 0
vn 0 1 0
vn 0 1 0
vn 0 1 0
vn 0 1 0
vn 0 1 0
vn 0 1 0
vn 0 1 0
vn 0 1 0
vn 0 1 0
vn 0 1 0
vn 0 1 0
vn 0 1 0
vn 0 1 0
vn 0 1 0
vn 0 1 0
vn 0 1 0
vn 0 1 0
vn 0 1 0
vn 0 1 0
vn 0 1 0
vn 0 1 0
vn 0 1 0
vn 0 1 0
vn 0 1 0
vn 0 1 0
vn 0 1 0
vn 0 1 0
vn 0 1 0
vn 0 1 0
vn 0 1 0
vn 0 1 0
vn 0 1 0
vn 0 1 0
vn 0 1 0
vn 0 1 0
vn 0 1 0
vn 0 1 0
vn 0 1 0
vn 0 1 0
vn 0 1 0
vn 0 1 0
vn 0 1 0
vn 0 1 0
vn 0 1 0
vn 0 1 0
vn 0 1 0
vn 0 1 0
vn 0 1 0
vn 0 1 0
vn 0 1 0
vn 0 1 0
vn 0 1 0
vn 0 1 0
vn 0 1 0
vn 0 1 0
vn 0 1 0
vn 0 1 0
vn 0 1 0
vn 0 1 0
vn 0 1 0
vn 0 1 0
vn 0 1 0
vn 0 1 0
vn 0 1 0
vn 0 1 0
vn 0 1 0
vn 0 1 0
vn 0 1 0
vn 0 1 0
vn 0 1 0
vn 0 1 0
vn 0 1 0
vn 0 1 0
vn 0 1 0
vn 0 1 0
vn 0 1 0
vn 0 1 0
vn 0 1 0
vn 0 1 0
vn 0 1 0
vn 0 1 0
g FX_WaterEdge_Ring_0
f 3/3/3 2/2/2 1/1/1
f 2/2/2 4/4/4 1/1/1
f 2/2/2 5/5/5 4/4/4
f 1/1/1 4/4/4 6/6/6
f 5/5/5 7/7/7 4/4/4
f 4/4/4 8/8/8 6/6/6
f 4/4/4 7/7/7 8/8/8
f 6/6/6 8/8/8 9/9/9
f 7/7/7 10/10/10 8/8/8
f 8/8/8 11/11/11 9/9/9
f 8/8/8 10/10/10 11/11/11
f 9/9/9 11/11/11 12/12/12
f 10/10/10 13/13/13 11/11/11
f 11/11/11 14/14/14 12/12/12
f 11/11/11 13/13/13 14/14/14
f 12/12/12 14/14/14 15/15/15
f 13/13/13 16/16/16 14/14/14
f 14/14/14 17/17/17 15/15/15
f 14/14/14 16/16/16 17/17/17
f 15/15/15 17/17/17 18/18/18
f 16/16/16 19/19/19 17/17/17
f 17/17/17 20/20/20 18/18/18
f 17/17/17 19/19/19 20/20/20
f 18/18/18 20/20/20 21/21/21
f 19/19/19 22/22/22 20/20/20
f 20/20/20 23/23/23 21/21/21
f 20/20/20 22/22/22 23/23/23
f 21/21/21 23/23/23 24/24/24
f 22/22/22 25/25/25 23/23/23
f 23/23/23 26/26/26 24/24/24
f 23/23/23 25/25/25 26/26/26
f 24/24/24 26/26/26 27/27/27
f 25/25/25 28/28/28 26/26/26
f 26/26/26 29/29/29 27/27/27
f 26/26/26 28/28/28 29/29/29
f 27/27/27 29/29/29 30/30/30
f 28/28/28 31/31/31 29/29/29
f 29/29/29 32/32/32 30/30/30
f 29/29/29 31/31/31 32/32/32
f 30/30/30 32/32/32 33/33/33
f 31/31/31 34/34/34 32/32/32
f 32/32/32 35/35/35 33/33/33
f 32/32/32 34/34/34 35/35/35
f 33/33/33 35/35/35 36/36/36
f 34/34/34 37/37/37 35/35/35
f 35/35/35 38/38/38 36/36/36
f 35/35/35 37/37/37 38/38/38
f 36/36/36 38/38/38 39/39/39
f 37/37/37 40/40/40 38/38/38
f 38/38/38 41/41/41 39/39/39
f 38/38/38 40/40/40 41/41/41
f 39/39/39 41/41/41 42/42/42
f 40/40/40 43/43/43 41/41/41
f 41/41/41 44/44/44 42/42/42
f 41/41/41 43/43/43 44/44/44
f 42/42/42 44/44/44 45/45/45
f 43/43/43 46/46/46 44/44/44
f 44/44/44 47/47/47 45/45/45
f 44/44/44 46/46/46 47/47/47
f 45/45/45 47/47/47 48/48/48
f 46/46/46 49/49/49 47/47/47
f 47/47/47 50/50/50 48/48/48
f 47/47/47 49/49/49 50/50/50
f 48/48/48 50/50/50 51/51/51
f 49/49/49 52/52/52 50/50/50
f 50/50/50 53/53/53 51/51/51
f 50/50/50 52/52/52 53/53/53
f 51/51/51 53/53/53 54/54/54
f 52/52/52 55/55/55 53/53/53
f 53/53/53 56/56/56 54/54/54
f 53/53/53 55/55/55 56/56/56
f 54/54/54 56/56/56 57/57/57
f 55/55/55 58/58/58 56/56/56
f 56/56/56 59/59/59 57/57/57
f 56/56/56 58/58/58 59/59/59
f 57/57/57 59/59/59 60/60/60
f 58/58/58 61/61/61 59/59/59
f 59/59/59 62/62/62 60/60/60
f 59/59/59 61/61/61 62/62/62
f 60/60/60 62/62/62 63/63/63
f 61/61/61 64/64/64 62/62/62
f 62/62/62 65/65/65 63/63/63
f 62/62/62 64/64/64 65/65/65
f 63/63/63 65/65/65 66/66/66
f 64/64/64 67/67/67 65/65/65
f 65/65/65 68/68/68 66/66/66
f 65/65/65 67/67/67 68/68/68
f 66/66/66 68/68/68 69/69/69
f 67/67/67 70/70/70 68/68/68
f 68/68/68 71/71/71 69/69/69
f 68/68/68 70/70/70 71/71/71
f 69/69/69 71/71/71 72/72/72
f 70/70/70 73/73/73 71/71/71
f 71/71/71 74/74/74 72/72/72
f 71/71/71 73/73/73 74/74/74
f 72/72/72 74/74/74 75/75/75
f 73/73/73 76/76/76 74/74/74
f 74/74/74 77/77/77 75/75/75
f 74/74/74 76/76/76 77/77/77
f 75/75/75 77/77/77 78/78/78
f 76/76/76 79/79/79 77/77/77
f 77/77/77 80/80/80 78/78/78
f 77/77/77 79/79/79 80/80/80
f 78/78/78 80/80/80 81/81/81
f 79/79/79 82/82/82 80/80/80
f 80/80/80 83/83/83 81/81/81
f 80/80/80 82/82/82 83/83/83
f 81/81/81 83/83/83 84/84/84
f 82/82/82 85/85/85 83/83/83
f 83/83/83 86/86/86 84/84/84
f 83/83/83 85/85/85 86/86/86
f 84/84/84 86/86/86 87/87/87
f 85/85/85 88/88/88 86/86/86
f 86/86/86 89/89/89 87/87/87
f 86/86/86 88/88/88 89/89/89
f 87/87/87 89/89/89 90/90/90
f 88/88/88 91/91/91 89/89/89
f 89/89/89 92/92/92 90/90/90
f 89/89/89 91/91/91 92/92/92
f 90/90/90 92/92/92 93/93/93
f 91/91/91 94/94/94 92/92/92
f 92/92/92 95/95/95 93/93/93
f 92/92/92 94/94/94 95/95/95
f 93/93/93 95/95/95 96/96/96
f 94/94/94 97/97/97 95/95/95
f 95/95/95 98/98/98 96/96/96
f 95/95/95 97/97/97 98/98/98
f 96/96/96 98/98/98 99/99/99
f 97/97/97 100/100/100 98/98/98
f 98/98/98 101/101/101 99/99/99
f 98/98/98 100/100/100 101/101/101
f 99/99/99 101/101/101 102/102/102
f 100/100/100 103/103/103 101/101/101
f 101/101/101 104/104/104 102/102/102
f 101/101/101 103/103/103 104/104/104
f 102/102/102 104/104/104 105/105/105
f 103/103/103 106/106/106 104/104/104
f 104/104/104 107/107/107 105/105/105
f 104/104/104 106/106/106 107/107/107
f 105/105/105 107/107/107 108/108/108
f 106/106/106 109/109/109 107/107/107
f 107/107/107 110/110/110 108/108/108
f 107/107/107 109/109/109 110/110/110
f 109/109/109 111/111/111 110/110/110
