g Hexagon_15_MO
v -2.079084 0.492579 2.185571E-08
v -1.039542 0.4925788 1.80054
v -1.155001 0.2925988 2.00052
v -2.310001 0.2925988 1.31143E-08
v -2.310001 0.2925988 1.31143E-08
v -1.155001 0.2925989 -2.00052
v -1.039542 0.492579 -1.80054
v -2.079084 0.492579 2.185571E-08
v -1.039542 0.4925788 1.80054
v 1.039542 0.4925788 1.80054
v 1.155001 0.2925988 2.00052
v -1.155001 0.2925988 2.00052
v 1.039542 0.4925788 1.80054
v 2.079084 0.492579 -1.699973E-07
v 2.310001 0.2925988 -1.888324E-07
v 1.155001 0.2925988 2.00052
v 2.079084 0.492579 -1.699973E-07
v 1.039542 0.492579 -1.80054
v 1.155001 0.2925989 -2.00052
v 2.310001 0.2925988 -1.888324E-07
v 1.039542 0.492579 -1.80054
v -1.039542 0.492579 -1.80054
v -1.155001 0.2925989 -2.00052
v 1.155001 0.2925989 -2.00052
v -1.155001 0.2925988 2.00052
v -1.155001 -0.007421411 2.00052
v -2.310001 -0.007421323 0
v -2.310001 0.2925988 1.31143E-08
v 1.155001 0.2925988 2.00052
v 1.155001 -0.007421411 2.00052
v -1.155001 -0.007421411 2.00052
v -1.155001 0.2925988 2.00052
v 2.310001 0.2925988 -1.888324E-07
v 2.310001 -0.007421323 -2.019467E-07
v 1.155001 -0.007421411 2.00052
v 1.155001 0.2925988 2.00052
v 1.155001 0.2925989 -2.00052
v 1.155001 -0.007421236 -2.00052
v 2.310001 -0.007421323 -2.019467E-07
v 2.310001 0.2925988 -1.888324E-07
v -1.155001 0.2925989 -2.00052
v -1.155001 -0.007421236 -2.00052
v 1.155001 -0.007421236 -2.00052
v 1.155001 0.2925989 -2.00052
v -2.310001 0.2925988 1.31143E-08
v -2.310001 -0.007421323 0
v -1.155001 -0.007421236 -2.00052
v -1.155001 0.2925989 -2.00052
v -2.310001 -0.007421323 0
v -1.155001 -0.007421411 2.00052
v 0 -0.007421323 0
v -1.155001 -0.007421236 -2.00052
v 1.155001 -0.007421411 2.00052
v 1.155001 -0.007421236 -2.00052
v 2.310001 -0.007421323 -2.019467E-07
v -1.039542 0.4925788 1.80054
v -2.079084 0.492579 2.185571E-08
v 0 0.492579 2.185571E-08
v 1.039542 0.4925788 1.80054
v -1.039542 0.492579 -1.80054
v 2.079084 0.492579 -1.699973E-07
v 1.039542 0.492579 -1.80054
vt 0.01302925 0.3392503
vt 0.06943331 0.2389764
vt 0.06316868 0.2278393
vt 0.0005 0.3392503
vt 0.0005 0.3392503
vt 0.06316868 0.4506612
vt 0.06943331 0.4395241
vt 0.01302925 0.3392503
vt 0.06943331 0.2389764
vt 0.1822414 0.2389764
vt 0.1885061 0.2278393
vt 0.06316868 0.2278393
vt 0.1822414 0.2389764
vt 0.2386455 0.3392503
vt 0.2511747 0.3392503
vt 0.1885061 0.2278393
vt 0.2386455 0.3392503
vt 0.1822414 0.4395241
vt 0.1885061 0.4506612
vt 0.2511747 0.3392503
vt 0.1822414 0.4395241
vt 0.06943331 0.4395241
vt 0.06316868 0.4506612
vt 0.1885061 0.4506612
vt 0.06316868 0.2278393
vt 0.06316868 0.2278393
vt 0.0005 0.3392503
vt 0.0005 0.3392503
vt 0.1885061 0.2278393
vt 0.1885061 0.2278393
vt 0.06316868 0.2278393
vt 0.06316868 0.2278393
vt 0.2511747 0.3392503
vt 0.2511747 0.3392503
vt 0.1885061 0.2278393
vt 0.1885061 0.2278393
vt 0.1885061 0.4506612
vt 0.1885061 0.4506612
vt 0.2511747 0.3392503
vt 0.2511747 0.3392503
vt 0.06316868 0.4506612
vt 0.06316868 0.4506612
vt 0.1885061 0.4506612
vt 0.1885061 0.4506612
vt 0.0005 0.3392503
vt 0.0005 0.3392503
vt 0.06316868 0.4506612
vt 0.06316868 0.4506612
vt 0.0005 0.3392503
vt 0.06316868 0.2278393
vt 0.1258374 0.3392503
vt 0.06316868 0.4506612
vt 0.1885061 0.2278393
vt 0.1885061 0.4506612
vt 0.2511747 0.3392503
vt 0.06943331 0.2389764
vt 0.01302925 0.3392503
vt 0.1258374 0.3392503
vt 0.1822414 0.2389764
vt 0.06943331 0.4395241
vt 0.2386455 0.3392503
vt 0.1822414 0.4395241
vn -0.6123724 0.7071068 0.3535533
vn -0.6123724 0.7071068 0.3535533
vn -0.6123724 0.7071068 0.3535533
vn -0.6123724 0.7071068 0.3535533
vn -0.6123725 0.7071069 -0.3535532
vn -0.6123723 0.7071069 -0.3535533
vn -0.6123724 0.7071068 -0.3535532
vn -0.6123724 0.7071068 -0.3535532
vn 0 0.7071068 0.7071068
vn 0 0.7071068 0.7071068
vn 0 0.7071068 0.7071068
vn 0 0.7071068 0.7071068
vn 0.6123724 0.7071068 0.3535533
vn 0.6123724 0.7071068 0.3535533
vn 0.6123724 0.7071068 0.3535533
vn 0.6123723 0.7071069 0.3535533
vn 0.6123724 0.7071068 -0.3535533
vn 0.6123724 0.7071068 -0.3535533
vn 0.6123724 0.7071068 -0.3535533
vn 0.6123724 0.7071068 -0.3535533
vn 0 0.7071068 -0.7071066
vn 0 0.7071068 -0.7071066
vn 0 0.7071068 -0.7071066
vn 0 0.7071068 -0.7071066
vn -0.8660254 0 0.5
vn -0.8660254 0 0.5
vn -0.8660254 0 0.5
vn -0.8660254 0 0.5
vn 0 0 1
vn 0 0 1
vn 0 0 1
vn 0 0 1
vn 0.8660255 0 0.4999999
vn 0.8660255 0 0.4999999
vn 0.8660255 0 0.4999999
vn 0.8660255 0 0.4999999
vn 0.8660254 0 -0.5
vn 0.8660254 0 -0.5
vn 0.8660254 0 -0.5
vn 0.8660254 0 -0.5
vn 0 0 -1
vn 0 0 -1
vn 0 0 -1
vn 0 0 -1
vn -0.8660254 0 -0.5
vn -0.8660254 0 -0.5
vn -0.8660254 0 -0.5
vn -0.8660254 0 -0.5
vn 0 -1 0
vn 0 -1 0
vn 0 -1 0
vn 0 -1 0
vn 0 -1 0
vn 0 -1 0
vn 0 -1 0
vn 0 1 0
vn 0 1 0
vn 0 1 0
vn 0 1 0
vn 0 1 0
vn 0 1 0
vn 0 1 0
g Hexagon_15_MO_0
f 3/3/3 2/2/2 1/1/1
f 4/4/4 3/3/3 1/1/1
f 7/7/7 6/6/6 5/5/5
f 8/8/8 7/7/7 5/5/5
f 11/11/11 10/10/10 9/9/9
f 12/12/12 11/11/11 9/9/9
f 15/15/15 14/14/14 13/13/13
f 16/16/16 15/15/15 13/13/13
f 19/19/19 18/18/18 17/17/17
f 20/20/20 19/19/19 17/17/17
f 23/23/23 22/22/22 21/21/21
f 24/24/24 23/23/23 21/21/21
f 27/27/27 26/26/26 25/25/25
f 28/28/28 27/27/27 25/25/25
f 31/31/31 30/30/30 29/29/29
f 32/32/32 31/31/31 29/29/29
f 35/35/35 34/34/34 33/33/33
f 36/36/36 35/35/35 33/33/33
f 39/39/39 38/38/38 37/37/37
f 40/40/40 39/39/39 37/37/37
f 43/43/43 42/42/42 41/41/41
f 44/44/44 43/43/43 41/41/41
f 47/47/47 46/46/46 45/45/45
f 48/48/48 47/47/47 45/45/45
f 51/51/51 50/50/50 49/49/49
f 51/51/51 49/49/49 52/52/52
f 51/51/51 53/53/53 50/50/50
f 51/51/51 52/52/52 54/54/54
f 51/51/51 55/55/55 53/53/53
f 51/51/51 54/54/54 55/55/55
f 58/58/58 57/57/57 56/56/56
f 58/58/58 56/56/56 59/59/59
f 58/58/58 60/60/60 57/57/57
f 58/58/58 59/59/59 61/61/61
f 58/58/58 62/62/62 60/60/60
f 58/58/58 61/61/61 62/62/62
