g Jumbotron_Screen
v -7.282419 3.862767 2.307892E-06
v -7.066058 3.794923 2.555847E-06
v -7.323127 3.758559 2.555847E-06
v -7.192538 3.937547 2.307892E-06
v -7.048343 3.975342 2.307892E-06
v -6.899415 3.982001 2.384186E-06
v -7.323127 1.992529E-07 1.993118E-06
v -3.188989E-07 1.993118E-07 2.152568E-06
v 0 3.972492 2.307892E-06
v 6.899415 3.982001 2.307892E-06
v -7.066058 -3.794922 2.555847E-06
v 7.066058 3.794923 2.555847E-06
v -6.899415 -3.982 2.307892E-06
v -7.323127 -3.758558 2.632141E-06
v 7.048343 3.975342 2.307892E-06
v -7.282419 -3.862766 2.384186E-06
v -7.192538 -3.937546 2.384186E-06
v -7.048343 -3.975341 2.384186E-06
v 0 -3.972491 2.384186E-06
v 7.192538 3.937547 2.307892E-06
v 7.282421 3.862767 2.307892E-06
v 7.323127 3.758559 2.555847E-06
v 7.323127 1.992529E-07 2.072843E-06
v 6.899415 -3.982 2.307892E-06
v 7.323127 -3.758558 2.632141E-06
v 7.066058 -3.794922 2.555847E-06
v 7.048343 -3.975341 2.384186E-06
v 7.282421 -3.862766 2.384186E-06
v 7.192538 -3.937546 2.384186E-06
v -7.323127 3.758559 2.555847E-06
v -7.39398 3.794923 -0.08375809
v -7.352878 3.90014 -0.08375839
v -7.39398 1.990795E-07 -0.08375864
v -7.282419 3.862767 2.307892E-06
v -7.323127 1.992529E-07 1.993118E-06
v -7.262126 3.975644 -0.08375841
v -7.192538 3.937547 2.307892E-06
v -7.116536 4.013803 -0.08375841
v -7.048343 3.975342 2.307892E-06
v -6.966167 4.020527 -0.08375841
v -6.899415 3.982001 2.384186E-06
v -7.323127 -3.758558 2.632141E-06
v -7.39398 -3.794922 -0.08375808
v -7.352878 -3.900139 -0.08375839
v -7.282419 -3.862766 2.384186E-06
v -7.262126 -3.975643 -0.08375839
v -7.192538 -3.937546 2.384186E-06
v -7.116536 -4.013803 -0.08375839
v -7.048343 -3.975341 2.384186E-06
v -6.966167 -4.020526 -0.08375839
v -6.899415 -3.982 2.307892E-06
v 0 4.010926 -0.08375841
v 0 3.972492 2.307892E-06
v 6.899415 3.982001 2.307892E-06
v 6.966167 4.020527 -0.08375841
v 7.048343 3.975342 2.307892E-06
v 7.116536 4.013803 -0.08375841
v 7.192538 3.937547 2.307892E-06
v 7.262126 3.975644 -0.08375841
v 7.282421 3.862767 2.307892E-06
v 7.352879 3.90014 -0.08375839
v 7.323127 3.758559 2.555847E-06
v 7.39398 3.794923 -0.08375809
v 0 -4.010925 -0.08375839
v 0 -3.972491 2.384186E-06
v 6.899415 -3.982 2.307892E-06
v 6.966167 -4.020526 -0.08375839
v 7.048343 -3.975341 2.384186E-06
v 7.116536 -4.013803 -0.08375839
v 7.192538 -3.937546 2.384186E-06
v 7.262126 -3.975643 -0.08375839
v 7.282421 -3.862766 2.384186E-06
v 7.352879 -3.900139 -0.08375839
v 7.323127 -3.758558 2.632141E-06
v 7.39398 -3.794922 -0.08375808
v 7.323127 1.992529E-07 2.072843E-06
v 7.39398 1.990795E-07 -0.08375864
vt 0.003771961 0.9950951
vt 0.01108742 0.9929858
vt 0.00239557 0.9918553
vt 0.006810963 0.9974201
vt 0.01168641 0.9985951
vt 0.01672184 0.9988022
vt 0.00239557 0.875
vt 0.25 0.875
vt 0.25 0.9985065
vt 0.4832782 0.9988022
vt 0.01108742 0.7570142
vt 0.4889126 0.9929858
vt 0.01672184 0.7511978
vt 0.00239557 0.7581447
vt 0.4883136 0.9985951
vt 0.003771961 0.7549048
vt 0.006810963 0.7525799
vt 0.01168641 0.7514048
vt 0.25 0.7514935
vt 0.493189 0.9974201
vt 0.4962281 0.9950951
vt 0.4976044 0.9918553
vt 0.4976044 0.875
vt 0.4832782 0.7511978
vt 0.4976044 0.7581447
vt 0.4889126 0.7570142
vt 0.4883136 0.7514048
vt 0.4962281 0.7549048
vt 0.493189 0.7525799
vt 0.00239557 0.9918553
vt 0 0.9929858
vt 0.001389682 0.9962571
vt 0 0.875
vt 0.003771961 0.9950951
vt 0.00239557 0.875
vt 0.004458129 0.9986045
vt 0.006810963 0.9974201
vt 0.009380698 0.9997909
vt 0.01168641 0.9985951
vt 0.01446488 1
vt 0.01672184 0.9988022
vt 0.00239557 0.7581447
vt 0 0.7570142
vt 0.001389682 0.7537429
vt 0.003771961 0.7549048
vt 0.004458129 0.7513955
vt 0.006810963 0.7525799
vt 0.009380698 0.750209
vt 0.01168641 0.7514048
vt 0.01446488 0.75
vt 0.01672184 0.7511978
vt 0.25 0.9997015
vt 0.25 0.9985065
vt 0.4832782 0.9988022
vt 0.4855351 1
vt 0.4883136 0.9985951
vt 0.4906193 0.9997909
vt 0.493189 0.9974201
vt 0.4955419 0.9986045
vt 0.4962281 0.9950951
vt 0.4986104 0.9962571
vt 0.4976044 0.9918553
vt 0.5 0.9929858
vt 0.25 0.7502985
vt 0.25 0.7514935
vt 0.4832782 0.7511978
vt 0.4855351 0.75
vt 0.4883136 0.7514048
vt 0.4906193 0.750209
vt 0.493189 0.7525799
vt 0.4955419 0.7513955
vt 0.4962281 0.7549048
vt 0.4986104 0.7537429
vt 0.4976044 0.7581447
vt 0.5 0.7570142
vt 0.4976044 0.875
vt 0.5 0.875
vn -5.173974E-07 1.875316E-06 1
vn -2.010047E-07 5.136007E-07 1
vn -1.438479E-07 8.380292E-07 1
vn -6.210556E-07 1.126196E-06 1
vn -4.973265E-07 1.374494E-06 1
vn -1.288959E-07 3.560411E-07 1
vn 0 0 1
vn 0 0 1
vn 0 0 1
vn 0 3.566609E-07 1
vn 0 -3.621151E-07 1
vn 1.430511E-07 5.204932E-07 1
vn 1.452074E-07 -2.146655E-07 1
vn 0 -7.886014E-07 1
vn 1.829028E-07 1.343622E-06 1
vn -2.120774E-07 -1.673896E-06 1
vn -4.140371E-07 -7.507977E-07 1
vn 1.924892E-07 -8.648744E-07 1
vn 0 0 1
vn 6.21052E-07 1.126204E-06 1
vn 5.173938E-07 1.87532E-06 1
vn 1.374091E-07 8.5058E-07 1
vn 0 0 1
vn -1.452073E-07 -2.14665E-07 1
vn 0 -8.011536E-07 1
vn 0 -3.7022E-07 1
vn -1.924894E-07 -8.648741E-07 1
vn 2.120748E-07 -1.673901E-06 1
vn 4.140346E-07 -7.508025E-07 1
vn -0.7322657 0.1181276 0.6706959
vn -0.7212751 0.151484 0.6758808
vn -0.5950534 0.417411 0.6867893
vn -0.7634884 0 0.6458216
vn -0.583114 0.4364059 0.6852212
vn -0.7634884 0 0.6458216
vn -0.3887726 0.673093 0.6291277
vn -0.3210398 0.7327622 0.5999941
vn -0.1591904 0.841626 0.516066
vn -0.09676072 0.8722899 0.4793199
vn -0.02756135 0.8996413 0.4357589
vn -0.01133123 0.9049891 0.425284
vn -0.7322658 -0.1181276 0.6706956
vn -0.7212753 -0.1514841 0.6758806
vn -0.5950537 -0.4174112 0.6867889
vn -0.5831143 -0.4364061 0.6852208
vn -0.3887728 -0.6730933 0.6291273
vn -0.32104 -0.7327625 0.5999938
vn -0.1591903 -0.8416262 0.5160657
vn -0.09676062 -0.8722901 0.4793197
vn -0.02756119 -0.8996414 0.4357588
vn -0.01133117 -0.9049891 0.4252839
vn 0 0.9088848 0.4170471
vn 0 0.9088848 0.417047
vn 0.01133118 0.904989 0.4252841
vn 0.02756124 0.8996412 0.4357591
vn 0.09676068 0.8722897 0.4793204
vn 0.1591908 0.8416254 0.516067
vn 0.321038 0.7327633 0.5999939
vn 0.3887708 0.6730945 0.6291272
vn 0.5831147 0.4364059 0.6852205
vn 0.595054 0.4174112 0.6867886
vn 0.732267 0.1181251 0.6706948
vn 0.7212768 0.1514813 0.6758796
vn 0 -0.9088849 0.417047
vn 0 -0.9088849 0.4170469
vn 0.01133116 -0.9049891 0.4252839
vn 0.02756116 -0.8996414 0.4357588
vn 0.09676067 -0.8722898 0.4793202
vn 0.1591907 -0.8416255 0.5160666
vn 0.3210382 -0.7327635 0.5999934
vn 0.388771 -0.6730947 0.6291269
vn 0.5831149 -0.436406 0.6852202
vn 0.5950544 -0.4174113 0.6867882
vn 0.7322673 -0.1181251 0.6706945
vn 0.7212771 -0.1514814 0.6758792
vn 0.7634885 0 0.6458215
vn 0.7634885 0 0.6458214
g Jumbotron_Screen_0
f 3/3/3 2/2/2 1/1/1
f 1/1/1 2/2/2 4/4/4
f 5/5/5 4/4/4 2/2/2
f 6/6/6 5/5/5 2/2/2
f 3/3/3 7/7/7 2/2/2
f 6/6/6 2/2/2 8/8/8
f 7/7/7 8/8/8 2/2/2
f 9/9/9 6/6/6 8/8/8
f 10/10/10 9/9/9 8/8/8
f 11/11/11 8/8/8 7/7/7
f 12/12/12 10/10/10 8/8/8
f 11/11/11 13/13/13 8/8/8
f 14/14/14 11/11/11 7/7/7
f 15/15/15 10/10/10 12/12/12
f 11/11/11 14/14/14 16/16/16
f 11/11/11 16/16/16 17/17/17
f 17/17/17 18/18/18 11/11/11
f 18/18/18 13/13/13 11/11/11
f 13/13/13 19/19/19 8/8/8
f 20/20/20 15/15/15 12/12/12
f 12/12/12 21/21/21 20/20/20
f 12/12/12 22/22/22 21/21/21
f 12/12/12 8/8/8 22/22/22
f 8/8/8 23/23/23 22/22/22
f 19/19/19 24/24/24 8/8/8
f 25/25/25 23/23/23 8/8/8
f 24/24/24 26/26/26 8/8/8
f 26/26/26 25/25/25 8/8/8
f 24/24/24 27/27/27 26/26/26
f 25/25/25 26/26/26 28/28/28
f 27/27/27 29/29/29 26/26/26
f 28/28/28 26/26/26 29/29/29
f 32/32/32 31/31/31 30/30/30
f 31/31/31 33/33/33 30/30/30
f 34/34/34 32/32/32 30/30/30
f 33/33/33 35/35/35 30/30/30
f 36/36/36 32/32/32 34/34/34
f 37/37/37 36/36/36 34/34/34
f 38/38/38 36/36/36 37/37/37
f 39/39/39 38/38/38 37/37/37
f 40/40/40 38/38/38 39/39/39
f 41/41/41 40/40/40 39/39/39
f 42/42/42 35/35/35 33/33/33
f 43/43/43 42/42/42 33/33/33
f 43/43/43 44/44/44 42/42/42
f 44/44/44 45/45/45 42/42/42
f 44/44/44 46/46/46 45/45/45
f 46/46/46 47/47/47 45/45/45
f 46/46/46 48/48/48 47/47/47
f 48/48/48 49/49/49 47/47/47
f 48/48/48 50/50/50 49/49/49
f 50/50/50 51/51/51 49/49/49
f 52/52/52 40/40/40 41/41/41
f 53/53/53 52/52/52 41/41/41
f 52/52/52 53/53/53 54/54/54
f 55/55/55 52/52/52 54/54/54
f 55/55/55 54/54/54 56/56/56
f 57/57/57 55/55/55 56/56/56
f 57/57/57 56/56/56 58/58/58
f 59/59/59 57/57/57 58/58/58
f 59/59/59 58/58/58 60/60/60
f 61/61/61 59/59/59 60/60/60
f 61/61/61 60/60/60 62/62/62
f 63/63/63 61/61/61 62/62/62
f 50/50/50 64/64/64 51/51/51
f 64/64/64 65/65/65 51/51/51
f 65/65/65 64/64/64 66/66/66
f 64/64/64 67/67/67 66/66/66
f 66/66/66 67/67/67 68/68/68
f 67/67/67 69/69/69 68/68/68
f 68/68/68 69/69/69 70/70/70
f 69/69/69 71/71/71 70/70/70
f 70/70/70 71/71/71 72/72/72
f 71/71/71 73/73/73 72/72/72
f 72/72/72 73/73/73 74/74/74
f 73/73/73 75/75/75 74/74/74
f 74/74/74 75/75/75 76/76/76
f 62/62/62 76/76/76 63/63/63
f 75/75/75 77/77/77 76/76/76
f 76/76/76 77/77/77 63/63/63
