g LM1_floorPlate12
v -26.50495 -30.51555 -65.9997
v 22.92699 -26.83042 -65.82431
v -26.50495 -22.94025 -49.08925
v -26.50495 -30.53795 -66.03072
v 22.92699 -26.83042 -65.82431
v 23.07637 -26.85095 -65.86297
v 23.07637 -26.85095 -65.86297
v 23.06838 -26.9117 -65.7735
v 23.04232 -26.84907 -65.79659
v 23.07965 -27.80356 -65.64151
v -26.50495 -30.57574 -66.0368
v -26.50495 -31.50006 -65.81745
v 23.07965 -26.90747 -65.8622
v 23.07637 -26.85095 -65.86297
v -26.50495 -30.53795 -66.03072
v -26.50495 -23.78562 -48.74312
v -26.50495 -31.50006 -65.81745
v -26.50495 -30.57574 -66.0368
v -26.50495 -30.53795 -66.03072
v -26.50495 -30.51555 -65.9997
v -26.50495 -22.94025 -49.08925
v -26.48167 -22.98856 -48.94836
v -26.50495 -23.77377 -48.71396
v 23.07637 -26.85095 -65.86297
v 23.07965 -26.90747 -65.8622
v 23.06838 -26.9117 -65.7735
v 23.07965 -27.80356 -65.64151
v 23.07965 -27.79585 -65.60325
v -26.50495 -22.94025 -49.08925
v 23.06838 -26.9117 -65.7735
v -26.48167 -22.98856 -48.94836
v 23.04232 -26.84907 -65.79659
v 22.92699 -26.83042 -65.82431
v 23.07637 -26.85095 -65.86297
v 23.07965 -27.79585 -65.60325
v -26.50495 -23.77377 -48.71396
v -26.48167 -22.98856 -48.94836
v 23.06838 -26.9117 -65.7735
vt -0.5676271 -1.719412
vt -0.5411221 2.024296
vt 1.007578 -1.675754
vt -0.5708776 -1.719528
vt -0.5411221 2.024296
vt -0.5453143 2.035616
vt -0.5427717 2.039882
vt -0.53429 2.0367
vt -0.5400107 2.034817
vt -1.49206 2.585313
vt -1.555514 -2.078803
vt -1.644673 -2.082272
vt -1.405446 2.588668
vt -1.400128 2.588582
vt -1.551923 -2.078654
vt 1.00736 -1.744741
vt -0.5852417 -1.793435
vt -0.5724964 -1.722553
vt -0.5707922 -1.720087
vt -0.5676271 -1.719412
vt 1.007578 -1.675754
vt 1.017288 -1.683151
vt 1.010036 -1.744752
vt -0.5427717 2.039882
vt -0.5387077 2.042191
vt -0.53429 2.0367
vt -0.4645356 2.065216
vt -0.4633179 2.062477
vt 1.007578 -1.675754
vt -0.53429 2.0367
vt 1.020054 -1.673113
vt -0.539071 2.033319
vt -0.5411221 2.024296
vt -0.5453143 2.035616
vt -0.4633179 2.062477
vt 1.086361 -1.653807
vt 1.020054 -1.673113
vt -0.53429 2.0367
vn 0 0.9727596 -0.2318164
vn -0.06643733 0.9105988 -0.4079168
vn -0.06643733 0.9105988 -0.4079168
vn 0 0.5247086 -0.8512819
vn -0.05678559 0.7910367 -0.6091275
vn -0.05678559 0.7910367 -0.6091275
vn 0.4048719 0.8960183 0.1822909
vn 0.2339855 0.8364363 0.4956057
vn 0.2260823 0.8544235 0.467811
vn 0 -0.230895 -0.9729786
vn 0 -0.2164122 -0.9763021
vn 0 -0.230895 -0.9729786
vn 0 -0.2164122 -0.9763021
vn 0 0.5247086 -0.8512819
vn 0 0.5247086 -0.8512819
vn -0.9999999 0.0002422773 0.0005382137
vn -1 0 0
vn -1 0 0
vn -1 0 0
vn -1 0 0
vn -1 0.0001388834 0.0003085264
vn -0.9864765 0.06727837 0.1494574
vn -0.9864765 0.06727837 0.1494574
vn 0.9899225 0.05920421 0.1286405
vn 1 -1.453016E-06 0
vn 0.9957556 0.02602522 0.08828142
vn 1 -1.453016E-06 0
vn 0.9958153 0.02557759 0.08773586
vn 0.2337837 0.8365371 0.4955308
vn 0.2339855 0.8364363 0.4956057
vn 0.2338044 0.8364884 0.4956033
vn 0.2260823 0.8544235 0.467811
vn 0.1249825 0.9821213 0.1407724
vn 0.4048719 0.8960183 0.1822909
vn 0.3298473 0.2201522 0.9180053
vn 0.3298473 0.2201522 0.9180053
vn 0.3298472 0.2201522 0.9180053
vn 0.3298472 0.2201522 0.9180053
g LM1_floorPlate12_0
f 3/3/3 2/2/2 1/1/1
f 1/1/1 5/5/5 4/4/4
f 5/5/5 6/6/6 4/4/4
f 9/9/9 8/8/8 7/7/7
f 12/12/12 11/11/11 10/10/10
f 11/11/11 13/13/13 10/10/10
f 14/14/14 13/13/13 11/11/11
f 15/15/15 14/14/14 11/11/11
f 18/18/18 17/17/17 16/16/16
f 16/16/16 19/19/19 18/18/18
f 16/16/16 20/20/20 19/19/19
f 16/16/16 21/21/21 20/20/20
f 22/22/22 21/21/21 16/16/16
f 23/23/23 22/22/22 16/16/16
f 26/26/26 25/25/25 24/24/24
f 27/27/27 25/25/25 26/26/26
f 28/28/28 27/27/27 26/26/26
f 31/31/31 30/30/30 29/29/29
f 30/30/30 32/32/32 29/29/29
f 32/32/32 33/33/33 29/29/29
f 34/34/34 33/33/33 32/32/32
f 37/37/37 36/36/36 35/35/35
f 38/38/38 37/37/37 35/35/35
