g LM1_floorPlate13
v 23.07965 -1.379319 41.82805
v 23.07965 -2.303661 42.04741
v -26.50495 -2.374869 42.0319
v -26.50495 -1.360325 41.83825
v -26.50495 -1.323474 41.8175
v 23.07965 -1.348303 41.80564
v 23.07965 -1.342212 41.76788
v -26.50495 -1.310007 41.78183
v 23.07965 -1.348995 41.73881
v -26.50495 -1.90852 27.96038
v 23.07965 -1.379399 41.69481
v -26.50495 -1.932905 27.91128
v 23.07965 -2.320797 41.97403
v 23.07965 -2.303661 42.04741
v 23.07965 -1.379319 41.82805
v 23.07965 -1.348303 41.80564
v 23.07965 -1.342212 41.76788
v 23.07965 -1.348995 41.73881
v 23.07965 -1.379399 41.69481
v 23.07965 -1.430624 41.68485
v 23.07965 -2.343448 41.87698
v -26.50495 -2.98022 28.10163
v 23.07965 -2.343448 41.87698
v 23.07965 -1.430624 41.68485
v -26.50495 -1.984613 27.8983
v -26.50495 -1.932905 27.91128
v 23.07965 -1.379399 41.69481
v -26.50495 -2.98022 28.10163
v -26.50495 -1.360325 41.83825
v -26.50495 -2.374869 42.0319
v -26.50495 -1.323474 41.8175
v -26.50495 -1.310007 41.78183
v -26.50495 -1.90852 27.96038
v -26.50495 -1.932905 27.91128
v -26.50495 -1.984613 27.8983
vt 1.008172 2.565375
vt 1.105784 2.56512
vt 1.082447 -2.092407
vt 0.9763218 -2.09213
vt 0.9719768 -2.092118
vt 1.004241 2.565385
vt 1.000309 2.565398
vt 0.9680593 -2.092107
vt 0.9972427 2.565408
vt -0.4534011 -2.087489
vt 0.9917538 2.565641
vt -0.4590318 -2.087346
vt 0.8990694 2.603019
vt 0.9016848 2.609689
vt 0.9934437 2.579505
vt 0.9963449 2.577088
vt 0.996521 2.573499
vt 0.9954855 2.570857
vt 0.9918625 2.567069
vt 0.9865168 2.566678
vt 0.8956121 2.594199
vt -0.5634759 -2.05652
vt 0.8956121 2.594199
vt 0.9865168 2.566678
vt -0.464398 -2.086356
vt -0.4590318 -2.087346
vt 0.9917538 2.565641
vt -0.4443985 -2.188665
vt 0.9735908 -2.097074
vt 0.9882632 -2.19312
vt 0.9716507 -2.093526
vt 0.9680593 -2.092107
vt -0.4534011 -2.087489
vt -0.4585654 -2.089561
vt -0.4601617 -2.094355
vn 0 0.2453379 0.9694377
vn 0 0.2309094 0.9729752
vn 0 0.2309094 0.9729752
vn 0 0.2453379 0.9694377
vn 0 0.8512462 0.5247666
vn 0 0.8512462 0.5247666
vn 0 0.9731985 -0.2299669
vn 0 0.9731985 -0.2299669
vn 0.005553616 0.9980162 -0.06271182
vn 0.002161208 0.9988288 -0.04833575
vn 0.13016 0.85453 -0.5028289
vn 0.13016 0.85453 -0.5028288
vn 1 -1.861892E-06 0
vn 1 9.668615E-07 0
vn 1 9.668615E-07 0
vn 1 9.668615E-07 0
vn 1 9.668614E-07 0
vn 1 0 0
vn 1 0 0
vn 1 0 0
vn 1 0 0
vn 0.2647824 -0.195668 -0.944248
vn 0.2647824 -0.195668 -0.944248
vn 0.2655945 -0.175376 -0.9479993
vn 0.2655717 -0.1759883 -0.9478923
vn 0.2597032 0.2099752 -0.9425841
vn 0.2597032 0.2099752 -0.9425841
vn -1 4.828895E-06 -2.575883E-07
vn -1 0 0
vn -1 0 0
vn -1 1.014286E-06 0
vn -1 5.05671E-06 -2.693169E-07
vn -1 5.077577E-06 -2.783608E-07
vn -1 9.827043E-06 -2.336765E-06
vn -1 9.827045E-06 -2.336765E-06
g LM1_floorPlate13_0
f 3/3/3 2/2/2 1/1/1
f 4/4/4 3/3/3 1/1/1
f 5/5/5 4/4/4 1/1/1
f 6/6/6 5/5/5 1/1/1
f 5/5/5 6/6/6 7/7/7
f 5/5/5 7/7/7 8/8/8
f 9/9/9 8/8/8 7/7/7
f 10/10/10 8/8/8 9/9/9
f 10/10/10 9/9/9 11/11/11
f 12/12/12 10/10/10 11/11/11
f 15/15/15 14/14/14 13/13/13
f 16/16/16 15/15/15 13/13/13
f 16/16/16 13/13/13 17/17/17
f 17/17/17 13/13/13 18/18/18
f 13/13/13 19/19/19 18/18/18
f 19/19/19 13/13/13 20/20/20
f 13/13/13 21/21/21 20/20/20
f 24/24/24 23/23/23 22/22/22
f 25/25/25 24/24/24 22/22/22
f 25/25/25 26/26/26 24/24/24
f 26/26/26 27/27/27 24/24/24
f 30/30/30 29/29/29 28/28/28
f 29/29/29 31/31/31 28/28/28
f 31/31/31 32/32/32 28/28/28
f 32/32/32 33/33/33 28/28/28
f 33/33/33 34/34/34 28/28/28
f 34/34/34 35/35/35 28/28/28
