g LM1_floorPlate06
v -49.5846 -8.105554 -30.23932
v 0 -9.844501 -30.32209
v 0 -8.888925 -30.53996
v -49.5846 -7.250404 -30.46197
v -49.5846 -7.211498 -30.45583
v 0 -8.851657 -30.5339
v 0 -6.844347 -15.17803
v -49.5846 -2.930333 -14.99173
v 0 -5.922172 -15.39749
v -49.5846 -2.008155 -15.21119
v 0 -5.891352 -15.41991
v -49.5846 -1.977336 -15.23362
v -49.5846 -7.211498 -30.45583
v 0 -8.851657 -30.5339
v -49.5846 -7.18122 -30.42445
v 0 -8.832797 -30.50306
v 0 -5.885578 -15.4577
v -49.5846 -1.971563 -15.27141
v -49.5846 -1.977336 -15.23362
v 0 -5.891352 -15.41991
v -49.5846 -8.105554 -30.23932
v -49.5846 -7.250404 -30.46197
v -49.5846 -2.930333 -14.99173
v -49.5846 -7.211498 -30.45583
v -49.5846 -7.18122 -30.42445
v -49.5846 -1.971563 -15.27141
v -49.5846 -1.977336 -15.23362
v -49.5846 -2.008155 -15.21119
v 0 -6.844347 -15.17803
v 0 -5.922172 -15.39749
v 0 -9.844501 -30.32209
v 0 -5.891352 -15.41991
v 0 -5.885578 -15.4577
v 0 -8.832797 -30.50306
v 0 -8.851657 -30.5339
v 0 -8.888925 -30.53996
vt 1.156833 -2.101127
vt 1.116641 2.547293
vt 1.208441 2.544983
vt 1.2396 -2.103185
vt 1.243289 -2.103282
vt 1.211977 2.54489
vt 1.143517 2.536037
vt 1.058259 -2.085668
vt 1.055567 2.53099
vt 0.9703081 -2.090714
vt 1.052028 2.530838
vt 0.9667693 -2.090867
vt -0.5347438 -1.795046
vt -0.5226969 2.05118
vt -0.5305828 -1.795136
vt -0.5192471 2.051121
vt 0.9439634 2.038822
vt 0.9985426 -1.81704
vt 1.002191 -1.816981
vt 0.9476117 2.03888
vt -0.7105011 2.479803
vt -0.6283082 2.479279
vt -0.6115397 0.9853376
vt -0.6249593 2.477793
vt -0.622992 2.474246
vt -0.5186659 0.9874497
vt -0.5200921 0.9841921
vt -0.5234001 0.982917
vt -0.8155222 2.449596
vt -0.7273758 2.448413
vt -0.7801563 1.014312
vt -0.7241234 2.447004
vt -0.7228316 2.443692
vt -0.684667 1.018441
vt -0.685752 1.015258
vt -0.689011 1.013952
vn 0 -0.2309042 -0.9729764
vn 0 -0.2309042 -0.9729764
vn 0 -0.2164216 -0.9763
vn 0 -0.2164216 -0.9763
vn 0 0.5247084 -0.8512819
vn 0 0.5247084 -0.8512819
vn 0 0.2308993 0.9729776
vn 0 0.2308993 0.9729776
vn 0 0.2453356 0.9694382
vn 0 0.2453356 0.9694382
vn 0 0.851289 0.524697
vn 0 0.851289 0.524697
vn 0 0.5247084 -0.8512819
vn 0 0.5247084 -0.8512819
vn 0 0.9727596 -0.2318163
vn 0 0.9727596 -0.2318163
vn 0 0.973195 -0.2299812
vn 0 0.973195 -0.2299812
vn 0 0.851289 0.524697
vn 0 0.851289 0.524697
vn -1 6.826643E-07 0
vn -1 6.826643E-07 0
vn -1 6.826643E-07 0
vn -1 6.826644E-07 0
vn -1 6.826643E-07 0
vn -1 6.826643E-07 0
vn -1 6.826643E-07 0
vn -1 6.826644E-07 0
vn 1 -1.82879E-06 0
vn 1 -1.82879E-06 0
vn 1 -1.82879E-06 0
vn 1 -1.82879E-06 0
vn 1 -1.82879E-06 0
vn 1 -1.82879E-06 0
vn 1 -1.82879E-06 0
vn 1 -1.82879E-06 0
g LM1_floorPlate06_0
f 3/3/3 2/2/2 1/1/1
f 3/3/3 1/1/1 4/4/4
f 5/5/5 3/3/3 4/4/4
f 5/5/5 6/6/6 3/3/3
f 9/9/9 8/8/8 7/7/7
f 9/9/9 10/10/10 8/8/8
f 10/10/10 9/9/9 11/11/11
f 10/10/10 11/11/11 12/12/12
f 15/15/15 14/14/14 13/13/13
f 15/15/15 16/16/16 14/14/14
f 17/17/17 16/16/16 15/15/15
f 17/17/17 15/15/15 18/18/18
f 19/19/19 17/17/17 18/18/18
f 19/19/19 20/20/20 17/17/17
f 23/23/23 22/22/22 21/21/21
f 23/23/23 24/24/24 22/22/22
f 23/23/23 25/25/25 24/24/24
f 23/23/23 26/26/26 25/25/25
f 23/23/23 27/27/27 26/26/26
f 28/28/28 27/27/27 23/23/23
f 31/31/31 30/30/30 29/29/29
f 31/31/31 32/32/32 30/30/30
f 31/31/31 33/33/33 32/32/32
f 31/31/31 34/34/34 33/33/33
f 31/31/31 35/35/35 34/34/34
f 36/36/36 35/35/35 31/31/31
