g LM1_floorPlate08
v -49.5846 -13.3812 -59.78508
v 0 -17.17344 -60.86662
v 0 -16.29857 -61.10008
v -49.5846 -12.50873 -60.01923
v -49.5846 -12.47146 -60.01329
v 0 -16.26127 -61.09413
v 0 -12.08784 -45.17209
v -49.5846 -8.224663 -44.07033
v 0 -11.21296 -45.40556
v -49.5846 -7.352193 -44.30448
v 0 -11.18514 -45.42888
v -49.5846 -7.324533 -44.32785
v -49.5846 -12.47146 -60.01329
v 0 -16.26127 -61.09413
v -49.5846 -12.4464 -59.98152
v 0 -16.23634 -61.0624
v 0 -11.18311 -45.46781
v -49.5846 -7.322692 -44.36683
v -49.5846 -7.324533 -44.32785
v 0 -11.18514 -45.42888
v -49.5846 -13.3812 -59.78508
v -49.5846 -12.50873 -60.01923
v -49.5846 -8.224663 -44.07033
v -49.5846 -12.47146 -60.01329
v -49.5846 -12.4464 -59.98152
v -49.5846 -7.322692 -44.36683
v -49.5846 -7.324533 -44.32785
v -49.5846 -7.352193 -44.30448
v 0 -17.17344 -60.86662
v 0 -12.08784 -45.17209
v 0 -16.29857 -61.10008
v 0 -16.26127 -61.09413
v 0 -16.23634 -61.0624
v 0 -11.18311 -45.46781
v 0 -11.18514 -45.42888
v 0 -11.21296 -45.40556
vt 1.176612 -2.139071
vt 1.09879 2.588324
vt 1.184744 2.583881
vt 1.262363 -2.143498
vt 1.265944 -2.143722
vt 1.188327 2.583657
vt 1.138853 2.590444
vt 1.060138 -2.140796
vt 1.052843 2.585903
vt 0.9743325 -2.145321
vt 1.049392 2.585804
vt 0.9708896 -2.145418
vt -0.5263593 -1.793312
vt -0.5130669 2.096042
vt -0.5227196 -1.79353
vt -0.5094361 2.095826
vt 0.9669362 2.033533
vt 0.9573245 -1.856293
vt 0.9608427 -1.85636
vt 0.9704502 2.033467
vt -0.6766539 2.499201
vt -0.5930337 2.496468
vt -0.6426471 0.967775
vt -0.5898904 2.494939
vt -0.5885251 2.491449
vt -0.5547343 0.9697744
vt -0.5559468 0.966369
vt -0.559027 0.9650426
vt -0.7842363 0.9624357
vt -0.8025475 2.491864
vt -0.7004625 0.9678516
vt -0.6973621 0.9694792
vt -0.6961122 0.9730061
vt -0.7143062 2.492696
vt -0.7156388 2.496055
vt -0.7187735 2.49728
vn 0 -0.2308989 -0.9729778
vn 0 -0.2308989 -0.9729778
vn 0 -0.2164167 -0.976301
vn 0 -0.2164167 -0.976301
vn 0 0.5247148 -0.8512781
vn 0 0.5247148 -0.8512781
vn 0 0.2308985 0.9729778
vn 0 0.2308985 0.9729778
vn 0 0.2453314 0.9694393
vn 0 0.2453314 0.9694393
vn 0 0.8512725 0.524724
vn 0 0.8512725 0.524724
vn 0 0.5247148 -0.8512781
vn 0 0.5247148 -0.8512781
vn 0 0.9727561 -0.2318307
vn 0 0.9727561 -0.2318307
vn 0 0.9731985 -0.2299669
vn 0 0.9731985 -0.2299669
vn 0 0.8512725 0.524724
vn 0 0.8512725 0.524724
vn -1 2.086383E-06 0
vn -1 2.086383E-06 0
vn -1 2.086383E-06 0
vn -1 2.086383E-06 0
vn -1 2.086383E-06 0
vn -1 2.086383E-06 0
vn -1 2.086383E-06 0
vn -1 2.086383E-06 0
vn 1 1.272184E-07 0
vn 1 1.272184E-07 0
vn 1 1.272184E-07 0
vn 1 1.272184E-07 0
vn 1 1.272184E-07 0
vn 1 1.272185E-07 0
vn 1 1.272185E-07 0
vn 1 1.272184E-07 0
g LM1_floorPlate08_0
f 3/3/3 2/2/2 1/1/1
f 3/3/3 1/1/1 4/4/4
f 5/5/5 3/3/3 4/4/4
f 5/5/5 6/6/6 3/3/3
f 9/9/9 8/8/8 7/7/7
f 9/9/9 10/10/10 8/8/8
f 10/10/10 9/9/9 11/11/11
f 10/10/10 11/11/11 12/12/12
f 15/15/15 14/14/14 13/13/13
f 15/15/15 16/16/16 14/14/14
f 17/17/17 16/16/16 15/15/15
f 17/17/17 15/15/15 18/18/18
f 19/19/19 17/17/17 18/18/18
f 19/19/19 20/20/20 17/17/17
f 23/23/23 22/22/22 21/21/21
f 23/23/23 24/24/24 22/22/22
f 23/23/23 25/25/25 24/24/24
f 23/23/23 26/26/26 25/25/25
f 23/23/23 27/27/27 26/26/26
f 28/28/28 27/27/27 23/23/23
f 31/31/31 30/30/30 29/29/29
f 32/32/32 30/30/30 31/31/31
f 33/33/33 30/30/30 32/32/32
f 34/34/34 30/30/30 33/33/33
f 35/35/35 30/30/30 34/34/34
f 35/35/35 36/36/36 30/30/30
