g LM1_floorPlate01
v -9.765625E-06 -8.15169 -57.25658
v -49.5846 -8.15169 -57.25658
v -49.5846 -8.137048 -57.29194
v -9.765625E-06 -8.137048 -57.29194
v -49.5846 -8.137048 -76.74728
v -9.765625E-06 -8.137048 -76.74728
v -49.5846 -8.15169 -76.78261
v -9.765625E-06 -8.15169 -76.78261
v -9.765625E-06 -8.187043 -57.24191
v -49.5846 -8.15169 -57.25658
v -9.765625E-06 -8.15169 -57.25658
v -49.5846 -8.187043 -57.24191
v -49.5846 -9.137041 -57.24191
v -9.765625E-06 -9.137041 -57.24191
v -9.765625E-06 -8.15169 -76.78261
v -49.5846 -8.15169 -76.78261
v -49.5846 -8.187043 -76.79727
v -9.765625E-06 -8.187043 -76.79727
v -49.5846 -9.137041 -76.79727
v -9.765625E-06 -9.137041 -76.79727
v -49.5846 -8.187043 -57.24191
v -49.5846 -9.137041 -57.24191
v -49.5846 -9.137041 -76.79727
v -49.5846 -8.187043 -76.79727
v -49.5846 -8.15169 -57.25658
v -49.5846 -8.15169 -76.78261
v -49.5846 -8.137048 -57.29194
v -49.5846 -8.137048 -76.74728
v -9.765625E-06 -8.187043 -76.79727
v -9.765625E-06 -9.137041 -76.79727
v -9.765625E-06 -9.137041 -57.24191
v -9.765625E-06 -8.187043 -57.24191
v -9.765625E-06 -8.15169 -76.78261
v -9.765625E-06 -8.15169 -57.25658
v -9.765625E-06 -8.137048 -76.74728
v -9.765625E-06 -8.137048 -57.29194
vt 0.9954779 2.265283
vt 0.9887025 -1.363871
vt 0.9856948 -1.363863
vt 0.9924699 2.265291
vt -0.5433087 -1.359864
vt -0.5365336 2.26929
vt -0.5463139 -1.359856
vt -0.5395386 2.269298
vt -0.7800003 2.518968
vt -0.7855955 -2.081092
vt -0.7835512 2.51897
vt -0.7820445 -2.081094
vt -0.6939114 -2.081133
vt -0.6918671 2.518929
vt -0.8212936 2.519146
vt -0.8190241 -2.080917
vt -0.822575 -2.080919
vt -0.8248445 2.519144
vt -0.9107082 -2.080962
vt -0.9129777 2.519101
vt -1.03376 2.459842
vt -0.9455389 2.459335
vt -0.9559693 0.643345
vt -1.04419 0.6438517
vt -1.03705 2.458498
vt -1.047465 0.6452327
vt -1.038429 2.455222
vt -1.048806 0.6485206
vt -1.15284 2.460806
vt -1.064544 2.459342
vt -1.094687 0.6417991
vt -1.182983 0.6432635
vt -1.156149 2.459498
vt -1.186246 0.6446812
vt -1.157564 2.456237
vt -1.187552 0.6479904
vn 0 0.7073466 0.7068669
vn 0 0.7073466 0.7068669
vn 0 0.9999998 0.0007512115
vn 0 0.9999998 0.0007512115
vn 0 0.9999998 -0.0007512131
vn 0 0.9999998 -0.0007512131
vn 0 0.7070705 -0.7071431
vn 0 0.7070705 -0.7071431
vn 0 0.0148844 0.9998893
vn 0 0.7073466 0.7068669
vn 0 0.7073466 0.7068669
vn 0 0.0148844 0.9998893
vn 0 0 1
vn 0 0 1
vn 0 0.7070705 -0.7071431
vn 0 0.7070705 -0.7071431
vn 0 0.0148844 -0.9998893
vn 0 0.0148844 -0.9998893
vn 0 0 -1
vn 0 0 -1
vn -1 5.830783E-07 0
vn -1 5.830783E-07 0
vn -1 5.830783E-07 0
vn -1 5.830783E-07 0
vn -1 5.830784E-07 0
vn -1 5.830783E-07 0
vn -1 5.830784E-07 0
vn -1 5.830783E-07 0
vn 1 -2.904155E-06 0
vn 1 -2.904155E-06 0
vn 1 -2.904155E-06 0
vn 1 -2.904155E-06 0
vn 1 -2.904156E-06 0
vn 1 -2.904155E-06 0
vn 1 -2.904155E-06 0
vn 1 -2.904155E-06 0
g LM1_floorPlate01_0
f 3/3/3 2/2/2 1/1/1
f 4/4/4 3/3/3 1/1/1
f 5/5/5 3/3/3 4/4/4
f 6/6/6 5/5/5 4/4/4
f 7/7/7 5/5/5 6/6/6
f 8/8/8 7/7/7 6/6/6
f 11/11/11 10/10/10 9/9/9
f 10/10/10 12/12/12 9/9/9
f 9/9/9 12/12/12 13/13/13
f 14/14/14 9/9/9 13/13/13
f 17/17/17 16/16/16 15/15/15
f 18/18/18 17/17/17 15/15/15
f 19/19/19 17/17/17 18/18/18
f 20/20/20 19/19/19 18/18/18
f 23/23/23 22/22/22 21/21/21
f 21/21/21 24/24/24 23/23/23
f 21/21/21 25/25/25 24/24/24
f 25/25/25 26/26/26 24/24/24
f 25/25/25 27/27/27 26/26/26
f 27/27/27 28/28/28 26/26/26
f 31/31/31 30/30/30 29/29/29
f 29/29/29 32/32/32 31/31/31
f 29/29/29 33/33/33 32/32/32
f 33/33/33 34/34/34 32/32/32
f 33/33/33 35/35/35 34/34/34
f 35/35/35 36/36/36 34/34/34
