g LM1_floorPlate02
v -29.43247 -9.137041 -38.53172
v -29.43247 -8.187043 -38.75877
v -18.72717 -8.187043 -38.75877
v -18.72717 -9.137041 -38.53172
v -18.72717 -8.137048 -54.65191
v -11.43247 -8.137048 -54.65191
v -11.43247 -9.137041 -54.65191
v -18.72717 -9.137041 -54.65191
v -49.5846 -9.137041 -38.53172
v -49.5846 -8.187043 -38.75877
v -36.82246 -8.187043 -38.75877
v -36.82246 -9.137041 -38.53172
v -9.765625E-06 -8.187043 -38.75877
v -9.765625E-06 -9.137041 -38.53172
v -11.43247 -9.137041 -38.53172
v -11.43247 -8.187043 -38.75877
v -36.82246 -8.137048 -54.65191
v -29.43247 -8.137048 -54.65191
v -29.43247 -9.137041 -54.65191
v -36.82246 -9.137041 -54.65191
v -9.765625E-06 -8.137048 -57.07304
v -15.07982 -8.15169 -57.10841
v -9.765625E-06 -8.15169 -57.10841
v -15.07982 -8.137048 -57.07304
v -33.12747 -8.15169 -57.10841
v -11.43247 -8.137048 -54.65191
v -9.765625E-06 -8.137048 -38.82213
v -11.43247 -8.137048 -38.82213
v -9.765625E-06 -8.151045 -38.78176
v -11.43247 -8.151045 -38.78176
v -9.765625E-06 -8.187043 -38.75877
v -11.43247 -8.187043 -38.75877
v -18.72717 -8.137048 -54.65191
v -33.12747 -8.137048 -57.07304
v -49.5846 -8.15169 -57.10841
v -49.5846 -8.137048 -57.07304
v -29.43247 -8.137048 -54.65191
v -36.82246 -8.137048 -54.65191
v -29.43247 -8.137048 -38.82213
v -18.72717 -8.137048 -38.82213
v -18.72717 -8.151045 -38.78176
v -29.43247 -8.151045 -38.78176
v -18.72717 -8.187043 -38.75877
v -29.43247 -8.187043 -38.75877
v -49.5846 -8.137048 -38.82213
v -36.82246 -8.137048 -38.82213
v -36.82246 -8.151045 -38.78176
v -49.5846 -8.151045 -38.78176
v -36.82246 -8.187043 -38.75877
v -49.5846 -8.187043 -38.75877
v -49.5846 -8.187043 -57.12304
v -49.5846 -9.137041 -57.12304
v -33.12747 -9.137041 -57.12304
v -33.12747 -8.187043 -57.12304
v -15.07982 -9.137041 -57.12304
v -33.12747 -8.15169 -57.10841
v -49.5846 -8.15169 -57.10841
v -15.07982 -8.15169 -57.10841
v -15.07982 -8.187043 -57.12304
v -9.765625E-06 -8.15169 -57.10841
v -9.765625E-06 -8.187043 -57.12304
v -9.765625E-06 -9.137041 -57.12304
v -49.5846 -8.187043 -38.75877
v -49.5846 -9.137041 -38.53172
v -49.5846 -9.137041 -57.12304
v -49.5846 -8.187043 -57.12304
v -49.5846 -8.151045 -38.78176
v -49.5846 -8.15169 -57.10841
v -49.5846 -8.137048 -57.07304
v -49.5846 -8.137048 -38.82213
v -18.72717 -8.137048 -54.65191
v -18.72717 -9.137041 -54.65191
v -18.72717 -9.137041 -38.53172
v -18.72717 -8.187043 -38.75877
v -18.72717 -8.151045 -38.78176
v -18.72717 -8.137048 -38.82213
v -29.43247 -8.187043 -38.75877
v -29.43247 -9.137041 -38.53172
v -29.43247 -9.137041 -54.65191
v -29.43247 -8.137048 -54.65191
v -29.43247 -8.151045 -38.78176
v -29.43247 -8.137048 -38.82213
v -36.82246 -8.137048 -54.65191
v -36.82246 -9.137041 -54.65191
v -36.82246 -9.137041 -38.53172
v -36.82246 -8.187043 -38.75877
v -36.82246 -8.151045 -38.78176
v -36.82246 -8.137048 -38.82213
v -11.43247 -8.187043 -38.75877
v -11.43247 -9.137041 -38.53172
v -11.43247 -9.137041 -54.65191
v -11.43247 -8.137048 -54.65191
v -11.43247 -8.151045 -38.78176
v -11.43247 -8.137048 -38.82213
v -9.765625E-06 -8.187043 -57.12304
v -9.765625E-06 -9.137041 -57.12304
v -9.765625E-06 -9.137041 -38.53172
v -9.765625E-06 -8.187043 -38.75877
v -9.765625E-06 -8.15169 -57.10841
v -9.765625E-06 -8.151045 -38.78176
v -9.765625E-06 -8.137048 -57.07304
v -9.765625E-06 -8.137048 -38.82213
vt 1.884709 -1.017394
vt 1.97408 -1.017654
vt 1.971231 -1.997172
vt 1.88186 -1.996913
vt 2.223495 -1.319624
vt 2.227819 -1.996751
vt 2.134995 -1.997344
vt 2.130671 -1.320217
vt 1.644455 -0.8320752
vt 1.733828 -0.8322937
vt 1.730973 -2.000032
vt 1.6416 -1.999813
vt 1.851107 -1.998159
vt 1.76173 -1.997916
vt 1.764577 -0.9518053
vt 1.853953 -0.9520485
vt 2.094815 -1.310979
vt 2.099144 -1.996951
vt 2.00632 -1.997537
vt 2.001992 -1.311565
vt -1.007701 2.283506
vt -1.016551 1.182544
vt -1.010817 2.283519
vt -1.013435 1.182531
vt -1.023414 -0.1351124
vt -0.8149716 1.447998
vt 0.4779013 2.277281
vt 0.473554 1.442598
vt 0.4813786 2.277267
vt 0.4770313 1.442584
vt 0.4848557 2.277252
vt 0.4805084 1.442569
vt -0.8177456 0.9154131
vt -1.020298 -0.1351255
vt -1.029672 -1.336646
vt -1.026556 -1.336659
vt -0.8218163 0.1338203
vt -0.8246266 -0.4057223
vt 0.4667092 0.1284209
vt 0.47078 0.9100137
vt 0.4742573 0.909999
vt 0.4701865 0.1284063
vt 0.4777344 0.9099845
vt 0.4736636 0.1283917
vt 0.4590459 -1.342884
vt 0.4638991 -0.4111219
vt 0.4673763 -0.4111364
vt 0.4625233 -1.342898
vt 0.4708535 -0.411151
vt 0.4660004 -1.342913
vt 0.7455341 2.516442
vt 0.8335998 2.516445
vt 0.8336477 0.9908531
vt 0.745582 0.9908503
vt 0.8337003 -0.6821811
vt 0.7420352 0.9908502
vt 0.7419873 2.516442
vt 0.7420878 -0.682184
vt 0.7456346 -0.6821839
vt 0.7421317 -2.080097
vt 0.7456785 -2.080097
vt 0.8337442 -2.080094
vt 0.9470522 -1.999592
vt 0.8585699 -2.019235
vt 0.8864176 -0.2943023
vt 0.9745599 -0.2957253
vt 0.9504267 -1.997512
vt 0.9778182 -0.2971356
vt 0.9791236 -0.3004393
vt 0.9517858 -1.993788
vt 1.226086 -2.02635
vt 1.133205 -2.026672
vt 1.128012 -0.5293926
vt 1.216323 -0.5501755
vt 1.219674 -0.5523
vt 1.220987 -0.5560444
vt 1.335318 -1.983976
vt 1.246706 -2.00302
vt 1.28097 -0.5075746
vt 1.373738 -0.5097002
vt 1.338706 -1.981919
vt 1.340091 -1.978204
vt 1.499452 -2.025644
vt 1.406588 -2.027474
vt 1.37708 -0.530479
vt 1.465717 -0.549825
vt 1.469102 -0.5518948
vt 1.470476 -0.5556173
vt 1.602268 -1.98357
vt 1.514043 -2.004335
vt 1.519195 -0.5085078
vt 1.611987 -0.5088274
vt 1.605616 -1.981447
vt 1.606927 -1.977707
vt 1.079562 -2.020792
vt 0.9913337 -2.019749
vt 1.011726 -0.2931279
vt 1.099706 -0.3152567
vt 1.082862 -2.019472
vt 1.103024 -0.3174321
vt 1.08426 -2.016203
vt 1.10428 -0.3211959
vn 0 0.2324548 0.9726073
vn 0 0.2458184 0.9693159
vn 0 0.2458184 0.9693159
vn 0 0.2324548 0.9726073
vn 0 0 1
vn 0 0 1
vn 0 0 1
vn 0 0 1
vn 0 0.2324545 0.9726073
vn 0 0.245818 0.969316
vn 0 0.245818 0.969316
vn 0 0.2324545 0.9726073
vn 0 0.245819 0.9693158
vn 0 0.2324548 0.9726073
vn 0 0.2324548 0.9726073
vn 0 0.245819 0.9693158
vn 0 0 1
vn 0 0 1
vn 0 0 1
vn 0 0 1
vn 0 0.9999992 -0.001284546
vn 0 0.7071331 -0.7070805
vn 0 0.7071258 -0.7070877
vn 0 0.9998854 -0.01513625
vn 0 0.7071455 -0.707068
vn 0 1 0
vn 0 0.9999996 0.0008194871
vn 0 0.9999996 0.0008194871
vn 0 0.7850321 0.6194552
vn 0 0.7850321 0.6194552
vn 0 0.245819 0.9693158
vn 0 0.245819 0.9693158
vn 0 1 0
vn 0 0.9998808 -0.01544054
vn 0 0.7071525 -0.7070609
vn 0 0.9999993 -0.001238901
vn 0 1 0
vn 0 1 -1.610768E-07
vn 0 0.9999996 0.0008818804
vn 0 0.9999996 0.0008818801
vn 0 0.7850292 0.6194587
vn 0 0.7850292 0.6194587
vn 0 0.2458184 0.9693159
vn 0 0.2458184 0.9693159
vn 0 0.9999996 0.0008194251
vn 0 0.9999996 0.000819425
vn 0 0.7850334 0.6194534
vn 0 0.7850334 0.6194534
vn 0 0.245818 0.969316
vn 0 0.245818 0.969316
vn 0 0.01484476 -0.9998899
vn 0 0 -1
vn 0 0 -1
vn 0 0.01484476 -0.9998899
vn 0 0 -1
vn 0 0.7071455 -0.707068
vn 0 0.7071525 -0.7070609
vn 0 0.7071331 -0.7070805
vn 0 0.01484477 -0.9998899
vn 0 0.7071258 -0.7070877
vn 0 0.01484476 -0.9998899
vn 0 0 -1
vn -1 2.707058E-06 0
vn -1 2.707058E-06 0
vn -1 2.707058E-06 0
vn -1 2.707058E-06 0
vn -1 2.707058E-06 0
vn -1 2.707058E-06 0
vn -1 2.707058E-06 0
vn -1 2.707058E-06 0
vn 1 1.853959E-07 2.670297E-07
vn 1 1.853959E-07 2.670297E-07
vn 1 1.853959E-07 2.670297E-07
vn 1 1.853959E-07 2.670297E-07
vn 1 1.853959E-07 2.670297E-07
vn 1 1.853959E-07 2.670297E-07
vn -1 3.906284E-07 -2.670297E-07
vn -1 3.906285E-07 -2.670297E-07
vn -1 3.906285E-07 -2.670297E-07
vn -1 3.906285E-07 -2.670297E-07
vn -1 3.906285E-07 -2.670297E-07
vn -1 3.906285E-07 -2.670297E-07
vn 1 2.014178E-07 3.051762E-07
vn 1 2.014178E-07 3.051762E-07
vn 1 2.014178E-07 3.051762E-07
vn 1 2.014178E-07 3.051762E-07
vn 1 2.014178E-07 3.051762E-07
vn 1 2.014178E-07 3.051763E-07
vn -1 0 -2.288823E-07
vn -1 0 -2.288823E-07
vn -1 0 -2.288823E-07
vn -1 0 -2.288823E-07
vn -1 0 -2.288823E-07
vn -1 0 -2.288823E-07
vn 1 -1.742141E-06 0
vn 1 -1.742141E-06 0
vn 1 -1.742141E-06 0
vn 1 -1.742141E-06 0
vn 1 -1.742141E-06 0
vn 1 -1.742141E-06 0
vn 1 -1.742141E-06 0
vn 1 -1.742141E-06 0
g LM1_floorPlate02_0
f 3/3/3 2/2/2 1/1/1
f 4/4/4 3/3/3 1/1/1
f 7/7/7 6/6/6 5/5/5
f 8/8/8 7/7/7 5/5/5
f 11/11/11 10/10/10 9/9/9
f 12/12/12 11/11/11 9/9/9
f 15/15/15 14/14/14 13/13/13
f 16/16/16 15/15/15 13/13/13
f 19/19/19 18/18/18 17/17/17
f 20/20/20 19/19/19 17/17/17
f 23/23/23 22/22/22 21/21/21
f 22/22/22 24/24/24 21/21/21
f 22/22/22 25/25/25 24/24/24
f 26/26/26 21/21/21 24/24/24
f 27/27/27 21/21/21 26/26/26
f 28/28/28 27/27/27 26/26/26
f 29/29/29 27/27/27 28/28/28
f 30/30/30 29/29/29 28/28/28
f 31/31/31 29/29/29 30/30/30
f 32/32/32 31/31/31 30/30/30
f 33/33/33 26/26/26 24/24/24
f 25/25/25 34/34/34 24/24/24
f 34/34/34 25/25/25 35/35/35
f 36/36/36 34/34/34 35/35/35
f 37/37/37 33/33/33 24/24/24
f 34/34/34 37/37/37 24/24/24
f 38/38/38 34/34/34 36/36/36
f 38/38/38 37/37/37 34/34/34
f 37/37/37 39/39/39 33/33/33
f 39/39/39 40/40/40 33/33/33
f 40/40/40 39/39/39 41/41/41
f 39/39/39 42/42/42 41/41/41
f 41/41/41 42/42/42 43/43/43
f 42/42/42 44/44/44 43/43/43
f 36/36/36 45/45/45 38/38/38
f 45/45/45 46/46/46 38/38/38
f 46/46/46 45/45/45 47/47/47
f 45/45/45 48/48/48 47/47/47
f 47/47/47 48/48/48 49/49/49
f 48/48/48 50/50/50 49/49/49
f 53/53/53 52/52/52 51/51/51
f 54/54/54 53/53/53 51/51/51
f 53/53/53 54/54/54 55/55/55
f 56/56/56 54/54/54 51/51/51
f 57/57/57 56/56/56 51/51/51
f 54/54/54 56/56/56 58/58/58
f 59/59/59 54/54/54 58/58/58
f 54/54/54 59/59/59 55/55/55
f 59/59/59 58/58/58 60/60/60
f 61/61/61 59/59/59 60/60/60
f 59/59/59 61/61/61 55/55/55
f 61/61/61 62/62/62 55/55/55
f 65/65/65 64/64/64 63/63/63
f 63/63/63 66/66/66 65/65/65
f 63/63/63 67/67/67 66/66/66
f 67/67/67 68/68/68 66/66/66
f 67/67/67 69/69/69 68/68/68
f 67/67/67 70/70/70 69/69/69
f 73/73/73 72/72/72 71/71/71
f 71/71/71 74/74/74 73/73/73
f 71/71/71 75/75/75 74/74/74
f 71/71/71 76/76/76 75/75/75
f 79/79/79 78/78/78 77/77/77
f 77/77/77 80/80/80 79/79/79
f 77/77/77 81/81/81 80/80/80
f 81/81/81 82/82/82 80/80/80
f 85/85/85 84/84/84 83/83/83
f 83/83/83 86/86/86 85/85/85
f 83/83/83 87/87/87 86/86/86
f 83/83/83 88/88/88 87/87/87
f 91/91/91 90/90/90 89/89/89
f 89/89/89 92/92/92 91/91/91
f 89/89/89 93/93/93 92/92/92
f 93/93/93 94/94/94 92/92/92
f 97/97/97 96/96/96 95/95/95
f 95/95/95 98/98/98 97/97/97
f 95/95/95 99/99/99 98/98/98
f 99/99/99 100/100/100 98/98/98
f 99/99/99 101/101/101 100/100/100
f 101/101/101 102/102/102 100/100/100
