g LM1_floorPlate11
v -26.50495 -26.04782 -47.49602
v 23.07965 -26.80095 -47.75907
v 23.07965 -27.74507 -47.49602
v -26.50495 -25.2036 -47.7597
v 23.07965 -26.7682 -47.78292
v -26.45737 -25.19361 -47.77135
v -26.40978 -25.18362 -47.78298
v 23.07965 -26.75939 -47.82096
v -26.40978 -25.18362 -47.78299
v 23.07965 -29.89543 -64.35439
v -26.50495 -26.04782 -47.49602
v -26.50495 -26.06289 -47.52861
v -26.48167 -25.28972 -47.80007
v -26.50495 -25.2036 -47.7597
v -26.43513 -25.23635 -47.8034
v 23.07551 -29.94163 -64.40327
v 23.07965 -29.89543 -64.35439
v -26.40978 -25.18362 -47.78299
v 23.07965 -29.89543 -64.35439
v 23.07551 -29.94163 -64.40327
v 23.06838 -30.00833 -64.41966
v 23.07965 -30.88338 -64.20757
v 23.07965 -27.74507 -47.49602
v 23.07965 -26.75939 -47.82096
v 23.07965 -26.80095 -47.75907
v 23.07965 -26.7682 -47.78292
v 23.07551 -29.94163 -64.40327
v -26.48167 -25.28972 -47.80007
v 23.06838 -30.00833 -64.41966
v -26.43513 -25.23635 -47.8034
v -26.45737 -25.19361 -47.77135
v -26.50495 -25.2036 -47.7597
v -26.40978 -25.18362 -47.78298
v -26.40978 -25.18362 -47.78299
v -26.50495 -26.06289 -47.52861
v 23.07965 -30.88338 -64.20757
v 23.06838 -30.00833 -64.41966
v -26.48167 -25.28972 -47.80007
vt 1.090939 -1.74932
vt 0.9649367 2.090911
vt 1.050942 2.088065
vt 1.013378 -1.752851
vt 0.9613799 2.09103
vt 1.01191 -1.749388
vt 1.006981 -1.750125
vt 0.9579966 2.091239
vt 1.006871 -1.75016
vt -0.5216126 2.08295
vt 1.090939 -1.74932
vt 1.090963 -1.7521
vt 1.020559 -1.757785
vt 1.013378 -1.752851
vt 1.002152 -1.752377
vt -0.5273862 2.082105
vt -0.5216126 2.08295
vt 1.006871 -1.75016
vt -0.5216126 2.08295
vt -0.5253657 2.088358
vt -0.5268425 2.094252
vt -0.5137212 2.15933
vt 0.9521649 2.171066
vt 0.9579966 2.091239
vt 0.9607155 2.098035
vt 0.9600563 2.094517
vt -0.5273862 2.082105
vt 0.9983755 -1.756552
vt -0.5331464 2.080422
vt 1.002152 -1.752377
vt 1.001768 -1.757344
vt 1.00027 -1.758287
vt 1.005241 -1.757967
vt 1.005241 -1.757967
vt 0.9307053 -1.778627
vt -0.6073282 2.055887
vt -0.5331464 2.080422
vt 0.9983755 -1.756552
vn 0 0.2768973 0.9608995
vn 0 0.2911421 0.9566798
vn 0 0.2768973 0.9608995
vn 0 0.2911421 0.9566798
vn 0 0.8752398 0.4836892
vn 0.0213075 0.6632947 0.7480549
vn 0.04774223 0.9229541 -0.3819378
vn 0 0.9611606 -0.2759896
vn 0.03112474 0.9820062 -0.1862663
vn 0.03112471 0.9820063 -0.186266
vn -1 0 0
vn -0.9722377 -0.06076126 -0.2259689
vn -0.3157542 0.2252055 -0.9217276
vn -0.9385861 0.002843566 -0.3450333
vn -0.2615967 0.3790715 -0.8876216
vn -0.2017545 0.6015808 -0.7729138
vn -0.2017545 0.6015808 -0.7729138
vn -0.2018056 0.6015184 -0.772949
vn 1 -3.35616E-05 -0.0001929167
vn 0.9910541 -0.02296481 -0.1314701
vn 0.9910541 -0.02296481 -0.1314701
vn 1 -3.220128E-06 -1.921731E-05
vn 1 1.373562E-07 0
vn 1 -1.451373E-06 0
vn 1 -1.451373E-06 0
vn 1 -1.451373E-06 0
vn -0.2895896 0.2304752 -0.9289882
vn -0.3157542 0.2252055 -0.9217276
vn -0.2895896 0.2304752 -0.9289882
vn -0.2615967 0.3790715 -0.8876216
vn -0.3616857 0.3704689 -0.8555328
vn -0.9385861 0.002843566 -0.3450333
vn 0 1 0
vn -0.2018056 0.6015184 -0.772949
vn -0.3298474 -0.2635521 -0.9064993
vn -0.3298475 -0.2635521 -0.9064993
vn -0.3298475 -0.2635521 -0.9064993
vn -0.3298474 -0.2635521 -0.9064993
g LM1_floorPlate11_0
f 3/3/3 2/2/2 1/1/1
f 2/2/2 4/4/4 1/1/1
f 4/4/4 2/2/2 5/5/5
f 6/6/6 4/4/4 5/5/5
f 7/7/7 6/6/6 5/5/5
f 5/5/5 8/8/8 7/7/7
f 7/7/7 8/8/8 9/9/9
f 10/10/10 9/9/9 8/8/8
f 13/13/13 12/12/12 11/11/11
f 14/14/14 13/13/13 11/11/11
f 17/17/17 16/16/16 15/15/15
f 18/18/18 17/17/17 15/15/15
f 21/21/21 20/20/20 19/19/19
f 22/22/22 21/21/21 19/19/19
f 22/22/22 19/19/19 23/23/23
f 19/19/19 24/24/24 23/23/23
f 23/23/23 24/24/24 25/25/25
f 24/24/24 26/26/26 25/25/25
f 29/29/29 28/28/28 27/27/27
f 28/28/28 30/30/30 27/27/27
f 31/31/31 30/30/30 28/28/28
f 32/32/32 31/31/31 28/28/28
f 30/30/30 31/31/31 33/33/33
f 33/33/33 34/34/34 30/30/30
f 37/37/37 36/36/36 35/35/35
f 38/38/38 37/37/37 35/35/35
