g LM1_floorPlate14
v -26.50495 -2.985908 27.97065
v 23.07965 -5.775765 27.17499
v 23.07965 -4.851417 26.95564
v -26.50495 -1.97137 27.77702
v 23.07965 -4.813643 26.96172
v -26.50495 -1.932714 27.78336
v 23.07965 -4.79123 26.99273
v -26.50495 -1.914901 27.81306
v -26.50495 -1.914902 27.81307
v 23.07965 -1.382297 41.59616
v -26.50495 -1.931617 27.86732
v 23.07965 -1.39133 41.65348
v 23.07965 -4.813643 26.96172
v 23.07965 -4.851417 26.95564
v 23.07965 -5.775765 27.17499
v 23.07965 -4.79123 26.99273
v 23.07965 -2.343448 41.87698
v 23.07965 -1.382297 41.59616
v 23.07965 -1.39133 41.65348
v 23.07965 -1.437444 41.68628
v -26.50495 -2.983212 28.03271
v -26.50495 -2.985908 27.97065
v -26.50495 -1.97137 27.77702
v -26.50495 -1.932714 27.78336
v -26.50495 -1.914901 27.81306
v -26.50495 -1.914902 27.81307
v -26.50495 -1.931617 27.86732
v -26.50495 -1.978407 27.89703
v -26.50495 -2.98022 28.10163
v -26.50495 -2.98022 28.10163
v 23.07965 -1.437444 41.68628
v 23.07965 -2.343448 41.87698
v -26.50495 -1.978407 27.89703
v 23.07965 -1.39133 41.65348
v -26.50495 -1.931617 27.86732
vt -0.649538 -2.026283
vt -0.630141 2.586433
vt -0.5337699 2.581483
vt -0.5447715 -2.031784
vt -0.5298902 2.581257
vt -0.5407995 -2.032015
vt -0.5261007 2.581005
vt -0.5373448 -2.032072
vt -0.5372362 -2.032146
vt 0.9967099 2.535452
vt -0.531395 -2.032383
vt 1.002602 2.535275
vt -0.5295857 2.582392
vt -0.5309466 2.585723
vt -0.5275688 2.673892
vt -0.5261007 2.581005
vt 1.005474 2.628089
vt 0.9967099 2.535452
vt 1.002238 2.537315
vt 1.004584 2.542109
vt -0.4281132 -2.063102
vt -0.4306427 -2.068396
vt -0.5318527 -2.042955
vt -0.5350955 -2.040842
vt -0.5353853 -2.037636
vt -0.5353791 -2.037626
vt -0.5314353 -2.033782
vt -0.525838 -2.033223
vt -0.4253037 -2.057247
vt -0.4253037 -2.057247
vt 1.008286 2.53448
vt 1.099356 2.512858
vt -0.525838 -2.033223
vt 1.002602 2.535275
vt -0.531395 -2.032383
vn 0 -0.2309019 -0.972977
vn 0 -0.2309019 -0.972977
vn 0 -0.216417 -0.976301
vn 0 -0.216417 -0.976301
vn 0 0.5247397 -0.8512627
vn 0 0.5247397 -0.8512627
vn 0 0.9727561 -0.2318307
vn 0 0.9727561 -0.2318307
vn 0.04869642 0.9758591 -0.2129026
vn 0.05137843 0.9735875 -0.2224579
vn -0.0728647 0.9717952 0.2242873
vn -0.0728647 0.9717952 0.2242873
vn 1 9.668615E-07 0
vn 1 9.668615E-07 0
vn 1 9.668615E-07 0
vn 1 9.668615E-07 0
vn 1 -7.008509E-07 0
vn 1 -6.997499E-07 0
vn 1 0 0
vn 1 0 0
vn -1 2.07383E-06 1.115797E-06
vn -1 -2.735201E-07 0
vn -1 -2.735201E-07 0
vn -1 -2.735201E-07 0
vn -1 -2.735201E-07 0
vn -1 -7.128958E-07 2.218251E-05
vn -1 1.068141E-05 3.595533E-05
vn -1 0 1.147678E-06
vn -1 0 1.147678E-06
vn -0.2647831 0.1956519 0.9442511
vn -0.2639875 0.2129462 0.9407256
vn -0.2647831 0.1956519 0.9442511
vn -0.2637734 0.2173048 0.9397885
vn -0.2304086 0.5432857 0.8073118
vn -0.2304086 0.5432858 0.8073118
g LM1_floorPlate14_0
f 3/3/3 2/2/2 1/1/1
f 4/4/4 3/3/3 1/1/1
f 3/3/3 4/4/4 5/5/5
f 4/4/4 6/6/6 5/5/5
f 5/5/5 6/6/6 7/7/7
f 6/6/6 8/8/8 7/7/7
f 9/9/9 7/7/7 8/8/8
f 10/10/10 7/7/7 9/9/9
f 9/9/9 11/11/11 10/10/10
f 11/11/11 12/12/12 10/10/10
f 15/15/15 14/14/14 13/13/13
f 16/16/16 15/15/15 13/13/13
f 15/15/15 16/16/16 17/17/17
f 16/16/16 18/18/18 17/17/17
f 18/18/18 19/19/19 17/17/17
f 19/19/19 20/20/20 17/17/17
f 23/23/23 22/22/22 21/21/21
f 24/24/24 23/23/23 21/21/21
f 24/24/24 21/21/21 25/25/25
f 21/21/21 26/26/26 25/25/25
f 21/21/21 27/27/27 26/26/26
f 27/27/27 21/21/21 28/28/28
f 21/21/21 29/29/29 28/28/28
f 32/32/32 31/31/31 30/30/30
f 31/31/31 33/33/33 30/30/30
f 33/33/33 31/31/31 34/34/34
f 35/35/35 33/33/33 34/34/34
