g LM2_floorRedo02
v 20.88928 36.42064 77.0491
v 20.88928 37.60349 83.85108
v -24.31153 37.60349 83.85108
v -24.31153 36.42064 77.0491
v -24.31153 36.3946 77.00381
v 20.88928 36.3946 77.00381
v -24.31153 35.77073 76.99474
v 20.88928 35.77073 76.99474
v 20.88928 35.8456 76.98592
v -24.31153 35.8456 76.98592
v -24.31153 36.34553 76.98592
v 20.88928 36.34553 76.98592
v 20.88928 36.3946 77.00381
v -24.31153 36.3946 77.00381
vt 1.841366 0.1094069
vt 1.841366 -0.4152635
vt -1.645196 -0.4152631
vt -1.645196 0.109407
vt -1.645196 0.1129005
vt 1.841366 0.1129005
vt -1.645196 0.1590331
vt 1.841366 0.1590333
vt 1.841366 0.1552481
vt -1.645196 0.1552482
vt -1.645196 0.1166859
vt 1.841366 0.1166858
vt 1.841366 0.1129005
vt -1.645196 0.1129005
vn 0 0.9847701 -0.1738618
vn 0 0.9852143 -0.171327
vn 0 0.9852143 -0.171327
vn 0 0.9847701 -0.1738618
vn 0 0.8669354 -0.4984207
vn 0 0.8669354 -0.4984207
vn 0 -0.1169698 -0.9931355
vn 0 -0.1169698 -0.9931355
vn 0 -0.01533982 -0.9998823
vn 0 -0.01533982 -0.9998823
vn 0 0.03257905 -0.9994692
vn 0 0.03257905 -0.9994692
vn 0 0.3425796 -0.9394888
vn 0 0.3425796 -0.9394888
g LM2_floorRedo02_0
f 3/3/3 2/2/2 1/1/1
f 4/4/4 3/3/3 1/1/1
f 4/4/4 1/1/1 5/5/5
f 1/1/1 6/6/6 5/5/5
f 9/9/9 8/8/8 7/7/7
f 10/10/10 9/9/9 7/7/7
f 10/10/10 11/11/11 9/9/9
f 11/11/11 12/12/12 9/9/9
f 13/13/13 12/12/12 11/11/11
f 14/14/14 13/13/13 11/11/11
