g LM2_floorRedo09
v 1.974803 2.441406E-06 18.36549
v 1.969549 6.161868 18.32196
v 1.969592 2.441406E-06 18.32236
v 1.975485 6.162893 18.37267
v 1.952695 6.206252 18.29982
v 1.980013 2.441406E-06 18.4086
v 1.958679 6.237737 18.35276
v 1.98035 6.154572 18.41114
v 3.855468 2.441406E-06 32.50148
v 1.980458 6.20262 18.41195
v 1.963615 6.305593 18.36204
v 3.856848 0.02485351 32.51186
v 3.839153 2.929687E-05 32.60147
v 1.980566 6.250671 18.41275
v 1.964708 9.507448 18.37175
v 3.857418 0.08483642 32.51613
v 3.856828 0.02605713 32.55818
v 3.857038 9.506789 32.51328
v 3.855632 9.507248 32.55847
v 1.980743 9.507849 18.41409
v 3.836301 9.552702 32.5191
v 1.961221 9.552414 18.41454
v 3.842163 9.544783 32.55577
v 1.954518 9.544177 18.37858
v 1.923748 9.552155 18.35848
v 1.931468 9.507063 18.34053
v 3.822699 9.55303 32.58728
v 1.963615 6.305593 18.36204
v 3.839757 9.507712 32.60042
v -0.1920032 0.004611816 39.50171
v -0.2085364 9.552429 39.49028
v -0.193692 9.509753 39.5018
v -0.23211 0.00463623 39.52858
v -0.2332196 9.509475 39.52806
v -0.2348675 9.544485 39.51594
v 1.931784 6.39633 18.34071
v 0.3583716 9.508279 17.42114
v 0.3112402 9.508762 17.39359
v 1.922255 6.318342 18.33515
v 1.958679 6.237737 18.35276
v 0.2752875 9.500354 17.37258
v 1.909007 6.243991 18.30812
v 1.899053 6.285911 18.32158
v -7.144056 6.109851 13.03642
v 0.2469818 9.5382 17.3769
v -7.32896 6.078381 12.9474
v 0.2752875 9.500354 17.37258
v 1.899053 6.285911 18.32158
v 0.3112402 9.508762 17.39359
v 0.2831329 9.54927 17.39798
v 0.3240948 9.552522 17.42183
v 0.3583716 9.508279 17.42114
v 1.923748 9.552155 18.35848
v 1.931468 9.507063 18.34053
v 1.961221 9.552414 18.41454
v 3.836301 9.552702 32.5191
v 3.802662 9.570065 32.548
v 1.919659 9.570065 18.40189
v 1.923748 9.552155 18.35848
v 1.954518 9.544177 18.37858
v 0.3240948 9.552522 17.42183
v -8.082539 9.570061 31.93998
v 0.2908392 9.570065 17.45255
v 0.2533661 9.565974 17.43083
v 0.2831329 9.54927 17.39798
v 0.2469818 9.5382 17.3769
v -0.2425342 9.57007 39.46044
v 3.822699 9.55303 32.58728
v -0.2085364 9.552429 39.49028
v -0.2672864 9.552273 39.4982
v -0.2348675 9.544485 39.51594
v -8.109597 9.545647 31.97716
v -8.1155 9.565881 31.90947
v -8.133176 9.550124 31.94478
v -8.147759 9.553469 31.87966
v 0.217157 9.553835 17.40982
v -7.32896 6.078381 12.9474
v -7.425374 6.060373 12.94385
v -14.74506 6.060462 25.55034
v -14.7758 6.048132 25.51837
v -14.76937 6.041657 25.58603
v -14.80229 6.030134 25.55366
v -14.83924 6.027277 25.51711
v -7.459095 6.047961 12.91582
v -14.8082 6.043987 25.48475
v -24.16457 6.043992 16.51206
v -24.1887 6.025945 16.54759
v -7.494909 6.043992 12.88656
v -24.19766 6.025945 16.48469
v -24.21036 6.017912 16.51858
v -18.42999 6.043992 6.574004
v -18.46737 6.026023 6.551943
v -18.4084 6.039787 6.536386
v -18.44611 6.021291 6.515039
v -18.42444 6.007527 6.477431
v -7.478351 6.03987 12.84328
v -18.38762 6.027341 6.500234
v -10.97754 2.441406E-06 -6.294258
v -11.03922 2.441406E-06 -6.302363
v -7.463079 6.027126 12.80245
v -0.07345276 2.441406E-06 -0.002792969
v -7.385575 6.011174 12.75925
v -7.393362 6.044446 12.86136
v -7.34946 6.029944 12.76311
v -7.279551 5.984988 12.60856
v -7.299756 6.061121 12.92633
v -7.144056 6.109851 13.03642
v -7.34666 6.045007 12.84714
v -18.43926 5.959651 6.467266
v -11.08858 2.441406E-06 -6.264492
v -11.03922 2.441406E-06 -6.302363
v -18.42444 6.007527 6.477431
v -18.46215 5.976614 6.506914
v -18.44611 6.021291 6.515039
v -18.46737 6.026023 6.551943
v -18.43934 2.441406E-06 6.467402
v -11.08858 2.441406E-06 -6.264492
v -18.46105 2.441406E-06 6.505019
v -18.48274 5.982634 6.542597
v -18.48276 2.441406E-06 6.542646
v -24.21277 0.0001196289 16.47505
v -24.2126 5.982175 16.47476
v -24.19766 6.025945 16.48469
v -24.22137 5.98217 16.52015
v -24.22149 0.0001220703 16.52017
v -24.21036 6.017912 16.51858
v -14.74506 6.060462 25.55034
v -8.161935 9.532688 31.92888
v -14.76937 6.041657 25.58603
v -8.147759 9.553469 31.87966
v -8.1155 9.565881 31.90947
v -8.133176 9.550124 31.94478
v -0.2786383 9.509196 39.51315
v -8.109597 9.545647 31.97716
v -0.2672864 9.552273 39.4982
v -8.139813 9.512897 31.97066
v -0.2780438 0.004641113 39.51372
v -8.161935 9.532688 31.92888
v -8.133176 9.550124 31.94478
v -14.76937 6.041657 25.58603
v -14.77043 6.002337 25.60886
v -14.80818 5.989573 25.57264
v -14.80229 6.030134 25.55366
v -14.83924 6.027277 25.51711
v -14.79949 5.986956 25.58099
v -14.85209 5.986931 25.53052
v -24.1887 6.025945 16.54759
v -24.20028 5.982175 16.5613
v -24.20053 0.0001269531 16.56105
v -24.22149 0.0001220703 16.52017
v -24.22137 5.98217 16.52015
v -24.21036 6.017912 16.51858
v -0.2332196 9.509475 39.52806
v -0.23211 0.00463623 39.52858
v -0.2780438 0.004641113 39.51372
v -0.2786383 9.509196 39.51315
v -0.2672864 9.552273 39.4982
v -0.2348675 9.544485 39.51594
v -0.04757812 0.02618652 0.06786133
v -0.07345276 2.441406E-06 -0.002792969
v -0.001483765 2.441406E-06 0.1738965
v -0.0259967 0.0475708 0.09845703
v -0.06871033 0.1140381 0.1190137
v 1.952695 6.206252 18.29982
v 1.958679 6.237737 18.35276
v 1.909007 6.243991 18.30812
v 1.904158 6.222815 18.25734
v 3.836301 9.552702 32.5191
v 3.842163 9.544783 32.55577
v 3.822699 9.55303 32.58728
v 3.802662 9.570065 32.548
vt 2.810076 0.02984187
vt 2.813287 0.4844635
vt 2.813257 0.02984187
vt 2.809545 0.4845391
vt 2.81492 0.4877384
vt 2.806895 0.02984187
vt 2.811015 0.4900609
vt 2.806707 0.4839251
vt 1.767125 0.02984187
vt 2.806648 0.4874698
vt 2.81033 0.4950674
vt 1.76636 0.0316757
vt 1.759748 0.02984424
vt 2.806588 0.4910155
vt 2.809614 0.7312991
vt 1.766044 0.03610116
vt 1.762942 0.03176464
vt 1.766254 0.7312503
vt 1.76292 0.7312843
vt 2.806489 0.7313291
vt 1.765825 0.7346377
vt 2.806456 0.7346171
vt 1.76312 0.7340537
vt 2.809109 0.734009
vt 2.810593 0.7345975
vt 2.811918 0.731271
vt 1.760795 0.7346619
vt 2.81033 0.4950674
vt 1.759825 0.7313185
vt 1.250649 0.03018221
vt 1.251493 0.7346177
vt 1.250643 0.731469
vt 1.248667 0.03018364
vt 1.248706 0.7314486
vt 1.2496 0.7340316
vt 2.811903 0.5017619
vt 2.879749 0.7313604
vt 2.881781 0.7313964
vt 2.812314 0.4960082
vt 2.811015 0.4900609
vt 2.883332 0.730776
vt 2.814308 0.4905226
vt 2.813315 0.4936154
vt 0.5631158 0.6838587
vt 1.108425 0.430916
vt 0.5494741 0.6861805
vt 1.110514 0.4337079
vt 1.230314 0.6708687
vt 1.113166 0.4330877
vt 1.111093 0.4300991
vt 1.114115 0.4298593
vt 1.116644 0.4331235
vt 1.232136 0.4298862
vt 1.232706 0.4332131
vt -2.051729 0.2106133
vt -2.68111 1.050811
vt -2.679987 1.053884
vt -2.048598 0.211298
vt -2.047295 0.2083562
vt -2.050001 0.2085404
vt -1.910554 0.205762
vt -1.89308 1.4434
vt -1.909522 0.2089392
vt -1.906327 0.2088932
vt -1.907058 0.2057047
vt -1.903971 0.2056519
vt -2.668925 1.64469
vt -2.682693 1.05569
vt -2.672189 1.645384
vt -2.668694 1.648013
vt -2.67142 1.647985
vt -1.892679 1.446769
vt -1.889858 1.442625
vt -1.889994 1.445536
vt -1.886707 1.44187
vt -1.903239 0.2088464
vt -1.2566 0.1937846
vt -1.250267 0.1970333
vt -1.233807 1.272427
vt -1.230675 1.271478
vt -1.233529 1.275601
vt -1.230243 1.274704
vt -1.226546 1.273684
vt -1.247085 0.1964457
vt -1.227376 1.270482
vt -0.3015569 1.030411
vt -0.3012849 1.033568
vt -1.243724 0.1958539
vt -0.29844 1.029843
vt -0.2988453 1.032482
vt -0.3122321 0.1839364
vt -0.3090304 0.1838645
vt -0.3122653 0.1807362
vt -0.309068 0.1807225
vt -0.3091066 0.1775202
vt -1.24323 0.1924717
vt -0.312299 0.1776599
vt -0.3277966 -0.9130942
vt -0.3235344 -0.9113914
vt -1.24274 0.1892926
vt -1.256533 -0.9014163
vt -1.24617 0.1837164
vt -1.249352 0.1905697
vt -1.248634 0.1826622
vt -1.24756 0.1701941
vt -1.25772 0.1913754
vt -1.271712 0.1928459
vt -1.251845 0.1879703
vt 1.727123 -0.2630482
vt 0.7877766 -0.7027504
vt 0.7849825 -0.7027504
vt 1.727873 -0.2595159
vt 1.730048 -0.2617966
vt 1.730648 -0.2585005
vt 1.733371 -0.2581514
vt 1.727133 -0.70275
vt 0.7877766 -0.7027504
vt 1.729909 -0.70275
vt 1.732682 -0.2613523
vt 1.732685 -0.70275
vt 2.465494 -0.7027411
vt 2.465474 -0.2613862
vt 2.466207 -0.258157
vt 2.468823 -0.2613869
vt 2.468823 -0.7027411
vt 2.468707 -0.2587496
vt 3.135069 -0.2556108
vt 3.605676 0.000569731
vt 3.137702 -0.2569978
vt 3.602044 0.00210315
vt 3.604244 0.003018782
vt 3.606849 0.001856491
vt 4.165241 -0.001163632
vt 3.609237 0.001525879
vt 4.164139 0.002014846
vt 3.608758 -0.0008902848
vt 4.165284 -0.7024073
vt 3.605676 0.000569731
vt 3.606849 0.001856491
vt 3.137702 -0.2569978
vt 3.139386 -0.2598987
vt 3.136714 -0.2608404
vt 3.135313 -0.257848
vt 3.132616 -0.2580586
vt 3.137329 -0.2610339
vt 3.133606 -0.2610356
vt 2.470848 -0.258157
vt 2.471859 -0.2613862
vt 2.471841 -0.702741
vt 2.468823 -0.7027411
vt 2.468823 -0.2613869
vt 2.468707 -0.2587496
vt 0.5314412 0.7153385
vt 1.232706 0.7154207
vt 1.232705 0.7120315
vt 0.5314617 0.7119875
vt 0.5282835 0.7128251
vt 0.5288579 0.7152166
vt 4.16007 0.03177403
vt 4.165284 0.02984187
vt 4.152248 0.02984187
vt 4.157814 0.03335179
vt 4.156296 0.03825581
vt 2.81492 0.4877384
vt 2.811015 0.4900609
vt 2.814308 0.4905226
vt 2.818055 0.4889602
vt 1.765825 0.7346377
vt 1.76312 0.7340537
vt 1.760795 0.7346619
vt 1.763693 0.7359191
vn 0.992761 1.408112E-05 -0.1201073
vn 0.9929028 0.003231403 -0.1188842
vn 0.9930201 1.345705E-05 -0.117945
vn 0.9926437 0.001946289 -0.1210573
vn 0.9618224 0.2093653 -0.1762493
vn 0.991268 2.652488E-07 -0.1318616
vn 0.9599059 0.08138099 -0.2682494
vn 0.9912708 7.670161E-06 -0.1318416
vn 0.9912665 -3.639077E-05 -0.1318739
vn 0.9911772 0.0002314805 -0.1325429
vn 0.9425616 0.0002827947 -0.3340321
vn 0.991389 -0.0008841251 -0.1309467
vn 0.863708 7.185109E-05 0.5039927
vn 0.991241 -2.863844E-07 -0.132066
vn 0.8325707 0.004919515 -0.553897
vn 0.991458 -3.032311E-06 -0.1304262
vn 0.9564413 -0.001253434 0.2919221
vn 0.9913483 0.003302352 -0.1312153
vn 0.9791027 0.001681059 0.2033596
vn 0.9912077 0.003279153 -0.1322742
vn 0.90396 0.4104451 -0.1199628
vn 0.9038939 0.4103924 -0.1206396
vn 0.9044246 0.3884261 0.1764693
vn 0.7735 0.3614534 -0.5206237
vn 0.4689604 0.3846534 -0.7950584
vn 0.5103059 0.01180053 -0.859912
vn 0.7864118 0.4136206 0.4587747
vn 0.6175082 0.005590806 -0.7865446
vn 0.8638406 0.002236443 0.5037603
vn 0.8620876 7.482043E-05 0.5067592
vn 0.7854159 0.4136055 0.4604913
vn 0.8620914 0.002095646 0.5067485
vn 0.5549923 0.000100508 0.8318555
vn 0.555105 0.001291387 0.8317793
vn 0.5529281 0.3478323 0.7571546
vn 0.5250393 0.0002001953 -0.8510779
vn 0.5044808 0.02106622 -0.8631658
vn 0.5041217 0.006069816 -0.8636114
vn 0.5064588 0.002387345 -0.8622608
vn 0.5647672 0.1251602 -0.815704
vn 0.5021477 0.007144225 -0.8647522
vn 0.5707135 0.1888658 -0.7991343
vn 0.5046197 7.533285E-05 -0.8633417
vn 0.4833557 0.05937421 -0.8734083
vn 0.3565348 0.3357583 -0.8718653
vn 0.3564177 0.3356229 -0.8719654
vn 0.5021477 0.007144225 -0.8647522
vn 0.5046197 7.533285E-05 -0.8633417
vn 0.5041217 0.006069816 -0.8636114
vn 0.4191529 0.3787858 -0.8251255
vn 0.4656093 0.38516 -0.7967809
vn 0.5044808 0.02106622 -0.8631658
vn 0.4689604 0.3846534 -0.7950584
vn 0.5103059 0.01180053 -0.859912
vn 0.4117773 0.9096116 -0.05519183
vn 0.4118949 0.9095976 -0.05454158
vn 0.001087791 0.9999994 0.0001111018
vn 0.0009841319 0.9999995 -0.0002309895
vn 0.2014445 0.9188566 -0.3392971
vn 0.4349903 0.8508593 -0.2946557
vn 0.1972702 0.9194096 -0.3402504
vn -0.001210479 0.999999 0.0007525893
vn -0.0003231687 0.9999999 -0.0004163508
vn -0.1619388 0.9822366 -0.09479962
vn 0.06199267 0.9102826 -0.4093197
vn -0.1250221 0.8744884 -0.468657
vn -0.0003532105 0.9999976 0.00216036
vn 0.3383598 0.9200912 0.1973451
vn 0.3363343 0.9204986 0.1989007
vn -0.29305 0.9054892 0.306938
vn 0.05311727 0.9096131 0.4120467
vn -0.2943749 0.9052291 0.3064369
vn -0.1521565 0.9845484 -0.08667623
vn -0.4225577 0.8750582 0.2360467
vn -0.3178995 0.9304694 -0.1821168
vn -0.3162884 0.9305616 -0.1844363
vn -0.1222896 0.8749329 -0.4685483
vn -0.3166472 0.930563 -0.1838122
vn -0.3177181 0.9304102 -0.182735
vn -0.1732923 0.979861 -0.09920751
vn -0.5574372 0.8200616 0.1294716
vn -0.3862655 0.9065028 0.1704447
vn -0.2565809 0.9289276 0.2669454
vn -0.1497033 0.9848197 -0.0878588
vn -0.001541791 0.9999985 0.0009112363
vn -0.001590077 0.9999987 0.0002820979
vn -0.2569037 0.9288952 0.2667474
vn -0.00013617 0.9999999 -0.0004124902
vn -0.3358611 0.9219562 -0.192858
vn -0.4862773 0.8710611 0.06918699
vn -0.0009332512 0.9999992 -0.0009068357
vn -0.3352605 0.9219746 -0.1938125
vn 0.09347218 0.9818917 -0.1647775
vn -0.2413992 0.902154 -0.3575535
vn -0.0409082 0.89482 -0.444549
vn 0.08895725 0.9837299 -0.1560836
vn 0.1877149 0.9261121 -0.3272297
vn 0.1879485 0.9260102 -0.3273842
vn -0.04058499 0.8948238 -0.444571
vn 0.1885084 0.9261247 -0.3267378
vn 0.1886537 0.9260105 -0.3269775
vn -0.2852364 0.8873612 -0.3622574
vn -0.07634486 0.9633588 -0.257121
vn -0.3653238 0.8595088 -0.3574678
vn -0.3955764 0.8382769 -0.3752483
vn 0.1179564 0.8678402 -0.4826381
vn 0.1346399 0.8499224 -0.5094154
vn -0.0631992 0.983647 -0.1686542
vn -0.8636733 0.01126096 -0.5039262
vn -0.6291486 0.4978329 -0.5969376
vn -0.6291486 0.4978329 -0.5969375
vn -0.6298386 0.4970843 -0.5968338
vn -0.8656615 0.003399 -0.5006182
vn -0.760105 0.3688746 -0.5349504
vn -0.8009 0.3806317 -0.4622537
vn -0.8660256 0 -0.4999997
vn -0.8660254 0 -0.5
vn -0.8660892 -3.844267E-07 -0.4998895
vn -0.8661894 0.002962325 -0.499707
vn -0.8661941 0 -0.4997077
vn -0.8668464 0 -0.4985753
vn -0.8668405 0.003017915 -0.4985763
vn -0.8014321 0.3805152 -0.461427
vn -0.9817849 0.001911464 -0.1899858
vn -0.9818289 1.889362E-05 -0.1897684
vn -0.9211176 0.32343 -0.2166456
vn -0.3177181 0.9304102 -0.182735
vn -0.5577089 0.8198516 0.1296308
vn -0.5574372 0.8200616 0.1294716
vn -0.3178995 0.9304694 -0.1821168
vn -0.1521565 0.9845484 -0.08667623
vn -0.4225577 0.8750582 0.2360467
vn -0.6895797 0.003511047 0.7242013
vn -0.629012 0.418093 0.6553946
vn -0.628107 0.4177698 0.6564679
vn -0.6925274 0.001807251 0.7213894
vn -0.6899214 0 0.7238842
vn -0.7379751 0.3608436 0.5702496
vn -0.6482255 0.5091017 0.5662324
vn -0.7379467 0.3606496 0.5704091
vn -0.6938214 0.005474005 0.7201265
vn -0.6861897 0.3581606 0.6331388
vn -0.6779968 0.3925854 0.6214474
vn -0.6352707 0.3979302 0.6618782
vn -0.6923151 -3.697834E-05 0.7215953
vn -0.6923274 0.003337273 0.7215759
vn -0.6357851 0.3977295 0.6615047
vn -0.6930269 0.00258054 0.7209072
vn -0.6929818 -7.160467E-07 0.720955
vn -0.8898417 1.802178E-05 0.4562694
vn -0.8897384 0.001911508 0.4564666
vn -0.8239116 0.3236425 0.4652153
vn -0.3098425 0.001236955 0.9507871
vn -0.3096896 2.693428E-05 0.9508377
vn -0.6899214 0 0.7238842
vn -0.6895797 0.003511047 0.7242013
vn -0.628107 0.4177698 0.6564679
vn -0.3339902 0.3455813 0.8769402
vn 0.8421535 0.1256359 -0.5243978
vn 0.8421535 0.1256359 -0.5243977
vn 0.8421535 0.1256359 -0.5243978
vn 0.8421535 0.1256359 -0.5243978
vn 0.8421535 0.1256359 -0.5243978
vn 0.5444966 0.7235515 -0.4242602
vn 0.5444966 0.7235515 -0.4242603
vn 0.5444966 0.7235515 -0.4242602
vn 0.5444966 0.7235515 -0.4242602
vn 0.4118949 0.9095976 -0.05454158
vn 0.5223135 0.846846 0.1002017
vn 0.3383598 0.9200912 0.1973451
vn 0.001087791 0.9999994 0.0001111018
g LM2_floorRedo09_0
f 3/3/3 2/2/2 1/1/1
f 2/2/2 4/4/4 1/1/1
f 2/2/2 5/5/5 4/4/4
f 1/1/1 4/4/4 6/6/6
f 5/5/5 7/7/7 4/4/4
f 4/4/4 8/8/8 6/6/6
f 9/9/9 6/6/6 8/8/8
f 4/4/4 7/7/7 10/10/10
f 8/8/8 4/4/4 10/10/10
f 10/10/10 7/7/7 11/11/11
f 12/12/12 9/9/9 8/8/8
f 10/10/10 12/12/12 8/8/8
f 13/13/13 9/9/9 12/12/12
f 14/14/14 10/10/10 11/11/11
f 11/11/11 15/15/15 14/14/14
f 16/16/16 12/12/12 10/10/10
f 14/14/14 16/16/16 10/10/10
f 12/12/12 16/16/16 17/17/17
f 12/12/12 17/17/17 13/13/13
f 16/16/16 14/14/14 18/18/18
f 16/16/16 18/18/18 17/17/17
f 17/17/17 19/19/19 13/13/13
f 18/18/18 19/19/19 17/17/17
f 14/14/14 20/20/20 18/18/18
f 15/15/15 20/20/20 14/14/14
f 21/21/21 18/18/18 20/20/20
f 18/18/18 21/21/21 19/19/19
f 22/22/22 21/21/21 20/20/20
f 20/20/20 15/15/15 22/22/22
f 21/21/21 23/23/23 19/19/19
f 15/15/15 24/24/24 22/22/22
f 25/25/25 24/24/24 15/15/15
f 26/26/26 25/25/25 15/15/15
f 19/19/19 23/23/23 27/27/27
f 26/26/26 15/15/15 28/28/28
f 19/19/19 29/29/29 13/13/13
f 29/29/29 19/19/19 27/27/27
f 30/30/30 13/13/13 29/29/29
f 27/27/27 31/31/31 29/29/29
f 32/32/32 30/30/30 29/29/29
f 31/31/31 32/32/32 29/29/29
f 33/33/33 30/30/30 32/32/32
f 34/34/34 33/33/33 32/32/32
f 32/32/32 31/31/31 34/34/34
f 31/31/31 35/35/35 34/34/34
f 36/36/36 26/26/26 28/28/28
f 37/37/37 26/26/26 36/36/36
f 38/38/38 37/37/37 36/36/36
f 36/36/36 28/28/28 39/39/39
f 39/39/39 38/38/38 36/36/36
f 28/28/28 40/40/40 39/39/39
f 41/41/41 38/38/38 39/39/39
f 39/39/39 40/40/40 42/42/42
f 43/43/43 41/41/41 39/39/39
f 43/43/43 39/39/39 42/42/42
f 46/46/46 45/45/45 44/44/44
f 45/45/45 47/47/47 44/44/44
f 44/44/44 47/47/47 48/48/48
f 47/47/47 45/45/45 49/49/49
f 45/45/45 50/50/50 49/49/49
f 49/49/49 50/50/50 51/51/51
f 52/52/52 49/49/49 51/51/51
f 52/52/52 51/51/51 53/53/53
f 54/54/54 52/52/52 53/53/53
f 57/57/57 56/56/56 55/55/55
f 58/58/58 57/57/57 55/55/55
f 58/58/58 55/55/55 59/59/59
f 55/55/55 60/60/60 59/59/59
f 59/59/59 61/61/61 58/58/58
f 62/62/62 57/57/57 58/58/58
f 61/61/61 63/63/63 58/58/58
f 58/58/58 63/63/63 62/62/62
f 63/63/63 61/61/61 64/64/64
f 61/61/61 65/65/65 64/64/64
f 64/64/64 65/65/65 66/66/66
f 62/62/62 67/67/67 57/57/57
f 57/57/57 67/67/67 68/68/68
f 67/67/67 69/69/69 68/68/68
f 67/67/67 70/70/70 69/69/69
f 67/67/67 62/62/62 70/70/70
f 70/70/70 71/71/71 69/69/69
f 62/62/62 72/72/72 70/70/70
f 73/73/73 62/62/62 63/63/63
f 62/62/62 73/73/73 72/72/72
f 64/64/64 73/73/73 63/63/63
f 73/73/73 74/74/74 72/72/72
f 75/75/75 73/73/73 64/64/64
f 76/76/76 64/64/64 66/66/66
f 76/76/76 75/75/75 64/64/64
f 76/76/76 66/66/66 77/77/77
f 75/75/75 76/76/76 78/78/78
f 78/78/78 76/76/76 77/77/77
f 79/79/79 75/75/75 78/78/78
f 80/80/80 79/79/79 78/78/78
f 79/79/79 80/80/80 81/81/81
f 80/80/80 82/82/82 81/81/81
f 83/83/83 82/82/82 80/80/80
f 84/84/84 80/80/80 78/78/78
f 78/78/78 77/77/77 84/84/84
f 85/85/85 83/83/83 80/80/80
f 85/85/85 80/80/80 84/84/84
f 83/83/83 85/85/85 86/86/86
f 87/87/87 83/83/83 86/86/86
f 88/88/88 85/85/85 84/84/84
f 85/85/85 88/88/88 86/86/86
f 86/86/86 89/89/89 87/87/87
f 89/89/89 90/90/90 87/87/87
f 89/89/89 86/86/86 91/91/91
f 88/88/88 91/91/91 86/86/86
f 92/92/92 89/89/89 91/91/91
f 91/91/91 93/93/93 92/92/92
f 93/93/93 91/91/91 88/88/88
f 93/93/93 94/94/94 92/92/92
f 95/95/95 94/94/94 93/93/93
f 88/88/88 84/84/84 96/96/96
f 96/96/96 93/93/93 88/88/88
f 97/97/97 95/95/95 93/93/93
f 97/97/97 93/93/93 96/96/96
f 97/97/97 98/98/98 95/95/95
f 98/98/98 99/99/99 95/95/95
f 98/98/98 97/97/97 100/100/100
f 100/100/100 97/97/97 96/96/96
f 101/101/101 98/98/98 100/100/100
f 100/100/100 96/96/96 102/102/102
f 84/84/84 103/103/103 96/96/96
f 96/96/96 103/103/103 102/102/102
f 77/77/77 103/103/103 84/84/84
f 102/102/102 103/103/103 104/104/104
f 105/105/105 102/102/102 104/104/104
f 106/106/106 103/103/103 77/77/77
f 104/104/104 103/103/103 106/106/106
f 107/107/107 106/106/106 77/77/77
f 108/108/108 104/104/104 106/106/106
f 111/111/111 110/110/110 109/109/109
f 112/112/112 111/111/111 109/109/109
f 109/109/109 113/113/113 112/112/112
f 113/113/113 114/114/114 112/112/112
f 115/115/115 114/114/114 113/113/113
f 109/109/109 116/116/116 113/113/113
f 109/109/109 117/117/117 116/116/116
f 116/116/116 118/118/118 113/113/113
f 113/113/113 118/118/118 119/119/119
f 119/119/119 115/115/115 113/113/113
f 118/118/118 120/120/120 119/119/119
f 120/120/120 121/121/121 119/119/119
f 119/119/119 122/122/122 115/115/115
f 121/121/121 122/122/122 119/119/119
f 122/122/122 123/123/123 115/115/115
f 122/122/122 121/121/121 124/124/124
f 122/122/122 124/124/124 123/123/123
f 121/121/121 125/125/125 124/124/124
f 124/124/124 126/126/126 123/123/123
f 129/129/129 128/128/128 127/127/127
f 128/128/128 130/130/130 127/127/127
f 130/130/130 128/128/128 131/131/131
f 128/128/128 132/132/132 131/131/131
f 135/135/135 134/134/134 133/133/133
f 134/134/134 136/136/136 133/133/133
f 136/136/136 137/137/137 133/133/133
f 136/136/136 134/134/134 138/138/138
f 134/134/134 139/139/139 138/138/138
f 136/136/136 138/138/138 140/140/140
f 141/141/141 136/136/136 140/140/140
f 137/137/137 136/136/136 141/141/141
f 141/141/141 140/140/140 142/142/142
f 140/140/140 143/143/143 142/142/142
f 142/142/142 143/143/143 144/144/144
f 141/141/141 142/142/142 145/145/145
f 137/137/137 141/141/141 145/145/145
f 146/146/146 142/142/142 144/144/144
f 142/142/142 146/146/146 145/145/145
f 137/137/137 145/145/145 146/146/146
f 146/146/146 144/144/144 147/147/147
f 137/137/137 146/146/146 148/148/148
f 148/148/148 146/146/146 147/147/147
f 137/137/137 148/148/148 149/149/149
f 150/150/150 149/149/149 148/148/148
f 151/151/151 150/150/150 148/148/148
f 148/148/148 147/147/147 151/151/151
f 147/147/147 152/152/152 151/151/151
f 155/155/155 154/154/154 153/153/153
f 156/156/156 155/155/155 153/153/153
f 156/156/156 153/153/153 157/157/157
f 153/153/153 158/158/158 157/157/157
f 161/161/161 160/160/160 159/159/159
f 159/159/159 162/162/162 161/161/161
f 159/159/159 163/163/163 162/162/162
f 166/166/166 165/165/165 164/164/164
f 167/167/167 166/166/166 164/164/164
f 170/170/170 169/169/169 168/168/168
f 171/171/171 170/170/170 168/168/168
