g LM2_floorRedo03
v -24.31153 33.51862 70.20621
v 20.88928 33.51862 70.20621
v 20.88928 33.59349 70.19667
v -24.31153 33.59349 70.19667
v -24.31153 34.14104 70.19667
v 20.88928 34.14104 70.19667
v 20.88928 34.19011 70.2138
v -24.31153 34.19011 70.2138
v -24.31153 34.19011 70.2138
v 20.88928 34.19011 70.2138
v 20.88928 34.2179 70.25771
v -24.31153 34.2179 70.25771
v -24.31153 35.76874 76.92488
v 20.88928 35.76874 76.92488
v 20.88928 35.77073 76.99474
v -24.31153 35.77073 76.99474
vt -1.645196 0.729885
vt 1.841366 0.7298852
vt 1.841366 0.7261001
vt -1.645196 0.7260998
vt -1.645196 0.6838652
vt 1.841366 0.6838654
vt 1.841366 0.6800799
vt -1.645196 0.6800797
vt -1.645196 0.6800797
vt 1.841366 0.6800799
vt 1.841366 0.676693
vt -1.645196 0.6766927
vt -1.645196 0.162421
vt 1.841366 0.1624212
vt 1.841366 0.1590333
vt -1.645196 0.1590331
vn 0 -0.1262843 -0.9919941
vn 0 -0.1262843 -0.9919941
vn 0 -0.01531152 -0.9998828
vn 0 -0.01531152 -0.9998828
vn 0 0.02868992 -0.9995884
vn 0 0.02868992 -0.9995884
vn 0 0.3294591 -0.9441698
vn 0 0.3294591 -0.9441698
vn 0 0.8450022 -0.5347628
vn 0 0.8450022 -0.5347628
vn 0 0.9734317 -0.2289775
vn 0 0.9734317 -0.2289775
vn 0 0.9744505 -0.2246024
vn 0 0.9744505 -0.2246024
vn 0 0.9995958 -0.02842931
vn 0 0.9995958 -0.02842931
g LM2_floorRedo03_0
f 3/3/3 2/2/2 1/1/1
f 4/4/4 3/3/3 1/1/1
f 4/4/4 5/5/5 3/3/3
f 5/5/5 6/6/6 3/3/3
f 7/7/7 6/6/6 5/5/5
f 8/8/8 7/7/7 5/5/5
f 11/11/11 10/10/10 9/9/9
f 12/12/12 11/11/11 9/9/9
f 12/12/12 13/13/13 11/11/11
f 13/13/13 14/14/14 11/11/11
f 15/15/15 14/14/14 13/13/13
f 16/16/16 15/15/15 13/13/13
