g LM2_floorPlate12
v -49.5846 -5.593716 -27.68558
v -49.5846 -6.518053 -27.46622
v 0 -6.518053 -27.46622
v 0 -5.593716 -27.68558
v 0 -5.555939 -27.67949
v -49.5846 -5.555939 -27.67949
v -49.5846 -2.972838 -12.52716
v 0 -2.048505 -12.74652
v 0 -2.972838 -12.52716
v -49.5846 -2.048505 -12.74652
v -49.5846 -2.017489 -12.76892
v 0 -2.017489 -12.76892
v -49.5846 -5.555939 -27.67949
v 0 -5.555939 -27.67949
v 0 -5.533528 -27.64848
v -49.5846 -5.533528 -27.64848
v -49.5846 -2.011406 -12.8067
v 0 -2.011406 -12.8067
v 0 -2.017489 -12.76892
v -49.5846 -2.017489 -12.76892
v -49.5846 -2.972838 -12.52716
v -49.5846 -6.518053 -27.46622
v -49.5846 -5.593716 -27.68558
v -49.5846 -5.555939 -27.67949
v -49.5846 -5.533528 -27.64848
v -49.5846 -2.011406 -12.8067
v -49.5846 -2.048505 -12.74652
v -49.5846 -2.017489 -12.76892
v 0 -5.593716 -27.68558
v 0 -6.518053 -27.46622
v 0 -2.972838 -12.52716
v 0 -5.555939 -27.67949
v 0 -5.533528 -27.64848
v 0 -2.011406 -12.8067
v 0 -2.048505 -12.74652
v 0 -2.017489 -12.76892
vt 1.3104 -1.649938
vt 1.216591 -1.650766
vt 1.172881 2.489207
vt 1.26669 2.490035
vt 1.270469 2.490068
vt 1.314179 -1.649905
vt 1.179382 -1.650919
vt 1.041657 2.488065
vt 1.135463 2.488895
vt 1.085576 -1.65175
vt 1.081799 -1.651783
vt 1.037879 2.488032
vt -0.5420263 -1.677469
vt -0.5373594 2.497278
vt -0.5335497 2.497281
vt -0.5382164 -1.677467
vt 0.9806869 -1.676749
vt 0.9853537 2.497999
vt 0.9891642 2.498001
vt 0.9844974 -1.676747
vt -0.7316338 1.112965
vt -0.7375946 2.406254
vt -0.6429559 2.406686
vt -0.6394285 2.405468
vt -0.6379559 2.402498
vt -0.6320343 1.117631
vt -0.6369951 1.113398
vt -0.6334792 1.114647
vt -0.7711779 1.111653
vt -0.8659041 1.110393
vt -0.8876845 2.404855
vt -0.7676737 1.112934
vt -0.7662637 1.115934
vt -0.7879026 2.401966
vt -0.7929581 2.406115
vt -0.7894127 2.404928
vn 0 -0.2164118 -0.9763022
vn 0 -0.2308936 -0.9729789
vn 0 -0.2308936 -0.9729789
vn 0 -0.2164118 -0.9763022
vn 0 0.5246759 -0.8513021
vn 0 0.5246759 -0.8513021
vn 0 0.2309091 0.9729753
vn 0 0.2453286 0.9694399
vn 0 0.2309091 0.9729753
vn 0 0.2453286 0.9694399
vn 0 0.8512479 0.5247638
vn 0 0.8512479 0.5247638
vn 0 0.5246759 -0.8513021
vn 0 0.5246759 -0.8513021
vn 0 0.9727561 -0.2318306
vn 0 0.9727561 -0.2318306
vn 0 0.9731985 -0.2299668
vn 0 0.9731985 -0.2299668
vn 0 0.8512479 0.5247638
vn 0 0.8512479 0.5247638
vn -1 0 0
vn -1 0 0
vn -1 0 0
vn -1 0 0
vn -1 0 0
vn -1 0 0
vn -1 0 0
vn -1 0 0
vn 1 -1.475735E-06 0
vn 1 -1.475735E-06 0
vn 1 -1.475735E-06 0
vn 1 -1.475735E-06 0
vn 1 -1.475735E-06 0
vn 1 -1.475735E-06 0
vn 1 -1.475735E-06 0
vn 1 -1.475735E-06 0
g LM2_floorPlate12_0
f 3/3/3 2/2/2 1/1/1
f 4/4/4 3/3/3 1/1/1
f 5/5/5 4/4/4 1/1/1
f 6/6/6 5/5/5 1/1/1
f 9/9/9 8/8/8 7/7/7
f 8/8/8 10/10/10 7/7/7
f 10/10/10 8/8/8 11/11/11
f 8/8/8 12/12/12 11/11/11
f 15/15/15 14/14/14 13/13/13
f 16/16/16 15/15/15 13/13/13
f 15/15/15 16/16/16 17/17/17
f 18/18/18 15/15/15 17/17/17
f 19/19/19 18/18/18 17/17/17
f 20/20/20 19/19/19 17/17/17
f 23/23/23 22/22/22 21/21/21
f 21/21/21 24/24/24 23/23/23
f 21/21/21 25/25/25 24/24/24
f 21/21/21 26/26/26 25/25/25
f 21/21/21 27/27/27 26/26/26
f 27/27/27 28/28/28 26/26/26
f 31/31/31 30/30/30 29/29/29
f 29/29/29 32/32/32 31/31/31
f 32/32/32 33/33/33 31/31/31
f 33/33/33 34/34/34 31/31/31
f 34/34/34 35/35/35 31/31/31
f 34/34/34 36/36/36 35/35/35
