g LM2_floorRedo01
v -24.31153 31.68281 63.99234
v -24.31153 31.11023 63.99234
v 20.88928 31.11023 63.99234
v 20.88928 31.68281 63.99234
v 20.88928 31.73188 64.00874
v -24.31153 31.73188 64.00874
v -24.31153 33.51507 70.13766
v 20.88928 33.51862 70.20621
v -24.31153 33.51862 70.20621
v 20.88928 33.51507 70.13766
v 20.88928 31.76123 64.05137
v -24.31153 31.76123 64.05137
v -24.31153 31.73188 64.00874
v 20.88928 31.73188 64.00874
v -24.31153 31.73188 64.00874
v -24.31153 31.76123 64.05137
v -24.31153 33.51507 70.13766
v -24.31153 31.68281 63.99234
v -24.31153 31.11023 63.99234
v -24.31153 31.11023 83.85108
v -24.31153 33.51862 70.20621
v -24.31153 33.59349 70.19667
v -24.31153 35.76874 76.92488
v -24.31153 34.14104 70.19667
v -24.31153 34.19011 70.2138
v -24.31153 34.2179 70.25771
v -24.31153 35.77073 76.99474
v -24.31153 35.8456 76.98592
v -24.31153 37.60349 83.85108
v -24.31153 36.34553 76.98592
v -24.31153 36.3946 77.00381
v -24.31153 36.42064 77.0491
v 20.88928 31.68281 63.99234
v 20.88928 31.11023 63.99234
v 20.88928 31.11023 83.85108
v 20.88928 33.51507 70.13766
v 20.88928 31.73188 64.00874
v 20.88928 31.76123 64.05137
v 20.88928 33.51862 70.20621
v 20.88928 33.59349 70.19667
v 20.88928 35.76874 76.92488
v 20.88928 34.14104 70.19667
v 20.88928 34.19011 70.2138
v 20.88928 34.2179 70.25771
v 20.88928 35.77073 76.99474
v 20.88928 35.8456 76.98592
v 20.88928 37.60349 83.85108
v 20.88928 36.34553 76.98592
v 20.88928 36.3946 77.00381
v 20.88928 36.42064 77.0491
vt -1.645196 1.20971
vt -1.645196 1.253876
vt 1.841366 1.253876
vt 1.841366 1.20971
vt 1.841366 1.205926
vt -1.645196 1.205926
vt -1.645196 0.7331719
vt 1.841366 0.7298852
vt -1.645196 0.729885
vt 1.841366 0.7331722
vt 1.841366 1.202638
vt -1.645196 1.202638
vt -1.645196 1.205926
vt 1.841366 1.205926
vt 1.126748 -0.719284
vt 1.130036 -0.7170197
vt 1.599502 -0.5817375
vt 1.125483 -0.7230688
vt 1.125483 -0.7672343
vt 2.13198 -0.5857517
vt 1.602789 -0.5794736
vt 1.604054 -0.5756883
vt 2.123034 -0.4079006
vt 1.604054 -0.5334536
vt 1.605375 -0.5296684
vt 1.608762 -0.5275244
vt 2.126421 -0.4057574
vt 2.127742 -0.4019725
vt 2.657286 -0.2663773
vt 2.127742 -0.3634099
vt 2.129122 -0.3596247
vt 2.132616 -0.3576159
vt 2.796371 -0.2899092
vt 2.796371 -0.2457433
vt 3.802868 -0.4272258
vt 3.270391 -0.4312401
vt 2.797637 -0.2936935
vt 2.800924 -0.2959582
vt 3.273677 -0.4335043
vt 3.274942 -0.4372892
vt 3.793921 -0.605077
vt 3.274942 -0.4795237
vt 3.276263 -0.4833094
vt 3.27965 -0.4854531
vt 3.79731 -0.6072201
vt 3.798631 -0.6110055
vt 4.328175 -0.7466007
vt 3.798631 -0.6495675
vt 3.800011 -0.6533532
vt 3.803504 -0.6553616
vn 0 0.02638235 -0.9996519
vn 0 0 -1
vn 0 0 -1
vn 0 0.02638235 -0.9996519
vn 0 0.3170778 -0.9483995
vn 0 0.3170778 -0.9483995
vn 0 0.9615709 -0.2745566
vn 0 0.9986591 -0.05176928
vn 0 0.9986591 -0.05176928
vn 0 0.9615709 -0.2745566
vn 0 0.9601858 -0.2793626
vn 0 0.9601858 -0.2793626
vn 0 0.8235835 -0.5671948
vn 0 0.8235835 -0.5671948
vn -1 7.212992E-07 0
vn -1 7.212992E-07 0
vn -1 6.398824E-07 0
vn -1 7.212992E-07 0
vn -1 7.212992E-07 0
vn -1 5.200523E-07 0
vn -1 -5.848348E-05 0
vn -1 6.595012E-07 0
vn -1 5.356265E-07 0
vn -1 6.689169E-07 0
vn -1 6.689168E-07 0
vn -1 6.689169E-07 0
vn -1 -3.255205E-05 0
vn -1 4.176784E-07 0
vn -1 4.192693E-07 0
vn -1 4.192693E-07 0
vn -1 4.192694E-07 0
vn -1 4.192694E-07 0
vn 1 0 0
vn 1 0 0
vn 1 0 0
vn 1 0 0
vn 1 0 0
vn 1 0 0
vn 1 0 0
vn 1 -2.211046E-07 0
vn 1 0 0
vn 1 -2.242613E-07 0
vn 1 -2.242613E-07 0
vn 1 -2.242613E-07 0
vn 1 3.255205E-05 0
vn 1 1.044195E-07 0
vn 1 1.048173E-07 0
vn 1 1.048173E-07 0
vn 1 1.048173E-07 0
vn 1 1.048173E-07 0
g LM2_floorRedo01_0
f 3/3/3 2/2/2 1/1/1
f 4/4/4 3/3/3 1/1/1
f 5/5/5 4/4/4 1/1/1
f 6/6/6 5/5/5 1/1/1
f 9/9/9 8/8/8 7/7/7
f 8/8/8 10/10/10 7/7/7
f 10/10/10 11/11/11 7/7/7
f 11/11/11 12/12/12 7/7/7
f 12/12/12 11/11/11 13/13/13
f 11/11/11 14/14/14 13/13/13
f 17/17/17 16/16/16 15/15/15
f 17/17/17 15/15/15 18/18/18
f 17/17/17 18/18/18 19/19/19
f 19/19/19 20/20/20 17/17/17
f 21/21/21 17/17/17 20/20/20
f 22/22/22 21/21/21 20/20/20
f 22/22/22 20/20/20 23/23/23
f 23/23/23 24/24/24 22/22/22
f 23/23/23 25/25/25 24/24/24
f 23/23/23 26/26/26 25/25/25
f 27/27/27 23/23/23 20/20/20
f 28/28/28 27/27/27 20/20/20
f 28/28/28 20/20/20 29/29/29
f 29/29/29 30/30/30 28/28/28
f 29/29/29 31/31/31 30/30/30
f 29/29/29 32/32/32 31/31/31
f 35/35/35 34/34/34 33/33/33
f 33/33/33 36/36/36 35/35/35
f 33/33/33 37/37/37 36/36/36
f 37/37/37 38/38/38 36/36/36
f 36/36/36 39/39/39 35/35/35
f 39/39/39 40/40/40 35/35/35
f 41/41/41 35/35/35 40/40/40
f 40/40/40 42/42/42 41/41/41
f 42/42/42 43/43/43 41/41/41
f 43/43/43 44/44/44 41/41/41
f 41/41/41 45/45/45 35/35/35
f 45/45/45 46/46/46 35/35/35
f 47/47/47 35/35/35 46/46/46
f 46/46/46 48/48/48 47/47/47
f 48/48/48 49/49/49 47/47/47
f 49/49/49 50/50/50 47/47/47
