g LM2_floorStair08
v 24.79229 -1.549996 -12.43233
v 24.79229 -2.5 -12.20776
v 24.79229 -2.5 -5.72615
v 24.79229 -1.5 -5.72615
v 24.79229 -2.5 12.43233
v 24.79229 2.5 12.43233
v 24.79229 -1.515426 -12.42464
v 24.79229 -1.5 -12.39277
v 24.79229 -1.549996 -12.43233
v 21.81642 -2.5 -12.20776
v 24.79229 -2.5 -12.20776
v 21.81642 -1.549996 -12.43233
v 21.81642 -1.515426 -12.42464
v 24.79229 -1.515426 -12.42464
v 0 -1.515426 -12.42464
v 0 -1.549996 -12.43233
v 0 -2.5 -12.20776
v -21.81642 -2.5 -12.20776
v -21.81642 -1.549996 -12.43233
v -21.81642 -1.515426 -12.42464
v -24.79229 -1.549996 -12.43233
v -24.79229 -2.5 -12.20776
v -24.79229 -1.515426 -12.42464
v 21.81642 -1.5 -5.72615
v 24.79229 2.5 12.43233
v 21.81642 2.5 12.43233
v 24.79229 -1.5 -5.72615
v 21.81642 -1.5 -12.39277
v 24.79229 -1.5 -12.39277
v 24.79229 -1.515426 -12.42464
v 21.81642 -1.515426 -12.42464
v 0 -1.5 -5.72615
v 0 -1.5 -12.39277
v 0 -1.515426 -12.42464
v -21.81642 -1.515426 -12.42464
v -21.81642 -1.5 -12.39277
v -24.79229 -1.515426 -12.42464
v -24.79229 -1.5 -12.39277
v -24.79229 -1.5 -5.72615
v -21.81642 -1.5 -5.72615
v -24.79229 2.5 12.43233
v -21.81642 2.5 12.43233
v -24.79229 -1.515426 -12.42464
v -24.79229 -1.5 -12.39277
v -24.79229 -1.5 -5.72615
v -24.79229 -1.549996 -12.43233
v -24.79229 -2.5 -12.20776
v -24.79229 -2.5 -5.72615
v -24.79229 -2.5 12.43233
v -24.79229 2.5 12.43233
vt -1.451896 -0.02328646
vt -1.434929 0.04849362
vt -0.9451927 0.04849362
vt -0.9451927 -0.0270642
vt 0.426824 0.04849362
vt 0.426824 -0.329296
vt -1.451316 -0.02589822
vt -1.448908 -0.0270642
vt -1.451897 2.044673
vt -1.22682 1.971406
vt -1.451897 1.972893
vt -1.227046 2.044673
vt -1.226982 2.047202
vt -1.451897 2.047285
vt 0.4213567 2.047285
vt 0.4213567 2.044673
vt 0.4213567 1.972893
vt 2.068451 1.972836
vt 2.069759 2.044673
vt 2.069253 2.047225
vt 2.29461 2.044673
vt 2.29461 1.972893
vt 2.294611 2.047285
vt -1.227047 0.577783
vt -1.451897 1.9498
vt -1.227002 1.949805
vt -1.451898 0.5777831
vt -1.227046 0.07406747
vt -1.451896 0.07406747
vt -1.451897 0.07165921
vt -1.227218 0.0716424
vt 0.4213566 0.577783
vt 0.4213564 0.07406735
vt 0.4213564 0.07165921
vt 2.069989 0.07166147
vt 2.069759 0.07406735
vt 2.29461 0.07165909
vt 2.29461 0.07406747
vt 2.29461 0.577783
vt 2.069759 0.577783
vt 2.29461 1.9498
vt 2.069735 1.9498
vt 0.4262435 -0.4269011
vt 0.4238354 -0.4280666
vt -0.07988012 -0.4280666
vt 0.426824 -0.4242891
vt 0.4098562 -0.3525088
vt -0.07988012 -0.3525089
vt -1.451897 -0.3525088
vt -1.451897 -0.7302984
vn 1 1.302279E-06 0
vn 1 1.30228E-06 0
vn 1 1.407094E-07 0
vn 1 1.252847E-07 0
vn 1 0 0
vn 1 0 0
vn 1 1.302279E-06 0
vn 1 1.302279E-06 0
vn 2.578636E-06 -0.215123 -0.976587
vn 0 -0.2300485 -0.9731792
vn 2.582442E-06 -0.2300486 -0.9731791
vn 0 -0.215123 -0.976587
vn 0 0.6205463 -0.7841699
vn 1.235655E-06 0.6205444 -0.7841713
vn 0 0.6205463 -0.7841697
vn 0 -0.215123 -0.9765869
vn 0 -0.2300485 -0.9731792
vn 0 -0.2300485 -0.9731792
vn 0 -0.215123 -0.976587
vn 0 0.6205462 -0.7841699
vn -2.578636E-06 -0.2151229 -0.976587
vn -2.582442E-06 -0.2300485 -0.9731792
vn -1.235655E-06 0.6205443 -0.7841714
vn 0 0.99889 -0.04710376
vn 0 0.9765865 -0.2151252
vn 0 0.9765865 -0.2151252
vn 0 0.9872664 -0.1590756
vn 0 0.9999974 -0.002302887
vn 0 0.9999974 -0.002302851
vn 1.235655E-06 0.6205444 -0.7841713
vn 0 0.6205463 -0.7841699
vn 0 1 0
vn 0 0.9999974 -0.002302891
vn 0 0.6205463 -0.7841697
vn 0 0.6205462 -0.7841699
vn 0 0.9999974 -0.002302887
vn -1.235655E-06 0.6205443 -0.7841714
vn 0 0.9999974 -0.002302849
vn 0 0.9872664 -0.1590756
vn 0 0.99889 -0.04710376
vn 0 0.9765865 -0.2151253
vn 0 0.9765865 -0.2151253
vn -1 -3.422184E-07 0
vn -1 -3.422184E-07 0
vn -1 0 0
vn -1 -3.422184E-07 0
vn -1 -3.422184E-07 0
vn -1 0 0
vn -1 0 0
vn -1 0 0
g LM2_floorStair08_0
f 3/3/3 2/2/2 1/1/1
f 1/1/1 4/4/4 3/3/3
f 5/5/5 3/3/3 4/4/4
f 6/6/6 5/5/5 4/4/4
f 1/1/1 7/7/7 4/4/4
f 7/7/7 8/8/8 4/4/4
f 11/11/11 10/10/10 9/9/9
f 10/10/10 12/12/12 9/9/9
f 12/12/12 13/13/13 9/9/9
f 13/13/13 14/14/14 9/9/9
f 15/15/15 13/13/13 12/12/12
f 16/16/16 12/12/12 10/10/10
f 16/16/16 15/15/15 12/12/12
f 17/17/17 16/16/16 10/10/10
f 16/16/16 17/17/17 18/18/18
f 15/15/15 16/16/16 19/19/19
f 19/19/19 16/16/16 18/18/18
f 20/20/20 15/15/15 19/19/19
f 19/19/19 18/18/18 21/21/21
f 20/20/20 19/19/19 21/21/21
f 18/18/18 22/22/22 21/21/21
f 23/23/23 20/20/20 21/21/21
f 26/26/26 25/25/25 24/24/24
f 25/25/25 27/27/27 24/24/24
f 28/28/28 24/24/24 27/27/27
f 29/29/29 28/28/28 27/27/27
f 28/28/28 29/29/29 30/30/30
f 31/31/31 28/28/28 30/30/30
f 32/32/32 24/24/24 28/28/28
f 33/33/33 28/28/28 31/31/31
f 33/33/33 32/32/32 28/28/28
f 34/34/34 33/33/33 31/31/31
f 33/33/33 34/34/34 35/35/35
f 32/32/32 33/33/33 36/36/36
f 36/36/36 33/33/33 35/35/35
f 36/36/36 35/35/35 37/37/37
f 38/38/38 36/36/36 37/37/37
f 36/36/36 38/38/38 39/39/39
f 40/40/40 32/32/32 36/36/36
f 40/40/40 36/36/36 39/39/39
f 39/39/39 41/41/41 40/40/40
f 41/41/41 42/42/42 40/40/40
f 45/45/45 44/44/44 43/43/43
f 45/45/45 43/43/43 46/46/46
f 45/45/45 46/46/46 47/47/47
f 47/47/47 48/48/48 45/45/45
f 48/48/48 49/49/49 45/45/45
f 49/49/49 50/50/50 45/45/45
