g LM2_floorRedo013
v 4.649866 6.336803 27.10755
v 4.601329 6.32024 27.15003
v 6.575802 4.253351 9.036804
v 6.618947 4.270055 9.106589
v 13.90068 6.158995 21.69733
v 13.90348 6.143932 21.61331
v 6.627388 4.254112 9.018913
v 6.594055 4.246578 8.991843
v 13.83357 6.098976 21.45876
v 13.90348 6.143932 21.61331
v 6.627388 4.254112 9.018913
v 6.6305 4.217155 8.982663
v 6.622734 -0.1723401 8.969207
v 6.6305 4.217155 8.982663
v 6.588598 4.214947 8.968738
v 6.58002 -0.2388074 8.94866
v 6.622734 -0.1723401 8.969207
v 6.588598 4.214947 8.968738
v 6.555508 -0.2863757 9.024089
v 6.58002 -0.2388074 8.94866
v 6.557215 4.21296 9.008367
v 4.584475 6.275856 27.17216
v 4.584432 0.1139905 27.17257
v 4.601329 6.32024 27.15003
v 6.575802 4.253351 9.036804
v 6.588598 4.214947 8.968738
v 6.594055 4.246578 8.991843
v 6.588598 4.214947 8.968738
v 6.6305 4.217155 8.982663
v 6.627388 4.254112 9.018913
v 6.594055 4.246578 8.991843
vt -2.042387 0.2025531
vt -2.047043 0.2035367
vt -1.266689 -0.8910896
vt -1.266431 -0.8850409
vt -1.251845 0.1879703
vt -1.248634 0.1826622
vt -1.262724 -0.8903804
vt -1.263894 -0.8933246
vt 1.221304 1.179593
vt 1.232706 1.18291
vt 0.3034947 1.182859
vt 0.3008199 1.180132
vt 0.2998279 0.7464364
vt 1.232706 0.4016009
vt 1.232543 0.4046925
vt 0.7941067 0.4053254
vt 0.7990107 0.4021739
vt 4.156332 0.4717885
vt 4.152248 0.02984187
vt 4.157814 0.03335179
vt 4.153408 0.4716421
vt 2.813287 0.4844635
vt 2.813257 0.02984187
vt 2.81492 0.4877384
vt 4.151309 0.4746222
vt 4.156332 0.4717885
vt 4.154627 0.4741225
vt -1.263411 -0.8950092
vt -1.261217 -0.8926017
vt -1.262724 -0.8903804
vt -1.263894 -0.8933246
vn -0.05775695 0.9910808 -0.1200958
vn -0.3003763 0.9433738 -0.1407837
vn -0.2978245 0.9441 -0.1413355
vn -0.05810128 0.9907869 -0.1223341
vn -0.05046363 0.9915422 -0.1195717
vn 0.04668926 0.9835278 -0.1746227
vn 0.04469943 0.9835913 -0.1747863
vn -0.07812332 0.9799095 -0.1835056
vn 0.8579469 0.08025274 -0.5074315
vn 0.6811187 0.5555012 -0.4769651
vn 0.6811187 0.5555012 -0.4769651
vn 0.8657399 0.004247685 -0.500476
vn 0.8660251 1.251481E-06 -0.5000007
vn 0.3754502 0.00282114 -0.9268383
vn 0.3754502 0.00282114 -0.9268382
vn 0.3754502 0.00282114 -0.9268382
vn 0.3754502 0.00282114 -0.9268382
vn -0.899689 0.001245843 -0.4365297
vn -0.994083 2.199356E-06 -0.1086239
vn -0.899689 0.001245842 -0.4365296
vn -0.9940253 0.00190843 -0.109134
vn -0.9941159 0.002764337 -0.1082853
vn -0.9941538 -2.206791E-07 -0.1079735
vn -0.9092405 0.3907892 -0.1434061
vn -0.9090785 0.3910259 -0.1437882
vn -0.7042214 0.5534151 -0.4447516
vn -0.7042214 0.5534151 -0.4447516
vn 0.3143886 0.615018 -0.7231269
vn 0.3143887 0.615018 -0.7231269
vn 0.3143887 0.615018 -0.7231269
vn 0.3143887 0.615018 -0.7231269
g LM2_floorRedo013_0
f 3/3/3 2/2/2 1/1/1
f 4/4/4 3/3/3 1/1/1
f 5/5/5 4/4/4 1/1/1
f 4/4/4 5/5/5 6/6/6
f 7/7/7 4/4/4 6/6/6
f 3/3/3 4/4/4 7/7/7
f 8/8/8 3/3/3 7/7/7
f 11/11/11 10/10/10 9/9/9
f 12/12/12 11/11/11 9/9/9
f 9/9/9 13/13/13 12/12/12
f 16/16/16 15/15/15 14/14/14
f 17/17/17 16/16/16 14/14/14
f 20/20/20 19/19/19 18/18/18
f 19/19/19 21/21/21 18/18/18
f 21/21/21 19/19/19 22/22/22
f 19/19/19 23/23/23 22/22/22
f 21/21/21 22/22/22 24/24/24
f 25/25/25 21/21/21 24/24/24
f 26/26/26 21/21/21 25/25/25
f 27/27/27 26/26/26 25/25/25
f 30/30/30 29/29/29 28/28/28
f 31/31/31 30/30/30 28/28/28
