g LM2_floorRedo07
v 1.922255 6.318342 18.33515
v 0.2752875 9.500354 17.37258
v 1.899053 6.285911 18.32158
v 0.3112402 9.508762 17.39359
v 1.931784 6.39633 18.34071
v 0.3583716 9.508279 17.42114
v 1.931468 9.507063 18.34053
v 1.963615 6.305593 18.36204
v 1.964708 9.507448 18.37175
v 1.923748 9.552155 18.35848
v 1.954518 9.544177 18.37858
v 1.961221 9.552414 18.41454
v 1.980743 9.507849 18.41409
v 3.836301 9.552702 32.5191
v 1.980566 6.250671 18.41275
v 1.963615 6.305593 18.36204
v 3.857038 9.506789 32.51328
v 3.855632 9.507248 32.55847
v 3.842163 9.544783 32.55577
v 3.822699 9.55303 32.58728
v 3.857418 0.08483642 32.51613
v 1.980458 6.20262 18.41195
v 3.856828 0.02605713 32.55818
v 3.856848 0.02485351 32.51186
v 1.98035 6.154572 18.41114
v 3.855468 2.441406E-06 32.50148
v 1.980013 2.441406E-06 18.4086
v 3.839153 2.929687E-05 32.60147
v 3.839757 9.507712 32.60042
v -0.1920032 0.004611816 39.50171
v -0.2085364 9.552429 39.49028
v -0.193692 9.509753 39.5018
v -0.23211 0.00463623 39.52858
v -0.2332196 9.509475 39.52806
v -0.2348675 9.544485 39.51594
v -7.144056 6.109851 13.03642
v 0.2469818 9.5382 17.3769
v -7.32896 6.078381 12.9474
v 0.2752875 9.500354 17.37258
v 1.899053 6.285911 18.32158
v 0.3112402 9.508762 17.39359
v 0.2831329 9.54927 17.39798
v 0.3240948 9.552522 17.42183
v 0.3583716 9.508279 17.42114
v 1.923748 9.552155 18.35848
v 1.931468 9.507063 18.34053
v 1.961221 9.552414 18.41454
v 3.836301 9.552702 32.5191
v 3.802662 9.570065 32.548
v 1.919659 9.570065 18.40189
v 1.923748 9.552155 18.35848
v 1.954518 9.544177 18.37858
v 0.3240948 9.552522 17.42183
v -8.082539 9.570061 31.93998
v 0.2908392 9.570065 17.45255
v 0.2533661 9.565974 17.43083
v 0.2831329 9.54927 17.39798
v 0.2469818 9.5382 17.3769
v -0.2425342 9.57007 39.46044
v 3.822699 9.55303 32.58728
v -0.2085364 9.552429 39.49028
v -0.2672864 9.552273 39.4982
v -0.2348675 9.544485 39.51594
v -8.109597 9.545647 31.97716
v -8.1155 9.565881 31.90947
v -8.133176 9.550124 31.94478
v -8.147759 9.553469 31.87966
v 0.217157 9.553835 17.40982
v -7.32896 6.078381 12.9474
v -7.425374 6.060373 12.94385
v -14.74506 6.060462 25.55034
v -14.7758 6.048132 25.51837
v -14.76937 6.041657 25.58603
v -14.80229 6.030134 25.55366
v -7.459095 6.047961 12.91582
v -14.83924 6.027277 25.51711
v -14.8082 6.043987 25.48475
v -7.494909 6.043992 12.88656
v -24.16457 6.043992 16.51206
v -24.1887 6.025945 16.54759
v -24.19766 6.025945 16.48469
v -24.21036 6.017912 16.51858
v -18.42999 6.043992 6.574004
v -18.46737 6.026023 6.551943
v -18.4084 6.039787 6.536386
v -18.44611 6.021291 6.515039
v -7.478351 6.03987 12.84328
v -18.42444 6.007527 6.477431
v -18.38762 6.027341 6.500234
v -7.463079 6.027126 12.80245
v -10.97754 2.441406E-06 -6.294258
v -11.03922 2.441406E-06 -6.302363
v -0.07345276 2.441406E-06 -0.002792969
v -18.43926 5.959651 6.467266
v -11.08858 2.441406E-06 -6.264492
v -11.03922 2.441406E-06 -6.302363
v -18.42444 6.007527 6.477431
v -18.46215 5.976614 6.506914
v -18.44611 6.021291 6.515039
v -18.46737 6.026023 6.551943
v -18.43934 2.441406E-06 6.467402
v -11.08858 2.441406E-06 -6.264492
v -18.46105 2.441406E-06 6.505019
v -18.48274 5.982634 6.542597
v -18.48276 2.441406E-06 6.542646
v -24.21277 0.0001196289 16.47505
v -24.2126 5.982175 16.47476
v -24.19766 6.025945 16.48469
v -24.22137 5.98217 16.52015
v -24.22149 0.0001220703 16.52017
v -24.21036 6.017912 16.51858
v -14.74506 6.060462 25.55034
v -8.161935 9.532688 31.92888
v -14.76937 6.041657 25.58603
v -8.147759 9.553469 31.87966
v -8.1155 9.565881 31.90947
v -8.133176 9.550124 31.94478
v -0.2786383 9.509196 39.51315
v -8.109597 9.545647 31.97716
v -0.2672864 9.552273 39.4982
v -8.139813 9.512897 31.97066
v -0.2780438 0.004641113 39.51372
v -8.161935 9.532688 31.92888
v -8.133176 9.550124 31.94478
v -14.76937 6.041657 25.58603
v -14.77043 6.002337 25.60886
v -14.80818 5.989573 25.57264
v -14.80229 6.030134 25.55366
v -14.83924 6.027277 25.51711
v -14.79949 5.986956 25.58099
v -14.85209 5.986931 25.53052
v -24.1887 6.025945 16.54759
v -24.20028 5.982175 16.5613
v -24.20053 0.0001269531 16.56105
v -24.22149 0.0001220703 16.52017
v -24.22137 5.98217 16.52015
v -24.21036 6.017912 16.51858
v -0.2332196 9.509475 39.52806
v -0.23211 0.00463623 39.52858
v -0.2780438 0.004641113 39.51372
v -0.2786383 9.509196 39.51315
v -0.2672864 9.552273 39.4982
v -0.2348675 9.544485 39.51594
v 3.836301 9.552702 32.5191
v 3.842163 9.544783 32.55577
v 3.822699 9.55303 32.58728
v 3.802662 9.570065 32.548
vt 2.848592 0.05114333
vt 2.919611 0.2859108
vt 2.849594 0.04874983
vt 2.91806 0.2865311
vt 2.848182 0.05689708
vt 2.916027 0.2864953
vt 2.848195 0.2864061
vt 2.846609 0.05020188
vt 2.845892 0.2864338
vt 2.846871 0.2897325
vt 2.845388 0.2891443
vt 2.842734 0.2897521
vt 2.842767 0.2864643
vt 1.802103 0.289773
vt 2.842867 0.04614994
vt 2.846609 0.05020188
vt 1.802533 0.2863857
vt 1.799199 0.2864195
vt 1.799398 0.2891891
vt 1.797073 0.2897974
vt 1.802322 -0.4087638
vt 2.842926 0.04260427
vt 1.79922 -0.4131003
vt 1.802639 -0.413189
vt 2.842986 0.03905953
vt 1.803403 -0.4150233
vt 2.843173 -0.4150233
vt 1.796026 -0.4150205
vt 1.796103 0.2864538
vt 1.286928 -0.414683
vt 1.287771 0.2897525
vt 1.286921 0.2866044
vt 1.284946 -0.414681
vt 1.284984 0.2865835
vt 1.285878 0.2891667
vt 1.243046 1.42256
vt 0.9901032 0.8772503
vt 1.245368 1.436201
vt 0.9928951 0.8751617
vt 1.230056 0.7553606
vt 0.9922751 0.872509
vt 0.9892863 0.874583
vt 0.9890466 0.8715604
vt 0.9923108 0.8690315
vt 0.9890735 0.7535387
vt 0.9924003 0.7529689
vt -0.9659994 0.2492711
vt -1.599567 1.086316
vt -1.59846 1.089394
vt -0.962872 0.2499714
vt -0.9615544 0.2470363
vt -0.9642608 0.2472071
vt -0.824802 0.2451248
vt -0.813508 1.482835
vt -0.8237858 0.248307
vt -0.8205904 0.2482771
vt -0.821305 0.2450851
vt -0.8182181 0.2450476
vt -1.590349 1.680248
vt -1.601175 1.091187
vt -1.593616 1.680926
vt -1.590133 1.683572
vt -1.59286 1.683531
vt -0.8131242 1.486206
vt -0.8102823 1.482076
vt -0.8104328 1.484985
vt -0.807127 1.481336
vt -0.8175018 0.2482459
vt -0.1707963 0.2364132
vt -0.164479 0.2396933
vt -0.153389 1.315156
vt -0.150253 1.314222
vt -0.1531277 1.318331
vt -0.1498365 1.317451
vt -0.1612945 0.2391218
vt -0.1461351 1.31645
vt -0.146949 1.313243
vt -0.1579312 0.2385464
vt 0.7800574 1.077798
vt 0.7803139 1.080956
vt 0.783177 1.077245
vt 0.7827587 1.079883
vt 0.7736092 0.2312803
vt 0.7768111 0.2312245
vt 0.773592 0.22808
vt 0.7767892 0.2280824
vt -0.1574192 0.2351668
vt 0.7767668 0.2248799
vt 0.7735737 0.2250039
vt -0.1569138 0.2319904
vt 0.7635229 -0.8658143
vt 0.7677768 -0.8640901
vt -0.1652603 -0.8587739
vt 1.500871 -0.9103495
vt 0.5615243 -1.350051
vt 0.5587302 -1.350051
vt 1.501621 -0.9068172
vt 1.503796 -0.9090981
vt 1.504396 -0.905802
vt 1.507119 -0.9054528
vt 1.500881 -1.350051
vt 0.5615243 -1.350051
vt 1.503657 -1.350051
vt 1.506429 -0.9086537
vt 1.506433 -1.350051
vt 2.239243 -1.350042
vt 2.239222 -0.9086877
vt 2.239955 -0.9054585
vt 2.242571 -0.9086883
vt 2.242571 -1.350042
vt 2.242455 -0.9060512
vt 2.908817 -0.9029121
vt 3.379423 -0.6467317
vt 2.91145 -0.9042991
vt 3.375792 -0.6451983
vt 3.377991 -0.6442825
vt 3.380597 -0.645445
vt 3.938989 -0.6484652
vt 3.382985 -0.6457756
vt 3.937886 -0.6452866
vt 3.382506 -0.6481918
vt 3.939032 -1.349709
vt 3.379423 -0.6467317
vt 3.380597 -0.645445
vt 2.91145 -0.9042991
vt 2.913134 -0.9072001
vt 2.910461 -0.9081419
vt 2.909061 -0.9051492
vt 2.906364 -0.9053601
vt 2.911077 -0.9083354
vt 2.907353 -0.908337
vt 2.244595 -0.9054585
vt 2.245607 -0.9086877
vt 2.245589 -1.350042
vt 2.242571 -1.350042
vt 2.242571 -0.9086883
vt 2.242455 -0.9060512
vt 1.274526 1.454234
vt 1.274608 0.7529689
vt 1.271219 0.7529699
vt 1.271175 1.454214
vt 1.272012 1.457392
vt 1.274404 1.456817
vt 1.802103 0.289773
vt 1.799398 0.2891891
vt 1.797073 0.2897974
vt 1.799972 0.2910544
vn 0.504687 2.747409E-05 -0.8633024
vn 0.5021477 0.007144225 -0.8647522
vn 0.5045882 -1.543355E-06 -0.8633601
vn 0.5041217 0.006069816 -0.8636114
vn 0.5250156 0.0001738841 -0.8510925
vn 0.5044808 0.02106622 -0.8631658
vn 0.5103059 0.01180053 -0.859912
vn 0.6291011 0.001094894 -0.7773227
vn 0.8325707 0.004919515 -0.553897
vn 0.4689604 0.3846534 -0.7950584
vn 0.7735 0.3614534 -0.5206237
vn 0.9038939 0.4103924 -0.1206396
vn 0.9912077 0.003279153 -0.1322742
vn 0.90396 0.4104451 -0.1199628
vn 0.9912423 2.515969E-07 -0.1320559
vn 0.9425825 0.0003857472 -0.3339733
vn 0.9913483 0.003302352 -0.1312153
vn 0.9791027 0.001681059 0.2033596
vn 0.9044246 0.3884261 0.1764693
vn 0.7864118 0.4136206 0.4587747
vn 0.991458 -3.032311E-06 -0.1304262
vn 0.9912601 -1.119977E-05 -0.1319218
vn 0.9564413 -0.001253434 0.2919221
vn 0.991389 -0.0008841251 -0.1309467
vn 0.9912611 1.773326E-07 -0.1319148
vn 0.9912665 -3.639077E-05 -0.1318739
vn 0.9912609 1.811169E-07 -0.1319152
vn 0.863708 7.185109E-05 0.5039927
vn 0.8638406 0.002236443 0.5037603
vn 0.8620876 7.482043E-05 0.5067592
vn 0.7854159 0.4136055 0.4604913
vn 0.8620914 0.002095646 0.5067485
vn 0.5549923 0.000100508 0.8318555
vn 0.555105 0.001291387 0.8317793
vn 0.5529281 0.3478323 0.7571546
vn 0.4833557 0.05937421 -0.8734083
vn 0.3565348 0.3357583 -0.8718653
vn 0.3564177 0.3356229 -0.8719654
vn 0.5021477 0.007144225 -0.8647522
vn 0.5045882 -1.543355E-06 -0.8633601
vn 0.5041217 0.006069816 -0.8636114
vn 0.4191529 0.3787858 -0.8251255
vn 0.4656093 0.38516 -0.7967809
vn 0.5044808 0.02106622 -0.8631658
vn 0.4689604 0.3846534 -0.7950584
vn 0.5103059 0.01180053 -0.859912
vn 0.4117773 0.9096116 -0.05519183
vn 0.4118949 0.9095976 -0.05454158
vn 0.001087791 0.9999994 0.0001111018
vn 0.0009841319 0.9999995 -0.0002309895
vn 0.2014445 0.9188566 -0.3392971
vn 0.4349903 0.8508593 -0.2946557
vn 0.1972702 0.9194096 -0.3402504
vn -0.001210479 0.999999 0.0007525893
vn -0.0003231687 0.9999999 -0.0004163508
vn -0.1619388 0.9822366 -0.09479962
vn 0.06199267 0.9102826 -0.4093197
vn -0.1250221 0.8744884 -0.468657
vn -0.0003532105 0.9999976 0.00216036
vn 0.3383598 0.9200912 0.1973451
vn 0.3363343 0.9204986 0.1989007
vn -0.29305 0.9054892 0.306938
vn 0.05311727 0.9096131 0.4120467
vn -0.2943749 0.9052291 0.3064369
vn -0.1521565 0.9845484 -0.08667623
vn -0.4225577 0.8750582 0.2360467
vn -0.3178995 0.9304694 -0.1821168
vn -0.3162884 0.9305616 -0.1844363
vn -0.1255459 0.874386 -0.4687082
vn -0.3166569 0.9305606 -0.1838079
vn -0.3177181 0.9304102 -0.182735
vn -0.1732923 0.979861 -0.09920751
vn -0.5574372 0.8200616 0.1294716
vn -0.3862655 0.9065028 0.1704447
vn -0.1500398 0.9848333 -0.08712906
vn -0.2565809 0.9289276 0.2669454
vn -0.001541791 0.9999985 0.0009112363
vn -0.000135308 0.9999999 -0.0004095311
vn -0.001590077 0.9999987 0.0002820979
vn -0.2569037 0.9288952 0.2667474
vn -0.3358611 0.9219562 -0.192858
vn -0.4862773 0.8710611 0.06918699
vn -0.0009332512 0.9999992 -0.0009068357
vn -0.3352605 0.9219746 -0.1938125
vn 0.09347218 0.9818917 -0.1647775
vn -0.2413992 0.902154 -0.3575535
vn 0.089747 0.9837422 -0.1555531
vn -0.0409082 0.89482 -0.444549
vn 0.1877149 0.9261121 -0.3272297
vn 0.188516 0.9261229 -0.3267387
vn 0.1879485 0.9260102 -0.3273842
vn -0.04058499 0.8948238 -0.444571
vn 0.1886537 0.9260105 -0.3269775
vn -0.8636733 0.01126096 -0.5039262
vn -0.6291486 0.4978329 -0.5969376
vn -0.6291486 0.4978329 -0.5969375
vn -0.6298386 0.4970843 -0.5968338
vn -0.8656615 0.003399 -0.5006182
vn -0.760105 0.3688746 -0.5349504
vn -0.8009 0.3806317 -0.4622537
vn -0.8660256 0 -0.4999997
vn -0.8660254 0 -0.5
vn -0.8660892 -3.844267E-07 -0.4998895
vn -0.8661894 0.002962325 -0.499707
vn -0.8661941 0 -0.4997077
vn -0.8668464 0 -0.4985753
vn -0.8668405 0.003017915 -0.4985763
vn -0.8014321 0.3805152 -0.461427
vn -0.9817849 0.001911464 -0.1899858
vn -0.9818289 1.889362E-05 -0.1897684
vn -0.9211176 0.32343 -0.2166456
vn -0.3177181 0.9304102 -0.182735
vn -0.5577089 0.8198516 0.1296308
vn -0.5574372 0.8200616 0.1294716
vn -0.3178995 0.9304694 -0.1821168
vn -0.1521565 0.9845484 -0.08667623
vn -0.4225577 0.8750582 0.2360467
vn -0.6895797 0.003511047 0.7242013
vn -0.629012 0.418093 0.6553946
vn -0.628107 0.4177698 0.6564679
vn -0.6925274 0.001807251 0.7213894
vn -0.6899214 0 0.7238842
vn -0.7379751 0.3608436 0.5702496
vn -0.6482255 0.5091017 0.5662324
vn -0.7379467 0.3606496 0.5704091
vn -0.6938214 0.005474005 0.7201265
vn -0.6861897 0.3581606 0.6331388
vn -0.6779968 0.3925854 0.6214474
vn -0.6352707 0.3979302 0.6618782
vn -0.6923151 -3.697834E-05 0.7215953
vn -0.6923274 0.003337273 0.7215759
vn -0.6357851 0.3977295 0.6615047
vn -0.6930269 0.00258054 0.7209072
vn -0.6929818 -7.160467E-07 0.720955
vn -0.8898417 1.802178E-05 0.4562694
vn -0.8897384 0.001911508 0.4564666
vn -0.8239116 0.3236425 0.4652153
vn -0.3098425 0.001236955 0.9507871
vn -0.3096896 2.693428E-05 0.9508377
vn -0.6899214 0 0.7238842
vn -0.6895797 0.003511047 0.7242013
vn -0.628107 0.4177698 0.6564679
vn -0.3339902 0.3455813 0.8769402
vn 0.4118949 0.9095976 -0.05454158
vn 0.5223135 0.846846 0.1002017
vn 0.3383598 0.9200912 0.1973451
vn 0.001087791 0.9999994 0.0001111018
g LM2_floorRedo07_0
f 3/3/3 2/2/2 1/1/1
f 2/2/2 4/4/4 1/1/1
f 1/1/1 4/4/4 5/5/5
f 4/4/4 6/6/6 5/5/5
f 6/6/6 7/7/7 5/5/5
f 5/5/5 7/7/7 8/8/8
f 7/7/7 9/9/9 8/8/8
f 7/7/7 10/10/10 9/9/9
f 10/10/10 11/11/11 9/9/9
f 9/9/9 11/11/11 12/12/12
f 13/13/13 9/9/9 12/12/12
f 12/12/12 14/14/14 13/13/13
f 9/9/9 13/13/13 15/15/15
f 16/16/16 9/9/9 15/15/15
f 14/14/14 17/17/17 13/13/13
f 15/15/15 13/13/13 17/17/17
f 17/17/17 14/14/14 18/18/18
f 14/14/14 19/19/19 18/18/18
f 18/18/18 19/19/19 20/20/20
f 21/21/21 15/15/15 17/17/17
f 15/15/15 21/21/21 22/22/22
f 21/21/21 17/17/17 23/23/23
f 17/17/17 18/18/18 23/23/23
f 21/21/21 24/24/24 22/22/22
f 24/24/24 21/21/21 23/23/23
f 22/22/22 24/24/24 25/25/25
f 24/24/24 26/26/26 25/25/25
f 26/26/26 27/27/27 25/25/25
f 28/28/28 26/26/26 24/24/24
f 24/24/24 23/23/23 28/28/28
f 23/23/23 18/18/18 28/28/28
f 29/29/29 18/18/18 20/20/20
f 18/18/18 29/29/29 28/28/28
f 30/30/30 28/28/28 29/29/29
f 20/20/20 31/31/31 29/29/29
f 32/32/32 30/30/30 29/29/29
f 31/31/31 32/32/32 29/29/29
f 33/33/33 30/30/30 32/32/32
f 34/34/34 33/33/33 32/32/32
f 32/32/32 31/31/31 34/34/34
f 31/31/31 35/35/35 34/34/34
f 38/38/38 37/37/37 36/36/36
f 37/37/37 39/39/39 36/36/36
f 36/36/36 39/39/39 40/40/40
f 39/39/39 37/37/37 41/41/41
f 37/37/37 42/42/42 41/41/41
f 41/41/41 42/42/42 43/43/43
f 44/44/44 41/41/41 43/43/43
f 44/44/44 43/43/43 45/45/45
f 46/46/46 44/44/44 45/45/45
f 49/49/49 48/48/48 47/47/47
f 50/50/50 49/49/49 47/47/47
f 50/50/50 47/47/47 51/51/51
f 47/47/47 52/52/52 51/51/51
f 51/51/51 53/53/53 50/50/50
f 54/54/54 49/49/49 50/50/50
f 53/53/53 55/55/55 50/50/50
f 50/50/50 55/55/55 54/54/54
f 55/55/55 53/53/53 56/56/56
f 53/53/53 57/57/57 56/56/56
f 56/56/56 57/57/57 58/58/58
f 54/54/54 59/59/59 49/49/49
f 49/49/49 59/59/59 60/60/60
f 59/59/59 61/61/61 60/60/60
f 59/59/59 62/62/62 61/61/61
f 59/59/59 54/54/54 62/62/62
f 62/62/62 63/63/63 61/61/61
f 54/54/54 64/64/64 62/62/62
f 65/65/65 54/54/54 55/55/55
f 54/54/54 65/65/65 64/64/64
f 56/56/56 65/65/65 55/55/55
f 65/65/65 66/66/66 64/64/64
f 67/67/67 65/65/65 56/56/56
f 68/68/68 56/56/56 58/58/58
f 68/68/68 67/67/67 56/56/56
f 68/68/68 58/58/58 69/69/69
f 70/70/70 68/68/68 69/69/69
f 67/67/67 68/68/68 70/70/70
f 71/71/71 67/67/67 70/70/70
f 72/72/72 71/71/71 70/70/70
f 71/71/71 72/72/72 73/73/73
f 72/72/72 74/74/74 73/73/73
f 75/75/75 72/72/72 70/70/70
f 76/76/76 74/74/74 72/72/72
f 77/77/77 72/72/72 75/75/75
f 77/77/77 76/76/76 72/72/72
f 78/78/78 77/77/77 75/75/75
f 76/76/76 77/77/77 79/79/79
f 77/77/77 78/78/78 79/79/79
f 80/80/80 76/76/76 79/79/79
f 79/79/79 81/81/81 80/80/80
f 81/81/81 82/82/82 80/80/80
f 81/81/81 79/79/79 83/83/83
f 78/78/78 83/83/83 79/79/79
f 84/84/84 81/81/81 83/83/83
f 85/85/85 83/83/83 78/78/78
f 83/83/83 85/85/85 84/84/84
f 85/85/85 86/86/86 84/84/84
f 87/87/87 85/85/85 78/78/78
f 88/88/88 86/86/86 85/85/85
f 89/89/89 85/85/85 87/87/87
f 89/89/89 88/88/88 85/85/85
f 90/90/90 89/89/89 87/87/87
f 89/89/89 91/91/91 88/88/88
f 91/91/91 89/89/89 90/90/90
f 91/91/91 92/92/92 88/88/88
f 93/93/93 91/91/91 90/90/90
f 96/96/96 95/95/95 94/94/94
f 97/97/97 96/96/96 94/94/94
f 94/94/94 98/98/98 97/97/97
f 98/98/98 99/99/99 97/97/97
f 100/100/100 99/99/99 98/98/98
f 94/94/94 101/101/101 98/98/98
f 94/94/94 102/102/102 101/101/101
f 101/101/101 103/103/103 98/98/98
f 98/98/98 103/103/103 104/104/104
f 104/104/104 100/100/100 98/98/98
f 103/103/103 105/105/105 104/104/104
f 105/105/105 106/106/106 104/104/104
f 104/104/104 107/107/107 100/100/100
f 106/106/106 107/107/107 104/104/104
f 107/107/107 108/108/108 100/100/100
f 107/107/107 106/106/106 109/109/109
f 107/107/107 109/109/109 108/108/108
f 106/106/106 110/110/110 109/109/109
f 109/109/109 111/111/111 108/108/108
f 114/114/114 113/113/113 112/112/112
f 113/113/113 115/115/115 112/112/112
f 115/115/115 113/113/113 116/116/116
f 113/113/113 117/117/117 116/116/116
f 120/120/120 119/119/119 118/118/118
f 119/119/119 121/121/121 118/118/118
f 121/121/121 122/122/122 118/118/118
f 121/121/121 119/119/119 123/123/123
f 119/119/119 124/124/124 123/123/123
f 121/121/121 123/123/123 125/125/125
f 126/126/126 121/121/121 125/125/125
f 122/122/122 121/121/121 126/126/126
f 126/126/126 125/125/125 127/127/127
f 125/125/125 128/128/128 127/127/127
f 127/127/127 128/128/128 129/129/129
f 126/126/126 127/127/127 130/130/130
f 122/122/122 126/126/126 130/130/130
f 131/131/131 127/127/127 129/129/129
f 127/127/127 131/131/131 130/130/130
f 122/122/122 130/130/130 131/131/131
f 131/131/131 129/129/129 132/132/132
f 122/122/122 131/131/131 133/133/133
f 133/133/133 131/131/131 132/132/132
f 122/122/122 133/133/133 134/134/134
f 135/135/135 134/134/134 133/133/133
f 136/136/136 135/135/135 133/133/133
f 133/133/133 132/132/132 136/136/136
f 132/132/132 137/137/137 136/136/136
f 140/140/140 139/139/139 138/138/138
f 141/141/141 140/140/140 138/138/138
f 141/141/141 138/138/138 142/142/142
f 138/138/138 143/143/143 142/142/142
f 146/146/146 145/145/145 144/144/144
f 147/147/147 146/146/146 144/144/144
