g LM2_floorPlate13
v -49.5846 -2.021059 -12.63086
v -49.5846 -2.945394 -12.41151
v 0 -2.945394 -12.41151
v 0 -2.021059 -12.63086
v 0 -1.983281 -12.62477
v -49.5846 -1.983281 -12.62477
v -49.5846 0 2.626403E-07
v 0 0.9243332 -0.2193552
v 0 0 2.626403E-07
v -49.5846 0.9243332 -0.2193552
v -49.5846 0.9553488 -0.2417673
v 0 0.9553488 -0.2417673
v -49.5846 -1.983281 -12.62477
v 0 -1.983281 -12.62477
v 0 -1.960872 -12.59376
v -49.5846 -1.960872 -12.59376
v -49.5846 0.961437 -0.2795407
v 0 0.961437 -0.2795407
v 0 0.9553488 -0.2417673
v -49.5846 0.9553488 -0.2417673
v -49.5846 0 2.626403E-07
v -49.5846 -2.945394 -12.41151
v -49.5846 -2.021059 -12.63086
v -49.5846 -1.983281 -12.62477
v -49.5846 -1.960872 -12.59376
v -49.5846 0.961437 -0.2795407
v -49.5846 0.9243332 -0.2193552
v -49.5846 0.9553488 -0.2417673
v 0 -2.021059 -12.63086
v 0 -2.945394 -12.41151
v 0 0 2.626403E-07
v 0 -1.983281 -12.62477
v 0 -1.960872 -12.59376
v 0 0.961437 -0.2795407
v 0 0.9243332 -0.2193552
v 0 0.9553488 -0.2417673
vt 1.43672 -1.974508
vt 1.33645 -1.977831
vt 1.188963 2.491594
vt 1.289233 2.494917
vt 1.293272 2.49505
vt 1.440758 -1.974374
vt 1.296674 -1.978954
vt 1.048702 2.486955
vt 1.148968 2.490282
vt 1.196408 -1.98228
vt 1.192369 -1.982414
vt 1.044663 2.486821
vt -0.5129333 -2.260263
vt -0.5252659 2.688192
vt -0.5207956 2.688241
vt -0.5084631 -2.260214
vt 0.9701254 -2.24412
vt 0.9577928 2.704335
vt 0.9622628 2.704383
vt 0.9745953 -2.244071
vt -0.8228389 1.017705
vt -0.8574468 2.290521
vt -0.7464556 2.29373
vt -0.7422857 2.292387
vt -0.7404792 2.288909
vt -0.7061422 1.02607
vt -0.7118481 1.020913
vt -0.7077575 1.022494
vt -0.8560705 1.015608
vt -0.9671421 1.011425
vt -1.017063 2.285027
vt -0.8519945 1.017226
vt -0.850421 1.02082
vt -0.8999499 2.284438
vt -0.9059912 2.289209
vt -0.9018005 2.287903
vn 0 -0.216412 -0.9763022
vn 0 -0.230899 -0.9729777
vn 0 -0.230899 -0.9729777
vn 0 -0.216412 -0.9763022
vn 0 0.5247775 -0.8512393
vn 0 0.5247775 -0.8512393
vn 0 0.2308993 0.9729776
vn 0 0.2453332 0.9694388
vn 0 0.2308993 0.9729776
vn 0 0.2453332 0.9694388
vn 0 0.8512383 0.5247795
vn 0 0.8512383 0.5247795
vn 0 0.5247775 -0.8512393
vn 0 0.5247775 -0.8512393
vn 0 0.9727107 -0.2320214
vn 0 0.9727107 -0.2320214
vn 0 0.9732435 -0.2297761
vn 0 0.9732435 -0.2297761
vn 0 0.8512383 0.5247795
vn 0 0.8512383 0.5247795
vn -1 3.675092E-07 0
vn -1 3.675091E-07 0
vn -1 3.675092E-07 0
vn -1 3.675092E-07 0
vn -1 3.675092E-07 0
vn -1 3.675092E-07 0
vn -1 3.675092E-07 0
vn -1 3.675091E-07 0
vn 1 1.225032E-06 0
vn 1 1.225032E-06 0
vn 1 1.225032E-06 0
vn 1 1.225032E-06 0
vn 1 1.225032E-06 0
vn 1 1.225032E-06 0
vn 1 1.225032E-06 0
vn 1 1.225032E-06 0
g LM2_floorPlate13_0
f 3/3/3 2/2/2 1/1/1
f 4/4/4 3/3/3 1/1/1
f 5/5/5 4/4/4 1/1/1
f 6/6/6 5/5/5 1/1/1
f 9/9/9 8/8/8 7/7/7
f 8/8/8 10/10/10 7/7/7
f 10/10/10 8/8/8 11/11/11
f 8/8/8 12/12/12 11/11/11
f 15/15/15 14/14/14 13/13/13
f 16/16/16 15/15/15 13/13/13
f 15/15/15 16/16/16 17/17/17
f 18/18/18 15/15/15 17/17/17
f 19/19/19 18/18/18 17/17/17
f 20/20/20 19/19/19 17/17/17
f 23/23/23 22/22/22 21/21/21
f 21/21/21 24/24/24 23/23/23
f 21/21/21 25/25/25 24/24/24
f 21/21/21 26/26/26 25/25/25
f 21/21/21 27/27/27 26/26/26
f 27/27/27 28/28/28 26/26/26
f 31/31/31 30/30/30 29/29/29
f 29/29/29 32/32/32 31/31/31
f 32/32/32 33/33/33 31/31/31
f 33/33/33 34/34/34 31/31/31
f 34/34/34 35/35/35 31/31/31
f 34/34/34 36/36/36 35/35/35
