g LM2_floorRedo011
v -4.649866 6.336803 27.10754
v -6.575802 4.253351 9.036799
v -4.601329 6.32024 27.15002
v -6.618947 4.270055 9.106594
v -13.90068 6.158995 21.69734
v -13.90348 6.143932 21.6133
v -6.627388 4.254112 9.018909
v -6.594055 4.246578 8.991848
v -13.83357 6.098976 21.45876
v -6.627388 4.254112 9.018909
v -13.90348 6.143932 21.6133
v -6.6305 4.217155 8.982658
v -6.622734 -0.1723401 8.969212
v -6.6305 4.217155 8.982658
v -6.622734 -0.1723401 8.969212
v -6.58002 -0.2388074 8.948654
v -6.588598 4.214947 8.968733
v -6.588598 4.214947 8.968733
v -6.58002 -0.2388074 8.948654
v -6.555508 -0.2863757 9.024094
v -6.557215 4.21296 9.008371
v -4.584475 6.275856 27.17216
v -4.584432 0.1139905 27.17256
v -4.601329 6.32024 27.15002
v -6.575802 4.253351 9.036799
v -6.588598 4.214947 8.968733
v -6.594055 4.246578 8.991848
v -6.588598 4.214947 8.968733
v -6.594055 4.246578 8.991848
v -6.627388 4.254112 9.018909
v -6.6305 4.217155 8.982658
vt -2.042387 0.2025531
vt -1.266689 -0.8910896
vt -2.047043 0.2035367
vt -1.266431 -0.8850409
vt -1.251845 0.1879703
vt -1.248634 0.1826622
vt -1.262724 -0.8903804
vt -1.263894 -0.8933246
vt 1.221304 1.179593
vt 0.3034947 1.182859
vt 1.232706 1.18291
vt 0.3008199 1.180132
vt 0.2998279 0.7464364
vt 1.232706 0.4016009
vt 0.7990107 0.4021739
vt 0.7941067 0.4053254
vt 1.232543 0.4046925
vt 4.156332 0.4717885
vt 4.157814 0.03335179
vt 4.152248 0.02984187
vt 4.153408 0.4716421
vt 2.813287 0.4844635
vt 2.813257 0.02984187
vt 2.81492 0.4877384
vt 4.151309 0.4746222
vt 4.156332 0.4717885
vt 4.154627 0.4741225
vt -1.263411 -0.8950092
vt -1.263894 -0.8933246
vt -1.262724 -0.8903804
vt -1.261217 -0.8926017
vn 0.05775599 0.9910808 -0.1200959
vn 0.2977904 0.94411 -0.1413404
vn 0.3003419 0.9433839 -0.1407887
vn 0.05810102 0.9907869 -0.1223344
vn 0.05046373 0.9915422 -0.1195718
vn -0.04664967 0.9835306 -0.1746182
vn -0.04466076 0.9835938 -0.1747815
vn 0.07812412 0.9799119 -0.1834924
vn -0.8579497 0.0802448 -0.5074278
vn -0.6811518 0.5554655 -0.4769594
vn -0.6811518 0.5554655 -0.4769594
vn -0.8657408 0.004245707 -0.5004746
vn -0.8660258 -3.955291E-07 -0.4999993
vn -0.3754928 0.002819787 -0.9268211
vn -0.3754928 0.002819787 -0.9268211
vn -0.3754928 0.002819787 -0.9268211
vn -0.3754928 0.002819786 -0.9268211
vn 0.8997103 0.001245974 -0.4364859
vn 0.8997103 0.001245974 -0.4364859
vn 0.994083 2.420285E-06 -0.1086239
vn 0.9940253 0.00190876 -0.109134
vn 0.9941159 0.002763896 -0.1082852
vn 0.9941538 0 -0.1079735
vn 0.9092644 0.3907347 -0.1434041
vn 0.9091022 0.3909715 -0.1437862
vn 0.7042382 0.5534158 -0.4447238
vn 0.7042382 0.5534158 -0.4447238
vn -0.3140647 0.615119 -0.7231818
vn -0.3140647 0.615119 -0.7231818
vn -0.3140647 0.615119 -0.7231818
vn -0.3140647 0.615119 -0.7231818
g LM2_floorRedo011_0
f 3/3/3 2/2/2 1/1/1
f 2/2/2 4/4/4 1/1/1
f 4/4/4 5/5/5 1/1/1
f 5/5/5 4/4/4 6/6/6
f 4/4/4 7/7/7 6/6/6
f 4/4/4 2/2/2 7/7/7
f 2/2/2 8/8/8 7/7/7
f 11/11/11 10/10/10 9/9/9
f 10/10/10 12/12/12 9/9/9
f 13/13/13 9/9/9 12/12/12
f 16/16/16 15/15/15 14/14/14
f 17/17/17 16/16/16 14/14/14
f 20/20/20 19/19/19 18/18/18
f 21/21/21 20/20/20 18/18/18
f 20/20/20 21/21/21 22/22/22
f 23/23/23 20/20/20 22/22/22
f 22/22/22 21/21/21 24/24/24
f 21/21/21 25/25/25 24/24/24
f 21/21/21 26/26/26 25/25/25
f 26/26/26 27/27/27 25/25/25
f 30/30/30 29/29/29 28/28/28
f 31/31/31 30/30/30 28/28/28
