g LM4_rigidWall011
v 0.4250976 2.490461 10.48722
v 0.4250976 2.430628 10.41194
v 0.3871094 2.485851 10.46315
v 0.4630847 2.485851 10.46315
v 0.4619177 6.567712 9.718283
v 0.4250976 6.572911 9.740572
v 1.392836 2.056177 8.653954
v 1.328595 2.013986 8.65626
v 1.390847 2.047195 8.611639
v 1.392844 6.136443 7.906993
v 0.4617883 7.129144 9.609916
v 0.4250976 7.134407 9.632008
v 0.4250976 7.160567 9.61139
v 0.4503406 7.161279 9.584874
v 1.392844 6.697701 7.798395
v 1.374366 6.734722 7.78891
v 1.372665 6.719054 7.750758
v 1.390958 6.127479 7.864688
v 1.39097 6.688736 7.756087
v 1.353256 6.123644 7.843954
v 1.353291 6.670018 7.738234
v 1.325248 6.686772 7.734879
v 1.352926 2.043353 8.590899
v 1.328595 2.013986 8.65626
v 0.9565479 2.046636 8.590297
v 0.9131762 2.013992 8.656282
v 0.9587158 6.12179 7.839864
v 0.910874 2.042647 8.571786
v 0.871178 2.009112 8.635775
v 0.9135095 6.117269 7.821234
v 0.9135742 6.466205 7.756764
v 0.958955 6.479403 7.773397
v 0.8957922 6.507879 7.749386
v 0.9303064 6.546041 7.761065
v 0.8534119 6.52489 7.746446
v 1.251552 6.685037 7.735914
v 0.8622778 6.572873 7.756117
v -0.003217773 6.52489 7.746446
v -0.01208374 6.572873 7.756117
v 1.326516 6.72614 7.749076
v 1.374366 6.734722 7.78891
v -0.0801123 6.546041 7.761065
v -0.04559814 6.507879 7.749386
v -0.4013574 6.685037 7.735914
v -0.1087598 6.479403 7.773397
v -0.06338134 6.466205 7.756764
v -0.1085217 6.12179 7.839864
v -0.06331543 6.117269 7.821234
v -0.1063525 2.046636 8.590297
v -0.06067871 2.042647 8.571786
v -0.06298096 2.013992 8.656282
v -0.02098389 2.009112 8.635775
v -0.4784015 2.013986 8.65626
v -0.5027319 2.043353 8.590899
v -0.540653 2.047195 8.611639
v -0.5030615 6.123644 7.843954
v -0.5030969 6.670018 7.738234
v -0.5407636 6.127479 7.864688
v -0.4750537 6.686772 7.734879
v -0.5407764 6.688736 7.756087
v -0.542641 2.056177 8.653954
v -0.4784015 2.013986 8.65626
v 0.4250976 2.430628 10.41194
v 0.3871094 2.485851 10.46315
v -0.5426489 6.136443 7.906993
v -0.5224701 6.719054 7.750758
v 0.3882764 6.567712 9.718283
v 0.4250976 2.490461 10.48722
v 0.4250976 6.572911 9.740572
v -0.5426502 6.697701 7.798395
v 0.3884057 7.129144 9.609916
v 0.4250976 7.134407 9.632008
v 0.4250976 7.160567 9.61139
v 0.3998535 7.161279 9.584874
v -0.5241718 6.734722 7.78891
v -0.4763226 6.72614 7.749076
v -0.5241718 6.734722 7.78891
v 1.32962 6.749678 7.783309
v -0.4794263 6.749678 7.783309
v 0.4250976 7.165953 9.537428
v 0.4503406 7.161279 9.584874
v 0.3998535 7.161279 9.584874
v 0.4250976 7.160567 9.61139
v -0.03145508 4.061658 -0.9503087
v -0.04465088 0.01801573 0.04321661
v -0.03159546 0.004668566 0.01294318
v 0 -0.026662 0.05724005
v -0.04465088 0.1013751 0.3751746
v 1.586914E-05 0.04675841 0.3861512
v -0.04465088 4.06596 -0.9185998
v -0.04465088 4.120579 -0.592379
v -0.0417688 2.032261 8.527247
v -0.003571777 1.997331 8.586248
v -0.02098389 2.009112 8.635775
v -0.06067871 2.042647 8.571786
v -0.04465088 4.196512 -0.9233947
v -0.03145508 4.201675 -0.9554552
v -0.04465088 6.106742 7.777054
v -0.06331543 6.117269 7.821234
v -0.04465088 4.314715 -0.8794347
v -0.03145508 4.331755 -0.9070861
v -0.04465088 4.407094 -0.79359
v -0.03145508 4.433424 -0.8126085
v -0.04465088 4.46148 -0.6748058
v -0.04465088 6.452099 7.713402
v -0.06338134 6.466205 7.756764
v -0.03145508 4.491748 -0.6852208
v -0.0314563 6.483639 7.708348
v -0.04559814 6.507879 7.749386
v 0.0004003906 4.50429 -0.6895177
v 0.0004003906 6.496748 7.706439
v -0.003217773 6.52489 7.746446
v 0.8534119 6.52489 7.746446
v 0.8497937 6.496748 7.706439
v 0.8957922 6.507879 7.749386
v 0.8816504 6.483639 7.708348
v 0.9135742 6.466205 7.756764
v 0.8497937 4.50429 -0.6895177
v 0.0004003906 4.444333 -0.8204845
v 0.8948449 6.452099 7.713402
v 0.9135095 6.117269 7.821234
v 0.0004003906 4.338819 -0.9185265
v -0.03145508 4.331755 -0.9070861
v 0.8497937 4.444333 -0.8204845
v 0.8816504 4.491748 -0.6852208
v 0.8948462 6.106742 7.777054
v 0.910874 2.042647 8.571786
v 0.0004003906 4.203819 -0.9687316
v -0.03145508 4.201675 -0.9554552
v 0.8497937 4.338819 -0.9185265
v 0.8816504 4.433424 -0.8126085
v 0.8948462 4.46148 -0.6748058
v 0.8948462 4.120579 -0.592379
v 0.8919629 2.032261 8.527247
v 0.871178 2.009112 8.635775
v 0.8537658 1.997331 8.586248
v 0.8501782 0.04675841 0.3861512
v 0.8948462 4.407094 -0.79359
v 0.8948462 0.1013751 0.3751746
v 0.8501941 -0.026662 0.05724005
v 0.8816504 4.331755 -0.9070861
v 0.8816504 4.331755 -0.9070861
v 0.8497937 4.203819 -0.9687316
v 0.8816504 4.201675 -0.9554552
v 0.8948462 4.314715 -0.8794347
v 0.8816504 4.201675 -0.9554552
v 0.8948462 4.196512 -0.9233947
v 0.8816504 4.061658 -0.9503087
v 0.8948462 4.06596 -0.9185998
v 0.8948449 0.01801573 0.04321661
v 0.8817895 0.004668566 0.01294318
v 0.8497937 4.059872 -0.9634582
v 0.8816504 4.061658 -0.9503087
v 0.0004003906 4.059872 -0.9634582
v -0.03145508 4.061658 -0.9503087
v 0 -1.843633E-06 -1.158488E-06
v -0.03159546 0.004668566 0.01294318
v 0 -0.026662 0.05724005
v 0.8501941 -0.026662 0.05724005
v 0.8501941 -1.843633E-06 -1.158488E-06
v 0.8817895 0.004668566 0.01294318
vt 0.4411671 0.302021
vt 0.4458054 0.2998247
vt 0.4420289 0.2997673
vt 0.4427415 0.3025508
vt 0.4431651 0.6003738
vt 0.4415244 0.6004575
vt 0.5757459 0.2952068
vt 0.5761198 0.2921969
vt 0.5788324 0.295108
vt 0.5766059 0.5929503
vt 0.4436781 0.6414134
vt 0.4420507 0.6415042
vt 0.4431742 0.6436144
vt 0.4450384 0.644002
vt 0.5771376 0.6339805
vt 0.5773365 0.6367164
vt 0.5807737 0.6362316
vt 0.5797789 0.5928523
vt 0.5801162 0.6338939
vt 0.5825596 0.5929159
vt 0.582697 0.6328803
vt 0.5847183 0.6345357
vt 0.5815414 0.2951713
vt 0.5832791 0.2920269
vt 0.610032 0.2953113
vt 0.6131375 0.2919225
vt 0.6109171 0.592755
vt 0.613315 0.2953283
vt 0.6161562 0.291911
vt 0.6141664 0.5927365
vt 0.6142508 0.6182089
vt 0.6109914 0.6188669
vt 0.6155396 0.6212412
vt 0.6130675 0.6237245
vt 0.61859 0.6224689
vt 0.5900151 0.6344699
vt 0.6179639 0.625666
vt 0.6801607 0.6222534
vt 0.6808091 0.6254461
vt 0.5846344 0.6366181
vt 0.5812055 0.639558
vt 0.6856919 0.6234704
vt 0.6832024 0.6210043
vt 0.7088189 0.6340541
vt 0.6877339 0.6185983
vt 0.6844699 0.6179631
vt 0.6876254 0.5924866
vt 0.6843762 0.5924908
vt 0.6864285 0.295044
vt 0.6831458 0.2950839
vt 0.6832995 0.2916769
vt 0.6802809 0.2916866
vt 0.713158 0.2915725
vt 0.7149177 0.2947045
vt 0.7176261 0.2946222
vt 0.7159834 0.5924489
vt 0.7161258 0.6324134
vt 0.7187635 0.5923659
vt 0.714116 0.6340829
vt 0.7187135 0.6334088
vt 0.7207133 0.2946995
vt 0.7203184 0.2916923
vt 0.8496909 0.2978848
vt 0.8540336 0.3011042
vt 0.7219372 0.5924417
vt 0.7178917 0.6357979
vt 0.8554267 0.5989312
vt 0.8557932 0.3011112
vt 0.8570681 0.5990034
vt 0.7216926 0.6334746
vt 0.8552008 0.6399734
vt 0.8568289 0.6400528
vt 0.8557201 0.6421708
vt 0.8538587 0.6425714
vt 0.7215129 0.636212
vt 0.7142144 0.6361647
vt 0.717664 0.6390805
vt 0.5844212 0.6394032
vt 0.7144473 0.6389482
vt 0.6498877 0.7687558
vt 0.6480846 0.7720024
vt 0.6517134 0.7719898
vt 0.6499054 0.7738386
vt 0.1170224 0.001992077
vt 0.4158943 0.004361391
vt 0.416325 0.002025664
vt 0.4192472 0.004600465
vt 0.4155744 0.02892655
vt 0.4195707 0.02878773
vt 0.1172476 0.004277617
vt 0.1188399 0.02796629
vt 0.4158323 0.6302643
vt 0.41925 0.633806
vt 0.4192479 0.6374601
vt 0.4158452 0.6335468
vt 0.1080505 0.006106764
vt 0.1071585 0.003953248
vt 0.1188399 0.6454004
vt 0.1188369 0.6486604
vt 0.1005239 0.01113644
vt 0.09887552 0.00948754
vt 0.09549487 0.01866242
vt 0.09235984 0.01777083
vt 0.09366524 0.02785996
vt 0.09366524 0.6466787
vt 0.09339881 0.6499408
vt 0.09137881 0.02763399
vt 0.09137881 0.6468487
vt 0.09137988 0.6501162
vt 0.08909214 0.02754161
vt 0.08909214 0.6469327
vt 0.08935189 0.6501929
vt 0.02786386 0.6501929
vt 0.02812356 0.6469327
vt 0.02583569 0.6501163
vt 0.02583694 0.6468487
vt 0.02381694 0.6499409
vt 0.02812356 0.02754161
vt 0.08909214 0.01740161
vt 0.02355027 0.6466786
vt -0.001621366 0.6486605
vt 0.08909214 0.008805603
vt 0.09137881 0.00948748
vt 0.02812356 0.01740161
vt 0.02583694 0.02763401
vt -0.001624346 0.6454005
vt -0.2986296 0.6335471
vt 0.09000053 0.003275553
vt 0.0923553 0.003525505
vt 0.02812356 0.008805603
vt 0.02485579 0.01777082
vt 0.02355027 0.02785993
vt -0.001624346 0.02796629
vt -0.2986168 0.6302643
vt -0.3020323 0.6374604
vt -0.3020345 0.6338058
vt -0.3023551 0.02878771
vt 0.02172071 0.01866242
vt -0.2983589 0.0289265
vt -0.3020315 0.004600441
vt 0.02583694 0.00948748
vt 0.01833999 0.009487534
vt 0.02721519 0.003275553
vt 0.0248604 0.003525506
vt 0.01669186 0.01113643
vt 0.01005703 0.003953262
vt 0.009165108 0.006106778
vt 0.000193119 0.001992091
vt -3.20673E-05 0.004277609
vt -0.2986787 0.004361329
vt -0.2991094 0.00202565
vt 0.02630682 -0.007255326
vt 0.02388386 -0.007354031
vt 0.09090892 -0.007255326
vt 0.09333179 -0.007354031
vt 0.09093935 -0.3246123
vt 0.09334249 -0.3244939
vt 0.09093935 -0.3275902
vt 0.02627636 -0.3275902
vt 0.02627636 -0.3246123
vt 0.02387331 -0.3244939
vn -1.212306E-05 0.172886 0.9849418
vn 1.196088E-06 -0.8633633 0.5045829
vn -0.8892196 0.07290706 0.4516338
vn 0.8892195 0.07290731 0.4516338
vn 0.8891345 0.08297785 0.4500605
vn -1.214079E-05 0.1810159 0.9834802
vn 0.8984893 0.06734987 0.4337981
vn 0.452562 -0.8345073 0.3143012
vn 0.8479991 -0.1017554 -0.5201379
vn 0.8984533 0.07956534 0.4317997
vn 0.8894293 0.112099 0.4431132
vn -1.116988E-05 0.2154828 0.9765077
vn -3.782207E-06 0.7934195 0.6086752
vn 0.6708621 0.7193369 0.1802735
vn 0.8986637 0.1084884 0.4250102
vn 0.652915 0.7425525 0.1493911
vn 0.4584945 0.5430389 -0.7034853
vn 0.8532245 -0.09454917 -0.5129021
vn 0.8817343 -0.06018462 -0.4678913
vn 0.0548734 -0.1809712 -0.9819564
vn 0.0936859 -0.1825856 -0.9787162
vn 0.0121528 -0.1216818 -0.9924947
vn 0.05358994 -0.1913476 -0.9800583
vn 0.452562 -0.8345073 0.3143012
vn 0.0478374 -0.1988362 -0.9788644
vn 0.04046322 -0.9110908 -0.4102149
vn 0.04680454 -0.181058 -0.982358
vn 0.7149201 -0.146007 -0.6837917
vn 0.4026432 -0.8901405 -0.213374
vn 0.7030592 -0.1292699 -0.6992832
vn 0.6655147 -0.1052641 -0.7389246
vn 0.03126708 -0.1850981 -0.9822224
vn 0.3899128 0.2418545 -0.8885238
vn 0.02232402 -0.1543655 -0.9877615
vn 0.01269241 0.5125898 -0.8585398
vn -0.0003700565 0.1686169 -0.9856817
vn 0.001113458 -0.1295626 -0.9915706
vn -0.01269133 0.5125901 -0.8585396
vn -0.001113297 -0.1295626 -0.9915706
vn 0.005206605 0.7189263 -0.6950668
vn 0.652915 0.7425525 0.1493911
vn -0.0223247 -0.1543648 -0.9877616
vn -0.389906 0.2418686 -0.8885229
vn 0.0003693324 0.1686166 -0.9856817
vn -0.03126811 -0.185098 -0.9822224
vn -0.6655119 -0.1052647 -0.7389271
vn -0.04680894 -0.181059 -0.9823576
vn -0.7030677 -0.1292663 -0.6992754
vn -0.04784229 -0.1988374 -0.9788641
vn -0.7149295 -0.1460021 -0.683783
vn -0.04046717 -0.9110929 -0.4102098
vn -0.4026582 -0.8901327 -0.2133776
vn -0.4525589 -0.8345069 0.3143067
vn -0.05359188 -0.1913479 -0.9800582
vn -0.8480027 -0.101756 -0.5201319
vn -0.05487511 -0.1809714 -0.9819563
vn -0.09368405 -0.1825864 -0.9787163
vn -0.8532278 -0.09455042 -0.5128962
vn -0.01215329 -0.121682 -0.9924947
vn -0.8817362 -0.06018714 -0.4678876
vn -0.8984895 0.06734939 0.4337979
vn -0.4525589 -0.8345069 0.3143067
vn 1.196088E-06 -0.8633633 0.5045829
vn -0.8892196 0.07290706 0.4516338
vn -0.8984535 0.07956514 0.4317994
vn -0.458497 0.543045 -0.7034789
vn -0.8891346 0.08297787 0.4500602
vn -1.212306E-05 0.172886 0.9849418
vn -1.214079E-05 0.1810159 0.9834802
vn -0.8986641 0.1084858 0.4250102
vn -0.8894296 0.1120965 0.4431132
vn -1.116988E-05 0.2154828 0.9765077
vn -3.782207E-06 0.7934195 0.6086752
vn -0.6708784 0.719322 0.1802725
vn -0.6529317 0.7425379 0.1493912
vn -0.005206337 0.7189264 -0.6950668
vn -0.6529317 0.7425379 0.1493912
vn 0.02739099 0.9711302 -0.2369726
vn -0.0273913 0.9711301 -0.236973
vn -1.001294E-07 0.9799997 -0.1989992
vn 0.6708621 0.7193369 0.1802735
vn -0.6708784 0.719322 0.1802725
vn -3.782207E-06 0.7934195 0.6086752
vn -0.7006038 -0.1603704 -0.6952954
vn -0.999184 -0.01868215 -0.03581068
vn -0.6926503 -0.1714518 -0.7005996
vn -0.2640564 -0.9246215 -0.2744984
vn -0.9999471 -0.009973367 0.002532348
vn -0.7789354 -0.6101596 0.1447927
vn -0.9992094 -0.008946023 -0.03873627
vn -1 -0.0002690724 0.0002183866
vn -0.9999034 -0.0138327 0.001339106
vn -0.7780476 -0.6120249 0.14166
vn -0.4026582 -0.8901327 -0.2133776
vn -0.7149295 -0.1460021 -0.683783
vn -0.996608 0.01290889 -0.08127697
vn -0.6803342 0.1158645 -0.7236855
vn -0.9999976 -0.0007006322 -0.002058507
vn -0.7030677 -0.1292663 -0.6992754
vn -0.9966903 0.04265507 -0.0692018
vn -0.6790417 0.3851711 -0.6249365
vn -0.9967835 0.06505962 -0.04679715
vn -0.6803762 0.5944016 -0.4286899
vn -0.9993258 0.03569783 -0.008585345
vn -0.9993085 0.0355393 -0.01093392
vn -0.6655119 -0.1052647 -0.7389271
vn -0.6947762 0.6992684 -0.1682554
vn -0.6973367 0.6966764 -0.168415
vn -0.389906 0.2418686 -0.8885229
vn -0.01462877 0.9721293 -0.2339883
vn -0.01467102 0.9723574 -0.2330363
vn -0.01269133 0.5125901 -0.8585396
vn 0.01269241 0.5125898 -0.8585398
vn 0.01467116 0.9723574 -0.2330362
vn 0.3899128 0.2418545 -0.8885238
vn 0.6973208 0.6966923 -0.1684147
vn 0.6655147 -0.1052641 -0.7389246
vn 0.01462892 0.9721295 -0.2339881
vn -0.01432589 0.8104752 -0.5855978
vn 0.9993085 0.03553861 -0.01093408
vn 0.7030592 -0.1292699 -0.6992832
vn -0.01428966 0.524658 -0.8511932
vn -0.6790417 0.3851711 -0.6249365
vn 0.01432646 0.8104751 -0.5855979
vn 0.6947604 0.6992841 -0.1682555
vn 0.9999976 -0.0007010123 -0.002058525
vn 0.7149201 -0.146007 -0.6837917
vn -0.01432674 0.1589943 -0.9871755
vn -0.6803342 0.1158645 -0.7236855
vn 0.01429049 0.524658 -0.8511932
vn 0.6803666 0.5944043 -0.4287013
vn 0.9993258 0.03569708 -0.008585686
vn 1 -0.0002693457 0.0002183897
vn 0.9999034 -0.01383253 0.001339165
vn 0.4026432 -0.8901405 -0.213374
vn 0.778055 -0.6120147 0.1416635
vn 0.7789421 -0.6101503 0.1447962
vn 0.9967831 0.06506217 -0.04679939
vn 0.9999471 -0.00997323 0.002532416
vn 0.2640516 -0.9246239 -0.2744946
vn 0.6790329 0.3851752 -0.6249436
vn 0.6790329 0.3851752 -0.6249436
vn 0.01432665 0.1589944 -0.9871755
vn 0.6803185 0.1158705 -0.7236995
vn 0.9966902 0.04265948 -0.06920231
vn 0.6803185 0.1158705 -0.7236995
vn 0.996608 0.01291214 -0.08127628
vn 0.7006057 -0.160369 -0.6952938
vn 0.9992093 -0.008946452 -0.03873935
vn 0.9991838 -0.01868328 -0.0358138
vn 0.6926531 -0.17145 -0.7005972
vn 0.014878 -0.2245366 -0.9743521
vn 0.7006057 -0.160369 -0.6952938
vn -0.01487687 -0.2245369 -0.9743521
vn -0.7006038 -0.1603704 -0.6952954
vn -0.01474707 -0.2420775 -0.9701449
vn -0.6926503 -0.1714518 -0.7005996
vn -0.2640564 -0.9246215 -0.2744984
vn 0.2640516 -0.9246239 -0.2744946
vn 0.01474824 -0.2420772 -0.9701449
vn 0.6926531 -0.17145 -0.7005972
g LM4_rigidWall011_0
f 3/3/3 2/2/2 1/1/1
f 2/2/2 4/4/4 1/1/1
f 1/1/1 4/4/4 5/5/5
f 6/6/6 1/1/1 5/5/5
f 4/4/4 2/2/2 7/7/7
f 2/2/2 8/8/8 7/7/7
f 7/7/7 8/8/8 9/9/9
f 4/4/4 7/7/7 10/10/10
f 5/5/5 4/4/4 10/10/10
f 6/6/6 5/5/5 11/11/11
f 12/12/12 6/6/6 11/11/11
f 13/13/13 12/12/12 11/11/11
f 14/14/14 13/13/13 11/11/11
f 11/11/11 5/5/5 15/15/15
f 11/11/11 15/15/15 14/14/14
f 5/5/5 10/10/10 15/15/15
f 15/15/15 16/16/16 14/14/14
f 16/16/16 15/15/15 17/17/17
f 10/10/10 7/7/7 18/18/18
f 7/7/7 9/9/9 18/18/18
f 15/15/15 10/10/10 19/19/19
f 15/15/15 19/19/19 17/17/17
f 10/10/10 18/18/18 19/19/19
f 18/18/18 9/9/9 20/20/20
f 19/19/19 18/18/18 21/21/21
f 18/18/18 20/20/20 21/21/21
f 17/17/17 19/19/19 22/22/22
f 19/19/19 21/21/21 22/22/22
f 9/9/9 23/23/23 20/20/20
f 23/23/23 9/9/9 24/24/24
f 25/25/25 23/23/23 24/24/24
f 26/26/26 25/25/25 24/24/24
f 20/20/20 23/23/23 27/27/27
f 23/23/23 25/25/25 27/27/27
f 28/28/28 25/25/25 26/26/26
f 29/29/29 28/28/28 26/26/26
f 28/28/28 30/30/30 25/25/25
f 30/30/30 27/27/27 25/25/25
f 27/27/27 30/30/30 31/31/31
f 20/20/20 27/27/27 32/32/32
f 32/32/32 27/27/27 31/31/31
f 21/21/21 20/20/20 32/32/32
f 31/31/31 33/33/33 32/32/32
f 21/21/21 32/32/32 34/34/34
f 33/33/33 34/34/34 32/32/32
f 22/22/22 21/21/21 34/34/34
f 33/33/33 35/35/35 34/34/34
f 22/22/22 34/34/34 36/36/36
f 17/17/17 22/22/22 36/36/36
f 35/35/35 37/37/37 34/34/34
f 34/34/34 37/37/37 36/36/36
f 37/37/37 35/35/35 38/38/38
f 39/39/39 37/37/37 38/38/38
f 36/36/36 37/37/37 39/39/39
f 40/40/40 17/17/17 36/36/36
f 41/41/41 17/17/17 40/40/40
f 39/39/39 38/38/38 42/42/42
f 38/38/38 43/43/43 42/42/42
f 44/44/44 36/36/36 39/39/39
f 40/40/40 36/36/36 44/44/44
f 39/39/39 42/42/42 44/44/44
f 42/42/42 43/43/43 45/45/45
f 43/43/43 46/46/46 45/45/45
f 47/47/47 45/45/45 46/46/46
f 48/48/48 47/47/47 46/46/46
f 47/47/47 48/48/48 49/49/49
f 48/48/48 50/50/50 49/49/49
f 49/49/49 50/50/50 51/51/51
f 50/50/50 52/52/52 51/51/51
f 49/49/49 51/51/51 53/53/53
f 54/54/54 49/49/49 53/53/53
f 49/49/49 54/54/54 47/47/47
f 55/55/55 54/54/54 53/53/53
f 54/54/54 56/56/56 47/47/47
f 47/47/47 56/56/56 45/45/45
f 54/54/54 55/55/55 56/56/56
f 45/45/45 57/57/57 42/42/42
f 56/56/56 57/57/57 45/45/45
f 55/55/55 58/58/58 56/56/56
f 56/56/56 58/58/58 57/57/57
f 57/57/57 59/59/59 42/42/42
f 42/42/42 59/59/59 44/44/44
f 57/57/57 60/60/60 59/59/59
f 58/58/58 60/60/60 57/57/57
f 55/55/55 61/61/61 58/58/58
f 62/62/62 61/61/61 55/55/55
f 62/62/62 63/63/63 61/61/61
f 63/63/63 64/64/64 61/61/61
f 61/61/61 65/65/65 58/58/58
f 61/61/61 64/64/64 65/65/65
f 58/58/58 65/65/65 60/60/60
f 59/59/59 66/66/66 44/44/44
f 60/60/60 66/66/66 59/59/59
f 64/64/64 67/67/67 65/65/65
f 64/64/64 68/68/68 67/67/67
f 68/68/68 69/69/69 67/67/67
f 65/65/65 70/70/70 60/60/60
f 65/65/65 67/67/67 70/70/70
f 60/60/60 70/70/70 66/66/66
f 67/67/67 69/69/69 71/71/71
f 67/67/67 71/71/71 70/70/70
f 69/69/69 72/72/72 71/71/71
f 72/72/72 73/73/73 71/71/71
f 73/73/73 74/74/74 71/71/71
f 70/70/70 71/71/71 74/74/74
f 75/75/75 70/70/70 74/74/74
f 70/70/70 75/75/75 66/66/66
f 66/66/66 76/76/76 44/44/44
f 76/76/76 40/40/40 44/44/44
f 66/66/66 77/77/77 76/76/76
f 78/78/78 40/40/40 76/76/76
f 78/78/78 41/41/41 40/40/40
f 77/77/77 79/79/79 76/76/76
f 79/79/79 78/78/78 76/76/76
f 41/41/41 78/78/78 80/80/80
f 80/80/80 78/78/78 79/79/79
f 79/79/79 77/77/77 80/80/80
f 81/81/81 41/41/41 80/80/80
f 77/77/77 82/82/82 80/80/80
f 83/83/83 81/81/81 80/80/80
f 82/82/82 83/83/83 80/80/80
f 86/86/86 85/85/85 84/84/84
f 87/87/87 85/85/85 86/86/86
f 85/85/85 87/87/87 88/88/88
f 87/87/87 89/89/89 88/88/88
f 85/85/85 90/90/90 84/84/84
f 85/85/85 88/88/88 90/90/90
f 88/88/88 91/91/91 90/90/90
f 88/88/88 89/89/89 92/92/92
f 91/91/91 88/88/88 92/92/92
f 89/89/89 93/93/93 92/92/92
f 92/92/92 93/93/93 94/94/94
f 95/95/95 92/92/92 94/94/94
f 90/90/90 96/96/96 84/84/84
f 90/90/90 91/91/91 96/96/96
f 96/96/96 97/97/97 84/84/84
f 98/98/98 92/92/92 95/95/95
f 98/98/98 91/91/91 92/92/92
f 99/99/99 98/98/98 95/95/95
f 96/96/96 100/100/100 97/97/97
f 96/96/96 91/91/91 100/100/100
f 100/100/100 101/101/101 97/97/97
f 100/100/100 102/102/102 101/101/101
f 91/91/91 102/102/102 100/100/100
f 102/102/102 103/103/103 101/101/101
f 104/104/104 91/91/91 98/98/98
f 104/104/104 102/102/102 91/91/91
f 98/98/98 99/99/99 105/105/105
f 105/105/105 104/104/104 98/98/98
f 99/99/99 106/106/106 105/105/105
f 102/102/102 104/104/104 107/107/107
f 107/107/107 104/104/104 105/105/105
f 103/103/103 102/102/102 107/107/107
f 108/108/108 105/105/105 106/106/106
f 108/108/108 107/107/107 105/105/105
f 109/109/109 108/108/108 106/106/106
f 110/110/110 107/107/107 108/108/108
f 103/103/103 107/107/107 110/110/110
f 111/111/111 108/108/108 109/109/109
f 111/111/111 110/110/110 108/108/108
f 112/112/112 111/111/111 109/109/109
f 112/112/112 113/113/113 111/111/111
f 113/113/113 114/114/114 111/111/111
f 111/111/111 114/114/114 110/110/110
f 114/114/114 113/113/113 115/115/115
f 116/116/116 114/114/114 115/115/115
f 116/116/116 115/115/115 117/117/117
f 114/114/114 118/118/118 110/110/110
f 118/118/118 114/114/114 116/116/116
f 119/119/119 103/103/103 110/110/110
f 110/110/110 118/118/118 119/119/119
f 120/120/120 116/116/116 117/117/117
f 117/117/117 121/121/121 120/120/120
f 103/103/103 119/119/119 122/122/122
f 123/123/123 103/103/103 122/122/122
f 118/118/118 124/124/124 119/119/119
f 119/119/119 124/124/124 122/122/122
f 125/125/125 118/118/118 116/116/116
f 125/125/125 116/116/116 120/120/120
f 121/121/121 126/126/126 120/120/120
f 126/126/126 121/121/121 127/127/127
f 123/123/123 122/122/122 128/128/128
f 129/129/129 123/123/123 128/128/128
f 124/124/124 130/130/130 122/122/122
f 122/122/122 130/130/130 128/128/128
f 131/131/131 124/124/124 118/118/118
f 125/125/125 131/131/131 118/118/118
f 124/124/124 131/131/131 130/130/130
f 132/132/132 125/125/125 120/120/120
f 132/132/132 120/120/120 126/126/126
f 133/133/133 132/132/132 126/126/126
f 134/134/134 126/126/126 127/127/127
f 133/133/133 126/126/126 134/134/134
f 134/134/134 127/127/127 135/135/135
f 136/136/136 134/134/134 135/135/135
f 136/136/136 137/137/137 134/134/134
f 132/132/132 138/138/138 125/125/125
f 138/138/138 131/131/131 125/125/125
f 138/138/138 132/132/132 133/133/133
f 137/137/137 139/139/139 134/134/134
f 139/139/139 133/133/133 134/134/134
f 137/137/137 140/140/140 139/139/139
f 131/131/131 141/141/141 130/130/130
f 131/131/131 138/138/138 142/142/142
f 130/130/130 141/141/141 143/143/143
f 130/130/130 143/143/143 128/128/128
f 141/141/141 144/144/144 143/143/143
f 138/138/138 145/145/145 142/142/142
f 138/138/138 133/133/133 145/145/145
f 142/142/142 145/145/145 146/146/146
f 145/145/145 147/147/147 146/146/146
f 133/133/133 147/147/147 145/145/145
f 146/146/146 147/147/147 148/148/148
f 133/133/133 149/149/149 147/147/147
f 147/147/147 149/149/149 148/148/148
f 133/133/133 139/139/139 149/149/149
f 149/149/149 150/150/150 148/148/148
f 139/139/139 150/150/150 149/149/149
f 150/150/150 151/151/151 148/148/148
f 140/140/140 150/150/150 139/139/139
f 150/150/150 140/140/140 151/151/151
f 143/143/143 144/144/144 152/152/152
f 144/144/144 153/153/153 152/152/152
f 143/143/143 152/152/152 154/154/154
f 128/128/128 143/143/143 154/154/154
f 129/129/129 128/128/128 154/154/154
f 155/155/155 129/129/129 154/154/154
f 155/155/155 154/154/154 156/156/156
f 154/154/154 152/152/152 156/156/156
f 157/157/157 155/155/155 156/156/156
f 157/157/157 156/156/156 158/158/158
f 158/158/158 156/156/156 159/159/159
f 152/152/152 153/153/153 160/160/160
f 152/152/152 160/160/160 156/156/156
f 156/156/156 160/160/160 159/159/159
f 153/153/153 161/161/161 160/160/160
f 160/160/160 161/161/161 159/159/159
