g LM4_PrismObstacle_04
v 1.870514 -3.144371 1.762232
v -0.04046214 -1.264853 5.115878
v -0.002005114 -1.193061 5.145139
v 1.934306 -3.098418 1.744007
v 1.934306 -0.03953347 0.02968597
v 1.895182 -0.07103981 -0.02882599
v 1.893478 -3.130903 1.686044
v 1.870514 -3.144371 1.762232
v -0.003433337 1.869946 3.431739
v -0.07891917 -1.193061 5.145139
v -0.07749096 1.869946 3.431739
v -0.04046214 -1.264853 5.115878
v 1.893478 -3.130903 1.686044
v -7.198373E-07 -3.144371 1.762232
v 1.870514 -3.144371 1.762232
v -0.02466869 -3.131881 1.686592
v -0.02296459 -0.07201637 -0.0282779
v 1.895182 -0.07103981 -0.02882599
v -0.06379222 -0.03953347 0.02968597
v -0.06379222 -3.098418 1.744007
v -7.198373E-07 -3.144371 1.762232
v 1.870514 -9.970997E-07 -9.194117E-07
v 1.934306 -0.03953347 0.02968597
v -7.198373E-07 -9.970997E-07 -9.194117E-07
v -0.06379222 -0.03953347 0.02968597
v -0.07749096 1.869946 3.431739
v -0.04046214 1.879518 3.353647
v -0.003433337 1.869946 3.431739
v -0.06379222 -3.098418 1.744007
v -0.04046214 -1.264853 5.115878
v -7.198373E-07 -3.144371 1.762232
v -0.07891917 -1.193061 5.145139
v -0.07749096 1.869946 3.431739
v -0.06379222 -0.03953347 0.02968597
v -7.198373E-07 -3.207793 1.649069
v -0.04046214 -5.087309 -1.704574
v -0.07891917 -5.074797 -1.781085
v -0.06379222 -3.16826 1.619386
v -0.06379222 -0.109376 -0.09493621
v -0.02466869 -0.07591286 -0.03752228
v -0.02296459 -3.135776 1.677348
v -7.198373E-07 -3.207793 1.649069
v -0.07749096 -2.014546 -3.499405
v -0.002005114 -5.074797 -1.781085
v -0.003433337 -2.014546 -3.499405
v -0.04046214 -5.087309 -1.704574
v -0.02296459 -3.135776 1.677348
v 1.870514 -3.207793 1.649069
v -7.198373E-07 -3.207793 1.649069
v 1.895182 -3.136753 1.677896
v 1.893478 -0.07689186 -0.03697418
v -0.02466869 -0.07591286 -0.03752228
v 1.934306 -0.109376 -0.09493621
v 1.934306 -3.16826 1.619386
v 1.870514 -3.207793 1.649069
v -7.198373E-07 -0.06342018 -0.1131619
v -0.06379222 -0.109376 -0.09493621
v 1.870514 -0.06342018 -0.1131619
v 1.934306 -0.109376 -0.09493621
v -0.003433337 -2.014546 -3.499405
v -0.04046214 -1.942939 -3.466806
v -0.07749096 -2.014546 -3.499405
v 1.934306 -3.16826 1.619386
v -0.04046214 -5.087309 -1.704574
v 1.870514 -3.207793 1.649069
v -0.002005114 -5.074797 -1.781085
v -0.003433337 -2.014546 -3.499405
v 1.934306 -0.109376 -0.09493621
vt 0.985325 0.003978
vt 0.502785 0.003978
vt 0.497305 0.015109
vt 0.986732 0.015109
vt 0.986732 0.497533
vt 0.995448 0.497533
vt 0.995448 0.015109
vt 0.992233 0.00616
vt 0.497305 0.497533
vt 0.488821 0.015109
vt 0.488821 0.497533
vt 0.494286 0.00265
vt 0.979105 0.513117
vt 0.987035 0.985809
vt 0.987035 0.517207
vt 0.979105 0.98756
vt 0.536798 0.986926
vt 0.536418 0.513118
vt 0.536793 0.99645
vt 0.979105 0.997068
vt 0.985339 0.993666
vt 0.527466 0.517311
vt 0.526673 0.506718
vt 0.527814 0.982931
vt 0.527033 0.993516
vt 0.08799 0.757141
vt 0.096952 0.751127
vt 0.087952 0.745163
vt 0.004552 0.015109
vt 0.488821 0.005142
vt 0.004552 0.005142
vt 0.488821 0.015109
vt 0.488821 0.497533
vt 0.004552 0.497532
vt 0.985325 0.003978
vt 0.502785 0.003978
vt 0.497305 0.015109
vt 0.986732 0.015109
vt 0.986732 0.497533
vt 0.995448 0.497533
vt 0.995448 0.015109
vt 0.992233 0.00616
vt 0.497305 0.497533
vt 0.488821 0.015109
vt 0.488821 0.497533
vt 0.494286 0.00265
vt 0.979105 0.513117
vt 0.987035 0.985809
vt 0.987035 0.517207
vt 0.979105 0.98756
vt 0.536798 0.986926
vt 0.536418 0.513118
vt 0.536793 0.99645
vt 0.979105 0.997068
vt 0.985339 0.993666
vt 0.527466 0.517311
vt 0.526673 0.506718
vt 0.527814 0.982931
vt 0.527033 0.993516
vt 0.08799 0.757141
vt 0.096952 0.751127
vt 0.087952 0.745163
vt 0.004552 0.015109
vt 0.488821 0.005142
vt 0.004552 0.005142
vt 0.488821 0.015109
vt 0.488821 0.497533
vt 0.004552 0.497532
vn 0.4483477 -0.7785943 0.4390619
vn -0.06291915 -0.7654673 0.6403913
vn 0.8886208 0.2134861 0.4059269
vn 0.901994 0.1988546 0.3832281
vn 0.9020515 0.2230267 0.369543
vn 0.03342278 -0.4769821 -0.8782774
vn 0.03367216 -0.5003633 -0.8651606
vn 0.4483477 -0.7785943 0.4390619
vn 0.8886113 0.2344745 0.3941976
vn -0.9998529 0.001393203 0.01709176
vn -0.9998529 0.01380583 0.01018161
vn -0.06291915 -0.7654673 0.6403913
vn 0.03367216 -0.5003633 -0.8651606
vn -0.4632224 -0.8723229 0.1564543
vn 0.4483477 -0.7785943 0.4390619
vn -0.03342275 -0.5001766 -0.8652781
vn -0.03367224 -0.4767841 -0.8783752
vn 0.03342278 -0.4769821 -0.8782774
vn -0.9997973 0.006226843 -0.01915092
vn -0.999799 -0.01945318 -0.004858389
vn -0.4632224 -0.8723229 0.1564543
vn 0.07323501 0.8696491 -0.4882081
vn 0.9020515 0.2230267 0.369543
vn -0.04450766 0.8574321 -0.5126687
vn -0.9997973 0.006226843 -0.01915092
vn -0.9998529 0.01380583 0.01018161
vn -0.02401726 0.9045656 -0.4256574
vn 0.8886113 0.2344745 0.3941976
vn -0.999799 -0.01945318 -0.004858389
vn -0.06291915 -0.7654673 0.6403913
vn -0.4632224 -0.8723229 0.1564543
vn -0.9998529 0.001393203 0.01709176
vn -0.9998529 0.01380583 0.01018161
vn -0.9997973 0.006226843 -0.01915092
vn -0.465521 -0.5892646 0.6603464
vn -0.06291782 -0.9457855 0.3186398
vn -0.999853 -0.01385058 -0.01010995
vn -0.9998 -0.0060594 0.01905794
vn -0.9997962 0.01961821 0.004765302
vn -0.03342199 0.5001765 0.8652782
vn -0.03367166 0.4767841 0.8783753
vn -0.465521 -0.5892646 0.6603464
vn -0.9998529 -0.001478482 -0.01709012
vn 0.8886208 -0.2348116 -0.3939753
vn 0.8886114 -0.2138516 -0.4057552
vn -0.06291782 -0.9457855 0.3186398
vn -0.03367166 0.4767841 0.8783753
vn 0.4468935 -0.7802933 0.4375255
vn -0.465521 -0.5892646 0.6603464
vn 0.03342206 0.476982 0.8782774
vn 0.03367158 0.5003632 0.8651606
vn -0.03342199 0.5001765 0.8652782
vn 0.9019948 -0.1988486 -0.3832294
vn 0.9020508 -0.2230226 -0.3695474
vn 0.4468935 -0.7802933 0.4375255
vn -0.04446565 0.8849828 -0.4634959
vn -0.9997962 0.01961821 0.004765302
vn 0.07330593 0.8701378 -0.4873257
vn 0.9019948 -0.1988486 -0.3832294
vn 0.8886114 -0.2138516 -0.4057552
vn -0.02401845 0.8352208 -0.54939
vn -0.9998529 -0.001478482 -0.01709012
vn 0.9020508 -0.2230226 -0.3695474
vn -0.06291782 -0.9457855 0.3186398
vn 0.4468935 -0.7802933 0.4375255
vn 0.8886208 -0.2348116 -0.3939753
vn 0.8886114 -0.2138516 -0.4057552
vn 0.9019948 -0.1988486 -0.3832294
g LM4_PrismObstacle_04_0
f 3/3/3 2/2/2 1/1/1
f 4/4/4 3/3/3 1/1/1
f 4/4/4 5/5/5 3/3/3
f 6/6/6 5/5/5 4/4/4
f 7/7/7 6/6/6 4/4/4
f 7/7/7 4/4/4 8/8/8
f 5/5/5 9/9/9 3/3/3
f 10/10/10 3/3/3 9/9/9
f 11/11/11 10/10/10 9/9/9
f 3/3/3 10/10/10 12/12/12
f 15/15/15 14/14/14 13/13/13
f 14/14/14 16/16/16 13/13/13
f 16/16/16 17/17/17 13/13/13
f 17/17/17 18/18/18 13/13/13
f 19/19/19 17/17/17 16/16/16
f 20/20/20 19/19/19 16/16/16
f 16/16/16 21/21/21 20/20/20
f 18/18/18 17/17/17 22/22/22
f 18/18/18 22/22/22 23/23/23
f 17/17/17 24/24/24 22/22/22
f 17/17/17 25/25/25 24/24/24
f 25/25/25 26/26/26 24/24/24
f 22/22/22 27/27/27 23/23/23
f 24/24/24 27/27/27 22/22/22
f 26/26/26 27/27/27 24/24/24
f 27/27/27 28/28/28 23/23/23
f 27/27/27 26/26/26 28/28/28
f 31/31/31 30/30/30 29/29/29
f 30/30/30 32/32/32 29/29/29
f 32/32/32 33/33/33 29/29/29
f 33/33/33 34/34/34 29/29/29
f 37/37/37 36/36/36 35/35/35
f 38/38/38 37/37/37 35/35/35
f 38/38/38 39/39/39 37/37/37
f 40/40/40 39/39/39 38/38/38
f 41/41/41 40/40/40 38/38/38
f 41/41/41 38/38/38 42/42/42
f 39/39/39 43/43/43 37/37/37
f 44/44/44 37/37/37 43/43/43
f 45/45/45 44/44/44 43/43/43
f 37/37/37 44/44/44 46/46/46
f 49/49/49 48/48/48 47/47/47
f 48/48/48 50/50/50 47/47/47
f 50/50/50 51/51/51 47/47/47
f 51/51/51 52/52/52 47/47/47
f 53/53/53 51/51/51 50/50/50
f 54/54/54 53/53/53 50/50/50
f 50/50/50 55/55/55 54/54/54
f 52/52/52 51/51/51 56/56/56
f 52/52/52 56/56/56 57/57/57
f 51/51/51 58/58/58 56/56/56
f 51/51/51 59/59/59 58/58/58
f 59/59/59 60/60/60 58/58/58
f 56/56/56 61/61/61 57/57/57
f 58/58/58 61/61/61 56/56/56
f 60/60/60 61/61/61 58/58/58
f 61/61/61 62/62/62 57/57/57
f 61/61/61 60/60/60 62/62/62
f 65/65/65 64/64/64 63/63/63
f 64/64/64 66/66/66 63/63/63
f 66/66/66 67/67/67 63/63/63
f 67/67/67 68/68/68 63/63/63
