g LM4_PrismObstacle_09
v -0.06379104 -3.034995 1.857169
v -0.02332961 -1.155477 5.210814
v 0.01512742 -1.083685 5.240076
v 4.693645E-07 -2.989042 1.838944
v 4.693645E-07 0.06984314 0.1246228
v -0.03912307 0.03833557 0.06611084
v -0.04082717 -3.021527 1.780981
v -0.06379104 -3.034995 1.857169
v 0.0136992 1.979322 3.526675
v -0.06178664 -1.083685 5.240076
v -0.06035842 1.979322 3.526675
v -0.02332961 -1.155477 5.210814
v -0.04082717 -3.021527 1.780981
v -1.934306 -3.034995 1.857169
v -0.06379104 -3.034995 1.857169
v -1.958973 -3.022505 1.781529
v -1.95727 0.03735901 0.06665894
v -0.03912307 0.03833557 0.06611084
v -1.998098 0.06984314 0.1246228
v -1.998098 -2.989042 1.838944
v -1.934306 -3.034995 1.857169
v -0.06379104 0.109375 0.09493652
v 4.693645E-07 0.06984314 0.1246228
v -1.934306 0.109375 0.09493652
v -1.998098 0.06984314 0.1246228
v -0.06035842 1.979322 3.526675
v -0.02332961 1.988894 3.448583
v 0.0136992 1.979322 3.526675
v -1.998098 -2.989042 1.838944
v -0.02332961 -1.155477 5.210814
v -1.934306 -3.034995 1.857169
v -0.06178664 -1.083685 5.240076
v -0.06035842 1.979322 3.526675
v -1.998098 0.06984314 0.1246228
v -1.934306 -3.098417 1.744006
v -0.02332961 -4.977933 -1.609637
v -0.06178664 -4.965421 -1.686149
v -1.998098 -3.058884 1.714323
v -1.998098 0 1.136868E-15
v -1.958973 0.03346314 0.05741455
v -1.95727 -3.0264 1.772285
v -1.934306 -3.098417 1.744006
v -0.06035842 -1.90517 -3.404468
v 0.01512742 -4.965421 -1.686149
v 0.0136992 -1.90517 -3.404468
v -0.02332961 -4.977933 -1.609637
v -1.95727 -3.0264 1.772285
v -0.06379104 -3.098417 1.744006
v -1.934306 -3.098417 1.744006
v -0.03912307 -3.027377 1.772833
v -0.04082717 0.03248413 0.05796264
v -1.958973 0.03346314 0.05741455
v 4.693645E-07 0 1.136868E-15
v 4.693645E-07 -3.058884 1.714323
v -0.06379104 -3.098417 1.744006
v -1.934306 0.0459552 -0.0182251
v -1.998098 0 1.136868E-15
v -0.06379104 0.0459552 -0.0182251
v 4.693645E-07 0 1.136868E-15
v 0.0136992 -1.90517 -3.404468
v -0.02332961 -1.833563 -3.371869
v -0.06035842 -1.90517 -3.404468
v 4.693645E-07 -3.058884 1.714323
v -0.02332961 -4.977933 -1.609637
v -0.06379104 -3.098417 1.744006
v 0.01512742 -4.965421 -1.686149
v 0.0136992 -1.90517 -3.404468
v 4.693645E-07 0 1.136868E-15
vt 0.985325 0.003978
vt 0.502785 0.003978
vt 0.497305 0.015109
vt 0.986732 0.015109
vt 0.986732 0.497533
vt 0.995448 0.497533
vt 0.995448 0.015109
vt 0.992233 0.00616
vt 0.497305 0.497533
vt 0.488821 0.015109
vt 0.488821 0.497533
vt 0.494286 0.00265
vt 0.979105 0.513117
vt 0.987035 0.985809
vt 0.987035 0.517207
vt 0.979105 0.98756
vt 0.536798 0.986926
vt 0.536418 0.513118
vt 0.536793 0.99645
vt 0.979105 0.997068
vt 0.985339 0.993666
vt 0.527466 0.517311
vt 0.526673 0.506718
vt 0.527814 0.982931
vt 0.527033 0.993516
vt 0.08799 0.757141
vt 0.096952 0.751127
vt 0.087952 0.745163
vt 0.004552 0.015109
vt 0.488821 0.005142
vt 0.004552 0.005142
vt 0.488821 0.015109
vt 0.488821 0.497533
vt 0.004552 0.497532
vt 0.985325 0.003978
vt 0.502785 0.003978
vt 0.497305 0.015109
vt 0.986732 0.015109
vt 0.986732 0.497533
vt 0.995448 0.497533
vt 0.995448 0.015109
vt 0.992233 0.00616
vt 0.497305 0.497533
vt 0.488821 0.015109
vt 0.488821 0.497533
vt 0.494286 0.00265
vt 0.979105 0.513117
vt 0.987035 0.985809
vt 0.987035 0.517207
vt 0.979105 0.98756
vt 0.536798 0.986926
vt 0.536418 0.513118
vt 0.536793 0.99645
vt 0.979105 0.997068
vt 0.985339 0.993666
vt 0.527466 0.517311
vt 0.526673 0.506718
vt 0.527814 0.982931
vt 0.527033 0.993516
vt 0.08799 0.757141
vt 0.096952 0.751127
vt 0.087952 0.745163
vt 0.004552 0.015109
vt 0.488821 0.005142
vt 0.004552 0.005142
vt 0.488821 0.015109
vt 0.488821 0.497533
vt 0.004552 0.497532
vn 0.4655146 -0.8708307 0.1579555
vn 0.06291746 -0.7654566 0.6404042
vn 0.9998529 0.001393455 0.01709168
vn 0.9998 -0.01941895 -0.004778655
vn 0.9997962 0.006175495 -0.01922113
vn 0.03342279 -0.4769821 -0.8782774
vn 0.03367217 -0.5003635 -0.8651605
vn 0.4655146 -0.8708307 0.1579555
vn 0.9998529 0.01380546 0.0101817
vn -0.8886208 0.2134861 0.4059269
vn -0.8886113 0.234474 0.3941977
vn 0.06291746 -0.7654566 0.6404042
vn 0.03367217 -0.5003635 -0.8651605
vn -0.4469005 -0.7804741 0.4371958
vn 0.4655146 -0.8708307 0.1579555
vn -0.03342273 -0.5001768 -0.865278
vn -0.03367225 -0.4767843 -0.8783751
vn 0.03342279 -0.4769821 -0.8782774
vn -0.9019948 0.2230911 0.3696427
vn -0.9020509 0.1988033 0.3831205
vn -0.4469005 -0.7804741 0.4371958
vn 0.04446563 0.8572736 -0.5129373
vn 0.9997962 0.006175495 -0.01922113
vn -0.07330652 0.8698526 -0.4878345
vn -0.9019948 0.2230911 0.3696427
vn -0.8886113 0.234474 0.3941977
vn 0.02401795 0.9045647 -0.4256592
vn 0.9998529 0.01380546 0.0101817
vn -0.9020509 0.1988033 0.3831205
vn 0.06291746 -0.7654566 0.6404042
vn -0.4469005 -0.7804741 0.4371958
vn -0.8886208 0.2134861 0.4059269
vn -0.8886113 0.234474 0.3941977
vn -0.9019948 0.2230911 0.3696427
vn -0.4483585 -0.7808985 0.4349393
vn 0.0629177 -0.9457853 0.3186401
vn -0.8886208 -0.2348114 -0.3939754
vn -0.9019939 -0.2230872 -0.3696472
vn -0.9020518 -0.1987975 -0.3831217
vn -0.03342197 0.5001768 0.8652781
vn -0.03367166 0.4767843 0.8783751
vn -0.4483585 -0.7808985 0.4349393
vn -0.8886114 -0.2138517 -0.4057551
vn 0.999853 -0.01385107 -0.01010983
vn 0.9998529 -0.00147881 -0.01709003
vn 0.0629177 -0.9457853 0.3186401
vn -0.03367166 0.4767843 0.8783751
vn 0.4632327 -0.5887588 0.6624036
vn -0.4483585 -0.7808985 0.4349393
vn 0.03342206 0.4769821 0.8782774
vn 0.03367158 0.5003633 0.8651606
vn -0.03342197 0.5001768 0.8652781
vn 0.9997973 0.0195843 0.004685361
vn 0.999799 -0.00600939 0.01912849
vn 0.4632327 -0.5887588 0.6624036
vn -0.07323483 0.8703501 -0.4869573
vn -0.9020518 -0.1987975 -0.3831217
vn 0.04450817 0.8848369 -0.4637703
vn 0.9997973 0.0195843 0.004685361
vn 0.9998529 -0.00147881 -0.01709003
vn 0.02401855 0.8352218 -0.5493885
vn -0.8886114 -0.2138517 -0.4057551
vn 0.999799 -0.00600939 0.01912849
vn 0.0629177 -0.9457853 0.3186401
vn 0.4632327 -0.5887588 0.6624036
vn 0.999853 -0.01385107 -0.01010983
vn 0.9998529 -0.00147881 -0.01709003
vn 0.9997973 0.0195843 0.004685361
g LM4_PrismObstacle_09_0
f 3/3/3 2/2/2 1/1/1
f 4/4/4 3/3/3 1/1/1
f 4/4/4 5/5/5 3/3/3
f 6/6/6 5/5/5 4/4/4
f 7/7/7 6/6/6 4/4/4
f 7/7/7 4/4/4 8/8/8
f 5/5/5 9/9/9 3/3/3
f 10/10/10 3/3/3 9/9/9
f 11/11/11 10/10/10 9/9/9
f 3/3/3 10/10/10 12/12/12
f 15/15/15 14/14/14 13/13/13
f 14/14/14 16/16/16 13/13/13
f 16/16/16 17/17/17 13/13/13
f 17/17/17 18/18/18 13/13/13
f 19/19/19 17/17/17 16/16/16
f 20/20/20 19/19/19 16/16/16
f 16/16/16 21/21/21 20/20/20
f 18/18/18 17/17/17 22/22/22
f 18/18/18 22/22/22 23/23/23
f 17/17/17 24/24/24 22/22/22
f 17/17/17 25/25/25 24/24/24
f 25/25/25 26/26/26 24/24/24
f 22/22/22 27/27/27 23/23/23
f 24/24/24 27/27/27 22/22/22
f 26/26/26 27/27/27 24/24/24
f 27/27/27 28/28/28 23/23/23
f 27/27/27 26/26/26 28/28/28
f 31/31/31 30/30/30 29/29/29
f 30/30/30 32/32/32 29/29/29
f 32/32/32 33/33/33 29/29/29
f 33/33/33 34/34/34 29/29/29
f 37/37/37 36/36/36 35/35/35
f 38/38/38 37/37/37 35/35/35
f 38/38/38 39/39/39 37/37/37
f 40/40/40 39/39/39 38/38/38
f 41/41/41 40/40/40 38/38/38
f 41/41/41 38/38/38 42/42/42
f 39/39/39 43/43/43 37/37/37
f 44/44/44 37/37/37 43/43/43
f 45/45/45 44/44/44 43/43/43
f 37/37/37 44/44/44 46/46/46
f 49/49/49 48/48/48 47/47/47
f 48/48/48 50/50/50 47/47/47
f 50/50/50 51/51/51 47/47/47
f 51/51/51 52/52/52 47/47/47
f 53/53/53 51/51/51 50/50/50
f 54/54/54 53/53/53 50/50/50
f 50/50/50 55/55/55 54/54/54
f 52/52/52 51/51/51 56/56/56
f 52/52/52 56/56/56 57/57/57
f 51/51/51 58/58/58 56/56/56
f 51/51/51 59/59/59 58/58/58
f 59/59/59 60/60/60 58/58/58
f 56/56/56 61/61/61 57/57/57
f 58/58/58 61/61/61 56/56/56
f 60/60/60 61/61/61 58/58/58
f 61/61/61 62/62/62 57/57/57
f 61/61/61 60/60/60 62/62/62
f 65/65/65 64/64/64 63/63/63
f 64/64/64 66/66/66 63/63/63
f 66/66/66 67/67/67 63/63/63
f 67/67/67 68/68/68 63/63/63
