g LM4_rigidWall09
v 0 2.183211 9.180468
v 0.0131958 6.242096 8.251171
v 0.01305664 2.184891 9.21351
v 0.0446521 2.136995 9.188012
v 0 2.099854 8.848505
v 0.04466675 2.063472 8.85913
v 0.04466675 -0.0372749 0.006854827
v 0 6.23169 8.220907
v 0.0131958 6.369494 8.192851
v 0 6.350474 8.166533
v 0.0131958 6.463968 8.09119
v 0 6.133907 7.904931
v 0 4.027874 -0.9696149
v 0 4.840733E-07 -6.414027E-07
v 0.0446521 -0.1193647 -0.3199958
v 0 6.436321 8.074149
v 0.0131958 6.512348 7.961108
v 0 -0.07468701 -0.3340192
v 0.01305664 -0.08803418 -0.3642975
v 0.0131958 3.968956 -1.327549
v 0 3.973255 -1.29584
v 0.0131958 4.108973 -1.332696
v 0 4.103806 -1.300635
v 0.0131958 4.239049 -1.284317
v 0 4.22201 -1.25667
v 0.0131958 4.340721 -1.189844
v 0 6.48028 7.955946
v 0 6.475493 7.82539
v 0 4.31439 -1.170831
v 0.0131958 6.507214 7.821093
v 0 4.368776 -1.052042
v 0.0131958 4.399045 -1.062452
v 0.04505249 6.520351 7.819301
v 0.04505249 4.411586 -1.066758
v 0.04505249 6.52563 7.963242
v 0.0131958 6.463968 8.09119
v 0.04505249 4.351629 -1.19772
v 0.0131958 4.239049 -1.284317
v 0.04505249 6.475421 8.098242
v 0.0131958 6.369494 8.192851
v 0.04505249 4.246115 -1.295762
v 0.0131958 4.108973 -1.332696
v 0.04505249 6.377374 8.20375
v 0.0131958 6.242096 8.251171
v 0.04505249 4.111114 -1.345967
v 0.0131958 3.968956 -1.327549
v 0.04505249 6.246407 8.26371
v 0.01305664 2.184891 9.21351
v 0.04505249 3.967171 -1.340694
v 0.01305664 -0.08803418 -0.3642975
v 0.0446521 2.186531 9.227167
v 0.0446521 2.136995 9.188012
v 0.9274328 2.136995 9.188012
v 0.9274328 2.186531 9.227167
v 0.9590283 2.184891 9.21351
v 0.9270325 6.246407 8.26371
v 0.9588891 6.242096 8.251171
v 0.9270325 6.377374 8.20375
v 0.9588891 6.369494 8.192851
v 0.9270325 6.475421 8.098242
v 0.9588891 6.463968 8.09119
v 0.9270325 6.52563 7.963242
v 0.9588891 6.512348 7.961108
v 0.9270325 6.520351 7.819301
v 0.9270325 4.411586 -1.066758
v 0.9588891 6.507214 7.821093
v 0.9270325 4.351629 -1.19772
v 0.9270325 4.246115 -1.295762
v 0.9270325 4.111114 -1.345967
v 0.9270325 3.967171 -1.340694
v 0.9588891 4.239049 -1.284317
v 0.9588891 4.108973 -1.332696
v 0.9588891 3.968956 -1.327549
v 0.9588891 4.340721 -1.189844
v 0.9590283 -0.08803418 -0.3642975
v 0.9274328 -0.09270703 -0.377237
v 0.9274328 -0.1193647 -0.3199958
v 0.0446521 -0.09270703 -0.377237
v 0.0446521 -0.1193647 -0.3199958
v 0.9588891 4.399045 -1.062452
v 0.9720837 4.31439 -1.170831
v 0.9720837 4.22201 -1.25667
v 0.9720837 4.027874 -0.9696149
v 0.9588891 4.239049 -1.284317
v 0.9720837 4.103806 -1.300635
v 0.9588891 4.108973 -1.332696
v 0.9720837 3.973255 -1.29584
v 0.9588891 3.968956 -1.327549
v 0.9720837 4.368776 -1.052042
v 0.9720837 6.133907 7.904931
v 0.9720837 6.475493 7.82539
v 0.9720837 6.48028 7.955946
v 0.9720837 6.436321 8.074149
v 0.9588891 6.463968 8.09119
v 0.9720837 6.350474 8.166533
v 0.9588891 6.369494 8.192851
v 0.9720837 6.23169 8.220907
v 0.9588891 6.242096 8.251171
v 0.9720837 2.108523 8.84645
v 0.9720837 2.183211 9.180468
v 0.9590283 2.184891 9.21351
v 0.9274328 2.136995 9.188012
v 0.927417 2.054803 8.861186
v 0.9720837 0.008669917 -0.002061188
v 0.927417 -0.04594434 0.008915374
v 0.9274328 -0.1193647 -0.3199958
v 0.9720837 -0.07468701 -0.3340192
v 0.9590283 -0.08803418 -0.3642975
vt 1.207436 0.8062328
vt 0.8659824 0.8089401
vt 1.207927 0.8089011
vt 1.211266 0.8059599
vt 1.207802 0.7781682
vt 1.210906 0.7783262
vt 1.210906 0.03222781
vt 0.8662397 0.8063287
vt 0.8547127 0.8066992
vt 0.8557324 0.8042384
vt 0.8452498 0.8003768
vt 0.8680589 0.7792647
vt 0.8680589 0.03128928
vt 1.207802 0.03238654
vt 1.211266 0.004593968
vt 0.8471335 0.7984931
vt 0.8378057 0.790913
vt 1.207436 0.004321098
vt 1.207927 0.001652718
vt 0.8659823 0.001614749
vt 0.8662395 0.004226029
vt 0.8547126 0.003855586
vt 0.8557323 0.006315589
vt 0.8452497 0.01017803
vt 0.8471334 0.01206166
vt 0.8378056 0.01964092
vt 0.8413874 0.7898934
vt 0.8392979 0.779387
vt 0.8413873 0.02065969
vt 0.8366849 0.7796443
vt 0.8392979 0.03116775
vt 0.8366848 0.03090972
vt 0.8340725 0.7797493
vt 0.8340725 0.03080386
vt 0.8340725 0.7913348
vt 0.8366849 0.8003768
vt 0.8340724 0.01921916
vt 0.8366848 0.01017797
vt 0.8340725 0.8011557
vt 0.8366849 0.8074191
vt 0.8340724 0.009398222
vt 0.8366847 0.003135038
vt 0.8340725 0.8077174
vt 0.8366852 0.8194084
vt 0.8340724 0.002836821
vt 0.8366846 -0.00885499
vt 0.8340729 0.819302
vt 0.8367075 1.161353
vt 0.8340723 -0.008748387
vt 0.8366961 -0.3508003
vt 0.8341167 1.161481
vt 0.8341168 1.164692
vt 0.7617238 1.164694
vt 0.7617236 1.161484
vt 0.7591326 1.161356
vt 0.7617454 0.8193042
vt 0.759133 0.8194109
vt 0.7617451 0.8077185
vt 0.7591327 0.8074204
vt 0.7617451 0.8011557
vt 0.7591327 0.8003768
vt 0.7617451 0.7913348
vt 0.7580118 0.7909131
vt 0.7617451 0.7797493
vt 0.761745 0.03080386
vt 0.7591327 0.7796443
vt 0.761745 0.01921916
vt 0.761745 0.009398222
vt 0.761745 0.002836826
vt 0.761745 -0.008748378
vt 0.7591326 0.01017797
vt 0.7591326 0.003135043
vt 0.7591327 -0.008854981
vt 0.7580117 0.01964091
vt 0.7591209 -0.3508003
vt 0.7617121 -0.3509281
vt 0.7617121 -0.3541389
vt 0.834105 -0.3509281
vt 0.834105 -0.3541389
vt 0.7591326 0.03090974
vt 0.7544301 0.02065962
vt 0.7486848 0.01206162
vt 0.7277595 0.03128931
vt 0.7505677 0.01017796
vt 0.740086 0.006315556
vt 0.7411047 0.003855557
vt 0.7295787 0.004226007
vt 0.7298359 0.001614686
vt 0.7565205 0.03116775
vt 0.7277597 0.7792647
vt 0.7565206 0.7793871
vt 0.7544302 0.7898936
vt 0.7486849 0.7984932
vt 0.7505678 0.8003768
vt 0.7400861 0.8042384
vt 0.7411048 0.8066993
vt 0.7295788 0.8063288
vt 0.729836 0.8089401
vt 0.3887478 0.7781683
vt 0.3883823 0.8062329
vt 0.3878903 0.8089013
vt 0.3845522 0.8059601
vt 0.3841817 0.7783262
vt 0.3887477 0.03238665
vt 0.3841816 0.03222789
vt 0.384552 0.004594035
vt 0.3883822 0.00432116
vt 0.3878902 0.001652785
vn -0.9992072 -0.0004800403 0.03980911
vn -0.7005275 0.1691568 0.6932871
vn -0.6925725 0.1616399 0.7030048
vn -0.2134138 -0.7079454 0.6732517
vn -0.999941 -0.01057069 0.002508599
vn -0.6481557 -0.74093 0.1758327
vn -0.6481559 -0.7409304 0.1758295
vn -0.9992108 0.009403625 0.03859135
vn -0.6802683 0.4287214 0.5945024
vn -0.9966081 0.04805255 0.06680834
vn -0.6790079 0.6249271 0.385246
vn -1 1.277039E-07 0
vn -1 1.353552E-07 0
vn -0.999941 -0.0105706 0.002508537
vn -0.2134034 -0.9349787 -0.2833266
vn -0.9966902 0.06920181 0.04265819
vn -0.6803573 0.723656 0.115914
vn -0.9992072 -0.01831543 -0.03534921
vn -0.6925875 -0.1714639 -0.7006589
vn -0.7005371 -0.1603833 -0.6953596
vn -0.9992107 -0.008938996 -0.03870337
vn -0.680262 0.115899 -0.7237479
vn -0.9966078 0.01290804 -0.08127929
vn -0.6790231 0.3851832 -0.6249491
vn -0.9966902 0.04265755 -0.06920242
vn -0.680351 0.594421 -0.428703
vn -0.996783 0.07915471 0.01257508
vn -0.9993274 0.03570283 -0.008365114
vn -0.9967827 0.06506934 -0.04680168
vn -0.6947542 0.7002987 -0.1640071
vn -0.9993275 0.03565301 -0.008568244
vn -0.6947515 0.6993206 -0.1681399
vn -0.01410733 0.9735757 -0.2279286
vn -0.01410621 0.9721773 -0.2338211
vn -0.01381525 0.9871835 0.1589903
vn -0.6790079 0.6249271 0.385246
vn -0.01381721 0.8104778 -0.5856063
vn -0.6790231 0.3851832 -0.6249491
vn -0.01378037 0.8511798 0.5246932
vn -0.6802683 0.4287214 0.5945024
vn -0.01378298 0.5246584 -0.8512012
vn -0.680262 0.115899 -0.7237479
vn -0.01381072 0.5855842 0.8104939
vn -0.7005275 0.1691568 0.6932871
vn -0.01380972 0.1589972 -0.9871825
vn -0.7005371 -0.1603833 -0.6953596
vn -0.0143369 0.2372017 0.9713547
vn -0.6925725 0.1616399 0.7030048
vn -0.01434386 -0.2245381 -0.9743598
vn -0.6925875 -0.1714639 -0.7006589
vn -0.01421116 0.2196346 0.9754786
vn -0.2134138 -0.7079454 0.6732517
vn 0.256841 -0.701215 0.6650792
vn 0.01421177 0.2196348 0.9754786
vn 0.6925991 0.1616381 0.7029791
vn 0.01433755 0.2372019 0.9713545
vn 0.7005539 0.1691542 0.6932613
vn 0.01381179 0.5855844 0.8104938
vn 0.6802878 0.4287115 0.5944871
vn 0.01378117 0.8511799 0.5246931
vn 0.6790254 0.6249135 0.385237
vn 0.01381558 0.9871835 0.1589903
vn 0.6803634 0.7236508 0.1159106
vn 0.01410732 0.9735757 -0.2279284
vn 0.0141062 0.9721773 -0.2338209
vn 0.6947539 0.7002999 -0.1640028
vn 0.01381527 0.8104778 -0.5856065
vn 0.01378169 0.5246591 -0.8512009
vn 0.01381093 0.158997 -0.9871825
vn 0.01434587 -0.2245381 -0.9743596
vn 0.6790131 0.3852019 -0.6249487
vn 0.680288 0.11589 -0.7237249
vn 0.7005604 -0.1603827 -0.6953363
vn 0.680333 0.5944304 -0.4287184
vn 0.6926115 -0.171463 -0.7006353
vn 0.01422005 -0.2420871 -0.9701504
vn 0.2568249 -0.9252982 -0.2790418
vn -0.01421803 -0.242087 -0.9701504
vn -0.2134034 -0.9349787 -0.2833266
vn 0.6947516 0.6993216 -0.1681356
vn 0.9967835 0.06505739 -0.04680068
vn 0.9966909 0.04265141 -0.06919632
vn 1 -1.319374E-07 0
vn 0.6790131 0.3852019 -0.6249487
vn 0.9966089 0.0129112 -0.08126657
vn 0.680288 0.11589 -0.7237249
vn 0.9992094 -0.008946891 -0.03873572
vn 0.7005604 -0.1603827 -0.6953363
vn 0.9993277 0.03565053 -0.008567421
vn 1 -1.412953E-07 0
vn 0.9993275 0.03570039 -0.008364315
vn 0.9967835 0.0791489 0.0125734
vn 0.9966906 0.06919663 0.04265638
vn 0.6790254 0.6249135 0.385237
vn 0.996609 0.04804154 0.06680249
vn 0.6802878 0.4287115 0.5944871
vn 0.9992095 0.009411871 0.03862422
vn 0.7005539 0.1691542 0.6932613
vn 0.9999418 -0.01050136 0.00249211
vn 0.9991841 -0.0006003827 0.04038386
vn 0.6925991 0.1616381 0.7029791
vn 0.256841 -0.701215 0.6650792
vn 0.7790756 -0.6099885 0.1447599
vn 0.9999418 -0.01050105 0.002491996
vn 0.7790752 -0.6099895 0.1447574
vn 0.2568249 -0.9252982 -0.2790418
vn 0.9991841 -0.01868264 -0.03580756
vn 0.6926115 -0.171463 -0.7006353
g LM4_rigidWall09_0
f 3/3/3 2/2/2 1/1/1
f 1/1/1 4/4/4 3/3/3
f 4/4/4 1/1/1 5/5/5
f 6/6/6 4/4/4 5/5/5
f 6/6/6 5/5/5 7/7/7
f 2/2/2 8/8/8 1/1/1
f 5/5/5 1/1/1 8/8/8
f 2/2/2 9/9/9 8/8/8
f 9/9/9 10/10/10 8/8/8
f 9/9/9 11/11/11 10/10/10
f 12/12/12 8/8/8 10/10/10
f 12/12/12 5/5/5 8/8/8
f 12/12/12 13/13/13 5/5/5
f 13/13/13 14/14/14 5/5/5
f 5/5/5 14/14/14 7/7/7
f 15/15/15 7/7/7 14/14/14
f 11/11/11 16/16/16 10/10/10
f 12/12/12 10/10/10 16/16/16
f 11/11/11 17/17/17 16/16/16
f 18/18/18 15/15/15 14/14/14
f 15/15/15 18/18/18 19/19/19
f 20/20/20 19/19/19 18/18/18
f 18/18/18 14/14/14 21/21/21
f 21/21/21 20/20/20 18/18/18
f 14/14/14 13/13/13 21/21/21
f 22/22/22 20/20/20 21/21/21
f 23/23/23 22/22/22 21/21/21
f 21/21/21 13/13/13 23/23/23
f 24/24/24 22/22/22 23/23/23
f 25/25/25 24/24/24 23/23/23
f 23/23/23 13/13/13 25/25/25
f 26/26/26 24/24/24 25/25/25
f 27/27/27 12/12/12 16/16/16
f 17/17/17 27/27/27 16/16/16
f 27/27/27 28/28/28 12/12/12
f 13/13/13 12/12/12 28/28/28
f 13/13/13 29/29/29 25/25/25
f 29/29/29 26/26/26 25/25/25
f 28/28/28 27/27/27 30/30/30
f 27/27/27 17/17/17 30/30/30
f 31/31/31 13/13/13 28/28/28
f 31/31/31 29/29/29 13/13/13
f 31/31/31 28/28/28 30/30/30
f 29/29/29 31/31/31 32/32/32
f 32/32/32 31/31/31 30/30/30
f 26/26/26 29/29/29 32/32/32
f 30/30/30 17/17/17 33/33/33
f 32/32/32 30/30/30 33/33/33
f 26/26/26 32/32/32 34/34/34
f 34/34/34 32/32/32 33/33/33
f 17/17/17 35/35/35 33/33/33
f 35/35/35 17/17/17 36/36/36
f 37/37/37 26/26/26 34/34/34
f 26/26/26 37/37/37 38/38/38
f 39/39/39 35/35/35 36/36/36
f 39/39/39 36/36/36 40/40/40
f 37/37/37 41/41/41 38/38/38
f 38/38/38 41/41/41 42/42/42
f 43/43/43 39/39/39 40/40/40
f 43/43/43 40/40/40 44/44/44
f 41/41/41 45/45/45 42/42/42
f 42/42/42 45/45/45 46/46/46
f 47/47/47 43/43/43 44/44/44
f 47/47/47 44/44/44 48/48/48
f 45/45/45 49/49/49 46/46/46
f 46/46/46 49/49/49 50/50/50
f 51/51/51 47/47/47 48/48/48
f 51/51/51 48/48/48 52/52/52
f 52/52/52 53/53/53 51/51/51
f 53/53/53 54/54/54 51/51/51
f 51/51/51 54/54/54 47/47/47
f 55/55/55 54/54/54 53/53/53
f 54/54/54 56/56/56 47/47/47
f 56/56/56 54/54/54 55/55/55
f 47/47/47 56/56/56 43/43/43
f 57/57/57 56/56/56 55/55/55
f 56/56/56 58/58/58 43/43/43
f 58/58/58 56/56/56 57/57/57
f 43/43/43 58/58/58 39/39/39
f 59/59/59 58/58/58 57/57/57
f 58/58/58 60/60/60 39/39/39
f 60/60/60 58/58/58 59/59/59
f 39/39/39 60/60/60 35/35/35
f 61/61/61 60/60/60 59/59/59
f 60/60/60 62/62/62 35/35/35
f 62/62/62 60/60/60 61/61/61
f 35/35/35 62/62/62 33/33/33
f 63/63/63 62/62/62 61/61/61
f 62/62/62 64/64/64 33/33/33
f 62/62/62 63/63/63 64/64/64
f 34/34/34 33/33/33 64/64/64
f 65/65/65 34/34/34 64/64/64
f 63/63/63 66/66/66 64/64/64
f 65/65/65 64/64/64 66/66/66
f 65/65/65 67/67/67 34/34/34
f 67/67/67 37/37/37 34/34/34
f 67/67/67 68/68/68 37/37/37
f 68/68/68 41/41/41 37/37/37
f 68/68/68 69/69/69 41/41/41
f 69/69/69 45/45/45 41/41/41
f 69/69/69 70/70/70 45/45/45
f 70/70/70 49/49/49 45/45/45
f 68/68/68 67/67/67 71/71/71
f 68/68/68 71/71/71 72/72/72
f 69/69/69 68/68/68 72/72/72
f 69/69/69 72/72/72 73/73/73
f 70/70/70 69/69/69 73/73/73
f 67/67/67 74/74/74 71/71/71
f 74/74/74 67/67/67 65/65/65
f 70/70/70 73/73/73 75/75/75
f 76/76/76 70/70/70 75/75/75
f 70/70/70 76/76/76 49/49/49
f 76/76/76 75/75/75 77/77/77
f 76/76/76 78/78/78 49/49/49
f 76/76/76 77/77/77 78/78/78
f 49/49/49 78/78/78 50/50/50
f 77/77/77 79/79/79 78/78/78
f 50/50/50 78/78/78 79/79/79
f 80/80/80 74/74/74 65/65/65
f 80/80/80 65/65/65 66/66/66
f 81/81/81 74/74/74 80/80/80
f 74/74/74 81/81/81 82/82/82
f 81/81/81 83/83/83 82/82/82
f 84/84/84 74/74/74 82/82/82
f 84/84/84 82/82/82 85/85/85
f 83/83/83 85/85/85 82/82/82
f 86/86/86 84/84/84 85/85/85
f 86/86/86 85/85/85 87/87/87
f 83/83/83 87/87/87 85/85/85
f 88/88/88 86/86/86 87/87/87
f 89/89/89 81/81/81 80/80/80
f 81/81/81 89/89/89 83/83/83
f 83/83/83 89/89/89 90/90/90
f 89/89/89 80/80/80 91/91/91
f 80/80/80 66/66/66 91/91/91
f 89/89/89 91/91/91 90/90/90
f 92/92/92 91/91/91 66/66/66
f 91/91/91 92/92/92 90/90/90
f 63/63/63 92/92/92 66/66/66
f 92/92/92 63/63/63 93/93/93
f 90/90/90 92/92/92 93/93/93
f 63/63/63 94/94/94 93/93/93
f 93/93/93 94/94/94 95/95/95
f 95/95/95 90/90/90 93/93/93
f 94/94/94 96/96/96 95/95/95
f 95/95/95 96/96/96 97/97/97
f 97/97/97 90/90/90 95/95/95
f 96/96/96 98/98/98 97/97/97
f 83/83/83 90/90/90 99/99/99
f 99/99/99 90/90/90 97/97/97
f 97/97/97 98/98/98 100/100/100
f 100/100/100 99/99/99 97/97/97
f 98/98/98 101/101/101 100/100/100
f 102/102/102 100/100/100 101/101/101
f 100/100/100 102/102/102 99/99/99
f 102/102/102 103/103/103 99/99/99
f 104/104/104 83/83/83 99/99/99
f 104/104/104 99/99/99 103/103/103
f 105/105/105 104/104/104 103/103/103
f 83/83/83 104/104/104 87/87/87
f 105/105/105 106/106/106 104/104/104
f 104/104/104 107/107/107 87/87/87
f 106/106/106 107/107/107 104/104/104
f 88/88/88 87/87/87 107/107/107
f 107/107/107 106/106/106 108/108/108
f 108/108/108 88/88/88 107/107/107
