g LM4_PrismObstacle_17
v -2.116934 -1.167572 5.087311
v -0.2631287 -3.098391 1.730722
v -0.2992554 -3.082013 1.653805
v -2.177554 -1.123549 5.057301
v -1.953783 1.961768 3.406112
v -1.913754 1.991595 3.464891
v -2.135895 -1.094815 5.116637
v -2.116934 -1.167572 5.087311
v -0.07390015 0.004649276 -0.001329264
v -0.2225061 -3.086843 1.655182
v 4.547473E-15 -1.602768E-06 -3.579939E-06
v -0.2631287 -3.098391 1.730722
v -2.135895 -1.094815 5.116637
v 1.696865 -1.407548 5.155751
v -2.116934 -1.167572 5.087311
v 1.725361 -1.338769 5.186461
v 1.947503 1.747642 3.534713
v -1.913754 1.991595 3.464891
v 1.987326 1.713782 3.476837
v 1.763556 -1.371536 5.128026
v 1.696865 -1.407548 5.155751
v -1.88691 2.003968 3.389974
v -1.953783 1.961768 3.406112
v 1.926888 1.763992 3.458414
v 1.987326 1.713782 3.476837
v 4.547473E-15 -1.602768E-06 -3.579939E-06
v -0.03310547 0.07315025 0.03338509
v -0.07390015 0.004649276 -0.001329264
v 1.763556 -1.371536 5.128026
v -0.2631287 -3.098391 1.730722
v 1.696865 -1.407548 5.155751
v -0.2225061 -3.086843 1.655182
v 4.547473E-15 -1.602768E-06 -3.579939E-06
v 1.987326 1.713782 3.476837
v 1.698657 -1.346447 5.270167
v -0.1551501 0.584371 8.626753
v -0.112854 0.6530331 8.658164
v 1.76553 -1.304246 5.254029
v 1.9893 1.781072 3.602838
v 1.949412 1.753216 3.543006
v 1.723871 -1.33298 5.194696
v 1.698657 -1.346447 5.270167
v 0.1097302 3.742532 7.007954
v -0.189602 0.6578621 8.656782
v 0.0358313 3.747184 7.006626
v -0.1551501 0.584371 8.626753
v 1.723871 -1.33298 5.194696
v -2.11514 -1.10647 5.201725
v 1.698657 -1.346447 5.270167
v -2.137528 -1.090999 5.125929
v -1.911986 1.995198 3.474239
v 1.949412 1.753216 3.543006
v -1.951811 2.029058 3.532113
v -2.175581 -1.056259 5.183304
v -2.11514 -1.10647 5.201725
v 1.92868 1.825096 3.572831
v 1.9893 1.781072 3.602838
v -1.885117 2.065072 3.504391
v -1.951811 2.029058 3.532113
v 0.0358313 3.747184 7.006626
v 0.07487305 3.755914 6.929424
v 0.1097302 3.742532 7.007954
v -2.175581 -1.056259 5.183304
v -0.1551501 0.584371 8.626753
v -2.11514 -1.10647 5.201725
v -0.189602 0.6578621 8.656782
v 0.0358313 3.747184 7.006626
v -1.951811 2.029058 3.532113
vt 0.985325 0.003978
vt 0.502785 0.003978
vt 0.497305 0.015109
vt 0.986732 0.015109
vt 0.986732 0.497533
vt 0.995448 0.497533
vt 0.995448 0.015109
vt 0.992233 0.00616
vt 0.497305 0.497533
vt 0.488821 0.015109
vt 0.488821 0.497533
vt 0.494286 0.00265
vt 0.979105 0.513117
vt 0.987035 0.985809
vt 0.987035 0.517207
vt 0.979105 0.98756
vt 0.536798 0.986926
vt 0.536418 0.513118
vt 0.536793 0.99645
vt 0.979105 0.997068
vt 0.985339 0.993666
vt 0.527466 0.517311
vt 0.526673 0.506718
vt 0.527814 0.982931
vt 0.527033 0.993516
vt 0.08799 0.757141
vt 0.096952 0.751127
vt 0.087952 0.745163
vt 0.004552 0.015109
vt 0.488821 0.005142
vt 0.004552 0.005142
vt 0.488821 0.015109
vt 0.488821 0.497533
vt 0.004552 0.497532
vt 0.985325 0.003978
vt 0.502785 0.003978
vt 0.497305 0.015109
vt 0.986732 0.015109
vt 0.986732 0.497533
vt 0.995448 0.497533
vt 0.995448 0.015109
vt 0.992233 0.00616
vt 0.497305 0.497533
vt 0.488821 0.015109
vt 0.488821 0.497533
vt 0.494286 0.00265
vt 0.979105 0.513117
vt 0.987035 0.985809
vt 0.987035 0.517207
vt 0.979105 0.98756
vt 0.536798 0.986926
vt 0.536418 0.513118
vt 0.536793 0.99645
vt 0.979105 0.997068
vt 0.985339 0.993666
vt 0.527466 0.517311
vt 0.526673 0.506718
vt 0.527814 0.982931
vt 0.527033 0.993516
vt 0.08799 0.757141
vt 0.096952 0.751127
vt 0.087952 0.745163
vt 0.004552 0.015109
vt 0.488821 0.005142
vt 0.004552 0.005142
vt 0.488821 0.015109
vt 0.488821 0.497533
vt 0.004552 0.497532
vn -0.4075038 -0.7048911 0.5805766
vn -0.06474106 -0.9870709 0.1466278
vn -0.8938367 -0.1709165 -0.4145402
vn -0.9069154 -0.158847 -0.3902207
vn -0.9051988 -0.1343465 -0.4031951
vn -0.002040697 0.4837795 0.8751876
vn -0.003900187 0.4599703 0.8879257
vn -0.4075038 -0.7048911 0.5805766
vn -0.8922933 -0.1497757 -0.4258872
vn 0.879613 -0.2825073 -0.3827147
vn 0.8811374 -0.2613657 -0.394062
vn -0.06474106 -0.9870709 0.1466278
vn -0.003900187 0.4599703 0.8879257
vn 0.2929178 -0.747616 0.596045
vn -0.4075038 -0.7048911 0.5805766
vn 0.02965528 0.4580621 0.8884254
vn 0.03151482 0.4818662 0.8756779
vn -0.002040697 0.4837795 0.8751876
vn 0.8949972 -0.2476696 -0.3709981
vn 0.8932824 -0.2720577 -0.3578143
vn 0.2929178 -0.747616 0.596045
vn 0.02617801 0.8908552 -0.4535326
vn -0.9051988 -0.1343465 -0.4031951
vn 0.1019189 0.8858855 -0.4525698
vn 0.8949972 -0.2476696 -0.3709981
vn 0.8811374 -0.2613657 -0.394062
vn 0.06307634 0.8561892 -0.5127977
vn -0.8922933 -0.1497757 -0.4258872
vn 0.8932824 -0.2720577 -0.3578143
vn -0.06474106 -0.9870709 0.1466278
vn 0.2929178 -0.747616 0.596045
vn 0.879613 -0.2825073 -0.3827147
vn 0.8811374 -0.2613657 -0.394062
vn 0.8949972 -0.2476696 -0.3709981
vn 0.2901293 -0.9134107 0.2854923
vn -0.05544832 -0.6700664 0.7402273
vn 0.8922764 0.1494074 0.4260519
vn 0.9051423 0.1344049 0.4033023
vn 0.9069709 0.1587842 0.3901173
vn 0.003753033 -0.4601648 -0.8878255
vn 0.002158161 -0.4839844 -0.875074
vn 0.2901293 -0.9134107 0.2854923
vn 0.8938016 0.1705764 0.4147556
vn -0.8811729 0.2609983 0.3942262
vn -0.8796288 0.2821658 0.3829305
vn -0.05544832 -0.6700664 0.7402273
vn 0.002158161 -0.4839844 -0.875074
vn -0.4103079 -0.8710008 0.2701944
vn 0.2901293 -0.9134107 0.2854923
vn -0.03136731 -0.4816767 -0.8757875
vn -0.0297723 -0.4578521 -0.8885297
vn 0.003753033 -0.4601648 -0.8878255
vn -0.8932238 0.2721208 0.357913
vn -0.8950539 0.2476298 0.3708884
vn -0.4103079 -0.8710008 0.2701944
vn 0.1013346 0.8672877 -0.487384
vn 0.9069709 0.1587842 0.3901173
vn 0.02559567 0.8722707 -0.4883532
vn -0.8932238 0.2721208 0.357913
vn -0.8796288 0.2821658 0.3829305
vn 0.06440587 0.9015316 -0.4278934
vn 0.8938016 0.1705764 0.4147556
vn -0.8950539 0.2476298 0.3708884
vn -0.05544832 -0.6700664 0.7402273
vn -0.4103079 -0.8710008 0.2701944
vn -0.8811729 0.2609983 0.3942262
vn -0.8796288 0.2821658 0.3829305
vn -0.8932238 0.2721208 0.357913
g LM4_PrismObstacle_17_0
f 3/3/3 2/2/2 1/1/1
f 4/4/4 3/3/3 1/1/1
f 4/4/4 5/5/5 3/3/3
f 6/6/6 5/5/5 4/4/4
f 7/7/7 6/6/6 4/4/4
f 7/7/7 4/4/4 8/8/8
f 5/5/5 9/9/9 3/3/3
f 10/10/10 3/3/3 9/9/9
f 11/11/11 10/10/10 9/9/9
f 3/3/3 10/10/10 12/12/12
f 15/15/15 14/14/14 13/13/13
f 14/14/14 16/16/16 13/13/13
f 16/16/16 17/17/17 13/13/13
f 17/17/17 18/18/18 13/13/13
f 19/19/19 17/17/17 16/16/16
f 20/20/20 19/19/19 16/16/16
f 16/16/16 21/21/21 20/20/20
f 18/18/18 17/17/17 22/22/22
f 18/18/18 22/22/22 23/23/23
f 17/17/17 24/24/24 22/22/22
f 17/17/17 25/25/25 24/24/24
f 25/25/25 26/26/26 24/24/24
f 22/22/22 27/27/27 23/23/23
f 24/24/24 27/27/27 22/22/22
f 26/26/26 27/27/27 24/24/24
f 27/27/27 28/28/28 23/23/23
f 27/27/27 26/26/26 28/28/28
f 31/31/31 30/30/30 29/29/29
f 30/30/30 32/32/32 29/29/29
f 32/32/32 33/33/33 29/29/29
f 33/33/33 34/34/34 29/29/29
f 37/37/37 36/36/36 35/35/35
f 38/38/38 37/37/37 35/35/35
f 38/38/38 39/39/39 37/37/37
f 40/40/40 39/39/39 38/38/38
f 41/41/41 40/40/40 38/38/38
f 41/41/41 38/38/38 42/42/42
f 39/39/39 43/43/43 37/37/37
f 44/44/44 37/37/37 43/43/43
f 45/45/45 44/44/44 43/43/43
f 37/37/37 44/44/44 46/46/46
f 49/49/49 48/48/48 47/47/47
f 48/48/48 50/50/50 47/47/47
f 50/50/50 51/51/51 47/47/47
f 51/51/51 52/52/52 47/47/47
f 53/53/53 51/51/51 50/50/50
f 54/54/54 53/53/53 50/50/50
f 50/50/50 55/55/55 54/54/54
f 52/52/52 51/51/51 56/56/56
f 52/52/52 56/56/56 57/57/57
f 51/51/51 58/58/58 56/56/56
f 51/51/51 59/59/59 58/58/58
f 59/59/59 60/60/60 58/58/58
f 56/56/56 61/61/61 57/57/57
f 58/58/58 61/61/61 56/56/56
f 60/60/60 61/61/61 58/58/58
f 61/61/61 62/62/62 57/57/57
f 61/61/61 60/60/60 62/62/62
f 65/65/65 64/64/64 63/63/63
f 64/64/64 66/66/66 63/63/63
f 66/66/66 67/67/67 63/63/63
f 67/67/67 68/68/68 63/63/63
