g LM4_PrismObstacle_22
v 1.937156 1.959567 3.492203
v 0.09854492 4.097784 6.729312
v 0.1410327 4.168212 6.756221
v 2.004009 2.000597 3.473212
v 2.224323 4.976922 1.632386
v 2.184171 4.945447 1.574558
v 1.962086 1.968279 3.415941
v 1.937156 1.959567 3.492203
v 0.3601697 7.148774 4.91612
v 0.06428467 4.173042 6.754844
v 0.2862707 7.153424 4.914793
v 0.09854492 4.097784 6.729312
v 1.962086 1.968279 3.415941
v -1.876641 2.199543 3.423762
v 1.937156 1.959567 3.492203
v -1.899311 2.210294 3.347235
v -1.677227 5.187463 1.505852
v 2.184171 4.945447 1.574558
v -1.716788 5.224909 1.561661
v -1.937102 2.248584 3.402486
v -1.876641 2.199543 3.423762
v 2.163628 5.019069 1.599932
v 2.224323 4.976922 1.632386
v -1.650168 5.259045 1.531491
v -1.716788 5.224909 1.561661
v 0.2862707 7.153424 4.914793
v 0.3250147 7.157285 4.837042
v 0.3601697 7.148774 4.91612
v -1.937102 2.248584 3.402486
v 0.09854492 4.097784 6.729312
v -1.876641 2.199543 3.423762
v 0.06428467 4.173042 6.754844
v 0.2862707 7.153424 4.914793
v -1.716788 5.224909 1.561661
v -1.878945 2.131441 3.313378
v -0.04033569 -0.006777025 0.07626792
v -0.07674927 0.004828199 -0.001377344
v -1.93964 2.173587 3.280925
v -1.719325 5.149911 1.440098
v -1.679033 5.183288 1.496751
v -1.897718 2.205906 3.338195
v -1.878945 2.131441 3.313378
v 0.1451367 2.982249 -1.846227
v 0 -9.02184E-07 -3.908346E-07
v 0.2190369 2.9776 -1.8449
v -0.04033569 -0.006777025 0.07626792
v -1.897718 2.205906 3.338195
v 1.934852 1.891464 3.381819
v -1.878945 2.131441 3.313378
v 1.963538 1.961989 3.408077
v 2.182223 4.93937 1.566633
v -1.679033 5.183288 1.496751
v 2.221783 4.901924 1.510823
v 2.00147 1.925601 3.35165
v 1.934852 1.891464 3.381819
v -1.652474 5.190944 1.421107
v -1.719325 5.149911 1.440098
v 2.161323 4.950967 1.489548
v 2.221783 4.901924 1.510823
v 0.2190369 2.9776 -1.8449
v 0.1861365 3.052726 -1.816003
v 0.1451367 2.982249 -1.846227
v 2.00147 1.925601 3.35165
v -0.04033569 -0.006777025 0.07626792
v 1.934852 1.891464 3.381819
v 0 -9.02184E-07 -3.908346E-07
v 0.2190369 2.9776 -1.8449
v 2.221783 4.901924 1.510823
vt 0.985325 0.003978
vt 0.502785 0.003978
vt 0.497305 0.015109
vt 0.986732 0.015109
vt 0.986732 0.497533
vt 0.995448 0.497533
vt 0.995448 0.015109
vt 0.992233 0.00616
vt 0.497305 0.497533
vt 0.488821 0.015109
vt 0.488821 0.497533
vt 0.494286 0.00265
vt 0.979105 0.513117
vt 0.987035 0.985809
vt 0.987035 0.517207
vt 0.979105 0.98756
vt 0.536798 0.986926
vt 0.536418 0.513118
vt 0.536793 0.99645
vt 0.979105 0.997068
vt 0.985339 0.993666
vt 0.527466 0.517311
vt 0.526673 0.506718
vt 0.527814 0.982931
vt 0.527033 0.993516
vt 0.08799 0.757141
vt 0.096952 0.751127
vt 0.087952 0.745163
vt 0.004552 0.015109
vt 0.488821 0.005142
vt 0.004552 0.005142
vt 0.488821 0.015109
vt 0.488821 0.497533
vt 0.004552 0.497532
vt 0.985325 0.003978
vt 0.502785 0.003978
vt 0.497305 0.015109
vt 0.986732 0.015109
vt 0.986732 0.497533
vt 0.995448 0.497533
vt 0.995448 0.015109
vt 0.992233 0.00616
vt 0.497305 0.497533
vt 0.488821 0.015109
vt 0.488821 0.497533
vt 0.494286 0.00265
vt 0.979105 0.513117
vt 0.987035 0.985809
vt 0.987035 0.517207
vt 0.979105 0.98756
vt 0.536798 0.986926
vt 0.536418 0.513118
vt 0.536793 0.99645
vt 0.979105 0.997068
vt 0.985339 0.993666
vt 0.527466 0.517311
vt 0.526673 0.506718
vt 0.527814 0.982931
vt 0.527033 0.993516
vt 0.08799 0.757141
vt 0.096952 0.751127
vt 0.087952 0.745163
vt 0.004552 0.015109
vt 0.488821 0.005142
vt 0.004552 0.005142
vt 0.488821 0.015109
vt 0.488821 0.497533
vt 0.004552 0.497532
vn 0.2903449 -0.8942366 0.3406475
vn -0.05319001 -0.6226376 0.7807006
vn 0.8941005 0.1745211 0.4124639
vn 0.9068617 0.1581167 0.390642
vn 0.9086623 0.1816262 0.3759586
vn -0.0002113318 -0.5145173 -0.85748
vn -0.001779508 -0.5374957 -0.8432646
vn 0.2903449 -0.8942366 0.3406475
vn 0.8956022 0.1949447 0.3998665
vn -0.8793488 0.2861124 0.3806383
vn -0.8778282 0.3065339 0.3680416
vn -0.05319001 -0.6226376 0.7807006
vn -0.001779508 -0.5374957 -0.8432646
vn -0.4101059 -0.8519914 0.3254595
vn 0.2903449 -0.8942366 0.3406475
vn -0.03530601 -0.5351954 -0.8439902
vn -0.03373755 -0.5122113 -0.8581966
vn -0.0002113318 -0.5145173 -0.85748
vn -0.8915319 0.2949689 0.3437502
vn -0.8933351 0.2713353 0.3582312
vn -0.4101059 -0.8519914 0.3254595
vn 0.1002713 0.8351566 -0.5407949
vn 0.9086623 0.1816262 0.3759586
vn 0.02453395 0.8401631 -0.5417786
vn -0.8915319 0.2949689 0.3437502
vn -0.8778282 0.3065339 0.3680416
vn 0.06361175 0.8730817 -0.4834065
vn 0.8956022 0.1949447 0.3998665
vn -0.8933351 0.2713353 0.3582312
vn -0.05319001 -0.6226376 0.7807006
vn -0.4101059 -0.8519914 0.3254595
vn -0.8793488 0.2861124 0.3806383
vn -0.8778282 0.3065339 0.3680416
vn -0.8915319 0.2949689 0.3437502
vn -0.4059118 -0.6668867 0.6248982
vn -0.0651445 -0.9759545 0.2080124
vn -0.8956364 -0.1952707 -0.3996306
vn -0.9086069 -0.1816951 -0.376059
vn -0.9069172 -0.1580517 -0.390539
vn 0.001897563 0.5372975 0.8433906
vn 6.463355E-05 0.51433 0.8575923
vn -0.4059118 -0.6668867 0.6248982
vn -0.8941169 -0.174879 -0.412277
vn 0.8778128 -0.3068617 -0.3678051
vn 0.8793134 -0.2864686 -0.3804517
vn -0.0651445 -0.9759545 0.2080124
vn 6.463355E-05 0.51433 0.8575923
vn 0.2945253 -0.7094394 0.6402739
vn -0.4059118 -0.6668867 0.6248982
vn 0.03361999 0.5124149 0.8580796
vn 0.0354525 0.5353769 0.8438689
vn 0.001897563 0.5372975 0.8433906
vn 0.8932779 -0.2713812 -0.3583388
vn 0.8915908 -0.2948997 -0.3436566
vn 0.2945253 -0.7094394 0.6402739
vn 0.02527313 0.8608772 -0.5081847
vn -0.9069172 -0.1580517 -0.390539
vn 0.101011 0.8558833 -0.5072086
vn 0.8932779 -0.2713812 -0.3583388
vn 0.8793134 -0.2864686 -0.3804517
vn 0.06190206 0.8225458 -0.5653199
vn -0.8941169 -0.174879 -0.412277
vn 0.8915908 -0.2948997 -0.3436566
vn -0.0651445 -0.9759545 0.2080124
vn 0.2945253 -0.7094394 0.6402739
vn 0.8778128 -0.3068617 -0.3678051
vn 0.8793134 -0.2864686 -0.3804517
vn 0.8932779 -0.2713812 -0.3583388
g LM4_PrismObstacle_22_0
f 3/3/3 2/2/2 1/1/1
f 4/4/4 3/3/3 1/1/1
f 4/4/4 5/5/5 3/3/3
f 6/6/6 5/5/5 4/4/4
f 7/7/7 6/6/6 4/4/4
f 7/7/7 4/4/4 8/8/8
f 5/5/5 9/9/9 3/3/3
f 10/10/10 3/3/3 9/9/9
f 11/11/11 10/10/10 9/9/9
f 3/3/3 10/10/10 12/12/12
f 15/15/15 14/14/14 13/13/13
f 14/14/14 16/16/16 13/13/13
f 16/16/16 17/17/17 13/13/13
f 17/17/17 18/18/18 13/13/13
f 19/19/19 17/17/17 16/16/16
f 20/20/20 19/19/19 16/16/16
f 16/16/16 21/21/21 20/20/20
f 18/18/18 17/17/17 22/22/22
f 18/18/18 22/22/22 23/23/23
f 17/17/17 24/24/24 22/22/22
f 17/17/17 25/25/25 24/24/24
f 25/25/25 26/26/26 24/24/24
f 22/22/22 27/27/27 23/23/23
f 24/24/24 27/27/27 22/22/22
f 26/26/26 27/27/27 24/24/24
f 27/27/27 28/28/28 23/23/23
f 27/27/27 26/26/26 28/28/28
f 31/31/31 30/30/30 29/29/29
f 30/30/30 32/32/32 29/29/29
f 32/32/32 33/33/33 29/29/29
f 33/33/33 34/34/34 29/29/29
f 37/37/37 36/36/36 35/35/35
f 38/38/38 37/37/37 35/35/35
f 38/38/38 39/39/39 37/37/37
f 40/40/40 39/39/39 38/38/38
f 41/41/41 40/40/40 38/38/38
f 41/41/41 38/38/38 42/42/42
f 39/39/39 43/43/43 37/37/37
f 44/44/44 37/37/37 43/43/43
f 45/45/45 44/44/44 43/43/43
f 37/37/37 44/44/44 46/46/46
f 49/49/49 48/48/48 47/47/47
f 48/48/48 50/50/50 47/47/47
f 50/50/50 51/51/51 47/47/47
f 51/51/51 52/52/52 47/47/47
f 53/53/53 51/51/51 50/50/50
f 54/54/54 53/53/53 50/50/50
f 50/50/50 55/55/55 54/54/54
f 52/52/52 51/51/51 56/56/56
f 52/52/52 56/56/56 57/57/57
f 51/51/51 58/58/58 56/56/56
f 51/51/51 59/59/59 58/58/58
f 59/59/59 60/60/60 58/58/58
f 56/56/56 61/61/61 57/57/57
f 58/58/58 61/61/61 56/56/56
f 60/60/60 61/61/61 58/58/58
f 61/61/61 62/62/62 57/57/57
f 61/61/61 60/60/60 62/62/62
f 65/65/65 64/64/64 63/63/63
f 64/64/64 66/66/66 63/63/63
f 66/66/66 67/67/67 63/63/63
f 67/67/67 68/68/68 63/63/63
