g LM4_PrismObstacle_16
v 1.966813 1.821066 3.501562
v 0.1178723 3.81875 6.821506
v 0.1602295 3.888005 6.851491
v 2.03368 1.862913 3.484509
v 2.256443 4.914799 1.77218
v 2.216472 4.885778 1.712964
v 1.991937 1.833024 3.425806
v 1.966813 1.821066 3.501562
v 0.3818103 6.944091 5.140066
v 0.08348145 3.892834 6.850115
v 0.3079114 6.94874 5.13874
v 0.1178723 3.81875 6.821506
v 1.991937 1.833024 3.425806
v -1.846985 2.061042 3.433122
v 1.966813 1.821066 3.501562
v -1.86946 2.075016 3.35706
v -1.644927 5.127768 1.644216
v 2.216472 4.885778 1.712964
v -1.684667 5.162785 1.701455
v -1.907429 2.1109 3.413784
v -1.846985 2.061042 3.433122
v 2.195801 4.958242 1.741382
v 2.256443 4.914799 1.77218
v -1.617996 5.198217 1.672942
v -1.684667 5.162785 1.701455
v 0.3079114 6.94874 5.13874
v 0.3468603 6.955925 5.061328
v 0.3818103 6.944091 5.140066
v -1.907429 2.1109 3.413784
v 0.1178723 3.81875 6.821506
v -1.846985 2.061042 3.433122
v 0.08348145 3.892834 6.850115
v 0.3079114 6.94874 5.13874
v -1.684667 5.162785 1.701455
v -1.84894 1.997684 3.319944
v 0 -4.156005E-07 -4.547473E-15
v -0.03621826 0.01486042 -0.07718018
v -1.909582 2.041125 3.289143
v -1.68682 5.09301 1.576816
v -1.646705 5.123984 1.634944
v -1.867841 2.071015 3.347847
v -1.84894 1.997684 3.319944
v 0.1881262 3.068013 -1.793477
v 0.04052978 0.01003132 -0.07580322
v 0.2620251 3.063364 -1.792151
v 0 -4.156005E-07 -4.547473E-15
v -1.867841 2.071015 3.347847
v 1.964857 1.757707 3.388384
v -1.84894 1.997684 3.319944
v 1.993417 1.827073 3.417688
v 2.21455 4.880041 1.704785
v -1.646705 5.123984 1.634944
v 2.254289 4.845024 1.647542
v 2.031526 1.793139 3.359868
v 1.964857 1.757707 3.388384
v -1.619951 5.134858 1.559763
v -1.68682 5.09301 1.576816
v 2.193845 4.894882 1.628203
v 2.254289 4.845024 1.647542
v 0.2620251 3.063364 -1.792151
v 0.228988 3.137175 -1.760181
v 0.1881262 3.068013 -1.793477
v 2.031526 1.793139 3.359868
v 0 -4.156005E-07 -4.547473E-15
v 1.964857 1.757707 3.388384
v 0.04052978 0.01003132 -0.07580322
v 0.2620251 3.063364 -1.792151
v 2.254289 4.845024 1.647542
vt 0.985325 0.003978
vt 0.502785 0.003978
vt 0.497305 0.015109
vt 0.986732 0.015109
vt 0.986732 0.497533
vt 0.995448 0.497533
vt 0.995448 0.015109
vt 0.992233 0.00616
vt 0.497305 0.497533
vt 0.488821 0.015109
vt 0.488821 0.497533
vt 0.494286 0.00265
vt 0.979105 0.513117
vt 0.987035 0.985809
vt 0.987035 0.517207
vt 0.979105 0.98756
vt 0.536798 0.986926
vt 0.536418 0.513118
vt 0.536793 0.99645
vt 0.979105 0.997068
vt 0.985339 0.993666
vt 0.527466 0.517311
vt 0.526673 0.506718
vt 0.527814 0.982931
vt 0.527033 0.993516
vt 0.08799 0.757141
vt 0.096952 0.751127
vt 0.087952 0.745163
vt 0.004552 0.015109
vt 0.488821 0.005142
vt 0.004552 0.005142
vt 0.488821 0.015109
vt 0.488821 0.497533
vt 0.004552 0.497532
vt 0.985325 0.003978
vt 0.502785 0.003978
vt 0.497305 0.015109
vt 0.986732 0.015109
vt 0.986732 0.497533
vt 0.995448 0.497533
vt 0.995448 0.015109
vt 0.992233 0.00616
vt 0.497305 0.497533
vt 0.488821 0.015109
vt 0.488821 0.497533
vt 0.494286 0.00265
vt 0.979105 0.513117
vt 0.987035 0.985809
vt 0.987035 0.517207
vt 0.979105 0.98756
vt 0.536798 0.986926
vt 0.536418 0.513118
vt 0.536793 0.99645
vt 0.979105 0.997068
vt 0.985339 0.993666
vt 0.527466 0.517311
vt 0.526673 0.506718
vt 0.527814 0.982931
vt 0.527033 0.993516
vt 0.08799 0.757141
vt 0.096952 0.751127
vt 0.087952 0.745163
vt 0.004552 0.015109
vt 0.488821 0.005142
vt 0.004552 0.005142
vt 0.488821 0.015109
vt 0.488821 0.497533
vt 0.004552 0.497532
vn 0.2901751 -0.9076753 0.3031895
vn -0.05474928 -0.6552345 0.7534389
vn 0.8928601 0.157498 0.4218948
vn 0.9056924 0.1420425 0.3994312
vn 0.9075128 0.166155 0.385763
vn 0.002483986 -0.4776817 -0.8785295
vn 0.0008968897 -0.5012431 -0.8653061
vn 0.2901751 -0.9076753 0.3031895
vn 0.8943784 0.1784383 0.410179
vn -0.8805892 0.2690889 0.390069
vn -0.8790519 0.2900281 0.3783537
vn -0.05474928 -0.6552345 0.7534389
vn 0.0008968897 -0.5012431 -0.8653061
vn -0.4102673 -0.8653202 0.2879266
vn 0.2901751 -0.9076753 0.3031895
vn -0.03262864 -0.4989377 -0.8660235
vn -0.0310414 -0.475371 -0.8792376
vn 0.002483986 -0.4776817 -0.8785295
vn -0.8926817 0.279494 0.3535571
vn -0.894504 0.2552653 0.3670181
vn -0.4102673 -0.8653202 0.2879266
vn 0.1010224 0.857415 -0.5046128
vn 0.9075128 0.166155 0.385763
vn 0.02528404 0.8624053 -0.5055866
vn -0.8926817 0.279494 0.3535571
vn -0.8790519 0.2900281 0.3783537
vn 0.06418003 0.8928453 -0.445767
vn 0.8943784 0.1784383 0.410179
vn -0.894504 0.2552653 0.3670181
vn -0.05474928 -0.6552345 0.7534389
vn -0.4102673 -0.8653202 0.2879266
vn -0.8805892 0.2690889 0.390069
vn -0.8790519 0.2900281 0.3783537
vn -0.8926817 0.279494 0.3535571
vn -0.4070174 -0.6930851 0.5949538
vn -0.0648959 -0.9839445 0.1662578
vn -0.8944134 -0.1787741 -0.4099568
vn -0.9074574 -0.16622 -0.3858653
vn -0.9057486 -0.1419824 -0.399325
vn -0.0007793643 0.5010404 0.8654236
vn -0.002631079 0.4774893 0.8786336
vn -0.4070174 -0.6930851 0.5949538
vn -0.8928769 -0.1578633 -0.4217227
vn 0.8790364 -0.2903651 -0.3781313
vn 0.8805538 -0.2694529 -0.3898976
vn -0.0648959 -0.9839445 0.1662578
vn -0.002631079 0.4774893 0.8786336
vn 0.2934013 -0.735756 0.6103923
vn -0.4070174 -0.6930851 0.5949538
vn 0.03092433 0.475579 0.8791293
vn 0.03277607 0.4991249 0.86591
vn -0.0007793643 0.5010404 0.8654236
vn 0.8944472 -0.2553073 -0.3671272
vn 0.8927404 -0.279429 -0.3534601
vn 0.2934013 -0.735756 0.6103923
vn 0.02591651 0.8816766 -0.4711419
vn -0.9057486 -0.1419824 -0.399325
vn 0.101657 0.876699 -0.4701751
vn 0.8944472 -0.2553073 -0.3671272
vn 0.8805538 -0.2694529 -0.3898976
vn 0.062729 0.8458286 -0.5297539
vn -0.8928769 -0.1578633 -0.4217227
vn 0.8927404 -0.279429 -0.3534601
vn -0.0648959 -0.9839445 0.1662578
vn 0.2934013 -0.735756 0.6103923
vn 0.8790364 -0.2903651 -0.3781313
vn 0.8805538 -0.2694529 -0.3898976
vn 0.8944472 -0.2553073 -0.3671272
g LM4_PrismObstacle_16_0
f 3/3/3 2/2/2 1/1/1
f 4/4/4 3/3/3 1/1/1
f 4/4/4 5/5/5 3/3/3
f 6/6/6 5/5/5 4/4/4
f 7/7/7 6/6/6 4/4/4
f 7/7/7 4/4/4 8/8/8
f 5/5/5 9/9/9 3/3/3
f 10/10/10 3/3/3 9/9/9
f 11/11/11 10/10/10 9/9/9
f 3/3/3 10/10/10 12/12/12
f 15/15/15 14/14/14 13/13/13
f 14/14/14 16/16/16 13/13/13
f 16/16/16 17/17/17 13/13/13
f 17/17/17 18/18/18 13/13/13
f 19/19/19 17/17/17 16/16/16
f 20/20/20 19/19/19 16/16/16
f 16/16/16 21/21/21 20/20/20
f 18/18/18 17/17/17 22/22/22
f 18/18/18 22/22/22 23/23/23
f 17/17/17 24/24/24 22/22/22
f 17/17/17 25/25/25 24/24/24
f 25/25/25 26/26/26 24/24/24
f 22/22/22 27/27/27 23/23/23
f 24/24/24 27/27/27 22/22/22
f 26/26/26 27/27/27 24/24/24
f 27/27/27 28/28/28 23/23/23
f 27/27/27 26/26/26 28/28/28
f 31/31/31 30/30/30 29/29/29
f 30/30/30 32/32/32 29/29/29
f 32/32/32 33/33/33 29/29/29
f 33/33/33 34/34/34 29/29/29
f 37/37/37 36/36/36 35/35/35
f 38/38/38 37/37/37 35/35/35
f 38/38/38 39/39/39 37/37/37
f 40/40/40 39/39/39 38/38/38
f 41/41/41 40/40/40 38/38/38
f 41/41/41 38/38/38 42/42/42
f 39/39/39 43/43/43 37/37/37
f 44/44/44 37/37/37 43/43/43
f 45/45/45 44/44/44 43/43/43
f 37/37/37 44/44/44 46/46/46
f 49/49/49 48/48/48 47/47/47
f 48/48/48 50/50/50 47/47/47
f 50/50/50 51/51/51 47/47/47
f 51/51/51 52/52/52 47/47/47
f 53/53/53 51/51/51 50/50/50
f 54/54/54 53/53/53 50/50/50
f 50/50/50 55/55/55 54/54/54
f 52/52/52 51/51/51 56/56/56
f 52/52/52 56/56/56 57/57/57
f 51/51/51 58/58/58 56/56/56
f 51/51/51 59/59/59 58/58/58
f 59/59/59 60/60/60 58/58/58
f 56/56/56 61/61/61 57/57/57
f 58/58/58 61/61/61 56/56/56
f 60/60/60 61/61/61 58/58/58
f 61/61/61 62/62/62 57/57/57
f 61/61/61 60/60/60 62/62/62
f 65/65/65 64/64/64 63/63/63
f 64/64/64 66/66/66 63/63/63
f 66/66/66 67/67/67 63/63/63
f 67/67/67 68/68/68 63/63/63
