g LM4_SoftvinylPlatform04
v 2.619292E-07 -0.05447625 0.07007262
v 2.619292E-07 -0.1859435 0.0585443
v -2.964415 -0.1856994 0.05711364
v -2.965852 -0.05292596 0.07316344
v 2.619292E-07 1.283549E-06 -6.194767E-07
v -2.927633 0.001114565 0.0002874664
v -2.920202 0.01096076 -3.040977
v 1.093413E-07 0.003548647 -3.041163
v -3.002766 -0.05461053 0.02558532
v -2.964415 -0.1856994 0.05711364
v -2.998873 -0.1903796 -0.0007232756
v -3.004698 -0.04066522 -3.031534
v -2.996589 -0.9240197 -3.04795
v -2.991879 -1.656923 -6.098047
v -3.001207 -0.03111932 -6.088653
v -2.979778 -2.277069 -8.70542
v -2.992869 -0.04112421 -8.711372
v -2.911075 0.01100714 -6.082252
v 2.619292E-07 0.003546205 -6.082325
v 2.619292E-07 0.003607241 -8.689097
v -2.902026 0.003284975 -8.689054
v 2.619292E-07 -0.06146112 -8.737862
v -2.90943 -0.05234979 -8.75166
v -2.979778 -2.277069 -8.70542
v 2.619292E-07 -2.271608 -8.729976
v -2.89349 -2.274442 -8.737642
v 2.619292E-07 -0.05447625 0.07007262
v 2.964415 -0.1856994 0.05711364
v 2.619292E-07 -0.1859435 0.0585443
v 2.965852 -0.05292596 0.07316344
v 2.619292E-07 1.283549E-06 -6.194767E-07
v 2.927634 0.001114565 0.0002874664
v 2.920202 0.01096076 -3.040977
v 1.093413E-07 0.003548647 -3.041163
v 3.002766 -0.05461053 0.02558532
v 2.964415 -0.1856994 0.05711364
v 2.998874 -0.1903796 -0.0007232756
v 3.004698 -0.04066522 -3.031534
v 2.99659 -0.9240197 -3.04795
v 2.991879 -1.656923 -6.098047
v 3.001207 -0.03111932 -6.088653
v 2.979778 -2.277069 -8.70542
v 2.99287 -0.04112421 -8.711372
v 2.911075 0.01100714 -6.082252
v 2.619292E-07 0.003546205 -6.082325
v 2.619292E-07 0.003607241 -8.689097
v 2.902026 0.003284975 -8.689054
v 2.619292E-07 -0.06146112 -8.737862
v 2.90943 -0.05234979 -8.75166
v 2.979778 -2.277069 -8.70542
v 2.619292E-07 -2.271608 -8.729976
v 2.89349 -2.274442 -8.737642
vt 0.1022528 0.01555882
vt 0.149939 0.003569109
vt 0.724585 0.003574
vt 0.724585 0.015562
vt 0.1079314 0.02475383
vt 0.711736 0.024737
vt 0.711736 0.291638
vt 0.08786758 0.2917852
vt 0.724585 0.024737
vt 0.740468 0.015562
vt 0.740888 0.024737
vt 0.724585 0.291638
vt 0.831807 0.291638
vt 0.920007 0.562055
vt 0.724585 0.562055
vt 0.989386 0.796501
vt 0.724585 0.796501
vt 0.711736 0.562055
vt 0.09276166 0.5614853
vt 0.1044947 0.7914772
vt 0.711736 0.791516
vt 0.1023073 0.8031926
vt 0.711736 0.803171
vt 0.724585 0.996138
vt 0.05561081 0.9961888
vt 0.711736 0.996138
vt 0.09858965 0.01555839
vt 0.724585 0.003574
vt 0.1465383 0.003571002
vt 0.724585 0.015562
vt 0.1044929 0.02475329
vt 0.711736 0.024737
vt 0.711736 0.291638
vt 0.0841127 0.2917821
vt 0.724585 0.024737
vt 0.740468 0.015562
vt 0.740888 0.024737
vt 0.724585 0.291638
vt 0.831807 0.291638
vt 0.920007 0.562055
vt 0.724585 0.562055
vt 0.989386 0.796501
vt 0.724585 0.796501
vt 0.711736 0.562055
vt 0.08882926 0.5614861
vt 0.100671 0.7914771
vt 0.711736 0.791516
vt 0.09847265 0.8031929
vt 0.711736 0.803171
vt 0.724585 0.996138
vt 0.05184391 0.9961949
vt 0.711736 0.996138
vn 0.0002208905 0.2964385 0.955052
vn -7.122711E-05 -0.1019509 0.9947895
vn -0.01931149 -0.1030301 0.9944907
vn -0.01413684 0.2252429 0.9742001
vn 0 0.9998067 0.01966277
vn -0.01894867 0.9995465 0.02340461
vn -0.01474786 0.9998906 0.001128316
vn 0 0.9999994 0.0011092
vn -0.9924022 0.1229065 0.005638638
vn -0.01931149 -0.1030301 0.9944907
vn -0.9999199 -0.01218509 0.003425571
vn -0.9966648 0.08160284 0.0001907101
vn -0.9999677 -0.008046948 -0.0001010982
vn -0.9999782 -0.00621049 -0.002247511
vn -0.9987992 0.048947 -0.002106393
vn -0.9989439 -0.005999405 -0.04555563
vn -0.9987609 0.03347594 -0.03682366
vn -0.01321576 0.9999124 -0.0007803043
vn 0 0.9999998 -0.0007450045
vn 0.00142902 0.9997143 -0.02385967
vn -0.0146653 0.9995913 -0.02453907
vn 0.003583897 0.01984477 -0.9997967
vn -0.009518737 0.01817692 -0.9997895
vn -0.9989439 -0.005999405 -0.04555563
vn 0.003580041 -0.004800224 -0.9999821
vn -0.008867667 -0.004871211 -0.9999489
vn -0.0002204881 0.2964367 0.9550525
vn 0.019313 -0.1030301 0.9944907
vn 7.21391E-05 -0.1019509 0.9947895
vn 0.0141376 0.2252423 0.9742002
vn 0 0.9998067 0.01966277
vn 0.01894863 0.9995465 0.02340487
vn 0.01474787 0.9998906 0.001128261
vn 0 0.9999994 0.0011092
vn 0.9924022 0.1229065 0.005638535
vn 0.019313 -0.1030301 0.9944907
vn 0.9999199 -0.01218573 0.003425445
vn 0.9966648 0.08160286 0.0001907327
vn 0.9999677 -0.008046772 -0.0001010872
vn 0.9999782 -0.006210299 -0.00224751
vn 0.9987992 0.04894714 -0.002106399
vn 0.9989439 -0.005999339 -0.04555571
vn 0.9987609 0.0334762 -0.03682375
vn 0.01321577 0.9999124 -0.0007803446
vn 0 0.9999998 -0.0007450045
vn -0.001429007 0.9997143 -0.02385957
vn 0.01466527 0.9995913 -0.02453895
vn -0.003584045 0.01984464 -0.9997967
vn 0.009518428 0.01817681 -0.9997895
vn 0.9989439 -0.005999339 -0.04555571
vn -0.003580205 -0.004800218 -0.9999821
vn 0.008867348 -0.004871203 -0.9999489
g LM4_SoftvinylPlatform04_0
f 3/3/3 2/2/2 1/1/1
f 4/4/4 3/3/3 1/1/1
f 4/4/4 1/1/1 5/5/5
f 6/6/6 4/4/4 5/5/5
f 6/6/6 5/5/5 7/7/7
f 5/5/5 8/8/8 7/7/7
f 9/9/9 4/4/4 6/6/6
f 4/4/4 9/9/9 10/10/10
f 9/9/9 11/11/11 10/10/10
f 12/12/12 9/9/9 6/6/6
f 9/9/9 12/12/12 11/11/11
f 7/7/7 12/12/12 6/6/6
f 12/12/12 13/13/13 11/11/11
f 14/14/14 13/13/13 12/12/12
f 15/15/15 14/14/14 12/12/12
f 15/15/15 12/12/12 7/7/7
f 16/16/16 14/14/14 15/15/15
f 17/17/17 16/16/16 15/15/15
f 7/7/7 8/8/8 18/18/18
f 18/18/18 15/15/15 7/7/7
f 17/17/17 15/15/15 18/18/18
f 8/8/8 19/19/19 18/18/18
f 18/18/18 19/19/19 20/20/20
f 21/21/21 18/18/18 20/20/20
f 21/21/21 17/17/17 18/18/18
f 21/21/21 20/20/20 22/22/22
f 17/17/17 21/21/21 23/23/23
f 23/23/23 21/21/21 22/22/22
f 24/24/24 17/17/17 23/23/23
f 23/23/23 22/22/22 25/25/25
f 26/26/26 24/24/24 23/23/23
f 26/26/26 23/23/23 25/25/25
f 29/29/29 28/28/28 27/27/27
f 28/28/28 30/30/30 27/27/27
f 27/27/27 30/30/30 31/31/31
f 30/30/30 32/32/32 31/31/31
f 31/31/31 32/32/32 33/33/33
f 34/34/34 31/31/31 33/33/33
f 30/30/30 35/35/35 32/32/32
f 35/35/35 30/30/30 36/36/36
f 37/37/37 35/35/35 36/36/36
f 35/35/35 38/38/38 32/32/32
f 38/38/38 35/35/35 37/37/37
f 38/38/38 33/33/33 32/32/32
f 39/39/39 38/38/38 37/37/37
f 39/39/39 40/40/40 38/38/38
f 40/40/40 41/41/41 38/38/38
f 38/38/38 41/41/41 33/33/33
f 40/40/40 42/42/42 41/41/41
f 42/42/42 43/43/43 41/41/41
f 34/34/34 33/33/33 44/44/44
f 41/41/41 44/44/44 33/33/33
f 41/41/41 43/43/43 44/44/44
f 45/45/45 34/34/34 44/44/44
f 45/45/45 44/44/44 46/46/46
f 44/44/44 47/47/47 46/46/46
f 43/43/43 47/47/47 44/44/44
f 46/46/46 47/47/47 48/48/48
f 47/47/47 43/43/43 49/49/49
f 47/47/47 49/49/49 48/48/48
f 43/43/43 50/50/50 49/49/49
f 48/48/48 49/49/49 51/51/51
f 50/50/50 52/52/52 49/49/49
f 49/49/49 52/52/52 51/51/51
