g LM4_PrismObstacle_13
v 1.870515 -2.937771 2.092574
v 1.910977 -0.8214281 5.302033
v 1.949434 -0.7477159 5.326042
v 1.934307 -2.893249 2.071085
v 1.934307 0.03412126 0.140754
v 1.895183 -0.001523265 0.08466511
v 1.893479 -2.929829 2.015612
v 1.870515 -2.937771 2.092574
v 1.948005 2.183834 3.396334
v 1.87252 -0.7477159 5.326042
v 1.873948 2.183834 3.396334
v 1.910977 -0.8214281 5.302033
v 1.893479 -2.929829 2.015612
v 1.548138E-07 -2.937771 2.092574
v 1.870515 -2.937771 2.092574
v -0.02466659 -2.930764 2.01623
v -0.02296371 -0.002458324 0.08528279
v 1.895183 -0.001523265 0.08466511
v -0.06379135 0.03412126 0.140754
v -0.06379135 -2.893249 2.071085
v 1.548138E-07 -2.937771 2.092574
v 1.870515 0.07140886 0.1082955
v 1.934307 0.03412126 0.140754
v 1.548138E-07 0.07140886 0.1082955
v -0.06379135 0.03412126 0.140754
v 1.873948 2.183834 3.396334
v 1.910977 2.187752 3.317755
v 1.948005 2.183834 3.396334
v -0.06379135 -2.893249 2.071085
v 1.910977 -0.8214281 5.302033
v 1.548138E-07 -2.937771 2.092574
v 1.87252 -0.7477159 5.326042
v 1.873948 2.183834 3.396334
v -0.06379135 0.03412126 0.140754
v 1.548138E-07 -3.009183 1.984278
v 1.910977 -5.125525 -1.225179
v 1.87252 -5.118556 -1.302393
v -0.06379135 -2.971894 1.95182
v -0.06379135 -0.04452375 0.02148885
v -0.02466659 -0.007007884 0.07634481
v -0.02296371 -2.935316 2.007292
v 1.548138E-07 -3.009183 1.984278
v 1.873948 -2.190113 -3.236809
v 1.949434 -5.118556 -1.302393
v 1.948005 -2.190113 -3.236809
v 1.910977 -5.125525 -1.225179
v -0.02296371 -2.935316 2.007292
v 1.870515 -3.009183 1.984278
v 1.548138E-07 -3.009183 1.984278
v 1.895183 -2.936251 2.007908
v 1.893479 -0.007944164 0.07696249
v -0.02466659 -0.007007884 0.07634481
v 1.934307 -0.04452375 0.02148885
v 1.934307 -2.971894 1.95182
v 1.870515 -3.009183 1.984278
v 1.548138E-07 -1.048727E-06 -4.067154E-07
v -0.06379135 -0.04452375 0.02148885
v 1.870515 -1.048727E-06 -4.067154E-07
v 1.934307 -0.04452375 0.02148885
v 1.948005 -2.190113 -3.236809
v 1.910977 -2.116343 -3.209458
v 1.873948 -2.190113 -3.236809
v 1.934307 -2.971894 1.95182
v 1.910977 -5.125525 -1.225179
v 1.870515 -3.009183 1.984278
v 1.949434 -5.118556 -1.302393
v 1.948005 -2.190113 -3.236809
v 1.934307 -0.04452375 0.02148885
vt 0.985325 0.003978
vt 0.502785 0.003978
vt 0.497305 0.015109
vt 0.986732 0.015109
vt 0.986732 0.497533
vt 0.995448 0.497533
vt 0.995448 0.015109
vt 0.992233 0.00616
vt 0.497305 0.497533
vt 0.488821 0.015109
vt 0.488821 0.497533
vt 0.494286 0.00265
vt 0.979105 0.513117
vt 0.987035 0.985809
vt 0.987035 0.517207
vt 0.979105 0.98756
vt 0.536798 0.986926
vt 0.536418 0.513118
vt 0.536793 0.99645
vt 0.979105 0.997068
vt 0.985339 0.993666
vt 0.527466 0.517311
vt 0.526673 0.506718
vt 0.527814 0.982931
vt 0.527033 0.993516
vt 0.08799 0.757141
vt 0.096952 0.751127
vt 0.087952 0.745163
vt 0.004552 0.015109
vt 0.488821 0.005142
vt 0.004552 0.005142
vt 0.488821 0.015109
vt 0.488821 0.497533
vt 0.004552 0.497532
vt 0.985325 0.003978
vt 0.502785 0.003978
vt 0.497305 0.015109
vt 0.986732 0.015109
vt 0.986732 0.497533
vt 0.995448 0.497533
vt 0.995448 0.015109
vt 0.992233 0.00616
vt 0.497305 0.497533
vt 0.488821 0.015109
vt 0.488821 0.497533
vt 0.494286 0.00265
vt 0.979105 0.513117
vt 0.987035 0.985809
vt 0.987035 0.517207
vt 0.979105 0.98756
vt 0.536798 0.986926
vt 0.536418 0.513118
vt 0.536793 0.99645
vt 0.979105 0.997068
vt 0.985339 0.993666
vt 0.527466 0.517311
vt 0.526673 0.506718
vt 0.527814 0.982931
vt 0.527033 0.993516
vt 0.08799 0.757141
vt 0.096952 0.751127
vt 0.087952 0.745163
vt 0.004552 0.015109
vt 0.488821 0.005142
vt 0.004552 0.005142
vt 0.488821 0.015109
vt 0.488821 0.497533
vt 0.004552 0.497532
vn 0.465517 -0.8571829 0.2202984
vn 0.06291934 -0.7173054 0.6939121
vn 0.9998529 0.00262193 0.01694677
vn 0.9998 -0.01971222 -0.003366753
vn 0.9997962 0.004774649 -0.01961644
vn 0.03342317 -0.5390431 -0.8416148
vn 0.03367294 -0.5614184 -0.8268468
vn 0.465517 -0.8571829 0.2202984
vn 0.9998529 0.01450381 0.009160073
vn -0.8886208 0.2421875 0.3894846
vn -0.8886114 0.2622756 0.3762728
vn 0.06291934 -0.7173054 0.6939121
vn 0.03367294 -0.5614184 -0.8268468
vn -0.4469027 -0.7469342 0.4923081
vn 0.465517 -0.8571829 0.2202984
vn -0.03342288 -0.5612407 -0.8269775
vn -0.03367234 -0.5388529 -0.8417266
vn 0.03342317 -0.5390431 -0.8416148
vn -0.9019948 0.2491527 0.352602
vn -0.9020509 0.2258996 0.3677954
vn -0.4469027 -0.7469342 0.4923081
vn 0.04446507 0.8180745 -0.5733907
vn 0.9997962 0.004774649 -0.01961644
vn -0.07330576 0.8324293 -0.5492611
vn -0.9019948 0.2491527 0.352602
vn -0.8886114 0.2622756 0.3762728
vn 0.0240177 0.871532 -0.4897499
vn 0.9998529 0.01450381 0.009160073
vn -0.9020509 0.2258996 0.3677954
vn 0.06291934 -0.7173054 0.6939121
vn -0.4469027 -0.7469342 0.4923081
vn -0.8886208 0.2421875 0.3894846
vn -0.8886114 0.2622756 0.3762728
vn -0.9019948 0.2491527 0.352602
vn -0.4483584 -0.747515 0.490098
vn 0.06291874 -0.9203597 0.3859785
vn -0.8886208 -0.2625962 -0.376027
vn -0.9019939 -0.2491493 -0.3526068
vn -0.9020517 -0.2258939 -0.3677971
vn -0.03342272 0.5612407 0.8269776
vn -0.03367219 0.5388527 0.8417268
vn -0.4483584 -0.747515 0.490098
vn -0.8886113 -0.2425402 -0.3892869
vn 0.9998529 -0.0145438 -0.009085173
vn 0.9998529 -0.002706591 -0.0169391
vn 0.06291874 -0.9203597 0.3859785
vn -0.03367219 0.5388527 0.8417268
vn 0.4632302 -0.5394781 0.7031224
vn -0.4483584 -0.747515 0.490098
vn 0.03342284 0.5390429 0.8416149
vn 0.03367227 0.5614183 0.8268469
vn -0.03342272 0.5612407 0.8269776
vn 0.9997973 0.01987113 0.003261693
vn 0.999799 -0.004615354 0.01951208
vn 0.4632302 -0.5394781 0.7031224
vn -0.07323523 0.8329886 -0.5484219
vn -0.9020517 -0.2258939 -0.3677971
vn 0.04450847 0.8491099 -0.5263378
vn 0.9997973 0.01987113 0.003261693
vn 0.9998529 -0.002706591 -0.0169391
vn 0.02401905 0.7934508 -0.6081603
vn -0.8886113 -0.2425402 -0.3892869
vn 0.999799 -0.004615354 0.01951208
vn 0.06291874 -0.9203597 0.3859785
vn 0.4632302 -0.5394781 0.7031224
vn 0.9998529 -0.0145438 -0.009085173
vn 0.9998529 -0.002706591 -0.0169391
vn 0.9997973 0.01987113 0.003261693
g LM4_PrismObstacle_13_0
f 3/3/3 2/2/2 1/1/1
f 4/4/4 3/3/3 1/1/1
f 4/4/4 5/5/5 3/3/3
f 6/6/6 5/5/5 4/4/4
f 7/7/7 6/6/6 4/4/4
f 7/7/7 4/4/4 8/8/8
f 5/5/5 9/9/9 3/3/3
f 10/10/10 3/3/3 9/9/9
f 11/11/11 10/10/10 9/9/9
f 3/3/3 10/10/10 12/12/12
f 15/15/15 14/14/14 13/13/13
f 14/14/14 16/16/16 13/13/13
f 16/16/16 17/17/17 13/13/13
f 17/17/17 18/18/18 13/13/13
f 19/19/19 17/17/17 16/16/16
f 20/20/20 19/19/19 16/16/16
f 16/16/16 21/21/21 20/20/20
f 18/18/18 17/17/17 22/22/22
f 18/18/18 22/22/22 23/23/23
f 17/17/17 24/24/24 22/22/22
f 17/17/17 25/25/25 24/24/24
f 25/25/25 26/26/26 24/24/24
f 22/22/22 27/27/27 23/23/23
f 24/24/24 27/27/27 22/22/22
f 26/26/26 27/27/27 24/24/24
f 27/27/27 28/28/28 23/23/23
f 27/27/27 26/26/26 28/28/28
f 31/31/31 30/30/30 29/29/29
f 30/30/30 32/32/32 29/29/29
f 32/32/32 33/33/33 29/29/29
f 33/33/33 34/34/34 29/29/29
f 37/37/37 36/36/36 35/35/35
f 38/38/38 37/37/37 35/35/35
f 38/38/38 39/39/39 37/37/37
f 40/40/40 39/39/39 38/38/38
f 41/41/41 40/40/40 38/38/38
f 41/41/41 38/38/38 42/42/42
f 39/39/39 43/43/43 37/37/37
f 44/44/44 37/37/37 43/43/43
f 45/45/45 44/44/44 43/43/43
f 37/37/37 44/44/44 46/46/46
f 49/49/49 48/48/48 47/47/47
f 48/48/48 50/50/50 47/47/47
f 50/50/50 51/51/51 47/47/47
f 51/51/51 52/52/52 47/47/47
f 53/53/53 51/51/51 50/50/50
f 54/54/54 53/53/53 50/50/50
f 50/50/50 55/55/55 54/54/54
f 52/52/52 51/51/51 56/56/56
f 52/52/52 56/56/56 57/57/57
f 51/51/51 58/58/58 56/56/56
f 51/51/51 59/59/59 58/58/58
f 59/59/59 60/60/60 58/58/58
f 56/56/56 61/61/61 57/57/57
f 58/58/58 61/61/61 56/56/56
f 60/60/60 61/61/61 58/58/58
f 61/61/61 62/62/62 57/57/57
f 61/61/61 60/60/60 62/62/62
f 65/65/65 64/64/64 63/63/63
f 64/64/64 66/66/66 63/63/63
f 66/66/66 67/67/67 63/63/63
f 67/67/67 68/68/68 63/63/63
