g LM4_SoftvinylPlatform02
v -5.885524 -0.000183233 0.04375129
v -5.885524 -0.1309401 0.03180793
v -9.397361 -0.1317335 0.03412239
v -9.395215 0.0004466498 0.04523567
v -11.73335 -0.1310914 0.03153449
v -5.885524 0.054536 -0.02561394
v -11.73476 0.001682001 0.04757942
v -9.372554 0.05464587 -0.02556511
v -9.367264 0.05816881 -3.066678
v -5.885524 0.05813219 -3.066864
v -9.36198 0.05816881 -6.107801
v -5.885524 0.05812731 -6.108104
v -5.885524 0.05906481 -8.714881
v -9.357447 0.05736315 -8.714471
v -5.885523 -0.008105597 -8.763397
v -11.68093 0.0656151 -6.107831
v -11.6899 0.06557116 -3.066561
v -11.6972 0.05572253 -0.02530144
v -9.361863 -0.005600713 -8.763485
v -5.885524 -2.217273 -8.75495
v -9.353949 -2.216729 -8.75617
v -11.77104 -2.568912E-06 1.29284E-06
v -11.73335 -0.1310914 0.03153449
v -11.76722 -0.1357716 -0.02629754
v -11.77294 0.01394274 -3.057108
v -11.76497 -0.8694118 -3.073534
v -11.76034 -1.602315 -6.123631
v -11.76951 0.02348864 -6.114237
v -11.74845 -2.222461 -8.731005
v -11.76132 0.01348376 -8.736952
v -11.67931 0.002258173 -8.777245
v -11.66365 -2.219834 -8.763221
v -11.74845 -2.222461 -8.731005
v -11.67204 0.05789294 -8.714627
v -5.885524 -0.000183233 0.04375129
v -2.373686 -0.1317335 0.03412239
v -5.885524 -0.1309401 0.03180793
v -2.375832 0.0004466498 0.04523567
v -0.03769331 -0.1310914 0.03153449
v -5.885524 0.054536 -0.02561394
v -0.03628218 0.001682001 0.04757942
v -2.39849 0.05464587 -0.02556511
v -2.403781 0.05816881 -3.066678
v -5.885524 0.05813219 -3.066864
v -2.409067 0.05816881 -6.107801
v -5.885524 0.05812731 -6.108104
v -5.885524 0.05906481 -8.714881
v -2.4136 0.05736315 -8.714471
v -5.885523 -0.008105597 -8.763397
v -0.09011763 0.0656151 -6.107831
v -0.08114668 0.06557116 -3.066561
v -0.07384443 0.05572253 -0.02530144
v -2.409184 -0.005600713 -8.763485
v -5.885524 -2.217273 -8.75495
v -2.417098 -2.216729 -8.75617
v -1.661992E-06 -2.568912E-06 1.29284E-06
v -0.03769331 -0.1310914 0.03153449
v -0.003827346 -0.1357716 -0.02629754
v 0.001895311 0.01394274 -3.057108
v -0.0265251 -1.165618 -3.11576
v -0.03115522 -1.898521 -6.165858
v -0.001534865 0.02348864 -6.114237
v -0.02259566 -2.222461 -8.731005
v -0.009729445 0.01348376 -8.736952
v -0.09173506 0.002258173 -8.777245
v -0.1074003 -2.219834 -8.763221
v -0.02259566 -2.222461 -8.731005
v -0.09901167 0.05789294 -8.714627
vt 0.003321 0.015562
vt 0.003321 0.003574
vt 0.430465 0.003574
vt 0.430465 0.015562
vt 0.724585 0.003574
vt 0.003321 0.024737
vt 0.724585 0.015562
vt 0.430465 0.024737
vt 0.430465 0.291638
vt 0.003321 0.291638
vt 0.430465 0.562055
vt 0.003321 0.562055
vt 0.003321 0.791516
vt 0.430465 0.791516
vt 0.003321 0.803171
vt 0.711736 0.562055
vt 0.711736 0.291638
vt 0.711736 0.024737
vt 0.430465 0.803171
vt 0.003321 0.996138
vt 0.430465 0.996138
vt 0.724585 0.024737
vt 0.740468 0.015562
vt 0.740888 0.024737
vt 0.724585 0.291638
vt 0.831807 0.291638
vt 0.920007 0.562055
vt 0.724585 0.562055
vt 0.989386 0.796501
vt 0.724585 0.796501
vt 0.711736 0.803171
vt 0.711736 0.996138
vt 0.724585 0.996138
vt 0.711736 0.791516
vt 0.003321 0.015562
vt 0.430465 0.003574
vt 0.003321 0.003574
vt 0.430465 0.015562
vt 0.724585 0.003574
vt 0.003321 0.024737
vt 0.724585 0.015562
vt 0.430465 0.024737
vt 0.430465 0.291638
vt 0.003321 0.291638
vt 0.430465 0.562055
vt 0.003321 0.562055
vt 0.003321 0.791516
vt 0.430465 0.791516
vt 0.003321 0.803171
vt 0.711736 0.562055
vt 0.711736 0.291638
vt 0.711736 0.024737
vt 0.430465 0.803171
vt 0.003321 0.996138
vt 0.430465 0.996138
vt 0.724585 0.024737
vt 0.740468 0.015562
vt 0.740888 0.024737
vt 0.724585 0.291638
vt 0.831807 0.291638
vt 0.920007 0.562055
vt 0.724585 0.562055
vt 0.989386 0.796501
vt 0.724585 0.796501
vt 0.711736 0.803171
vt 0.711736 0.996138
vt 0.724585 0.996138
vt 0.711736 0.791516
vn 0 0.2994981 0.9540969
vn -1.0819E-07 -0.0873566 0.9961771
vn 0.0002822611 -0.09330397 0.9956377
vn 0.0004071369 0.2907765 0.9567909
vn -0.02442301 -0.1033022 0.9943501
vn 0 0.9998249 0.0187134
vn -0.0178037 0.2270995 0.9737087
vn 0.000737544 0.9998072 0.01962228
vn 0.001014852 0.9999992 0.0007953637
vn 0 0.9999999 0.0005859319
vn 0.0009445411 0.9999995 -0.0002912791
vn 0 1 1.134499E-05
vn 0 0.9997007 -0.02446788
vn 0.0005746335 0.9997016 -0.02442305
vn -2.380512E-07 0.01795991 -0.9998387
vn -0.01648282 0.9998639 -0.0007880016
vn -0.01842693 0.9998295 0.001132118
vn -0.02372448 0.999451 0.02312769
vn 0.001915884 0.01863798 -0.9998245
vn -2.322493E-07 -0.003565403 -0.9999937
vn 0.001905788 -0.004054493 -0.99999
vn -0.9926901 0.1205631 0.005551917
vn -0.02442301 -0.1033022 0.9943501
vn -0.9999226 -0.01197407 0.003364984
vn -0.9967782 0.08020716 0.0001876271
vn -0.9999688 -0.00790836 -9.930311E-05
vn -0.999979 -0.006103931 -0.002208962
vn -0.99884 0.04810788 -0.002070458
vn -0.9989803 -0.005896743 -0.04475967
vn -0.9988068 0.03282145 -0.03616241
vn -0.01186711 0.01809328 -0.9997659
vn -0.01105087 -0.004876486 -0.999927
vn -0.9989803 -0.005896743 -0.04475967
vn -0.01829083 0.9995347 -0.02440731
vn 0 0.2994981 0.9540969
vn -0.0002822932 -0.09330405 0.9956377
vn -1.0819E-07 -0.0873566 0.9961771
vn -0.0004068246 0.2907753 0.9567913
vn 0.02442439 -0.1033027 0.99435
vn 0 0.9998249 0.0187134
vn 0.01780499 0.227093 0.9737104
vn -0.0007375262 0.9998072 0.01962197
vn -0.001014854 0.9999992 0.0007949668
vn 0 0.9999999 0.0005859319
vn -0.000944541 0.9999995 -0.0002914944
vn 0 1 1.134499E-05
vn 0 0.9997007 -0.02446788
vn -0.0005746401 0.9997016 -0.02442214
vn -2.380512E-07 0.01795991 -0.9998387
vn 0.01648272 0.9998639 -0.000788209
vn 0.01842687 0.9998295 0.001131651
vn 0.02372445 0.999451 0.02312812
vn -0.00191588 0.0186377 -0.9998245
vn -2.322493E-07 -0.003565403 -0.9999937
vn -0.00190578 -0.004054494 -0.99999
vn 0.9926892 0.1205708 0.005551178
vn 0.02442439 -0.1033027 0.99435
vn 0.9999228 -0.01197134 0.003364328
vn 0.9967781 0.08020893 0.0001874146
vn 0.9999688 -0.007907212 -9.945216E-05
vn 0.999979 -0.006102812 -0.002209001
vn 0.99884 0.04810768 -0.002070517
vn 0.9989803 -0.005895387 -0.04476041
vn 0.9988067 0.03282195 -0.03616305
vn 0.01186819 0.01809286 -0.9997659
vn 0.0110519 -0.004876478 -0.999927
vn 0.9989803 -0.005895387 -0.04476041
vn 0.01829082 0.9995347 -0.02440781
g LM4_SoftvinylPlatform02_0
f 3/3/3 2/2/2 1/1/1
f 4/4/4 3/3/3 1/1/1
f 5/5/5 3/3/3 4/4/4
f 4/4/4 1/1/1 6/6/6
f 7/7/7 5/5/5 4/4/4
f 8/8/8 4/4/4 6/6/6
f 7/7/7 4/4/4 8/8/8
f 8/8/8 6/6/6 9/9/9
f 6/6/6 10/10/10 9/9/9
f 9/9/9 10/10/10 11/11/11
f 10/10/10 12/12/12 11/11/11
f 11/11/11 12/12/12 13/13/13
f 14/14/14 11/11/11 13/13/13
f 14/14/14 13/13/13 15/15/15
f 9/9/9 11/11/11 16/16/16
f 16/16/16 11/11/11 14/14/14
f 8/8/8 9/9/9 17/17/17
f 17/17/17 9/9/9 16/16/16
f 18/18/18 7/7/7 8/8/8
f 18/18/18 8/8/8 17/17/17
f 19/19/19 14/14/14 15/15/15
f 19/19/19 15/15/15 20/20/20
f 21/21/21 19/19/19 20/20/20
f 22/22/22 7/7/7 18/18/18
f 7/7/7 22/22/22 23/23/23
f 22/22/22 24/24/24 23/23/23
f 25/25/25 22/22/22 18/18/18
f 22/22/22 25/25/25 24/24/24
f 17/17/17 25/25/25 18/18/18
f 25/25/25 26/26/26 24/24/24
f 27/27/27 26/26/26 25/25/25
f 28/28/28 25/25/25 17/17/17
f 28/28/28 27/27/27 25/25/25
f 29/29/29 27/27/27 28/28/28
f 16/16/16 28/28/28 17/17/17
f 30/30/30 29/29/29 28/28/28
f 30/30/30 28/28/28 16/16/16
f 31/31/31 19/19/19 21/21/21
f 32/32/32 31/31/31 21/21/21
f 32/32/32 33/33/33 31/31/31
f 33/33/33 30/30/30 31/31/31
f 34/34/34 30/30/30 16/16/16
f 30/30/30 34/34/34 31/31/31
f 31/31/31 34/34/34 19/19/19
f 34/34/34 16/16/16 14/14/14
f 34/34/34 14/14/14 19/19/19
f 37/37/37 36/36/36 35/35/35
f 36/36/36 38/38/38 35/35/35
f 36/36/36 39/39/39 38/38/38
f 35/35/35 38/38/38 40/40/40
f 39/39/39 41/41/41 38/38/38
f 38/38/38 42/42/42 40/40/40
f 38/38/38 41/41/41 42/42/42
f 40/40/40 42/42/42 43/43/43
f 44/44/44 40/40/40 43/43/43
f 44/44/44 43/43/43 45/45/45
f 46/46/46 44/44/44 45/45/45
f 46/46/46 45/45/45 47/47/47
f 45/45/45 48/48/48 47/47/47
f 47/47/47 48/48/48 49/49/49
f 45/45/45 43/43/43 50/50/50
f 45/45/45 50/50/50 48/48/48
f 43/43/43 42/42/42 51/51/51
f 43/43/43 51/51/51 50/50/50
f 41/41/41 52/52/52 42/42/42
f 42/42/42 52/52/52 51/51/51
f 48/48/48 53/53/53 49/49/49
f 49/49/49 53/53/53 54/54/54
f 53/53/53 55/55/55 54/54/54
f 41/41/41 56/56/56 52/52/52
f 56/56/56 41/41/41 57/57/57
f 58/58/58 56/56/56 57/57/57
f 56/56/56 59/59/59 52/52/52
f 59/59/59 56/56/56 58/58/58
f 59/59/59 51/51/51 52/52/52
f 60/60/60 59/59/59 58/58/58
f 60/60/60 61/61/61 59/59/59
f 59/59/59 62/62/62 51/51/51
f 61/61/61 62/62/62 59/59/59
f 61/61/61 63/63/63 62/62/62
f 62/62/62 50/50/50 51/51/51
f 63/63/63 64/64/64 62/62/62
f 62/62/62 64/64/64 50/50/50
f 53/53/53 65/65/65 55/55/55
f 65/65/65 66/66/66 55/55/55
f 67/67/67 66/66/66 65/65/65
f 64/64/64 67/67/67 65/65/65
f 64/64/64 68/68/68 50/50/50
f 68/68/68 64/64/64 65/65/65
f 68/68/68 65/65/65 53/53/53
f 50/50/50 68/68/68 48/48/48
f 48/48/48 68/68/68 53/53/53
