g LM4_SoftvinylPlatform03
v -6.954644 -0.05447625 0.07007262
v -6.954644 -0.1859435 0.0585443
v -9.91906 -0.1856994 0.05711364
v -9.920497 -0.05292596 0.07316344
v -6.954644 1.283549E-06 -6.194767E-07
v -9.882278 0.001114565 0.0002874664
v -9.874846 0.01096076 -3.040977
v -6.954644 0.003548647 -3.041163
v -9.957411 -0.05461053 0.02558532
v -9.91906 -0.1856994 0.05711364
v -9.953519 -0.1903796 -0.0007232756
v -9.959342 -0.04066522 -3.031534
v -9.951234 -0.9240197 -3.04795
v -9.946524 -1.656923 -6.098047
v -9.955852 -0.03111932 -6.088653
v -9.934422 -2.277069 -8.70542
v -9.947514 -0.04112421 -8.711372
v -9.86572 0.01100714 -6.082252
v -6.954645 0.003546205 -6.082325
v -6.954644 0.003607241 -8.689097
v -9.85667 0.003284975 -8.689054
v -6.954644 -0.06146112 -8.737862
v -9.864074 -0.05234979 -8.75166
v -9.934422 -2.277069 -8.70542
v -6.954644 -2.271608 -8.729976
v -9.848135 -2.274442 -8.737642
v -6.954644 -0.05447625 0.07007262
v -3.990229 -0.1856994 0.05711364
v -6.954644 -0.1859435 0.0585443
v -3.988792 -0.05292596 0.07316344
v -6.954644 1.283549E-06 -6.194767E-07
v -4.027011 0.001114565 0.0002874664
v -4.034442 0.01096076 -3.040977
v -6.954644 0.003548647 -3.041163
v -3.951878 -0.05461053 0.02558532
v -3.990229 -0.1856994 0.05711364
v -3.95577 -0.1903796 -0.0007232756
v -3.949947 -0.04066522 -3.031534
v -3.958055 -0.9240197 -3.04795
v -3.962766 -1.656923 -6.098047
v -3.953437 -0.03111932 -6.088653
v -3.974867 -2.277069 -8.70542
v -3.961775 -0.04112421 -8.711372
v -4.043569 0.01100714 -6.082252
v -6.954645 0.003546205 -6.082325
v -6.954644 0.003607241 -8.689097
v -4.052619 0.003284975 -8.689054
v -6.954644 -0.06146112 -8.737862
v -4.045215 -0.05234979 -8.75166
v -3.974867 -2.277069 -8.70542
v -6.954644 -2.271608 -8.729976
v -4.061154 -2.274442 -8.737642
vt 0.1022525 0.01555882
vt 0.149938 0.003569109
vt 0.724585 0.003574
vt 0.724585 0.015562
vt 0.1039824 0.02473656
vt 0.711736 0.024737
vt 0.711736 0.291638
vt 0.08786745 0.2917851
vt 0.724585 0.024737
vt 0.740468 0.015562
vt 0.740888 0.024737
vt 0.724585 0.291638
vt 0.831807 0.291638
vt 0.920007 0.562055
vt 0.724585 0.562055
vt 0.989386 0.796501
vt 0.724585 0.796501
vt 0.711736 0.562055
vt 0.09276139 0.5614849
vt 0.1044946 0.7914772
vt 0.711736 0.791516
vt 0.1023069 0.8031926
vt 0.711736 0.803171
vt 0.724585 0.996138
vt 0.05561067 0.9961941
vt 0.711736 0.996138
vt 0.09858982 0.01555839
vt 0.724585 0.003574
vt 0.1465367 0.003571062
vt 0.724585 0.015562
vt 0.1002749 0.02473641
vt 0.711736 0.024737
vt 0.711736 0.291638
vt 0.0841129 0.2917821
vt 0.724585 0.024737
vt 0.740468 0.015562
vt 0.740888 0.024737
vt 0.724585 0.291638
vt 0.831807 0.291638
vt 0.920007 0.562055
vt 0.724585 0.562055
vt 0.989386 0.796501
vt 0.724585 0.796501
vt 0.711736 0.562055
vt 0.08882943 0.5614859
vt 0.1006712 0.7914771
vt 0.711736 0.791516
vt 0.09847304 0.8031929
vt 0.711736 0.803171
vt 0.724585 0.996138
vt 0.05184526 0.9961951
vt 0.711736 0.996138
vn 0.000220886 0.2964325 0.9550538
vn -7.122599E-05 -0.1019493 0.9947896
vn -0.01931128 -0.1030284 0.994491
vn -0.01413656 0.225239 0.974201
vn 0 0.9998067 0.01966277
vn -0.01894872 0.9995465 0.02340474
vn -0.01474788 0.9998906 0.001127632
vn 0 0.9999994 0.001108848
vn -0.9924022 0.122907 0.005638579
vn -0.01931128 -0.1030284 0.994491
vn -0.9999199 -0.01218557 0.003425534
vn -0.9966648 0.08160301 0.0001906891
vn -0.9999677 -0.008046829 -0.0001011229
vn -0.9999782 -0.006210347 -0.002247507
vn -0.9987992 0.04894704 -0.002106416
vn -0.9989439 -0.005999351 -0.04555571
vn -0.9987609 0.03347601 -0.03682376
vn -0.01321578 0.9999124 -0.0007806851
vn 0 0.9999998 -0.0007451944
vn 0.00142902 0.9997143 -0.02385833
vn -0.01466533 0.9995914 -0.02453759
vn 0.003583897 0.01984445 -0.9997967
vn -0.009518732 0.01817678 -0.9997895
vn -0.9989439 -0.005999351 -0.04555571
vn 0.003580035 -0.004800215 -0.9999821
vn -0.008867655 -0.004871202 -0.9999489
vn -0.0002204903 0.2964396 0.9550515
vn 0.019313 -0.1030301 0.9944907
vn 7.21391E-05 -0.1019508 0.9947895
vn 0.01413772 0.2252442 0.9741998
vn 0 0.9998067 0.01966277
vn 0.01894867 0.9995465 0.02340473
vn 0.01474786 0.9998906 0.001128261
vn 0 0.9999994 0.001108848
vn 0.9924022 0.1229065 0.005638677
vn 0.019313 -0.1030301 0.9944907
vn 0.9999199 -0.01218505 0.003425484
vn 0.9966648 0.08160294 0.0001907235
vn 0.9999677 -0.008046776 -0.0001011066
vn 0.9999782 -0.006210471 -0.002247504
vn 0.9987992 0.04894709 -0.002106431
vn 0.9989439 -0.005999494 -0.04555568
vn 0.9987609 0.033476 -0.03682372
vn 0.01321574 0.9999124 -0.0007803634
vn 0 0.9999998 -0.0007451944
vn -0.001429006 0.9997143 -0.0238588
vn 0.01466526 0.9995913 -0.02453834
vn -0.003584045 0.01984493 -0.9997967
vn 0.009518426 0.01817694 -0.9997895
vn 0.9989439 -0.005999494 -0.04555568
vn -0.003580205 -0.004800218 -0.9999821
vn 0.008867343 -0.004871205 -0.9999489
g LM4_SoftvinylPlatform03_0
f 3/3/3 2/2/2 1/1/1
f 4/4/4 3/3/3 1/1/1
f 4/4/4 1/1/1 5/5/5
f 6/6/6 4/4/4 5/5/5
f 6/6/6 5/5/5 7/7/7
f 5/5/5 8/8/8 7/7/7
f 9/9/9 4/4/4 6/6/6
f 4/4/4 9/9/9 10/10/10
f 9/9/9 11/11/11 10/10/10
f 12/12/12 9/9/9 6/6/6
f 9/9/9 12/12/12 11/11/11
f 7/7/7 12/12/12 6/6/6
f 12/12/12 13/13/13 11/11/11
f 14/14/14 13/13/13 12/12/12
f 15/15/15 14/14/14 12/12/12
f 15/15/15 12/12/12 7/7/7
f 16/16/16 14/14/14 15/15/15
f 17/17/17 16/16/16 15/15/15
f 7/7/7 8/8/8 18/18/18
f 18/18/18 15/15/15 7/7/7
f 17/17/17 15/15/15 18/18/18
f 8/8/8 19/19/19 18/18/18
f 18/18/18 19/19/19 20/20/20
f 21/21/21 18/18/18 20/20/20
f 21/21/21 17/17/17 18/18/18
f 21/21/21 20/20/20 22/22/22
f 17/17/17 21/21/21 23/23/23
f 23/23/23 21/21/21 22/22/22
f 24/24/24 17/17/17 23/23/23
f 23/23/23 22/22/22 25/25/25
f 26/26/26 24/24/24 23/23/23
f 26/26/26 23/23/23 25/25/25
f 29/29/29 28/28/28 27/27/27
f 28/28/28 30/30/30 27/27/27
f 27/27/27 30/30/30 31/31/31
f 30/30/30 32/32/32 31/31/31
f 31/31/31 32/32/32 33/33/33
f 34/34/34 31/31/31 33/33/33
f 30/30/30 35/35/35 32/32/32
f 35/35/35 30/30/30 36/36/36
f 37/37/37 35/35/35 36/36/36
f 35/35/35 38/38/38 32/32/32
f 38/38/38 35/35/35 37/37/37
f 38/38/38 33/33/33 32/32/32
f 39/39/39 38/38/38 37/37/37
f 39/39/39 40/40/40 38/38/38
f 40/40/40 41/41/41 38/38/38
f 38/38/38 41/41/41 33/33/33
f 40/40/40 42/42/42 41/41/41
f 42/42/42 43/43/43 41/41/41
f 34/34/34 33/33/33 44/44/44
f 41/41/41 44/44/44 33/33/33
f 41/41/41 43/43/43 44/44/44
f 45/45/45 34/34/34 44/44/44
f 45/45/45 44/44/44 46/46/46
f 44/44/44 47/47/47 46/46/46
f 43/43/43 47/47/47 44/44/44
f 46/46/46 47/47/47 48/48/48
f 47/47/47 43/43/43 49/49/49
f 47/47/47 49/49/49 48/48/48
f 43/43/43 50/50/50 49/49/49
f 48/48/48 49/49/49 51/51/51
f 50/50/50 52/52/52 49/49/49
f 49/49/49 52/52/52 51/51/51
