g LM4_PrismObstacle_06
v 1.870515 -3.188987 1.685149
v -0.04046188 -1.516255 5.146574
v -0.002007288 -1.446367 5.180134
v 1.934306 -3.142012 1.669742
v 1.934306 0.01518303 0.1440295
v 1.89518 -0.01271858 0.08371818
v 1.893479 -3.170923 1.609918
v 1.870515 -3.188987 1.685149
v -0.003435511 1.714885 3.655596
v -0.07891891 -1.446367 5.180134
v -0.07749069 1.714885 3.655596
v -0.04046188 -1.516255 5.146574
v 1.893479 -3.170923 1.609918
v -4.519922E-07 -3.188987 1.685149
v 1.870515 -3.188987 1.685149
v -0.02466598 -3.171932 1.610405
v -0.02296432 -0.01372688 0.08420525
v 1.89518 -0.01271858 0.08371818
v -0.06379195 0.01518303 0.1440295
v -0.06379195 -3.142012 1.669742
v -4.519922E-07 -3.188987 1.685149
v 1.870515 0.05644157 0.1167968
v 1.934306 0.01518303 0.1440295
v -4.519922E-07 0.05644157 0.1167968
v -0.06379195 0.01518303 0.1440295
v -0.07749069 1.714885 3.655596
v -0.04046188 1.729175 3.578228
v -0.003435511 1.714885 3.655596
v -0.06379195 -3.142012 1.669742
v -0.04046188 -1.516255 5.146574
v -4.519922E-07 -3.188987 1.685149
v -0.07891891 -1.446367 5.180134
v -0.07749069 1.714885 3.655596
v -0.06379195 0.01518303 0.1440295
v -4.519922E-07 -3.24543 1.568348
v -0.04046188 -4.918161 -1.893079
v -0.07891891 -4.901031 -1.968691
v -0.06379195 -3.204171 1.541116
v -0.06379195 -0.04697517 0.01540398
v -0.02466842 -0.01705574 0.07474358
v -0.02296432 -3.175261 1.600941
v -4.519922E-07 -3.24543 1.568348
v -0.07749069 -1.742231 -3.498309
v -0.002004846 -4.901031 -1.968691
v -0.003433069 -1.742231 -3.498309
v -0.04046188 -4.918161 -1.893079
v -0.02296432 -3.175261 1.600941
v 1.870515 -3.24543 1.568348
v -4.519922E-07 -3.24543 1.568348
v 1.895183 -3.176271 1.601429
v 1.893479 -0.01806404 0.07523064
v -0.02466842 -0.01705574 0.07474358
v 1.934306 -0.04697517 0.01540398
v 1.934306 -3.204171 1.541116
v 1.870515 -3.24543 1.568348
v -4.519922E-07 -7.469792E-08 -1.29584E-06
v -0.06379195 -0.04697517 0.01540398
v 1.870515 -7.469792E-08 -1.29584E-06
v 1.934306 -0.04697517 0.01540398
v -0.003433069 -1.742231 -3.498309
v -0.04046188 -1.672733 -3.461429
v -0.07749069 -1.742231 -3.498309
v 1.934306 -3.204171 1.541116
v -0.04046188 -4.918161 -1.893079
v 1.870515 -3.24543 1.568348
v -0.002004846 -4.901031 -1.968691
v -0.003433069 -1.742231 -3.498309
v 1.934306 -0.04697517 0.01540398
vt 0.985325 0.003978
vt 0.502785 0.003978
vt 0.497305 0.015109
vt 0.986732 0.015109
vt 0.986732 0.497533
vt 0.995448 0.497533
vt 0.995448 0.015109
vt 0.992233 0.00616
vt 0.497305 0.497533
vt 0.488821 0.015109
vt 0.488821 0.497533
vt 0.494286 0.00265
vt 0.979105 0.513117
vt 0.987035 0.985809
vt 0.987035 0.517207
vt 0.979105 0.98756
vt 0.536798 0.986926
vt 0.536418 0.513118
vt 0.536793 0.99645
vt 0.979105 0.997068
vt 0.985339 0.993666
vt 0.527466 0.517311
vt 0.526673 0.506718
vt 0.527814 0.982931
vt 0.527033 0.993516
vt 0.08799 0.757141
vt 0.096952 0.751127
vt 0.087952 0.745163
vt 0.004552 0.015109
vt 0.488821 0.005142
vt 0.004552 0.005142
vt 0.488821 0.015109
vt 0.488821 0.497533
vt 0.004552 0.497532
vt 0.985325 0.003978
vt 0.502785 0.003978
vt 0.497305 0.015109
vt 0.986732 0.015109
vt 0.986732 0.497533
vt 0.995448 0.497533
vt 0.995448 0.015109
vt 0.992233 0.00616
vt 0.497305 0.497533
vt 0.488821 0.015109
vt 0.488821 0.497533
vt 0.494286 0.00265
vt 0.979105 0.513117
vt 0.987035 0.985809
vt 0.987035 0.517207
vt 0.979105 0.98756
vt 0.536798 0.986926
vt 0.536418 0.513118
vt 0.536793 0.99645
vt 0.979105 0.997068
vt 0.985339 0.993666
vt 0.527466 0.517311
vt 0.526673 0.506718
vt 0.527814 0.982931
vt 0.527033 0.993516
vt 0.08799 0.757141
vt 0.096952 0.751127
vt 0.087952 0.745163
vt 0.004552 0.015109
vt 0.488821 0.005142
vt 0.004552 0.005142
vt 0.488821 0.015109
vt 0.488821 0.497533
vt 0.004552 0.497532
vn 0.4483731 -0.803767 0.3910499
vn -0.06291633 -0.8028713 0.592823
vn 0.888621 0.1884827 0.4181231
vn 0.901994 0.1752543 0.3945792
vn 0.9020517 0.2002102 0.3823854
vn 0.03342127 -0.4228555 -0.9055806
vn 0.03367071 -0.4469892 -0.8939055
vn 0.4483731 -0.803767 0.3910499
vn 0.8886116 0.2101422 0.4076884
vn -0.999853 0.0003548288 0.01714404
vn -0.9998529 0.01316302 0.01099932
vn -0.06291633 -0.8028713 0.592823
vn 0.03367071 -0.4469892 -0.8939055
vn -0.4632473 -0.8801922 0.1032651
vn 0.4483731 -0.803767 0.3910499
vn -0.03342174 -0.4467961 -0.8940113
vn -0.03367135 -0.4226525 -0.9056661
vn 0.03342127 -0.4228555 -0.9055806
vn -0.9997973 0.007375955 -0.0187382
vn -0.999799 -0.01912192 -0.006029404
vn -0.4632473 -0.8801922 0.1032651
vn 0.07323566 0.8976491 -0.4345833
vn 0.9020517 0.2002102 0.3823854
vn -0.04450751 0.8869376 -0.4597399
vn -0.9997973 0.007375955 -0.0187382
vn -0.9998529 0.01316302 0.01099932
vn -0.02401398 0.9287083 -0.3700328
vn 0.8886116 0.2101422 0.4076884
vn -0.999799 -0.01912192 -0.006029404
vn -0.06291633 -0.8028713 0.592823
vn -0.4632473 -0.8801922 0.1032651
vn -0.999853 0.0003548288 0.01714404
vn -0.9998529 0.01316302 0.01099932
vn -0.9997973 0.007375955 -0.0187382
vn -0.4655345 -0.6282084 0.6234034
vn -0.06292386 -0.9633651 0.2607068
vn -0.9998529 -0.01321299 -0.01093085
vn -0.9998 -0.007204449 0.01865561
vn -0.9997962 0.01929336 0.005945837
vn -0.03342246 0.4467955 0.8940116
vn -0.03367196 0.422652 0.9056664
vn -0.4655345 -0.6282084 0.6234034
vn -0.9998529 -0.0004398694 -0.01714825
vn 0.8886208 -0.2104927 -0.4074873
vn 0.8886113 -0.1888575 -0.4179746
vn -0.06292386 -0.9633651 0.2607068
vn -0.03367196 0.422652 0.9056664
vn 0.4469004 -0.805385 0.3894036
vn -0.4655345 -0.6282084 0.6234034
vn 0.03342238 0.4228554 0.9055806
vn 0.03367199 0.4469891 0.8939055
vn -0.03342246 0.4467955 0.8940116
vn 0.9019948 -0.175248 -0.3945805
vn 0.9020508 -0.2002064 -0.3823895
vn 0.4469004 -0.805385 0.3894036
vn -0.04446533 0.9114562 -0.4089871
vn -0.9997962 0.01929336 0.005945837
vn 0.07330739 0.8980821 -0.4336755
vn 0.9019948 -0.175248 -0.3945805
vn 0.8886113 -0.1888575 -0.4179746
vn -0.02401506 0.866994 -0.4977396
vn -0.9998529 -0.0004398694 -0.01714825
vn 0.9020508 -0.2002064 -0.3823895
vn -0.06292386 -0.9633651 0.2607068
vn 0.4469004 -0.805385 0.3894036
vn 0.8886208 -0.2104927 -0.4074873
vn 0.8886113 -0.1888575 -0.4179746
vn 0.9019948 -0.175248 -0.3945805
g LM4_PrismObstacle_06_0
f 3/3/3 2/2/2 1/1/1
f 4/4/4 3/3/3 1/1/1
f 4/4/4 5/5/5 3/3/3
f 6/6/6 5/5/5 4/4/4
f 7/7/7 6/6/6 4/4/4
f 7/7/7 4/4/4 8/8/8
f 5/5/5 9/9/9 3/3/3
f 10/10/10 3/3/3 9/9/9
f 11/11/11 10/10/10 9/9/9
f 3/3/3 10/10/10 12/12/12
f 15/15/15 14/14/14 13/13/13
f 14/14/14 16/16/16 13/13/13
f 16/16/16 17/17/17 13/13/13
f 17/17/17 18/18/18 13/13/13
f 19/19/19 17/17/17 16/16/16
f 20/20/20 19/19/19 16/16/16
f 16/16/16 21/21/21 20/20/20
f 18/18/18 17/17/17 22/22/22
f 18/18/18 22/22/22 23/23/23
f 17/17/17 24/24/24 22/22/22
f 17/17/17 25/25/25 24/24/24
f 25/25/25 26/26/26 24/24/24
f 22/22/22 27/27/27 23/23/23
f 24/24/24 27/27/27 22/22/22
f 26/26/26 27/27/27 24/24/24
f 27/27/27 28/28/28 23/23/23
f 27/27/27 26/26/26 28/28/28
f 31/31/31 30/30/30 29/29/29
f 30/30/30 32/32/32 29/29/29
f 32/32/32 33/33/33 29/29/29
f 33/33/33 34/34/34 29/29/29
f 37/37/37 36/36/36 35/35/35
f 38/38/38 37/37/37 35/35/35
f 38/38/38 39/39/39 37/37/37
f 40/40/40 39/39/39 38/38/38
f 41/41/41 40/40/40 38/38/38
f 41/41/41 38/38/38 42/42/42
f 39/39/39 43/43/43 37/37/37
f 44/44/44 37/37/37 43/43/43
f 45/45/45 44/44/44 43/43/43
f 37/37/37 44/44/44 46/46/46
f 49/49/49 48/48/48 47/47/47
f 48/48/48 50/50/50 47/47/47
f 50/50/50 51/51/51 47/47/47
f 51/51/51 52/52/52 47/47/47
f 53/53/53 51/51/51 50/50/50
f 54/54/54 53/53/53 50/50/50
f 50/50/50 55/55/55 54/54/54
f 52/52/52 51/51/51 56/56/56
f 52/52/52 56/56/56 57/57/57
f 51/51/51 58/58/58 56/56/56
f 51/51/51 59/59/59 58/58/58
f 59/59/59 60/60/60 58/58/58
f 56/56/56 61/61/61 57/57/57
f 58/58/58 61/61/61 56/56/56
f 60/60/60 61/61/61 58/58/58
f 61/61/61 62/62/62 57/57/57
f 61/61/61 60/60/60 62/62/62
f 65/65/65 64/64/64 63/63/63
f 64/64/64 66/66/66 63/63/63
f 66/66/66 67/67/67 63/63/63
f 67/67/67 68/68/68 63/63/63
