g LM4_rigidWall07
v -3.950663 -0.3633971 -14.69817
v -3.918807 -0.2208264 -14.68327
v -3.950663 -0.2259753 -14.67085
v -3.918807 -0.3620983 -14.71137
v -3.950803 -3.632403 -14.69771
v -3.036826 -0.3620983 -14.71137
v -3.036826 -0.2208264 -14.68327
v -3.919207 -3.633961 -14.71137
v -3.919207 -3.673116 -14.66184
v -3.477618 -3.67317 -14.66206
v -3.477817 -3.633961 -14.71137
v -3.00497 -0.3633971 -14.69817
v -3.00497 -0.2259753 -14.67085
v -3.004831 -3.632403 -14.69771
v -3.036426 -3.633961 -14.71137
v -3.478018 -3.67317 -14.66206
v -3.036426 -3.673116 -14.66184
v -3.950663 -0.03799432 -0.04006898
v -3.950663 -0.006138853 -0.07199769
v -3.944814 -0.01199334 -0.04593812
v -3.963859 -0.03799432 -0.07192933
v -3.950622 -0.1592638 -0.03999574
v -3.963859 -0.03799432 -14.33779
v -3.950663 -0.006138853 -14.34093
v -3.963859 -0.1643517 -0.07108948
v -3.918533 -0.2087341 -0.06662659
v -3.963859 -0.0634826 -14.46592
v -3.950663 -0.03347284 -14.47835
v -3.963859 -3.545221 -14.32293
v -3.919192 -3.593131 -14.32486
v -3.919207 -3.673116 -14.66184
v -3.963859 -0.388717 -14.33631
v -3.963859 -0.1335461 -14.57078
v -3.950663 -0.1105822 -14.59375
v -3.963859 -0.2384045 -14.64085
v -3.950663 -0.2259753 -14.67085
v -3.963859 -0.3665344 -14.66633
v -3.950663 -0.3633971 -14.69817
v -3.963859 -3.626407 -14.66517
v -3.950803 -3.632403 -14.69771
v -3.950663 -0.006138853 -0.07199769
v -3.918828 -0.006138853 -0.04006898
v -3.944814 -0.01199334 -0.04593812
v -3.918807 0.007056947 -0.07192933
v -3.950663 -0.006138853 -14.34093
v -3.036826 0.007056947 -0.07192933
v -3.036805 -0.006138853 -0.04006898
v -3.918807 0.007056947 -14.34222
v -3.950663 -0.03347284 -14.47835
v -3.00497 -0.006138853 -0.07199769
v -3.010819 -0.01199334 -0.04593812
v -3.00497 -0.006138853 -14.34093
v -3.036826 0.007056947 -14.34222
v -3.00497 -0.03347284 -14.47835
v -3.036826 -0.0210412 -14.48349
v -3.00497 -0.1105822 -14.59375
v -3.918807 -0.0210412 -14.48349
v -3.950663 -0.1105822 -14.59375
v -3.036826 -0.1010656 -14.60325
v -3.00497 -0.2259753 -14.67085
v -3.036826 -0.2208264 -14.68327
v -3.918807 -0.1010656 -14.60325
v -3.950663 -0.2259753 -14.67085
v -3.918807 -0.2208264 -14.68327
v -3.918828 -0.006138853 -0.04006898
v -3.950663 -0.03799432 -0.04006898
v -3.944814 -0.01199334 -0.04593812
v -3.918807 -0.03799432 -0.02687074
v -3.036805 -0.006138853 -0.04006898
v -3.918533 -0.1584435 -0.02687074
v -3.950622 -0.1592638 -0.03999574
v -3.918533 -0.2087341 -0.06662659
v -3.036826 -0.03799432 -0.02687074
v -3.037101 -0.1584435 -0.02687074
v -3.037101 -0.2087341 -0.06662659
v -3.005012 -0.1592638 -0.03999574
v -3.00497 -0.03799432 -0.04006898
v -3.010819 -0.01199334 -0.04593812
v -3.00497 -0.03799432 -0.04006898
v -3.010819 -0.01199334 -0.04593812
v -3.00497 -0.006138853 -0.07199769
v -2.991775 -0.03799432 -0.07192933
v -3.005012 -0.1592638 -0.03999574
v -2.991775 -0.03799432 -14.33779
v -3.00497 -0.006138853 -14.34093
v -2.991775 -0.1643517 -0.07108948
v -3.037101 -0.2087341 -0.06662659
v -2.991775 -0.0634826 -14.46592
v -3.00497 -0.03347284 -14.47835
v -2.991775 -3.545221 -14.32293
v -3.036442 -3.593131 -14.32486
v -3.036426 -3.673116 -14.66184
v -2.991775 -0.388717 -14.33631
v -2.991775 -0.1335461 -14.57078
v -3.00497 -0.1105822 -14.59375
v -2.991775 -0.2384045 -14.64085
v -3.00497 -0.2259753 -14.67085
v -2.991775 -0.3665344 -14.66633
v -3.00497 -0.3633971 -14.69817
v -2.991775 -3.626407 -14.66517
v -3.004831 -3.632403 -14.69771
vt 0.5828049 0.01167924
vt 0.5849695 0.001992151
vt 0.5828049 0.002341857
vt 0.5849695 0.01159122
vt 0.5827954 0.2338067
vt 0.6448997 0.01159122
vt 0.6448997 0.001992151
vt 0.5849423 0.2339128
vt 0.5849423 0.2365729
vt 0.6149481 0.2365767
vt 0.6149345 0.2339128
vt 0.6470643 0.01167924
vt 0.6470643 0.002341857
vt 0.6470737 0.2338067
vt 0.6449268 0.2339128
vt 0.614921 0.2365767
vt 0.6449268 0.2365729
vt 0.2483372 0.00199679
vt 0.250502 0.004166394
vt 0.2501043 0.002395978
vt 0.2483372 0.004161635
vt 0.2400974 0.001992032
vt 0.2483372 0.97352
vt 0.250502 0.9737337
vt 0.2397515 0.004104541
vt 0.2367355 0.003801462
vt 0.2466053 0.9822265
vt 0.2486445 0.983071
vt 0.01002338 0.9725104
vt 0.006768017 0.9726417
vt 0.00133259 0.9955387
vt 0.2245058 0.9734191
vt 0.2418445 0.9893515
vt 0.2434051 0.990912
vt 0.2347196 0.9941122
vt 0.2355641 0.996151
vt 0.2260131 0.9958441
vt 0.2262263 0.998008
vt 0.004506586 0.9957651
vt 0.004098834 0.9979761
vt 0.5117297 0.004161755
vt 0.5138929 0.001992151
vt 0.5121272 0.002391339
vt 0.5138944 0.004156996
vt 0.5117298 0.973729
vt 0.5738245 0.004156996
vt 0.573826 0.001992151
vt 0.5138944 0.9738166
vt 0.5117298 0.9830664
vt 0.5759892 0.004161755
vt 0.5755917 0.002391339
vt 0.5759892 0.973729
vt 0.5738245 0.9738166
vt 0.5759892 0.9830664
vt 0.5738245 0.9834156
vt 0.5759892 0.9909074
vt 0.5138944 0.9834156
vt 0.5117298 0.9909074
vt 0.5738245 0.9915531
vt 0.5759892 0.9961463
vt 0.5738245 0.9969904
vt 0.5138944 0.9915531
vt 0.5117298 0.9961463
vt 0.5138944 0.9969904
vt 0.6676273 0.06408825
vt 0.6654627 0.06625143
vt 0.6672295 0.06585402
vt 0.6654627 0.06408682
vt 0.6676273 0.004155213
vt 0.6572783 0.06406827
vt 0.6572225 0.06624869
vt 0.653861 0.06406827
vt 0.6654627 0.00415664
vt 0.6572783 0.004175315
vt 0.653861 0.004175315
vt 0.6572225 0.001994887
vt 0.6654627 0.001992032
vt 0.6672295 0.002389555
vt 0.5036267 0.9980032
vt 0.5053938 0.997604
vt 0.5057915 0.9958336
vt 0.5036267 0.9958384
vt 0.495387 0.998008
vt 0.5036267 0.02648
vt 0.5057915 0.02626637
vt 0.4950411 0.9958954
vt 0.4920251 0.9961985
vt 0.5018948 0.01777352
vt 0.5039341 0.01692899
vt 0.2653129 0.02748963
vt 0.2620576 0.02735831
vt 0.2566221 0.004461383
vt 0.4797954 0.02658087
vt 0.4971341 0.01064856
vt 0.4986947 0.009087968
vt 0.4900092 0.005887803
vt 0.4908537 0.003849041
vt 0.4813026 0.004155926
vt 0.4815158 0.001992032
vt 0.2597961 0.004234907
vt 0.2593884 0.00202391
vn -0.7004799 0.005699635 -0.7136495
vn -0.01381523 0.3826219 -0.9238017
vn -0.6803315 0.2798507 -0.6773719
vn -0.01434253 0.008224237 -0.9998633
vn -0.6927402 -0.006433277 -0.7211585
vn 0.01434387 0.008224251 -0.9998633
vn 0.01381631 0.3826216 -0.9238019
vn -0.01428574 -0.007473404 -0.9998701
vn -0.364797 -0.8670669 -0.3392907
vn -0.0002174411 -0.7836233 -0.6212363
vn 0 -0.007527829 -0.9999717
vn 0.7005031 0.005699917 -0.7136266
vn 0.680351 0.2798365 -0.6773582
vn 0.6927654 -0.006433106 -0.7211342
vn 0.01428711 -0.00747333 -0.9998701
vn 0.0002174331 -0.7835969 -0.6212696
vn 0.3647952 -0.8670565 -0.3393193
vn -0.7053196 0.06115297 0.7062469
vn -0.7070787 0.7071345 0.0006153052
vn -0.5776955 0.5775667 0.5767881
vn -0.9988218 0.04852551 0.0004909734
vn -0.7063285 -0.1125918 0.6988727
vn -0.9986738 0.05148397 -9.441512E-05
vn -0.694817 0.7191853 -0.001365967
vn -0.9962604 -0.08401312 0.02017412
vn -0.6861078 -0.699061 0.2014195
vn -0.9967834 0.0741085 -0.03050867
vn -0.6803632 0.6773311 -0.2798724
vn -0.9993663 -0.03463299 0.008219018
vn -0.7089471 -0.6862031 0.1628479
vn -0.364797 -0.8670669 -0.3392907
vn -1 0 0
vn -0.9966906 0.05747842 -0.05748082
vn -0.6790526 0.5190557 -0.5191039
vn -0.9966085 0.03132197 -0.07609478
vn -0.6803315 0.2798507 -0.6773719
vn -0.9991843 0.0003076658 -0.04038034
vn -0.7004799 0.005699635 -0.7136495
vn -0.9990108 -0.01602349 -0.04147937
vn -0.6927402 -0.006433277 -0.7211585
vn -0.7070787 0.7071345 0.0006153052
vn -0.009762882 0.7071403 0.7070059
vn -0.5776955 0.5775667 0.5767881
vn -0.01440947 0.9998958 0.0009119045
vn -0.694817 0.7191853 -0.001365967
vn 0.01440949 0.9998958 0.0009119014
vn 0.009762522 0.7071404 0.7070057
vn -0.01410688 0.9998986 -0.001948519
vn -0.6803632 0.6773311 -0.2798724
vn 0.7070794 0.7071338 0.0006153377
vn 0.5777078 0.5775579 0.5767847
vn 0.6948177 0.7191846 -0.001366
vn 0.0141069 0.9998986 -0.00194852
vn 0.6803621 0.6773318 -0.2798734
vn 0.01381422 0.9237986 -0.3826298
vn 0.6790754 0.5190438 -0.5190858
vn -0.01381406 0.9237986 -0.3826298
vn -0.6790526 0.5190557 -0.5191039
vn 0.01378448 0.7070326 -0.7070466
vn 0.680351 0.2798365 -0.6773582
vn 0.01381631 0.3826216 -0.9238019
vn -0.0137834 0.7070326 -0.7070466
vn -0.6803315 0.2798507 -0.6773719
vn -0.01381523 0.3826219 -0.9238017
vn -0.009762882 0.7071403 0.7070059
vn -0.7053196 0.06115297 0.7062469
vn -0.5776955 0.5775667 0.5767881
vn -0.01340795 0.08556908 0.996242
vn 0.009762522 0.7071404 0.7070057
vn -0.01176692 -0.2233199 0.9746742
vn -0.7063285 -0.1125918 0.6988727
vn -0.6861078 -0.699061 0.2014195
vn 0.01340955 0.08556895 0.996242
vn 0.0117689 -0.2233199 0.9746742
vn 0.6861116 -0.6990573 0.2014192
vn 0.7063507 -0.1125888 0.6988509
vn 0.7053375 0.0611531 0.706229
vn 0.5777078 0.5775579 0.5767847
vn 0.7053375 0.0611531 0.706229
vn 0.5777078 0.5775579 0.5767847
vn 0.7070794 0.7071338 0.0006153377
vn 0.9988218 0.04852531 0.0004909885
vn 0.7063507 -0.1125888 0.6988509
vn 0.9986738 0.05148377 -9.442453E-05
vn 0.6948177 0.7191846 -0.001366
vn 0.9962605 -0.08401266 0.02017405
vn 0.6861116 -0.6990573 0.2014192
vn 0.9967833 0.07411021 -0.03051012
vn 0.6803621 0.6773318 -0.2798734
vn 0.9993663 -0.0346328 0.008218985
vn 0.7089508 -0.6861993 0.1628475
vn 0.3647952 -0.8670565 -0.3393193
vn 1 0 0
vn 0.9966905 0.05748001 -0.0574808
vn 0.6790754 0.5190438 -0.5190858
vn 0.9966081 0.03132389 -0.07609914
vn 0.680351 0.2798365 -0.6773582
vn 0.9991844 0.0003077358 -0.04037865
vn 0.7005031 0.005699917 -0.7136266
vn 0.9990109 -0.01602354 -0.04147712
vn 0.6927654 -0.006433106 -0.7211342
g LM4_rigidWall07_0
f 3/3/3 2/2/2 1/1/1
f 2/2/2 4/4/4 1/1/1
f 1/1/1 4/4/4 5/5/5
f 6/6/6 4/4/4 2/2/2
f 7/7/7 6/6/6 2/2/2
f 4/4/4 8/8/8 5/5/5
f 5/5/5 8/8/8 9/9/9
f 10/10/10 9/9/9 8/8/8
f 11/11/11 10/10/10 8/8/8
f 11/11/11 8/8/8 4/4/4
f 11/11/11 4/4/4 6/6/6
f 6/6/6 7/7/7 12/12/12
f 7/7/7 13/13/13 12/12/12
f 6/6/6 12/12/12 14/14/14
f 6/6/6 15/15/15 11/11/11
f 15/15/15 6/6/6 14/14/14
f 16/16/16 11/11/11 15/15/15
f 15/15/15 14/14/14 17/17/17
f 17/17/17 16/16/16 15/15/15
f 20/20/20 19/19/19 18/18/18
f 19/19/19 21/21/21 18/18/18
f 18/18/18 21/21/21 22/22/22
f 23/23/23 21/21/21 19/19/19
f 24/24/24 23/23/23 19/19/19
f 21/21/21 25/25/25 22/22/22
f 21/21/21 23/23/23 25/25/25
f 25/25/25 26/26/26 22/22/22
f 27/27/27 23/23/23 24/24/24
f 28/28/28 27/27/27 24/24/24
f 25/25/25 29/29/29 26/26/26
f 29/29/29 30/30/30 26/26/26
f 31/31/31 30/30/30 29/29/29
f 23/23/23 32/32/32 25/25/25
f 23/23/23 27/27/27 32/32/32
f 25/25/25 32/32/32 29/29/29
f 27/27/27 28/28/28 33/33/33
f 32/32/32 27/27/27 33/33/33
f 28/28/28 34/34/34 33/33/33
f 33/33/33 34/34/34 35/35/35
f 35/35/35 32/32/32 33/33/33
f 34/34/34 36/36/36 35/35/35
f 37/37/37 32/32/32 35/35/35
f 35/35/35 36/36/36 37/37/37
f 29/29/29 32/32/32 37/37/37
f 36/36/36 38/38/38 37/37/37
f 39/39/39 31/31/31 29/29/29
f 39/39/39 29/29/29 37/37/37
f 37/37/37 38/38/38 39/39/39
f 31/31/31 39/39/39 40/40/40
f 38/38/38 40/40/40 39/39/39
f 43/43/43 42/42/42 41/41/41
f 42/42/42 44/44/44 41/41/41
f 45/45/45 41/41/41 44/44/44
f 46/46/46 44/44/44 42/42/42
f 47/47/47 46/46/46 42/42/42
f 48/48/48 45/45/45 44/44/44
f 49/49/49 45/45/45 48/48/48
f 46/46/46 47/47/47 50/50/50
f 47/47/47 51/51/51 50/50/50
f 50/50/50 52/52/52 46/46/46
f 46/46/46 53/53/53 44/44/44
f 52/52/52 53/53/53 46/46/46
f 53/53/53 48/48/48 44/44/44
f 52/52/52 54/54/54 53/53/53
f 54/54/54 55/55/55 53/53/53
f 53/53/53 55/55/55 48/48/48
f 55/55/55 54/54/54 56/56/56
f 57/57/57 49/49/49 48/48/48
f 55/55/55 57/57/57 48/48/48
f 49/49/49 57/57/57 58/58/58
f 59/59/59 55/55/55 56/56/56
f 55/55/55 59/59/59 57/57/57
f 59/59/59 56/56/56 60/60/60
f 61/61/61 59/59/59 60/60/60
f 57/57/57 62/62/62 58/58/58
f 59/59/59 62/62/62 57/57/57
f 59/59/59 61/61/61 62/62/62
f 58/58/58 62/62/62 63/63/63
f 61/61/61 64/64/64 62/62/62
f 62/62/62 64/64/64 63/63/63
f 67/67/67 66/66/66 65/65/65
f 66/66/66 68/68/68 65/65/65
f 69/69/69 65/65/65 68/68/68
f 68/68/68 66/66/66 70/70/70
f 66/66/66 71/71/71 70/70/70
f 71/71/71 72/72/72 70/70/70
f 73/73/73 69/69/69 68/68/68
f 73/73/73 68/68/68 70/70/70
f 74/74/74 70/70/70 72/72/72
f 74/74/74 73/73/73 70/70/70
f 75/75/75 74/74/74 72/72/72
f 75/75/75 76/76/76 74/74/74
f 76/76/76 77/77/77 74/74/74
f 77/77/77 73/73/73 74/74/74
f 73/73/73 77/77/77 69/69/69
f 77/77/77 78/78/78 69/69/69
f 81/81/81 80/80/80 79/79/79
f 82/82/82 81/81/81 79/79/79
f 82/82/82 79/79/79 83/83/83
f 82/82/82 84/84/84 81/81/81
f 84/84/84 85/85/85 81/81/81
f 86/86/86 82/82/82 83/83/83
f 84/84/84 82/82/82 86/86/86
f 87/87/87 86/86/86 83/83/83
f 84/84/84 88/88/88 85/85/85
f 88/88/88 89/89/89 85/85/85
f 90/90/90 86/86/86 87/87/87
f 91/91/91 90/90/90 87/87/87
f 91/91/91 92/92/92 90/90/90
f 93/93/93 84/84/84 86/86/86
f 88/88/88 84/84/84 93/93/93
f 93/93/93 86/86/86 90/90/90
f 89/89/89 88/88/88 94/94/94
f 88/88/88 93/93/93 94/94/94
f 95/95/95 89/89/89 94/94/94
f 95/95/95 94/94/94 96/96/96
f 93/93/93 96/96/96 94/94/94
f 97/97/97 95/95/95 96/96/96
f 93/93/93 98/98/98 96/96/96
f 97/97/97 96/96/96 98/98/98
f 93/93/93 90/90/90 98/98/98
f 99/99/99 97/97/97 98/98/98
f 92/92/92 100/100/100 90/90/90
f 90/90/90 100/100/100 98/98/98
f 99/99/99 98/98/98 100/100/100
f 100/100/100 92/92/92 101/101/101
f 101/101/101 99/99/99 100/100/100
