g Main
v 4.180514 29.31902 -8.932405
v 4.232257 29.24161 -8.83458
v 4.244925 29.3263 -8.740413
v 4.194192 29.40913 -8.836864
v 4.24958 29.35729 -8.611777
v 4.047925 29.49125 -8.914121
v 4.035946 29.39602 -9.010206
v 2.949374 29.55813 -9.010206
v 4.204154 29.4338 -8.697396
v 4.24955 29.3573 8.61202
v 4.054949 29.52571 -8.782945
v 2.958908 29.65373 -8.914121
v -4.768372E-06 29.70485 -9.010101
v 4.204155 29.43377 8.697404
v 4.24492 29.32633 8.740644
v 4.054961 29.5257 8.782771
v -4.291534E-06 29.80096 -8.914041
v -2.949364 29.55802 -9.009997
v 2.962402 29.68872 -8.782945
v 4.194227 29.40906 8.836801
v 4.232232 29.24172 8.834858
v 4.180571 29.31889 8.932279
v 4.035981 29.39588 9.009997
v 4.047956 29.49121 8.91396
v -2.95891 29.6537 -8.91396
v -4.035981 29.39588 -9.009997
v 2.962403 29.68872 8.782771
v 2.95891 29.6537 8.91396
v 2.949364 29.55802 9.009997
v -4.768372E-06 29.83613 -8.782858
v 4.768372E-06 29.83613 8.782858
v 4.291534E-06 29.80096 8.914041
v 4.768372E-06 29.70485 9.010101
v -2.962402 29.68872 8.782945
v -2.958908 29.65373 8.914121
v -2.949374 29.55813 9.010206
v -2.962403 29.68872 -8.782771
v -4.047925 29.49125 8.914121
v -4.035946 29.39602 9.010206
v -4.180514 29.31902 8.932405
v -4.047956 29.49121 -8.91396
v -4.054961 29.5257 -8.782771
v -4.054949 29.52571 8.782945
v -4.194192 29.40913 8.836864
v -4.194227 29.40906 -8.836801
v -4.180571 29.31889 -8.932279
v -4.232232 29.24172 -8.834858
v -4.24492 29.32633 -8.740644
v -4.204155 29.43377 -8.697404
v -4.24955 29.3573 -8.61202
v -4.204154 29.4338 8.697396
v -4.24958 29.35729 8.611777
v -4.244925 29.3263 8.740413
v -4.232257 29.24161 8.83458
v 3.778845 26.66402 8.940578
v 3.861003 26.76076 8.838449
v 3.848323 26.676 8.744328
v 3.76394 26.57154 8.846906
v 3.843678 26.64497 8.615678
v 3.602616 26.51909 8.91396
v 3.616515 26.61413 9.009997
v 2.669693 26.75534 9.009997
v 3.762403 26.54259 8.712615
v 3.843678 26.64497 -8.611777
v 3.596576 26.48446 8.782771
v 2.660146 26.65966 8.91396
v -9.536743E-07 26.88824 9.011932
v 3.762108 26.54222 -8.713607
v 3.848317 26.67597 -8.740413
v 3.596348 26.48449 -8.786676
v 2.384186E-06 26.79205 8.91592
v -2.669722 26.75544 9.013868
v 2.65665 26.62464 8.782771
v 3.763236 26.57068 -8.848625
v 3.860987 26.76066 -8.83458
v 3.777955 26.66299 -8.942472
v 3.616427 26.61425 -9.013868
v 3.602216 26.5192 -8.917879
v -2.660151 26.6597 8.917879
v -3.616427 26.61425 9.013868
v 2.65665 26.62464 -8.786676
v 2.660151 26.6597 -8.917879
v 2.669722 26.75544 -9.013868
v 0 26.75683 8.784723
v 0 26.75683 -8.784723
v -2.384186E-06 26.79205 -8.91592
v 9.536743E-07 26.88824 -9.011932
v -2.65665 26.62464 -8.782771
v -2.660146 26.65966 -8.91396
v -2.669693 26.75534 -9.009997
v -2.65665 26.62464 8.786676
v -3.602616 26.51909 -8.91396
v -3.616515 26.61413 -9.009997
v -3.778845 26.66402 -8.940578
v -3.602216 26.5192 8.917879
v -3.596348 26.48449 8.786676
v -3.596576 26.48446 -8.782771
v -3.76394 26.57154 -8.846906
v -3.763236 26.57068 8.848625
v -3.777955 26.66299 8.942472
v -3.860987 26.76066 8.83458
v -3.848317 26.67597 8.740413
v -3.762108 26.54222 8.713607
v -3.843678 26.64497 8.611777
v -3.762403 26.54259 -8.712615
v -3.843678 26.64497 -8.615678
v -3.848323 26.676 -8.744328
v -3.861003 26.76076 -8.838449
v 4.180571 29.31889 8.932279
v 4.232232 29.24172 8.834858
v 4.214944 29.12606 8.869463
v 4.16388 29.19307 8.963897
v 3.878322 26.87651 8.872781
v 4.015795 29.26627 9.04515
v 4.035981 29.39588 9.009997
v 2.949364 29.55802 9.009997
v 3.803508 26.79475 8.967663
v 3.861003 26.76076 8.838449
v 3.778845 26.66402 8.940578
v 3.616515 26.61413 9.009997
v 3.636607 26.74377 9.04515
v 2.936321 29.42732 9.04515
v 4.768372E-06 29.70485 9.010101
v 2.682732 26.88603 9.04515
v 2.669693 26.75534 9.009997
v 1.907349E-06 29.57352 9.045324
v -2.949374 29.55813 9.010206
v -9.536743E-07 27.01962 9.047016
v -9.536743E-07 26.88824 9.011932
v -2.682756 26.88622 9.048882
v -2.669722 26.75544 9.013868
v -2.936338 29.4275 9.045498
v -4.035946 29.39602 9.010206
v -3.63623 26.744 9.048882
v -3.616427 26.61425 9.013868
v -3.777955 26.66299 8.942472
v -4.015767 29.26645 9.045498
v -3.802206 26.79331 8.969791
v -4.163762 29.19327 8.96413
v -4.180514 29.31902 8.932405
v -4.232257 29.24161 8.83458
v -4.214934 29.1259 8.869048
v -3.878299 26.87635 8.869048
v -3.860987 26.76066 8.83458
v 3.777955 26.66299 -8.942472
v 3.860987 26.76066 -8.83458
v 3.878299 26.87635 -8.869048
v 3.802206 26.79331 -8.969791
v 4.214934 29.1259 -8.869048
v 3.63623 26.744 -9.048882
v 3.616427 26.61425 -9.013868
v 2.669722 26.75544 -9.013868
v 4.163762 29.19327 -8.96413
v 4.232257 29.24161 -8.83458
v 4.180514 29.31902 -8.932405
v 4.035946 29.39602 -9.010206
v 4.015767 29.26645 -9.045498
v 2.936338 29.4275 -9.045498
v 2.949374 29.55813 -9.010206
v 2.682756 26.88622 -9.048882
v 9.536743E-07 26.88824 -9.011932
v -1.907349E-06 29.57352 -9.045324
v -4.768372E-06 29.70485 -9.010101
v 9.536743E-07 27.01962 -9.047016
v -2.669693 26.75534 -9.009997
v -2.682732 26.88603 -9.04515
v -3.616515 26.61413 -9.009997
v -2.936321 29.42732 -9.04515
v -2.949364 29.55802 -9.009997
v -3.636607 26.74377 -9.04515
v -4.015795 29.26627 -9.04515
v -4.035981 29.39588 -9.009997
v -4.180571 29.31889 -8.932279
v -3.803508 26.79475 -8.967663
v -3.778845 26.66402 -8.940578
v -3.861003 26.76076 -8.838449
v -3.878322 26.87651 -8.872781
v -4.16388 29.19307 -8.963897
v -4.214944 29.12606 -8.869463
v -4.232232 29.24172 -8.834858
vt 0.3223062 -0.4531744
vt 0.3145738 -0.4533496
vt 0.3160729 -0.4423237
vt 0.3229025 -0.4457954
vt 0.3193978 -0.4343884
vt 0.3298493 -0.4471738
vt 0.3293688 -0.4529671
vt 0.3713613 -0.4545798
vt 0.3229621 -0.4378469
vt 0.323595 0.2559839
vt 0.3300312 -0.4412611
vt 0.3709362 -0.4495419
vt 0.4927231 -0.4525566
vt 0.3272 0.2593868
vt 0.3209523 0.2642354
vt 0.3342899 0.262699
vt 0.4928169 -0.4471495
vt 0.6112293 -0.4534984
vt 0.3747879 -0.4408237
vt 0.3278748 0.267154
vt 0.3205458 0.2748438
vt 0.3279879 0.2742141
vt 0.3349255 0.2736866
vt 0.3348078 0.268219
vt 0.6114129 -0.448201
vt 0.6552959 -0.4545943
vt 0.378528 0.2619078
vt 0.3786781 0.2671729
vt 0.378885 0.2724487
vt 0.4929166 -0.4417489
vt 0.4968673 0.2606484
vt 0.4968922 0.2659146
vt 0.4969164 0.2711906
vt 0.6152466 0.2606252
vt 0.6151454 0.265895
vt 0.6149874 0.2711769
vt 0.6115424 -0.442916
vt 0.6590286 0.2664801
vt 0.6589549 0.2719625
vt 0.6659297 0.2724274
vt 0.6553716 -0.4491461
vt 0.6558521 -0.4436498
vt 0.6595157 0.2609397
vt 0.6659571 0.2653399
vt 0.6622978 -0.4480489
vt 0.6622753 -0.4550685
vt 0.6696901 -0.4556313
vt 0.669183 -0.4450991
vt 0.6629469 -0.4403268
vt 0.6665522 -0.4369191
vt 0.6665753 0.2575382
vt 0.6701465 0.254084
vt 0.6728787 0.2623322
vt 0.6733937 0.272982
vt 0.3314812 -1.341357
vt 0.3240809 -1.344113
vt 0.3223315 -1.336986
vt 0.3308275 -1.335347
vt 0.3221338 -1.327468
vt 0.3386201 -1.334311
vt 0.3385754 -1.339802
vt 0.3793696 -1.342429
vt 0.3296741 -1.3289
vt 0.3245136 -0.5892224
vt 0.3388273 -1.33005
vt 0.3796063 -1.336598
vt 0.4933544 -1.344202
vt 0.3301357 -0.5848815
vt 0.3224495 -0.5802284
vt 0.3376381 -0.5818199
vt 0.4933409 -1.338408
vt 0.6072839 -1.342048
vt 0.3797787 -1.331163
vt 0.331069 -0.5780633
vt 0.3221462 -0.5705279
vt 0.330691 -0.5717571
vt 0.3375217 -0.5721593
vt 0.3377683 -0.5769931
vt 0.6070178 -1.336222
vt 0.648011 -1.339243
vt 0.3781093 -0.5816951
vt 0.3779504 -0.5759413
vt 0.3777249 -0.5701979
vt 0.4933264 -1.33201
vt 0.491859 -0.5812788
vt 0.4918819 -0.5753795
vt 0.4919082 -0.5694908
vt 0.6054084 -0.5814742
vt 0.6055303 -0.5757115
vt 0.6057176 -0.5699575
vt 0.6068399 -1.330827
vt 0.6456663 -0.5767184
vt 0.6458433 -0.5719527
vt 0.6526518 -0.5714893
vt 0.6479361 -1.333762
vt 0.6477616 -1.329542
vt 0.6458376 -0.5814748
vt 0.6523559 -0.5777082
vt 0.6557381 -1.33472
vt 0.6550862 -1.340698
vt 0.6627291 -1.343355
vt 0.6644626 -1.336226
vt 0.6569457 -1.328289
vt 0.6645733 -1.326679
vt 0.6533524 -0.5843828
vt 0.6589689 -0.5884893
vt 0.6607264 -0.5795273
vt 0.660834 -0.5700721
vt 0.6376588 0.4725999
vt 0.633912 0.4729169
vt 0.6350358 0.477588
vt 0.6374226 0.4761973
vt 0.6394329 0.5260082
vt 0.6411521 0.4750863
vt 0.6411518 0.4723343
vt 0.6632839 0.471711
vt 0.6420614 0.5277169
vt 0.6389558 0.5294224
vt 0.6426389 0.5307653
vt 0.646166 0.5315129
vt 0.6459309 0.5288631
vt 0.6634052 0.4743782
vt 0.7227091 0.4710776
vt 0.6662542 0.5271821
vt 0.6664084 0.5300698
vt 0.7227221 0.4737436
vt 0.7821541 0.4710707
vt 0.7229736 0.5259315
vt 0.7229875 0.5288008
vt 0.7796805 0.5265936
vt 0.7795528 0.5294818
vt 0.7820572 0.4737414
vt 0.8042902 0.4714662
vt 0.7999856 0.5280908
vt 0.7997804 0.5307355
vt 0.8032877 0.5299889
vt 0.8043195 0.4742267
vt 0.8038406 0.5269525
vt 0.8080668 0.4753035
vt 0.807802 0.4717003
vt 0.8115597 0.4719795
vt 0.8104846 0.4766807
vt 0.806579 0.5252024
vt 0.8070729 0.5286437
vt 0.825376 0.4699884
vt 0.821074 0.4706073
vt 0.8217077 0.4750464
vt 0.824533 0.4732754
vt 0.818157 0.5245175
vt 0.82849 0.4722278
vt 0.828815 0.4697859
vt 0.849056 0.4707734
vt 0.8206375 0.5258817
vt 0.8172617 0.5296028
vt 0.8211546 0.529691
vt 0.8247104 0.5297955
vt 0.8244352 0.526888
vt 0.8460712 0.5264232
vt 0.8458521 0.5289835
vt 0.8489239 0.4736584
vt 0.9065439 0.4711294
vt 0.9069092 0.527272
vt 0.9069542 0.5300021
vt 0.9065579 0.4740837
vt 0.9638433 0.4708944
vt 0.9639595 0.4737843
vt 0.9840453 0.4698899
vt 0.9665093 0.526849
vt 0.9666183 0.529528
vt 0.984345 0.4723037
vt 0.9888289 0.5262296
vt 0.9888043 0.5289761
vt 0.9923183 0.5287374
vt 0.9882704 0.4733663
vt 0.9874731 0.4701232
vt 0.9915928 0.4708367
vt 0.9909428 0.4750797
vt 0.9925832 0.525139
vt 0.9949915 0.5237607
vt 0.9960514 0.5284541
vn 0.7219127 0.2719353 -0.6363123
vn 0.9122686 0.1076195 -0.3952011
vn 0.9238999 0.3160616 -0.2156715
vn 0.7416321 0.5691321 -0.3550639
vn 0.8601326 0.5100703 -0.0005296873
vn 0.1932782 0.8444782 -0.4994997
vn 0.1436143 0.4849252 -0.8626833
vn 0.03864201 0.5053756 -0.8620338
vn 0.5915646 0.8062564 -0.001375612
vn 0.8601319 0.5100715 0.000531707
vn 0.1872917 0.9823022 -0.002067408
vn 0.06623498 0.8656663 -0.4962206
vn -3.393946E-05 0.5065267 -0.8622242
vn 0.5916578 0.806188 0.001377333
vn 0.9237184 0.3165263 0.2157674
vn 0.1873178 0.9822972 0.002069599
vn -1.91641E-05 0.8680756 -0.4964319
vn -0.03866282 0.5048951 -0.8623143
vn 0.07633134 0.9970805 -0.00196913
vn 0.7412396 0.5694156 0.3554288
vn 0.9119341 0.1083485 0.3957736
vn 0.7211175 0.2720804 0.6371513
vn 0.1434461 0.4841968 0.8631204
vn 0.1932201 0.844255 0.4998996
vn -0.06625752 0.8655273 -0.4964601
vn -0.1434461 0.4841968 -0.8631204
vn 0.07633076 0.9970805 0.001970178
vn 0.06625752 0.8655273 0.4964601
vn 0.03866282 0.5048951 0.8623143
vn 0 0.9999981 -0.001970601
vn 0 0.9999981 0.001970601
vn 1.91641E-05 0.8680756 0.4964319
vn 3.393947E-05 0.5065266 0.8622243
vn -0.07633134 0.9970805 0.00196913
vn -0.06623498 0.8656663 0.4962206
vn -0.03864201 0.5053756 0.8620338
vn -0.07633076 0.9970805 -0.001970178
vn -0.1932782 0.8444782 0.4994997
vn -0.1436143 0.4849252 0.8626833
vn -0.7219127 0.2719353 0.6363123
vn -0.1932201 0.844255 -0.4998996
vn -0.1873178 0.9822972 -0.002069599
vn -0.1872917 0.9823022 0.002067408
vn -0.7416321 0.5691321 0.3550639
vn -0.7412396 0.5694156 -0.3554288
vn -0.7211175 0.2720804 -0.6371513
vn -0.9119341 0.1083485 -0.3957736
vn -0.9237184 0.3165263 -0.2157674
vn -0.5916578 0.806188 -0.001377333
vn -0.8601319 0.5100715 -0.000531707
vn -0.5915646 0.8062564 0.001375612
vn -0.8601326 0.5100703 0.0005296873
vn -0.9238999 0.3160616 0.2156715
vn -0.9122686 0.1076195 0.3952011
vn 0.6494415 -0.4484327 0.6141123
vn 0.8640179 -0.3438678 0.3677335
vn 0.8452159 -0.5007892 0.1866016
vn 0.6218533 -0.7086162 0.333409
vn 0.7834178 -0.6214951 0.0004919446
vn -0.04460637 -0.8651319 0.499557
vn 0.006318559 -0.5060757 0.8624659
vn -0.036797 -0.4915346 0.8700804
vn 0.4640594 -0.8858029 0.001362096
vn 0.7834229 -0.6214886 -0.0004805695
vn -0.08984799 -0.9959533 0.002078442
vn -0.06496727 -0.8611561 0.504172
vn 0.0006120715 -0.49254 0.8702897
vn 0.4611321 -0.8873304 -0.00135104
vn 0.8477497 -0.4976119 -0.183583
vn -0.09046581 -0.9958974 -0.002081533
vn 0.0003646726 -0.8634411 0.5044495
vn 0.03765396 -0.4909036 0.8703997
vn -0.07550226 -0.9971436 0.002004678
vn 0.6264577 -0.7060426 -0.3302339
vn 0.8689898 -0.3407822 -0.3587814
vn 0.6579891 -0.4463204 -0.6065051
vn 0.007380253 -0.5053565 -0.8628791
vn -0.04438354 -0.8648766 -0.5000184
vn 0.06547786 -0.8608976 0.5045472
vn -0.007380253 -0.5053565 0.8628791
vn -0.07552184 -0.997142 -0.002008793
vn -0.06547786 -0.8608976 -0.5045472
vn -0.03765396 -0.4909036 -0.8703997
vn 2.437254E-05 -0.999998 0.002007081
vn -2.437254E-05 -0.999998 -0.002007081
vn -0.0003646726 -0.8634411 -0.5044495
vn -0.0006120715 -0.49254 -0.8702897
vn 0.07550226 -0.9971436 -0.002004678
vn 0.06496727 -0.8611561 -0.504172
vn 0.036797 -0.4915346 -0.8700804
vn 0.07552184 -0.997142 0.002008793
vn 0.04460637 -0.8651319 -0.499557
vn -0.006318559 -0.5060757 -0.8624659
vn -0.6494415 -0.4484327 -0.6141123
vn 0.04438354 -0.8648766 0.5000184
vn 0.09046581 -0.9958974 0.002081533
vn 0.08984799 -0.9959533 -0.002078442
vn -0.6218533 -0.7086162 -0.333409
vn -0.6264577 -0.7060426 0.3302339
vn -0.6579891 -0.4463204 0.6065051
vn -0.8689898 -0.3407822 0.3587814
vn -0.8477497 -0.4976119 0.183583
vn -0.4611321 -0.8873304 0.00135104
vn -0.7834229 -0.6214886 0.0004805695
vn -0.4640594 -0.8858029 -0.001362096
vn -0.7834178 -0.6214951 -0.0004919446
vn -0.8452159 -0.5007892 -0.1866016
vn -0.8640179 -0.3438678 -0.3677335
vn 0.7211175 0.2720804 0.6371513
vn 0.9119341 0.1083485 0.3957736
vn 0.8330674 -0.1190032 0.5402194
vn 0.5711353 -0.07490765 0.8174309
vn 0.8319012 -0.1280902 0.5399383
vn 0.05792289 0.005790456 0.9983042
vn 0.1434461 0.4841968 0.8631204
vn 0.03866282 0.5048951 0.8623143
vn 0.5508739 -0.09168939 0.8295366
vn 0.8640179 -0.3438678 0.3677335
vn 0.6494415 -0.4484327 0.6141123
vn 0.006318559 -0.5060757 0.8624659
vn 0.0498991 -0.020477 0.9985443
vn 0.001376622 0.01475662 0.9998902
vn 3.393947E-05 0.5065266 0.8622243
vn -0.0005982058 -0.01146945 0.9999341
vn -0.036797 -0.4915346 0.8700804
vn 0.0003291817 0.01516563 0.999885
vn -0.03864201 0.5053756 0.8620338
vn 0.0003608961 -0.01112073 0.9999381
vn 0.0006120715 -0.49254 0.8702897
vn 0.001074946 -0.01061057 0.9999431
vn 0.03765396 -0.4909036 0.8703997
vn -0.0009463913 0.01561008 0.9998777
vn -0.1436143 0.4849252 0.8626833
vn -0.05096261 -0.01933947 0.9985133
vn -0.007380253 -0.5053565 0.8628791
vn -0.6579891 -0.4463204 0.6065051
vn -0.05873336 0.006953668 0.9982495
vn -0.5600302 -0.09249588 0.8232926
vn -0.5785456 -0.07555908 0.8121428
vn -0.7219127 0.2719353 0.6363123
vn -0.9122686 0.1076195 0.3952011
vn -0.8385122 -0.1202968 0.5314375
vn -0.8376855 -0.129345 0.5306157
vn -0.8689898 -0.3407822 0.3587814
vn 0.6579891 -0.4463204 -0.6065051
vn 0.8689898 -0.3407822 -0.3587814
vn 0.8376855 -0.129345 -0.5306157
vn 0.5600302 -0.09249588 -0.8232926
vn 0.8385122 -0.1202968 -0.5314375
vn 0.05096261 -0.01933947 -0.9985133
vn 0.007380253 -0.5053565 -0.8628791
vn -0.03765396 -0.4909036 -0.8703997
vn 0.5785456 -0.07555908 -0.8121428
vn 0.9122686 0.1076195 -0.3952011
vn 0.7219127 0.2719353 -0.6363123
vn 0.1436143 0.4849252 -0.8626833
vn 0.05873336 0.006953668 -0.9982495
vn 0.0009463913 0.01561008 -0.9998777
vn 0.03864201 0.5053756 -0.8620338
vn -0.001074946 -0.01061057 -0.9999431
vn -0.0006120715 -0.49254 -0.8702897
vn -0.0003291817 0.01516563 -0.999885
vn -3.393946E-05 0.5065267 -0.8622242
vn -0.0003608961 -0.01112073 -0.9999381
vn 0.036797 -0.4915346 -0.8700804
vn 0.0005982058 -0.01146945 -0.9999341
vn -0.006318559 -0.5060757 -0.8624659
vn -0.001376622 0.01475662 -0.9998902
vn -0.03866282 0.5048951 -0.8623143
vn -0.0498991 -0.020477 -0.9985443
vn -0.05792289 0.005790456 -0.9983042
vn -0.1434461 0.4841968 -0.8631204
vn -0.7211175 0.2720804 -0.6371513
vn -0.5508739 -0.09168939 -0.8295366
vn -0.6494415 -0.4484327 -0.6141123
vn -0.8640179 -0.3438678 -0.3677335
vn -0.8319012 -0.1280902 -0.5399383
vn -0.5711353 -0.07490765 -0.8174309
vn -0.8330674 -0.1190032 -0.5402194
vn -0.9119341 0.1083485 -0.3957736
g Main_0
f 3/3/3 2/2/2 1/1/1
f 4/4/4 3/3/3 1/1/1
f 5/5/5 3/3/3 4/4/4
f 4/4/4 1/1/1 6/6/6
f 1/1/1 7/7/7 6/6/6
f 7/7/7 8/8/8 6/6/6
f 9/9/9 5/5/5 4/4/4
f 10/10/10 5/5/5 9/9/9
f 6/6/6 11/11/11 4/4/4
f 11/11/11 9/9/9 4/4/4
f 8/8/8 12/12/12 6/6/6
f 6/6/6 12/12/12 11/11/11
f 8/8/8 13/13/13 12/12/12
f 14/14/14 10/10/10 9/9/9
f 15/15/15 10/10/10 14/14/14
f 9/9/9 11/11/11 16/16/16
f 14/14/14 9/9/9 16/16/16
f 13/13/13 17/17/17 12/12/12
f 17/17/17 13/13/13 18/18/18
f 12/12/12 19/19/19 11/11/11
f 11/11/11 19/19/19 16/16/16
f 12/12/12 17/17/17 19/19/19
f 20/20/20 15/15/15 14/14/14
f 21/21/21 15/15/15 20/20/20
f 22/22/22 21/21/21 20/20/20
f 22/22/22 20/20/20 23/23/23
f 20/20/20 14/14/14 24/24/24
f 14/14/14 16/16/16 24/24/24
f 20/20/20 24/24/24 23/23/23
f 25/25/25 17/17/17 18/18/18
f 25/25/25 18/18/18 26/26/26
f 16/16/16 27/27/27 24/24/24
f 19/19/19 27/27/27 16/16/16
f 24/24/24 28/28/28 23/23/23
f 27/27/27 28/28/28 24/24/24
f 28/28/28 29/29/29 23/23/23
f 17/17/17 30/30/30 19/19/19
f 30/30/30 17/17/17 25/25/25
f 31/31/31 27/27/27 19/19/19
f 27/27/27 31/31/31 28/28/28
f 30/30/30 31/31/31 19/19/19
f 28/28/28 32/32/32 29/29/29
f 31/31/31 32/32/32 28/28/28
f 32/32/32 33/33/33 29/29/29
f 31/31/31 30/30/30 34/34/34
f 32/32/32 31/31/31 34/34/34
f 33/33/33 32/32/32 35/35/35
f 35/35/35 32/32/32 34/34/34
f 36/36/36 33/33/33 35/35/35
f 37/37/37 30/30/30 25/25/25
f 30/30/30 37/37/37 34/34/34
f 36/36/36 35/35/35 38/38/38
f 39/39/39 36/36/36 38/38/38
f 40/40/40 39/39/39 38/38/38
f 37/37/37 25/25/25 41/41/41
f 41/41/41 25/25/25 26/26/26
f 34/34/34 37/37/37 42/42/42
f 42/42/42 37/37/37 41/41/41
f 35/35/35 34/34/34 43/43/43
f 38/38/38 35/35/35 43/43/43
f 43/43/43 34/34/34 42/42/42
f 44/44/44 40/40/40 38/38/38
f 38/38/38 43/43/43 44/44/44
f 45/45/45 41/41/41 26/26/26
f 46/46/46 45/45/45 26/26/26
f 46/46/46 47/47/47 45/45/45
f 47/47/47 48/48/48 45/45/45
f 45/45/45 49/49/49 41/41/41
f 45/45/45 48/48/48 49/49/49
f 49/49/49 42/42/42 41/41/41
f 48/48/48 50/50/50 49/49/49
f 51/51/51 43/43/43 42/42/42
f 49/49/49 51/51/51 42/42/42
f 49/49/49 50/50/50 51/51/51
f 43/43/43 51/51/51 44/44/44
f 50/50/50 52/52/52 51/51/51
f 51/51/51 52/52/52 44/44/44
f 52/52/52 53/53/53 44/44/44
f 44/44/44 53/53/53 40/40/40
f 53/53/53 54/54/54 40/40/40
f 57/57/57 56/56/56 55/55/55
f 58/58/58 57/57/57 55/55/55
f 59/59/59 57/57/57 58/58/58
f 58/58/58 55/55/55 60/60/60
f 55/55/55 61/61/61 60/60/60
f 61/61/61 62/62/62 60/60/60
f 63/63/63 59/59/59 58/58/58
f 64/64/64 59/59/59 63/63/63
f 58/58/58 60/60/60 65/65/65
f 63/63/63 58/58/58 65/65/65
f 62/62/62 66/66/66 60/60/60
f 60/60/60 66/66/66 65/65/65
f 62/62/62 67/67/67 66/66/66
f 68/68/68 64/64/64 63/63/63
f 69/69/69 64/64/64 68/68/68
f 65/65/65 70/70/70 63/63/63
f 70/70/70 68/68/68 63/63/63
f 67/67/67 71/71/71 66/66/66
f 71/71/71 67/67/67 72/72/72
f 66/66/66 73/73/73 65/65/65
f 65/65/65 73/73/73 70/70/70
f 66/66/66 71/71/71 73/73/73
f 74/74/74 69/69/69 68/68/68
f 75/75/75 69/69/69 74/74/74
f 76/76/76 75/75/75 74/74/74
f 76/76/76 74/74/74 77/77/77
f 74/74/74 68/68/68 78/78/78
f 68/68/68 70/70/70 78/78/78
f 74/74/74 78/78/78 77/77/77
f 79/79/79 71/71/71 72/72/72
f 79/79/79 72/72/72 80/80/80
f 70/70/70 81/81/81 78/78/78
f 73/73/73 81/81/81 70/70/70
f 78/78/78 82/82/82 77/77/77
f 81/81/81 82/82/82 78/78/78
f 82/82/82 83/83/83 77/77/77
f 71/71/71 84/84/84 73/73/73
f 84/84/84 71/71/71 79/79/79
f 85/85/85 81/81/81 73/73/73
f 81/81/81 85/85/85 82/82/82
f 84/84/84 85/85/85 73/73/73
f 82/82/82 86/86/86 83/83/83
f 85/85/85 86/86/86 82/82/82
f 86/86/86 87/87/87 83/83/83
f 85/85/85 84/84/84 88/88/88
f 86/86/86 85/85/85 88/88/88
f 87/87/87 86/86/86 89/89/89
f 89/89/89 86/86/86 88/88/88
f 90/90/90 87/87/87 89/89/89
f 91/91/91 84/84/84 79/79/79
f 84/84/84 91/91/91 88/88/88
f 90/90/90 89/89/89 92/92/92
f 93/93/93 90/90/90 92/92/92
f 94/94/94 93/93/93 92/92/92
f 91/91/91 79/79/79 95/95/95
f 95/95/95 79/79/79 80/80/80
f 88/88/88 91/91/91 96/96/96
f 96/96/96 91/91/91 95/95/95
f 89/89/89 88/88/88 97/97/97
f 92/92/92 89/89/89 97/97/97
f 97/97/97 88/88/88 96/96/96
f 98/98/98 94/94/94 92/92/92
f 98/98/98 92/92/92 97/97/97
f 99/99/99 95/95/95 80/80/80
f 100/100/100 99/99/99 80/80/80
f 100/100/100 101/101/101 99/99/99
f 101/101/101 102/102/102 99/99/99
f 99/99/99 103/103/103 95/95/95
f 99/99/99 102/102/102 103/103/103
f 103/103/103 96/96/96 95/95/95
f 102/102/102 104/104/104 103/103/103
f 97/97/97 96/96/96 105/105/105
f 96/96/96 103/103/103 105/105/105
f 103/103/103 104/104/104 105/105/105
f 105/105/105 98/98/98 97/97/97
f 104/104/104 106/106/106 105/105/105
f 105/105/105 106/106/106 98/98/98
f 106/106/106 107/107/107 98/98/98
f 98/98/98 107/107/107 94/94/94
f 107/107/107 108/108/108 94/94/94
g Main_1
f 111/111/111 110/110/110 109/109/109
f 112/112/112 111/111/111 109/109/109
f 113/113/113 111/111/111 112/112/112
f 112/112/112 109/109/109 114/114/114
f 109/109/109 115/115/115 114/114/114
f 115/115/115 116/116/116 114/114/114
f 117/117/117 113/113/113 112/112/112
f 118/118/118 113/113/113 117/117/117
f 119/119/119 118/118/118 117/117/117
f 119/119/119 117/117/117 120/120/120
f 121/121/121 117/117/117 112/112/112
f 114/114/114 121/121/121 112/112/112
f 117/117/117 121/121/121 120/120/120
f 116/116/116 122/122/122 114/114/114
f 121/121/121 114/114/114 122/122/122
f 116/116/116 123/123/123 122/122/122
f 121/121/121 124/124/124 120/120/120
f 124/124/124 121/121/121 122/122/122
f 124/124/124 125/125/125 120/120/120
f 123/123/123 126/126/126 122/122/122
f 124/124/124 122/122/122 126/126/126
f 126/126/126 123/123/123 127/127/127
f 124/124/124 128/128/128 125/125/125
f 128/128/128 124/124/124 126/126/126
f 128/128/128 129/129/129 125/125/125
f 129/129/129 128/128/128 130/130/130
f 130/130/130 128/128/128 126/126/126
f 131/131/131 129/129/129 130/130/130
f 132/132/132 126/126/126 127/127/127
f 132/132/132 130/130/130 126/126/126
f 132/132/132 127/127/127 133/133/133
f 131/131/131 130/130/130 134/134/134
f 134/134/134 130/130/130 132/132/132
f 135/135/135 131/131/131 134/134/134
f 136/136/136 135/135/135 134/134/134
f 137/137/137 132/132/132 133/133/133
f 137/137/137 134/134/134 132/132/132
f 138/138/138 136/136/136 134/134/134
f 138/138/138 134/134/134 137/137/137
f 139/139/139 137/137/137 133/133/133
f 139/139/139 138/138/138 137/137/137
f 140/140/140 139/139/139 133/133/133
f 140/140/140 141/141/141 139/139/139
f 141/141/141 142/142/142 139/139/139
f 139/139/139 142/142/142 138/138/138
f 142/142/142 143/143/143 138/138/138
f 138/138/138 143/143/143 136/136/136
f 143/143/143 144/144/144 136/136/136
f 147/147/147 146/146/146 145/145/145
f 148/148/148 147/147/147 145/145/145
f 149/149/149 147/147/147 148/148/148
f 148/148/148 145/145/145 150/150/150
f 145/145/145 151/151/151 150/150/150
f 151/151/151 152/152/152 150/150/150
f 153/153/153 149/149/149 148/148/148
f 154/154/154 149/149/149 153/153/153
f 155/155/155 154/154/154 153/153/153
f 155/155/155 153/153/153 156/156/156
f 153/153/153 148/148/148 157/157/157
f 153/153/153 157/157/157 156/156/156
f 148/148/148 150/150/150 157/157/157
f 157/157/157 158/158/158 156/156/156
f 157/157/157 150/150/150 158/158/158
f 158/158/158 159/159/159 156/156/156
f 152/152/152 160/160/160 150/150/150
f 150/150/150 160/160/160 158/158/158
f 152/152/152 161/161/161 160/160/160
f 158/158/158 162/162/162 159/159/159
f 158/158/158 160/160/160 162/162/162
f 162/162/162 163/163/163 159/159/159
f 161/161/161 164/164/164 160/160/160
f 160/160/160 164/164/164 162/162/162
f 164/164/164 161/161/161 165/165/165
f 166/166/166 164/164/164 165/165/165
f 164/164/164 166/166/166 162/162/162
f 166/166/166 165/165/165 167/167/167
f 163/163/163 162/162/162 168/168/168
f 166/166/166 168/168/168 162/162/162
f 169/169/169 163/163/163 168/168/168
f 170/170/170 166/166/166 167/167/167
f 166/166/166 170/170/170 168/168/168
f 169/169/169 168/168/168 171/171/171
f 170/170/170 171/171/171 168/168/168
f 172/172/172 169/169/169 171/171/171
f 173/173/173 172/172/172 171/171/171
f 174/174/174 170/170/170 167/167/167
f 175/175/175 174/174/174 167/167/167
f 175/175/175 176/176/176 174/174/174
f 176/176/176 177/177/177 174/174/174
f 171/171/171 170/170/170 178/178/178
f 170/170/170 174/174/174 178/178/178
f 174/174/174 177/177/177 178/178/178
f 178/178/178 173/173/173 171/171/171
f 177/177/177 179/179/179 178/178/178
f 178/178/178 179/179/179 173/173/173
f 179/179/179 180/180/180 173/173/173
