g PB_Door_A_End_col
v -8.976233 0 1.726371
v 0 0 1.726371
v 0 0 -0.6095059
v -8.976233 0 -0.6095059
v -7.129325 0.5635896 -0.6095059
v -0.8737733 0.5635896 -0.6095059
v -0.8737733 0.5635896 1.726371
v -7.129325 0.5635896 1.726371
v -8.976233 0 1.726371
v -8.976233 5.863543 1.726371
v -7.129325 4.730524 1.726371
v -7.129325 0.5635896 1.726371
v 0 0 1.726371
v -0.8737733 0.5635896 1.726371
v 0 5.863543 1.726371
v -0.8737733 4.730524 1.726371
v -7.129325 0.5635896 1.726371
v -7.129325 4.730524 1.726371
v -7.129325 4.730524 -0.6095059
v -7.129325 0.5635896 -0.6095059
v -8.976233 0 -0.6095059
v -8.976233 5.863543 -0.6095059
v -8.976233 5.863543 1.726371
v -8.976233 0 1.726371
v -0.8737733 0.5635896 -0.6095059
v -0.8737733 4.730524 -0.6095059
v -0.8737733 4.730524 1.726371
v -0.8737733 0.5635896 1.726371
v 0 0 1.726371
v 0 5.863543 1.726371
v 0 5.863543 -0.6095059
v 0 0 -0.6095059
v -8.976233 5.863543 -0.6095059
v 0 5.863543 -0.6095059
v 0 5.863543 1.726371
v -8.976233 5.863543 1.726371
v -8.976233 5.863543 1.726371
v 0 5.863543 1.726371
v -0.8737733 4.730524 1.726371
v -7.129325 4.730524 1.726371
v -7.129325 4.730524 -0.6095059
v -7.129325 4.730524 1.726371
v -0.8737733 4.730524 1.726371
v -0.8737733 4.730524 -0.6095059
v -7.129325 0.5635896 -0.6095059
v -8.976233 0 -0.6095059
v 0 0 -0.6095059
v -8.976233 5.863543 -0.6095059
v -0.8737733 0.5635896 -0.6095059
v -7.129325 4.730524 -0.6095059
v -0.8737733 4.730524 -0.6095059
v 0 5.863543 -0.6095059
vt 0.3821893 1.015279
vt 0.5924904 0.9792055
vt 0.5882822 0.6754193
vt 0.384624 0.6945301
vt 0.4375 0.5
vt 0.5 0.5
vt 0.5 0.25
vt 0.4375 0.25
vt 0.3769393 0.07484012
vt 0.385425 0.236021
vt 0.4375 0.25
vt 0.4375 0.25
vt 0.5872778 0.06690257
vt 0.5 0.25
vt 0.5996376 0.25
vt 0.5 0.25
vt 0.4375 0.25
vt 0.4375 0.25
vt 0.4375 0.5
vt 0.4375 0.5
vt 0.384624 0.6945301
vt 0.3836081 0.5
vt 0.385425 0.236021
vt 0.3769393 0.07484012
vt 0.5 0.5
vt 0.5 0.5
vt 0.5 0.25
vt 0.5 0.25
vt 0.5872778 0.06690257
vt 0.5996376 0.25
vt 0.5977248 0.5
vt 0.5882822 0.6754193
vt 0.3836081 0.5
vt 0.5977248 0.5
vt 0.5996376 0.25
vt 0.385425 0.236021
vt 0.385425 0.236021
vt 0.5996376 0.25
vt 0.5 0.25
vt 0.4375 0.25
vt 0.4375 0.5
vt 0.4375 0.25
vt 0.5 0.25
vt 0.5 0.5
vt 0.4375 0.5
vt 0.384624 0.6945301
vt 0.5882822 0.6754193
vt 0.3836081 0.5
vt 0.5 0.5
vt 0.4375 0.5
vt 0.5 0.5
vt 0.5977248 0.5
vn 0 -1 0
vn 0 -1 0
vn 0 -1 0
vn 0 -1 0
vn 0 1 0
vn 0 1 0
vn 0 1 0
vn 0 1 0
vn 0 0 1
vn 0 0 1
vn 0 0 1
vn 0 0 1
vn -1.141161E-07 0 1
vn 0 0 1
vn 0 0 1
vn 0 0 1
vn 1 0 0
vn 1 0 0
vn 1 0 0
vn 1 0 0
vn -1 0 0
vn -1 0 0
vn -1 0 0
vn -1 0 0
vn -1 0 0
vn -1 0 0
vn -1 0 0
vn -1 0 0
vn 1 0 0
vn 1 0 0
vn 1 0 0
vn 1 0 0
vn 0 1 0
vn 0 1 0
vn 0 1 0
vn 0 1 0
vn 0 0 1
vn 0 0 1
vn 0 0 1
vn 0 0 1
vn 0 -1 0
vn 0 -1 0
vn 0 -1 0
vn 0 -1 0
vn 0 0 -1
vn 0 0 -1
vn 0 0 -1
vn 0 0 -1
vn 0 0 -1
vn 0 0 -1
vn 0 0 -1
vn 0 0 -1
g PB_Door_A_End_col_0
f 3/3/3 2/2/2 1/1/1
f 4/4/4 3/3/3 1/1/1
f 7/7/7 6/6/6 5/5/5
f 8/8/8 7/7/7 5/5/5
f 11/11/11 10/10/10 9/9/9
f 12/12/12 11/11/11 9/9/9
f 9/9/9 13/13/13 12/12/12
f 13/13/13 14/14/14 12/12/12
f 13/13/13 15/15/15 14/14/14
f 15/15/15 16/16/16 14/14/14
f 19/19/19 18/18/18 17/17/17
f 20/20/20 19/19/19 17/17/17
f 23/23/23 22/22/22 21/21/21
f 24/24/24 23/23/23 21/21/21
f 27/27/27 26/26/26 25/25/25
f 28/28/28 27/27/27 25/25/25
f 31/31/31 30/30/30 29/29/29
f 32/32/32 31/31/31 29/29/29
f 35/35/35 34/34/34 33/33/33
f 36/36/36 35/35/35 33/33/33
f 39/39/39 38/38/38 37/37/37
f 40/40/40 39/39/39 37/37/37
f 43/43/43 42/42/42 41/41/41
f 44/44/44 43/43/43 41/41/41
f 47/47/47 46/46/46 45/45/45
f 46/46/46 48/48/48 45/45/45
f 49/49/49 47/47/47 45/45/45
f 48/48/48 50/50/50 45/45/45
f 49/49/49 51/51/51 47/47/47
f 51/51/51 50/50/50 48/48/48
f 51/51/51 52/52/52 47/47/47
f 52/52/52 51/51/51 48/48/48
