g pb_Mesh93164
v 11.48464 0 -1.180868
v 11.29088 0 -1.180868
v 11.48464 2.336903 -1.180868
v 11.29088 2.336903 -1.180868
v 11.29088 0 -1.180868
v 11.29088 0 -24.90022
v 11.29088 2.336903 -1.180868
v 11.29088 2.336903 -24.90022
v 11.29088 0 -24.90022
v 11.48464 0 -24.90022
v 11.29088 2.336903 -24.90022
v 11.48464 2.336903 -24.90022
v 11.48464 0 -24.90022
v 11.48464 0 -1.180868
v 11.48464 2.336903 -24.90022
v 11.48464 2.336903 -1.180868
v 11.48464 2.336903 -1.180868
v 11.29088 2.336903 -1.180868
v 11.48464 2.336903 -24.90022
v 11.29088 2.336903 -24.90022
v 11.48464 0 -24.90022
v 11.29088 0 -24.90022
v 11.48464 0 -1.180868
v 11.29088 0 -1.180868
vt 11.48464 0
vt 11.29088 0
vt 11.48464 2.336903
vt 11.29088 2.336903
vt -1.180868 0
vt -24.90022 0
vt -1.180868 2.336903
vt -24.90022 2.336903
vt -11.29088 0
vt -11.48464 0
vt -11.29088 2.336903
vt -11.48464 2.336903
vt 24.90022 0
vt 1.180868 0
vt 24.90022 2.336903
vt 1.180868 2.336903
vt -11.48464 -1.180868
vt -11.29088 -1.180868
vt -11.48464 -24.90022
vt -11.29088 -24.90022
vt 11.48464 -24.90022
vt 11.29088 -24.90022
vt 11.48464 -1.180868
vt 11.29088 -1.180868
vn 0 0 1
vn 0 0 1
vn 0 0 1
vn 0 0 1
vn -1 0 0
vn -1 0 0
vn -1 0 0
vn -1 0 0
vn 0 0 -1
vn 0 0 -1
vn 0 0 -1
vn 0 0 -1
vn 1 0 0
vn 1 0 0
vn 1 0 0
vn 1 0 0
vn 0 1 0
vn 0 1 0
vn 0 1 0
vn 0 1 0
vn 0 -1 0
vn 0 -1 0
vn 0 -1 0
vn 0 -1 0
g pb_Mesh93164_0
f 3/3/3 2/2/2 1/1/1
f 3/3/3 4/4/4 2/2/2
f 7/7/7 6/6/6 5/5/5
f 7/7/7 8/8/8 6/6/6
f 11/11/11 10/10/10 9/9/9
f 11/11/11 12/12/12 10/10/10
f 15/15/15 14/14/14 13/13/13
f 15/15/15 16/16/16 14/14/14
f 19/19/19 18/18/18 17/17/17
f 19/19/19 20/20/20 18/18/18
f 23/23/23 22/22/22 21/21/21
f 23/23/23 24/24/24 22/22/22
