g pb_Mesh361016
v 7.748604E-07 0.04999924 -1.907349E-06
v -35.1 0 -6.085634E-06
v 0 1 0
v -35.1 4 0.0002070606
v -35.1 0 -6.085634E-06
v -35 0 -10.00003
v -35.1 4 0.0002070606
v -34.90006 4 -9.999794
v -35 0 -10.00003
v 2.086163E-06 0.04999924 -10
v -34.90006 4 -9.999794
v 0 1 -10
v 2.086163E-06 0.04999924 -10
v 7.748604E-07 0.04999924 -1.907349E-06
v 0 1 -10
v 0 1 0
v 0 1 0
v -35.1 4 0.0002070606
v 0 1 -10
v -34.90006 4 -9.999794
v 2.086163E-06 0.04999924 -10
v -35 0 -10.00003
v 7.748604E-07 0.04999924 -1.907349E-06
v -35.1 0 -6.085634E-06
vt 7.748602E-07 0.04999924
vt -35.1 -4.030994E-12
vt 0 1
vt -35.1 4
vt 0.3509702 1.476924E-05
vt -9.649552 1.476924E-05
vt 0.3511834 4.000015
vt -9.650317 4.000015
vt 35.00001 -0.0005863403
vt 4.705616E-06 0.0494129
vt 34.90007 3.999414
vt 6.791778E-06 0.9994137
vt 10 0.04999924
vt 1.907349E-06 0.04999924
vt 10 1
vt 0 1
vt 0.08515959 0
vt 35.31313 0.0002070606
vt 0.08515959 -10
vt 35.11392 -9.999794
vt 7.351248E-05 -10
vt -34.99997 -10.00003
vt 7.220118E-05 -1.907339E-06
vt -35.09996 -6.085625E-06
vn -1.161795E-07 -2.007734E-06 1
vn 6.14288E-07 -2.764714E-05 1
vn 6.14288E-07 -2.764714E-05 1
vn 1.344756E-06 -5.328655E-05 1
vn -0.9999501 -4.207971E-07 -0.009999325
vn -0.9997192 0.01248664 -0.01499172
vn -0.9997192 0.01248664 -0.01499172
vn -0.9994884 0.0249737 -0.01998412
vn 6.791778E-07 5.8634E-05 -1
vn -2.525313E-06 3.032086E-05 -1
vn -2.525313E-06 3.032086E-05 -1
vn -5.729803E-06 2.007721E-06 -1
vn 1 2.195959E-06 1.311302E-07
vn 1 1.5058E-06 6.556511E-08
vn 1 1.5058E-06 6.556511E-08
vn 1 8.156418E-07 0
vn 0.08515959 0.9963673 0
vn 0.0854017 0.9963459 0.0008561961
vn 0.0854017 0.9963459 0.0008561961
vn 0.0856438 0.9963244 0.001712392
vn 0.001428548 -0.999999 1.873258E-10
vn 0.001426513 -0.999999 7.122361E-06
vn 0.001426513 -0.999999 7.122361E-06
vn 0.001424478 -0.999999 1.424453E-05
g pb_Mesh361016_0
f 3/3/3 2/2/2 1/1/1
f 3/3/3 4/4/4 2/2/2
f 7/7/7 6/6/6 5/5/5
f 7/7/7 8/8/8 6/6/6
f 11/11/11 10/10/10 9/9/9
f 11/11/11 12/12/12 10/10/10
f 15/15/15 14/14/14 13/13/13
f 15/15/15 16/16/16 14/14/14
f 19/19/19 18/18/18 17/17/17
f 19/19/19 20/20/20 18/18/18
f 23/23/23 22/22/22 21/21/21
f 23/23/23 24/24/24 22/22/22
