g pb_Mesh516208
v 7.748604E-07 0.04999924 -1.907349E-06
v -35 0.04999924 -6.496906E-06
v 0 1 0
v -35 4 0.0001003146
v -35 0.04999924 -6.496906E-06
v -35 0.04999924 -10.00003
v -35 4 0.0001003146
v -35.00003 4 -9.9999
v -35 0.04999924 -10.00003
v 2.086163E-06 0.04999924 -10
v -35.00003 4 -9.9999
v 0 1 -10
v 2.086163E-06 0.04999924 -10
v 7.748604E-07 0.04999924 -1.907349E-06
v 0 1 -10
v 0 1 0
v 0 1 0
v -35 4 0.0001003146
v 0 1 -10
v -35.00003 4 -9.9999
v 2.086163E-06 0.04999924 -10
v -35 0.04999924 -10.00003
v 7.748604E-07 0.04999924 -1.907349E-06
v -35 0.04999924 -6.496906E-06
vt 7.748602E-07 0.04999924
vt -35 0.04999924
vt 0 1
vt -35 4
vt -6.496906E-06 0.04999924
vt -10.00003 0.04999924
vt 0.0001003146 4
vt -9.9999 4
vt 35.00001 0.04966123
vt 6.905624E-06 0.04966123
vt 35.00003 3.999662
vt 8.991785E-06 0.999662
vt 10 0.04999924
vt 1.907349E-06 0.04999924
vt 10 1
vt 0 1
vt 0.08540114 0
vt 35.21374 0.0001003146
vt 0.08540114 -10
vt 35.21376 -9.9999
vt 2.086163E-06 -10
vt -35 -10.00003
vt 7.748604E-07 -1.907349E-06
vt -35 -6.496906E-06
vn -1.311302E-07 -2.007734E-06 1
vn 2.086057E-07 -1.452431E-05 1
vn 2.086057E-07 -1.452431E-05 1
vn 5.483416E-07 -2.704089E-05 1
vn -1 0 0
vn -1 -3.380156E-06 1.335144E-06
vn -1 -3.380156E-06 1.335144E-06
vn -1 -6.760311E-06 2.670288E-06
vn 8.991785E-07 3.380111E-05 -1
vn -8.948756E-07 1.790442E-05 -1
vn -8.948756E-07 1.790442E-05 -1
vn -2.68893E-06 2.007728E-06 -1
vn 1 2.195959E-06 1.311302E-07
vn 1 1.5058E-06 6.556511E-08
vn 1 1.5058E-06 6.556511E-08
vn 1 8.156418E-07 0
vn 0.08540114 0.9963467 0
vn 0.0854011 0.9963467 -1.140227E-07
vn 0.0854011 0.9963467 -1.140227E-07
vn 0.08540107 0.9963467 -2.280455E-07
vn 0 -1 0
vn 0 -1 0
vn 0 -1 0
vn 0 -1 0
g pb_Mesh516208_0
f 3/3/3 2/2/2 1/1/1
f 3/3/3 4/4/4 2/2/2
f 7/7/7 6/6/6 5/5/5
f 7/7/7 8/8/8 6/6/6
f 11/11/11 10/10/10 9/9/9
f 11/11/11 12/12/12 10/10/10
f 15/15/15 14/14/14 13/13/13
f 15/15/15 16/16/16 14/14/14
f 19/19/19 18/18/18 17/17/17
f 19/19/19 20/20/20 18/18/18
f 23/23/23 22/22/22 21/21/21
f 23/23/23 24/24/24 22/22/22
