g pb_Mesh78522
v -7.878051 0 55.35164
v -9.850127 0 55.35164
v -7.878051 3.116673 55.35164
v -9.850127 3.116673 55.35164
v -9.850127 0 55.35164
v -11 0 34.30822
v -9.850127 3.116673 55.35164
v -11 3.116673 34.30822
v -11 0 34.30822
v -9.027889 0 34.30819
v -11 3.116673 34.30822
v -9.027889 3.116673 34.30819
v -9.027889 0 34.30819
v -7.878051 0 55.35164
v -9.027889 3.116673 34.30819
v -7.878051 3.116673 55.35164
v -7.878051 3.116673 55.35164
v -9.850127 3.116673 55.35164
v -9.027889 3.116673 34.30819
v -11 3.116673 34.30822
v -9.027889 0 34.30819
v -11 0 34.30822
v -7.878051 0 55.35164
v -9.850127 0 55.35164
vt -7.878051 0
vt -9.850127 0
vt -7.878051 3.116673
vt -9.850127 3.116673
vt 54.73175 0
vt 33.65694 0
vt 54.73175 3.116673
vt 33.65694 3.116673
vt 11.00053 0
vt 9.02842 0
vt 11.00053 3.116673
vt 9.02842 3.116673
vt -33.76453 0
vt -54.83937 0
vt -33.76453 3.116673
vt -54.83937 3.116673
vt 7.878051 55.35164
vt 9.850127 55.35164
vt 9.027889 34.30819
vt 11 34.30822
vt -9.027889 34.30819
vt -11 34.30822
vt -7.878051 55.35164
vt -9.850127 55.35164
vn 0 0 0.9999999
vn 0 0 0.9999999
vn 0 0 0.9999999
vn 0 0 0.9999999
vn -0.9985104 0 0.05456152
vn -0.9985104 0 0.05456152
vn -0.9985104 0 0.05456152
vn -0.9985104 0 0.05456152
vn -1.547457E-05 0 -1
vn -1.547457E-05 0 -1
vn -1.547457E-05 0 -1
vn -1.547457E-05 0 -1
vn 0.9985105 0 -0.05455974
vn 0.9985105 0 -0.05455974
vn 0.9985105 0 -0.05455974
vn 0.9985105 0 -0.05455974
vn 0 1 0
vn 0 1 0
vn 0 1 0
vn 0 1 0
vn 0 -1 0
vn 0 -1 0
vn 0 -1 0
vn 0 -1 0
g pb_Mesh78522_0
f 3/3/3 2/2/2 1/1/1
f 3/3/3 4/4/4 2/2/2
f 7/7/7 6/6/6 5/5/5
f 7/7/7 8/8/8 6/6/6
f 11/11/11 10/10/10 9/9/9
f 11/11/11 12/12/12 10/10/10
f 15/15/15 14/14/14 13/13/13
f 15/15/15 16/16/16 14/14/14
f 19/19/19 18/18/18 17/17/17
f 19/19/19 20/20/20 18/18/18
f 23/23/23 22/22/22 21/21/21
f 23/23/23 24/24/24 22/22/22
