g pb_Mesh103650
v 0 0 0
v 0 1 0
v 2.545959 0 25.84947
v 2.545959 1 25.84947
v 2.545959 0 25.84947
v 2.545959 1 25.84947
v 10.08597 0 50.70556
v 10.08597 1 50.70556
v 10.08597 0 50.70556
v 10.08597 1 50.70556
v 22.33028 0 73.61306
v 22.33028 1 73.61306
v 22.33028 0 73.61306
v 22.33028 1 73.61306
v 38.80835 0 93.69165
v 38.80835 1 93.69165
v 38.80835 0 93.69165
v 38.80835 1 93.69165
v 58.88694 0 110.1697
v 58.88694 1 110.1697
v 58.88694 0 110.1697
v 58.88694 1 110.1697
v 81.79445 0 122.414
v 81.79445 1 122.414
v 81.79445 0 122.414
v 81.79445 1 122.414
v 106.6505 0 129.954
v 106.6505 1 129.954
v 106.6505 0 129.954
v 106.6505 1 129.954
v 132.5 0 132.5
v 132.5 1 132.5
v 132.5 0 132.5
v 132.5 1 132.5
v 158.3495 0 129.954
v 158.3495 1 129.954
v 158.3495 0 129.954
v 158.3495 1 129.954
v 183.2056 0 122.414
v 183.2056 1 122.414
v 183.2056 0 122.414
v 183.2056 1 122.414
v 206.1131 0 110.1697
v 206.1131 1 110.1697
v 206.1131 0 110.1697
v 206.1131 1 110.1697
v 226.1917 0 93.69165
v 226.1917 1 93.69165
v 226.1917 0 93.69165
v 226.1917 1 93.69165
v 242.6697 0 73.61305
v 242.6697 1 73.61305
v 242.6697 0 73.61305
v 242.6697 1 73.61305
v 254.914 0 50.70556
v 254.914 1 50.70556
v 254.914 0 50.70556
v 254.914 1 50.70556
v 262.454 0 25.84947
v 262.454 1 25.84947
v 262.454 0 25.84947
v 262.454 1 25.84947
v 265 0 -1.158352E-05
v 265 1 -1.158352E-05
v 265 0 -1.158352E-05
v 265 1 -1.158352E-05
v 262.454 0 -25.84946
v 262.454 1 -25.84946
v 262.454 0 -25.84946
v 262.454 1 -25.84946
v 254.914 0 -50.70555
v 254.914 1 -50.70555
v 254.914 0 -50.70555
v 254.914 1 -50.70555
v 242.6697 0 -73.61307
v 242.6697 1 -73.61307
v 242.6697 0 -73.61307
v 242.6697 1 -73.61307
v 226.1917 0 -93.69164
v 226.1917 1 -93.69164
v 226.1917 0 -93.69164
v 226.1917 1 -93.69164
v 206.1131 0 -110.1697
v 206.1131 1 -110.1697
v 206.1131 0 -110.1697
v 206.1131 1 -110.1697
v 183.2056 0 -122.414
v 183.2056 1 -122.414
v 183.2056 0 -122.414
v 183.2056 1 -122.414
v 158.3495 0 -129.954
v 158.3495 1 -129.954
v 158.3495 0 -129.954
v 158.3495 1 -129.954
v 132.5 0 -132.5
v 132.5 1 -132.5
v 132.5 0 -132.5
v 132.5 1 -132.5
v 106.6505 0 -129.954
v 106.6505 1 -129.954
v 106.6505 0 -129.954
v 106.6505 1 -129.954
v 81.79442 0 -122.414
v 81.79442 1 -122.414
v 81.79442 0 -122.414
v 81.79442 1 -122.414
v 58.88696 0 -110.1697
v 58.88696 1 -110.1697
v 58.88696 0 -110.1697
v 58.88696 1 -110.1697
v 38.80837 0 -93.69167
v 38.80837 1 -93.69167
v 38.80837 0 -93.69167
v 38.80837 1 -93.69167
v 22.33028 0 -73.61307
v 22.33028 1 -73.61307
v 22.33028 0 -73.61307
v 22.33028 1 -73.61307
v 10.08596 0 -50.70555
v 10.08596 1 -50.70555
v 10.08596 0 -50.70555
v 10.08596 1 -50.70555
v 2.545944 0 -25.84946
v 2.545944 1 -25.84946
v 2.545944 0 -25.84946
v 2.545944 1 -25.84946
v 2.545959 0 25.84947
v 132.5 0 0
v 0 0 0
v 10.08597 0 50.70556
v 22.33028 0 73.61306
v 38.80835 0 93.69165
v 58.88694 0 110.1697
v 81.79445 0 122.414
v 106.6505 0 129.954
v 132.5 0 132.5
v 158.3495 0 129.954
v 183.2056 0 122.414
v 206.1131 0 110.1697
v 226.1917 0 93.69165
v 242.6697 0 73.61305
v 254.914 0 50.70556
v 262.454 0 25.84947
v 265 0 -1.158352E-05
v 262.454 0 -25.84946
v 254.914 0 -50.70555
v 242.6697 0 -73.61307
v 226.1917 0 -93.69164
v 206.1131 0 -110.1697
v 183.2056 0 -122.414
v 158.3495 0 -129.954
v 132.5 0 -132.5
v 106.6505 0 -129.954
v 81.79442 0 -122.414
v 58.88696 0 -110.1697
v 38.80837 0 -93.69167
v 22.33028 0 -73.61307
v 10.08596 0 -50.70555
v 2.545944 0 -25.84946
v 0 1 0
v 132.5 1 0
v 2.545959 1 25.84947
v 10.08597 1 50.70556
v 22.33028 1 73.61306
v 38.80835 1 93.69165
v 58.88694 1 110.1697
v 81.79445 1 122.414
v 106.6505 1 129.954
v 132.5 1 132.5
v 158.3495 1 129.954
v 183.2056 1 122.414
v 206.1131 1 110.1697
v 226.1917 1 93.69165
v 242.6697 1 73.61305
v 254.914 1 50.70556
v 262.454 1 25.84947
v 265 1 -1.158352E-05
v 262.454 1 -25.84946
v 254.914 1 -50.70555
v 242.6697 1 -73.61307
v 226.1917 1 -93.69164
v 206.1131 1 -110.1697
v 183.2056 1 -122.414
v 158.3495 1 -129.954
v 132.5 1 -132.5
v 106.6505 1 -129.954
v 81.79442 1 -122.414
v 58.88696 1 -110.1697
v 38.80837 1 -93.69167
v 22.33028 1 -73.61307
v 10.08596 1 -50.70555
v 2.545944 1 -25.84946
vt 0 0
vt 0 1
vt 25.97454 0
vt 25.97454 1
vt 25.47545 0
vt 25.47545 1
vt 51.45 0
vt 51.45 1
vt 49.47281 0
vt 49.47281 1
vt 75.44735 0
vt 75.44735 1
vt 71.06985 0
vt 71.06985 1
vt 97.04439 0
vt 97.04439 1
vt 89.43661 0
vt 89.43661 1
vt 115.4112 0
vt 115.4112 1
vt 103.8673 0
vt 103.8673 1
vt 129.8418 0
vt 129.8418 1
vt 113.8073 0
vt 113.8073 1
vt 139.7819 0
vt 139.7819 1
vt 118.8747 0
vt 118.8747 1
vt 144.8493 0
vt 144.8493 1
vt 118.8747 0
vt 118.8747 1
vt 144.8492 0
vt 144.8492 1
vt 113.8074 0
vt 113.8074 1
vt 139.7819 0
vt 139.7819 1
vt 103.8673 0
vt 103.8673 1
vt 129.8419 0
vt 129.8419 1
vt 89.4366 0
vt 89.4366 1
vt 115.4112 0
vt 115.4112 1
vt 71.0699 0
vt 71.0699 1
vt 97.04446 0
vt 97.04446 1
vt 49.47268 0
vt 49.47268 1
vt 75.4472 0
vt 75.4472 1
vt 25.47539 0
vt 25.47539 1
vt 51.44994 0
vt 51.44994 1
vt 8.298883E-05 0
vt 8.298883E-05 1
vt 25.97464 0
vt 25.97464 1
vt -25.97464 0
vt -25.97464 1
vt -0.0001194983 0
vt -0.0001194983 1
vt -51.44994 0
vt -51.44994 1
vt -25.47539 0
vt -25.47539 1
vt -75.44736 0
vt -75.44736 1
vt -49.47281 0
vt -49.47281 1
vt -97.04434 0
vt -97.04434 1
vt -71.06982 0
vt -71.06982 1
vt -115.4111 0
vt -115.4111 1
vt -89.43657 0
vt -89.43657 1
vt -129.8419 0
vt -129.8419 1
vt -103.8673 0
vt -103.8673 1
vt -139.7819 0
vt -139.7819 1
vt -113.8074 0
vt -113.8074 1
vt -144.8492 0
vt -144.8492 1
vt -118.8747 0
vt -118.8747 1
vt -144.8493 0
vt -144.8493 1
vt -118.8747 0
vt -118.8747 1
vt -139.7818 0
vt -139.7818 1
vt -113.8073 0
vt -113.8073 1
vt -129.8418 0
vt -129.8418 1
vt -103.8673 0
vt -103.8673 1
vt -115.4112 0
vt -115.4112 1
vt -89.43665 0
vt -89.43665 1
vt -97.04439 0
vt -97.04439 1
vt -71.06983 0
vt -71.06983 1
vt -75.44735 0
vt -75.44735 1
vt -49.4728 0
vt -49.4728 1
vt -51.44999 0
vt -51.44999 1
vt -25.47544 0
vt -25.47544 1
vt -25.97453 0
vt -25.97453 1
vt 2.545959 25.84947
vt 132.5 0
vt 0 0
vt 10.08597 50.70556
vt 22.33028 73.61306
vt 38.80835 93.69165
vt 58.88694 110.1697
vt 81.79445 122.414
vt 106.6505 129.954
vt 132.5 132.5
vt 158.3495 129.954
vt 183.2056 122.414
vt 206.1131 110.1697
vt 226.1917 93.69165
vt 242.6697 73.61305
vt 254.914 50.70556
vt 262.454 25.84947
vt 265 -1.158352E-05
vt 262.454 -25.84946
vt 254.914 -50.70555
vt 242.6697 -73.61307
vt 226.1917 -93.69164
vt 206.1131 -110.1697
vt 183.2056 -122.414
vt 158.3495 -129.954
vt 132.5 -132.5
vt 106.6505 -129.954
vt 81.79442 -122.414
vt 58.88696 -110.1697
vt 38.80837 -93.69167
vt 22.33028 -73.61307
vt 10.08596 -50.70555
vt 2.545944 -25.84946
vt 0 0
vt -132.5 0
vt -2.545959 25.84947
vt -10.08597 50.70556
vt -22.33028 73.61306
vt -38.80835 93.69165
vt -58.88694 110.1697
vt -81.79445 122.414
vt -106.6505 129.954
vt -132.5 132.5
vt -158.3495 129.954
vt -183.2056 122.414
vt -206.1131 110.1697
vt -226.1917 93.69165
vt -242.6697 73.61305
vt -254.914 50.70556
vt -262.454 25.84947
vt -265 -1.158352E-05
vt -262.454 -25.84946
vt -254.914 -50.70555
vt -242.6697 -73.61307
vt -226.1917 -93.69164
vt -206.1131 -110.1697
vt -183.2056 -122.414
vt -158.3495 -129.954
vt -132.5 -132.5
vt -106.6505 -129.954
vt -81.79442 -122.414
vt -58.88696 -110.1697
vt -38.80837 -93.69167
vt -22.33028 -73.61307
vt -10.08596 -50.70555
vt -2.545944 -25.84946
vn -1 0 2.73262E-07
vn -1 0 2.73262E-07
vn -0.9807853 0 0.1950904
vn -0.9807853 0 0.1950904
vn -0.9807853 0 0.1950904
vn -0.9807853 0 0.1950904
vn -0.9238796 0 0.3826833
vn -0.9238796 0 0.3826833
vn -0.9238796 0 0.3826833
vn -0.9238796 0 0.3826833
vn -0.8314697 0 0.5555701
vn -0.8314697 0 0.5555701
vn -0.8314697 0 0.5555701
vn -0.8314697 0 0.5555701
vn -0.7071068 0 0.7071068
vn -0.7071068 0 0.7071068
vn -0.7071068 0 0.7071068
vn -0.7071068 0 0.7071068
vn -0.5555701 0 0.8314697
vn -0.5555701 0 0.8314697
vn -0.5555701 0 0.8314697
vn -0.5555701 0 0.8314697
vn -0.3826833 0 0.9238796
vn -0.3826833 0 0.9238796
vn -0.3826833 0 0.9238796
vn -0.3826833 0 0.9238796
vn -0.1950905 0 0.9807853
vn -0.1950905 0 0.9807853
vn -0.1950905 0 0.9807853
vn -0.1950905 0 0.9807853
vn 0 0 1
vn 0 0 1
vn 0 0 1
vn 0 0 1
vn 0.1950904 0 0.9807853
vn 0.1950904 0 0.9807853
vn 0.1950904 0 0.9807853
vn 0.1950904 0 0.9807853
vn 0.3826832 0 0.9238796
vn 0.3826832 0 0.9238796
vn 0.3826832 0 0.9238796
vn 0.3826832 0 0.9238796
vn 0.5555702 0 0.8314697
vn 0.5555702 0 0.8314697
vn 0.5555702 0 0.8314697
vn 0.5555702 0 0.8314697
vn 0.7071067 0 0.7071069
vn 0.7071067 0 0.7071069
vn 0.7071067 0 0.7071069
vn 0.7071067 0 0.7071069
vn 0.8314697 0 0.5555701
vn 0.8314697 0 0.5555701
vn 0.8314697 0 0.5555701
vn 0.8314697 0 0.5555701
vn 0.9238797 0 0.3826831
vn 0.9238797 0 0.3826831
vn 0.9238797 0 0.3826831
vn 0.9238797 0 0.3826831
vn 0.9807853 0 0.1950904
vn 0.9807853 0 0.1950904
vn 0.9807853 0 0.1950904
vn 0.9807853 0 0.1950904
vn 1 0 -5.240642E-08
vn 1 0 -5.240642E-08
vn 1 0 -5.240642E-08
vn 1 0 -5.240642E-08
vn 0.9807853 0 -0.1950904
vn 0.9807853 0 -0.1950904
vn 0.9807853 0 -0.1950904
vn 0.9807853 0 -0.1950904
vn 0.9238796 0 -0.3826834
vn 0.9238796 0 -0.3826834
vn 0.9238796 0 -0.3826834
vn 0.9238796 0 -0.3826834
vn 0.8314696 0 -0.5555702
vn 0.8314696 0 -0.5555702
vn 0.8314696 0 -0.5555702
vn 0.8314696 0 -0.5555702
vn 0.7071069 0 -0.7071066
vn 0.7071069 0 -0.7071066
vn 0.7071069 0 -0.7071066
vn 0.7071069 0 -0.7071066
vn 0.5555704 0 -0.8314695
vn 0.5555704 0 -0.8314695
vn 0.5555704 0 -0.8314695
vn 0.5555704 0 -0.8314695
vn 0.3826834 0 -0.9238796
vn 0.3826834 0 -0.9238796
vn 0.3826834 0 -0.9238796
vn 0.3826834 0 -0.9238796
vn 0.1950904 0 -0.9807853
vn 0.1950904 0 -0.9807853
vn 0.1950904 0 -0.9807853
vn 0.1950904 0 -0.9807853
vn 1.497326E-08 0 -1
vn 1.497326E-08 0 -1
vn 1.497326E-08 0 -1
vn 1.497326E-08 0 -1
vn -0.1950905 0 -0.9807853
vn -0.1950905 0 -0.9807853
vn -0.1950905 0 -0.9807853
vn -0.1950905 0 -0.9807853
vn -0.3826834 0 -0.9238796
vn -0.3826834 0 -0.9238796
vn -0.3826834 0 -0.9238796
vn -0.3826834 0 -0.9238796
vn -0.5555702 0 -0.8314697
vn -0.5555702 0 -0.8314697
vn -0.5555702 0 -0.8314697
vn -0.5555702 0 -0.8314697
vn -0.7071066 0 -0.7071069
vn -0.7071066 0 -0.7071069
vn -0.7071066 0 -0.7071069
vn -0.7071066 0 -0.7071069
vn -0.8314695 0 -0.5555704
vn -0.8314695 0 -0.5555704
vn -0.8314695 0 -0.5555704
vn -0.8314695 0 -0.5555704
vn -0.9238796 0 -0.3826834
vn -0.9238796 0 -0.3826834
vn -0.9238796 0 -0.3826834
vn -0.9238796 0 -0.3826834
vn -0.9807853 0 -0.1950902
vn -0.9807853 0 -0.1950902
vn -0.9807853 0 -0.1950902
vn -0.9807853 0 -0.1950902
vn 0 -1 0
vn 0 -1 0
vn 0 -1 0
vn 0 -1 0
vn 0 -1 0
vn 0 -1 0
vn 0 -1 0
vn 0 -1 0
vn 0 -1 0
vn 0 -1 0
vn 0 -1 0
vn 0 -1 0
vn 0 -1 0
vn 0 -1 0
vn 0 -1 0
vn 0 -1 0
vn 0 -1 0
vn 0 -1 0
vn 0 -1 0
vn 0 -1 0
vn 0 -1 0
vn 0 -1 0
vn 0 -1 0
vn 0 -1 0
vn 0 -1 0
vn 0 -1 0
vn 0 -1 0
vn 0 -1 0
vn 0 -1 0
vn 0 -1 0
vn 0 -1 0
vn 0 -1 0
vn 0 -1 0
vn 0 1 0
vn 0 1 0
vn 0 1 0
vn 0 1 0
vn 0 1 0
vn 0 1 0
vn 0 1 0
vn 0 1 0
vn 0 1 0
vn 0 1 0
vn 0 1 0
vn 0 1 0
vn 0 1 0
vn 0 1 0
vn 0 1 0
vn 0 1 0
vn 0 1 0
vn 0 1 0
vn 0 1 0
vn 0 1 0
vn 0 1 0
vn 0 1 0
vn 0 1 0
vn 0 1 0
vn 0 1 0
vn 0 1 0
vn 0 1 0
vn 0 1 0
vn 0 1 0
vn 0 1 0
vn 0 1 0
vn 0 1 0
vn 0 1 0
g pb_Mesh103650_0
f 3/3/3 2/2/2 1/1/1
f 3/3/3 4/4/4 2/2/2
f 7/7/7 6/6/6 5/5/5
f 7/7/7 8/8/8 6/6/6
f 11/11/11 10/10/10 9/9/9
f 11/11/11 12/12/12 10/10/10
f 15/15/15 14/14/14 13/13/13
f 15/15/15 16/16/16 14/14/14
f 19/19/19 18/18/18 17/17/17
f 19/19/19 20/20/20 18/18/18
f 23/23/23 22/22/22 21/21/21
f 23/23/23 24/24/24 22/22/22
f 27/27/27 26/26/26 25/25/25
f 27/27/27 28/28/28 26/26/26
f 31/31/31 30/30/30 29/29/29
f 31/31/31 32/32/32 30/30/30
f 35/35/35 34/34/34 33/33/33
f 35/35/35 36/36/36 34/34/34
f 39/39/39 38/38/38 37/37/37
f 39/39/39 40/40/40 38/38/38
f 43/43/43 42/42/42 41/41/41
f 43/43/43 44/44/44 42/42/42
f 47/47/47 46/46/46 45/45/45
f 47/47/47 48/48/48 46/46/46
f 51/51/51 50/50/50 49/49/49
f 51/51/51 52/52/52 50/50/50
f 55/55/55 54/54/54 53/53/53
f 55/55/55 56/56/56 54/54/54
f 59/59/59 58/58/58 57/57/57
f 59/59/59 60/60/60 58/58/58
f 63/63/63 62/62/62 61/61/61
f 63/63/63 64/64/64 62/62/62
f 67/67/67 66/66/66 65/65/65
f 67/67/67 68/68/68 66/66/66
f 71/71/71 70/70/70 69/69/69
f 71/71/71 72/72/72 70/70/70
f 75/75/75 74/74/74 73/73/73
f 75/75/75 76/76/76 74/74/74
f 79/79/79 78/78/78 77/77/77
f 79/79/79 80/80/80 78/78/78
f 83/83/83 82/82/82 81/81/81
f 83/83/83 84/84/84 82/82/82
f 87/87/87 86/86/86 85/85/85
f 87/87/87 88/88/88 86/86/86
f 91/91/91 90/90/90 89/89/89
f 91/91/91 92/92/92 90/90/90
f 95/95/95 94/94/94 93/93/93
f 95/95/95 96/96/96 94/94/94
f 99/99/99 98/98/98 97/97/97
f 99/99/99 100/100/100 98/98/98
f 103/103/103 102/102/102 101/101/101
f 103/103/103 104/104/104 102/102/102
f 107/107/107 106/106/106 105/105/105
f 107/107/107 108/108/108 106/106/106
f 111/111/111 110/110/110 109/109/109
f 111/111/111 112/112/112 110/110/110
f 115/115/115 114/114/114 113/113/113
f 115/115/115 116/116/116 114/114/114
f 119/119/119 118/118/118 117/117/117
f 119/119/119 120/120/120 118/118/118
f 123/123/123 122/122/122 121/121/121
f 123/123/123 124/124/124 122/122/122
f 1/1/1 126/126/126 125/125/125
f 1/1/1 2/2/2 126/126/126
f 129/129/129 128/128/128 127/127/127
f 127/127/127 128/128/128 130/130/130
f 130/130/130 128/128/128 131/131/131
f 131/131/131 128/128/128 132/132/132
f 132/132/132 128/128/128 133/133/133
f 133/133/133 128/128/128 134/134/134
f 134/134/134 128/128/128 135/135/135
f 135/135/135 128/128/128 136/136/136
f 136/136/136 128/128/128 137/137/137
f 137/137/137 128/128/128 138/138/138
f 138/138/138 128/128/128 139/139/139
f 139/139/139 128/128/128 140/140/140
f 140/140/140 128/128/128 141/141/141
f 141/141/141 128/128/128 142/142/142
f 142/142/142 128/128/128 143/143/143
f 143/143/143 128/128/128 144/144/144
f 144/144/144 128/128/128 145/145/145
f 145/145/145 128/128/128 146/146/146
f 146/146/146 128/128/128 147/147/147
f 147/147/147 128/128/128 148/148/148
f 148/148/148 128/128/128 149/149/149
f 149/149/149 128/128/128 150/150/150
f 150/150/150 128/128/128 151/151/151
f 151/151/151 128/128/128 152/152/152
f 152/152/152 128/128/128 153/153/153
f 153/153/153 128/128/128 154/154/154
f 154/154/154 128/128/128 155/155/155
f 155/155/155 128/128/128 156/156/156
f 156/156/156 128/128/128 157/157/157
f 157/157/157 128/128/128 158/158/158
f 158/158/158 128/128/128 159/159/159
f 159/159/159 128/128/128 129/129/129
f 162/162/162 161/161/161 160/160/160
f 163/163/163 161/161/161 162/162/162
f 164/164/164 161/161/161 163/163/163
f 165/165/165 161/161/161 164/164/164
f 166/166/166 161/161/161 165/165/165
f 167/167/167 161/161/161 166/166/166
f 168/168/168 161/161/161 167/167/167
f 169/169/169 161/161/161 168/168/168
f 170/170/170 161/161/161 169/169/169
f 171/171/171 161/161/161 170/170/170
f 172/172/172 161/161/161 171/171/171
f 173/173/173 161/161/161 172/172/172
f 174/174/174 161/161/161 173/173/173
f 175/175/175 161/161/161 174/174/174
f 176/176/176 161/161/161 175/175/175
f 177/177/177 161/161/161 176/176/176
f 178/178/178 161/161/161 177/177/177
f 179/179/179 161/161/161 178/178/178
f 180/180/180 161/161/161 179/179/179
f 181/181/181 161/161/161 180/180/180
f 182/182/182 161/161/161 181/181/181
f 183/183/183 161/161/161 182/182/182
f 184/184/184 161/161/161 183/183/183
f 185/185/185 161/161/161 184/184/184
f 186/186/186 161/161/161 185/185/185
f 187/187/187 161/161/161 186/186/186
f 188/188/188 161/161/161 187/187/187
f 189/189/189 161/161/161 188/188/188
f 190/190/190 161/161/161 189/189/189
f 191/191/191 161/161/161 190/190/190
f 192/192/192 161/161/161 191/191/191
f 160/160/160 161/161/161 192/192/192
