g pb_Mesh92884
v 0 -1.085888 -3.01028
v -8.944284 -1.085888 -3.010284
v 0 1 -3.01028
v -8.944284 1 -3.010284
v -8.944284 -1.085888 -3.010284
v -8.944284 -1.085888 -6.000004
v -8.944284 1 -3.010284
v -8.944284 1 -6.000004
v -8.944284 -1.085888 -6.000004
v 0 -1.085888 -6
v -8.944284 1 -6.000004
v 0 1 -6
v 0 -1.085888 -6
v 0 -1.085888 -3.01028
v 0 1 -6
v 0 1 -3.01028
v 0 1 -3.01028
v -8.944284 1 -3.010284
v 0 1 -6
v -8.944284 1 -6.000004
v 0 -1.085888 -6
v -8.944284 -1.085888 -6.000004
v 0 -1.085888 -3.01028
v -8.944284 -1.085888 -3.010284
vt -1.283871E-06 -1.085888
vt -8.944285 -1.085888
vt -1.283871E-06 1
vt -8.944285 1
vt -3.010284 -1.085888
vt -6.000004 -1.085888
vt -3.010284 1
vt -6.000004 1
vt 8.944287 -1.085888
vt 2.558973E-06 -1.085888
vt 8.944287 1
vt 2.558973E-06 1
vt 6 -1.085888
vt 3.01028 -1.085888
vt 6 1
vt 3.01028 1
vt 0 -3.01028
vt 8.944284 -3.010284
vt 0 -6
vt 8.944284 -6.000004
vt 0 -6
vt -8.944284 -6.000004
vt 0 -3.01028
vt -8.944284 -3.010284
vn -4.264955E-07 0 1
vn -4.264955E-07 0 1
vn -4.264955E-07 0 1
vn -4.264955E-07 0 1
vn -1 0 0
vn -1 0 0
vn -1 0 0
vn -1 0 0
vn 4.264955E-07 0 -1
vn 4.264955E-07 0 -1
vn 4.264955E-07 0 -1
vn 4.264955E-07 0 -1
vn 1 0 0
vn 1 0 0
vn 1 0 0
vn 1 0 0
vn 0 1 0
vn 0 1 0
vn 0 1 0
vn 0 1 0
vn 0 -1 0
vn 0 -1 0
vn 0 -1 0
vn 0 -1 0
g pb_Mesh92884_0
f 3/3/3 2/2/2 1/1/1
f 3/3/3 4/4/4 2/2/2
f 7/7/7 6/6/6 5/5/5
f 7/7/7 8/8/8 6/6/6
f 11/11/11 10/10/10 9/9/9
f 11/11/11 12/12/12 10/10/10
f 15/15/15 14/14/14 13/13/13
f 15/15/15 16/16/16 14/14/14
f 19/19/19 18/18/18 17/17/17
f 19/19/19 20/20/20 18/18/18
f 23/23/23 22/22/22 21/21/21
f 23/23/23 24/24/24 22/22/22
