g pb_Mesh516134
v 0 0 0
v -44.9 0.1000004 0
v 0 13.7 0
v -44.9 13.7 0
v -44.9 0.1000004 0
v -44.9 0.1000004 -1
v -44.9 13.7 0
v -44.9 13.7 -1
v -44.9 0.1000004 -1
v 0 0 -1
v -44.9 13.7 -1
v 0 13.7 -1
v 0 0 -1
v 0 0 0
v 0 13.7 -1
v 0 13.7 0
v 0 13.7 0
v -44.9 13.7 0
v 0 13.7 -1
v -44.9 13.7 -1
v 0 0 -1
v -44.9 0.1000004 -1
v 0 0 0
v -44.9 0.1000004 0
vt 0 0
vt -44.9 0.1000004
vt 0 13.7
vt -44.9 13.7
vt 0 0.1000004
vt -1 0.1000004
vt 0 13.7
vt -1 13.7
vt 44.9 0.1000004
vt 0 0
vt 44.9 13.7
vt 0 13.7
vt 1 0
vt 0 0
vt 1 13.7
vt 0 13.7
vt 0 0
vt 44.9 0
vt 0 -1
vt 44.9 -1
vt 0 -1
vt -44.90012 -1
vt 0 0
vt -44.90012 0
vn 0 0 1
vn 0 0 1
vn 0 0 1
vn 0 0 1
vn -1 0 0
vn -1 0 0
vn -1 0 0
vn -1 0 0
vn 0 0 -1
vn 0 0 -1
vn 0 0 -1
vn 0 0 -1
vn 1 0 0
vn 1 0 0
vn 1 0 0
vn 1 0 0
vn 0 1 0
vn 0 1 0
vn 0 1 0
vn 0 1 0
vn -0.002227174 -0.9999976 0
vn -0.002227174 -0.9999976 0
vn -0.002227174 -0.9999976 0
vn -0.002227174 -0.9999976 0
g pb_Mesh516134_0
f 3/3/3 2/2/2 1/1/1
f 3/3/3 4/4/4 2/2/2
f 7/7/7 6/6/6 5/5/5
f 7/7/7 8/8/8 6/6/6
f 11/11/11 10/10/10 9/9/9
f 11/11/11 12/12/12 10/10/10
f 15/15/15 14/14/14 13/13/13
f 15/15/15 16/16/16 14/14/14
f 19/19/19 18/18/18 17/17/17
f 19/19/19 20/20/20 18/18/18
f 23/23/23 22/22/22 21/21/21
f 23/23/23 24/24/24 22/22/22
