g pb_Mesh516730
v 7.748604E-07 0.04999924 -1.907349E-06
v -27.20005 0 -3.578783E-06
v 0 1 0
v -27.2 4 0.0002520054
v -27.20005 0 -3.578783E-06
v -27.20006 0 -10.00003
v -27.2 4 0.0002520054
v -27.20009 4 -9.999748
v -27.20006 0 -10.00003
v 2.086163E-06 0.04999924 -10
v -27.20009 4 -9.999748
v 0 1 -10
v 2.086163E-06 0.04999924 -10
v 7.748604E-07 0.04999924 -1.907349E-06
v 0 1 -10
v 0 1 0
v 0 1 0
v -27.2 4 0.0002520054
v 0 1 -10
v -27.20009 4 -9.999748
v 2.086163E-06 0.04999924 -10
v -27.20006 0 -10.00003
v 7.748604E-07 0.04999924 -1.907349E-06
v -27.20005 0 -3.578783E-06
vt 7.748603E-07 0.04999924
vt -27.20005 -4.030995E-12
vt 0 1
vt -27.2 4
vt -2.433071E-05 -0.0003631586
vt -10.00006 -0.0003631586
vt 0.0002312536 3.999637
vt -9.999769 3.999637
vt 27.20007 -0.0007152562
vt 8.519955E-06 0.04928398
vt 27.2001 3.999285
vt 1.060612E-05 0.9992847
vt 10 0.04999924
vt 1.907349E-06 0.04999924
vt 10 1
vt 0 1
vt 0.1096293 0
vt 27.47457 0.0002520054
vt 0.1096293 -10
vt 27.47466 -9.999748
vt 9.399475E-05 -10
vt -27.20002 -10.00003
vt 9.268345E-05 -1.907337E-06
vt -27.20001 -3.578771E-06
vn -5.775904E-08 -2.007734E-06 1
vn 1.079892E-06 -3.295191E-05 1
vn 1.079892E-06 -3.295191E-05 1
vn 2.217543E-06 -6.389608E-05 1
vn -1 1.335139E-05 7.629371E-07
vn -1 2.860671E-06 4.959105E-06
vn -1 2.860671E-06 4.959105E-06
vn -1 -7.630049E-06 9.155274E-06
vn 1.060612E-06 7.152558E-05 -1
vn -3.987085E-06 3.676665E-05 -1
vn -3.987085E-06 3.676665E-05 -1
vn -9.034781E-06 2.007714E-06 -1
vn 1 2.195959E-06 1.311302E-07
vn 1 1.5058E-06 6.556511E-08
vn 1 1.5058E-06 6.556511E-08
vn 1 8.156418E-07 0
vn 0.1096293 0.9939725 0
vn 0.1096291 0.9939725 -5.018416E-07
vn 0.1096291 0.9939725 -5.018416E-07
vn 0.109629 0.9939726 -1.003683E-06
vn 0.0018382 -0.9999983 2.410435E-10
vn 0.0018382 -0.9999983 -5.806939E-10
vn 0.0018382 -0.9999983 -5.806939E-10
vn 0.0018382 -0.9999983 -1.402431E-09
g pb_Mesh516730_0
f 3/3/3 2/2/2 1/1/1
f 3/3/3 4/4/4 2/2/2
f 7/7/7 6/6/6 5/5/5
f 7/7/7 8/8/8 6/6/6
f 11/11/11 10/10/10 9/9/9
f 11/11/11 12/12/12 10/10/10
f 15/15/15 14/14/14 13/13/13
f 15/15/15 16/16/16 14/14/14
f 19/19/19 18/18/18 17/17/17
f 19/19/19 20/20/20 18/18/18
f 23/23/23 22/22/22 21/21/21
f 23/23/23 24/24/24 22/22/22
