g pb_Mesh516150
v -42.8 0 0.0003509074
v -48.9 0 0.0004009008
v -42.8 3.299999 0.0003509074
v -48.9 3.700001 0.0004009008
v -48.9 0 0.0004009008
v -48.90002 -0.09999847 -2.5996
v -48.9 3.700001 0.0004009008
v -48.90002 3.700001 -2.5996
v -48.90002 -0.09999847 -2.5996
v -42.90002 -0.09999847 -2.599649
v -48.90002 3.700001 -2.5996
v -42.90002 3.299999 -2.599649
v -42.90002 -0.09999847 -2.599649
v -42.8 0 0.0003509074
v -42.90002 3.299999 -2.599649
v -42.8 3.299999 0.0003509074
v -42.8 3.299999 0.0003509074
v -48.9 3.700001 0.0004009008
v -42.90002 3.299999 -2.599649
v -48.90002 3.700001 -2.5996
v -42.90002 -0.09999847 -2.599649
v -48.90002 -0.09999847 -2.5996
v -42.8 0 0.0003509074
v -48.9 0 0.0004009008
vt -42.8 0
vt -48.9 0
vt -42.8 3.299999
vt -48.9 3.700001
vt -2.9573E-05 0
vt -2.60003 -0.09999847
vt -2.9573E-05 3.700001
vt -2.60003 3.700001
vt 48.9 -0.09999847
vt 42.9 -0.09999847
vt 48.9 3.700001
vt 42.9 3.299999
vt 4.246861 -0.09999847
vt 1.644938 0
vt 4.246861 3.299999
vt 1.644938 3.299999
vt 42.92421 0.001590311
vt 49.03731 0.001640304
vt 43.02402 -2.598418
vt 49.03733 -2.598352
vt -42.90002 -2.601571
vt -48.90002 -2.601522
vt -42.8 0.0003511661
vt -48.9 0.0004011963
vn 8.19564E-06 0 1
vn 8.19564E-06 0 1
vn 8.19564E-06 0 1
vn 8.19564E-06 0 1
vn -1 0 8.803146E-06
vn -1 0 8.803147E-06
vn -1 0 8.803147E-06
vn -1 0 8.803147E-06
vn -8.185705E-06 0 -1
vn -8.185705E-06 0 -1
vn -8.185705E-06 0 -1
vn -8.185704E-06 0 -1
vn 0.9992609 0 -0.03844133
vn 0.9992609 0 -0.03844132
vn 0.9992609 0 -0.03844132
vn 0.9992608 0 -0.03844132
vn 0.06543328 0.9978538 -0.002517203
vn 0.06597628 0.9978195 -0.001258894
vn 0.06597628 0.9978195 -0.001258894
vn 0.06651927 0.9977852 -5.855788E-07
vn 3.145973E-07 -0.9992612 0.03843253
vn 3.142719E-07 -0.9992612 0.03843253
vn 3.142719E-07 -0.9992612 0.03843253
vn 3.139465E-07 -0.9992612 0.03843253
g pb_Mesh516150_0
f 3/3/3 2/2/2 1/1/1
f 3/3/3 4/4/4 2/2/2
f 7/7/7 6/6/6 5/5/5
f 7/7/7 8/8/8 6/6/6
f 11/11/11 10/10/10 9/9/9
f 11/11/11 12/12/12 10/10/10
f 15/15/15 14/14/14 13/13/13
f 15/15/15 16/16/16 14/14/14
f 19/19/19 18/18/18 17/17/17
f 19/19/19 20/20/20 18/18/18
f 23/23/23 22/22/22 21/21/21
f 23/23/23 24/24/24 22/22/22
