g pb_Mesh44432
v 0 0 0
v 0 0.5 0
v 18 0 31.17692
v 18 0.5 31.17692
v 18 0 31.17692
v 18 0.5 31.17692
v 54 0 31.17691
v 54 0.5 31.17691
v 54 0 31.17691
v 54 0.5 31.17691
v 72 0 -3.14722E-06
v 72 0.5 -3.14722E-06
v 72 0 -3.14722E-06
v 72 0.5 -3.14722E-06
v 54 0 -31.17692
v 54 0.5 -31.17692
v 54 0 -31.17692
v 54 0.5 -31.17692
v 18 0 -31.17692
v 18 0.5 -31.17692
v 18 0 -31.17692
v 18 0.5 -31.17692
v 18 0 31.17692
v 36 0 0
v 0 0 0
v 54 0 31.17691
v 72 0 -3.14722E-06
v 54 0 -31.17692
v 18 0 -31.17692
v 0 0.5 0
v 36 0.5 0
v 18 0.5 31.17692
v 54 0.5 31.17691
v 72 0.5 -3.14722E-06
v 54 0.5 -31.17692
v 18 0.5 -31.17692
vt 0 0
vt 0 0.5
vt 36 0
vt 36 0.5
vt 18 0
vt 18 0.5
vt 54 0
vt 54 0.5
vt -2.704886E-06 0
vt -2.704886E-06 0.5
vt 36 0
vt 36 0.5
vt -36.00001 0
vt -36.00001 0.5
vt -5.499157E-06 0
vt -5.499157E-06 0.5
vt -54 0
vt -54 0.5
vt -18 0
vt -18 0.5
vt -36 0
vt -36 0.5
vt 18 31.17692
vt 36 0
vt 0 0
vt 54 31.17691
vt 72 -3.14722E-06
vt 54 -31.17692
vt 18 -31.17692
vt 0 0
vt -36 0
vt -18 31.17692
vt -54 31.17691
vt -72 -3.14722E-06
vt -54 -31.17692
vt -18 -31.17692
vn -1 0 -3.441276E-08
vn -1 0 -3.441276E-08
vn -0.5 0 0.8660254
vn -0.5 0 0.8660254
vn -0.5 0 0.8660254
vn -0.5 0 0.8660254
vn 0.5000001 0 0.8660254
vn 0.5000001 0 0.8660254
vn 0.5000001 0 0.8660254
vn 0.5000001 0 0.8660254
vn 1 0 -8.60319E-08
vn 1 0 -8.60319E-08
vn 1 0 -8.60319E-08
vn 1 0 -8.60319E-08
vn 0.4999999 0 -0.8660254
vn 0.4999999 0 -0.8660254
vn 0.4999999 0 -0.8660254
vn 0.4999999 0 -0.8660254
vn -0.5 0 -0.8660254
vn -0.5 0 -0.8660254
vn -0.5 0 -0.8660254
vn -0.5 0 -0.8660254
vn 0 -1 0
vn 0 -1 0
vn 0 -1 0
vn 0 -1 0
vn 0 -1 0
vn 0 -1 0
vn 0 -1 0
vn 0 1 0
vn 0 1 0
vn 0 1 0
vn 0 1 0
vn 0 1 0
vn 0 1 0
vn 0 1 0
g pb_Mesh44432_0
f 3/3/3 2/2/2 1/1/1
f 3/3/3 4/4/4 2/2/2
f 7/7/7 6/6/6 5/5/5
f 7/7/7 8/8/8 6/6/6
f 11/11/11 10/10/10 9/9/9
f 11/11/11 12/12/12 10/10/10
f 15/15/15 14/14/14 13/13/13
f 15/15/15 16/16/16 14/14/14
f 19/19/19 18/18/18 17/17/17
f 19/19/19 20/20/20 18/18/18
f 1/1/1 22/22/22 21/21/21
f 1/1/1 2/2/2 22/22/22
f 25/25/25 24/24/24 23/23/23
f 23/23/23 24/24/24 26/26/26
f 26/26/26 24/24/24 27/27/27
f 27/27/27 24/24/24 28/28/28
f 28/28/28 24/24/24 29/29/29
f 29/29/29 24/24/24 25/25/25
f 32/32/32 31/31/31 30/30/30
f 33/33/33 31/31/31 32/32/32
f 34/34/34 31/31/31 33/33/33
f 35/35/35 31/31/31 34/34/34
f 36/36/36 31/31/31 35/35/35
f 30/30/30 31/31/31 36/36/36
