g pb_Mesh103586
v 0 0 0
v 0.3923416 9.27811 0
v 0 0 1
v 0.3923416 9.27811 1
v 26.95716 7.027388 0
v 26.66 0 0
v 26.95716 7.027388 1
v 26.66 0 1
v 0 0 1
v 26.66 0 1
v 0 0 0
v 26.66 0 0
v 0.3923416 9.27811 0
v 1.566574 18.48997 0
v 0.3923416 9.27811 1
v 1.566574 18.48997 1
v 27.84655 14.0046 0
v 26.95716 7.027388 0
v 27.84655 14.0046 1
v 26.95716 7.027388 1
v 1.566574 18.48997 0
v 3.514313 27.56982 0
v 1.566574 18.48997 1
v 3.514313 27.56982 1
v 29.32179 20.88182 0
v 27.84655 14.0046 0
v 29.32179 20.88182 1
v 27.84655 14.0046 1
v 3.514313 27.56982 0
v 6.221642 36.45282 0
v 3.514313 27.56982 1
v 6.221642 36.45282 1
v 31.37237 27.60994 0
v 29.32179 20.88182 0
v 31.37237 27.60994 1
v 29.32179 20.88182 1
v 6.221642 36.45282 0
v 9.669235 45.07553 0
v 6.221642 36.45282 1
v 9.669235 45.07553 1
v 33.98363 34.14093 0
v 31.37237 27.60994 0
v 33.98363 34.14093 1
v 31.37237 27.60994 1
v 9.669235 45.07553 0
v 13.83248 53.37642 0
v 9.669235 45.07553 1
v 13.83248 53.37642 1
v 37.13694 40.42815 0
v 33.98363 34.14093 0
v 37.13694 40.42815 1
v 33.98363 34.14093 1
v 13.83248 53.37642 0
v 18.68166 61.29619 0
v 13.83248 53.37642 1
v 18.68166 61.29619 1
v 40.80978 46.4267 0
v 37.13694 40.42815 0
v 40.80978 46.4267 1
v 37.13694 40.42815 1
v 40.80978 46.4267 1
v 18.68166 61.29619 1
v 40.80978 46.4267 0
v 18.68166 61.29619 0
v 0 0 1
v 0.3923416 9.27811 1
v 26.66 0 1
v 26.95716 7.027388 1
v 0.3923416 9.27811 0
v 0 0 0
v 26.95716 7.027388 0
v 26.66 0 0
v 1.566574 18.48997 1
v 27.84655 14.0046 1
v 1.566574 18.48997 0
v 27.84655 14.0046 0
v 3.514313 27.56982 1
v 29.32179 20.88182 1
v 3.514313 27.56982 0
v 29.32179 20.88182 0
v 6.221642 36.45282 1
v 31.37237 27.60994 1
v 6.221642 36.45282 0
v 31.37237 27.60994 0
v 9.669235 45.07553 1
v 33.98363 34.14093 1
v 9.669235 45.07553 0
v 33.98363 34.14093 0
v 13.83248 53.37642 1
v 37.13694 40.42815 1
v 13.83248 53.37642 0
v 37.13694 40.42815 0
v 18.68166 61.29619 1
v 40.80978 46.4267 1
v 18.68166 61.29619 0
v 40.80978 46.4267 0
vt 0 0
vt 0 9.286402
vt 1 0
vt 1 9.286402
vt 0 8.160025
vt 0 1.126356
vt -1 8.160025
vt -1 1.126356
vt 0 1
vt 26.66 1
vt 0 0
vt 26.66 0
vt 0 9.253248
vt 0 18.53965
vt 1 9.253248
vt 1 18.53965
vt 0 17.41331
vt 0 10.37964
vt -1 17.41331
vt -1 10.37964
vt 0 18.40727
vt 0 27.69368
vt 1 18.40727
vt 1 27.69368
vt 0 26.56731
vt 0 19.53364
vt -1 26.56731
vt -1 19.53364
vt 0 27.39673
vt 0 36.68313
vt 1 27.39673
vt 1 36.68313
vt 0 35.55676
vt 0 28.52309
vt -1 35.55676
vt -1 28.52309
vt 0 36.15741
vt 0 45.44381
vt 1 36.15741
vt 1 45.44381
vt 0 44.31743
vt 0 37.28376
vt -1 44.31743
vt -1 37.28376
vt 0 44.62677
vt 0 53.91317
vt 1 44.62677
vt 1 53.91317
vt 0 52.78681
vt 0 45.75314
vt -1 52.78681
vt -1 45.75314
vt 0 52.74434
vt 0 62.03074
vt 1 52.74434
vt 1 62.03074
vt 0 60.90438
vt 0 53.87071
vt -1 60.90438
vt -1 53.87071
vt -7.97834 1
vt 18.68165 1
vt -7.97834 0
vt 18.68165 0
vt 0 0
vt 0.3923416 9.27811
vt 26.66 0
vt 26.95716 7.027388
vt -0.3923416 9.27811
vt 0 0
vt -26.95716 7.027388
vt -26.66 0
vt 1.566574 18.48997
vt 27.84655 14.0046
vt -1.566574 18.48997
vt -27.84655 14.0046
vt 3.514313 27.56982
vt 29.32179 20.88182
vt -3.514313 27.56982
vt -29.32179 20.88182
vt 6.221642 36.45282
vt 31.37237 27.60994
vt -6.221642 36.45282
vt -31.37237 27.60994
vt 9.669235 45.07553
vt 33.98363 34.14093
vt -9.669235 45.07553
vt -33.98363 34.14093
vt 13.83248 53.37642
vt 37.13694 40.42815
vt -13.83248 53.37642
vt -37.13694 40.42815
vt 18.68166 61.29619
vt 40.80978 46.4267
vt -18.68166 61.29619
vt -40.80978 46.4267
vn -0.9991071 0.04224905 0
vn -0.9991071 0.04224905 0
vn -0.9991071 0.04224905 0
vn -0.9991071 0.04224905 0
vn 0.9991071 -0.04224893 0
vn 0.9991071 -0.04224893 0
vn 0.9991071 -0.04224893 0
vn 0.9991071 -0.04224893 0
vn 0 -1 0
vn 0 -1 0
vn 0 -1 0
vn 0 -1 0
vn -0.9919735 0.1264465 0
vn -0.9919735 0.1264465 0
vn -0.9919735 0.1264465 0
vn -0.9919735 0.1264465 0
vn 0.9919733 -0.1264474 0
vn 0.9919733 -0.1264474 0
vn 0.9919733 -0.1264474 0
vn 0.9919733 -0.1264474 0
vn -0.977757 0.2097409 0
vn -0.977757 0.2097409 0
vn -0.977757 0.2097409 0
vn -0.977757 0.2097409 0
vn 0.9777572 -0.2097401 0
vn 0.9777572 -0.2097401 0
vn 0.9777572 -0.2097401 0
vn 0.9777572 -0.2097401 0
vn -0.9565596 0.2915369 0
vn -0.9565596 0.2915369 0
vn -0.9565596 0.2915369 0
vn -0.9565596 0.2915369 0
vn 0.9565595 -0.2915371 0
vn 0.9565595 -0.2915371 0
vn 0.9565595 -0.2915371 0
vn 0.9565595 -0.2915371 0
vn -0.9285321 0.371252 0
vn -0.9285321 0.371252 0
vn -0.9285321 0.371252 0
vn -0.9285321 0.371252 0
vn 0.9285323 -0.3712516 0
vn 0.9285323 -0.3712516 0
vn 0.9285323 -0.3712516 0
vn 0.9285323 -0.3712516 0
vn -0.893875 0.4483163 0
vn -0.893875 0.4483163 0
vn -0.893875 0.4483163 0
vn -0.893875 0.4483163 0
vn 0.8938748 -0.4483168 0
vn 0.8938748 -0.4483168 0
vn 0.8938748 -0.4483168 0
vn 0.8938748 -0.4483168 0
vn -0.8528352 0.5221802 0
vn -0.8528352 0.5221802 0
vn -0.8528352 0.5221802 0
vn -0.8528352 0.5221802 0
vn 0.8528355 -0.5221797 0
vn 0.8528355 -0.5221797 0
vn 0.8528355 -0.5221797 0
vn 0.8528355 -0.5221797 0
vn 0.5577452 0.8300122 0
vn 0.5577452 0.8300122 0
vn 0.5577452 0.8300122 0
vn 0.5577452 0.8300122 0
vn 0 0 1
vn 0 0 1
vn 0 0 1
vn 0 0 1
vn 0 0 -1
vn 0 0 -1
vn 0 0 -1
vn 0 0 -1
vn 0 0 1
vn 0 0 1
vn 0 0 -1
vn 0 0 -1
vn 0 0 1
vn 0 0 1
vn 0 0 -1
vn 0 0 -1
vn 0 0 1
vn 0 0 1
vn 0 0 -1
vn 0 0 -1
vn 0 0 1
vn 0 0 1
vn 0 0 -1
vn 0 0 -1
vn 0 0 1
vn 0 0 1
vn 0 0 -1
vn 0 0 -1
vn 0 0 1
vn 0 0 1
vn 0 0 -1
vn 0 0 -1
g pb_Mesh103586_0
f 3/3/3 2/2/2 1/1/1
f 3/3/3 4/4/4 2/2/2
f 7/7/7 6/6/6 5/5/5
f 7/7/7 8/8/8 6/6/6
f 11/11/11 10/10/10 9/9/9
f 11/11/11 12/12/12 10/10/10
f 15/15/15 14/14/14 13/13/13
f 15/15/15 16/16/16 14/14/14
f 19/19/19 18/18/18 17/17/17
f 19/19/19 20/20/20 18/18/18
f 23/23/23 22/22/22 21/21/21
f 23/23/23 24/24/24 22/22/22
f 27/27/27 26/26/26 25/25/25
f 27/27/27 28/28/28 26/26/26
f 31/31/31 30/30/30 29/29/29
f 31/31/31 32/32/32 30/30/30
f 35/35/35 34/34/34 33/33/33
f 35/35/35 36/36/36 34/34/34
f 39/39/39 38/38/38 37/37/37
f 39/39/39 40/40/40 38/38/38
f 43/43/43 42/42/42 41/41/41
f 43/43/43 44/44/44 42/42/42
f 47/47/47 46/46/46 45/45/45
f 47/47/47 48/48/48 46/46/46
f 51/51/51 50/50/50 49/49/49
f 51/51/51 52/52/52 50/50/50
f 55/55/55 54/54/54 53/53/53
f 55/55/55 56/56/56 54/54/54
f 59/59/59 58/58/58 57/57/57
f 59/59/59 60/60/60 58/58/58
f 63/63/63 62/62/62 61/61/61
f 63/63/63 64/64/64 62/62/62
f 67/67/67 66/66/66 65/65/65
f 67/67/67 68/68/68 66/66/66
f 71/71/71 70/70/70 69/69/69
f 71/71/71 72/72/72 70/70/70
f 68/68/68 73/73/73 66/66/66
f 68/68/68 74/74/74 73/73/73
f 76/76/76 69/69/69 75/75/75
f 76/76/76 71/71/71 69/69/69
f 74/74/74 77/77/77 73/73/73
f 74/74/74 78/78/78 77/77/77
f 80/80/80 75/75/75 79/79/79
f 80/80/80 76/76/76 75/75/75
f 78/78/78 81/81/81 77/77/77
f 78/78/78 82/82/82 81/81/81
f 84/84/84 79/79/79 83/83/83
f 84/84/84 80/80/80 79/79/79
f 82/82/82 85/85/85 81/81/81
f 82/82/82 86/86/86 85/85/85
f 88/88/88 83/83/83 87/87/87
f 88/88/88 84/84/84 83/83/83
f 86/86/86 89/89/89 85/85/85
f 86/86/86 90/90/90 89/89/89
f 92/92/92 87/87/87 91/91/91
f 92/92/92 88/88/88 87/87/87
f 90/90/90 93/93/93 89/89/89
f 90/90/90 94/94/94 93/93/93
f 96/96/96 91/91/91 95/95/95
f 96/96/96 92/92/92 91/91/91
