g pb_Mesh78546
v 23.05744 0 43.12392
v -25.53457 0 43.12393
v 23.05744 1 43.12392
v -25.53457 1 43.12393
v -25.53457 0 43.12393
v -25.53457 0 22.30818
v -25.53457 1 43.12393
v -25.53457 1 22.30818
v -25.53457 0 22.30818
v 23.05745 0 22.30816
v -25.53457 1 22.30818
v 23.05745 1 22.30816
v 23.05745 0 22.30816
v 23.05744 0 43.12392
v 23.05745 1 22.30816
v 23.05744 1 43.12392
v 23.05744 1 43.12392
v -25.53457 1 43.12393
v 23.05745 1 22.30816
v -25.53457 1 22.30818
v 23.05745 0 22.30816
v -25.53457 0 22.30818
v 23.05744 0 43.12392
v -25.53457 0 43.12393
vt 23.05743 0
vt -25.53458 0
vt 23.05743 1
vt -25.53458 1
vt 43.12394 0
vt 22.30818 0
vt 43.12394 1
vt 22.30818 1
vt 25.53458 0
vt -23.05744 0
vt 25.53458 1
vt -23.05744 1
vt -22.30815 0
vt -43.12391 0
vt -22.30815 1
vt -43.12391 1
vt -23.05744 43.12392
vt 25.53457 43.12393
vt -23.05745 22.30816
vt 25.53457 22.30818
vt 23.05745 22.30816
vt -25.53457 22.30818
vt 23.05744 43.12392
vt -25.53457 43.12393
vn 2.355139E-07 0 1
vn 2.355139E-07 0 1
vn 2.355139E-07 0 1
vn 2.355139E-07 0 1
vn -1 0 -9.163006E-08
vn -1 0 -9.163006E-08
vn -1 0 -9.163006E-08
vn -1 0 -9.163006E-08
vn -3.140184E-07 0 -1
vn -3.140184E-07 0 -1
vn -3.140184E-07 0 -1
vn -3.140184E-07 0 -1
vn 1 0 4.581502E-07
vn 1 0 4.581502E-07
vn 1 0 4.581502E-07
vn 1 0 4.581502E-07
vn 0 1 0
vn 0 1 0
vn 0 1 0
vn 0 1 0
vn 0 -1 0
vn 0 -1 0
vn 0 -1 0
vn 0 -1 0
g pb_Mesh78546_0
f 3/3/3 2/2/2 1/1/1
f 3/3/3 4/4/4 2/2/2
f 7/7/7 6/6/6 5/5/5
f 7/7/7 8/8/8 6/6/6
f 11/11/11 10/10/10 9/9/9
f 11/11/11 12/12/12 10/10/10
f 15/15/15 14/14/14 13/13/13
f 15/15/15 16/16/16 14/14/14
f 19/19/19 18/18/18 17/17/17
f 19/19/19 20/20/20 18/18/18
f 23/23/23 22/22/22 21/21/21
f 23/23/23 24/24/24 22/22/22
