g pb_Mesh515960
v 7.748604E-07 0.04999924 -1.907349E-06
v -45.00005 0 -6.198547E-06
v 0 1 0
v -45 4 0.0004023314
v -45.00005 0 -6.198547E-06
v -45.00006 0 -10.00004
v -45 4 0.0004023314
v -45.0001 4 -9.999599
v -45.00006 0 -10.00004
v 2.086163E-06 0.04999924 -10
v -45.0001 4 -9.999599
v 0 1 -10
v 2.086163E-06 0.04999924 -10
v 7.748604E-07 0.04999924 -1.907349E-06
v 0 1 -10
v 0 1 0
v 0 1 0
v -45 4 0.0004023314
v 0 1 -10
v -45.0001 4 -9.999599
v 2.086163E-06 0.04999924 -10
v -45.00006 0 -10.00004
v 7.748604E-07 0.04999924 -1.907349E-06
v -45.00005 0 -6.198547E-06
vt 7.748602E-07 0.04999924
vt -45.00005 -4.030994E-12
vt 0 1
vt -45 4
vt -5.769685E-05 -0.0005578949
vt -10.00009 -0.0005578949
vt 0.0003508331 3.999442
vt -9.99965 3.999442
vt 45.00007 -0.001099111
vt 4.745863E-06 0.04890013
vt 45.0001 3.998901
vt 6.832025E-06 0.9989009
vt 10 0.04999924
vt 1.907349E-06 0.04999924
vt 10 1
vt 0 1
vt 0.06651901 0
vt 45.16641 0.0004023314
vt 0.06651901 -10
vt 45.1665 -9.999599
vt 5.76399E-05 -10
vt -45.00004 -10.00004
vt 5.63286E-05 -1.907341E-06
vt -45.00003 -6.198539E-06
vn -9.312907E-08 -2.007734E-06 1
vn 1.019367E-06 -5.207011E-05 1
vn 1.019367E-06 -5.207011E-05 1
vn 2.131863E-06 -0.0001021325 1
vn -1 1.239765E-05 1.144405E-06
vn -1 2.383624E-06 5.149839E-06
vn -1 2.383624E-06 5.149839E-06
vn -1 -7.6304E-06 9.155273E-06
vn 6.832025E-07 0.000109911 -1
vn -4.052542E-06 5.595934E-05 -1
vn -4.052542E-06 5.595934E-05 -1
vn -8.788286E-06 2.007714E-06 -1
vn 1 2.195959E-06 1.311302E-07
vn 1 1.5058E-06 6.556511E-08
vn 1 1.5058E-06 6.556511E-08
vn 1 8.156418E-07 0
vn 0.06651901 0.9977852 0
vn 0.06651893 0.9977852 -3.044992E-07
vn 0.06651893 0.9977852 -3.044992E-07
vn 0.06651887 0.9977852 -6.089983E-07
vn 0.001111092 -0.9999994 1.456977E-10
vn 0.001111092 -0.9999994 -5.629212E-10
vn 0.001111092 -0.9999994 -5.629212E-10
vn 0.001111092 -0.9999994 -1.27154E-09
g pb_Mesh515960_0
f 3/3/3 2/2/2 1/1/1
f 3/3/3 4/4/4 2/2/2
f 7/7/7 6/6/6 5/5/5
f 7/7/7 8/8/8 6/6/6
f 11/11/11 10/10/10 9/9/9
f 11/11/11 12/12/12 10/10/10
f 15/15/15 14/14/14 13/13/13
f 15/15/15 16/16/16 14/14/14
f 19/19/19 18/18/18 17/17/17
f 19/19/19 20/20/20 18/18/18
f 23/23/23 22/22/22 21/21/21
f 23/23/23 24/24/24 22/22/22
