g pb_Mesh48132
v 0 0 0
v 0 1 0
v 0.25 0 0.4330127
v 0.25 1 0.4330127
v 0.25 0 0.4330127
v 0.25 1 0.4330127
v 0.75 0 0.4330127
v 0.75 1 0.4330127
v 0.75 0 0.4330127
v 0.75 1 0.4330127
v 1 0 -4.371139E-08
v 1 1 -4.371139E-08
v 1 0 -4.371139E-08
v 1 1 -4.371139E-08
v 0.7499999 0 -0.4330127
v 0.7499999 1 -0.4330127
v 0.7499999 0 -0.4330127
v 0.7499999 1 -0.4330127
v 0.2500001 0 -0.4330127
v 0.2500001 1 -0.4330127
v 0.2500001 0 -0.4330127
v 0.2500001 1 -0.4330127
v 0.25 0 0.4330127
v 0.5 0 0
v 0 0 0
v 0.75 0 0.4330127
v 1 0 -4.371139E-08
v 0.7499999 0 -0.4330127
v 0.2500001 0 -0.4330127
v 0 1 0
v 0.5 1 0
v 0.25 1 0.4330127
v 0.75 1 0.4330127
v 1 1 -4.371139E-08
v 0.7499999 1 -0.4330127
v 0.2500001 1 -0.4330127
vt 0 0
vt 0 1
vt 0.5000001 0
vt 0.5000001 1
vt 0.25 0
vt 0.25 1
vt 0.75 0
vt 0.75 1
vt -1.234839E-08 0
vt -1.234839E-08 1
vt 0.5000001 0
vt 0.5000001 1
vt -0.5000001 0
vt -0.5000001 1
vt -4.725624E-08 0
vt -4.725624E-08 1
vt -0.7499999 0
vt -0.7499999 1
vt -0.2500001 0
vt -0.2500001 1
vt -0.5000001 0
vt -0.5000001 1
vt 0.25 0.4330127
vt 0.5 0
vt 0 0
vt 0.75 0.4330127
vt 1 -4.371139E-08
vt 0.7499999 -0.4330127
vt 0.2500001 -0.4330127
vt 0 0
vt -0.5 0
vt -0.25 0.4330127
vt -0.75 0.4330127
vt -1 -4.371139E-08
vt -0.7499999 -0.4330127
vt -0.2500001 -0.4330127
vn -1 0 -6.882551E-08
vn -1 0 -6.882551E-08
vn -0.5 0 0.8660254
vn -0.5 0 0.8660254
vn -0.5 0 0.8660254
vn -0.5 0 0.8660254
vn 0.5000001 0 0.8660254
vn 0.5000001 0 0.8660254
vn 0.5000001 0 0.8660254
vn 0.5000001 0 0.8660254
vn 1 0 -6.882551E-08
vn 1 0 -6.882551E-08
vn 1 0 -6.882551E-08
vn 1 0 -6.882551E-08
vn 0.5 0 -0.8660254
vn 0.5 0 -0.8660254
vn 0.5 0 -0.8660254
vn 0.5 0 -0.8660254
vn -0.5 0 -0.8660254
vn -0.5 0 -0.8660254
vn -0.5 0 -0.8660254
vn -0.5 0 -0.8660254
vn 0 -1 0
vn 0 -1 0
vn 0 -1 0
vn 0 -1 0
vn 0 -1 0
vn 0 -1 0
vn 0 -1 0
vn 0 1 0
vn 0 1 0
vn 0 1 0
vn 0 1 0
vn 0 1 0
vn 0 1 0
vn 0 1 0
g pb_Mesh48132_0
f 3/3/3 2/2/2 1/1/1
f 3/3/3 4/4/4 2/2/2
f 7/7/7 6/6/6 5/5/5
f 7/7/7 8/8/8 6/6/6
f 11/11/11 10/10/10 9/9/9
f 11/11/11 12/12/12 10/10/10
f 15/15/15 14/14/14 13/13/13
f 15/15/15 16/16/16 14/14/14
f 19/19/19 18/18/18 17/17/17
f 19/19/19 20/20/20 18/18/18
f 1/1/1 22/22/22 21/21/21
f 1/1/1 2/2/2 22/22/22
f 25/25/25 24/24/24 23/23/23
f 23/23/23 24/24/24 26/26/26
f 26/26/26 24/24/24 27/27/27
f 27/27/27 24/24/24 28/28/28
f 28/28/28 24/24/24 29/29/29
f 29/29/29 24/24/24 25/25/25
f 32/32/32 31/31/31 30/30/30
f 33/33/33 31/31/31 32/32/32
f 34/34/34 31/31/31 33/33/33
f 35/35/35 31/31/31 34/34/34
f 36/36/36 31/31/31 35/35/35
f 30/30/30 31/31/31 36/36/36
