g pb_Mesh92126
v 0 0.9920702 -1.004362
v -3 0.9920702 -1.004362
v 0 4.012106 -1.004362
v -3 4.012106 -1.004362
v -3 0.9920702 -1.004362
v -3 0.9920702 -5
v -3 4.012106 -1.004362
v -3 1 -5
v -3 0.9920702 -5
v 0 0.9920702 -5
v -3 1 -5
v 0 1 -5
v 0 0.9920702 -5
v 0 0.9920702 -1.004362
v 0 1 -5
v 0 4.012106 -1.004362
v 0 4.012106 -1.004362
v -3 4.012106 -1.004362
v 0 1 -5
v -3 1 -5
v 0 0.9920702 -5
v -3 0.9920702 -5
v 0 0.9920702 -1.004362
v -3 0.9920702 -1.004362
vt 0 0.9920702
vt -3 0.9920702
vt 0 4.012106
vt -3 4.012106
vt -1.004362 0.9920702
vt -5 0.9920702
vt -1.004362 4.012106
vt -5 1
vt 3 0.9920702
vt 0 0.9920702
vt 3 1
vt 0 1
vt 5 0.9920702
vt 1.004362 0.9920702
vt 5 1
vt 1.004362 4.012106
vt 0 1.613142
vt 3 1.613142
vt 0 -3.390647
vt 3 -3.390647
vt 0 -5
vt -3 -5
vt 0 -1.004362
vt -3 -1.004362
vn 0 0 1
vn 0 0 1
vn 0 0 1
vn 0 0 1
vn -1 0 0
vn -0.9999999 0 0
vn -0.9999999 0 0
vn -1 0 0
vn 0 0 -1
vn 0 0 -1
vn 0 0 -1
vn 0 0 -1
vn 1 0 0
vn 0.9999999 0 0
vn 0.9999999 0 0
vn 1 0 0
vn 0 0.7985225 -0.601965
vn 0 0.7985225 -0.601965
vn 0 0.7985225 -0.601965
vn 0 0.7985225 -0.601965
vn 0 -1 0
vn 0 -1 0
vn 0 -1 0
vn 0 -1 0
g pb_Mesh92126_0
f 3/3/3 2/2/2 1/1/1
f 3/3/3 4/4/4 2/2/2
f 7/7/7 6/6/6 5/5/5
f 7/7/7 8/8/8 6/6/6
f 11/11/11 10/10/10 9/9/9
f 11/11/11 12/12/12 10/10/10
f 15/15/15 14/14/14 13/13/13
f 15/15/15 16/16/16 14/14/14
f 19/19/19 18/18/18 17/17/17
f 19/19/19 20/20/20 18/18/18
f 23/23/23 22/22/22 21/21/21
f 23/23/23 24/24/24 22/22/22
