g pb_Mesh93898
v 7.812542E-06 0 -5.924114
v -2.792645 0 -5.924114
v 7.812542E-06 2.005753 -5.924114
v -2.792645 2.005753 -5.924114
v -2.792645 0 -5.924114
v -2.792652 0 -6
v -2.792645 2.005753 -5.924114
v -2.792652 2.005753 -6
v -2.792652 1.439412 -8.98784
v 1.780832E-07 1.439412 -8.98784
v -2.792652 3.445165 -8.98784
v 1.780832E-07 3.445165 -8.98784
v 0 0 -6
v 7.812542E-06 0 -5.924114
v 0 2.005753 -6
v 7.812542E-06 2.005753 -5.924114
v 7.812542E-06 2.005753 -5.924114
v -2.792645 2.005753 -5.924114
v 0 2.005753 -6
v -2.792652 2.005753 -6
v 0 0 -6
v -2.792652 0 -6
v 7.812542E-06 0 -5.924114
v -2.792645 0 -5.924114
v -2.792652 0 -6
v 0 0 -6
v -2.792652 1.439412 -8.98784
v 1.780832E-07 1.439412 -8.98784
v -2.792652 2.005753 -6
v -2.792652 0 -6
v -2.792652 3.445165 -8.98784
v -2.792652 1.439412 -8.98784
v 0 0 -6
v 0 2.005753 -6
v 1.780832E-07 1.439412 -8.98784
v 1.780832E-07 3.445165 -8.98784
v 0 2.005753 -6
v -2.792652 2.005753 -6
v 1.780832E-07 3.445165 -8.98784
v -2.792652 3.445165 -8.98784
vt 7.812542E-06 0
vt -2.792645 0
vt 7.812542E-06 2.005753
vt -2.792645 2.005753
vt -5.924395 0
vt -6.000281 0
vt -5.924395 2.005753
vt -6.000281 2.005753
vt 2.792652 1.439412
vt -1.780832E-07 1.439412
vt 2.792652 3.445165
vt -1.780832E-07 3.445165
vt 6 0
vt 5.924114 0
vt 6 2.005753
vt 5.924114 2.005753
vt -7.812542E-06 -5.924114
vt 2.792645 -5.924114
vt 0 -6
vt 2.792652 -6
vt 0 -6
vt -2.792652 -6
vt 7.812542E-06 -5.924114
vt -2.792645 -5.924114
vt -2.792652 -5.405428
vt 0 -5.405428
vt -2.792652 -8.721916
vt 1.780832E-07 -8.721916
vt -6 2.005753
vt -6 0
vt -8.98784 3.445165
vt -8.98784 1.439412
vt 6 0
vt 6 2.005753
vt 8.98784 1.439412
vt 8.98784 3.445165
vt 0 -6.275959
vt 2.792652 -6.275959
vt -1.780832E-07 -9.592447
vt 2.792652 -9.592447
vn 0 0 1
vn 0 0 1
vn 0 0 1
vn 0 0 1
vn -1 0 0.0001005372
vn -1 0 0.0001005372
vn -1 0 0.0001005372
vn -1 0 0.0001005372
vn 0 0 -1
vn 0 0 -1
vn 0 0 -1
vn 0 0 -1
vn 1 0 -0.0001029507
vn 1 0 -0.0001029507
vn 1 0 -0.0001029507
vn 1 0 -0.0001029507
vn 0 1 0
vn 0 1 0
vn 0 1 0
vn 0 1 0
vn 0 -1 0
vn 0 -1 0
vn 0 -1 0
vn 0 -1 0
vn 0 -0.9009048 -0.434017
vn 0 -0.9009048 -0.4340169
vn 0 -0.9009048 -0.4340169
vn 0 -0.9009047 -0.434017
vn -0.9999999 0 0
vn -0.9999999 0 0
vn -0.9999999 0 0
vn -0.9999999 0 0
vn 0.9999999 0 5.960264E-08
vn 0.9999999 0 5.960264E-08
vn 0.9999999 0 5.960264E-08
vn 0.9999999 0 5.960264E-08
vn 0 0.9009048 0.434017
vn 0 0.9009048 0.4340169
vn 0 0.9009048 0.4340169
vn 0 0.9009047 0.434017
g pb_Mesh93898_0
f 3/3/3 2/2/2 1/1/1
f 3/3/3 4/4/4 2/2/2
f 7/7/7 6/6/6 5/5/5
f 7/7/7 8/8/8 6/6/6
f 11/11/11 10/10/10 9/9/9
f 11/11/11 12/12/12 10/10/10
f 15/15/15 14/14/14 13/13/13
f 15/15/15 16/16/16 14/14/14
f 19/19/19 18/18/18 17/17/17
f 19/19/19 20/20/20 18/18/18
f 23/23/23 22/22/22 21/21/21
f 23/23/23 24/24/24 22/22/22
f 27/27/27 26/26/26 25/25/25
f 27/27/27 28/28/28 26/26/26
f 31/31/31 30/30/30 29/29/29
f 31/31/31 32/32/32 30/30/30
f 35/35/35 34/34/34 33/33/33
f 35/35/35 36/36/36 34/34/34
f 39/39/39 38/38/38 37/37/37
f 39/39/39 40/40/40 38/38/38
