g pb_Mesh515798
v -42.8 0 0.0003509074
v -48.9 0 0.0004009008
v -42.8 3.299999 0.0003509074
v -48.9 3.700001 0.0004009008
v -48.9 0 0.0004009008
v -48.90002 -0.09999847 -2.599599
v -48.9 3.700001 0.0004009008
v -48.80002 3.700001 -2.5996
v -48.90002 -0.09999847 -2.599599
v -42.90002 -0.09999847 -2.599648
v -48.80002 3.700001 -2.5996
v -42.90002 3.299999 -2.599648
v -42.90002 -0.09999847 -2.599648
v -42.8 0 0.0003509074
v -42.90002 3.299999 -2.599648
v -42.8 3.299999 0.0003509074
v -42.8 3.299999 0.0003509074
v -48.9 3.700001 0.0004009008
v -42.90002 3.299999 -2.599648
v -48.80002 3.700001 -2.5996
v -42.90002 -0.09999847 -2.599648
v -48.90002 -0.09999847 -2.599599
v -42.8 0 0.0003509074
v -48.9 0 0.0004009008
vt -42.8 0
vt -48.9 0
vt -42.8 3.299999
vt -48.9 3.700001
vt 0.0001139183 0
vt -2.599886 -0.09999847
vt 0.0001139183 3.700001
vt -2.599887 3.700001
vt 48.89999 -0.09999838
vt 42.89999 -0.09999838
vt 48.8 3.700001
vt 42.89999 3.299999
vt 4.246736 -0.09999847
vt 1.644813 0
vt 4.246736 3.299999
vt 1.644813 3.299999
vt 42.92421 0.001590215
vt 49.03731 0.001640209
vt 43.02401 -2.598418
vt 48.93754 -2.598336
vt -42.90002 -2.601571
vt -48.90002 -2.601521
vt -42.8 0.0003511661
vt -48.9 0.0004011963
vn 8.19564E-06 0 1
vn 8.19564E-06 0 1
vn 8.19564E-06 0 1
vn 8.19564E-06 0 1
vn -1 0 5.868764E-06
vn -0.9994581 0.01314343 -0.01920376
vn -0.9994581 0.01314343 -0.01920376
vn -0.9989161 0.02628686 -0.03841338
vn -8.185705E-06 -3.555694E-08 -1
vn -8.174255E-06 -1.777847E-08 -1
vn -8.174255E-06 -1.777847E-08 -1
vn -8.162804E-06 0 -1
vn 0.999261 0 -0.0384384
vn 0.999261 0 -0.0384384
vn 0.999261 0 -0.0384384
vn 0.999261 0 -0.0384384
vn 0.06543329 0.9978538 -0.002517011
vn 0.06653733 0.9977801 4.207122E-05
vn 0.06653733 0.9977801 4.207122E-05
vn 0.06764137 0.9977063 0.002601153
vn 3.145974E-07 -0.9992612 0.03843253
vn 3.15023E-07 -0.9992612 0.03843253
vn 3.15023E-07 -0.9992612 0.03843253
vn 3.154486E-07 -0.9992612 0.03843253
g pb_Mesh515798_0
f 3/3/3 2/2/2 1/1/1
f 3/3/3 4/4/4 2/2/2
f 7/7/7 6/6/6 5/5/5
f 7/7/7 8/8/8 6/6/6
f 11/11/11 10/10/10 9/9/9
f 11/11/11 12/12/12 10/10/10
f 15/15/15 14/14/14 13/13/13
f 15/15/15 16/16/16 14/14/14
f 19/19/19 18/18/18 17/17/17
f 19/19/19 20/20/20 18/18/18
f 23/23/23 22/22/22 21/21/21
f 23/23/23 24/24/24 22/22/22
