g pb_Mesh103494
v -8.626216 0 -2.907898E-06
v -20.38556 0 1.745856E-06
v -8.626214 10.39833 -1.842473E-06
v -20.38556 10.39833 2.81128E-06
v -20.38556 0 1.745856E-06
v -20.38556 0 -1.000003
v -20.38556 10.39833 2.81128E-06
v -20.38555 10.39833 -1.000002
v -20.38556 0 -1.000003
v -8.626213 0 -1.000004
v -20.38555 10.39833 -1.000002
v -8.626211 10.39833 -1.000003
v -8.626213 0 -1.000004
v -8.626216 0 -2.907898E-06
v -8.626211 10.39833 -1.000003
v -8.626214 10.39833 -1.842473E-06
v -8.626214 10.39833 -1.842473E-06
v -20.38556 10.39833 2.81128E-06
v -8.626211 10.39833 -1.000003
v -20.38555 10.39833 -1.000002
v -8.626213 0 -1.000004
v -20.38556 0 -1.000003
v -8.626216 0 -2.907898E-06
v -20.38556 0 1.745856E-06
vt -8.626216 -6.477309E-13
vt -20.38556 -6.477309E-13
vt -8.626214 10.39833
vt -20.38556 10.39833
vt 1.745856E-06 0
vt -1.000003 0
vt 2.81128E-06 10.39833
vt -1.000002 10.39833
vt 20.38556 -1.031789E-07
vt 8.626213 -1.031789E-07
vt 20.38555 10.39833
vt 8.626211 10.39833
vt 0.9999793 -1.582294E-06
vt -2.177188E-05 -1.582294E-06
vt 0.9999782 10.39833
vt -2.28373E-05 10.39833
vt 8.626214 -1.842473E-06
vt 20.38556 2.81128E-06
vt 8.626211 -1.000003
vt 20.38555 -1.000002
vt -8.626213 -1.000004
vt -20.38556 -1.000003
vt -8.626216 -2.907898E-06
vt -20.38556 1.745856E-06
vn 3.957496E-07 -1.024612E-07 1
vn 3.957496E-07 -1.024611E-07 1
vn 3.957496E-07 -1.024611E-07 1
vn 3.957495E-07 -1.024611E-07 1
vn -1 0 0
vn -1 9.171424E-08 -9.536701E-07
vn -1 9.171424E-08 -9.536701E-07
vn -1 1.834285E-07 -1.90734E-06
vn -1.115115E-07 1.031784E-07 -1
vn -1.115115E-07 1.031784E-07 -1
vn -1.115115E-07 1.031784E-07 -1
vn -1.115115E-07 1.031784E-07 -1
vn 1 -1.834286E-07 2.86102E-06
vn 1 -1.834286E-07 2.86102E-06
vn 1 -1.834286E-07 2.86102E-06
vn 1 -1.834286E-07 2.86102E-06
vn 0 1 0
vn 0 1 0
vn 0 1 0
vn 0 1 0
vn 0 -1 0
vn 0 -1 0
vn 0 -1 0
vn 0 -1 0
g pb_Mesh103494_0
f 3/3/3 2/2/2 1/1/1
f 3/3/3 4/4/4 2/2/2
f 7/7/7 6/6/6 5/5/5
f 7/7/7 8/8/8 6/6/6
f 11/11/11 10/10/10 9/9/9
f 11/11/11 12/12/12 10/10/10
f 15/15/15 14/14/14 13/13/13
f 15/15/15 16/16/16 14/14/14
f 19/19/19 18/18/18 17/17/17
f 19/19/19 20/20/20 18/18/18
f 23/23/23 22/22/22 21/21/21
f 23/23/23 24/24/24 22/22/22
