g pb_Mesh92296
v 0 0 -0.05892467
v -1 0 -0.05892467
v 0 1 -0.05892467
v -1 1 -0.05892467
v -1 0 -10.04133
v -1 0 -10
v -1 1 -10.04133
v -1 1 -10
v -1 0 -10
v 0 0 -10
v -1 1 -10
v 0 1 -10
v 0 0 -10
v 0 0 -4.073294
v 0 1 -10
v 0 1 -4.073294
v 0 1 -4.073294
v -1 1 -10.04133
v 0 1 -10
v -1 1 -10.04133
v -1 1 -10
v 0 1 -10
v 0 0 -10
v -1 0 -10
v 0 0 -4.073294
v -1 0 -10
v -1 0 -10.04133
v 0 0 -4.073294
v 0 0 -4.073294
v -1 0 -10.04133
v 0 0 -0.05892467
v -1 0 -0.05892467
v 0 1 -0.05892467
v 0 0 -0.05892467
v -3.528457 0 -10.04133
v -3.579998 2.268188 -10.04463
v -3.528457 0 -0.05892467
v -3.579998 2.268188 -0.040452
v -1 1 -10.04133
v -1 1 -0.05892467
v 0 1 -0.05892467
v -1 0 -10.04133
v -1 1 -10.04133
v -2.652076 0 -10.04133
v -2.261527 1.467842 -10.04133
v -2.652076 0 -0.05892467
v -2.652076 0 -10.04133
v -1 1 -10.04133
v -1 1 -0.05892467
v -2.261527 1.467842 -10.04133
v -2.261527 1.467842 -0.05892467
v -2.261527 1.467842 -0.05892467
v -2.652076 0 -0.05892467
v -2.261527 1.467842 -10.04133
v -3.528457 0 -10.04133
v -3.579998 2.268188 -10.04463
v -3.528457 0 -0.05892467
v -3.528457 0 -10.04133
v -2.261527 1.467842 -10.04133
v -2.261527 1.467842 -0.05892467
v -3.579998 2.268188 -10.04463
v -3.579998 2.268188 -0.040452
v -2.261527 1.467842 -0.05892467
v -2.652076 0 -0.05892467
v -3.579998 2.268188 -0.040452
v -3.528457 0 -0.05892467
vt 0 0
vt -1 0
vt 0 1
vt -1 1
vt 10.04133 0
vt 10 0
vt 10.04133 1
vt 10 1
vt 1 0
vt 0 0
vt 1 1
vt 0 1
vt 10 0
vt 4.073294 0
vt 10 1
vt 4.073294 1
vt 0 -4.073294
vt 1 -10.04133
vt 0 -10
vt 1 -10.04133
vt 1 -10
vt 0 -10
vt 0 -10
vt -1 -10
vt 0 -4.073294
vt -1 -10
vt -1 -10.04133
vt 0 -4.073294
vt 0 -4.073294
vt -1 -10.04133
vt 0 -0.05892467
vt -1 -0.05892467
vt 0.05892467 1
vt 0.05892467 0
vt -10.04133 0.08015699
vt -10.04463 2.34893
vt -0.05892467 0.08015699
vt -0.040452 2.34893
vt 1 -10.04133
vt 1 -0.05892467
vt 0 -0.05892467
vt 1 0
vt 1 1
vt 2.652076 0
vt 2.261527 1.467842
vt -2.652076 -0.05892467
vt -2.652076 -10.04133
vt 1.285314 -10.04133
vt 1.285314 -0.05892467
vt 2.630798 -10.04133
vt 2.630798 -0.05892467
vt -2.261527 1.467842
vt -2.652076 0
vt 2.261527 1.467842
vt 3.528457 0
vt 3.579998 2.268188
vt -3.528457 -0.05892467
vt -3.528457 -10.04133
vt 2.694896 -10.04133
vt 2.694896 -0.05892467
vt 4.23727 -10.04463
vt 4.23727 -0.040452
vt -2.260652 1.467558
vt -2.651172 -0.0002917446
vt -3.57925 2.267908
vt -3.52749 -0.0003256677
vn 0 0 1
vn 0 0 1
vn 0 0 1
vn 0 0 1
vn 1 0 0
vn 1 0 0
vn 1 0 0
vn 1 0 0
vn 0 0 -1
vn 0 0 -1
vn 0 0 -1
vn 0 0 -1
vn 1 0 0
vn 1 0 0
vn 1 0 0
vn 1 0 0
vn 0 1 0
vn 0 0 0
vn 0 0 0
vn 0 0 0
vn 0 -1 0
vn 0 0 0
vn 0 -1 0
vn 0 0 0
vn 0 0 0
vn 0 0 0
vn 0 1 0
vn 0 0 0
vn 0 -1 0
vn 0 -1 0
vn 0 -1 0
vn 0 -1 0
vn 1 0 0
vn 1 0 0
vn -0.999742 -0.02271729 0
vn -0.9997419 -0.02271729 0
vn -0.9997419 -0.02271729 0
vn -0.9997419 -0.02271729 0
vn 0 1 0
vn 0 1 0
vn 0 1 0
vn 0 0 -1
vn 0 0 -1
vn 0 0 -1
vn 0 0 -1
vn 0 -1 0
vn 0 -1 0
vn 0.3477129 0.9376011 0
vn 0.3477129 0.9376011 0
vn 0.3477129 0.9376011 0
vn 0.3477129 0.9376011 0
vn 0 0 1
vn 0 0 1
vn 0.0008230197 -0.0007103684 -0.9999988
vn 0.0008230197 -0.0007103684 -0.9999988
vn 0.001646039 -0.001420737 -0.9999977
vn 0 -1 0
vn 0 -1 0
vn 0.5189049 0.854832 0
vn 0.5189049 0.854832 0
vn 0.5189049 0.854832 0
vn 0.5189049 0.854832 0
vn 0.01206152 -0.003209208 0.9999222
vn 0.006030759 -0.005676591 0.9999445
vn 0.006030759 -0.005676591 0.9999445
vn 0 -0.008143974 0.9999669
g pb_Mesh92296_0
f 3/3/3 2/2/2 1/1/1
f 3/3/3 4/4/4 2/2/2
f 7/7/7 6/6/6 5/5/5
f 7/7/7 8/8/8 6/6/6
f 11/11/11 10/10/10 9/9/9
f 11/11/11 12/12/12 10/10/10
f 15/15/15 14/14/14 13/13/13
f 15/15/15 16/16/16 14/14/14
f 19/19/19 18/18/18 17/17/17
f 22/22/22 21/21/21 20/20/20
f 25/25/25 24/24/24 23/23/23
f 28/28/28 27/27/27 26/26/26
f 31/31/31 30/30/30 29/29/29
f 31/31/31 32/32/32 30/30/30
f 33/33/33 14/14/14 16/16/16
f 33/33/33 34/34/34 14/14/14
f 37/37/37 36/36/36 35/35/35
f 37/37/37 38/38/38 36/36/36
f 40/40/40 17/17/17 39/39/39
f 40/40/40 41/41/41 17/17/17
f 44/44/44 43/43/43 42/42/42
f 44/44/44 45/45/45 43/43/43
f 46/46/46 30/30/30 32/32/32
f 46/46/46 47/47/47 30/30/30
f 50/50/50 49/49/49 48/48/48
f 50/50/50 51/51/51 49/49/49
f 52/52/52 2/2/2 4/4/4
f 52/52/52 53/53/53 2/2/2
f 55/55/55 54/54/54 44/44/44
f 55/55/55 56/56/56 54/54/54
f 57/57/57 47/47/47 46/46/46
f 57/57/57 58/58/58 47/47/47
f 61/61/61 60/60/60 59/59/59
f 61/61/61 62/62/62 60/60/60
f 65/65/65 64/64/64 63/63/63
f 65/65/65 66/66/66 64/64/64
