g pb_Mesh44670
v 0.6868225 -4 3.39288
v -1.251869 -4 3.421088
v 0.6868225 0 3.39288
v -1.251869 0 3.421088
v -1.251869 -4 3.421088
v -1.624188 -4 -0.35699
v -1.251869 0 3.421088
v -1.624188 0 -0.35699
v -1.624188 -4 -0.35699
v 0.2977798 -4 -0.6432937
v -1.624188 0 -0.35699
v 0.2977798 0 -0.6432937
v 0.2977798 -4 -0.6432937
v 0.6868225 -4 3.39288
v 0.2977798 0 -0.6432937
v 0.6868225 0 3.39288
v 0.6868225 0 3.39288
v -1.251869 0 3.421088
v 0.2977798 0 -0.6432937
v -1.624188 0 -0.35699
v 0.2977798 -4 -0.6432937
v -1.624188 -4 -0.35699
v 0.6868225 -4 3.39288
v -1.251869 -4 3.421088
vt 0.637389 -4
vt -1.301508 -4
vt 0.637389 0
vt -1.301508 0
vt 3.281823 -4
vt -0.5145566 -4
vt 3.281823 0
vt -0.5145566 0
vt 1.553864 -4
vt -0.3893116 -4
vt 1.553864 0
vt -0.3893116 0
vt 0.6117557 -4
vt -3.443125 -4
vt 0.6117557 0
vt -3.443125 0
vt -0.6868225 3.39288
vt 1.251869 3.421088
vt -0.2977798 -0.6432937
vt 1.624188 -0.35699
vt 0.2977798 -0.6432937
vt -1.624188 -0.35699
vt 0.6868225 3.39288
vt -1.251869 3.421088
vn 0.01454837 0 0.9998942
vn 0.01454837 0 0.9998942
vn 0.01454837 0 0.9998942
vn 0.01454837 0 0.9998942
vn -0.9951793 0 0.09807212
vn -0.9951793 0 0.09807212
vn -0.9951793 0 0.09807212
vn -0.9951793 0 0.09807212
vn -0.147338 0 -0.9890862
vn -0.147338 0 -0.9890862
vn -0.147338 0 -0.9890862
vn -0.147338 0 -0.9890862
vn 0.9953867 0 -0.09594431
vn 0.9953867 0 -0.09594431
vn 0.9953867 0 -0.09594431
vn 0.9953867 0 -0.09594431
vn 0 1 0
vn 0 1 0
vn 0 1 0
vn 0 1 0
vn 0 -1 0
vn 0 -1 0
vn 0 -1 0
vn 0 -1 0
g pb_Mesh44670_0
f 3/3/3 2/2/2 1/1/1
f 3/3/3 4/4/4 2/2/2
f 7/7/7 6/6/6 5/5/5
f 7/7/7 8/8/8 6/6/6
f 11/11/11 10/10/10 9/9/9
f 11/11/11 12/12/12 10/10/10
f 15/15/15 14/14/14 13/13/13
f 15/15/15 16/16/16 14/14/14
f 19/19/19 18/18/18 17/17/17
f 19/19/19 20/20/20 18/18/18
f 23/23/23 22/22/22 21/21/21
f 23/23/23 24/24/24 22/22/22
