g pb_Mesh179140
v 0 0 0
v 0 1 0
v 0.0761205 0 0.3826835
v 0.0761205 1 0.3826835
v 0.0761205 0 0.3826835
v 0.0761205 1 0.3826835
v 0.2928932 0 0.7071068
v 0.2928932 1 0.7071068
v 0.2928932 0 0.7071068
v 0.2928932 1 0.7071068
v 0.6173166 0 0.9238795
v 0.6173166 1 0.9238795
v 0.6173166 0 0.9238795
v 0.6173166 1 0.9238795
v 1 0 1
v 1 1 1
v 1 0 1
v 1 1 1
v 1.382683 0 0.9238796
v 1.382683 1 0.9238796
v 1.382683 0 0.9238796
v 1.382683 1 0.9238796
v 1.707107 0 0.7071068
v 1.707107 1 0.7071068
v 1.707107 0 0.7071068
v 1.707107 1 0.7071068
v 1.92388 0 0.3826835
v 1.92388 1 0.3826835
v 1.92388 0 0.3826835
v 1.92388 1 0.3826835
v 2 0 -8.742278E-08
v 2 1 -8.742278E-08
v 2 0 -8.742278E-08
v 2 1 -8.742278E-08
v 1.92388 0 -0.3826834
v 1.92388 1 -0.3826834
v 1.92388 0 -0.3826834
v 1.92388 1 -0.3826834
v 1.707107 0 -0.7071067
v 1.707107 1 -0.7071067
v 1.707107 0 -0.7071067
v 1.707107 1 -0.7071067
v 1.382684 0 -0.9238795
v 1.382684 1 -0.9238795
v 1.382684 0 -0.9238795
v 1.382684 1 -0.9238795
v 1 0 -1
v 1 1 -1
v 1 0 -1
v 1 1 -1
v 0.6173164 0 -0.9238794
v 0.6173164 1 -0.9238794
v 0.6173164 0 -0.9238794
v 0.6173164 1 -0.9238794
v 0.2928934 0 -0.7071069
v 0.2928934 1 -0.7071069
v 0.2928934 0 -0.7071069
v 0.2928934 1 -0.7071069
v 0.07612044 0 -0.3826834
v 0.07612044 1 -0.3826834
v 0.07612044 0 -0.3826834
v 0.07612044 1 -0.3826834
v 0.0761205 0 0.3826835
v 1 0 0
v 0 0 0
v 0.2928932 0 0.7071068
v 0.6173166 0 0.9238795
v 1 0 1
v 1.382683 0 0.9238796
v 1.707107 0 0.7071068
v 1.92388 0 0.3826835
v 2 0 -8.742278E-08
v 1.92388 0 -0.3826834
v 1.707107 0 -0.7071067
v 1.382684 0 -0.9238795
v 1 0 -1
v 0.6173164 0 -0.9238794
v 0.2928934 0 -0.7071069
v 0.07612044 0 -0.3826834
v 0 1 0
v 1 1 0
v 0.0761205 1 0.3826835
v 0.2928932 1 0.7071068
v 0.6173166 1 0.9238795
v 1 1 1
v 1.382683 1 0.9238796
v 1.707107 1 0.7071068
v 1.92388 1 0.3826835
v 2 1 -8.742278E-08
v 1.92388 1 -0.3826834
v 1.707107 1 -0.7071067
v 1.382684 1 -0.9238795
v 1 1 -1
v 0.6173164 1 -0.9238794
v 0.2928934 1 -0.7071069
v 0.07612044 1 -0.3826834
vt 0 0
vt 0 1
vt 0.3901807 0
vt 0.3901807 1
vt 0.36048 0
vt 0.36048 1
vt 0.7506605 0
vt 0.7506605 1
vt 0.6363793 0
vt 0.6363793 1
vt 1.02656 0
vt 1.02656 1
vt 0.7856951 0
vt 0.7856951 1
vt 1.175876 0
vt 1.175876 1
vt 0.7856951 0
vt 0.7856951 1
vt 1.175876 0
vt 1.175876 1
vt 0.6363794 0
vt 0.6363794 1
vt 1.02656 0
vt 1.02656 1
vt 0.3604798 0
vt 0.3604798 1
vt 0.7506604 0
vt 0.7506604 1
vt -4.328351E-08 0
vt -4.328351E-08 1
vt 0.3901807 0
vt 0.3901807 1
vt -0.3901808 0
vt -0.3901808 1
vt -2.445202E-07 0
vt -2.445202E-07 1
vt -0.7506604 0
vt -0.7506604 1
vt -0.3604799 0
vt -0.3604799 1
vt -1.02656 0
vt -1.02656 1
vt -0.6363791 0
vt -0.6363791 1
vt -1.175876 0
vt -1.175876 1
vt -0.7856949 0
vt -0.7856949 1
vt -1.175876 0
vt -1.175876 1
vt -0.7856948 0
vt -0.7856948 1
vt -1.02656 0
vt -1.02656 1
vt -0.6363795 0
vt -0.6363795 1
vt -0.7506607 0
vt -0.7506607 1
vt -0.3604799 0
vt -0.3604799 1
vt -0.3901806 0
vt -0.3901806 1
vt 0.0761205 0.3826835
vt 1 0
vt 0 0
vt 0.2928932 0.7071068
vt 0.6173166 0.9238795
vt 1 1
vt 1.382683 0.9238796
vt 1.707107 0.7071068
vt 1.92388 0.3826835
vt 2 -8.742278E-08
vt 1.92388 -0.3826834
vt 1.707107 -0.7071067
vt 1.382684 -0.9238795
vt 1 -1
vt 0.6173164 -0.9238794
vt 0.2928934 -0.7071069
vt 0.07612044 -0.3826834
vt 0 0
vt -1 0
vt -0.0761205 0.3826835
vt -0.2928932 0.7071068
vt -0.6173166 0.9238795
vt -1 1
vt -1.382683 0.9238796
vt -1.707107 0.7071068
vt -1.92388 0.3826835
vt -2 -8.742278E-08
vt -1.92388 -0.3826834
vt -1.707107 -0.7071067
vt -1.382684 -0.9238795
vt -1 -1
vt -0.6173164 -0.9238794
vt -0.2928934 -0.7071069
vt -0.07612044 -0.3826834
vn -1 0 6.836892E-08
vn -1 0 6.836892E-08
vn -0.9238795 0 0.3826835
vn -0.9238795 0 0.3826835
vn -0.9238795 0 0.3826835
vn -0.9238795 0 0.3826835
vn -0.7071068 0 0.7071068
vn -0.7071068 0 0.7071068
vn -0.7071068 0 0.7071068
vn -0.7071068 0 0.7071068
vn -0.3826835 0 0.9238795
vn -0.3826835 0 0.9238795
vn -0.3826835 0 0.9238795
vn -0.3826835 0 0.9238795
vn -7.596547E-08 0 1
vn -7.596547E-08 0 1
vn -7.596547E-08 0 1
vn -7.596547E-08 0 1
vn 0.3826834 0 0.9238796
vn 0.3826834 0 0.9238796
vn 0.3826834 0 0.9238796
vn 0.3826834 0 0.9238796
vn 0.7071068 0 0.7071068
vn 0.7071068 0 0.7071068
vn 0.7071068 0 0.7071068
vn 0.7071068 0 0.7071068
vn 0.9238795 0 0.3826834
vn 0.9238795 0 0.3826834
vn 0.9238795 0 0.3826834
vn 0.9238795 0 0.3826834
vn 1 0 -6.077237E-08
vn 1 0 -6.077237E-08
vn 1 0 -6.077237E-08
vn 1 0 -6.077237E-08
vn 0.9238795 0 -0.3826835
vn 0.9238795 0 -0.3826835
vn 0.9238795 0 -0.3826835
vn 0.9238795 0 -0.3826835
vn 0.7071069 0 -0.7071067
vn 0.7071069 0 -0.7071067
vn 0.7071069 0 -0.7071067
vn 0.7071069 0 -0.7071067
vn 0.3826835 0 -0.9238795
vn 0.3826835 0 -0.9238795
vn 0.3826835 0 -0.9238795
vn 0.3826835 0 -0.9238795
vn -4.557928E-08 0 -1
vn -4.557928E-08 0 -1
vn -4.557928E-08 0 -1
vn -4.557928E-08 0 -1
vn -0.3826835 0 -0.9238795
vn -0.3826835 0 -0.9238795
vn -0.3826835 0 -0.9238795
vn -0.3826835 0 -0.9238795
vn -0.7071068 0 -0.7071068
vn -0.7071068 0 -0.7071068
vn -0.7071068 0 -0.7071068
vn -0.7071068 0 -0.7071068
vn -0.9238795 0 -0.3826835
vn -0.9238795 0 -0.3826835
vn -0.9238795 0 -0.3826835
vn -0.9238795 0 -0.3826835
vn 0 -1 0
vn 0 -1 0
vn 0 -1 0
vn 0 -1 0
vn 0 -1 0
vn 0 -1 0
vn 0 -1 0
vn 0 -1 0
vn 0 -1 0
vn 0 -1 0
vn 0 -1 0
vn 0 -1 0
vn 0 -1 0
vn 0 -1 0
vn 0 -1 0
vn 0 -1 0
vn 0 -1 0
vn 0 1 0
vn 0 1 0
vn 0 1 0
vn 0 1 0
vn 0 1 0
vn 0 1 0
vn 0 1 0
vn 0 1 0
vn 0 1 0
vn 0 1 0
vn 0 1 0
vn 0 1 0
vn 0 1 0
vn 0 1 0
vn 0 1 0
vn 0 1 0
vn 0 1 0
g pb_Mesh179140_0
f 3/3/3 2/2/2 1/1/1
f 3/3/3 4/4/4 2/2/2
f 7/7/7 6/6/6 5/5/5
f 7/7/7 8/8/8 6/6/6
f 11/11/11 10/10/10 9/9/9
f 11/11/11 12/12/12 10/10/10
f 15/15/15 14/14/14 13/13/13
f 15/15/15 16/16/16 14/14/14
f 19/19/19 18/18/18 17/17/17
f 19/19/19 20/20/20 18/18/18
f 23/23/23 22/22/22 21/21/21
f 23/23/23 24/24/24 22/22/22
f 27/27/27 26/26/26 25/25/25
f 27/27/27 28/28/28 26/26/26
f 31/31/31 30/30/30 29/29/29
f 31/31/31 32/32/32 30/30/30
f 35/35/35 34/34/34 33/33/33
f 35/35/35 36/36/36 34/34/34
f 39/39/39 38/38/38 37/37/37
f 39/39/39 40/40/40 38/38/38
f 43/43/43 42/42/42 41/41/41
f 43/43/43 44/44/44 42/42/42
f 47/47/47 46/46/46 45/45/45
f 47/47/47 48/48/48 46/46/46
f 51/51/51 50/50/50 49/49/49
f 51/51/51 52/52/52 50/50/50
f 55/55/55 54/54/54 53/53/53
f 55/55/55 56/56/56 54/54/54
f 59/59/59 58/58/58 57/57/57
f 59/59/59 60/60/60 58/58/58
f 1/1/1 62/62/62 61/61/61
f 1/1/1 2/2/2 62/62/62
f 65/65/65 64/64/64 63/63/63
f 63/63/63 64/64/64 66/66/66
f 66/66/66 64/64/64 67/67/67
f 67/67/67 64/64/64 68/68/68
f 68/68/68 64/64/64 69/69/69
f 69/69/69 64/64/64 70/70/70
f 70/70/70 64/64/64 71/71/71
f 71/71/71 64/64/64 72/72/72
f 72/72/72 64/64/64 73/73/73
f 73/73/73 64/64/64 74/74/74
f 74/74/74 64/64/64 75/75/75
f 75/75/75 64/64/64 76/76/76
f 76/76/76 64/64/64 77/77/77
f 77/77/77 64/64/64 78/78/78
f 78/78/78 64/64/64 79/79/79
f 79/79/79 64/64/64 65/65/65
f 82/82/82 81/81/81 80/80/80
f 83/83/83 81/81/81 82/82/82
f 84/84/84 81/81/81 83/83/83
f 85/85/85 81/81/81 84/84/84
f 86/86/86 81/81/81 85/85/85
f 87/87/87 81/81/81 86/86/86
f 88/88/88 81/81/81 87/87/87
f 89/89/89 81/81/81 88/88/88
f 90/90/90 81/81/81 89/89/89
f 91/91/91 81/81/81 90/90/90
f 92/92/92 81/81/81 91/91/91
f 93/93/93 81/81/81 92/92/92
f 94/94/94 81/81/81 93/93/93
f 95/95/95 81/81/81 94/94/94
f 96/96/96 81/81/81 95/95/95
f 80/80/80 81/81/81 96/96/96
