g pb_Mesh515764
v 3.011035E-07 -9.000007 8.827458E-08
v -9.900009 -9.000012 8.1888E-07
v 0 1 0
v -9.999998 1 1.535494E-06
v -9.900009 -9.000012 8.1888E-07
v -9.900009 -9.000012 -0.9999993
v -9.999998 1 1.535494E-06
v -9.999994 1 -0.9999986
v -9.900009 -9.000012 -0.9999993
v 2.279073E-07 -9.000007 -1
v -9.999994 1 -0.9999986
v 0 1 -1
v 2.279073E-07 -9.000007 -1
v 3.011035E-07 -9.000007 8.827458E-08
v 0 1 -1
v 0 1 0
v -3.999961 33.00001 -4.599975
v -5.999962 33.00002 -4.599975
v -3.999961 33.00001 -5.59999
v -5.999961 33.00001 -5.59999
v 2.279073E-07 -9.000007 -1
v -9.900009 -9.000012 -0.9999993
v 3.011035E-07 -9.000007 8.827458E-08
v -9.900009 -9.000012 8.1888E-07
v 0 1 0
v -9.999998 1 1.535494E-06
v -3.999961 33.00001 -4.599975
v -5.999962 33.00002 -4.599975
v 0 1 -1
v 0 1 0
v -3.999961 33.00001 -5.59999
v -3.999961 33.00001 -4.599975
v -9.999998 1 1.535494E-06
v -9.999994 1 -0.9999986
v -5.999962 33.00002 -4.599975
v -5.999961 33.00001 -5.59999
v -9.999994 1 -0.9999986
v 0 1 -1
v -5.999961 33.00001 -5.59999
v -3.999961 33.00001 -5.59999
vt 3.011035E-07 -9.000007
vt -9.900009 -9.000012
vt 0 1
vt -9.999998 1
vt 8.1888E-07 -8.900578
vt -0.9999993 -8.900578
vt 1.535494E-06 1.099934
vt -0.9999986 1.099934
vt 9.900009 -9.000012
vt -3.001553E-07 -9.000007
vt 9.999994 1
vt -7.224803E-08 0.9999999
vt 1 -9.000007
vt -8.82746E-08 -9.000007
vt 1 1
vt 0 1
vt 4.000023 -4.599975
vt 6.000025 -4.599975
vt 4.000023 -5.59999
vt 6.000024 -5.59999
vt -4.973952E-06 -1
vt -9.900014 -0.9999993
vt -4.900756E-06 8.827496E-08
vt -9.900014 8.188804E-07
vt 0 0.9898255
vt -9.999998 0.9898258
vt -3.99996 33.31877
vt -5.999961 33.31877
vt 1 0.992278
vt 0 0.992278
vt 5.59999 33.24131
vt 4.599975 33.24131
vt 3.983147E-05 -0.2480739
vt -0.9999603 -0.2480741
vt -4.599952 32.00098
vt -5.599967 32.00097
vt 9.999994 1.132113
vt -1.464785E-07 1.132113
vt 5.99996 33.46105
vt 3.99996 33.46106
vn 7.379845E-08 8.827453E-09 1
vn 1.136739E-07 -3.064925E-08 1
vn 1.136739E-07 -3.064925E-08 1
vn 1.535494E-07 -7.012596E-08 1
vn -0.9999501 -0.009998382 0
vn -0.9999501 -0.009998191 -1.907253E-06
vn -0.9999501 -0.009998191 -1.907253E-06
vn -0.9999501 -0.009998001 -3.814506E-06
vn -7.224803E-08 7.080311E-08 -1
vn -1.076496E-07 3.540156E-08 -1
vn -1.076496E-07 3.540156E-08 -1
vn -1.430512E-07 -3.260239E-15 -1
vn 1 2.279071E-08 -7.319621E-08
vn 1 2.645052E-08 -3.659811E-08
vn 1 2.645052E-08 -3.659811E-08
vn 1 3.011033E-08 0
vn 1.907347E-06 1 0
vn -6.82121E-13 1 -3.814639E-06
vn -6.82121E-13 1 -3.814639E-06
vn -1.907348E-06 1 -7.629277E-06
vn 5.779839E-07 -1 -4.230623E-14
vn 5.779839E-07 -1 -2.115312E-14
vn 5.779839E-07 -1 -2.115312E-14
vn 5.779839E-07 -1 0
vn 1.570757E-07 0.1422866 0.9898255
vn 3.322291E-07 0.1422866 0.9898255
vn 3.322291E-07 0.1422866 0.9898255
vn 5.073825E-07 0.1422866 0.9898255
vn 0.992278 0.1240335 0
vn 0.992278 0.1240335 0
vn 0.992278 0.1240335 0
vn 0.992278 0.1240335 0
vn -0.9922778 0.1240352 -3.800025E-06
vn -0.9922778 0.1240353 -3.082884E-06
vn -0.9922778 0.1240353 -3.082884E-06
vn -0.9922778 0.1240354 -2.365743E-06
vn -1.449881E-07 -0.1422871 -0.9898254
vn 6.32014E-08 -0.142287 -0.9898254
vn 6.32014E-08 -0.142287 -0.9898254
vn 2.713909E-07 -0.142287 -0.9898254
g pb_Mesh515764_0
f 3/3/3 2/2/2 1/1/1
f 3/3/3 4/4/4 2/2/2
f 7/7/7 6/6/6 5/5/5
f 7/7/7 8/8/8 6/6/6
f 11/11/11 10/10/10 9/9/9
f 11/11/11 12/12/12 10/10/10
f 15/15/15 14/14/14 13/13/13
f 15/15/15 16/16/16 14/14/14
f 19/19/19 18/18/18 17/17/17
f 19/19/19 20/20/20 18/18/18
f 23/23/23 22/22/22 21/21/21
f 23/23/23 24/24/24 22/22/22
f 27/27/27 26/26/26 25/25/25
f 27/27/27 28/28/28 26/26/26
f 31/31/31 30/30/30 29/29/29
f 31/31/31 32/32/32 30/30/30
f 35/35/35 34/34/34 33/33/33
f 35/35/35 36/36/36 34/34/34
f 39/39/39 38/38/38 37/37/37
f 39/39/39 40/40/40 38/38/38
