g pb_Mesh92026
v 1.352896E-08 0 -3.237258
v -2.792652 0 -3.237258
v 1.352896E-08 2.005753 -3.237258
v -2.792652 2.005753 -3.237258
v -2.792652 0 -3.237258
v -2.792652 0 -6
v -2.792652 2.005753 -3.237258
v -2.792652 2.005753 -6
v -2.792652 0 -6
v 0 0 -6
v -2.792652 2.005753 -6
v 0 2.005753 -6
v 0 0 -6
v 1.352896E-08 0 -3.237258
v 0 2.005753 -6
v 1.352896E-08 2.005753 -3.237258
v 1.352896E-08 2.005753 -3.237258
v -2.792652 2.005753 -3.237258
v 0 2.005753 -6
v -2.792652 2.005753 -6
v 0 0 -6
v -2.792652 0 -6
v 1.352896E-08 0 -3.237258
v -2.792652 0 -3.237258
vt 1.352896E-08 0
vt -2.792652 0
vt 1.352896E-08 2.005753
vt -2.792652 2.005753
vt -3.237258 0
vt -6 0
vt -3.237258 2.005753
vt -6 2.005753
vt 2.792652 0
vt 0 0
vt 2.792652 2.005753
vt 0 2.005753
vt 6 0
vt 3.237258 0
vt 6 2.005753
vt 3.237258 2.005753
vt -1.352896E-08 -3.237258
vt 2.792652 -3.237258
vt 0 -6
vt 2.792652 -6
vt 0 -6
vt -2.792652 -6
vt 1.352896E-08 -3.237258
vt -2.792652 -3.237258
vn 0 0 1
vn 0 0 1
vn 0 0 1
vn 0 0 1
vn -1 0 0
vn -1 0 0
vn -1 0 0
vn -1 0 0
vn 0 0 -1
vn 0 0 -1
vn 0 0 -1
vn 0 0 -1
vn 1 0 -4.896933E-09
vn 1 0 -4.896933E-09
vn 1 0 -4.896933E-09
vn 1 0 -4.896933E-09
vn 0 1 0
vn 0 1 0
vn 0 1 0
vn 0 1 0
vn 0 -1 0
vn 0 -1 0
vn 0 -1 0
vn 0 -1 0
g pb_Mesh92026_0
f 3/3/3 2/2/2 1/1/1
f 3/3/3 4/4/4 2/2/2
f 7/7/7 6/6/6 5/5/5
f 7/7/7 8/8/8 6/6/6
f 11/11/11 10/10/10 9/9/9
f 11/11/11 12/12/12 10/10/10
f 15/15/15 14/14/14 13/13/13
f 15/15/15 16/16/16 14/14/14
f 19/19/19 18/18/18 17/17/17
f 19/19/19 20/20/20 18/18/18
f 23/23/23 22/22/22 21/21/21
f 23/23/23 24/24/24 22/22/22
