g pb_Mesh515846
v 0 -3.6 3
v -35 -3.6 3
v 0 -2.6 3
v -35 -2.6 3
v -35 -3.6 3
v -35 0 -32
v -35 -2.6 3
v -35 1 -32
v -35 0 -32
v 0 0 -32
v -35 1 -32
v 0 1 -32
v 0 0 -32
v 0 -3.6 3
v 0 1 -32
v 0 -2.6 3
v 0 -2.6 3
v -35 -2.6 3
v 0 1 -32
v -35 1 -32
v 0 0 -32
v -35 0 -32
v 0 -3.6 3
v -35 -3.6 3
vt 0 -3.6
vt -35 -3.6
vt 0 -2.6
vt -35 -2.6
vt 3 -3.6
vt -32 0
vt 3 -2.6
vt -32 1
vt 35 0
vt 0 0
vt 35 1
vt 0 1
vt 32 0
vt -3 -3.6
vt 32 1
vt -3 -2.6
vt 0 3.250281
vt 35 3.250281
vt 0 -31.93438
vt 35 -31.93438
vt 0 -31.83206
vt -35 -31.83206
vt 0 3.352598
vt -35 3.352598
vn 0 0 1
vn 0 0 1
vn 0 0 1
vn 0 0 1
vn -1 0 0
vn -1 0 0
vn -1 0 0
vn -1 0 0
vn 0 0 -1
vn 0 0 -1
vn 0 0 -1
vn 0 0 -1
vn 1 0 0
vn 1 0 0
vn 1 0 0
vn 1 0 0
vn 0 0.9947518 0.1023173
vn 0 0.9947518 0.1023173
vn 0 0.9947518 0.1023173
vn 0 0.9947518 0.1023173
vn 0 -0.9947518 -0.1023173
vn 0 -0.9947518 -0.1023173
vn 0 -0.9947518 -0.1023173
vn 0 -0.9947518 -0.1023173
g pb_Mesh515846_0
f 3/3/3 2/2/2 1/1/1
f 3/3/3 4/4/4 2/2/2
f 7/7/7 6/6/6 5/5/5
f 7/7/7 8/8/8 6/6/6
f 11/11/11 10/10/10 9/9/9
f 11/11/11 12/12/12 10/10/10
f 15/15/15 14/14/14 13/13/13
f 15/15/15 16/16/16 14/14/14
f 19/19/19 18/18/18 17/17/17
f 19/19/19 20/20/20 18/18/18
f 23/23/23 22/22/22 21/21/21
f 23/23/23 24/24/24 22/22/22
