g pb_Mesh515920
v 7.748604E-07 0.04999924 -1.907349E-06
v -14.9 0 0.0001367688
v 0 1 0
v -14.9 1.700001 0.0001367688
v -14.9 0 0.0001367688
v -14.90009 0 -9.999863
v -14.9 1.700001 0.0001367688
v -14.90009 1.700001 -9.999863
v -14.90009 0 -9.999863
v 2.086163E-06 0.04999924 -10
v -14.90009 1.700001 -9.999863
v 0 1 -10
v 2.086163E-06 0.04999924 -10
v 7.748604E-07 0.04999924 -1.907349E-06
v 0 1 -10
v 0 1 0
v 0 1 0
v -14.9 1.700001 0.0001367688
v 0 1 -10
v -14.90009 1.700001 -9.999863
v 2.086163E-06 0.04999924 -10
v -14.90009 0 -9.999863
v 7.748604E-07 0.04999924 -1.907349E-06
v -14.9 0 0.0001367688
vt 7.748782E-07 0.04999924
vt -14.9 -4.030934E-12
vt 0 1
vt -14.9 1.700001
vt 3.552253E-07 -8.358671E-06
vt -9.999999 -8.358671E-06
vt 3.55234E-07 1.699992
vt -9.999999 1.699992
vt 14.9 0
vt -9.553287E-05 0.04999924
vt 14.9 1.700001
vt -9.344669E-05 1
vt 10 0.04999924
vt 1.907349E-06 0.04999924
vt 10 1
vt 0 1
vt 0.04692816 0
vt 14.96336 0.0001367688
vt 0.04692816 -10
vt 14.96345 -9.999863
vt 0.0001698642 -10
vt -14.90001 -9.999863
vt 0.000168553 -1.907327E-06
vt -14.89992 0.0001367689
vn 9.313861E-06 -2.007726E-06 1
vn 9.246489E-06 -1.003866E-06 1
vn 9.246489E-06 -1.003866E-06 1
vn 9.179116E-06 -5.149343E-12 1
vn -1 5.609846E-07 9.155275E-06
vn -1 2.804923E-07 9.202959E-06
vn -1 2.804923E-07 9.202959E-06
vn -1 0 9.250642E-06
vn -9.344669E-06 0 -1
vn -9.233505E-06 1.003857E-06 -1
vn -9.233505E-06 1.003857E-06 -1
vn -9.12234E-06 2.007714E-06 -1
vn 1 2.195959E-06 1.311302E-07
vn 1 1.5058E-06 6.556511E-08
vn 1 1.5058E-06 6.556511E-08
vn 1 8.156418E-07 0
vn 0.04692816 0.9988983 0
vn 0.04692802 0.9988983 -2.170565E-07
vn 0.04692802 0.9988983 -2.170565E-07
vn 0.04692787 0.9988983 -4.341129E-07
vn 0.003355613 -0.9999944 4.400223E-10
vn 0.003355624 -0.9999944 -1.514087E-08
vn 0.003355624 -0.9999944 -1.514087E-08
vn 0.003355634 -0.9999944 -3.072175E-08
g pb_Mesh515920_0
f 3/3/3 2/2/2 1/1/1
f 3/3/3 4/4/4 2/2/2
f 7/7/7 6/6/6 5/5/5
f 7/7/7 8/8/8 6/6/6
f 11/11/11 10/10/10 9/9/9
f 11/11/11 12/12/12 10/10/10
f 15/15/15 14/14/14 13/13/13
f 15/15/15 16/16/16 14/14/14
f 19/19/19 18/18/18 17/17/17
f 19/19/19 20/20/20 18/18/18
f 23/23/23 22/22/22 21/21/21
f 23/23/23 24/24/24 22/22/22
