g pb_Mesh516430
v -18.00002 -0.09999847 -1.999842
v -28.90002 0.09999847 -1.999742
v -18.00002 2.200001 -1.999839
v -28.90002 2.799999 -1.999742
v -28.90002 0.09999847 -1.999742
v -28.90011 0.09999847 -12.09974
v -28.90002 2.799999 -1.999742
v -28.90011 2.900002 -12.09974
v -28.90011 0.09999847 -12.09974
v -18.10011 -0.09999847 -12.09984
v -28.90011 2.900002 -12.09974
v -18.20011 2.299999 -12.09984
v -18.10011 -0.09999847 -12.09984
v -18.00002 -0.09999847 -1.999842
v -18.20011 2.299999 -12.09984
v -18.00002 2.200001 -1.999839
v -18.00002 2.200001 -1.999839
v -28.90002 2.799999 -1.999742
v -18.20011 2.299999 -12.09984
v -28.90011 2.900002 -12.09974
v -18.10011 -0.09999847 -12.09984
v -28.90011 0.09999847 -12.09974
v -18.00002 -0.09999847 -1.999842
v -28.90002 0.09999847 -1.999742
vt -18 -0.1000014
vt -28.9 0.09999557
vt -18 2.199998
vt -28.9 2.799996
vt -1.999998 0.09999847
vt -12.1 0.09999847
vt -1.999998 2.799999
vt -12.1 2.900002
vt 28.9 0.09999847
vt 18.1 -0.09999847
vt 28.9 2.900002
vt 18.2 2.299999
vt 12.2786 0.6485441
vt 2.178107 0.6485441
vt 12.27959 3.050624
vt 2.178104 2.946549
vt 18.09373 -2.010382
vt 29.01023 -2.010285
vt 18.29901 -12.11077
vt 29.01582 -12.11078
vt -18.09515 -12.09992
vt -28.89701 -12.09982
vt -17.99508 -1.999922
vt -28.89692 -1.999822
vn 9.214828E-06 -1.451259E-06 1
vn 9.075027E-06 -7.256297E-07 1
vn 9.075027E-06 -7.256297E-07 1
vn 8.935227E-06 0 1
vn -1 0 8.875779E-06
vn -1 0 8.875779E-06
vn -1 0 8.875779E-06
vn -1 0 8.875778E-06
vn -9.006923E-06 0 -1
vn -9.003821E-06 1.116645E-08 -1
vn -9.003821E-06 1.116645E-08 -1
vn -9.00072E-06 2.233291E-08 -1
vn 0.9990841 0.04162871 -0.009900451
vn 0.999444 0.02081354 -0.01485376
vn 0.999444 0.02081354 -0.01485376
vn 0.9998038 -1.629494E-06 -0.01980706
vn 0.05496047 0.9984498 0.00879667
vn 0.05547242 0.9984162 0.009340687
vn 0.05547242 0.9984162 0.009340687
vn 0.05598437 0.9983827 0.009884703
vn -0.01851506 -0.9998286 0.0001834755
vn -0.01843016 -0.9998301 9.181914E-05
vn -0.01843016 -0.9998301 9.181914E-05
vn -0.01834526 -0.9998317 1.628285E-07
g pb_Mesh516430_0
f 3/3/3 2/2/2 1/1/1
f 3/3/3 4/4/4 2/2/2
f 7/7/7 6/6/6 5/5/5
f 7/7/7 8/8/8 6/6/6
f 11/11/11 10/10/10 9/9/9
f 11/11/11 12/12/12 10/10/10
f 15/15/15 14/14/14 13/13/13
f 15/15/15 16/16/16 14/14/14
f 19/19/19 18/18/18 17/17/17
f 19/19/19 20/20/20 18/18/18
f 23/23/23 22/22/22 21/21/21
f 23/23/23 24/24/24 22/22/22
