g pb_Mesh91958
v 0 0 0
v 1.316097 4.396071 0
v 0 0 1
v 1.316097 4.396071 1
v 4.658049 2.198036 0
v 4 0 0
v 4.658049 2.198036 1
v 4 0 1
v 0 0 1
v 4 0 1
v 0 0 0
v 4 0 0
v 1.316097 4.396071 0
v 4.831361 7.345728 0
v 1.316097 4.396071 1
v 4.831361 7.345728 1
v 6.415681 3.672864 0
v 4.658049 2.198036 0
v 6.415681 3.672864 1
v 4.658049 2.198036 1
v 4.831361 7.345728 0
v 9.389186 7.878462 0
v 4.831361 7.345728 1
v 9.389186 7.878462 1
v 8.694592 3.939231 0
v 6.415681 3.672864 0
v 8.694592 3.939231 1
v 6.415681 3.672864 1
v 9.389186 7.878462 0
v 13.48993 5.81899 0
v 9.389186 7.878462 1
v 13.48993 5.81899 1
v 10.74497 2.909495 0
v 8.694592 3.939231 0
v 10.74497 2.909495 1
v 8.694592 3.939231 1
v 13.48993 5.81899 0
v 15.78436 1.844927 0
v 13.48993 5.81899 1
v 15.78436 1.844927 1
v 11.89218 0.9224633 0
v 10.74497 2.909495 0
v 11.89218 0.9224633 1
v 10.74497 2.909495 1
v 15.78436 1.844927 0
v 15.51754 -2.736161 0
v 15.78436 1.844927 1
v 15.51754 -2.736161 1
v 11.75877 -1.368081 0
v 11.89218 0.9224633 0
v 11.75877 -1.368081 1
v 11.89218 0.9224633 1
v 11.75877 -1.368081 1
v 15.51754 -2.736161 1
v 11.75877 -1.368081 0
v 15.51754 -2.736161 0
v 0 0 1
v 1.316097 4.396071 1
v 4 0 1
v 4.658049 2.198036 1
v 1.316097 4.396071 0
v 0 0 0
v 4.658049 2.198036 0
v 4 0 0
v 4.831361 7.345728 1
v 6.415681 3.672864 1
v 4.831361 7.345728 0
v 6.415681 3.672864 0
v 9.389186 7.878462 1
v 8.694592 3.939231 1
v 9.389186 7.878462 0
v 8.694592 3.939231 0
v 13.48993 5.81899 1
v 10.74497 2.909495 1
v 13.48993 5.81899 0
v 10.74497 2.909495 0
v 15.78436 1.844927 1
v 11.89218 0.9224633 1
v 15.78436 1.844927 0
v 11.89218 0.9224633 0
v 15.51754 -2.736161 1
v 11.75877 -1.368081 1
v 15.51754 -2.736161 0
v 11.75877 -1.368081 0
vt 0 0
vt 0 4.588851
vt 1 0
vt 1 4.588851
vt 0 3.441638
vt 0 1.147213
vt -1 3.441638
vt -1 1.147213
vt 0 1
vt 4 1
vt 0 0
vt 4 0
vt -3.833929 0
vt -8.422781 0
vt -3.833929 1
vt -8.422781 1
vt 7.275568 0
vt 4.981143 0
vt 7.275568 1
vt 4.981143 1
vt -5.651481 0
vt -10.24033 0
vt -5.651481 1
vt -10.24033 1
vt 9.09312 0
vt 6.798694 0
vt 9.09312 1
vt 6.798694 1
vt -4.854636 0
vt -9.443486 0
vt -4.854636 1
vt -9.443486 1
vt 8.296275 0
vt 6.001849 0
vt 8.296275 1
vt 6.001849 1
vt 0 -1.705574
vt 0 -6.294427
vt -1 -1.705574
vt -1 -6.294427
vt 0 -5.147212
vt 0 -2.852786
vt 1 -5.147212
vt 1 -2.852786
vt 0 2.759584
vt 0 -1.829267
vt -1 2.759584
vt -1 -1.829267
vt 0 -0.6820518
vt 0 1.612374
vt 1 -0.6820518
vt 1 1.612374
vt 11.51754 1
vt 15.51754 1
vt 11.51754 0
vt 15.51754 0
vt 0 0
vt 1.316097 4.396071
vt 4 0
vt 4.658049 2.198036
vt -1.316097 4.396071
vt 0 0
vt -4.658049 2.198036
vt -4 0
vt 4.831361 7.345728
vt 6.415681 3.672864
vt -4.831361 7.345728
vt -6.415681 3.672864
vt 9.389186 7.878462
vt 8.694592 3.939231
vt -9.389186 7.878462
vt -8.694592 3.939231
vt 13.48993 5.81899
vt 10.74497 2.909495
vt -13.48993 5.81899
vt -10.74497 2.909495
vt 15.78436 1.844927
vt 11.89218 0.9224633
vt -15.78436 1.844927
vt -11.89218 0.9224633
vt 15.51754 -2.736161
vt 11.75877 -1.368081
vt -15.51754 -2.736161
vt -11.75877 -1.368081
vn -0.9579895 0.2868032 0
vn -0.9579895 0.2868032 0
vn -0.9579895 0.2868032 0
vn -0.9579895 0.2868032 0
vn 0.9579895 -0.2868032 0
vn 0.9579895 -0.2868032 0
vn 0.9579895 -0.2868032 0
vn 0.9579895 -0.2868032 0
vn 0 -1 0
vn 0 -1 0
vn 0 -1 0
vn 0 -1 0
vn -0.6427876 0.7660444 0
vn -0.6427876 0.7660444 0
vn -0.6427876 0.7660444 0
vn -0.6427876 0.7660444 0
vn 0.6427876 -0.7660444 0
vn 0.6427876 -0.7660444 0
vn 0.6427876 -0.7660444 0
vn 0.6427876 -0.7660444 0
vn -0.1160929 0.9932383 0
vn -0.1160929 0.9932383 0
vn -0.1160929 0.9932383 0
vn -0.1160929 0.9932383 0
vn 0.116093 -0.9932383 0
vn 0.116093 -0.9932383 0
vn 0.116093 -0.9932383 0
vn 0.116093 -0.9932383 0
vn 0.4487992 0.8936327 0
vn 0.4487992 0.8936327 0
vn 0.4487992 0.8936327 0
vn 0.4487992 0.8936327 0
vn -0.448799 -0.8936327 0
vn -0.448799 -0.8936327 0
vn -0.448799 -0.8936327 0
vn -0.448799 -0.8936327 0
vn 0.8660254 0.5000001 0
vn 0.8660254 0.5000001 0
vn 0.8660254 0.5000001 0
vn 0.8660254 0.5000001 0
vn -0.8660254 -0.4999999 0
vn -0.8660254 -0.4999999 0
vn -0.8660254 -0.4999999 0
vn -0.8660254 -0.4999999 0
vn 0.9983082 -0.05814484 0
vn 0.9983082 -0.05814484 0
vn 0.9983082 -0.05814484 0
vn 0.9983082 -0.05814484 0
vn -0.9983081 0.05814505 0
vn -0.9983081 0.05814505 0
vn -0.9983081 0.05814505 0
vn -0.9983081 0.05814505 0
vn -0.3420201 -0.9396926 0
vn -0.3420201 -0.9396926 0
vn -0.3420201 -0.9396926 0
vn -0.3420201 -0.9396926 0
vn 0 0 1
vn 0 0 1
vn 0 0 1
vn 0 0 1
vn 0 0 -1
vn 0 0 -1
vn 0 0 -1
vn 0 0 -1
vn 0 0 1
vn 0 0 1
vn 0 0 -1
vn 0 0 -1
vn 0 0 1
vn 0 0 1
vn 0 0 -1
vn 0 0 -1
vn 0 0 1
vn 0 0 1
vn 0 0 -1
vn 0 0 -1
vn 0 0 1
vn 0 0 1
vn 0 0 -1
vn 0 0 -1
vn 0 0 1
vn 0 0 1
vn 0 0 -1
vn 0 0 -1
g pb_Mesh91958_0
f 3/3/3 2/2/2 1/1/1
f 3/3/3 4/4/4 2/2/2
f 7/7/7 6/6/6 5/5/5
f 7/7/7 8/8/8 6/6/6
f 11/11/11 10/10/10 9/9/9
f 11/11/11 12/12/12 10/10/10
f 15/15/15 14/14/14 13/13/13
f 15/15/15 16/16/16 14/14/14
f 19/19/19 18/18/18 17/17/17
f 19/19/19 20/20/20 18/18/18
f 23/23/23 22/22/22 21/21/21
f 23/23/23 24/24/24 22/22/22
f 27/27/27 26/26/26 25/25/25
f 27/27/27 28/28/28 26/26/26
f 31/31/31 30/30/30 29/29/29
f 31/31/31 32/32/32 30/30/30
f 35/35/35 34/34/34 33/33/33
f 35/35/35 36/36/36 34/34/34
f 39/39/39 38/38/38 37/37/37
f 39/39/39 40/40/40 38/38/38
f 43/43/43 42/42/42 41/41/41
f 43/43/43 44/44/44 42/42/42
f 47/47/47 46/46/46 45/45/45
f 47/47/47 48/48/48 46/46/46
f 51/51/51 50/50/50 49/49/49
f 51/51/51 52/52/52 50/50/50
f 55/55/55 54/54/54 53/53/53
f 55/55/55 56/56/56 54/54/54
f 59/59/59 58/58/58 57/57/57
f 59/59/59 60/60/60 58/58/58
f 63/63/63 62/62/62 61/61/61
f 63/63/63 64/64/64 62/62/62
f 60/60/60 65/65/65 58/58/58
f 60/60/60 66/66/66 65/65/65
f 68/68/68 61/61/61 67/67/67
f 68/68/68 63/63/63 61/61/61
f 66/66/66 69/69/69 65/65/65
f 66/66/66 70/70/70 69/69/69
f 72/72/72 67/67/67 71/71/71
f 72/72/72 68/68/68 67/67/67
f 70/70/70 73/73/73 69/69/69
f 70/70/70 74/74/74 73/73/73
f 76/76/76 71/71/71 75/75/75
f 76/76/76 72/72/72 71/71/71
f 74/74/74 77/77/77 73/73/73
f 74/74/74 78/78/78 77/77/77
f 80/80/80 75/75/75 79/79/79
f 80/80/80 76/76/76 75/75/75
f 78/78/78 81/81/81 77/77/77
f 78/78/78 82/82/82 81/81/81
f 84/84/84 79/79/79 83/83/83
f 84/84/84 80/80/80 79/79/79
