g pb_Mesh146836
v 0 0 5
v -24 0 10
v 0 1 5
v -24 1 10
v -24 0 10
v -24 0 -21
v -24 1 10
v -24 1 -21
v -24 0 -21
v 0 0 -15
v -24 1 -21
v 0 1 -15
v 0 0 -15
v 0 0 5
v 0 1 -15
v 0 1 5
v 0 1 5
v -24 1 10
v 0 1 -15
v -24 1 -21
v 0 0 -15
v -24 0 -21
v 0 0 5
v -24 0 10
vt -1.019771 0
vt -25.53507 0
vt -1.019771 1
vt -25.53507 1
vt 10 0
vt -21 0
vt 10 1
vt -21 1
vt 28.37667 0
vt 3.638034 0
vt 28.37667 1
vt 3.638034 1
vt 15 0
vt -5 0
vt 15 1
vt -5 1
vt 0 5
vt 24 10
vt 0 -15
vt 24 -21
vt 0 -15
vt -24 -21
vt 0 5
vt -24 10
vn 0.2039543 0 0.9789804
vn 0.2039543 0 0.9789804
vn 0.2039543 0 0.9789804
vn 0.2039543 0 0.9789804
vn -1 0 0
vn -1 0 0
vn -1 0 0
vn -1 0 0
vn 0.2425356 0 -0.9701425
vn 0.2425356 0 -0.9701425
vn 0.2425356 0 -0.9701425
vn 0.2425356 0 -0.9701425
vn 1 0 0
vn 1 0 0
vn 1 0 0
vn 1 0 0
vn 0 1 0
vn 0 1 0
vn 0 1 0
vn 0 1 0
vn 0 -1 0
vn 0 -1 0
vn 0 -1 0
vn 0 -1 0
g pb_Mesh146836_0
f 3/3/3 2/2/2 1/1/1
f 3/3/3 4/4/4 2/2/2
f 7/7/7 6/6/6 5/5/5
f 7/7/7 8/8/8 6/6/6
f 11/11/11 10/10/10 9/9/9
f 11/11/11 12/12/12 10/10/10
f 15/15/15 14/14/14 13/13/13
f 15/15/15 16/16/16 14/14/14
f 19/19/19 18/18/18 17/17/17
f 19/19/19 20/20/20 18/18/18
f 23/23/23 22/22/22 21/21/21
f 23/23/23 24/24/24 22/22/22
