g pb_Mesh93684
v 11.65996 0 -1.180868
v -6.235683 0 -1.180868
v 11.65996 2.333087 -1.180868
v -6.235683 2.333087 -1.180868
v -6.235683 0 -1.180868
v -6.235683 0 -1.291769
v -6.235683 2.333087 -1.180868
v -6.235683 2.333087 -1.291769
v -6.235683 0 -1.291769
v 11.65996 0 -1.291769
v -6.235683 2.333087 -1.291769
v 11.65996 2.333087 -1.291769
v 11.65996 0 -1.291769
v 11.65996 0 -1.180868
v 11.65996 2.333087 -1.291769
v 11.65996 2.333087 -1.180868
v 11.65996 2.333087 -1.180868
v -6.235683 2.333087 -1.180868
v 11.65996 2.333087 -1.291769
v -6.235683 2.333087 -1.291769
v 11.65996 0 -1.291769
v -6.235683 0 -1.291769
v 11.65996 0 -1.180868
v -6.235683 0 -1.180868
vt 11.65996 0
vt -6.235683 0
vt 11.65996 2.333087
vt -6.235683 2.333087
vt -1.180868 0
vt -1.291769 0
vt -1.180868 2.333087
vt -1.291769 2.333087
vt 6.235683 0
vt -11.65996 0
vt 6.235683 2.333087
vt -11.65996 2.333087
vt 1.291769 0
vt 1.180868 0
vt 1.291769 2.333087
vt 1.180868 2.333087
vt -11.65996 -1.180868
vt 6.235683 -1.180868
vt -11.65996 -1.291769
vt 6.235683 -1.291769
vt 11.65996 -1.291769
vt -6.235683 -1.291769
vt 11.65996 -1.180868
vt -6.235683 -1.180868
vn 0 0 1
vn 0 0 1
vn 0 0 1
vn 0 0 1
vn -1 0 0
vn -1 0 0
vn -1 0 0
vn -1 0 0
vn 0 0 -1
vn 0 0 -1
vn 0 0 -1
vn 0 0 -1
vn 1 0 0
vn 1 0 0
vn 1 0 0
vn 1 0 0
vn 0 1 0
vn 0 1 0
vn 0 1 0
vn 0 1 0
vn 0 -1 0
vn 0 -1 0
vn 0 -1 0
vn 0 -1 0
g pb_Mesh93684_0
f 3/3/3 2/2/2 1/1/1
f 3/3/3 4/4/4 2/2/2
f 7/7/7 6/6/6 5/5/5
f 7/7/7 8/8/8 6/6/6
f 11/11/11 10/10/10 9/9/9
f 11/11/11 12/12/12 10/10/10
f 15/15/15 14/14/14 13/13/13
f 15/15/15 16/16/16 14/14/14
f 19/19/19 18/18/18 17/17/17
f 19/19/19 20/20/20 18/18/18
f 23/23/23 22/22/22 21/21/21
f 23/23/23 24/24/24 22/22/22
