g pb_Mesh516838
v 0 0 0
v -66 0.09999847 8.106232E-06
v 0 13.7 0
v -66 13.7 8.106232E-06
v -66 0.09999847 8.106232E-06
v -66 0.09999847 -0.9999919
v -66 13.7 8.106232E-06
v -66 13.7 -0.9999919
v -66 0.09999847 -0.9999919
v 0 0 -1
v -66 13.7 -0.9999919
v 0 13.7 -1
v 0.9999995 -0.09999847 -0.9999986
v 10.4 -0.09999847 -5.036588E-07
v 0.9999995 13.7 -0.9999986
v 10.4 13.7 -5.036588E-07
v 0 13.7 0
v -66 13.7 8.106232E-06
v 0 13.7 -1
v -66 13.7 -0.9999919
v 0 0 -1
v -66 0.09999847 -0.9999919
v 0 0 0
v -66 0.09999847 8.106232E-06
v 0 0 -1
v 0 0 0
v 0.9999995 -0.09999847 -0.9999986
v 10.4 -0.09999847 -5.036588E-07
v 0.9999995 13.7 -0.9999986
v 0.9999995 -0.09999847 -0.9999986
v 1.707674E-06 0 9.800001
v 1.707674E-06 13.7 9.800001
v 10.4 -0.09999847 9.799998
v 10.4 13.7 9.799998
v 10.4 13.7 -5.036588E-07
v 0.9999995 13.7 -0.9999986
v 0 0 0
v 0 13.7 0
v 1.707674E-06 0 9.800001
v 1.707674E-06 13.7 9.800001
v 10.4 -0.09999847 -5.036588E-07
v 0 0 0
v 10.4 -0.09999847 9.799998
v 1.707674E-06 0 9.800001
v 1.707674E-06 13.7 9.800001
v 10.4 13.7 9.799998
v 10.4 13.7 -5.036588E-07
v 10.4 -0.09999847 -5.036588E-07
v 10.4 13.7 9.799998
v 10.4 -0.09999847 9.799998
vt 0 0
vt -66 0.09999847
vt 0 13.7
vt -66 13.7
vt 8.106232E-06 0.09999847
vt -0.9999919 0.09999847
vt 8.106232E-06 13.7
vt -0.9999919 13.7
vt 66 0.09999847
vt -1.228217E-07 0
vt 66 13.7
vt -1.228217E-07 13.7
vt -0.8886027 -0.09999847
vt -10.34165 -0.09999847
vt -0.8886027 13.7
vt -10.34165 13.7
vt -7.918387E-07 0
vt 66 8.106232E-06
vt -7.918387E-07 -1
vt 66 -0.9999919
vt 0 -1
vt -66.00008 -0.9999919
vt 0 0
vt -66.00008 8.106232E-06
vt 0 -1
vt 0 0
vt 1.004987 -0.9999986
vt 10.35834 -5.036588E-07
vt -0.999998 13.7
vt -0.999998 -0.09999847
vt -9.882904E-07 0
vt -9.882904E-07 13.7
vt 10.4 -0.09999847
vt 10.4 13.7
vt -10.4 -5.036588E-07
vt -0.9999995 -0.9999986
vt 0 0
vt 0 13.7
vt 9.800001 0
vt 9.800001 13.7
vt 10.40048 -5.036588E-07
vt 0 0
vt 10.40048 9.799998
vt 1.707595E-06 9.800001
vt -1.707674E-06 9.800001
vt -10.4 9.799998
vt -1.520467E-06 13.7
vt -1.520467E-06 -0.09999847
vt -9.8 13.7
vt -9.8 -0.09999847
vn 1.228217E-07 0 1
vn 1.228217E-07 0 1
vn 1.228217E-07 0 1
vn 1.228217E-07 0 1
vn -1 0 0
vn -1 0 0
vn -1 0 0
vn -1 0 0
vn -1.228217E-07 0 -1
vn -1.228217E-07 0 -1
vn -1.228217E-07 0 -1
vn -1.228217E-07 0 -1
vn 0.1057858 0 -0.9943889
vn 0.1057858 0 -0.9943889
vn 0.1057858 0 -0.9943889
vn 0.1057858 0 -0.9943889
vn -5.779845E-08 1 0
vn -5.779845E-08 1 0
vn -5.779845E-08 1 0
vn -5.779845E-08 1 0
vn -0.001515127 -0.9999989 0
vn -0.001515127 -0.9999989 0
vn -0.001515127 -0.9999989 0
vn -0.001515127 -0.9999989 0
vn -0.09950227 -0.9950373 0
vn -0.05453901 -0.995466 0.04500616
vn -0.05453901 -0.995466 0.04500616
vn -0.009575759 -0.9958947 0.09001232
vn 1.430512E-06 0 -1
vn 1.430512E-06 0 -1
vn 2.750984E-07 0 1
vn 2.750983E-07 0 1
vn 2.750983E-07 0 1
vn 2.750983E-07 0 1
vn 0 1 0
vn 0 1 0
vn -1 0 1.742524E-07
vn -1 0 1.742524E-07
vn -1 0 1.742524E-07
vn -1 0 1.742524E-07
vn -0.009614794 -0.9999538 1.871302E-09
vn -0.009614794 -0.9999538 1.773352E-09
vn -0.009614794 -0.9999538 1.773352E-09
vn -0.009614794 -0.9999538 1.675401E-09
vn 0 1 0
vn 0 1 0
vn 1 0 -1.946274E-07
vn 1 0 -1.946274E-07
vn 1 0 -1.946274E-07
vn 1 0 -1.946274E-07
g pb_Mesh516838_0
f 3/3/3 2/2/2 1/1/1
f 3/3/3 4/4/4 2/2/2
f 7/7/7 6/6/6 5/5/5
f 7/7/7 8/8/8 6/6/6
f 11/11/11 10/10/10 9/9/9
f 11/11/11 12/12/12 10/10/10
f 15/15/15 14/14/14 13/13/13
f 15/15/15 16/16/16 14/14/14
f 19/19/19 18/18/18 17/17/17
f 19/19/19 20/20/20 18/18/18
f 23/23/23 22/22/22 21/21/21
f 23/23/23 24/24/24 22/22/22
f 27/27/27 26/26/26 25/25/25
f 27/27/27 28/28/28 26/26/26
f 29/29/29 10/10/10 12/12/12
f 29/29/29 30/30/30 10/10/10
f 33/33/33 32/32/32 31/31/31
f 33/33/33 34/34/34 32/32/32
f 35/35/35 19/19/19 17/17/17
f 35/35/35 36/36/36 19/19/19
f 39/39/39 38/38/38 37/37/37
f 39/39/39 40/40/40 38/38/38
f 43/43/43 42/42/42 41/41/41
f 43/43/43 44/44/44 42/42/42
f 45/45/45 35/35/35 17/17/17
f 45/45/45 46/46/46 35/35/35
f 49/49/49 48/48/48 47/47/47
f 49/49/49 50/50/50 48/48/48
