g pb_Mesh179426
v 0.5096155 -0.5 0.5625
v -0.4903845 -0.5 0.5625
v 0.5096155 0.5 0.5625
v -0.4903845 0.5 0.5625
v -0.4903845 -0.5 0.5625
v -1.182692 -0.5 -1.375
v -0.4903845 0.5 0.5625
v -1.182692 0.5 -1.375
v -1.182692 -0.5 -1.375
v 1.182692 -0.5 -1.375
v -1.182692 0.5 -1.375
v 1.182692 0.5 -1.375
v 1.182692 -0.5 -1.375
v 0.5096155 -0.5 0.5625
v 1.182692 0.5 -1.375
v 0.5096155 0.5 0.5625
v 0.5096155 0.5 0.5625
v -0.4903845 0.5 0.5625
v 1.182692 0.5 -1.375
v -1.182692 0.5 -1.375
v 1.182692 -0.5 -1.375
v -1.182692 -0.5 -1.375
v 0.5096155 -0.5 0.5625
v -0.4903845 -0.5 0.5625
vt 0.5096155 -0.5
vt -0.4903845 -0.5
vt 0.5096155 0.5
vt -0.4903845 0.5
vt 0.3646934 -0.5
vt -1.69278 -0.5
vt 0.3646934 0.5
vt -1.69278 0.5
vt 1.182692 -0.5
vt -1.182692 -0.5
vt 1.182692 0.5
vt -1.182692 0.5
vt 1.686965 -0.5
vt -0.3641168 -0.5
vt 1.686965 0.5
vt -0.3641168 0.5
vt -0.5096155 0.5625
vt 0.4903845 0.5625
vt -1.182692 -1.375
vt 1.182692 -1.375
vt 1.182692 -1.375
vt -1.182692 -1.375
vt 0.5096155 0.5625
vt -0.4903845 0.5625
vn 0 0 1
vn 0 0 1
vn 0 0 1
vn 0 0 1
vn -0.9416891 0 0.3364843
vn -0.9416891 0 0.3364843
vn -0.9416891 0 0.3364843
vn -0.9416891 0 0.3364843
vn 0 0 -1
vn 0 0 -1
vn 0 0 -1
vn 0 0 -1
vn 0.9446232 0 0.3281568
vn 0.9446232 0 0.3281568
vn 0.9446232 0 0.3281568
vn 0.9446232 0 0.3281568
vn 0 1 0
vn 0 1 0
vn 0 1 0
vn 0 1 0
vn 0 -1 0
vn 0 -1 0
vn 0 -1 0
vn 0 -1 0
g pb_Mesh179426_0
f 3/3/3 2/2/2 1/1/1
f 3/3/3 4/4/4 2/2/2
f 7/7/7 6/6/6 5/5/5
f 7/7/7 8/8/8 6/6/6
f 11/11/11 10/10/10 9/9/9
f 11/11/11 12/12/12 10/10/10
f 15/15/15 14/14/14 13/13/13
f 15/15/15 16/16/16 14/14/14
f 19/19/19 18/18/18 17/17/17
f 19/19/19 20/20/20 18/18/18
f 23/23/23 22/22/22 21/21/21
f 23/23/23 24/24/24 22/22/22
