g pb_Mesh515998
v -60.1 0 7.760525E-05
v -76.2 0.1000023 9.82374E-05
v -60.1 13.7 7.760525E-05
v -76.2 13.7 9.82374E-05
v -76.2 0.1000023 9.82374E-05
v -76.2 0.1000023 -0.9999018
v -76.2 13.7 9.82374E-05
v -76.2 13.7 -0.9999018
v -76.2 0.1000023 -0.9999018
v -60.1 0 -0.9999224
v -76.2 13.7 -0.9999018
v -60.1 13.7 -0.9999224
v -60.1 0 -0.9999224
v -60.1 0 7.760525E-05
v -60.1 13.7 -0.9999224
v -60.1 13.7 7.760525E-05
v -60.1 13.7 7.760525E-05
v -76.2 13.7 9.82374E-05
v -60.1 13.7 -0.9999224
v -76.2 13.7 -0.9999018
v -60.1 0 -0.9999224
v -76.2 0.1000023 -0.9999018
v -60.1 0 7.760525E-05
v -76.2 0.1000023 9.82374E-05
vt -60.1 0
vt -76.2 0.1000023
vt -60.1 13.7
vt -76.2 13.7
vt 9.82374E-05 0.1000023
vt -0.9999018 0.1000023
vt 9.82374E-05 13.7
vt -0.9999018 13.7
vt 76.2 0.1000023
vt 60.1 0
vt 76.2 13.7
vt 60.1 13.7
vt 0.9999224 0
vt -7.760525E-05 0
vt 0.9999224 13.7
vt -7.760525E-05 13.7
vt 60.1 7.760525E-05
vt 76.2 9.82374E-05
vt 60.1 -0.9999224
vt 76.2 -0.9999018
vt -60.09884 -0.9999224
vt -76.19916 -0.9999018
vt -60.09884 7.760525E-05
vt -76.19916 9.82374E-05
vn 1.2815E-06 0 1
vn 1.2815E-06 0 1
vn 1.2815E-06 0 1
vn 1.2815E-06 0 1
vn -1 0 0
vn -1 0 0
vn -1 0 0
vn -1 0 0
vn -1.280944E-06 0 -1
vn -1.280944E-06 0 -1
vn -1.280944E-06 0 -1
vn -1.280944E-06 0 -1
vn 1 0 0
vn 1 0 0
vn 1 0 0
vn 1 0 0
vn 0 1 0
vn 0 1 0
vn 0 1 0
vn 0 1 0
vn -0.006211202 -0.9999807 0
vn -0.006211202 -0.9999807 0
vn -0.006211202 -0.9999807 0
vn -0.006211202 -0.9999807 0
g pb_Mesh515998_0
f 3/3/3 2/2/2 1/1/1
f 3/3/3 4/4/4 2/2/2
f 7/7/7 6/6/6 5/5/5
f 7/7/7 8/8/8 6/6/6
f 11/11/11 10/10/10 9/9/9
f 11/11/11 12/12/12 10/10/10
f 15/15/15 14/14/14 13/13/13
f 15/15/15 16/16/16 14/14/14
f 19/19/19 18/18/18 17/17/17
f 19/19/19 20/20/20 18/18/18
f 23/23/23 22/22/22 21/21/21
f 23/23/23 24/24/24 22/22/22
