g pb_Mesh516946
v -50 0 0.0004589558
v -65.04005 0 -4.291079E-06
v -50 3.299999 0.0004589558
v -65.04 4.000008 0.000597477
v -65.04005 0 -4.291079E-06
v -65.04006 0 -10.00004
v -65.04 4.000008 0.000597477
v -65.04009 4.000008 -9.999403
v -65.04006 0 -10.00004
v -50.00009 0 -9.999541
v -65.04009 4.000008 -9.999403
v -50.00009 3.299999 -9.999541
v -50.00009 0 -9.999541
v -50 0 0.0004589558
v -50.00009 3.299999 -9.999541
v -50 3.299999 0.0004589558
v -50 3.299999 0.0004589558
v -65.04 4.000008 0.000597477
v -50.00009 3.299999 -9.999541
v -65.04009 4.000008 -9.999403
v -50.00009 0 -9.999541
v -65.04006 0 -10.00004
v -50 0 0.0004589558
v -65.04005 0 -4.291079E-06
vt -50 0
vt -65.04005 0
vt -50 3.299999
vt -65.04 4.000008
vt -0.000103534 -0.0007443079
vt -10.00014 -0.0007443079
vt 0.0004982341 3.999263
vt -9.999502 3.999263
vt 65.04039 -0.001585149
vt 50.00042 -0.001585149
vt 65.04042 3.998423
vt 50.00042 3.298414
vt 9.999999 0
vt -1.192075E-06 0
vt 9.999999 3.299999
vt -1.192075E-06 3.299999
vt 50.09936 0.0004593694
vt 65.15564 0.0005978906
vt 50.09945 -9.999541
vt 65.15573 -9.999403
vt -50.00009 -9.999541
vt -65.04006 -10.00004
vt -50 0.0004589558
vt -65.04005 -4.291079E-06
vn -3.080089E-05 0 1
vn -1.429637E-05 -7.522088E-05 1
vn -1.429637E-05 -7.522088E-05 1
vn 2.208159E-06 -0.0001504418 1
vn -1 1.144384E-05 1.525874E-06
vn -1 1.906505E-06 5.340573E-06
vn -1 1.906505E-06 5.340573E-06
vn -1 -7.630832E-06 9.155273E-06
vn 3.297285E-05 0.0001585483 -1
vn 1.188926E-05 7.927415E-05 -1
vn 1.188926E-05 7.927415E-05 -1
vn -9.194333E-06 0 -1
vn 1 0 -9.155274E-06
vn 1 0 -9.155274E-06
vn 1 0 -9.155274E-06
vn 1 0 -9.155274E-06
vn 0.04649278 0.9989187 -4.256541E-07
vn 0.04649278 0.9989187 -4.256541E-07
vn 0.04649278 0.9989187 -4.256541E-07
vn 0.04649278 0.9989187 -4.256541E-07
vn 0 -1 0
vn 0 -1 0
vn 0 -1 0
vn 0 -1 0
g pb_Mesh516946_0
f 3/3/3 2/2/2 1/1/1
f 3/3/3 4/4/4 2/2/2
f 7/7/7 6/6/6 5/5/5
f 7/7/7 8/8/8 6/6/6
f 11/11/11 10/10/10 9/9/9
f 11/11/11 12/12/12 10/10/10
f 15/15/15 14/14/14 13/13/13
f 15/15/15 16/16/16 14/14/14
f 19/19/19 18/18/18 17/17/17
f 19/19/19 20/20/20 18/18/18
f 23/23/23 22/22/22 21/21/21
f 23/23/23 24/24/24 22/22/22
