g PRP_G1_Conveyor_MO
v 6.627727 -1.082145 25.57323
v 6.627729 -1.082148 -12.97711
v -7.602654 -1.082148 -12.97703
v -7.602656 -1.082145 25.57332
v -7.602656 -1.055666 25.7405
v 6.627727 -1.055666 25.74041
v -7.602654 -0.9788201 25.89132
v 6.627728 -0.9788196 25.89123
v -7.602654 -0.8591297 26.01101
v 6.627728 -0.8591292 26.01092
v -7.602656 -0.7083109 26.08785
v 6.627727 -0.7083104 26.08777
v -7.602654 -0.541127 26.11433
v 6.627728 -0.5411265 26.11425
v 6.627728 -0.5410183 26.11425
v -7.602654 -0.5410188 26.11433
v -7.602656 -0.3738349 26.08785
v 6.627727 -0.3738345 26.08777
v -7.602654 -0.2230162 26.01101
v 6.627728 -0.2230157 26.01092
v -7.602654 -0.1033258 25.89132
v 6.627728 -0.1033253 25.89123
v -7.602656 -0.02647978 25.7405
v 6.627727 -0.0264793 25.74041
v -7.602656 -4.768372E-07 25.57332
v 6.627727 0 25.57323
v 6.627729 -2.563E-06 -12.97711
v -7.602654 -2.622604E-06 -12.97703
v -7.602654 -0.02648199 -13.14421
v 6.62773 -0.02648193 -13.1443
v -7.602654 -0.103328 -13.29503
v 6.627729 -0.1033279 -13.29512
v -7.602654 -0.2230184 -13.41472
v 6.627728 -0.2230183 -13.41481
v -7.602654 -0.3738372 -13.49156
v 6.62773 -0.3738371 -13.49165
v -7.602654 -0.541021 -13.51804
v 6.627728 -0.541021 -13.51813
v 6.627728 -0.5411292 -13.51813
v -7.602654 -0.5411293 -13.51804
v -7.602654 -0.7083132 -13.49156
v 6.62773 -0.7083131 -13.49165
v -7.602654 -0.8591319 -13.41472
v 6.627728 -0.8591318 -13.41481
v -7.602654 -0.9788224 -13.29503
v 6.627729 -0.9788222 -13.29512
v -7.602654 -1.055668 -13.14421
v 6.62773 -1.055668 -13.1443
v -7.602654 -1.082148 -12.97703
v 6.627729 -1.082148 -12.97711
v -7.602654 -0.541127 26.11433
v -7.602656 -0.5332807 26.01464
v -7.602656 -0.5488651 26.01464
v -7.602654 -0.5410188 26.11433
v 6.627728 -0.5410183 26.11425
v 6.627727 -0.5488646 26.01455
v 6.627727 -0.5332803 26.01455
v 6.627728 -0.5411265 26.11425
v -7.602654 -0.541021 -13.51804
v -7.602654 -0.5488678 -13.41835
v -7.602654 -0.5332825 -13.41835
v -7.602654 -0.5411293 -13.51804
v 6.627728 -0.5411292 -13.51813
v 6.62773 -0.5332824 -13.41844
v 6.62773 -0.5488678 -13.41844
v 6.627728 -0.541021 -13.51813
v -7.602654 -0.5410188 26.11433
v -7.602656 -0.5488651 26.01464
v -7.602654 -0.4047366 25.99275
v -7.602656 -0.3738349 26.08785
v -7.602654 -0.2817943 25.93011
v -7.602654 -0.2230162 26.01101
v -7.602656 -0.1842275 25.83254
v -7.602654 -0.1033258 25.89132
v -7.602654 -0.1215855 25.70959
v -7.602656 -0.02647978 25.7405
v -7.602656 -0.09969223 25.56547
v -7.602656 -4.768372E-07 25.57332
v -7.602654 -0.09969437 -12.96918
v -7.602654 -2.622604E-06 -12.97703
v -7.602654 -0.1215876 -13.11331
v -7.602654 -0.02648199 -13.14421
v -7.602654 -0.1842298 -13.23625
v -7.602654 -0.103328 -13.29503
v -7.602654 -0.2817964 -13.33382
v -7.602654 -0.2230184 -13.41472
v -7.602654 -0.4047389 -13.39646
v -7.602654 -0.3738372 -13.49156
v -7.602654 -0.5488678 -13.41835
v -7.602654 -0.541021 -13.51804
v 6.627727 -0.3738345 26.08777
v 6.627727 -0.5488646 26.01455
v 6.627728 -0.5410183 26.11425
v 6.627728 -0.4047362 25.99266
v 6.627728 -0.2230157 26.01092
v 6.627728 -0.2817938 25.93002
v 6.627728 -0.1033253 25.89123
v 6.627727 -0.184227 25.83245
v 6.627727 -0.0264793 25.74041
v 6.627728 -0.121585 25.70951
v 6.627727 0 25.57323
v 6.627727 -0.09969175 25.56538
v 6.627729 -2.563E-06 -12.97711
v 6.62773 -0.09969431 -12.96927
v 6.62773 -0.02648193 -13.1443
v 6.627729 -0.1215876 -13.11339
v 6.627729 -0.1033279 -13.29512
v 6.627729 -0.1842297 -13.23634
v 6.627728 -0.2230183 -13.41481
v 6.627728 -0.2817963 -13.3339
v 6.62773 -0.3738371 -13.49165
v 6.627728 -0.4047389 -13.39654
v 6.627728 -0.541021 -13.51813
v 6.62773 -0.5488678 -13.41844
v -7.602656 -0.7083109 26.08785
v -7.602656 -0.5332807 26.01464
v -7.602654 -0.541127 26.11433
v -7.602654 -0.6774092 25.99275
v -7.602654 -0.8591297 26.01101
v -7.602654 -0.8003516 25.93011
v -7.602654 -0.9788201 25.89132
v -7.602656 -0.8979183 25.83254
v -7.602656 -1.055666 25.7405
v -7.602654 -0.9605604 25.7096
v -7.602656 -1.082145 25.57332
v -7.602656 -0.9824537 25.56547
v -7.602654 -1.082148 -12.97703
v -7.602654 -0.9824558 -12.96918
v -7.602654 -1.055668 -13.14421
v -7.602654 -0.9605626 -13.11331
v -7.602654 -0.9788224 -13.29503
v -7.602654 -0.8979206 -13.23625
v -7.602654 -0.8591319 -13.41472
v -7.602654 -0.8003539 -13.33382
v -7.602654 -0.7083132 -13.49156
v -7.602654 -0.6774113 -13.39646
v -7.602654 -0.5411293 -13.51804
v -7.602654 -0.5332825 -13.41835
v 6.627728 -0.5411265 26.11425
v 6.627727 -0.5332803 26.01455
v 6.627728 -0.6774087 25.99266
v 6.627727 -0.7083104 26.08777
v 6.627728 -0.8003511 25.93002
v 6.627728 -0.8591292 26.01092
v 6.627727 -0.8979179 25.83245
v 6.627728 -0.9788196 25.89123
v 6.627728 -0.96056 25.70951
v 6.627727 -1.055666 25.74041
v 6.627727 -0.9824533 25.56538
v 6.627727 -1.082145 25.57323
v 6.62773 -0.9824557 -12.96927
v 6.627729 -1.082148 -12.97711
v 6.627729 -0.9605626 -13.11339
v 6.62773 -1.055668 -13.1443
v 6.627729 -0.8979205 -13.23634
v 6.627729 -0.9788222 -13.29512
v 6.627728 -0.8003539 -13.3339
v 6.627728 -0.8591318 -13.41481
v 6.627728 -0.6774113 -13.39654
v 6.62773 -0.7083131 -13.49165
v 6.62773 -0.5332824 -13.41844
v 6.627728 -0.5411292 -13.51813
vt 0.9952327 3.350055
vt 0.9948225 0
vt 0.003762007 0.0001962185
vt 0.004172027 3.350251
vt 0.004173875 3.364961
vt 0.9952344 3.364765
vt 0.004175812 3.379672
vt 0.9952364 3.379475
vt 0.00417763 3.394382
vt 0.9952382 3.394187
vt 0.004179299 3.409095
vt 0.99524 3.408899
vt 0.004173934 3.423806
vt 0.9952372 3.423593
vt 0.995249 3.423621
vt 0.004176527 3.423825
vt 0.004183322 3.438553
vt 0.9952439 3.438332
vt 0.004185587 3.453267
vt 0.9952462 3.453046
vt 0.004187763 3.467982
vt 0.9952483 3.467761
vt 0.004189819 3.482697
vt 0.9952503 3.482476
vt 0.004191995 3.497413
vt 0.9952525 3.497192
vt 0.9957497 6.852988
vt 0.004689038 6.853209
vt 0.004691213 6.8679
vt 0.9957519 6.86768
vt 0.004693359 6.882591
vt 0.995754 6.88237
vt 0.004695594 6.897281
vt 0.995756 6.897059
vt 0.00469771 6.91197
vt 0.9957584 6.91175
vt 0.004693955 6.926667
vt 0.9957507 6.926431
vt 0.9957654 6.926443
vt 0.00469026 6.926686
vt 0.004702091 6.941375
vt 0.9957626 6.941139
vt 0.004704297 6.956063
vt 0.9957648 6.955827
vt 0.004706502 6.970747
vt 0.995767 6.970512
vt 0.004708678 6.985433
vt 0.9957693 6.985197
vt 0.004710823 7.000117
vt 0.9957715 6.999883
vt 0.7359927 0.5067373
vt 0.7320768 0.5086489
vt 0.7322913 0.5085534
vt 0.7359776 0.5068041
vt 0.2663378 0.4433566
vt 0.2695747 0.4409309
vt 0.2693695 0.4410207
vt 0.2663508 0.4433339
vt 0.2647132 0.4937953
vt 0.2678632 0.4912907
vt 0.2676633 0.4913835
vt 0.2647402 0.4937322
vt 0.741814 0.4616275
vt 0.7386015 0.4640651
vt 0.7388045 0.4639747
vt 0.7418014 0.4616502
vt 0.7359776 0.5068041
vt 0.7322913 0.5085534
vt 0.731265 0.5140364
vt 0.7359765 0.5145404
vt 0.7283299 0.5199662
vt 0.7324837 0.5224468
vt 0.72358 0.5247926
vt 0.7266018 0.5285008
vt 0.7175706 0.5278444
vt 0.7191642 0.5323367
vt 0.7105737 0.5288227
vt 0.7108351 0.5335721
vt 0.2878863 0.512963
vt 0.2872522 0.5176678
vt 0.2813134 0.5115213
vt 0.279362 0.5158315
vt 0.2758329 0.5082244
vt 0.2726457 0.5116912
vt 0.2715963 0.5035592
vt 0.2676223 0.5059182
vt 0.2689349 0.4981883
vt 0.2647683 0.4994969
vt 0.2678632 0.4912907
vt 0.2647132 0.4937953
vt 0.2661949 0.4493409
vt 0.2695747 0.4409309
vt 0.2663378 0.4433566
vt 0.2705843 0.447984
vt 0.2691895 0.4560303
vt 0.2732795 0.4535856
vt 0.2743349 0.4619233
vt 0.277576 0.458386
vt 0.2811458 0.4661227
vt 0.2831253 0.4617568
vt 0.2891057 0.4680005
vt 0.2897805 0.4632478
vt 0.7166758 0.4888479
vt 0.7164736 0.484051
vt 0.7251133 0.4877239
vt 0.7235575 0.4831803
vt 0.732679 0.4839686
vt 0.7296755 0.4802066
vt 0.7387051 0.4779539
vt 0.7345548 0.4754267
vt 0.7422906 0.469989
vt 0.7376305 0.469485
vt 0.7418014 0.4616502
vt 0.7388045 0.4639747
vt 0.7353016 0.5004797
vt 0.7320768 0.5086489
vt 0.7359927 0.5067373
vt 0.7310603 0.50176
vt 0.7323563 0.4939799
vt 0.7283889 0.4963675
vt 0.7273007 0.4881968
vt 0.724135 0.4916897
vt 0.720563 0.4840614
vt 0.7186345 0.488388
vt 0.7126698 0.4822358
vt 0.7120403 0.4869437
vt 0.2890135 0.4663389
vt 0.2893132 0.4710879
vt 0.2806727 0.4676333
vt 0.2823161 0.4721022
vt 0.2732571 0.4715129
vt 0.2763191 0.4751818
vt 0.2674167 0.4776073
vt 0.2715915 0.4800255
vt 0.2640508 0.4855852
vt 0.268685 0.4859536
vt 0.2647402 0.4937322
vt 0.2676633 0.4913835
vt 0.2663508 0.4433339
vt 0.2693695 0.4410207
vt 0.2705517 0.4355061
vt 0.265892 0.4349795
vt 0.2736332 0.4295661
vt 0.2694928 0.427022
vt 0.2785157 0.4247873
vt 0.2755236 0.4210154
vt 0.2846351 0.4218122
vt 0.2830897 0.4172651
vt 0.2917216 0.4209399
vt 0.2915214 0.4161429
vt 0.7184234 0.4417415
vt 0.7191026 0.4369887
vt 0.7250764 0.4432402
vt 0.7270781 0.4388841
vt 0.7306198 0.4466229
vt 0.7338911 0.4431116
vt 0.7348993 0.4514345
vt 0.7390137 0.4490314
vt 0.7375836 0.4570304
vt 0.7419595 0.4556848
vt 0.7386015 0.4640651
vt 0.741814 0.4616275
vn 0 -0.9999998 0.0006613646
vn 0 -0.9999998 -0.0006612597
vn 0 -0.9999998 -0.0006612432
vn 0 -0.9999998 0.0006613815
vn 0 -0.9510565 0.309017
vn 0 -0.9510571 0.3090151
vn 0 -0.8090174 0.5877846
vn 0 -0.8090183 0.5877834
vn 0 -0.58778 0.8090209
vn 0 -0.587781 0.8090202
vn 0 -0.3090165 0.9510567
vn 0 -0.3090171 0.9510565
vn 1.000945E-05 -0.1563433 0.9877028
vn 1.000946E-05 -0.1563434 0.9877028
vn 0 0.1563434 0.9877028
vn 0 0.1563433 0.9877028
vn 0 0.3090165 0.9510567
vn 0 0.3090171 0.9510565
vn 0 0.58778 0.8090208
vn 0 0.587781 0.8090201
vn 0 0.8090174 0.5877845
vn 0 0.8090184 0.5877833
vn 0 0.9510565 0.3090169
vn 0 0.9510571 0.3090151
vn 0 0.9999998 0.0006612616
vn 0 0.9999998 0.0006612447
vn 0 0.9999998 -0.0006613803
vn 0 0.9999998 -0.0006613638
vn 0 0.9510571 -0.3090153
vn 0 0.9510565 -0.3090171
vn 0 0.8090183 -0.5877834
vn 0 0.8090174 -0.5877846
vn 0 0.587781 -0.8090201
vn 0 0.5877801 -0.8090208
vn 0 0.309017 -0.9510565
vn 0 0.3090164 -0.9510567
vn 0 0.1563535 -0.9877011
vn 0 0.1563535 -0.9877011
vn 0 -0.1563534 -0.9877011
vn 0 -0.1563534 -0.9877011
vn 0 -0.309017 -0.9510565
vn 0 -0.3090164 -0.9510567
vn 0 -0.5877809 -0.8090202
vn 0 -0.58778 -0.8090209
vn 0 -0.8090183 -0.5877834
vn 0 -0.8090174 -0.5877847
vn 0 -0.9510571 -0.3090151
vn 0 -0.9510565 -0.3090169
vn 0 -0.9999998 -0.0006612432
vn 0 -0.9999998 -0.0006612597
vn 1 0 -3.863316E-05
vn 1 0 -3.863316E-05
vn 1 0 -3.863316E-05
vn 1 0 -3.863316E-05
vn -1 0 3.863326E-05
vn -1 0 3.863326E-05
vn -1 0 3.863326E-05
vn -1 0 3.863326E-05
vn 1 0 -3.863065E-05
vn 1 0 -3.863065E-05
vn 1 0 -3.863065E-05
vn 1 0 -3.863065E-05
vn -1 0 0
vn -1 0 0
vn -1 0 0
vn -1 0 0
vn -1 0 1.525458E-05
vn -1 0 1.525457E-05
vn -1 0 0
vn -1 0 0
vn -1 0 0
vn -1 0 0
vn -1 0 0
vn -1 0 0
vn -1 0 0
vn -1 0 0
vn -1 0 0
vn -1 0 0
vn -1 0 0
vn -1 0 0
vn -1 0 0
vn -1 0 0
vn -1 0 0
vn -1 0 0
vn -1 0 0
vn -1 0 0
vn -1 0 1.066907E-05
vn -1 0 1.064277E-05
vn -1 0 2.478877E-05
vn -1 0 2.478877E-05
vn 1 0 0
vn 1 0 -1.525458E-05
vn 1 0 -1.525458E-05
vn 1 0 0
vn 1 0 0
vn 1 0 0
vn 1 0 0
vn 1 0 0
vn 1 0 0
vn 1 0 0
vn 1 0 0
vn 1 0 0
vn 1 0 0
vn 1 0 0
vn 1 0 0
vn 1 0 0
vn 1 0 0
vn 1 0 0
vn 1 0 0
vn 1 0 0
vn 1 0 0
vn 1 0 0
vn 1 0 -1.144091E-05
vn 1 0 -1.144091E-05
vn -1 0 1.644792E-05
vn -1 0 3.622961E-05
vn -1 0 3.622961E-05
vn -1 0 1.648461E-05
vn -1 0 0
vn -1 0 0
vn -1 0 0
vn -1 0 0
vn -1 0 0
vn -1 0 0
vn -1 0 0
vn -1 0 0
vn -1 0 0
vn -1 0 0
vn -1 0 0
vn -1 0 0
vn -1 0 0
vn -1 0 0
vn -1 0 0
vn -1 0 0
vn -1 0 1.257782E-05
vn -1 0 1.260408E-05
vn -1 0 2.66956E-05
vn -1 0 2.66956E-05
vn 1 0 0
vn 1 0 0
vn 1 0 0
vn 1 0 0
vn 1 0 0
vn 1 0 0
vn 1 0 0
vn 1 0 0
vn 1 0 0
vn 1 0 0
vn 1 0 0
vn 1 0 0
vn 1 0 0
vn 1 0 0
vn 1 0 0
vn 1 0 0
vn 1 0 0
vn 1 0 0
vn 1 0 0
vn 1 0 0
vn 1 0 0
vn 1 0 0
vn 1 0 -2.669545E-05
vn 1 0 -2.669545E-05
g PRP_G1_Conveyor_MO_0
f 3/3/3 2/2/2 1/1/1
f 4/4/4 3/3/3 1/1/1
f 4/4/4 1/1/1 5/5/5
f 1/1/1 6/6/6 5/5/5
f 5/5/5 6/6/6 7/7/7
f 6/6/6 8/8/8 7/7/7
f 7/7/7 8/8/8 9/9/9
f 8/8/8 10/10/10 9/9/9
f 9/9/9 10/10/10 11/11/11
f 10/10/10 12/12/12 11/11/11
f 11/11/11 12/12/12 13/13/13
f 12/12/12 14/14/14 13/13/13
f 13/13/13 14/14/14 15/15/15
f 16/16/16 13/13/13 15/15/15
f 16/16/16 15/15/15 17/17/17
f 15/15/15 18/18/18 17/17/17
f 17/17/17 18/18/18 19/19/19
f 18/18/18 20/20/20 19/19/19
f 19/19/19 20/20/20 21/21/21
f 20/20/20 22/22/22 21/21/21
f 21/21/21 22/22/22 23/23/23
f 22/22/22 24/24/24 23/23/23
f 23/23/23 24/24/24 25/25/25
f 24/24/24 26/26/26 25/25/25
f 26/26/26 27/27/27 25/25/25
f 27/27/27 28/28/28 25/25/25
f 28/28/28 27/27/27 29/29/29
f 27/27/27 30/30/30 29/29/29
f 29/29/29 30/30/30 31/31/31
f 30/30/30 32/32/32 31/31/31
f 31/31/31 32/32/32 33/33/33
f 32/32/32 34/34/34 33/33/33
f 33/33/33 34/34/34 35/35/35
f 34/34/34 36/36/36 35/35/35
f 35/35/35 36/36/36 37/37/37
f 36/36/36 38/38/38 37/37/37
f 38/38/38 39/39/39 37/37/37
f 39/39/39 40/40/40 37/37/37
f 41/41/41 40/40/40 39/39/39
f 42/42/42 41/41/41 39/39/39
f 43/43/43 41/41/41 42/42/42
f 44/44/44 43/43/43 42/42/42
f 45/45/45 43/43/43 44/44/44
f 46/46/46 45/45/45 44/44/44
f 47/47/47 45/45/45 46/46/46
f 48/48/48 47/47/47 46/46/46
f 49/49/49 47/47/47 48/48/48
f 50/50/50 49/49/49 48/48/48
f 53/53/53 52/52/52 51/51/51
f 54/54/54 53/53/53 51/51/51
f 57/57/57 56/56/56 55/55/55
f 58/58/58 57/57/57 55/55/55
f 61/61/61 60/60/60 59/59/59
f 62/62/62 61/61/61 59/59/59
f 65/65/65 64/64/64 63/63/63
f 66/66/66 65/65/65 63/63/63
f 69/69/69 68/68/68 67/67/67
f 70/70/70 69/69/69 67/67/67
f 71/71/71 69/69/69 70/70/70
f 72/72/72 71/71/71 70/70/70
f 73/73/73 71/71/71 72/72/72
f 74/74/74 73/73/73 72/72/72
f 75/75/75 73/73/73 74/74/74
f 76/76/76 75/75/75 74/74/74
f 77/77/77 75/75/75 76/76/76
f 78/78/78 77/77/77 76/76/76
f 79/79/79 77/77/77 78/78/78
f 80/80/80 79/79/79 78/78/78
f 81/81/81 79/79/79 80/80/80
f 82/82/82 81/81/81 80/80/80
f 83/83/83 81/81/81 82/82/82
f 84/84/84 83/83/83 82/82/82
f 85/85/85 83/83/83 84/84/84
f 86/86/86 85/85/85 84/84/84
f 87/87/87 85/85/85 86/86/86
f 88/88/88 87/87/87 86/86/86
f 89/89/89 87/87/87 88/88/88
f 90/90/90 89/89/89 88/88/88
f 93/93/93 92/92/92 91/91/91
f 92/92/92 94/94/94 91/91/91
f 91/91/91 94/94/94 95/95/95
f 94/94/94 96/96/96 95/95/95
f 95/95/95 96/96/96 97/97/97
f 96/96/96 98/98/98 97/97/97
f 97/97/97 98/98/98 99/99/99
f 98/98/98 100/100/100 99/99/99
f 99/99/99 100/100/100 101/101/101
f 100/100/100 102/102/102 101/101/101
f 101/101/101 102/102/102 103/103/103
f 102/102/102 104/104/104 103/103/103
f 103/103/103 104/104/104 105/105/105
f 104/104/104 106/106/106 105/105/105
f 105/105/105 106/106/106 107/107/107
f 106/106/106 108/108/108 107/107/107
f 107/107/107 108/108/108 109/109/109
f 108/108/108 110/110/110 109/109/109
f 109/109/109 110/110/110 111/111/111
f 110/110/110 112/112/112 111/111/111
f 111/111/111 112/112/112 113/113/113
f 112/112/112 114/114/114 113/113/113
f 117/117/117 116/116/116 115/115/115
f 116/116/116 118/118/118 115/115/115
f 115/115/115 118/118/118 119/119/119
f 118/118/118 120/120/120 119/119/119
f 119/119/119 120/120/120 121/121/121
f 120/120/120 122/122/122 121/121/121
f 121/121/121 122/122/122 123/123/123
f 122/122/122 124/124/124 123/123/123
f 123/123/123 124/124/124 125/125/125
f 124/124/124 126/126/126 125/125/125
f 125/125/125 126/126/126 127/127/127
f 126/126/126 128/128/128 127/127/127
f 127/127/127 128/128/128 129/129/129
f 128/128/128 130/130/130 129/129/129
f 129/129/129 130/130/130 131/131/131
f 130/130/130 132/132/132 131/131/131
f 131/131/131 132/132/132 133/133/133
f 132/132/132 134/134/134 133/133/133
f 133/133/133 134/134/134 135/135/135
f 134/134/134 136/136/136 135/135/135
f 135/135/135 136/136/136 137/137/137
f 136/136/136 138/138/138 137/137/137
f 141/141/141 140/140/140 139/139/139
f 142/142/142 141/141/141 139/139/139
f 143/143/143 141/141/141 142/142/142
f 144/144/144 143/143/143 142/142/142
f 145/145/145 143/143/143 144/144/144
f 146/146/146 145/145/145 144/144/144
f 147/147/147 145/145/145 146/146/146
f 148/148/148 147/147/147 146/146/146
f 149/149/149 147/147/147 148/148/148
f 150/150/150 149/149/149 148/148/148
f 151/151/151 149/149/149 150/150/150
f 152/152/152 151/151/151 150/150/150
f 153/153/153 151/151/151 152/152/152
f 154/154/154 153/153/153 152/152/152
f 155/155/155 153/153/153 154/154/154
f 156/156/156 155/155/155 154/154/154
f 157/157/157 155/155/155 156/156/156
f 158/158/158 157/157/157 156/156/156
f 159/159/159 157/157/157 158/158/158
f 160/160/160 159/159/159 158/158/158
f 161/161/161 159/159/159 160/160/160
f 162/162/162 161/161/161 160/160/160
