g PRP_RoyalFumble_Conveyor
v 6.501503 1.214425 5.174504
v -6.501502 -2.226799 -4.820669
v -6.501504 1.214425 5.174506
v 6.501505 -2.226798 -4.820671
v 6.501507 -2.266949 -4.973059
v -6.501501 -2.266994 -4.97315
v 6.501507 -2.281929 -5.055645
v -6.501501 -2.281934 -5.055655
v 6.501505 -2.259307 -5.222106
v -6.501502 -2.259311 -5.222114
v 6.501505 -2.186324 -5.373368
v -6.501502 -2.186329 -5.373366
v 6.501505 -2.070223 -5.494817
v -6.501502 -2.070221 -5.49482
v 6.501505 -1.922215 -5.574393
v -6.501502 -1.922209 -5.574395
v 6.501505 -1.75687 -5.604375
v -6.501502 -1.756861 -5.604377
v 6.501505 -1.590356 -5.58167
v -6.501502 -1.590352 -5.581672
v 6.501505 -1.439032 -5.508738
v -6.501502 -1.438996 -5.508665
v 6.501505 -1.317672 -5.392635
v -6.501502 -1.31763 -5.392554
v 6.501505 -1.240513 -5.249129
v -6.501502 -1.240473 -5.249046
v -6.501504 2.25292 4.895396
v 6.501503 2.252882 4.895317
v 6.501503 2.281931 5.055658
v -6.501504 2.281928 5.055658
v 6.501503 2.259303 5.222118
v -6.501504 2.259309 5.222115
v 6.501503 2.186369 5.373461
v -6.501504 2.186368 5.373461
v 6.501502 2.070221 5.494824
v -6.501507 2.070207 5.494832
v 6.501503 1.9222 5.574399
v -6.501504 1.922184 5.574401
v 6.501507 1.756875 5.604366
v -6.501501 1.756851 5.604358
v 6.501505 1.590398 5.58177
v -6.501502 1.590397 5.581768
v 6.501503 1.43908 5.508827
v -6.501504 1.439083 5.508827
v 6.501503 1.317684 5.392644
v -6.501504 1.317682 5.392642
v 6.501504 1.277937 5.318785
v -6.501503 1.277935 5.318785
v 6.501503 1.214425 5.174504
v -6.501504 1.214425 5.174506
v 6.501503 1.270284 5.152489
v -6.501504 1.270283 5.152489
v -6.501502 -2.169386 -4.838241
v 6.501505 -2.169381 -4.838231
v 6.501505 -2.208336 -4.986081
v -6.501502 -2.208381 -4.986172
v 6.501505 -2.221201 -5.056993
v -6.501502 -2.221202 -5.056991
v 6.501505 -2.201138 -5.204595
v -6.501502 -2.201145 -5.204602
v 6.501505 -2.136406 -5.338768
v -6.501502 -2.136412 -5.338755
v 6.501505 -2.033427 -5.446469
v -6.501502 -2.033425 -5.44647
v 6.501505 -1.902163 -5.517056
v -6.501502 -1.90216 -5.517056
v 6.501505 -1.755538 -5.543641
v -6.501502 -1.755532 -5.543643
v 6.501505 -1.607864 -5.523499
v -6.501502 -1.607856 -5.523501
v 6.501505 -1.473643 -5.458826
v -6.501502 -1.47361 -5.458749
v 6.501507 -1.366015 -5.355859
v -6.501501 -1.365969 -5.355768
v 6.501505 -1.295589 -5.224871
v -6.501502 -1.295552 -5.224797
v -6.501504 2.194726 4.910731
v 6.501503 2.194687 4.910655
v 6.501503 2.221201 5.056996
v -6.501504 2.221199 5.056999
v 6.501503 2.201135 5.204623
v -6.501504 2.20114 5.204621
v 6.501503 2.136452 5.338848
v -6.501504 2.136452 5.338848
v 6.501502 2.033439 5.446483
v -6.501507 2.033425 5.44649
v 6.501503 1.902153 5.517059
v -6.501504 1.902145 5.517058
v 6.501505 1.755523 5.543636
v -6.501502 1.755499 5.543628
v 6.501505 1.607886 5.523596
v -6.501502 1.607883 5.523593
v 6.501503 1.473695 5.45891
v -6.501504 1.473698 5.458913
v 6.501503 1.366019 5.355861
v -6.501504 1.366018 5.355855
v 6.501504 1.331891 5.292442
v -6.501503 1.33189 5.29244
v 6.501503 1.270284 5.152489
v -6.501504 1.270283 5.152489
v -6.501502 -2.226799 -4.820669
v -6.501504 1.270283 5.152489
v -6.501504 1.214425 5.174506
v -6.501502 -2.169386 -4.838241
v -6.501501 -2.266994 -4.97315
v -6.501502 -2.208381 -4.986172
v -6.501501 -2.281934 -5.055655
v -6.501502 -2.221202 -5.056991
v -6.501502 -2.259311 -5.222114
v -6.501502 -2.201145 -5.204602
v -6.501502 -2.186329 -5.373366
v -6.501502 -2.136412 -5.338755
v -6.501502 -2.070221 -5.49482
v -6.501502 -2.033425 -5.44647
v -6.501502 -1.922209 -5.574395
v -6.501502 -1.90216 -5.517056
v -6.501502 -1.756861 -5.604377
v -6.501502 -1.755532 -5.543643
v -6.501502 -1.590352 -5.581672
v -6.501502 -1.607856 -5.523501
v -6.501502 -1.438996 -5.508665
v -6.501502 -1.47361 -5.458749
v -6.501502 -1.31763 -5.392554
v -6.501501 -1.365969 -5.355768
v -6.501502 -1.240473 -5.249046
v -6.501502 -1.295552 -5.224797
v -6.501504 2.194726 4.910731
v -6.501504 2.25292 4.895396
v -6.501504 2.281928 5.055658
v -6.501504 2.221199 5.056999
v -6.501504 2.259309 5.222115
v -6.501504 2.20114 5.204621
v -6.501504 2.186368 5.373461
v -6.501504 2.136452 5.338848
v -6.501507 2.070207 5.494832
v -6.501507 2.033425 5.44649
v -6.501504 1.922184 5.574401
v -6.501504 1.902145 5.517058
v -6.501501 1.756851 5.604358
v -6.501502 1.755499 5.543628
v -6.501502 1.590397 5.581768
v -6.501502 1.607883 5.523593
v -6.501504 1.439083 5.508827
v -6.501504 1.473698 5.458913
v -6.501504 1.317682 5.392642
v -6.501504 1.366018 5.355855
v -6.501503 1.277935 5.318785
v -6.501503 1.33189 5.29244
v -6.501504 1.214425 5.174506
v -6.501504 1.270283 5.152489
v 6.501504 1.277937 5.318785
v 6.501503 1.270284 5.152489
v 6.501503 1.214425 5.174504
v 6.501504 1.331891 5.292442
v 6.501503 1.317684 5.392644
v 6.501503 1.366019 5.355861
v 6.501503 1.43908 5.508827
v 6.501503 1.473695 5.45891
v 6.501505 1.590398 5.58177
v 6.501505 1.607886 5.523596
v 6.501507 1.756875 5.604366
v 6.501505 1.755523 5.543636
v 6.501503 1.9222 5.574399
v 6.501503 1.902153 5.517059
v 6.501502 2.070221 5.494824
v 6.501502 2.033439 5.446483
v 6.501503 2.186369 5.373461
v 6.501503 2.136452 5.338848
v 6.501503 2.259303 5.222118
v 6.501503 2.201135 5.204623
v 6.501503 2.281931 5.055658
v 6.501503 2.221201 5.056996
v 6.501503 2.252882 4.895317
v 6.501503 2.194687 4.910655
v 6.501505 -1.240513 -5.249129
v 6.501505 -1.295589 -5.224871
v 6.501505 -1.317672 -5.392635
v 6.501507 -1.366015 -5.355859
v 6.501505 -1.439032 -5.508738
v 6.501505 -1.473643 -5.458826
v 6.501505 -1.590356 -5.58167
v 6.501505 -1.607864 -5.523499
v 6.501505 -1.75687 -5.604375
v 6.501505 -1.755538 -5.543641
v 6.501505 -1.922215 -5.574393
v 6.501505 -1.902163 -5.517056
v 6.501505 -2.070223 -5.494817
v 6.501505 -2.033427 -5.446469
v 6.501505 -2.186324 -5.373368
v 6.501505 -2.136406 -5.338768
v 6.501505 -2.259307 -5.222106
v 6.501505 -2.201138 -5.204595
v 6.501507 -2.281929 -5.055645
v 6.501505 -2.221201 -5.056993
v 6.501507 -2.266949 -4.973059
v 6.501505 -2.208336 -4.986081
v 6.501505 -2.226798 -4.820671
v 6.501505 -2.169381 -4.838231
v 6.501503 1.270284 5.152489
v 6.501503 1.214425 5.174504
vt 0.9999997 4
vt -5.960464E-07 2.142652
vt -1.192093E-07 4
vt 0.9999995 2.142652
vt 0.9999996 2.129282
vt -5.960464E-07 2.129282
vt 0.9999991 2.122575
vt -5.960464E-07 2.122575
vt 0.9999993 2.108931
vt -5.960464E-07 2.108931
vt 0.9999991 2.095287
vt -5.960464E-07 2.095287
vt 0.9999993 2.081642
vt -5.960464E-07 2.081642
vt 0.9999995 2.067994
vt -5.960464E-07 2.067994
vt 0.9999993 2.054346
vt -5.960464E-07 2.054346
vt 0.9999993 2.040701
vt -5.960464E-07 2.040701
vt 0.9999995 2.027057
vt -5.960464E-07 2.027057
vt 0.9999993 2.013413
vt -5.960464E-07 2.013413
vt 0.9999991 2
vt -5.960464E-07 2
vt -2.980232E-07 0.142652
vt 1.000001 0.142652
vt 1.000001 0.1292392
vt 6.556511E-07 0.1292392
vt 1.000001 0.115595
vt 5.960464E-08 0.115595
vt 1.000001 0.1019508
vt 5.960464E-07 0.1019508
vt 1 0.08830655
vt 4.768372E-07 0.08830655
vt 1.000001 0.07465768
vt 4.768372E-07 0.07465768
vt 1.000001 0.06101
vt -2.980232E-07 0.06101
vt 1 0.04736555
vt 4.768372E-07 0.04736555
vt 1.000001 0.03372145
vt 5.960464E-07 0.03372145
vt 1.000001 0.02007699
vt 5.960464E-07 0.02007699
vt 1.000001 0.01337027
vt 1.788139E-07 0.01337027
vt 1 0
vt 5.960464E-07 0
vt 0.9999997 4
vt -1.192093E-07 4
vt -5.960464E-07 2.142652
vt 0.9999995 2.142652
vt 0.9999996 2.129282
vt -5.960464E-07 2.129282
vt 0.9999991 2.122575
vt -5.960464E-07 2.122575
vt 0.9999993 2.108931
vt -5.960464E-07 2.108931
vt 0.9999991 2.095287
vt -5.960464E-07 2.095287
vt 0.9999993 2.081642
vt -5.960464E-07 2.081642
vt 0.9999995 2.067994
vt -5.960464E-07 2.067994
vt 0.9999993 2.054346
vt -5.960464E-07 2.054346
vt 0.9999993 2.040701
vt -5.960464E-07 2.040701
vt 0.9999995 2.027057
vt -5.960464E-07 2.027057
vt 0.9999993 2.013413
vt -5.960464E-07 2.013413
vt 0.9999991 2
vt -5.960464E-07 2
vt -2.980232E-07 0.142652
vt 1.000001 0.142652
vt 1.000001 0.1292392
vt 6.556511E-07 0.1292392
vt 1.000001 0.115595
vt 5.960464E-08 0.115595
vt 1.000001 0.1019508
vt 5.960464E-07 0.1019508
vt 1 0.08830655
vt 4.768372E-07 0.08830655
vt 1.000001 0.07465768
vt 4.768372E-07 0.07465768
vt 1.000001 0.06101
vt -2.980232E-07 0.06101
vt 1 0.04736555
vt 4.768372E-07 0.04736555
vt 1.000001 0.03372145
vt 5.960464E-07 0.03372145
vt 1.000001 0.02007699
vt 5.960464E-07 0.02007699
vt 1.000001 0.01337027
vt 1.788139E-07 0.01337027
vt 1 0
vt 5.960464E-07 0
vt -5.960464E-07 2.142652
vt -1.192093E-07 4
vt -1.192093E-07 4
vt -5.960464E-07 2.142652
vt -5.960464E-07 2.129282
vt -5.960464E-07 2.129282
vt -5.960464E-07 2.122575
vt -5.960464E-07 2.122575
vt -5.960464E-07 2.108931
vt -5.960464E-07 2.108931
vt -5.960464E-07 2.095287
vt -5.960464E-07 2.095287
vt -5.960464E-07 2.081642
vt -5.960464E-07 2.081642
vt -5.960464E-07 2.067994
vt -5.960464E-07 2.067994
vt -5.960464E-07 2.054346
vt -5.960464E-07 2.054346
vt -5.960464E-07 2.040701
vt -5.960464E-07 2.040701
vt -5.960464E-07 2.027057
vt -5.960464E-07 2.027057
vt -5.960464E-07 2.013413
vt -5.960464E-07 2.013413
vt -5.960464E-07 2
vt -5.960464E-07 2
vt -2.980232E-07 0.142652
vt -2.980232E-07 0.142652
vt 6.556511E-07 0.1292392
vt 6.556511E-07 0.1292392
vt 5.960464E-08 0.115595
vt 5.960464E-08 0.115595
vt 5.960464E-07 0.1019508
vt 5.960464E-07 0.1019508
vt 4.768372E-07 0.08830655
vt 4.768372E-07 0.08830655
vt 4.768372E-07 0.07465768
vt 4.768372E-07 0.07465768
vt -2.980232E-07 0.06101
vt -2.980232E-07 0.06101
vt 4.768372E-07 0.04736555
vt 4.768372E-07 0.04736555
vt 5.960464E-07 0.03372145
vt 5.960464E-07 0.03372145
vt 5.960464E-07 0.02007699
vt 5.960464E-07 0.02007699
vt 1.788139E-07 0.01337027
vt 1.788139E-07 0.01337027
vt 5.960464E-07 0
vt 5.960464E-07 0
vt 1.000001 0.01337027
vt 1 0
vt 1 0
vt 1.000001 0.01337027
vt 1.000001 0.02007699
vt 1.000001 0.02007699
vt 1.000001 0.03372145
vt 1.000001 0.03372145
vt 1 0.04736555
vt 1 0.04736555
vt 1.000001 0.06101
vt 1.000001 0.06101
vt 1.000001 0.07465768
vt 1.000001 0.07465768
vt 1 0.08830655
vt 1 0.08830655
vt 1.000001 0.1019508
vt 1.000001 0.1019508
vt 1.000001 0.115595
vt 1.000001 0.115595
vt 1.000001 0.1292392
vt 1.000001 0.1292392
vt 1.000001 0.142652
vt 1.000001 0.142652
vt 0.9999991 2
vt 0.9999991 2
vt 0.9999993 2.013413
vt 0.9999993 2.013413
vt 0.9999995 2.027057
vt 0.9999995 2.027057
vt 0.9999993 2.040701
vt 0.9999993 2.040701
vt 0.9999993 2.054346
vt 0.9999993 2.054346
vt 0.9999995 2.067994
vt 0.9999995 2.067994
vt 0.9999993 2.081642
vt 0.9999993 2.081642
vt 0.9999991 2.095287
vt 0.9999991 2.095287
vt 0.9999993 2.108931
vt 0.9999993 2.108931
vt 0.9999991 2.122575
vt 0.9999991 2.122575
vt 0.9999996 2.129282
vt 0.9999996 2.129282
vt 0.9999995 2.142652
vt 0.9999995 2.142652
vt 0.9999997 4
vt 0.9999997 4
vn 0 -0.9438242 0.3304484
vn 0 -0.9441876 0.3294082
vn 0 -0.9438242 0.3304484
vn 0 -0.9441876 0.3294082
vn 9.25132E-07 -0.9735608 0.2284276
vn 9.251328E-07 -0.9735609 0.2284274
vn 6.116148E-07 -0.9995266 -0.03076399
vn 6.116131E-07 -0.9995266 -0.03076466
vn 3.36063E-07 -0.9575861 -0.2881476
vn 3.360629E-07 -0.9575858 -0.2881481
vn 1.979814E-07 -0.8217764 -0.5698101
vn 1.979818E-07 -0.8217766 -0.5698097
vn 0 -0.6056488 -0.7957321
vn 0 -0.6056487 -0.7957321
vn 0 -0.3300419 -0.9439663
vn 0 -0.3300419 -0.9439663
vn 1.771973E-07 -0.02191992 -0.9997597
vn 1.771974E-07 -0.02191989 -0.9997597
vn -7.800456E-07 0.2882088 -0.9575676
vn -7.80046E-07 0.2882089 -0.9575676
vn -2.105293E-06 0.5697708 -0.8218037
vn -2.105295E-06 0.5697716 -0.8218032
vn -1.285441E-06 0.7943664 -0.6074389
vn -1.285431E-06 0.7943673 -0.6074378
vn 8.627389E-07 0.9436331 -0.3309932
vn 8.627392E-07 0.9436331 -0.3309932
vn 8.701799E-07 0.9443773 -0.3288639
vn 8.701799E-07 0.9443773 -0.3288639
vn 4.759184E-07 0.999808 -0.01959786
vn 4.759176E-07 0.999808 -0.01959767
vn 1.136516E-07 0.9576437 0.2879559
vn 1.136516E-07 0.9576437 0.2879561
vn 0 0.8217795 0.5698055
vn 0 0.8217791 0.5698063
vn -1.739945E-07 0.6053995 0.7959218
vn -1.739944E-07 0.6053995 0.7959217
vn -4.077643E-07 0.3299768 0.943989
vn -4.077618E-07 0.3299795 0.9439881
vn -4.156614E-07 0.02219955 0.9997535
vn -4.156621E-07 0.02220055 0.9997535
vn -1.955197E-07 -0.2878963 0.9576616
vn -1.955188E-07 -0.2878979 0.9576612
vn -1.02443E-07 -0.5698647 0.8217385
vn -1.024429E-07 -0.5698659 0.8217378
vn 0 -0.7627153 0.6467344
vn 0 -0.7627149 0.6467348
vn 0 -0.9038501 0.427849
vn 0 -0.9038501 0.4278491
vn 0 -0.9438242 0.3304484
vn 0 -0.9438242 0.3304484
vn 0 0.9438295 -0.3304329
vn 0 0.9438295 -0.3304329
vn 0 0.9441823 -0.3294235
vn 0 0.9441823 -0.3294235
vn -9.467907E-07 0.9730722 -0.2305004
vn -9.467917E-07 0.9730723 -0.2305001
vn -6.264927E-07 0.9994548 0.03301858
vn -6.264925E-07 0.9994547 0.03301866
vn -3.58869E-07 0.9575799 0.288168
vn -3.58869E-07 0.9575799 0.288168
vn -1.793844E-07 0.821775 0.5698122
vn -1.793842E-07 0.821775 0.5698122
vn 0 0.6056545 0.7957277
vn 0 0.6056544 0.7957277
vn 0 0.3300518 0.9439629
vn 0 0.330052 0.9439628
vn -1.345199E-07 0.02191042 0.99976
vn -1.3452E-07 0.02191036 0.99976
vn 7.622041E-07 -0.2882166 0.9575653
vn 7.622045E-07 -0.2882168 0.9575652
vn 2.107924E-06 -0.5697604 0.821811
vn 2.107925E-06 -0.5697609 0.8218104
vn 1.308324E-06 -0.7957456 0.6056311
vn 1.308314E-06 -0.7957466 0.6056299
vn -8.692894E-07 -0.9436653 0.3309014
vn -8.692895E-07 -0.9436653 0.3309014
vn -8.759501E-07 -0.9443453 0.3289559
vn -8.759502E-07 -0.9443453 0.3289559
vn -4.826398E-07 -0.9997608 0.02187276
vn -4.826397E-07 -0.9997608 0.02187276
vn -1.793946E-07 -0.957645 -0.2879517
vn -1.793946E-07 -0.957645 -0.2879517
vn 0 -0.8217788 -0.5698067
vn 0 -0.8217781 -0.5698075
vn 1.793573E-07 -0.6053929 -0.7959267
vn 1.793575E-07 -0.6053928 -0.7959269
vn 4.035082E-07 -0.3299646 -0.9439932
vn 4.035057E-07 -0.3299675 -0.9439923
vn 4.260283E-07 -0.02220616 -0.9997534
vn 4.260291E-07 -0.02220734 -0.9997534
vn 1.121383E-07 0.2878925 -0.9576627
vn 1.121363E-07 0.2878941 -0.9576622
vn 0 0.5698792 -0.8217285
vn 0 0.5698805 -0.8217276
vn 0 0.7612506 -0.6484578
vn 0 0.7612503 -0.6484582
vn 0 0.9047651 -0.425911
vn 0 0.904765 -0.4259111
vn 0 0.9438295 -0.3304329
vn 0 0.9438295 -0.3304329
vn -1 5.271982E-07 -4.018171E-07
vn -1 5.67303E-07 -3.713943E-07
vn -1 5.673026E-07 -3.713944E-07
vn -1 5.271996E-07 -4.018155E-07
vn -1 -2.636488E-06 -1.793752E-06
vn -1 -2.636835E-06 -1.793568E-06
vn -1 3.22807E-06 -3.796036E-07
vn -1 3.228672E-06 -3.796053E-07
vn -1 4.336305E-06 1.013267E-06
vn -1 4.336633E-06 1.013119E-06
vn -1 1.759383E-06 -1.569456E-06
vn -1 1.759399E-06 -1.56957E-06
vn -1 0 -4.947959E-06
vn -1 0 -4.947954E-06
vn -1 -2.11008E-06 -1.657857E-06
vn -1 -2.110079E-06 -1.657842E-06
vn -1 0 0
vn -1 0 0
vn -1 0 0
vn -1 0 0
vn -1 -2.687426E-07 1.997084E-06
vn -1 -2.685806E-07 1.997174E-06
vn -1 -1.296276E-06 1.574722E-06
vn -1 -1.296356E-06 1.574682E-06
vn -1 7.505818E-06 -3.226499E-06
vn -1 7.505822E-06 -3.2265E-06
vn -1 7.501252E-06 -3.186782E-06
vn -1 7.501259E-06 -3.186786E-06
vn -1 -3.062666E-06 1.580058E-06
vn -1 -3.06249E-06 1.579621E-06
vn -1 -6.369507E-06 0
vn -1 -6.369303E-06 0
vn -1 -1.571404E-06 -5.649881E-06
vn -1 -1.571996E-06 -5.649378E-06
vn -1 -1.891068E-06 -3.755938E-06
vn -1 -1.892896E-06 -3.754088E-06
vn -1 -1.211949E-05 6.3047E-06
vn -1 -1.211949E-05 6.30471E-06
vn -1 -4.984154E-06 5.290974E-06
vn -1 -4.98344E-06 5.290893E-06
vn -1 5.759982E-06 6.369586E-06
vn -1 5.76006E-06 6.369629E-06
vn -1 3.126877E-07 6.313962E-06
vn -1 3.129781E-07 6.314026E-06
vn -1 -8.33768E-06 1.472073E-06
vn -1 -8.337684E-06 1.472106E-06
vn -1 4.325509E-07 -2.16311E-07
vn -1 4.325904E-07 -2.162911E-07
vn -1 5.673026E-07 -3.713944E-07
vn -1 5.67303E-07 -3.713943E-07
vn 1 9.064418E-07 -4.582506E-07
vn 1 -7.323616E-06 3.775815E-06
vn 1 -7.323619E-06 3.775818E-06
vn 1 9.062065E-07 -4.584851E-07
vn 1 -6.07188E-07 3.035031E-06
vn 1 -6.068942E-07 3.035114E-06
vn 1 -1.175166E-05 -5.500786E-07
vn 1 -1.175175E-05 -5.501083E-07
vn 1 -9.82705E-06 -4.319637E-06
vn 1 -9.82753E-06 -4.319578E-06
vn 1 3.966688E-06 -4.778979E-06
vn 1 3.966395E-06 -4.779028E-06
vn 1 1.211929E-05 -6.305569E-06
vn 1 1.21191E-05 -6.305461E-06
vn 1 1.890942E-06 3.755368E-06
vn 1 1.892824E-06 3.753738E-06
vn 1 -1.47919E-06 7.187182E-06
vn 1 -1.478626E-06 7.186718E-06
vn 1 4.844218E-06 7.566088E-07
vn 1 4.843708E-06 7.568846E-07
vn 1 -1.55288E-06 7.459818E-07
vn 1 -1.553031E-06 7.457851E-07
vn 1 5.20629E-07 -8.553415E-07
vn 1 5.206332E-07 -8.553405E-07
vn 1 5.356662E-07 -8.255047E-07
vn 1 5.356658E-07 -8.25504E-07
vn 1 -2.421554E-06 2.988388E-07
vn 1 -2.421642E-06 2.986604E-07
vn 1 -3.799431E-06 0
vn 1 -3.799455E-06 0
vn 1 2.033031E-06 -1.024419E-06
vn 1 2.033895E-06 -1.024854E-06
vn 1 2.03317E-06 -1.024489E-06
vn 1 2.033183E-06 -1.024495E-06
vn 1 -9.395677E-07 3.19467E-06
vn 1 -9.398054E-07 3.194583E-06
vn 1 2.993576E-06 3.411107E-06
vn 1 2.993584E-06 3.411099E-06
vn 1 3.325029E-06 -9.929915E-07
vn 1 3.325078E-06 -9.926317E-07
vn 1 7.489307E-07 -3.57558E-06
vn 1 7.487483E-07 -3.575502E-06
vn 1 1.543509E-06 -2.02458E-06
vn 1 1.54379E-06 -2.024516E-06
vn 1 3.673099E-06 1.271404E-06
vn 1 3.673188E-06 1.271358E-06
vn 1 -7.298341E-06 3.81371E-06
vn 1 -7.298341E-06 3.81371E-06
vn 1 -7.323616E-06 3.775815E-06
vn 1 -7.323619E-06 3.775818E-06
g PRP_RoyalFumble_Conveyor_0
f 3/3/3 2/2/2 1/1/1
f 2/2/2 4/4/4 1/1/1
f 5/5/5 4/4/4 2/2/2
f 6/6/6 5/5/5 2/2/2
f 5/5/5 6/6/6 7/7/7
f 6/6/6 8/8/8 7/7/7
f 7/7/7 8/8/8 9/9/9
f 8/8/8 10/10/10 9/9/9
f 9/9/9 10/10/10 11/11/11
f 10/10/10 12/12/12 11/11/11
f 11/11/11 12/12/12 13/13/13
f 12/12/12 14/14/14 13/13/13
f 13/13/13 14/14/14 15/15/15
f 14/14/14 16/16/16 15/15/15
f 17/17/17 15/15/15 16/16/16
f 18/18/18 17/17/17 16/16/16
f 19/19/19 17/17/17 18/18/18
f 20/20/20 19/19/19 18/18/18
f 21/21/21 19/19/19 20/20/20
f 22/22/22 21/21/21 20/20/20
f 23/23/23 21/21/21 22/22/22
f 24/24/24 23/23/23 22/22/22
f 25/25/25 23/23/23 24/24/24
f 26/26/26 25/25/25 24/24/24
f 25/25/25 26/26/26 27/27/27
f 28/28/28 25/25/25 27/27/27
f 29/29/29 28/28/28 27/27/27
f 30/30/30 29/29/29 27/27/27
f 31/31/31 29/29/29 30/30/30
f 32/32/32 31/31/31 30/30/30
f 33/33/33 31/31/31 32/32/32
f 34/34/34 33/33/33 32/32/32
f 35/35/35 33/33/33 34/34/34
f 36/36/36 35/35/35 34/34/34
f 37/37/37 35/35/35 36/36/36
f 38/38/38 37/37/37 36/36/36
f 39/39/39 37/37/37 38/38/38
f 40/40/40 39/39/39 38/38/38
f 41/41/41 39/39/39 40/40/40
f 42/42/42 41/41/41 40/40/40
f 43/43/43 41/41/41 42/42/42
f 44/44/44 43/43/43 42/42/42
f 45/45/45 43/43/43 44/44/44
f 46/46/46 45/45/45 44/44/44
f 47/47/47 45/45/45 46/46/46
f 48/48/48 47/47/47 46/46/46
f 47/47/47 48/48/48 49/49/49
f 48/48/48 50/50/50 49/49/49
f 53/53/53 52/52/52 51/51/51
f 54/54/54 53/53/53 51/51/51
f 54/54/54 55/55/55 53/53/53
f 55/55/55 56/56/56 53/53/53
f 56/56/56 55/55/55 57/57/57
f 58/58/58 56/56/56 57/57/57
f 58/58/58 57/57/57 59/59/59
f 60/60/60 58/58/58 59/59/59
f 60/60/60 59/59/59 61/61/61
f 62/62/62 60/60/60 61/61/61
f 62/62/62 61/61/61 63/63/63
f 64/64/64 62/62/62 63/63/63
f 64/64/64 63/63/63 65/65/65
f 66/66/66 64/64/64 65/65/65
f 65/65/65 67/67/67 66/66/66
f 67/67/67 68/68/68 66/66/66
f 67/67/67 69/69/69 68/68/68
f 69/69/69 70/70/70 68/68/68
f 69/69/69 71/71/71 70/70/70
f 71/71/71 72/72/72 70/70/70
f 71/71/71 73/73/73 72/72/72
f 73/73/73 74/74/74 72/72/72
f 73/73/73 75/75/75 74/74/74
f 75/75/75 76/76/76 74/74/74
f 76/76/76 75/75/75 77/77/77
f 75/75/75 78/78/78 77/77/77
f 78/78/78 79/79/79 77/77/77
f 79/79/79 80/80/80 77/77/77
f 79/79/79 81/81/81 80/80/80
f 81/81/81 82/82/82 80/80/80
f 81/81/81 83/83/83 82/82/82
f 83/83/83 84/84/84 82/82/82
f 83/83/83 85/85/85 84/84/84
f 85/85/85 86/86/86 84/84/84
f 85/85/85 87/87/87 86/86/86
f 87/87/87 88/88/88 86/86/86
f 87/87/87 89/89/89 88/88/88
f 89/89/89 90/90/90 88/88/88
f 89/89/89 91/91/91 90/90/90
f 91/91/91 92/92/92 90/90/90
f 91/91/91 93/93/93 92/92/92
f 93/93/93 94/94/94 92/92/92
f 93/93/93 95/95/95 94/94/94
f 95/95/95 96/96/96 94/94/94
f 95/95/95 97/97/97 96/96/96
f 97/97/97 98/98/98 96/96/96
f 98/98/98 97/97/97 99/99/99
f 100/100/100 98/98/98 99/99/99
f 103/103/103 102/102/102 101/101/101
f 102/102/102 104/104/104 101/101/101
f 101/101/101 104/104/104 105/105/105
f 104/104/104 106/106/106 105/105/105
f 105/105/105 106/106/106 107/107/107
f 106/106/106 108/108/108 107/107/107
f 107/107/107 108/108/108 109/109/109
f 108/108/108 110/110/110 109/109/109
f 109/109/109 110/110/110 111/111/111
f 110/110/110 112/112/112 111/111/111
f 111/111/111 112/112/112 113/113/113
f 112/112/112 114/114/114 113/113/113
f 113/113/113 114/114/114 115/115/115
f 114/114/114 116/116/116 115/115/115
f 115/115/115 116/116/116 117/117/117
f 116/116/116 118/118/118 117/117/117
f 117/117/117 118/118/118 119/119/119
f 118/118/118 120/120/120 119/119/119
f 119/119/119 120/120/120 121/121/121
f 120/120/120 122/122/122 121/121/121
f 121/121/121 122/122/122 123/123/123
f 122/122/122 124/124/124 123/123/123
f 123/123/123 124/124/124 125/125/125
f 124/124/124 126/126/126 125/125/125
f 126/126/126 127/127/127 125/125/125
f 127/127/127 128/128/128 125/125/125
f 128/128/128 127/127/127 129/129/129
f 127/127/127 130/130/130 129/129/129
f 129/129/129 130/130/130 131/131/131
f 130/130/130 132/132/132 131/131/131
f 131/131/131 132/132/132 133/133/133
f 132/132/132 134/134/134 133/133/133
f 133/133/133 134/134/134 135/135/135
f 134/134/134 136/136/136 135/135/135
f 135/135/135 136/136/136 137/137/137
f 136/136/136 138/138/138 137/137/137
f 137/137/137 138/138/138 139/139/139
f 138/138/138 140/140/140 139/139/139
f 139/139/139 140/140/140 141/141/141
f 140/140/140 142/142/142 141/141/141
f 141/141/141 142/142/142 143/143/143
f 142/142/142 144/144/144 143/143/143
f 143/143/143 144/144/144 145/145/145
f 144/144/144 146/146/146 145/145/145
f 145/145/145 146/146/146 147/147/147
f 146/146/146 148/148/148 147/147/147
f 147/147/147 148/148/148 149/149/149
f 148/148/148 150/150/150 149/149/149
f 153/153/153 152/152/152 151/151/151
f 152/152/152 154/154/154 151/151/151
f 151/151/151 154/154/154 155/155/155
f 154/154/154 156/156/156 155/155/155
f 155/155/155 156/156/156 157/157/157
f 156/156/156 158/158/158 157/157/157
f 157/157/157 158/158/158 159/159/159
f 158/158/158 160/160/160 159/159/159
f 159/159/159 160/160/160 161/161/161
f 160/160/160 162/162/162 161/161/161
f 161/161/161 162/162/162 163/163/163
f 162/162/162 164/164/164 163/163/163
f 163/163/163 164/164/164 165/165/165
f 164/164/164 166/166/166 165/165/165
f 165/165/165 166/166/166 167/167/167
f 166/166/166 168/168/168 167/167/167
f 167/167/167 168/168/168 169/169/169
f 168/168/168 170/170/170 169/169/169
f 169/169/169 170/170/170 171/171/171
f 170/170/170 172/172/172 171/171/171
f 171/171/171 172/172/172 173/173/173
f 172/172/172 174/174/174 173/173/173
f 173/173/173 174/174/174 175/175/175
f 174/174/174 176/176/176 175/175/175
f 175/175/175 176/176/176 177/177/177
f 176/176/176 178/178/178 177/177/177
f 177/177/177 178/178/178 179/179/179
f 178/178/178 180/180/180 179/179/179
f 179/179/179 180/180/180 181/181/181
f 180/180/180 182/182/182 181/181/181
f 181/181/181 182/182/182 183/183/183
f 182/182/182 184/184/184 183/183/183
f 183/183/183 184/184/184 185/185/185
f 184/184/184 186/186/186 185/185/185
f 185/185/185 186/186/186 187/187/187
f 186/186/186 188/188/188 187/187/187
f 187/187/187 188/188/188 189/189/189
f 188/188/188 190/190/190 189/189/189
f 189/189/189 190/190/190 191/191/191
f 190/190/190 192/192/192 191/191/191
f 191/191/191 192/192/192 193/193/193
f 192/192/192 194/194/194 193/193/193
f 193/193/193 194/194/194 195/195/195
f 194/194/194 196/196/196 195/195/195
f 195/195/195 196/196/196 197/197/197
f 196/196/196 198/198/198 197/197/197
f 198/198/198 199/199/199 197/197/197
f 199/199/199 200/200/200 197/197/197
