g TriangleStairs
v -0.004999999 0.004947979 0.004999962
v -0.0005211431 0.001331506 -0.01549542
v -0.004984648 0.004984765 0.004999962
v -0.0005366325 0.001294825 -0.01549423
v -0.004999999 0.002458358 0.004999962
v -0.0005348293 -0.002308907 -0.01550251
v -0.0004991074 0.001323361 -0.01554543
v -0.0005104801 -0.002320902 -0.0155541
v -0.000510484 0.001286111 -0.01555411
v -0.0004598099 0.001318157 -0.01557753
v -0.0004660179 -0.002329237 -0.01558994
v -0.0004660258 0.001281066 -0.01558994
v -0.0004088372 0.00131624 -0.01558933
v -0.000410409 -0.002332215 -0.01560275
v -0.000410409 0.001279287 -0.01560275
v 0.0004088345 0.001316245 -0.0155893
v 0.0004104094 0.001279287 -0.01560275
v 0.0004104094 -0.002332215 -0.01560275
v 0.0004597007 0.001318195 -0.01557731
v 0.0004660183 -0.002329237 -0.01558994
v 0.0004660269 0.001281066 -0.01558994
v 0.0004987474 0.001323411 -0.01554515
v 0.0005104813 -0.002320902 -0.0155541
v 0.000510485 0.001286111 -0.01555411
v 0.0005206522 0.001331284 -0.01549784
v 0.0005348296 -0.002308907 -0.01550251
v 0.0005348296 0.001293874 -0.01550251
v 0.004984648 0.004984765 0.004999962
v 0.005 0.002458358 0.004999962
v 0.005 0.004947979 0.004999962
v 0.004947586 0.005 0.004999962
v 0.0005206522 0.001331284 -0.01549784
v 0.004984648 0.004984765 0.004999962
v 0.0004858735 0.001348233 -0.01548637
v 0.0004987474 0.001323411 -0.01554515
v 5.960464E-10 0.005 0.004999962
v 4.470348E-10 0.001345358 -0.01550251
v 0.0004695405 0.001341729 -0.01552284
v 0.0004597007 0.001318195 -0.01557731
v 0.000443749 0.001337705 -0.01554544
v 0.0004088345 0.001316245 -0.0155893
v 0.0004048453 0.001335959 -0.01555524
v -0.0004088372 0.00131624 -0.01558933
v -0.0004048572 0.001335943 -0.01555535
v -0.0004598099 0.001318157 -0.01557753
v -0.0004441367 0.001337566 -0.01554622
v -0.0004991074 0.001323361 -0.01554543
v -0.0004707981 0.001341562 -0.01552381
v -0.0005211431 0.001331506 -0.01549542
v -0.0004859361 0.001348231 -0.01548639
v -0.004947584 0.005 0.004999962
v -0.004984648 0.004984765 0.004999962
vt 1.647346 1.605523
vt -0.3065592 1.185221
vt 1.646791 1.609224
vt -0.305806 1.181561
vt 1.659617 1.371994
vt -0.2982035 0.8428329
vt -0.3117976 1.184215
vt -0.3037918 0.8416374
vt -0.3116329 1.180523
vt -0.3167511 1.183676
vt -0.3093929 0.8407879
vt -0.3167366 1.179987
vt -0.3218783 1.183557
vt -0.3149971 0.840444
vt -0.3218491 1.179852
vt -0.3957193 1.18263
vt -0.3956538 1.178935
vt -0.3955301 0.8394718
vt -0.4008366 1.182647
vt -0.401145 0.8396856
vt -0.4007629 1.17895
vt -0.4057817 1.183079
vt -0.4067678 0.8404047
vt -0.4058709 1.179368
vt -0.4108467 1.183919
vt -0.412385 0.8414701
vt -0.4109702 1.180164
vt -2.372021 1.569678
vt -2.380502 1.332269
vt -2.372508 1.565968
vt 0.8279637 -0.6995019
vt 0.4094926 1.263554
vt 0.8317283 -0.6991864
vt 0.4059631 1.26212
vt 0.4073367 1.268131
vt 0.3614891 -0.6998125
vt 0.3601537 1.263627
vt 0.4044133 1.265605
vt 0.4035888 1.271226
vt 0.4019869 1.267765
vt 0.3987303 1.272413
vt 0.3983268 1.268702
vt 0.32157 1.272367
vt 0.3219763 1.268664
vt 0.316702 1.271196
vt 0.3182824 1.267787
vt 0.3129321 1.268103
vt 0.3157781 1.265641
vt 0.3107612 1.263265
vt 0.3143407 1.262064
vt -0.1049853 -0.7001404
vt -0.1087503 -0.6998298
vn -0.9768685 0.005699297 -0.2137651
vn -0.8916726 0.3701031 -0.2606601
vn -0.8917869 0.3701524 -0.2601986
vn -0.9768035 0.004234148 -0.2140956
vn -0.977096 1.865622E-07 -0.2127987
vn -0.9768929 1.29982E-06 -0.2137293
vn -0.7352291 0.3548508 -0.5775111
vn -0.7787747 0.0001142716 -0.6273038
vn -0.8050792 0.003557725 -0.5931566
vn -0.3967353 0.3510707 -0.8481453
vn -0.4236629 -1.368249E-06 -0.9058199
vn -0.4444613 0.003336896 -0.8957918
vn -0.01279301 0.341965 -0.9396256
vn -0.01415094 0 -0.9998999
vn -0.01485962 0.003569982 -0.9998832
vn 0.0129374 0.3421575 -0.9395535
vn 0.01486093 0.003571954 -0.9998832
vn 0.01415093 0 -0.9998999
vn 0.3971632 0.3562356 -0.8457881
vn 0.4236607 -1.400286E-06 -0.905821
vn 0.4444695 0.003388688 -0.8957875
vn 0.7164392 0.3669365 -0.5933571
vn 0.7692535 -2.090735E-06 -0.6389436
vn 0.7952226 0.003527074 -0.6063073
vn 0.8912401 0.3711331 -0.2606743
vn 0.9768936 0 -0.2137263
vn 0.9768201 0.003821056 -0.2140275
vn 0.8913578 0.3711315 -0.2602738
vn 0.977096 0 -0.2127988
vn 0.9768688 0.005692246 -0.2137638
vn 0.006712692 0.9842058 -0.1769002
vn 0.3647038 0.8996709 -0.2399653
vn 0.3647811 0.8996812 -0.2398091
vn 0.005164104 0.9842733 -0.1765771
vn 0.2819909 0.8879431 -0.3633706
vn 0 0.9844817 -0.1754875
vn 0 0.9844817 -0.1754875
vn 0.0654924 0.9734362 -0.2193917
vn 0.1530991 0.8749932 -0.4592903
vn 0.04907287 0.9628156 -0.2656649
vn 0.004497621 0.8655434 -0.5008138
vn 0.003897507 0.8928095 -0.4504177
vn -0.004277417 0.8654413 -0.5009922
vn -0.003678892 0.8921843 -0.4516565
vn -0.152371 0.8723036 -0.4646176
vn -0.04829738 0.962437 -0.2671749
vn -0.2904843 0.8851308 -0.3635414
vn -0.06838667 0.9731759 -0.2196633
vn -0.3673155 0.8985181 -0.240301
vn -0.005020418 0.9842794 -0.1765466
vn -0.006759014 0.9842038 -0.17691
vn -0.3673627 0.8985336 -0.2401706
g TriangleStairs_0
f 3/3/3 2/2/2 1/1/1
f 2/2/2 4/4/4 1/1/1
f 5/5/5 1/1/1 4/4/4
f 6/6/6 5/5/5 4/4/4
f 2/2/2 7/7/7 4/4/4
f 8/8/8 6/6/6 4/4/4
f 7/7/7 9/9/9 4/4/4
f 9/9/9 8/8/8 4/4/4
f 7/7/7 10/10/10 9/9/9
f 11/11/11 8/8/8 9/9/9
f 10/10/10 12/12/12 9/9/9
f 12/12/12 11/11/11 9/9/9
f 12/12/12 10/10/10 13/13/13
f 14/14/14 11/11/11 12/12/12
f 15/15/15 12/12/12 13/13/13
f 15/15/15 14/14/14 12/12/12
f 13/13/13 16/16/16 15/15/15
f 15/15/15 17/17/17 14/14/14
f 16/16/16 17/17/17 15/15/15
f 17/17/17 18/18/18 14/14/14
f 16/16/16 19/19/19 17/17/17
f 20/20/20 18/18/18 17/17/17
f 19/19/19 21/21/21 17/17/17
f 21/21/21 20/20/20 17/17/17
f 19/19/19 22/22/22 21/21/21
f 23/23/23 20/20/20 21/21/21
f 22/22/22 24/24/24 21/21/21
f 24/24/24 23/23/23 21/21/21
f 24/24/24 22/22/22 25/25/25
f 26/26/26 23/23/23 24/24/24
f 27/27/27 24/24/24 25/25/25
f 27/27/27 26/26/26 24/24/24
f 27/27/27 25/25/25 28/28/28
f 26/26/26 27/27/27 29/29/29
f 30/30/30 27/27/27 28/28/28
f 27/27/27 30/30/30 29/29/29
f 33/33/33 32/32/32 31/31/31
f 32/32/32 34/34/34 31/31/31
f 32/32/32 35/35/35 34/34/34
f 36/36/36 31/31/31 34/34/34
f 37/37/37 36/36/36 34/34/34
f 37/37/37 34/34/34 38/38/38
f 35/35/35 38/38/38 34/34/34
f 38/38/38 35/35/35 39/39/39
f 40/40/40 38/38/38 39/39/39
f 40/40/40 37/37/37 38/38/38
f 40/40/40 39/39/39 41/41/41
f 42/42/42 40/40/40 41/41/41
f 40/40/40 42/42/42 37/37/37
f 42/42/42 41/41/41 43/43/43
f 44/44/44 42/42/42 43/43/43
f 42/42/42 44/44/44 37/37/37
f 43/43/43 45/45/45 44/44/44
f 45/45/45 46/46/46 44/44/44
f 44/44/44 46/46/46 37/37/37
f 46/46/46 45/45/45 47/47/47
f 48/48/48 46/46/46 47/47/47
f 46/46/46 48/48/48 37/37/37
f 48/48/48 47/47/47 49/49/49
f 37/37/37 50/50/50 36/36/36
f 48/48/48 50/50/50 37/37/37
f 50/50/50 48/48/48 49/49/49
f 50/50/50 51/51/51 36/36/36
f 50/50/50 49/49/49 52/52/52
f 51/51/51 50/50/50 52/52/52
