g VFX_HitEffect
v 0.2366873 -0.112421 0.2066536
v 0.2366794 0.1123738 0.2066397
v 0.0512798 0.110904 -0.003032974
v 0.05128818 -0.1108572 -0.003019911
v 0.2156708 0.1487802 0.2066451
v 0.02099283 0.2611776 0.2066482
v -0.07037348 0.09984801 -0.003024918
v 0.1216772 -0.01103276 -0.003027966
v -0.02098541 0.2611881 0.2066545
v -0.2156574 0.1487816 0.2066388
v -0.1216847 -0.0110434 -0.003034171
v 0.07036045 0.09984678 -0.003018714
v -0.2366814 0.1123914 0.206644
v -0.2366858 -0.1124032 0.2066493
v -0.05128648 -0.1108747 -0.003023904
v -0.05128151 0.1108866 -0.00302899
v -0.2156564 -0.1487817 0.2066383
v -0.02098454 -0.261189 0.206655
v 0.07035906 -0.09984655 -0.003018193
v -0.1216858 0.01104455 -0.003034699
v 0.02098988 -0.2611829 0.2066512
v 0.2156649 -0.1487805 0.2066422
v 0.1216802 0.0110377 -0.003030928
v -0.07036761 -0.09984783 -0.003021957
vt 0.9950447 0.4962382
vt 0.9950447 0.01064425
vt 0.5113471 0.01064426
vt 0.5113471 0.4962382
vt 0.4963912 0.4962382
vt 0.4963912 0.01314741
vt 0.008053705 0.01314741
vt 0.008053705 0.4962382
vt 0.9950448 0.008553088
vt 0.9950448 0.4962382
vt 0.5113471 0.4962382
vt 0.5113471 0.008553207
vt 0.4963912 0.4962382
vt 0.4963912 0.01158816
vt 0.008053705 0.01158816
vt 0.008053705 0.4962382
vt 0.9950447 0.4962382
vt 0.9950447 0.9931679
vt 0.5113471 0.9931679
vt 0.5113472 0.4962382
vt 0.4963912 0.4962382
vt 0.4963912 0.9931679
vt 0.008053705 0.9931679
vt 0.00805369 0.4962382
vn 0.7491398 -1.273926E-05 -0.662412
vn 0.7491398 -1.273927E-05 -0.662412
vn 0.7491397 -1.273927E-05 -0.662412
vn 0.7491397 -1.273927E-05 -0.662412
vn 0.3745629 0.6487792 -0.6624109
vn 0.3745629 0.6487792 -0.6624109
vn 0.3745629 0.6487792 -0.6624109
vn 0.3745629 0.6487792 -0.6624109
vn -0.3745623 0.6487796 -0.6624109
vn -0.3745622 0.6487796 -0.6624109
vn -0.3745623 0.6487796 -0.6624109
vn -0.3745623 0.6487796 -0.662411
vn -0.7491393 3.770418E-07 -0.6624125
vn -0.7491392 3.770417E-07 -0.6624126
vn -0.7491392 3.770417E-07 -0.6624126
vn -0.7491392 3.770418E-07 -0.6624126
vn -0.3745622 -0.6487796 -0.6624109
vn -0.3745622 -0.6487797 -0.6624109
vn -0.3745622 -0.6487796 -0.6624109
vn -0.3745622 -0.6487796 -0.6624109
vn 0.3745639 -0.6487781 -0.6624114
vn 0.3745639 -0.6487781 -0.6624114
vn 0.3745639 -0.6487781 -0.6624114
vn 0.3745639 -0.6487781 -0.6624114
g VFX_HitEffect_0
f 3/3/3 2/2/2 1/1/1
f 4/4/4 3/3/3 1/1/1
f 7/7/7 6/6/6 5/5/5
f 8/8/8 7/7/7 5/5/5
f 11/11/11 10/10/10 9/9/9
f 12/12/12 11/11/11 9/9/9
f 15/15/15 14/14/14 13/13/13
f 16/16/16 15/15/15 13/13/13
f 19/19/19 18/18/18 17/17/17
f 20/20/20 19/19/19 17/17/17
f 23/23/23 22/22/22 21/21/21
f 24/24/24 23/23/23 21/21/21
