g VinylEnd1
v -16.36345 24.63216 -8.914304
v -16.40865 24.73614 -8.896317
v -16.43528 24.74072 -8.78288
v -16.39365 24.61415 -8.783109
v -14.94505 22.50267 -8.920814
v -16.38998 24.60858 8.776085
v -16.43345 24.73793 8.778087
v -14.97417 22.48285 -8.79272
v -16.36084 24.62833 8.910629
v -16.40715 24.73394 8.893478
v -14.97761 22.48801 8.78277
v -14.94746 22.50616 8.91396
v -14.87452 22.39582 8.782898
v -14.86748 22.42107 8.896203
v -14.8728 22.39325 -8.790992
v -14.8661 22.4191 -8.902481
v -16.32822 24.78485 -8.990468
v -16.40865 24.73614 -8.896317
v -16.36345 24.63216 -8.914304
v -16.28092 24.6814 -9.010344
v -16.24108 24.85788 -9.010206
v -14.86381 22.55405 -9.014577
v -14.94505 22.50267 -8.920814
v -14.8661 22.4191 -8.902481
v -16.1682 24.74866 -9.045498
v -15.27796 25.4332 -9.010206
v -14.78619 22.46915 -8.994806
v -14.73468 22.39067 -8.901241
v -14.6262 22.43365 -8.917879
v -14.7522 22.62323 -9.048881
v -14.67944 22.51381 -9.013868
v -13.90395 23.12993 -9.048881
v -13.83713 23.01696 -9.013868
v -13.78779 22.93449 -8.917879
v -13.71696 23.03539 -8.872396
v -15.21175 25.32 -9.045498
v -13.7647 23.11673 -8.967001
v -15.09479 25.35202 -8.992975
v -15.16107 25.46117 -8.959025
v -15.03007 25.43789 -8.834858
v -14.9701 25.33751 -8.869461
v -13.82916 23.23156 -8.997432
v -13.80364 23.38477 -8.87278
v -13.74362 23.2843 -8.838449
v -13.69967 23.21072 -8.744326
v -14.73468 22.39067 -8.901241
v -14.8661 22.4191 -8.902481
v -14.8728 22.39325 -8.790992
v -14.7391 22.36468 -8.788792
v -14.6262 22.43365 -8.917879
v -14.73963 22.36533 8.782899
v -14.87452 22.39582 8.782898
v -14.86748 22.42107 8.896203
v -14.73513 22.39114 8.896212
v -14.62634 22.43353 8.91396
v -14.60676 22.40428 -8.786676
v -13.78779 22.93449 -8.917879
v -14.60691 22.40419 8.782771
v -13.77003 22.9041 -8.786676
v -13.77003 22.90411 8.78277
v -13.78778 22.93445 8.91396
v -13.71694 23.03536 8.86848
v -13.6991 23.00966 -8.739295
v -13.71696 23.03539 -8.872396
v -13.69967 23.21072 -8.744326
v -13.68358 23.18379 -8.615678
v -13.6991 23.00966 8.735388
v -13.68358 23.18378 8.611775
v -13.69966 23.2107 8.740412
v -15.16102 25.46107 8.9588
v -15.03003 25.4378 8.834579
v -14.97004 25.33737 8.869047
v -15.09473 25.35187 8.99261
v -13.80356 23.38464 8.869048
v -15.21169 25.31984 9.045149
v -15.27791 25.4331 9.009997
v -16.24088 24.85786 9.009997
v -13.82908 23.23138 8.993722
v -13.74357 23.28421 8.834579
v -13.90386 23.12978 9.04515
v -16.16798 24.7486 9.045149
v -13.76465 23.11663 8.963137
v -13.69966 23.2107 8.740412
v -13.71694 23.03536 8.86848
v -13.78778 22.93445 8.91396
v -13.83707 23.01686 9.009996
v -14.75226 22.62299 9.04515
v -14.67954 22.51362 9.009997
v -14.62634 22.43353 8.91396
v -14.73513 22.39114 8.896212
v -16.27958 24.67957 9.009114
v -16.32742 24.78382 8.989554
v -16.40715 24.73394 8.893478
v -16.36084 24.62833 8.910629
v -14.94746 22.50616 8.91396
v -14.86498 22.55556 9.009997
v -14.78687 22.46995 8.990292
v -14.86748 22.42107 8.896203
v -15.16107 25.46117 -8.959025
v -15.03007 25.43789 -8.834858
v -15.07395 25.51134 -8.740642
v -15.20859 25.54091 -8.863363
v -15.09001 25.53823 -8.612019
v -15.32833 25.51488 -8.914121
v -15.27796 25.4332 -9.010206
v -16.24108 24.85788 -9.010206
v -15.22461 25.56978 -8.731672
v -15.09003 25.53823 8.611776
v -15.34922 25.5433 -8.782944
v -16.29443 24.93778 -8.914121
v -15.22463 25.56977 8.731483
v -15.07395 25.51132 8.740412
v -15.34925 25.5433 8.78277
v -15.20859 25.54088 8.863188
v -15.03003 25.4378 8.834579
v -15.16102 25.46107 8.9588
v -15.27791 25.4331 9.009997
v -15.32832 25.51485 8.91396
v -16.314 24.967 -8.782944
v -16.37992 24.86339 -8.896238
v -16.32822 24.78485 -8.990468
v -16.40865 24.73614 -8.896317
v -16.40595 24.87067 -8.78282
v -16.43528 24.74072 -8.78288
v -16.43345 24.73793 8.778087
v -16.29428 24.93783 8.91396
v -16.24088 24.85786 9.009997
v -16.32742 24.78382 8.989554
v -16.31388 24.96707 8.782771
v -16.40541 24.86995 8.780548
v -16.37943 24.86283 8.894902
v -16.40715 24.73394 8.893478
vt 0.3650835 0.5192217
vt 0.3653548 0.5209755
vt 0.3671384 0.5211864
vt 0.3671351 0.5192419
vt 0.364984 0.4805124
vt 0.6327133 0.51914
vt 0.6327441 0.5212039
vt 0.3669923 0.480513
vt 0.6348189 0.519151
vt 0.6345868 0.5209613
vt 0.6328175 0.4806068
vt 0.6348726 0.4805762
vt 0.6328204 0.4785153
vt 0.634632 0.4787416
vt 0.3670176 0.478467
vt 0.3652492 0.478715
vt 0.2702298 0.9758866
vt 0.2847853 0.9774159
vt 0.283103 0.9651225
vt 0.271076 0.9646844
vt 0.2590578 0.976217
vt 0.2724972 0.7389319
vt 0.2843874 0.7390568
vt 0.2832901 0.7269962
vt 0.2590797 0.964039
vt 0.1597192 0.9703679
vt 0.271069 0.7287269
vt 0.2735453 0.7165657
vt 0.2614946 0.7144846
vt 0.2605982 0.7385628
vt 0.260886 0.72667
vt 0.1737788 0.7338085
vt 0.1741304 0.7221442
vt 0.1739724 0.7100593
vt 0.1594636 0.7131143
vt 0.1607809 0.95836
vt 0.1630461 0.7251558
vt 0.1496773 0.9548841
vt 0.1476424 0.9666114
vt 0.1331627 0.9582273
vt 0.1360168 0.9474163
vt 0.162425 0.7373159
vt 0.1475456 0.7467561
vt 0.1459606 0.7348421
vt 0.1399829 0.7234443
vt 0.7090524 0.6655738
vt 0.7011333 0.6652741
vt 0.7008742 0.6720345
vt 0.7085398 0.6721609
vt 0.7160925 0.6646171
vt 0.7087351 1.657244
vt 0.7009817 1.657251
vt 0.7012583 1.664095
vt 0.7092468 1.663859
vt 0.7162917 1.66486
vt 0.7162815 0.6722794
vt 0.7710881 0.6646311
vt 0.7164844 1.657234
vt 0.7709258 0.6722775
vt 0.7709016 1.657237
vt 0.7710671 1.664854
vt 0.7787876 1.66244
vt 0.7780523 0.6749296
vt 0.7788175 0.6670594
vt 0.7893916 0.6742868
vt 0.7878565 0.6818571
vt 0.7780282 1.654583
vt 0.7878329 1.647657
vt 0.7893793 1.655222
vt 0.4200308 1.146457
vt 0.4341899 1.138199
vt 0.4313716 1.127584
vt 0.4180411 1.134953
vt 0.4193482 0.9313848
vt 0.4071952 1.138391
vt 0.4082552 1.150136
vt 0.3108791 1.156061
vt 0.4047515 0.9222164
vt 0.4208296 0.9197384
vt 0.3936352 0.9188312
vt 0.3108889 1.144226
vt 0.4040893 0.91033
vt 0.4266452 0.9085599
vt 0.4075374 0.8985362
vt 0.3933466 0.8956018
vt 0.393243 0.9074318
vt 0.3087186 0.9237868
vt 0.3083916 0.9121627
vt 0.3077407 0.9002439
vt 0.2958674 0.9023493
vt 0.2991739 1.144739
vt 0.3001446 1.154945
vt 0.2879416 1.155722
vt 0.2872837 1.145117
vt 0.2853022 0.9247146
vt 0.297069 0.9243583
vt 0.2984206 0.9142911
vt 0.2863395 0.9127721
vt 0.6108192 0.6819455
vt 0.6006669 0.6881319
vt 0.6038173 0.6958268
vt 0.6130346 0.6896691
vt 0.6053721 0.7040817
vt 0.6198387 0.687238
vt 0.6194267 0.6796432
vt 0.6824719 0.6795086
vt 0.6130542 0.6974486
vt 0.6053006 1.659916
vt 0.6201231 0.6946176
vt 0.6825146 0.687162
vt 0.6129821 1.666554
vt 0.6037427 1.668174
vt 0.6200507 1.669387
vt 0.6129612 1.674336
vt 0.6005872 1.675869
vt 0.610742 1.682061
vt 0.6193522 1.684365
vt 0.6197651 1.676768
vt 0.6824746 0.6946195
vt 0.688846 0.6882226
vt 0.6901171 0.6804276
vt 0.6964557 0.6868716
vt 0.6898566 0.6946177
vt 0.6972527 0.6945994
vt 0.6972838 1.669161
vt 0.6824332 1.676849
vt 0.6823962 1.684502
vt 0.6900881 1.683569
vt 0.6823924 1.669394
vt 0.6897903 1.669281
vt 0.6887701 1.675731
vt 0.6964813 1.67702
vn -0.7266734 -0.4703842 -0.500684
vn -0.9036812 -0.08916619 -0.4188192
vn -0.9985612 -0.05360536 -0.001411396
vn -0.8395243 -0.5433187 -0.001941041
vn -0.7132804 -0.4853235 -0.5056601
vn -0.8395901 -0.5432168 0.001956983
vn -0.998711 -0.05073234 0.001587298
vn -0.8251168 -0.5649588 -0.001970893
vn -0.7295102 -0.4731348 0.4939213
vn -0.906082 -0.1016451 0.4107111
vn -0.8250682 -0.5650296 0.00198047
vn -0.7164812 -0.4880415 0.4984678
vn -0.4537534 -0.891126 0.001557763
vn -0.455549 -0.788888 0.4124693
vn -0.4558131 -0.8900744 -0.001408399
vn -0.4443337 -0.7907847 -0.4209837
vn -0.5680941 0.1287973 -0.8128225
vn -0.9036812 -0.08916619 -0.4188192
vn -0.7266734 -0.4703842 -0.500684
vn -0.4233437 -0.2681736 -0.8653687
vn -0.2776591 0.422581 -0.862746
vn -0.4049571 -0.2797165 -0.870499
vn -0.7132804 -0.4853235 -0.5056601
vn -0.4443337 -0.7907847 -0.4209837
vn -0.03329102 -0.003658141 -0.9994389
vn -0.2167008 0.4547778 -0.863839
vn -0.1194306 -0.5741719 -0.8099771
vn 0.08370369 -0.9052757 -0.4164967
vn 0.4238389 -0.7536057 -0.5024331
vn -0.01803162 -0.02418139 -0.9995449
vn 0.2338602 -0.4358942 -0.8690833
vn 0.03659856 0.008517622 -0.9992938
vn 0.3036462 -0.4002693 -0.8646291
vn 0.4917203 -0.7122582 -0.5008985
vn 0.9330918 -0.1329193 -0.3341739
vn 0.0249177 0.03292598 -0.9991472
vn 0.8028827 0.06835158 -0.5922057
vn 0.4979536 0.312217 -0.8090505
vn 0.391241 0.6719813 -0.6287858
vn 0.5692585 0.6732442 -0.4718973
vn 0.6663756 0.4059874 -0.625394
vn 0.4948425 0.2829424 -0.8216293
vn 0.6722329 0.3969936 -0.6248991
vn 0.8696643 0.2278478 -0.4379148
vn 0.9723909 0.06644226 -0.2236993
vn 0.08370369 -0.9052757 -0.4164967
vn -0.4443337 -0.7907847 -0.4209837
vn -0.4558131 -0.8900744 -0.001408399
vn 0.03382893 -0.9994266 -0.001428614
vn 0.4238389 -0.7536057 -0.5024331
vn 0.03620635 -0.9993431 0.001525364
vn -0.4537534 -0.891126 0.001557763
vn -0.455549 -0.788888 0.4124693
vn 0.07176922 -0.908136 0.4124781
vn 0.4230423 -0.7542996 0.5020632
vn 0.4858656 -0.8740314 -0.001932286
vn 0.4917203 -0.7122582 -0.5008985
vn 0.4860737 -0.8739157 0.001939066
vn 0.5463367 -0.8375631 -0.002058123
vn 0.5463365 -0.8375633 0.002056243
vn 0.4918219 -0.7124599 0.5005118
vn 0.9331632 -0.1330572 0.3339197
vn 0.9257761 -0.3780687 -0.001675107
vn 0.9330918 -0.1329193 -0.3341739
vn 0.9723909 0.06644226 -0.2236993
vn 0.996087 -0.08837666 -0.0005889938
vn 0.9257756 -0.3780695 0.001673648
vn 0.996087 -0.08837713 0.0005883249
vn 0.9724393 0.06630468 0.2235295
vn 0.3915849 0.6714968 0.6290894
vn 0.5695683 0.6728241 0.4721224
vn 0.6669373 0.4052966 0.6252433
vn 0.4985473 0.3113046 0.8090365
vn 0.6728023 0.3963116 0.6247193
vn 0.02558668 0.03179672 0.9991668
vn -0.2163026 0.4541352 0.8642768
vn -0.2781173 0.4214191 0.8631667
vn 0.4956191 0.2821261 0.8214417
vn 0.8699267 0.2275338 0.4375567
vn 0.03728945 0.00739877 0.9992772
vn -0.03304803 -0.005039555 0.9994411
vn 0.8032083 0.06797807 0.5918069
vn 0.9724393 0.06630468 0.2235295
vn 0.9331632 -0.1330572 0.3339197
vn 0.4918219 -0.7124599 0.5005118
vn 0.3040377 -0.4009278 0.8641863
vn -0.01773657 -0.02558331 0.9995153
vn 0.2333952 -0.4371625 0.868571
vn 0.4230423 -0.7542996 0.5020632
vn 0.07176922 -0.908136 0.4124781
vn -0.4284461 -0.2729228 0.8613634
vn -0.5760564 0.1179867 0.8088499
vn -0.906082 -0.1016451 0.4107111
vn -0.7295102 -0.4731348 0.4939213
vn -0.7164812 -0.4880415 0.4984678
vn -0.4102589 -0.2844935 0.866459
vn -0.1307782 -0.5781964 0.8053483
vn -0.455549 -0.788888 0.4124693
vn 0.391241 0.6719813 -0.6287858
vn 0.5692585 0.6732442 -0.4718973
vn 0.4220017 0.8701513 -0.2544627
vn 0.2288723 0.901045 -0.3684228
vn 0.228689 0.9734994 -0.0006128744
vn -0.4042072 0.7642842 -0.5024801
vn -0.2167008 0.4547778 -0.863839
vn -0.2776591 0.422581 -0.862746
vn -0.06679485 0.9977649 -0.001882045
vn 0.2286895 0.9734992 0.0006145359
vn -0.4905527 0.8714091 -0.002081559
vn -0.4637534 0.7337351 -0.4965538
vn -0.06681969 0.9977633 0.001884256
vn 0.4221843 0.8700191 0.2546116
vn -0.4905544 0.871408 0.002082757
vn 0.2290836 0.9008933 0.3686624
vn 0.5695683 0.6728241 0.4721224
vn 0.3915849 0.6714968 0.6290894
vn -0.2163026 0.4541352 0.8642768
vn -0.4040767 0.7640892 0.5028812
vn -0.537223 0.843438 -0.001919569
vn -0.7774525 0.4692193 -0.418809
vn -0.5680941 0.1287973 -0.8128225
vn -0.9036812 -0.08916619 -0.4188192
vn -0.8839253 0.4676259 -0.001444754
vn -0.9985612 -0.05360536 -0.001411396
vn -0.998711 -0.05073234 0.001587298
vn -0.4644725 0.7329798 0.496997
vn -0.2781173 0.4214191 0.8631667
vn -0.5760564 0.1179867 0.8088499
vn -0.5370129 0.8435717 0.001929343
vn -0.8825575 0.470202 0.001566303
vn -0.7855685 0.4584913 0.4155334
vn -0.906082 -0.1016451 0.4107111
g VinylEnd1_0
f 3/3/3 2/2/2 1/1/1
f 4/4/4 3/3/3 1/1/1
f 1/1/1 5/5/5 4/4/4
f 4/4/4 6/6/6 3/3/3
f 6/6/6 7/7/7 3/3/3
f 5/5/5 8/8/8 4/4/4
f 4/4/4 8/8/8 6/6/6
f 6/6/6 9/9/9 7/7/7
f 9/9/9 10/10/10 7/7/7
f 6/6/6 11/11/11 9/9/9
f 8/8/8 11/11/11 6/6/6
f 11/11/11 12/12/12 9/9/9
f 11/11/11 13/13/13 12/12/12
f 11/11/11 8/8/8 13/13/13
f 13/13/13 14/14/14 12/12/12
f 8/8/8 15/15/15 13/13/13
f 8/8/8 5/5/5 15/15/15
f 5/5/5 16/16/16 15/15/15
g VinylEnd1_1
f 19/19/19 18/18/18 17/17/17
f 20/20/20 19/19/19 17/17/17
f 20/20/20 17/17/17 21/21/21
f 20/20/20 22/22/22 19/19/19
f 22/22/22 23/23/23 19/19/19
f 23/23/23 22/22/22 24/24/24
f 25/25/25 20/20/20 21/21/21
f 25/25/25 21/21/21 26/26/26
f 22/22/22 27/27/27 24/24/24
f 28/28/28 24/24/24 27/27/27
f 29/29/29 28/28/28 27/27/27
f 30/30/30 22/22/22 20/20/20
f 25/25/25 30/30/30 20/20/20
f 31/31/31 27/27/27 22/22/22
f 31/31/31 29/29/29 27/27/27
f 30/30/30 31/31/31 22/22/22
f 32/32/32 30/30/30 25/25/25
f 30/30/30 32/32/32 31/31/31
f 31/31/31 33/33/33 29/29/29
f 32/32/32 33/33/33 31/31/31
f 33/33/33 34/34/34 29/29/29
f 35/35/35 34/34/34 33/33/33
f 36/36/36 25/25/25 26/26/26
f 36/36/36 32/32/32 25/25/25
f 37/37/37 33/33/33 32/32/32
f 37/37/37 35/35/35 33/33/33
f 38/38/38 36/36/36 26/26/26
f 39/39/39 38/38/38 26/26/26
f 39/39/39 40/40/40 38/38/38
f 40/40/40 41/41/41 38/38/38
f 42/42/42 32/32/32 36/36/36
f 38/38/38 42/42/42 36/36/36
f 38/38/38 41/41/41 42/42/42
f 42/42/42 37/37/37 32/32/32
f 41/41/41 43/43/43 42/42/42
f 42/42/42 43/43/43 37/37/37
f 43/43/43 44/44/44 37/37/37
f 37/37/37 44/44/44 35/35/35
f 44/44/44 45/45/45 35/35/35
f 48/48/48 47/47/47 46/46/46
f 49/49/49 48/48/48 46/46/46
f 49/49/49 46/46/46 50/50/50
f 48/48/48 49/49/49 51/51/51
f 52/52/52 48/48/48 51/51/51
f 52/52/52 51/51/51 53/53/53
f 51/51/51 54/54/54 53/53/53
f 55/55/55 54/54/54 51/51/51
f 56/56/56 49/49/49 50/50/50
f 50/50/50 57/57/57 56/56/56
f 51/51/51 49/49/49 58/58/58
f 58/58/58 55/55/55 51/51/51
f 49/49/49 56/56/56 58/58/58
f 57/57/57 59/59/59 56/56/56
f 58/58/58 56/56/56 59/59/59
f 58/58/58 60/60/60 55/55/55
f 60/60/60 58/58/58 59/59/59
f 60/60/60 61/61/61 55/55/55
f 62/62/62 61/61/61 60/60/60
f 63/63/63 59/59/59 57/57/57
f 64/64/64 63/63/63 57/57/57
f 64/64/64 65/65/65 63/63/63
f 65/65/65 66/66/66 63/63/63
f 60/60/60 59/59/59 67/67/67
f 59/59/59 63/63/63 67/67/67
f 63/63/63 66/66/66 67/67/67
f 67/67/67 62/62/62 60/60/60
f 66/66/66 68/68/68 67/67/67
f 67/67/67 68/68/68 62/62/62
f 68/68/68 69/69/69 62/62/62
f 72/72/72 71/71/71 70/70/70
f 73/73/73 72/72/72 70/70/70
f 74/74/74 72/72/72 73/73/73
f 73/73/73 70/70/70 75/75/75
f 70/70/70 76/76/76 75/75/75
f 75/75/75 76/76/76 77/77/77
f 78/78/78 74/74/74 73/73/73
f 79/79/79 74/74/74 78/78/78
f 75/75/75 80/80/80 73/73/73
f 80/80/80 78/78/78 73/73/73
f 81/81/81 75/75/75 77/77/77
f 80/80/80 75/75/75 81/81/81
f 82/82/82 79/79/79 78/78/78
f 83/83/83 79/79/79 82/82/82
f 84/84/84 83/83/83 82/82/82
f 84/84/84 82/82/82 85/85/85
f 82/82/82 78/78/78 86/86/86
f 78/78/78 80/80/80 86/86/86
f 82/82/82 86/86/86 85/85/85
f 86/86/86 80/80/80 87/87/87
f 87/87/87 80/80/80 81/81/81
f 85/85/85 86/86/86 88/88/88
f 88/88/88 86/86/86 87/87/87
f 89/89/89 85/85/85 88/88/88
f 89/89/89 88/88/88 90/90/90
f 81/81/81 77/77/77 91/91/91
f 77/77/77 92/92/92 91/91/91
f 91/91/91 92/92/92 93/93/93
f 94/94/94 91/91/91 93/93/93
f 94/94/94 95/95/95 91/91/91
f 96/96/96 87/87/87 81/81/81
f 91/91/91 96/96/96 81/81/81
f 87/87/87 96/96/96 88/88/88
f 95/95/95 96/96/96 91/91/91
f 88/88/88 97/97/97 90/90/90
f 96/96/96 97/97/97 88/88/88
f 96/96/96 95/95/95 97/97/97
f 97/97/97 98/98/98 90/90/90
f 95/95/95 98/98/98 97/97/97
f 101/101/101 100/100/100 99/99/99
f 102/102/102 101/101/101 99/99/99
f 103/103/103 101/101/101 102/102/102
f 102/102/102 99/99/99 104/104/104
f 99/99/99 105/105/105 104/104/104
f 105/105/105 106/106/106 104/104/104
f 107/107/107 103/103/103 102/102/102
f 108/108/108 103/103/103 107/107/107
f 104/104/104 109/109/109 102/102/102
f 109/109/109 107/107/107 102/102/102
f 106/106/106 110/110/110 104/104/104
f 104/104/104 110/110/110 109/109/109
f 111/111/111 108/108/108 107/107/107
f 112/112/112 108/108/108 111/111/111
f 107/107/107 109/109/109 113/113/113
f 111/111/111 107/107/107 113/113/113
f 114/114/114 112/112/112 111/111/111
f 115/115/115 112/112/112 114/114/114
f 116/116/116 115/115/115 114/114/114
f 116/116/116 114/114/114 117/117/117
f 114/114/114 111/111/111 118/118/118
f 114/114/114 118/118/118 117/117/117
f 111/111/111 113/113/113 118/118/118
f 109/109/109 119/119/119 113/113/113
f 110/110/110 119/119/119 109/109/109
f 110/110/110 106/106/106 120/120/120
f 106/106/106 121/121/121 120/120/120
f 121/121/121 122/122/122 120/120/120
f 110/110/110 120/120/120 123/123/123
f 123/123/123 120/120/120 122/122/122
f 119/119/119 110/110/110 123/123/123
f 124/124/124 123/123/123 122/122/122
f 124/124/124 125/125/125 123/123/123
f 117/117/117 118/118/118 126/126/126
f 127/127/127 117/117/117 126/126/126
f 127/127/127 126/126/126 128/128/128
f 118/118/118 113/113/113 129/129/129
f 119/119/119 129/129/129 113/113/113
f 126/126/126 118/118/118 129/129/129
f 123/123/123 130/130/130 119/119/119
f 130/130/130 129/129/129 119/119/119
f 125/125/125 130/130/130 123/123/123
f 129/129/129 130/130/130 126/126/126
f 126/126/126 131/131/131 128/128/128
f 130/130/130 131/131/131 126/126/126
f 130/130/130 125/125/125 131/131/131
f 131/131/131 132/132/132 128/128/128
f 125/125/125 132/132/132 131/131/131
