g VinylEnd4
v 5.771818 29.00331 8.914303
v 5.774105 29.11666 8.896317
v 5.796993 29.13103 8.78288
v 5.806601 28.99813 8.78311
v 5.269368 26.4945 8.920814
v 5.805318 28.99158 -8.776086
v 5.796362 29.12775 -8.778087
v 5.30385 26.48725 8.79272
v 5.77086 28.99877 -8.910629
v 5.773555 29.11406 -8.893478
v 5.305051 26.49331 -8.78277
v 5.270301 26.4986 -8.91396
v 5.244744 26.36886 -8.782898
v 5.22864 26.38954 -8.896202
v 5.244133 26.36583 8.790991
v 5.22811 26.38719 8.90248
v 5.681192 29.13114 8.990468
v 5.774105 29.11666 8.896317
v 5.771818 29.00331 8.914303
v 5.676771 29.01748 9.010345
v 5.57283 29.16556 9.010206
v 5.174691 26.51114 9.014577
v 5.269368 26.4945 8.920814
v 5.22811 26.38719 8.90248
v 5.546945 29.03685 9.045497
v 4.46331 29.33159 9.010206
v 5.135172 26.40311 8.994806
v 5.117359 26.31095 8.901241
v 5.000683 26.30946 8.917879
v 5.04517 26.5327 9.048882
v 5.019463 26.40384 9.013868
v 4.06799 26.67894 9.048882
v 4.049118 26.54904 9.013868
v 4.03483 26.454 8.917879
v 3.930957 26.5204 8.872396
v 4.445111 29.20173 9.045498
v 3.944197 26.61379 8.967001
v 4.324758 29.18688 8.992974
v 4.344563 29.31304 8.959024
v 4.232269 29.24168 8.834858
v 4.214943 29.12606 8.869462
v 3.96017 26.74449 8.997433
v 3.878322 26.87651 8.872779
v 3.861003 26.76076 8.838449
v 3.848332 26.67601 8.744327
v 5.117359 26.31095 8.901241
v 5.22811 26.38719 8.90248
v 5.244133 26.36583 8.790991
v 5.131333 26.28858 8.788793
v 5.000683 26.30946 8.917879
v 5.131576 26.28938 -8.782898
v 5.244744 26.36886 -8.782898
v 5.22864 26.38954 -8.896202
v 5.117603 26.31154 -8.896211
v 5.000874 26.30938 -8.91396
v 4.993871 26.2749 8.786676
v 4.03483 26.454 8.917879
v 4.994043 26.27487 -8.78277
v 4.029961 26.41915 8.786675
v 4.029958 26.41915 -8.782771
v 4.034829 26.45396 -8.91396
v 3.930965 26.52038 -8.86848
v 3.924223 26.48981 8.739295
v 3.930957 26.5204 8.872396
v 3.848332 26.67601 8.744327
v 3.843677 26.64497 8.615677
v 3.92422 26.48981 -8.735389
v 3.843677 26.64497 -8.611776
v 3.848318 26.67597 -8.740412
v 4.344563 29.31293 -8.958801
v 4.232262 29.24161 -8.834579
v 4.214939 29.12591 -8.869047
v 4.324753 29.18672 -8.99261
v 3.878299 26.87635 -8.869048
v 4.445134 29.20154 -9.045149
v 4.463306 29.33148 -9.009997
v 5.572655 29.16548 -9.009997
v 3.960159 26.7443 -8.993721
v 3.860986 26.76066 -8.834579
v 4.067956 26.67875 -9.045149
v 5.546765 29.0367 -9.04515
v 3.944185 26.61367 -8.963136
v 3.848318 26.67597 -8.740412
v 3.930965 26.52038 -8.86848
v 4.034829 26.45396 -8.91396
v 4.049132 26.54888 -9.009996
v 5.045311 26.5325 -9.045149
v 5.019619 26.4037 -9.009997
v 5.000874 26.30938 -8.91396
v 5.117603 26.31154 -8.896211
v 5.676223 29.01528 -9.009114
v 5.680839 29.12989 -8.989519
v 5.773555 29.11406 -8.893478
v 5.77086 28.99877 -8.910629
v 5.270301 26.4986 -8.91396
v 5.175195 26.51298 -9.009997
v 5.135499 26.40411 -8.990292
v 5.22864 26.38954 -8.896202
v 4.344563 29.31304 8.959024
v 4.232269 29.24168 8.834858
v 4.244925 29.32633 8.740643
v 4.358198 29.40485 8.863362
v 4.249531 29.35732 8.612019
v 4.478842 29.42628 8.914121
v 4.46331 29.33159 9.010206
v 5.57283 29.16556 9.010206
v 4.36205 29.43764 8.731671
v 4.249568 29.3573 -8.611776
v 4.487378 29.46053 8.782945
v 5.591805 29.25975 8.914121
v 4.362075 29.43764 -8.731483
v 4.244925 29.3263 -8.740411
v 4.487393 29.46052 -8.782771
v 4.358222 29.40483 -8.863188
v 4.232262 29.24161 -8.834579
v 4.344563 29.31293 -8.958801
v 4.463306 29.33148 -9.009997
v 4.478862 29.42626 -8.91396
v 5.598803 29.29421 8.782944
v 5.699153 29.22344 8.896238
v 5.681192 29.13114 8.990468
v 5.774105 29.11666 8.896317
v 5.720465 29.24007 8.78282
v 5.796993 29.13103 8.78288
v 5.796362 29.12775 -8.778087
v 5.591648 29.25974 -8.91396
v 5.572655 29.16548 -9.009997
v 5.680839 29.12989 -8.989519
v 5.598658 29.29424 -8.78277
v 5.720239 29.2392 -8.780549
v 5.698919 29.22273 -8.894902
v 5.773555 29.11406 -8.893478
vt 0.3650835 0.5192217
vt 0.3653548 0.5209755
vt 0.3671384 0.5211864
vt 0.3671351 0.5192419
vt 0.364984 0.4805124
vt 0.6327133 0.51914
vt 0.6327441 0.5212039
vt 0.3669923 0.480513
vt 0.6348189 0.519151
vt 0.6345868 0.5209613
vt 0.6328175 0.4806068
vt 0.6348726 0.4805762
vt 0.6328204 0.4785153
vt 0.634632 0.4787416
vt 0.3670176 0.478467
vt 0.3652492 0.478715
vt 0.2702298 0.9758866
vt 0.2847853 0.9774159
vt 0.283103 0.9651225
vt 0.271076 0.9646844
vt 0.2590578 0.976217
vt 0.2724972 0.7389319
vt 0.2843874 0.7390568
vt 0.2832901 0.7269962
vt 0.2590797 0.964039
vt 0.1597192 0.9703679
vt 0.271069 0.7287269
vt 0.2735453 0.7165657
vt 0.2614946 0.7144846
vt 0.2605982 0.7385628
vt 0.260886 0.72667
vt 0.1737788 0.7338085
vt 0.1741304 0.7221442
vt 0.1739724 0.7100593
vt 0.1594636 0.7131143
vt 0.1607809 0.95836
vt 0.1630461 0.7251558
vt 0.1496773 0.9548841
vt 0.1476424 0.9666114
vt 0.1331627 0.9582273
vt 0.1360168 0.9474163
vt 0.162425 0.7373159
vt 0.1475456 0.7467561
vt 0.1459606 0.7348421
vt 0.1399829 0.7234443
vt 0.7090524 0.6655738
vt 0.7011333 0.6652741
vt 0.7008742 0.6720345
vt 0.7085398 0.6721609
vt 0.7160925 0.6646171
vt 0.7087351 1.657244
vt 0.7009817 1.657251
vt 0.7012583 1.664095
vt 0.7092468 1.663859
vt 0.7162917 1.66486
vt 0.7162815 0.6722794
vt 0.7710881 0.6646311
vt 0.7164844 1.657234
vt 0.7709258 0.6722775
vt 0.7709016 1.657237
vt 0.7710671 1.664854
vt 0.7787876 1.66244
vt 0.7780523 0.6749296
vt 0.7788175 0.6670594
vt 0.7893916 0.6742868
vt 0.7878565 0.6818571
vt 0.7780282 1.654583
vt 0.7878329 1.647657
vt 0.7893793 1.655222
vt 0.4200308 1.146457
vt 0.4341899 1.138199
vt 0.4313716 1.127584
vt 0.4180411 1.134953
vt 0.4193482 0.9313848
vt 0.4071952 1.138391
vt 0.4082552 1.150136
vt 0.3108791 1.156061
vt 0.4047515 0.9222164
vt 0.4208296 0.9197384
vt 0.3936352 0.9188312
vt 0.3108889 1.144226
vt 0.4040893 0.91033
vt 0.4266452 0.9085599
vt 0.4075374 0.8985362
vt 0.3933466 0.8956018
vt 0.393243 0.9074318
vt 0.3087186 0.9237868
vt 0.3083916 0.9121627
vt 0.3077407 0.9002439
vt 0.2958674 0.9023493
vt 0.2991739 1.144739
vt 0.3001446 1.154945
vt 0.2879416 1.155722
vt 0.2872837 1.145117
vt 0.2853022 0.9247146
vt 0.297069 0.9243583
vt 0.2984206 0.9142911
vt 0.2863395 0.9127721
vt 0.6108192 0.6819455
vt 0.6006669 0.6881319
vt 0.6038173 0.6958268
vt 0.6130346 0.6896691
vt 0.6053721 0.7040817
vt 0.6198387 0.687238
vt 0.6194267 0.6796432
vt 0.6824719 0.6795086
vt 0.6130542 0.6974486
vt 0.6053006 1.659916
vt 0.6201231 0.6946176
vt 0.6825146 0.687162
vt 0.6129821 1.666554
vt 0.6037427 1.668174
vt 0.6200507 1.669387
vt 0.6129612 1.674336
vt 0.6005872 1.675869
vt 0.610742 1.682061
vt 0.6193522 1.684365
vt 0.6197651 1.676768
vt 0.6824746 0.6946195
vt 0.688846 0.6882226
vt 0.6901171 0.6804276
vt 0.6964557 0.6868716
vt 0.6898566 0.6946177
vt 0.6972527 0.6945994
vt 0.6972838 1.669161
vt 0.6824332 1.676849
vt 0.6823962 1.684502
vt 0.6900881 1.683569
vt 0.6823924 1.669394
vt 0.6897903 1.669281
vt 0.6887701 1.675731
vt 0.6964813 1.67702
vn 0.850915 -0.1588451 0.5007114
vn 0.869738 0.2610434 0.4188221
vn 0.9439818 0.3299944 0.001411347
vn 0.983035 -0.1834079 0.001941063
vn 0.8441998 -0.1777548 0.5056974
vn 0.9830572 -0.1832885 -0.00195626
vn 0.943028 0.3327093 -0.001587287
vn 0.9779343 -0.2089032 0.001971098
vn 0.8546008 -0.1603036 -0.4939232
vn 0.876693 0.2504275 -0.4107255
vn 0.9779163 -0.2089873 -0.001979917
vn 0.8482161 -0.1790545 -0.4984668
vn 0.7584307 -0.6517518 -0.001557147
vn 0.7211632 -0.5566052 -0.4124493
vn 0.7599354 -0.649997 0.001408407
vn 0.7115682 -0.5625265 0.4209925
vn 0.4764897 0.3350791 0.812822
vn 0.869738 0.2610434 0.4188221
vn 0.850915 -0.1588451 0.5007114
vn 0.4935057 -0.08712068 0.8653682
vn 0.09618189 0.4964149 0.8627406
vn 0.4808879 -0.1047864 0.8704979
vn 0.8441998 -0.1777548 0.5056974
vn 0.7115682 -0.5625265 0.4209925
vn 0.0321834 0.009271534 0.9994389
vn 0.02756334 0.5030255 0.8638319
vn 0.3287259 -0.4856708 0.8099774
vn 0.2666959 -0.8691379 0.4165005
vn -0.105561 -0.8581566 0.5024182
vn 0.02587078 -0.01551183 0.9995449
vn -0.05060996 -0.4920645 0.8690864
vn -0.03709114 -0.006033443 0.9992937
vn -0.1287019 -0.4856448 0.86463
vn -0.1840635 -0.8457162 0.5008838
vn -0.8125252 -0.4776441 0.3341542
vn -0.03556323 0.02098297 0.9991472
vn -0.7686008 -0.2419755 0.5921997
vn -0.5792502 0.09949546 0.8090549
vn -0.6173273 0.4728143 0.6287715
vn -0.7824836 0.4062804 0.4718642
vn -0.7706855 0.1222049 0.6253878
vn -0.5652468 0.07359967 0.8216321
vn -0.7726828 0.1116583 0.6248949
vn -0.8910067 -0.1198388 0.4378878
vn -0.924665 -0.3081478 0.2236949
vn 0.2666959 -0.8691379 0.4165005
vn 0.7115682 -0.5625265 0.4209925
vn 0.7599354 -0.649997 0.001408407
vn 0.3486165 -0.9372644 0.001428815
vn -0.105561 -0.8581566 0.5024182
vn 0.3463871 -0.9380904 -0.001524983
vn 0.7584307 -0.6517518 -0.001557147
vn 0.7211632 -0.5566052 -0.4124493
vn 0.278873 -0.8672367 -0.4124687
vn -0.1045562 -0.8585218 -0.5020043
vn -0.1171623 -0.9931109 0.001932114
vn -0.1840635 -0.8457162 0.5008838
vn -0.1173989 -0.9930829 -0.001938659
vn -0.1869497 -0.9823674 0.002057958
vn -0.1869494 -0.9823674 -0.002055812
vn -0.1841076 -0.8459685 -0.5004415
vn -0.8125322 -0.4777968 -0.3339185
vn -0.7125291 -0.7016406 0.001675417
vn -0.8125252 -0.4776441 0.3341542
vn -0.924665 -0.3081478 0.2236949
vn -0.8877209 -0.4603817 0.0005892406
vn -0.7125286 -0.7016411 -0.001673853
vn -0.8877206 -0.4603824 -0.0005884895
vn -0.9246376 -0.3083417 -0.2235414
vn -0.6174338 0.4722223 -0.6291116
vn -0.7825801 0.4058088 -0.4721096
vn -0.7709423 0.1213525 -0.6252372
vn -0.5794365 0.09842398 -0.8090526
vn -0.7729512 0.1108122 -0.6247136
vn -0.0357544 0.01968445 -0.9991667
vn 0.02743231 0.5022697 -0.8642758
vn 0.09705518 0.4954963 -0.8631708
vn -0.5656281 0.07254645 -0.8214633
vn -0.8911173 -0.1202449 -0.4375515
vn -0.03730366 -0.007329907 -0.9992771
vn 0.03248312 0.007901468 -0.9994411
vn -0.7687429 -0.2424563 -0.5918187
vn -0.9246376 -0.3083417 -0.2235414
vn -0.8125322 -0.4777968 -0.3339185
vn -0.1841076 -0.8459685 -0.5004415
vn -0.1287963 -0.4864009 -0.8641908
vn 0.02612966 -0.01692089 -0.9995153
vn -0.04969104 -0.4930532 -0.868579
vn -0.1045562 -0.8585218 -0.5020043
vn 0.278873 -0.8672367 -0.4124687
vn 0.4999937 -0.08955797 -0.8613859
vn 0.4879977 0.3281278 -0.8088204
vn 0.876693 0.2504275 -0.4107255
vn 0.8546008 -0.1603036 -0.4939232
vn 0.8482161 -0.1790545 -0.4984668
vn 0.4875842 -0.1071828 -0.8664719
vn 0.3407193 -0.4850951 -0.8053528
vn 0.7211632 -0.5566052 -0.4124493
vn -0.6173273 0.4728143 0.6287715
vn -0.7824836 0.4062804 0.4718642
vn -0.7211099 0.6443779 0.2545145
vn -0.5542406 0.7463703 0.368441
vn -0.5814971 0.8135481 0.000612371
vn 0.08333591 0.860558 0.5024889
vn 0.02756334 0.5030255 0.8638319
vn 0.09618189 0.4964149 0.8627406
vn -0.3174596 0.9482699 0.001882386
vn -0.5814978 0.8135477 -0.0006151709
vn 0.1224837 0.9924684 0.002081914
vn 0.1500273 0.8549364 0.4965636
vn -0.3174341 0.9482785 -0.001884224
vn -0.721213 0.6442291 -0.2545989
vn 0.1224861 0.9924681 -0.002082599
vn -0.5543389 0.7461904 -0.3686575
vn -0.7825801 0.4058088 -0.4721096
vn -0.6174338 0.4722223 -0.6291116
vn 0.02743231 0.5022697 -0.8642758
vn 0.08329872 0.8603395 -0.5028691
vn 0.1762803 0.9843381 0.00191982
vn 0.5407261 0.7295274 0.418814
vn 0.4764897 0.3350791 0.812822
vn 0.869738 0.2610434 0.4188221
vn 0.6398121 0.76853 0.001444773
vn 0.9439818 0.3299944 0.001411347
vn 0.943028 0.3327093 -0.001587287
vn 0.1509845 0.8545201 -0.4969899
vn 0.09705518 0.4954963 -0.8631708
vn 0.4879977 0.3281278 -0.8088204
vn 0.1760355 0.9843819 -0.001929254
vn 0.6375682 0.7703922 -0.001566319
vn 0.5523345 0.7226686 -0.415544
vn 0.876693 0.2504275 -0.4107255
g VinylEnd4_0
f 3/3/3 2/2/2 1/1/1
f 4/4/4 3/3/3 1/1/1
f 1/1/1 5/5/5 4/4/4
f 4/4/4 6/6/6 3/3/3
f 6/6/6 7/7/7 3/3/3
f 5/5/5 8/8/8 4/4/4
f 4/4/4 8/8/8 6/6/6
f 6/6/6 9/9/9 7/7/7
f 9/9/9 10/10/10 7/7/7
f 6/6/6 11/11/11 9/9/9
f 8/8/8 11/11/11 6/6/6
f 11/11/11 12/12/12 9/9/9
f 11/11/11 13/13/13 12/12/12
f 11/11/11 8/8/8 13/13/13
f 13/13/13 14/14/14 12/12/12
f 8/8/8 15/15/15 13/13/13
f 8/8/8 5/5/5 15/15/15
f 5/5/5 16/16/16 15/15/15
g VinylEnd4_1
f 19/19/19 18/18/18 17/17/17
f 20/20/20 19/19/19 17/17/17
f 20/20/20 17/17/17 21/21/21
f 20/20/20 22/22/22 19/19/19
f 22/22/22 23/23/23 19/19/19
f 23/23/23 22/22/22 24/24/24
f 25/25/25 20/20/20 21/21/21
f 25/25/25 21/21/21 26/26/26
f 22/22/22 27/27/27 24/24/24
f 28/28/28 24/24/24 27/27/27
f 29/29/29 28/28/28 27/27/27
f 30/30/30 22/22/22 20/20/20
f 25/25/25 30/30/30 20/20/20
f 31/31/31 27/27/27 22/22/22
f 31/31/31 29/29/29 27/27/27
f 30/30/30 31/31/31 22/22/22
f 32/32/32 30/30/30 25/25/25
f 30/30/30 32/32/32 31/31/31
f 31/31/31 33/33/33 29/29/29
f 32/32/32 33/33/33 31/31/31
f 33/33/33 34/34/34 29/29/29
f 35/35/35 34/34/34 33/33/33
f 36/36/36 25/25/25 26/26/26
f 36/36/36 32/32/32 25/25/25
f 37/37/37 33/33/33 32/32/32
f 37/37/37 35/35/35 33/33/33
f 38/38/38 36/36/36 26/26/26
f 39/39/39 38/38/38 26/26/26
f 39/39/39 40/40/40 38/38/38
f 40/40/40 41/41/41 38/38/38
f 42/42/42 32/32/32 36/36/36
f 38/38/38 42/42/42 36/36/36
f 38/38/38 41/41/41 42/42/42
f 42/42/42 37/37/37 32/32/32
f 41/41/41 43/43/43 42/42/42
f 42/42/42 43/43/43 37/37/37
f 43/43/43 44/44/44 37/37/37
f 37/37/37 44/44/44 35/35/35
f 44/44/44 45/45/45 35/35/35
f 48/48/48 47/47/47 46/46/46
f 49/49/49 48/48/48 46/46/46
f 49/49/49 46/46/46 50/50/50
f 48/48/48 49/49/49 51/51/51
f 52/52/52 48/48/48 51/51/51
f 52/52/52 51/51/51 53/53/53
f 51/51/51 54/54/54 53/53/53
f 55/55/55 54/54/54 51/51/51
f 56/56/56 49/49/49 50/50/50
f 50/50/50 57/57/57 56/56/56
f 51/51/51 49/49/49 58/58/58
f 58/58/58 55/55/55 51/51/51
f 49/49/49 56/56/56 58/58/58
f 57/57/57 59/59/59 56/56/56
f 58/58/58 56/56/56 59/59/59
f 58/58/58 60/60/60 55/55/55
f 60/60/60 58/58/58 59/59/59
f 60/60/60 61/61/61 55/55/55
f 62/62/62 61/61/61 60/60/60
f 63/63/63 59/59/59 57/57/57
f 64/64/64 63/63/63 57/57/57
f 64/64/64 65/65/65 63/63/63
f 65/65/65 66/66/66 63/63/63
f 60/60/60 59/59/59 67/67/67
f 59/59/59 63/63/63 67/67/67
f 63/63/63 66/66/66 67/67/67
f 67/67/67 62/62/62 60/60/60
f 66/66/66 68/68/68 67/67/67
f 67/67/67 68/68/68 62/62/62
f 68/68/68 69/69/69 62/62/62
f 72/72/72 71/71/71 70/70/70
f 73/73/73 72/72/72 70/70/70
f 74/74/74 72/72/72 73/73/73
f 73/73/73 70/70/70 75/75/75
f 70/70/70 76/76/76 75/75/75
f 75/75/75 76/76/76 77/77/77
f 78/78/78 74/74/74 73/73/73
f 79/79/79 74/74/74 78/78/78
f 75/75/75 80/80/80 73/73/73
f 80/80/80 78/78/78 73/73/73
f 81/81/81 75/75/75 77/77/77
f 80/80/80 75/75/75 81/81/81
f 82/82/82 79/79/79 78/78/78
f 83/83/83 79/79/79 82/82/82
f 84/84/84 83/83/83 82/82/82
f 84/84/84 82/82/82 85/85/85
f 82/82/82 78/78/78 86/86/86
f 78/78/78 80/80/80 86/86/86
f 82/82/82 86/86/86 85/85/85
f 86/86/86 80/80/80 87/87/87
f 87/87/87 80/80/80 81/81/81
f 85/85/85 86/86/86 88/88/88
f 88/88/88 86/86/86 87/87/87
f 89/89/89 85/85/85 88/88/88
f 89/89/89 88/88/88 90/90/90
f 81/81/81 77/77/77 91/91/91
f 77/77/77 92/92/92 91/91/91
f 91/91/91 92/92/92 93/93/93
f 94/94/94 91/91/91 93/93/93
f 94/94/94 95/95/95 91/91/91
f 96/96/96 87/87/87 81/81/81
f 91/91/91 96/96/96 81/81/81
f 87/87/87 96/96/96 88/88/88
f 95/95/95 96/96/96 91/91/91
f 88/88/88 97/97/97 90/90/90
f 96/96/96 97/97/97 88/88/88
f 96/96/96 95/95/95 97/97/97
f 97/97/97 98/98/98 90/90/90
f 95/95/95 98/98/98 97/97/97
f 101/101/101 100/100/100 99/99/99
f 102/102/102 101/101/101 99/99/99
f 103/103/103 101/101/101 102/102/102
f 102/102/102 99/99/99 104/104/104
f 99/99/99 105/105/105 104/104/104
f 105/105/105 106/106/106 104/104/104
f 107/107/107 103/103/103 102/102/102
f 108/108/108 103/103/103 107/107/107
f 104/104/104 109/109/109 102/102/102
f 109/109/109 107/107/107 102/102/102
f 106/106/106 110/110/110 104/104/104
f 104/104/104 110/110/110 109/109/109
f 111/111/111 108/108/108 107/107/107
f 112/112/112 108/108/108 111/111/111
f 107/107/107 109/109/109 113/113/113
f 111/111/111 107/107/107 113/113/113
f 114/114/114 112/112/112 111/111/111
f 115/115/115 112/112/112 114/114/114
f 116/116/116 115/115/115 114/114/114
f 116/116/116 114/114/114 117/117/117
f 114/114/114 111/111/111 118/118/118
f 114/114/114 118/118/118 117/117/117
f 111/111/111 113/113/113 118/118/118
f 109/109/109 119/119/119 113/113/113
f 110/110/110 119/119/119 109/109/109
f 110/110/110 106/106/106 120/120/120
f 106/106/106 121/121/121 120/120/120
f 121/121/121 122/122/122 120/120/120
f 110/110/110 120/120/120 123/123/123
f 123/123/123 120/120/120 122/122/122
f 119/119/119 110/110/110 123/123/123
f 124/124/124 123/123/123 122/122/122
f 124/124/124 125/125/125 123/123/123
f 117/117/117 118/118/118 126/126/126
f 127/127/127 117/117/117 126/126/126
f 127/127/127 126/126/126 128/128/128
f 118/118/118 113/113/113 129/129/129
f 119/119/119 129/129/129 113/113/113
f 126/126/126 118/118/118 129/129/129
f 123/123/123 130/130/130 119/119/119
f 130/130/130 129/129/129 119/119/119
f 125/125/125 130/130/130 123/123/123
f 129/129/129 130/130/130 126/126/126
f 126/126/126 131/131/131 128/128/128
f 130/130/130 131/131/131 126/126/126
f 130/130/130 125/125/125 131/131/131
f 131/131/131 132/132/132 128/128/128
f 125/125/125 132/132/132 131/131/131
