g VinylEnd1
v -24.56872 16.45855 -8.914304
v -24.65039 16.53719 -8.896317
v -24.67674 16.5312 -8.78288
v -24.58968 16.43032 -8.783109
v -22.44125 15.03712 -8.920814
v -24.58415 16.42659 8.776085
v -24.67398 16.52932 8.778087
v -22.46052 15.00764 -8.79272
v -24.56484 16.45601 8.910629
v -24.64816 16.53574 8.893478
v -22.46568 15.01108 8.78277
v -22.44481 15.03942 8.91396
v -22.33509 14.96556 8.782898
v -22.33829 14.99157 8.896203
v -22.33252 14.96384 -8.790992
v -22.33625 14.99028 -8.902481
v -24.59483 16.61306 -8.990468
v -24.65039 16.53719 -8.896317
v -24.56872 16.45855 -8.914304
v -24.51143 16.53571 -9.010344
v -24.54242 16.71395 -9.010206
v -22.38597 15.11577 -9.014577
v -22.44125 15.03712 -8.920814
v -22.33625 14.99028 -8.902481
v -24.43319 16.6411 -9.045498
v -23.87412 17.61505 -9.010206
v -22.2817 15.06719 -8.994806
v -22.204 15.01451 -8.901241
v -22.12034 15.09586 -8.917879
v -22.30949 15.2225 -9.048881
v -22.20029 15.14942 -9.013868
v -21.7209 16.01612 -9.048881
v -21.61582 15.93748 -9.013868
v -21.53858 15.88028 -8.917879
v -21.51194 16.00065 -8.872396
v -23.76952 17.53596 -9.045498
v -21.58726 16.05742 -8.967001
v -23.67383 17.61044 -8.992975
v -23.77694 17.68577 -8.959025
v -23.64704 17.71458 -8.834858
v -23.55313 17.64493 -8.869461
v -21.69087 16.13868 -8.997432
v -21.72615 16.28995 -8.87278
v -21.63215 16.22023 -8.838449
v -21.56331 16.16917 -8.744326
v -22.204 15.01451 -8.901241
v -22.33625 14.99028 -8.902481
v -22.33252 14.96384 -8.790992
v -22.1981 14.98881 -8.788792
v -22.12034 15.09586 -8.917879
v -22.19884 14.9892 8.782899
v -22.33509 14.96556 8.782898
v -22.33829 14.99157 8.896203
v -22.2046 15.01476 8.896212
v -22.12042 15.09569 8.91396
v -22.09111 15.0762 -8.786676
v -21.53858 15.88028 -8.917879
v -22.09122 15.07606 8.782771
v -21.51051 15.85905 -8.786676
v -21.51051 15.85905 8.78277
v -21.53856 15.88025 8.91396
v -21.51191 16.00063 8.86848
v -21.48557 15.98375 -8.739295
v -21.51194 16.00065 -8.872396
v -21.56331 16.16917 -8.744326
v -21.53811 16.15048 -8.615678
v -21.48557 15.98375 8.735388
v -21.53811 16.15048 8.611775
v -21.56329 16.16916 8.740412
v -23.77686 17.6857 8.9588
v -23.64697 17.71451 8.834579
v -23.55301 17.64482 8.869047
v -23.67371 17.61033 8.99261
v -21.72603 16.28985 8.869048
v -23.7694 17.53583 9.045149
v -23.87403 17.61497 9.009997
v -24.54223 16.71402 9.009997
v -21.69073 16.13855 8.993722
v -21.63206 16.22017 8.834579
v -21.72076 16.01602 9.04515
v -24.43296 16.64113 9.045149
v -21.58717 16.05734 8.963137
v -21.56329 16.16916 8.740412
v -21.51191 16.00063 8.86848
v -21.53856 15.88025 8.91396
v -21.61572 15.93741 9.009996
v -22.30945 15.22226 9.04515
v -22.2003 15.14921 9.009997
v -22.12042 15.09569 8.91396
v -22.2046 15.01476 8.896212
v -24.50949 16.53454 9.009114
v -24.59369 16.61242 8.989554
v -24.64816 16.53574 8.893478
v -24.56484 16.45601 8.910629
v -22.44481 15.03942 8.91396
v -22.38763 15.11671 9.009997
v -22.28264 15.06766 8.990292
v -22.33829 14.99157 8.896203
v -23.77694 17.68577 -8.959025
v -23.64704 17.71458 -8.834858
v -23.71577 17.76555 -8.740642
v -23.85144 17.74115 -8.863363
v -23.74092 17.78421 -8.612019
v -23.952 17.67113 -8.914121
v -23.87412 17.61505 -9.010206
v -24.54242 16.71395 -9.010206
v -23.87731 17.76164 -8.731672
v -23.74094 17.7842 8.611776
v -23.98221 17.68934 -8.782944
v -24.62237 16.76724 -8.914121
v -23.87734 17.76163 8.731483
v -23.71576 17.76553 8.740412
v -23.98223 17.68933 8.78277
v -23.85143 17.74111 8.863188
v -23.64697 17.71451 8.834579
v -23.77686 17.6857 8.9588
v -23.87403 17.61497 9.009997
v -23.95198 17.67109 8.91396
v -24.65166 16.7867 -8.782944
v -24.67273 16.66572 -8.896238
v -24.59483 16.61306 -8.990468
v -24.65039 16.53719 -8.896317
v -24.69956 16.66245 -8.78282
v -24.67674 16.5312 -8.78288
v -24.67398 16.52932 8.778087
v -24.62225 16.76735 8.91396
v -24.54223 16.71402 9.009997
v -24.59369 16.61242 8.989554
v -24.65157 16.78682 8.782771
v -24.69879 16.66199 8.780548
v -24.67206 16.66539 8.894902
v -24.64816 16.53574 8.893478
vt 0.3650835 0.5192217
vt 0.3653548 0.5209755
vt 0.3671384 0.5211864
vt 0.3671351 0.5192419
vt 0.364984 0.4805124
vt 0.6327133 0.51914
vt 0.6327441 0.5212039
vt 0.3669923 0.480513
vt 0.6348189 0.519151
vt 0.6345868 0.5209613
vt 0.6328175 0.4806068
vt 0.6348726 0.4805762
vt 0.6328204 0.4785153
vt 0.634632 0.4787416
vt 0.3670176 0.478467
vt 0.3652492 0.478715
vt 0.2702298 0.9758866
vt 0.2847853 0.9774159
vt 0.283103 0.9651225
vt 0.271076 0.9646844
vt 0.2590578 0.976217
vt 0.2724972 0.7389319
vt 0.2843874 0.7390568
vt 0.2832901 0.7269962
vt 0.2590797 0.964039
vt 0.1597192 0.9703679
vt 0.271069 0.7287269
vt 0.2735453 0.7165657
vt 0.2614946 0.7144846
vt 0.2605982 0.7385628
vt 0.260886 0.72667
vt 0.1737788 0.7338085
vt 0.1741304 0.7221442
vt 0.1739724 0.7100593
vt 0.1594636 0.7131143
vt 0.1607809 0.95836
vt 0.1630461 0.7251558
vt 0.1496773 0.9548841
vt 0.1476424 0.9666114
vt 0.1331627 0.9582273
vt 0.1360168 0.9474163
vt 0.162425 0.7373159
vt 0.1475456 0.7467561
vt 0.1459606 0.7348421
vt 0.1399829 0.7234443
vt 0.7090524 0.6655738
vt 0.7011333 0.6652741
vt 0.7008742 0.6720345
vt 0.7085398 0.6721609
vt 0.7160925 0.6646171
vt 0.7087351 1.657244
vt 0.7009817 1.657251
vt 0.7012583 1.664095
vt 0.7092468 1.663859
vt 0.7162917 1.66486
vt 0.7162815 0.6722794
vt 0.7710881 0.6646311
vt 0.7164844 1.657234
vt 0.7709258 0.6722775
vt 0.7709016 1.657237
vt 0.7710671 1.664854
vt 0.7787876 1.66244
vt 0.7780523 0.6749296
vt 0.7788175 0.6670594
vt 0.7893916 0.6742868
vt 0.7878565 0.6818571
vt 0.7780282 1.654583
vt 0.7878329 1.647657
vt 0.7893793 1.655222
vt 0.4200308 1.146457
vt 0.4341899 1.138199
vt 0.4313716 1.127584
vt 0.4180411 1.134953
vt 0.4193482 0.9313848
vt 0.4071952 1.138391
vt 0.4082552 1.150136
vt 0.3108791 1.156061
vt 0.4047515 0.9222164
vt 0.4208296 0.9197384
vt 0.3936352 0.9188312
vt 0.3108889 1.144226
vt 0.4040893 0.91033
vt 0.4266452 0.9085599
vt 0.4075374 0.8985362
vt 0.3933466 0.8956018
vt 0.393243 0.9074318
vt 0.3087186 0.9237868
vt 0.3083916 0.9121627
vt 0.3077407 0.9002439
vt 0.2958674 0.9023493
vt 0.2991739 1.144739
vt 0.3001446 1.154945
vt 0.2879416 1.155722
vt 0.2872837 1.145117
vt 0.2853022 0.9247146
vt 0.297069 0.9243583
vt 0.2984206 0.9142911
vt 0.2863395 0.9127721
vt 0.6108192 0.6819455
vt 0.6006669 0.6881319
vt 0.6038173 0.6958268
vt 0.6130346 0.6896691
vt 0.6053721 0.7040817
vt 0.6198387 0.687238
vt 0.6194267 0.6796432
vt 0.6824719 0.6795086
vt 0.6130542 0.6974486
vt 0.6053006 1.659916
vt 0.6201231 0.6946176
vt 0.6825146 0.687162
vt 0.6129821 1.666554
vt 0.6037427 1.668174
vt 0.6200507 1.669387
vt 0.6129612 1.674336
vt 0.6005872 1.675869
vt 0.610742 1.682061
vt 0.6193522 1.684365
vt 0.6197651 1.676768
vt 0.6824746 0.6946195
vt 0.688846 0.6882226
vt 0.6901171 0.6804276
vt 0.6964557 0.6868716
vt 0.6898566 0.6946177
vt 0.6972527 0.6945994
vt 0.6972838 1.669161
vt 0.6824332 1.676849
vt 0.6823962 1.684502
vt 0.6900881 1.683569
vt 0.6823924 1.669394
vt 0.6897903 1.669281
vt 0.6887701 1.675731
vt 0.6964813 1.67702
vn -0.490286 -0.7133933 -0.5006893
vn -0.8001328 -0.4293956 -0.418816
vn -0.9013909 -0.4330041 -0.00141135
vn -0.5664731 -0.824078 -0.001940957
vn -0.4721826 -0.7220438 -0.5056642
vn -0.566573 -0.8240092 0.001957064
vn -0.9026325 -0.430409 0.001587228
vn -0.5448594 -0.8385251 -0.001970807
vn -0.4918509 -0.7170248 0.4939213
vn -0.7975545 -0.4418447 0.4107068
vn -0.5447873 -0.8385719 0.001980551
vn -0.4740968 -0.7257845 0.4984668
vn -0.07670567 -0.9970526 0.001557841
vn -0.1176326 -0.9033402 0.4124791
vn -0.07901124 -0.9968727 -0.001408451
vn -0.1065441 -0.900788 -0.4209862
vn -0.5739913 -0.09926749 -0.8128222
vn -0.8001328 -0.4293956 -0.418816
vn -0.490286 -0.7133933 -0.5006893
vn -0.28788 -0.4101948 -0.86537
vn -0.4186591 0.2835346 -0.8627472
vn -0.2664713 -0.4137913 -0.8704998
vn -0.4721826 -0.7220438 -0.5056642
vn -0.1065441 -0.900788 -0.4209862
vn -0.02933307 -0.01616338 -0.9994389
vn -0.3747427 0.3366737 -0.8638395
vn 0.110245 -0.5760037 -0.8099788
vn 0.4249672 -0.8036991 -0.416498
vn 0.6807639 -0.5330336 -0.50243
vn -0.007361771 -0.02925205 -0.9995449
vn 0.3833359 -0.3126503 -0.8690819
vn 0.03052014 0.02191973 -0.9992938
vn 0.4340904 -0.2529565 -0.8646262
vn 0.7275615 -0.4687848 -0.5008941
vn 0.9125796 0.2356428 -0.3341721
vn 0.01036088 0.03997019 -0.9991472
vn 0.7150544 0.3714709 -0.5922047
vn 0.3398572 0.4795168 -0.8090494
vn 0.1031538 0.7707071 -0.6287843
vn 0.2670341 0.8402413 -0.4718976
vn 0.4593498 0.6307799 -0.6253914
vn 0.348228 0.4512912 -0.8216285
vn 0.4682122 0.624725 -0.6248968
vn 0.7154581 0.5443823 -0.4379127
vn 0.872297 0.4348049 -0.2237019
vn 0.4249672 -0.8036991 -0.416498
vn -0.1065441 -0.900788 -0.4209862
vn -0.07901124 -0.9968727 -0.001408451
vn 0.4150701 -0.9097884 -0.001428777
vn 0.6807639 -0.5330336 -0.50243
vn 0.4172331 -0.9087983 0.001525312
vn -0.07670567 -0.9970526 0.001557841
vn -0.1176326 -0.9033402 0.4124791
vn 0.4150401 -0.8109232 0.4124867
vn 0.6802931 -0.5339753 0.5020674
vn 0.7842845 -0.6203984 -0.001932354
vn 0.7275615 -0.4687848 -0.5008941
vn 0.7844321 -0.6202117 0.001939194
vn 0.8261123 -0.5635018 -0.002058181
vn 0.8261121 -0.5635021 0.002056398
vn 0.727729 -0.4689277 0.5005172
vn 0.9127029 0.2355262 0.3339174
vn 0.9999776 0.006478864 -0.001675111
vn 0.9125796 0.2356428 -0.3341721
vn 0.872297 0.4348049 -0.2237019
vn 0.9536397 0.30095 -0.0005889475
vn 0.9999776 0.006479103 0.001673621
vn 0.9536399 0.3009496 0.0005883676
vn 0.8724023 0.4346841 0.2235266
vn 0.1036614 0.7703939 0.6290848
vn 0.2674831 0.8399721 0.4721223
vn 0.4601397 0.6303672 0.6252268
vn 0.3407536 0.4789009 0.8090371
vn 0.4690056 0.6243244 0.6247023
vn 0.01141294 0.03918513 0.9991668
vn -0.3741266 0.3362335 0.8642779
vn -0.4186381 0.2822859 0.8631668
vn 0.3492545 0.4508353 0.8214431
vn 0.7158301 0.5441807 0.4375553
vn 0.03158846 0.02115294 0.9992772
vn -0.02857783 -0.01734527 0.9994411
vn 0.7155043 0.3712366 0.5918083
vn 0.8724023 0.4346841 0.2235266
vn 0.9127029 0.2355262 0.3339174
vn 0.727729 -0.4689277 0.5005172
vn 0.4347009 -0.2534096 0.8641868
vn -0.006550522 -0.03043303 0.9995153
vn 0.3833919 -0.3139966 0.8685717
vn 0.6802931 -0.5339753 0.5020674
vn 0.4150401 -0.8109232 0.4124867
vn -0.29077 -0.4165399 0.8613636
vn -0.5771943 -0.1123033 0.8088478
vn -0.7975545 -0.4418447 0.4107068
vn -0.4918509 -0.7170248 0.4939213
vn -0.4740968 -0.7257845 0.4984668
vn -0.2695337 -0.4202387 0.8664589
vn 0.1013127 -0.5840811 0.8053478
vn -0.1176326 -0.9033402 0.4124791
vn 0.1031538 0.7707071 -0.6287843
vn 0.2670341 0.8402413 -0.4718976
vn 0.05545025 0.9654915 -0.2544632
vn -0.1347312 0.9198478 -0.3684122
vn -0.1627387 0.9866691 -0.0006128291
vn -0.6667393 0.5504296 -0.5024799
vn -0.3747427 0.3366737 -0.8638395
vn -0.4186591 0.2835346 -0.8627472
vn -0.4448681 0.8955941 -0.001882018
vn -0.1627381 0.9866692 0.0006144917
vn -0.7876037 0.6161787 -0.002081427
vn -0.709985 0.4993524 -0.4965567
vn -0.4448903 0.8955831 0.001884023
vn 0.05566662 0.9654407 0.2546088
vn -0.787605 0.6161768 0.002082945
vn -0.1344772 0.9197848 0.3686622
vn 0.2674831 0.8399721 0.4721223
vn 0.1036614 0.7703939 0.6290848
vn -0.3741266 0.3362335 0.8642779
vn -0.6665443 0.5502999 0.5028806
vn -0.8199531 0.5724275 -0.001919454
vn -0.8980376 0.1346496 -0.4188054
vn -0.5739913 -0.09926749 -0.8128222
vn -0.8001328 -0.4293956 -0.418816
vn -0.995732 0.09228016 -0.001444792
vn -0.9013909 -0.4330041 -0.00141135
vn -0.9026325 -0.430409 0.001587228
vn -0.7103597 0.4983817 0.4969957
vn -0.4186381 0.2822859 0.8631668
vn -0.5771943 -0.1123033 0.8088478
vn -0.8198105 0.5726316 0.001929546
vn -0.9954585 0.09518387 0.001566192
vn -0.901412 0.1216266 0.4155277
vn -0.7975545 -0.4418447 0.4107068
g VinylEnd1_0
f 3/3/3 2/2/2 1/1/1
f 4/4/4 3/3/3 1/1/1
f 1/1/1 5/5/5 4/4/4
f 4/4/4 6/6/6 3/3/3
f 6/6/6 7/7/7 3/3/3
f 5/5/5 8/8/8 4/4/4
f 4/4/4 8/8/8 6/6/6
f 6/6/6 9/9/9 7/7/7
f 9/9/9 10/10/10 7/7/7
f 6/6/6 11/11/11 9/9/9
f 8/8/8 11/11/11 6/6/6
f 11/11/11 12/12/12 9/9/9
f 11/11/11 13/13/13 12/12/12
f 11/11/11 8/8/8 13/13/13
f 13/13/13 14/14/14 12/12/12
f 8/8/8 15/15/15 13/13/13
f 8/8/8 5/5/5 15/15/15
f 5/5/5 16/16/16 15/15/15
g VinylEnd1_1
f 19/19/19 18/18/18 17/17/17
f 20/20/20 19/19/19 17/17/17
f 20/20/20 17/17/17 21/21/21
f 20/20/20 22/22/22 19/19/19
f 22/22/22 23/23/23 19/19/19
f 23/23/23 22/22/22 24/24/24
f 25/25/25 20/20/20 21/21/21
f 25/25/25 21/21/21 26/26/26
f 22/22/22 27/27/27 24/24/24
f 28/28/28 24/24/24 27/27/27
f 29/29/29 28/28/28 27/27/27
f 30/30/30 22/22/22 20/20/20
f 25/25/25 30/30/30 20/20/20
f 31/31/31 27/27/27 22/22/22
f 31/31/31 29/29/29 27/27/27
f 30/30/30 31/31/31 22/22/22
f 32/32/32 30/30/30 25/25/25
f 30/30/30 32/32/32 31/31/31
f 31/31/31 33/33/33 29/29/29
f 32/32/32 33/33/33 31/31/31
f 33/33/33 34/34/34 29/29/29
f 35/35/35 34/34/34 33/33/33
f 36/36/36 25/25/25 26/26/26
f 36/36/36 32/32/32 25/25/25
f 37/37/37 33/33/33 32/32/32
f 37/37/37 35/35/35 33/33/33
f 38/38/38 36/36/36 26/26/26
f 39/39/39 38/38/38 26/26/26
f 39/39/39 40/40/40 38/38/38
f 40/40/40 41/41/41 38/38/38
f 42/42/42 32/32/32 36/36/36
f 38/38/38 42/42/42 36/36/36
f 38/38/38 41/41/41 42/42/42
f 42/42/42 37/37/37 32/32/32
f 41/41/41 43/43/43 42/42/42
f 42/42/42 43/43/43 37/37/37
f 43/43/43 44/44/44 37/37/37
f 37/37/37 44/44/44 35/35/35
f 44/44/44 45/45/45 35/35/35
f 48/48/48 47/47/47 46/46/46
f 49/49/49 48/48/48 46/46/46
f 49/49/49 46/46/46 50/50/50
f 48/48/48 49/49/49 51/51/51
f 52/52/52 48/48/48 51/51/51
f 52/52/52 51/51/51 53/53/53
f 51/51/51 54/54/54 53/53/53
f 55/55/55 54/54/54 51/51/51
f 56/56/56 49/49/49 50/50/50
f 50/50/50 57/57/57 56/56/56
f 51/51/51 49/49/49 58/58/58
f 58/58/58 55/55/55 51/51/51
f 49/49/49 56/56/56 58/58/58
f 57/57/57 59/59/59 56/56/56
f 58/58/58 56/56/56 59/59/59
f 58/58/58 60/60/60 55/55/55
f 60/60/60 58/58/58 59/59/59
f 60/60/60 61/61/61 55/55/55
f 62/62/62 61/61/61 60/60/60
f 63/63/63 59/59/59 57/57/57
f 64/64/64 63/63/63 57/57/57
f 64/64/64 65/65/65 63/63/63
f 65/65/65 66/66/66 63/63/63
f 60/60/60 59/59/59 67/67/67
f 59/59/59 63/63/63 67/67/67
f 63/63/63 66/66/66 67/67/67
f 67/67/67 62/62/62 60/60/60
f 66/66/66 68/68/68 67/67/67
f 67/67/67 68/68/68 62/62/62
f 68/68/68 69/69/69 62/62/62
f 72/72/72 71/71/71 70/70/70
f 73/73/73 72/72/72 70/70/70
f 74/74/74 72/72/72 73/73/73
f 73/73/73 70/70/70 75/75/75
f 70/70/70 76/76/76 75/75/75
f 75/75/75 76/76/76 77/77/77
f 78/78/78 74/74/74 73/73/73
f 79/79/79 74/74/74 78/78/78
f 75/75/75 80/80/80 73/73/73
f 80/80/80 78/78/78 73/73/73
f 81/81/81 75/75/75 77/77/77
f 80/80/80 75/75/75 81/81/81
f 82/82/82 79/79/79 78/78/78
f 83/83/83 79/79/79 82/82/82
f 84/84/84 83/83/83 82/82/82
f 84/84/84 82/82/82 85/85/85
f 82/82/82 78/78/78 86/86/86
f 78/78/78 80/80/80 86/86/86
f 82/82/82 86/86/86 85/85/85
f 86/86/86 80/80/80 87/87/87
f 87/87/87 80/80/80 81/81/81
f 85/85/85 86/86/86 88/88/88
f 88/88/88 86/86/86 87/87/87
f 89/89/89 85/85/85 88/88/88
f 89/89/89 88/88/88 90/90/90
f 81/81/81 77/77/77 91/91/91
f 77/77/77 92/92/92 91/91/91
f 91/91/91 92/92/92 93/93/93
f 94/94/94 91/91/91 93/93/93
f 94/94/94 95/95/95 91/91/91
f 96/96/96 87/87/87 81/81/81
f 91/91/91 96/96/96 81/81/81
f 87/87/87 96/96/96 88/88/88
f 95/95/95 96/96/96 91/91/91
f 88/88/88 97/97/97 90/90/90
f 96/96/96 97/97/97 88/88/88
f 96/96/96 95/95/95 97/97/97
f 97/97/97 98/98/98 90/90/90
f 95/95/95 98/98/98 97/97/97
f 101/101/101 100/100/100 99/99/99
f 102/102/102 101/101/101 99/99/99
f 103/103/103 101/101/101 102/102/102
f 102/102/102 99/99/99 104/104/104
f 99/99/99 105/105/105 104/104/104
f 105/105/105 106/106/106 104/104/104
f 107/107/107 103/103/103 102/102/102
f 108/108/108 103/103/103 107/107/107
f 104/104/104 109/109/109 102/102/102
f 109/109/109 107/107/107 102/102/102
f 106/106/106 110/110/110 104/104/104
f 104/104/104 110/110/110 109/109/109
f 111/111/111 108/108/108 107/107/107
f 112/112/112 108/108/108 111/111/111
f 107/107/107 109/109/109 113/113/113
f 111/111/111 107/107/107 113/113/113
f 114/114/114 112/112/112 111/111/111
f 115/115/115 112/112/112 114/114/114
f 116/116/116 115/115/115 114/114/114
f 116/116/116 114/114/114 117/117/117
f 114/114/114 111/111/111 118/118/118
f 114/114/114 118/118/118 117/117/117
f 111/111/111 113/113/113 118/118/118
f 109/109/109 119/119/119 113/113/113
f 110/110/110 119/119/119 109/109/109
f 110/110/110 106/106/106 120/120/120
f 106/106/106 121/121/121 120/120/120
f 121/121/121 122/122/122 120/120/120
f 110/110/110 120/120/120 123/123/123
f 123/123/123 120/120/120 122/122/122
f 119/119/119 110/110/110 123/123/123
f 124/124/124 123/123/123 122/122/122
f 124/124/124 125/125/125 123/123/123
f 117/117/117 118/118/118 126/126/126
f 127/127/127 117/117/117 126/126/126
f 127/127/127 126/126/126 128/128/128
f 118/118/118 113/113/113 129/129/129
f 119/119/119 129/129/129 113/113/113
f 126/126/126 118/118/118 129/129/129
f 123/123/123 130/130/130 119/119/119
f 130/130/130 129/129/129 119/119/119
f 125/125/125 130/130/130 123/123/123
f 129/129/129 130/130/130 126/126/126
f 126/126/126 131/131/131 128/128/128
f 130/130/130 131/131/131 126/126/126
f 130/130/130 125/125/125 131/131/131
f 131/131/131 132/132/132 128/128/128
f 125/125/125 132/132/132 131/131/131
