g VinylEnd7
v 8.50778 28.32176 8.914303
v 8.520893 28.43442 8.896317
v 8.545025 28.44652 8.78288
v 8.541931 28.3133 8.78311
v 7.7687 25.87222 8.920814
v 8.540031 28.30691 -8.776086
v 8.544065 28.4433 -8.778087
v 7.802315 25.86171 8.79272
v 8.506414 28.31735 -8.910629
v 8.520077 28.43186 -8.893478
v 7.804108 25.86765 -8.78277
v 7.769986 25.87626 -8.91396
v 7.732224 25.74951 -8.782898
v 7.718161 25.77162 -8.896202
v 7.731326 25.74655 8.790991
v 7.71741 25.76933 8.90248
v 8.429771 28.45767 8.990468
v 8.520893 28.43442 8.896317
v 8.50778 28.32176 8.914303
v 8.414536 28.34494 9.010345
v 8.32517 28.50225 9.010206
v 7.676039 25.89781 9.014577
v 7.7687 25.87222 8.920814
v 7.71741 25.76933 8.90248
v 8.287144 28.37658 9.045497
v 7.23651 28.77319 9.010206
v 7.626401 25.79403 8.994806
v 7.599901 25.70398 8.901241
v 7.483613 25.71362 8.917879
v 7.549159 25.9316 9.048882
v 7.511296 25.80577 9.013868
v 6.590339 26.17023 9.048882
v 6.559191 26.04273 9.013868
v 6.535917 25.94948 8.917879
v 6.43884 26.02548 8.872396
v 7.206021 28.64565 9.045498
v 6.460914 26.11718 8.967001
v 7.084802 28.64233 8.992974
v 7.116531 28.76603 8.959024
v 6.997969 28.70567 8.834858
v 6.969694 28.59225 8.869462
v 6.489262 26.24577 8.997433
v 6.420359 26.38498 8.872779
v 6.392096 26.27141 8.838449
v 6.3714 26.18824 8.744327
v 7.599901 25.70398 8.901241
v 7.71741 25.76933 8.90248
v 7.731326 25.74655 8.790991
v 7.611681 25.68039 8.788793
v 7.483613 25.71362 8.917879
v 7.611999 25.68116 -8.782898
v 7.732224 25.74951 -8.782898
v 7.718161 25.77162 -8.896202
v 7.600201 25.70456 -8.896211
v 7.483779 25.71354 -8.91396
v 7.473541 25.67986 8.786676
v 6.535917 25.94948 8.917879
v 7.47371 25.67982 -8.78277
v 6.52774 25.91525 8.786675
v 6.527738 25.91525 -8.782771
v 6.535912 25.94945 -8.91396
v 6.438835 26.02545 -8.86848
v 6.429223 25.99567 8.739295
v 6.43884 26.02548 8.872396
v 6.3714 26.18824 8.744327
v 6.363821 26.15779 8.615677
v 6.429221 25.99567 -8.735389
v 6.363821 26.15779 -8.611776
v 6.371392 26.18821 -8.740412
v 7.11652 28.76592 -8.958801
v 6.997928 28.70562 -8.834579
v 6.969674 28.59209 -8.869047
v 7.084781 28.64217 -8.99261
v 6.420321 26.38483 -8.869048
v 7.206038 28.64543 -9.045149
v 7.236491 28.77308 -9.009997
v 8.324987 28.50218 -9.009997
v 6.489233 26.24558 -8.993721
v 6.392069 26.27131 -8.834579
v 6.590297 26.17006 -9.045149
v 8.286951 28.37645 -9.04515
v 6.460891 26.11706 -8.963136
v 6.371392 26.18821 -8.740412
v 6.438835 26.02545 -8.86848
v 6.535912 25.94945 -8.91396
v 6.559196 26.04258 -9.009996
v 7.549282 25.93139 -9.045149
v 7.511438 25.80562 -9.009997
v 7.483779 25.71354 -8.91396
v 7.600201 25.70456 -8.896211
v 8.413791 28.34281 -9.009114
v 8.42929 28.45645 -8.989553
v 8.520077 28.43186 -8.893478
v 8.506414 28.31735 -8.910629
v 7.769986 25.87626 -8.91396
v 7.676716 25.8996 -9.009997
v 7.626832 25.79499 -8.990292
v 7.718161 25.77162 -8.896202
v 7.116531 28.76603 8.959024
v 6.997969 28.70567 8.834858
v 7.018601 28.78875 8.740643
v 7.138858 28.85613 8.863362
v 7.026148 28.81916 8.612019
v 7.260995 28.86598 8.914121
v 7.23651 28.77319 9.010206
v 8.32517 28.50225 9.010206
v 7.145805 28.8884 8.731671
v 7.026183 28.81914 -8.611776
v 7.272733 28.89924 8.782945
v 8.353029 28.5942 8.914121
v 7.145831 28.8884 -8.731483
v 7.018609 28.78872 -8.740411
v 7.272768 28.89925 -8.782771
v 7.138869 28.8561 -8.863188
v 6.997928 28.70562 -8.834579
v 7.11652 28.76592 -8.958801
v 7.236491 28.77308 -9.009997
v 7.261003 28.86595 -8.91396
v 8.363263 28.6279 8.782944
v 8.456441 28.54783 8.896238
v 8.429771 28.45767 8.990468
v 8.520893 28.43442 8.896317
v 8.47923 28.56236 8.78282
v 8.545025 28.44652 8.78288
v 8.544065 28.4433 -8.778087
v 8.352872 28.59421 -8.91396
v 8.324987 28.50218 -9.009997
v 8.42929 28.45645 -8.989553
v 8.363134 28.62787 -8.78277
v 8.478901 28.56149 -8.780549
v 8.456131 28.54715 -8.894902
v 8.520077 28.43186 -8.893478
vt 0.3650835 0.5192217
vt 0.3653548 0.5209755
vt 0.3671384 0.5211864
vt 0.3671351 0.5192419
vt 0.364984 0.4805124
vt 0.6327133 0.51914
vt 0.6327441 0.5212039
vt 0.3669923 0.480513
vt 0.6348189 0.519151
vt 0.6345868 0.5209613
vt 0.6328175 0.4806068
vt 0.6348726 0.4805762
vt 0.6328204 0.4785153
vt 0.634632 0.4787416
vt 0.3670176 0.478467
vt 0.3652492 0.478715
vt 0.2702298 0.9758866
vt 0.2847853 0.9774159
vt 0.283103 0.9651225
vt 0.271076 0.9646844
vt 0.2590578 0.976217
vt 0.2724972 0.7389319
vt 0.2843874 0.7390568
vt 0.2832901 0.7269962
vt 0.2590797 0.964039
vt 0.1597192 0.9703679
vt 0.271069 0.7287269
vt 0.2735453 0.7165657
vt 0.2614946 0.7144846
vt 0.2605982 0.7385628
vt 0.260886 0.72667
vt 0.1737788 0.7338085
vt 0.1741304 0.7221442
vt 0.1739724 0.7100593
vt 0.1594636 0.7131143
vt 0.1607809 0.95836
vt 0.1630461 0.7251558
vt 0.1496773 0.9548841
vt 0.1476424 0.9666114
vt 0.1331627 0.9582273
vt 0.1360168 0.9474163
vt 0.162425 0.7373159
vt 0.1475456 0.7467561
vt 0.1459606 0.7348421
vt 0.1399829 0.7234443
vt 0.7090524 0.6655738
vt 0.7011333 0.6652741
vt 0.7008742 0.6720345
vt 0.7085398 0.6721609
vt 0.7160925 0.6646171
vt 0.7087351 1.657244
vt 0.7009817 1.657251
vt 0.7012583 1.664095
vt 0.7092468 1.663859
vt 0.7162917 1.66486
vt 0.7162815 0.6722794
vt 0.7710881 0.6646311
vt 0.7164844 1.657234
vt 0.7709258 0.6722775
vt 0.7709016 1.657237
vt 0.7710671 1.664854
vt 0.7787876 1.66244
vt 0.7780523 0.6749296
vt 0.7788175 0.6670594
vt 0.7893916 0.6742868
vt 0.7878565 0.6818571
vt 0.7780282 1.654583
vt 0.7878329 1.647657
vt 0.7893793 1.655222
vt 0.4200308 1.146457
vt 0.4341899 1.138199
vt 0.4313716 1.127584
vt 0.4180411 1.134953
vt 0.4193482 0.9313848
vt 0.4071952 1.138391
vt 0.4082552 1.150136
vt 0.3108791 1.156061
vt 0.4047515 0.9222164
vt 0.4208296 0.9197384
vt 0.3936352 0.9188312
vt 0.3108889 1.144226
vt 0.4040893 0.91033
vt 0.4266452 0.9085599
vt 0.4075374 0.8985362
vt 0.3933466 0.8956018
vt 0.393243 0.9074318
vt 0.3087186 0.9237868
vt 0.3083916 0.9121627
vt 0.3077407 0.9002439
vt 0.2958674 0.9023493
vt 0.2991739 1.144739
vt 0.3001446 1.154945
vt 0.2879416 1.155722
vt 0.2872837 1.145117
vt 0.2853022 0.9247146
vt 0.297069 0.9243583
vt 0.2984206 0.9142911
vt 0.2863395 0.9127721
vt 0.6108192 0.6819455
vt 0.6006669 0.6881319
vt 0.6038173 0.6958268
vt 0.6130346 0.6896691
vt 0.6053721 0.7040817
vt 0.6198387 0.687238
vt 0.6194267 0.6796432
vt 0.6824719 0.6795086
vt 0.6130542 0.6974486
vt 0.6053006 1.659916
vt 0.6201231 0.6946176
vt 0.6825146 0.687162
vt 0.6129821 1.666554
vt 0.6037427 1.668174
vt 0.6200507 1.669387
vt 0.6129612 1.674336
vt 0.6005872 1.675869
vt 0.610742 1.682061
vt 0.6193522 1.684365
vt 0.6197651 1.676768
vt 0.6824746 0.6946195
vt 0.688846 0.6882226
vt 0.6901171 0.6804276
vt 0.6964557 0.6868716
vt 0.6898566 0.6946177
vt 0.6972527 0.6945994
vt 0.6972838 1.669161
vt 0.6824332 1.676849
vt 0.6823962 1.684502
vt 0.6900881 1.683569
vt 0.6823924 1.669394
vt 0.6897903 1.669281
vt 0.6887701 1.675731
vt 0.6964813 1.67702
vn 0.8319291 -0.2391707 0.500691
vn 0.8906772 0.1769398 0.4187916
vn 0.9711092 0.2386317 0.001409893
vn 0.9610991 -0.2761968 0.001941203
vn 0.8234531 -0.2573493 0.5056642
vn 0.9611326 -0.2760801 -0.001956998
vn 0.9704182 0.2414251 -0.001587417
vn 0.9535936 -0.3010904 0.00197125
vn 0.8354523 -0.2409749 -0.4939135
vn 0.8965995 0.1658245 -0.4106234
vn 0.9535676 -0.3011723 -0.001980481
vn 0.8273143 -0.2590242 -0.4984551
vn 0.6929161 -0.7210165 -0.001557794
vn 0.6649532 -0.6226618 -0.4124675
vn 0.6945811 -0.7194131 0.001408365
vn 0.6547704 -0.6277313 0.4209857
vn 0.5062271 0.2881328 0.812843
vn 0.8906772 0.1769398 0.4187916
vn 0.8319291 -0.2391707 0.500691
vn 0.4829624 -0.1337249 0.8653699
vn 0.1430172 0.4849854 0.8627487
vn 0.4687305 -0.1501111 0.8704932
vn 0.8234531 -0.2573493 0.5056642
vn 0.6547704 -0.6277313 0.4209857
vn 0.03291975 0.00616454 0.9994389
vn 0.07534222 0.4981011 0.8638396
vn 0.2809661 -0.5147832 0.809973
vn 0.1827087 -0.8905924 0.4164885
vn -0.1868074 -0.8441942 0.5024332
vn 0.02427565 -0.01790494 0.9995449
vn -0.09724662 -0.4850187 0.8690799
vn -0.03749475 -0.002474056 0.9992938
vn -0.1743692 -0.4711909 0.8646239
vn -0.2637678 -0.8243348 0.500898
vn -0.8543186 -0.3980808 0.3341728
vn -0.03340326 0.02427453 0.9991472
vn -0.7881484 -0.1676734 0.5922058
vn -0.5671496 0.1542147 0.8090482
vn -0.5695158 0.5294574 0.6287501
vn -0.740267 0.4789454 0.4718221
vn -0.7555453 0.1950501 0.6253853
vn -0.5556717 0.1270996 0.8216293
vn -0.7585365 0.1847398 0.6248949
vn -0.898358 -0.03443253 0.4379123
vn -0.9498019 -0.2187105 0.223701
vn 0.1827087 -0.8905924 0.4164885
vn 0.6547704 -0.6277313 0.4209857
vn 0.6945811 -0.7194131 0.001408365
vn 0.2577717 -0.9662048 0.001428854
vn -0.1868074 -0.8441942 0.5024332
vn 0.2554734 -0.9668149 -0.001525286
vn 0.6929161 -0.7210165 -0.001557794
vn 0.6649532 -0.6226618 -0.4124675
vn 0.194959 -0.88986 -0.4124804
vn -0.185844 -0.8446498 -0.5020248
vn -0.211202 -0.9774405 0.001932413
vn -0.2637678 -0.8243348 0.500898
vn -0.2114348 -0.9773901 -0.001939343
vn -0.2796564 -0.9600979 0.002058211
vn -0.279656 -0.960098 -0.002056545
vn -0.2638265 -0.8245824 -0.5004593
vn -0.8543418 -0.398234 -0.3339306
vn -0.7761527 -0.6305428 0.001675145
vn -0.8543186 -0.3980808 0.3341728
vn -0.9498019 -0.2187105 0.223701
vn -0.927532 -0.3737434 0.0005889739
vn -0.7761527 -0.6305428 -0.001673592
vn -0.9275318 -0.3737437 -0.0005883621
vn -0.9498086 -0.2188586 -0.2235273
vn -0.5696403 0.5288668 -0.6291342
vn -0.740369 0.4784991 -0.4721149
vn -0.7558787 0.1942239 -0.6252394
vn -0.5674198 0.1531599 -0.8090592
vn -0.7588826 0.1839229 -0.6247156
vn -0.0337217 0.02300151 -0.9991665
vn 0.07513507 0.4973565 -0.8642865
vn 0.1437867 0.4839841 -0.8631829
vn -0.5561306 0.1260825 -0.8214755
vn -0.898517 -0.03481132 -0.4375563
vn -0.03783382 -0.003743472 -0.9992771
vn 0.03308837 0.004771164 -0.999441
vn -0.7883303 -0.168135 -0.5918326
vn -0.9498086 -0.2188586 -0.2235273
vn -0.8543418 -0.398234 -0.3339306
vn -0.2638265 -0.8245824 -0.5004593
vn -0.1745341 -0.4719377 -0.8641832
vn 0.02439894 -0.01933271 -0.9995153
vn -0.09642369 -0.4860894 -0.8685733
vn -0.185844 -0.8446498 -0.5020248
vn 0.194959 -0.88986 -0.4124804
vn 0.4892295 -0.136786 -0.8613617
vn 0.5169919 0.2801606 -0.8088446
vn 0.8965995 0.1658245 -0.4106234
vn 0.8354523 -0.2409749 -0.4939135
vn 0.8273143 -0.2590242 -0.4984551
vn 0.4751815 -0.1531394 -0.8664588
vn 0.2930052 -0.5153316 -0.8053454
vn 0.6649532 -0.6226618 -0.4124675
vn -0.5695158 0.5294574 0.6287501
vn -0.740267 0.4789454 0.4718221
vn -0.6564957 0.7100886 0.2545339
vn -0.48066 0.7957473 0.3684458
vn -0.5013754 0.8652297 0.000612521
vn 0.1649074 0.8486848 0.5025331
vn 0.07534222 0.4981011 0.8638396
vn 0.1430172 0.4849854 0.8627487
vn -0.2257059 0.9741936 0.001882363
vn -0.5013759 0.8652294 -0.0006151719
vn 0.2164266 0.9762966 0.002081371
vn 0.2307563 0.8367249 0.4966316
vn -0.2256818 0.9741992 -0.001884218
vn -0.6565793 0.7099856 -0.2546057
vn 0.2164281 0.9762962 -0.002083993
vn -0.4807596 0.7955896 -0.3686563
vn -0.740369 0.4784991 -0.4721149
vn -0.5696403 0.5288668 -0.6291342
vn 0.07513507 0.4973565 -0.8642865
vn 0.1648519 0.8484843 -0.50289
vn 0.2692334 0.9630731 0.001919495
vn 0.6077381 0.6747249 0.4188088
vn 0.5062271 0.2881328 0.812843
vn 0.8906772 0.1769398 0.4187916
vn 0.7101755 0.7040232 0.001442943
vn 0.9711092 0.2386317 0.001409893
vn 0.9704182 0.2414251 -0.001587417
vn 0.2316802 0.8362486 -0.4970036
vn 0.1437867 0.4839841 -0.8631829
vn 0.5169919 0.2801606 -0.8088446
vn 0.2689939 0.96314 -0.001930685
vn 0.7081205 0.7060899 -0.00156691
vn 0.6186856 0.6668052 -0.4154503
vn 0.8965995 0.1658245 -0.4106234
g VinylEnd7_0
f 3/3/3 2/2/2 1/1/1
f 4/4/4 3/3/3 1/1/1
f 1/1/1 5/5/5 4/4/4
f 4/4/4 6/6/6 3/3/3
f 6/6/6 7/7/7 3/3/3
f 5/5/5 8/8/8 4/4/4
f 4/4/4 8/8/8 6/6/6
f 6/6/6 9/9/9 7/7/7
f 9/9/9 10/10/10 7/7/7
f 6/6/6 11/11/11 9/9/9
f 8/8/8 11/11/11 6/6/6
f 11/11/11 12/12/12 9/9/9
f 11/11/11 13/13/13 12/12/12
f 11/11/11 8/8/8 13/13/13
f 13/13/13 14/14/14 12/12/12
f 8/8/8 15/15/15 13/13/13
f 8/8/8 5/5/5 15/15/15
f 5/5/5 16/16/16 15/15/15
g VinylEnd7_1
f 19/19/19 18/18/18 17/17/17
f 20/20/20 19/19/19 17/17/17
f 20/20/20 17/17/17 21/21/21
f 20/20/20 22/22/22 19/19/19
f 22/22/22 23/23/23 19/19/19
f 23/23/23 22/22/22 24/24/24
f 25/25/25 20/20/20 21/21/21
f 25/25/25 21/21/21 26/26/26
f 22/22/22 27/27/27 24/24/24
f 28/28/28 24/24/24 27/27/27
f 29/29/29 28/28/28 27/27/27
f 30/30/30 22/22/22 20/20/20
f 25/25/25 30/30/30 20/20/20
f 31/31/31 27/27/27 22/22/22
f 31/31/31 29/29/29 27/27/27
f 30/30/30 31/31/31 22/22/22
f 32/32/32 30/30/30 25/25/25
f 30/30/30 32/32/32 31/31/31
f 31/31/31 33/33/33 29/29/29
f 32/32/32 33/33/33 31/31/31
f 33/33/33 34/34/34 29/29/29
f 35/35/35 34/34/34 33/33/33
f 36/36/36 25/25/25 26/26/26
f 36/36/36 32/32/32 25/25/25
f 37/37/37 33/33/33 32/32/32
f 37/37/37 35/35/35 33/33/33
f 38/38/38 36/36/36 26/26/26
f 39/39/39 38/38/38 26/26/26
f 39/39/39 40/40/40 38/38/38
f 40/40/40 41/41/41 38/38/38
f 42/42/42 32/32/32 36/36/36
f 38/38/38 42/42/42 36/36/36
f 38/38/38 41/41/41 42/42/42
f 42/42/42 37/37/37 32/32/32
f 41/41/41 43/43/43 42/42/42
f 42/42/42 43/43/43 37/37/37
f 43/43/43 44/44/44 37/37/37
f 37/37/37 44/44/44 35/35/35
f 44/44/44 45/45/45 35/35/35
f 48/48/48 47/47/47 46/46/46
f 49/49/49 48/48/48 46/46/46
f 49/49/49 46/46/46 50/50/50
f 48/48/48 49/49/49 51/51/51
f 52/52/52 48/48/48 51/51/51
f 52/52/52 51/51/51 53/53/53
f 51/51/51 54/54/54 53/53/53
f 55/55/55 54/54/54 51/51/51
f 56/56/56 49/49/49 50/50/50
f 50/50/50 57/57/57 56/56/56
f 51/51/51 49/49/49 58/58/58
f 58/58/58 55/55/55 51/51/51
f 49/49/49 56/56/56 58/58/58
f 57/57/57 59/59/59 56/56/56
f 58/58/58 56/56/56 59/59/59
f 58/58/58 60/60/60 55/55/55
f 60/60/60 58/58/58 59/59/59
f 60/60/60 61/61/61 55/55/55
f 62/62/62 61/61/61 60/60/60
f 63/63/63 59/59/59 57/57/57
f 64/64/64 63/63/63 57/57/57
f 64/64/64 65/65/65 63/63/63
f 65/65/65 66/66/66 63/63/63
f 60/60/60 59/59/59 67/67/67
f 59/59/59 63/63/63 67/67/67
f 63/63/63 66/66/66 67/67/67
f 67/67/67 62/62/62 60/60/60
f 66/66/66 68/68/68 67/67/67
f 67/67/67 68/68/68 62/62/62
f 68/68/68 69/69/69 62/62/62
f 72/72/72 71/71/71 70/70/70
f 73/73/73 72/72/72 70/70/70
f 74/74/74 72/72/72 73/73/73
f 73/73/73 70/70/70 75/75/75
f 70/70/70 76/76/76 75/75/75
f 75/75/75 76/76/76 77/77/77
f 78/78/78 74/74/74 73/73/73
f 79/79/79 74/74/74 78/78/78
f 75/75/75 80/80/80 73/73/73
f 80/80/80 78/78/78 73/73/73
f 81/81/81 75/75/75 77/77/77
f 80/80/80 75/75/75 81/81/81
f 82/82/82 79/79/79 78/78/78
f 83/83/83 79/79/79 82/82/82
f 84/84/84 83/83/83 82/82/82
f 84/84/84 82/82/82 85/85/85
f 82/82/82 78/78/78 86/86/86
f 78/78/78 80/80/80 86/86/86
f 82/82/82 86/86/86 85/85/85
f 86/86/86 80/80/80 87/87/87
f 87/87/87 80/80/80 81/81/81
f 85/85/85 86/86/86 88/88/88
f 88/88/88 86/86/86 87/87/87
f 89/89/89 85/85/85 88/88/88
f 89/89/89 88/88/88 90/90/90
f 81/81/81 77/77/77 91/91/91
f 77/77/77 92/92/92 91/91/91
f 91/91/91 92/92/92 93/93/93
f 94/94/94 91/91/91 93/93/93
f 94/94/94 95/95/95 91/91/91
f 96/96/96 87/87/87 81/81/81
f 91/91/91 96/96/96 81/81/81
f 87/87/87 96/96/96 88/88/88
f 95/95/95 96/96/96 91/91/91
f 88/88/88 97/97/97 90/90/90
f 96/96/96 97/97/97 88/88/88
f 96/96/96 95/95/95 97/97/97
f 97/97/97 98/98/98 90/90/90
f 95/95/95 98/98/98 97/97/97
f 101/101/101 100/100/100 99/99/99
f 102/102/102 101/101/101 99/99/99
f 103/103/103 101/101/101 102/102/102
f 102/102/102 99/99/99 104/104/104
f 99/99/99 105/105/105 104/104/104
f 105/105/105 106/106/106 104/104/104
f 107/107/107 103/103/103 102/102/102
f 108/108/108 103/103/103 107/107/107
f 104/104/104 109/109/109 102/102/102
f 109/109/109 107/107/107 102/102/102
f 106/106/106 110/110/110 104/104/104
f 104/104/104 110/110/110 109/109/109
f 111/111/111 108/108/108 107/107/107
f 112/112/112 108/108/108 111/111/111
f 107/107/107 109/109/109 113/113/113
f 111/111/111 107/107/107 113/113/113
f 114/114/114 112/112/112 111/111/111
f 115/115/115 112/112/112 114/114/114
f 116/116/116 115/115/115 114/114/114
f 116/116/116 114/114/114 117/117/117
f 114/114/114 111/111/111 118/118/118
f 114/114/114 118/118/118 117/117/117
f 111/111/111 113/113/113 118/118/118
f 109/109/109 119/119/119 113/113/113
f 110/110/110 119/119/119 109/109/109
f 110/110/110 106/106/106 120/120/120
f 106/106/106 121/121/121 120/120/120
f 121/121/121 122/122/122 120/120/120
f 110/110/110 120/120/120 123/123/123
f 123/123/123 120/120/120 122/122/122
f 119/119/119 110/110/110 123/123/123
f 124/124/124 123/123/123 122/122/122
f 124/124/124 125/125/125 123/123/123
f 117/117/117 118/118/118 126/126/126
f 127/127/127 117/117/117 126/126/126
f 127/127/127 126/126/126 128/128/128
f 118/118/118 113/113/113 129/129/129
f 119/119/119 129/129/129 113/113/113
f 126/126/126 118/118/118 129/129/129
f 123/123/123 130/130/130 119/119/119
f 130/130/130 129/129/129 119/119/119
f 125/125/125 130/130/130 123/123/123
f 129/129/129 130/130/130 126/126/126
f 126/126/126 131/131/131 128/128/128
f 130/130/130 131/131/131 126/126/126
f 130/130/130 125/125/125 131/131/131
f 131/131/131 132/132/132 128/128/128
f 125/125/125 132/132/132 131/131/131
