g wall22
v 0.3651416 -0.08956299 -0.006631719
v 0.4936603 -0.1409717 0.1862003
v 0.4836554 -0.06369141 0.1654581
v 0.509292 -0.3324438 -0.04621179
v 0.5234662 -0.2262744 0.1746085
v 0.5385107 -0.3646167 0.1752335
v 0.5551257 -0.5390088 0.1693644
v 0.5568707 -0.7117041 -0.008487187
v 0.5440509 -0.7359179 0.1730362
v 0.502406 -0.9383642 0.1661417
v 0.4343658 -1.149097 0.1543937
v 0.2956628 -1.268672 -0.06254969
v 0.3657861 -1.273706 0.1498917
v 0.4161499 -1.400471 0.164921
v 0.488316 -1.661916 0.1516007
v 0.4560101 -1.878286 -0.00977625
v 0.5025738 -1.874595 0.165712
v 0.4865356 -2.036042 0.149755
v 0.3870142 -2.409829 0.1525577
v 0.2432373 -2.495913 -0.03889734
v 0.3222913 -2.49311 0.1790323
v 0.3938153 -2.590718 0.173632
v 0.4753668 -3.106118 -0.01518641
v 0.4544794 -2.854995 0.1792862
v 0.4814856 -3.109944 0.1858878
v 0.4569049 -3.436968 0.2129288
v 0.3123206 -3.680884 -0.01407313
v 0.4157165 -3.590537 0.2558976
v 0.3460718 -3.70331 0.2880265
v 0.2614642 -3.721196 0.2480167
v 0.1666956 -3.731492 0.002176875
v 0.1403473 -3.722026 0.2036124
v 0.2794305 -3.748855 -3.51255
v 0.3577478 -3.664639 -3.523263
v 0.540777 -3.133398 -3.526759
v 0.3268652 -2.520818 -3.526124
v 0.5044891 -1.898083 -3.530294
v 0.2751874 -1.275447 -3.525138
v 0.5326501 -0.7277197 -3.528155
v 0.483219 -0.3582056 -3.521524
v 0.3179657 -0.08224853 -3.509962
v 0.1445648 -3.738142 -6.868926
v 0.2227887 -3.751694 -6.598184
v 0.2389062 -3.753906 -6.834083
v 0.3125806 -3.747813 -6.864326
v 0.3485113 -3.652715 -6.596778
v 0.2794305 -3.748855 -3.51255
v 0.3596148 -3.678484 -6.891944
v 0.3577478 -3.664639 -3.523263
v 0.4766736 -3.396096 -6.954991
v 0.540777 -3.133398 -3.526759
v 0.4936572 -3.159072 -6.560079
v 0.4621619 -3.156518 -6.943428
v 0.3268652 -2.520818 -3.526124
v 0.247287 -2.546067 -6.584835
v 0.4471228 -2.834934 -6.92293
v 0.4103656 -2.649346 -6.875801
v 0.337041 -2.537966 -6.892364
v 0.5044891 -1.898083 -3.530294
v 0.4420471 -1.918 -6.637881
v 0.4275427 -2.364048 -6.892676
v 0.4711822 -2.16488 -6.915362
v 0.4911328 -1.916738 -6.941807
v 0.2751874 -1.275447 -3.525138
v 0.2316949 -1.284558 -6.582881
v 0.4775378 -1.765837 -6.91501
v 0.4312115 -1.513223 -6.871407
v 0.3469531 -1.312729 -6.853243
v 0.5326501 -0.7277197 -3.528155
v 0.4622046 -0.7481298 -6.648018
v 0.4121417 -1.182407 -6.87459
v 0.4655078 -0.9637305 -6.899912
v 0.4860693 -0.7355322 -6.924766
v 0.483219 -0.3582056 -3.521524
v 0.4275421 -0.359414 -6.597305
v 0.3179657 -0.08224853 -3.509962
v 0.4983307 -0.5490234 -6.940088
v 0.3134473 -0.1246777 -6.568087
v 0.4950024 -0.3495044 -6.941289
v 0.4333752 -0.09999023 -6.911426
v 0.4713806 -0.2122827 -6.926348
v 0.45474 -0.1434058 -6.932481
v 0.4836554 -0.06369141 0.1654581
v 0.2288898 -0.02273437 0.09983312
v 0.3651416 -0.08956299 -0.006631719
v 0.1922082 -0.01624268 -0.006592656
v -6.3892E-13 4.547473E-15 -8.593809E-07
v -0.001248779 -0.03048828 0.1103116
v -0.2827087 -0.03225586 0.1325284
v 0.1661597 0.03395752 -3.508722
v 0.3179657 -0.08224853 -3.509962
v -0.02364929 0.08006836 -3.50754
v -0.2416626 0.03930176 -3.503565
v -0.2119763 -0.01619141 0.0007608594
v -0.4003735 -0.1025684 0.01553625
v -0.5032526 -0.07004394 0.2509366
v -0.4142011 -0.0938623 -3.500079
v -0.5571783 -0.3324438 0.01156164
v -0.5352337 -0.1409717 0.255048
v -0.5650982 -0.2262744 0.2552628
v -0.579447 -0.3646167 0.2759366
v -0.5728308 -0.3582056 -3.501173
v -0.6027594 -0.7117041 0.06736242
v -0.5937958 -0.5390088 0.2620499
v -0.5824048 -0.7359179 0.2714835
v -0.542381 -0.9383642 0.2525187
v -0.6224499 -0.7277197 -3.504513
v -0.3461664 -1.268672 -0.01202234
v -0.4766058 -1.149097 0.217255
v -0.4094006 -1.273706 0.1921573
v -0.4585034 -1.400471 0.20288
v -0.3572418 -1.275447 -3.513038
v -0.5034552 -1.878286 0.02570227
v -0.5296313 -1.661919 0.2179581
v -0.5432123 -1.874595 0.2168937
v -0.5276782 -2.036042 0.227714
v -0.5635443 -1.898083 -3.509102
v -0.4298126 -2.409829 0.2127433
v -0.2930249 -2.495913 -0.01153406
v -0.3644171 -2.49311 0.2201456
v -0.3748792 -2.520818 -3.512696
v -0.5213898 -3.106118 0.07388586
v -0.4351935 -2.590718 0.232382
v -0.4931384 -2.854995 0.2899308
v -0.5185864 -3.109944 0.3187589
v -0.5622131 -3.133398 -3.505665
v -0.3661877 -3.680884 0.04876867
v -0.3791834 -3.664639 -3.509161
v -0.4999493 -3.436968 0.3408292
v -0.3009033 -3.748855 -3.502247
v -0.4726245 -3.590537 0.3437101
v -0.4137604 -3.70331 0.3707022
v -0.2152393 -3.731492 0.07870031
v -0.3211261 -3.721194 0.3456241
v -0.1892889 -3.722026 0.3088956
v 0.2411951 -0.05113281 -6.806319
v 0.4333752 -0.09999023 -6.911426
v 0.3134473 -0.1246777 -6.568087
v 0.178421 -0.0285376 -6.533526
v 0.3179657 -0.08224853 -3.509962
v 0.1661597 0.03395752 -3.508722
v -0.02364929 0.08006836 -3.50754
v 0.009949951 0.002373047 -6.515977
v 0.01020508 -0.02275146 -6.728409
v -0.291214 -0.04770019 -6.702383
v -0.2102936 -0.01853271 -6.490196
v -0.2416626 0.03930176 -3.503565
v -0.4142011 -0.0938623 -3.500079
v -0.4018762 -0.1188599 -6.459063
v -0.5401593 -0.1077124 -6.712481
v -0.5306762 -0.359414 -6.426358
v -0.5631695 -0.1434058 -6.711436
v -0.5728308 -0.3582056 -3.501173
v -0.5793683 -0.2122827 -6.706651
v -0.610708 -0.3495044 -6.704893
v -0.6224499 -0.7277197 -3.504513
v -0.5786963 -0.7481298 -6.459307
v -0.6005731 -0.5490234 -6.70918
v -0.5948199 -0.7355322 -6.707364
v -0.59284 -0.9637305 -6.723125
v -0.3572418 -1.275447 -3.513038
v -0.3283746 -1.284558 -6.495166
v -0.5230713 -1.182407 -6.701622
v -0.4526074 -1.312729 -6.687871
v -0.5302337 -1.513223 -6.705118
v -0.5635443 -1.898083 -3.509102
v -0.5448828 -1.918359 -6.497637
v -0.5164032 -1.765837 -6.723741
v -0.5359387 -1.918259 -6.718956
v -0.5173358 -2.170134 -6.738672
v -0.3748792 -2.520818 -3.512696
v -0.340274 -2.546067 -6.516153
v -0.5157513 -2.366353 -6.737745
v -0.4402331 -2.537966 -6.733272
v -0.5211432 -2.649346 -6.750489
v -0.5622131 -3.133398 -3.505665
v -0.5680835 -2.834934 -6.737715
v -0.585741 -3.159072 -6.381495
v -0.5782104 -3.158723 -6.771788
v -0.3791834 -3.664639 -3.509161
v -0.6077484 -3.414424 -6.74002
v -0.4456305 -3.652715 -6.503633
v -0.3009033 -3.748855 -3.502247
v -0.5571026 -3.678484 -6.828262
v -0.5100311 -3.747813 -6.854229
v -0.3348908 -3.751694 -6.531329
v -0.4355328 -3.753906 -6.841299
v -0.3421344 -3.738142 -6.855508
vt 0.02215 0.057013
vt 0.005561 0.063828
vt 0.005236 0.059156
vt 0.02215 0.075024
vt 0.006234 0.06942
vt 0.006647 0.078097
vt 0.008986 0.088632
vt 0.02215 0.098051
vt 0.009668 0.100081
vt 0.007886 0.112482
vt 0.006057 0.126294
vt 0.02215 0.135424
vt 0.005951 0.135634
vt 0.006075 0.144655
vt 0.008053 0.161933
vt 0.02215 0.175186
vt 0.009013 0.17471
vt 0.007942 0.184197
vt 0.004809 0.208232
vt 0.02215 0.215354
vt 0.004876 0.215196
vt 0.004903 0.223112
vt 0.02215 0.255301
vt 0.006972 0.239916
vt 0.008174 0.254976
vt 0.005498 0.273877
vt 0.02215 0.288401
vt 0.003532 0.286823
vt 0.003532 0.286823
vt 0.006653 0.295701
vt 0.02215 0.297088
vt 0.010344 0.303478
vt 0.731273 0.297088
vt 0.731273 0.288401
vt 0.731273 0.255301
vt 0.731273 0.215354
vt 0.731273 0.175186
vt 0.731273 0.135424
vt 0.731273 0.098051
vt 0.731273 0.075024
vt 0.731273 0.057013
vt 0.727241 0.600956
vt 0.712753 0.593202
vt 0.729672 0.59541
vt 0.732691 0.591757
vt 0.712753 0.585562
vt 0.003532 0.593202
vt 0.732139 0.586486
vt 0.003532 0.585562
vt 0.730718 0.569007
vt 0.003532 0.554263
vt 0.712753 0.554263
vt 0.731123 0.554162
vt 0.003532 0.514117
vt 0.712753 0.514117
vt 0.730984 0.534092
vt 0.731794 0.521975
vt 0.732336 0.512851
vt 0.003532 0.473781
vt 0.712753 0.473781
vt 0.730866 0.500498
vt 0.728868 0.488207
vt 0.727486 0.473639
vt 0.003532 0.433472
vt 0.712753 0.433472
vt 0.728442 0.46489
vt 0.730735 0.449167
vt 0.731859 0.434782
vt 0.003532 0.396993
vt 0.712753 0.396993
vt 0.731692 0.42477
vt 0.729705 0.410217
vt 0.727895 0.396643
vt 0.003532 0.373828
vt 0.712753 0.373828
vt 0.003532 0.355956
vt 0.728354 0.386302
vt 0.712753 0.355956
vt 0.730767 0.374986
vt 0.733009 0.359909
vt 0.73244 0.366721
vt 0.733138 0.362495
vt 0.008619 0.003532
vt 0.015257 0.017512
vt 0.02215 0.008005
vt 0.02215 0.019469
vt 0.02215 0.030762
vt 0.01464 0.03094
vt 0.014107 0.047841
vt 0.731273 0.019469
vt 0.731273 0.008005
vt 0.731273 0.030762
vt 0.731273 0.043889
vt 0.02215 0.043889
vt 0.02215 0.057013
vt 0.005236 0.059156
vt 0.731273 0.057013
vt 0.02215 0.075024
vt 0.005561 0.063828
vt 0.006234 0.06942
vt 0.006647 0.078097
vt 0.731273 0.075024
vt 0.02215 0.098051
vt 0.008986 0.088632
vt 0.009668 0.100081
vt 0.007886 0.112482
vt 0.731273 0.098051
vt 0.02215 0.135424
vt 0.006057 0.126294
vt 0.005951 0.135634
vt 0.006075 0.144655
vt 0.731273 0.135424
vt 0.02215 0.175186
vt 0.008053 0.161933
vt 0.009013 0.17471
vt 0.007942 0.184197
vt 0.731273 0.175186
vt 0.004809 0.208232
vt 0.02215 0.215354
vt 0.004876 0.215196
vt 0.731273 0.215354
vt 0.02215 0.255301
vt 0.004903 0.223112
vt 0.006972 0.239916
vt 0.008174 0.254976
vt 0.731273 0.255301
vt 0.02215 0.288401
vt 0.731273 0.288401
vt 0.005498 0.273877
vt 0.731273 0.297088
vt 0.003532 0.286823
vt 0.003532 0.286823
vt 0.02215 0.297088
vt 0.006653 0.295701
vt 0.010344 0.303478
vt 0.729634 0.314946
vt 0.735082 0.30398
vt 0.712753 0.307239
vt 0.712753 0.318194
vt 0.003532 0.307239
vt 0.003532 0.318194
vt 0.003532 0.329258
vt 0.712753 0.329258
vt 0.726759 0.328775
vt 0.727169 0.346285
vt 0.712753 0.342638
vt 0.003532 0.342638
vt 0.003532 0.355956
vt 0.712753 0.355956
vt 0.733009 0.359909
vt 0.712753 0.373828
vt 0.733138 0.362495
vt 0.003532 0.373828
vt 0.73244 0.366721
vt 0.730767 0.374986
vt 0.003532 0.396993
vt 0.712753 0.396993
vt 0.728354 0.386302
vt 0.727895 0.396643
vt 0.729705 0.410217
vt 0.003532 0.433472
vt 0.712753 0.433472
vt 0.731692 0.42477
vt 0.731859 0.434782
vt 0.730735 0.449167
vt 0.003532 0.473781
vt 0.712753 0.473781
vt 0.728442 0.46489
vt 0.727486 0.473639
vt 0.728868 0.488207
vt 0.003532 0.514117
vt 0.712753 0.514117
vt 0.730866 0.500498
vt 0.732336 0.512851
vt 0.731794 0.521975
vt 0.003532 0.554263
vt 0.730984 0.534092
vt 0.712753 0.554263
vt 0.731123 0.554162
vt 0.003532 0.585562
vt 0.730718 0.569007
vt 0.712753 0.585562
vt 0.003532 0.593202
vt 0.732139 0.586486
vt 0.732691 0.591757
vt 0.712753 0.593202
vt 0.729672 0.59541
vt 0.727241 0.600956
vn 0.7407 0.6681243 -0.07052373
vn 0.8278828 0.4056989 -0.3873224
vn 0.6571169 0.5478469 -0.5177462
vn 0.9532026 0.293126 -0.07404029
vn 0.9561338 0.23748 -0.1714972
vn 0.9884949 0.108194 -0.1056969
vn 0.9918567 0.09225602 -0.08780189
vn 0.9756054 -0.2108359 -0.06117427
vn 0.9898965 -0.132927 0.04934669
vn 0.8911992 -0.3779209 -0.2508781
vn 0.8800902 -0.3948781 -0.2636521
vn 0.9951391 -0.07919504 -0.05853429
vn 0.957213 -0.07085496 -0.2805756
vn 0.9040688 0.3063889 -0.2979687
vn 0.898397 0.2243511 -0.3775572
vn 0.9970866 -0.045201 -0.06144304
vn 0.9705669 -0.005968999 -0.2407577
vn 0.8761187 -0.283125 -0.3902003
vn 0.8663416 -0.3152039 -0.3874257
vn 0.9977978 0.02335601 -0.06207978
vn 0.9541437 0.03031101 -0.2978103
vn 0.8780693 0.328597 -0.3478769
vn 0.9969259 0.06711597 -0.04042612
vn 0.8947825 0.2930752 -0.3368546
vn 0.9994543 0.013115 -0.03031763
vn 0.9285567 -0.2201669 -0.2988461
vn 0.8975008 -0.4389009 -0.04310765
vn 0.9151238 -0.259304 -0.3087232
vn 0.6742679 -0.7091677 -0.2060193
vn 0.1737371 -0.9821908 -0.07153083
vn 0.4625891 -0.8864845 -0.01250477
vn 0.002917027 -0.9989636 0.04542451
vn 0.7493644 -0.662082 -0.01002532
vn 0.9153427 -0.402486 -0.01236118
vn 0.9998623 0.008016002 -0.01453254
vn 0.9998789 -0.002989001 -0.01527799
vn 0.999891 0.001766999 -0.01465812
vn 0.9987232 -0.04849999 -0.01412969
vn 0.9784872 -0.205789 -0.01461688
vn 0.9541807 0.2988319 -0.0154483
vn 0.7962008 0.604881 -0.01353345
vn -0.1652945 -0.9851319 -0.0468282
vn 0.6940574 -0.719707 0.01749616
vn -0.02363188 -0.9997206 0.0004409108
vn 0.5933357 -0.7544684 0.2805888
vn 0.9208785 -0.389345 0.01982987
vn 0.7493644 -0.662082 -0.01002532
vn 0.8789327 -0.3296298 0.344705
vn 0.9153427 -0.402486 -0.01236118
vn 0.940801 -0.2260231 0.2526006
vn 0.9998623 0.008016002 -0.01453254
vn 0.9951124 0.09825599 0.009856732
vn 0.9981261 0.05743601 0.02110617
vn 0.9998789 -0.002989001 -0.01527799
vn 0.9988709 0.033569 0.03361418
vn 0.8713635 0.338351 0.3553088
vn 0.8396692 0.3933142 0.3745125
vn 0.955054 -0.04788601 0.2925384
vn 0.999891 0.001766999 -0.01465812
vn 0.9997581 -0.008608003 0.02023982
vn 0.8632723 -0.2925351 0.4113199
vn 0.872227 -0.251902 0.419244
vn 0.9716269 0.0009110003 0.2365173
vn 0.9987232 -0.04849999 -0.01412969
vn 0.9989948 -0.04422902 0.007304052
vn 0.8905419 0.2523191 0.3785106
vn 0.883732 0.275458 0.3783395
vn 0.9295761 0.06434903 0.3629704
vn 0.9784872 -0.205789 -0.01461688
vn 0.9824247 -0.1861441 0.01385705
vn 0.8397651 -0.3797739 0.3880289
vn 0.8551896 -0.3554251 0.3772583
vn 0.9721206 -0.129954 0.1951753
vn 0.9541807 0.2988319 -0.0154483
vn 0.9643607 0.2624799 0.03335897
vn 0.7962008 0.604881 -0.01353345
vn 0.9485658 0.09982005 0.3004309
vn 0.7936342 0.6076987 0.0291054
vn 0.9394578 0.156349 0.3049168
vn 0.6004542 0.741937 0.2983022
vn 0.8974678 0.3244201 0.2988365
vn 0.6713266 0.5846269 0.4555568
vn 0.6571169 0.5478469 -0.5177462
vn 0.2209953 0.9703152 -0.0982323
vn 0.7407 0.6681243 -0.07052373
vn 0.3560556 0.9343801 0.01257969
vn 0.01603803 0.9981659 0.05837503
vn -0.006649177 0.964249 0.2649145
vn -0.2684718 0.956561 -0.1136397
vn 0.4552161 0.890336 -0.008950149
vn 0.7962008 0.604881 -0.01353345
vn 0.01960842 0.9998047 -0.002466354
vn -0.4208719 0.9071081 0.004658718
vn -0.3325565 0.9424257 0.03521175
vn -0.7238553 0.6892538 -0.03102689
vn -0.6005399 0.7088109 -0.3700525
vn -0.780145 0.6254941 0.01143909
vn -0.9535636 0.298949 -0.03668802
vn -0.8032318 0.4855869 -0.3449986
vn -0.962302 0.2356839 -0.135749
vn -0.991825 0.106056 -0.07095876
vn -0.9535899 0.300736 0.01497092
vn -0.977259 -0.210694 -0.02393364
vn -0.9944777 0.09067597 -0.0528367
vn -0.9872863 -0.132927 0.08715737
vn -0.9001389 -0.3779218 -0.2166223
vn -0.9784217 -0.20596 0.01647596
vn -0.9966494 -0.07919502 -0.02044529
vn -0.8895264 -0.3948789 -0.2298116
vn -0.96724 -0.07085404 -0.2437754
vn -0.9147992 0.30639 -0.2631876
vn -0.9986727 -0.04840798 0.01758935
vn -0.9987067 -0.045201 -0.02327747
vn -0.9121746 0.224351 -0.3429345
vn -0.979062 -0.005968998 -0.2034749
vn -0.8903956 -0.2831261 -0.3564203
vn -0.9998518 0.001788001 0.01712281
vn -0.8805203 -0.3152038 -0.3540204
vn -0.9994418 0.02335601 -0.02388653
vn -0.9648318 0.03031 -0.2611147
vn -0.9998597 -0.002989 0.01648585
vn -0.9977425 0.06711597 -0.002282051
vn -0.8907269 0.3285979 -0.314053
vn -0.9070064 0.293076 -0.3023998
vn -0.9998827 0.013115 0.007915718
vn -0.9998202 0.007966003 0.01721023
vn -0.8984927 -0.438901 -0.008762859
vn -0.9151801 -0.4026999 0.01667585
vn -0.9393027 -0.220168 -0.2631282
vn -0.749311 -0.6620737 0.01383799
vn -0.9262577 -0.259304 -0.2735104
vn -0.6816509 -0.7091682 -0.1800901
vn -0.4627284 -0.8864849 0.005190091
vn -0.1763438 -0.982191 -0.06483623
vn -0.001178222 -0.9989636 0.04550283
vn 0.2879119 0.9542177 0.08108806
vn 0.6004542 0.741937 0.2983022
vn 0.7936342 0.6076987 0.0291054
vn 0.4263406 0.9044588 -0.01371393
vn 0.7962008 0.604881 -0.01353345
vn 0.4552161 0.890336 -0.008950149
vn 0.01960842 0.9998047 -0.002466354
vn 0.02312217 0.9994173 -0.02510868
vn 0.0001370175 0.9934484 -0.1142816
vn -0.2477569 0.9677866 0.04478516
vn -0.3529578 0.9356319 0.003700059
vn -0.4208719 0.9071081 0.004658718
vn -0.780145 0.6254941 0.01143909
vn -0.743194 0.6653054 0.0709315
vn -0.5985882 0.7302083 0.3293751
vn -0.958541 0.2708349 0.08858799
vn -0.7992679 0.435749 0.4138763
vn -0.9535899 0.300736 0.01497092
vn -0.9028928 0.2891428 0.3180898
vn -0.9271133 0.156349 0.3406113
vn -0.9784217 -0.20596 0.01647596
vn -0.9803357 -0.185817 0.06643768
vn -0.9363864 0.09981906 0.336477
vn -0.963948 -0.129954 0.2321987
vn -0.8401416 -0.3554249 0.409677
vn -0.9986727 -0.04840798 0.01758935
vn -0.9971694 -0.044418 0.06066449
vn -0.8243163 -0.379774 0.4198502
vn -0.9150193 0.06434903 0.3982447
vn -0.8686218 0.2754572 0.4118491
vn -0.9998518 0.001788001 0.01712281
vn -0.9972324 -0.008591 0.0738491
vn -0.8754204 0.252318 0.41228
vn -0.961874 0.0009110003 0.2734916
vn -0.8555601 -0.251902 0.4522857
vn -0.9998597 -0.002989 0.01648585
vn -0.9956205 0.03411899 0.08703767
vn -0.8469149 -0.2925359 0.4440247
vn -0.9431719 -0.04788499 0.3288369
vn -0.824737 0.3933142 0.406341
vn -0.9998202 0.007966003 0.01721023
vn -0.8571422 0.338351 0.3883631
vn -0.993125 0.09811903 0.06383774
vn -0.9965894 0.05743601 0.05925114
vn -0.9151801 -0.4026999 0.01667585
vn -0.9304555 -0.226023 0.2883856
vn -0.9186731 -0.3888699 0.06942626
vn -0.749311 -0.6620737 0.01383799
vn -0.8651111 -0.3296301 0.3780566
vn -0.5821739 -0.7544689 0.3030683
vn -0.6923122 -0.7195352 0.05452465
vn 0.02363146 -0.9997206 -0.0004629067
vn 0.1633834 -0.9851319 -0.05311351
g wall22_0
f 3/3/3 2/2/2 1/1/1
f 2/2/2 4/4/4 1/1/1
f 5/5/5 4/4/4 2/2/2
f 5/5/5 6/6/6 4/4/4
f 4/4/4 6/6/6 7/7/7
f 8/8/8 4/4/4 7/7/7
f 9/9/9 8/8/8 7/7/7
f 9/9/9 10/10/10 8/8/8
f 8/8/8 10/10/10 11/11/11
f 12/12/12 8/8/8 11/11/11
f 13/13/13 12/12/12 11/11/11
f 13/13/13 14/14/14 12/12/12
f 14/14/14 15/15/15 12/12/12
f 15/15/15 16/16/16 12/12/12
f 17/17/17 16/16/16 15/15/15
f 17/17/17 18/18/18 16/16/16
f 16/16/16 18/18/18 19/19/19
f 20/20/20 16/16/16 19/19/19
f 21/21/21 20/20/20 19/19/19
f 21/21/21 22/22/22 20/20/20
f 20/20/20 22/22/22 23/23/23
f 22/22/22 24/24/24 23/23/23
f 25/25/25 23/23/23 24/24/24
f 25/25/25 26/26/26 23/23/23
f 23/23/23 26/26/26 27/27/27
f 26/26/26 28/28/28 27/27/27
f 29/29/29 27/27/27 28/28/28
f 27/27/27 29/29/29 30/30/30
f 31/31/31 27/27/27 30/30/30
f 30/30/30 32/32/32 31/31/31
f 31/31/31 33/33/33 27/27/27
f 33/33/33 34/34/34 27/27/27
f 27/27/27 34/34/34 23/23/23
f 34/34/34 35/35/35 23/23/23
f 23/23/23 35/35/35 20/20/20
f 35/35/35 36/36/36 20/20/20
f 20/20/20 36/36/36 16/16/16
f 36/36/36 37/37/37 16/16/16
f 16/16/16 37/37/37 12/12/12
f 37/37/37 38/38/38 12/12/12
f 12/12/12 38/38/38 8/8/8
f 38/38/38 39/39/39 8/8/8
f 8/8/8 39/39/39 4/4/4
f 39/39/39 40/40/40 4/4/4
f 4/4/4 40/40/40 1/1/1
f 40/40/40 41/41/41 1/1/1
f 44/44/44 43/43/43 42/42/42
f 44/44/44 45/45/45 43/43/43
f 45/45/45 46/46/46 43/43/43
f 43/43/43 46/46/46 47/47/47
f 48/48/48 46/46/46 45/45/45
f 46/46/46 49/49/49 47/47/47
f 50/50/50 46/46/46 48/48/48
f 51/51/51 49/49/49 46/46/46
f 52/52/52 46/46/46 50/50/50
f 52/52/52 51/51/51 46/46/46
f 53/53/53 52/52/52 50/50/50
f 54/54/54 51/51/51 52/52/52
f 55/55/55 54/54/54 52/52/52
f 56/56/56 52/52/52 53/53/53
f 55/55/55 52/52/52 56/56/56
f 57/57/57 55/55/55 56/56/56
f 58/58/58 55/55/55 57/57/57
f 59/59/59 54/54/54 55/55/55
f 60/60/60 59/59/59 55/55/55
f 61/61/61 55/55/55 58/58/58
f 60/60/60 55/55/55 61/61/61
f 62/62/62 60/60/60 61/61/61
f 63/63/63 60/60/60 62/62/62
f 64/64/64 59/59/59 60/60/60
f 65/65/65 64/64/64 60/60/60
f 66/66/66 60/60/60 63/63/63
f 65/65/65 60/60/60 66/66/66
f 67/67/67 65/65/65 66/66/66
f 68/68/68 65/65/65 67/67/67
f 69/69/69 64/64/64 65/65/65
f 70/70/70 69/69/69 65/65/65
f 71/71/71 65/65/65 68/68/68
f 70/70/70 65/65/65 71/71/71
f 72/72/72 70/70/70 71/71/71
f 73/73/73 70/70/70 72/72/72
f 74/74/74 69/69/69 70/70/70
f 75/75/75 74/74/74 70/70/70
f 76/76/76 74/74/74 75/75/75
f 77/77/77 70/70/70 73/73/73
f 75/75/75 70/70/70 77/77/77
f 78/78/78 76/76/76 75/75/75
f 79/79/79 75/75/75 77/77/77
f 78/78/78 75/75/75 80/80/80
f 81/81/81 75/75/75 79/79/79
f 75/75/75 82/82/82 80/80/80
f 81/81/81 82/82/82 75/75/75
f 85/85/85 84/84/84 83/83/83
f 85/85/85 86/86/86 84/84/84
f 86/86/86 87/87/87 84/84/84
f 87/87/87 88/88/88 84/84/84
f 87/87/87 89/89/89 88/88/88
f 86/86/86 85/85/85 90/90/90
f 86/86/86 90/90/90 87/87/87
f 85/85/85 91/91/91 90/90/90
f 90/90/90 92/92/92 87/87/87
f 87/87/87 92/92/92 93/93/93
f 87/87/87 94/94/94 89/89/89
f 94/94/94 87/87/87 93/93/93
f 94/94/94 95/95/95 89/89/89
f 94/94/94 93/93/93 95/95/95
f 95/95/95 96/96/96 89/89/89
f 93/93/93 97/97/97 95/95/95
f 95/95/95 97/97/97 98/98/98
f 99/99/99 96/96/96 95/95/95
f 98/98/98 99/99/99 95/95/95
f 98/98/98 100/100/100 99/99/99
f 101/101/101 100/100/100 98/98/98
f 97/97/97 102/102/102 98/98/98
f 98/98/98 102/102/102 103/103/103
f 101/101/101 98/98/98 104/104/104
f 98/98/98 103/103/103 104/104/104
f 103/103/103 105/105/105 104/104/104
f 106/106/106 105/105/105 103/103/103
f 102/102/102 107/107/107 103/103/103
f 103/103/103 107/107/107 108/108/108
f 106/106/106 103/103/103 109/109/109
f 103/103/103 108/108/108 109/109/109
f 108/108/108 110/110/110 109/109/109
f 111/111/111 110/110/110 108/108/108
f 107/107/107 112/112/112 108/108/108
f 108/108/108 112/112/112 113/113/113
f 114/114/114 111/111/111 108/108/108
f 113/113/113 114/114/114 108/108/108
f 113/113/113 115/115/115 114/114/114
f 116/116/116 115/115/115 113/113/113
f 112/112/112 117/117/117 113/113/113
f 116/116/116 113/113/113 118/118/118
f 113/113/113 117/117/117 119/119/119
f 113/113/113 119/119/119 118/118/118
f 119/119/119 120/120/120 118/118/118
f 117/117/117 121/121/121 119/119/119
f 119/119/119 121/121/121 122/122/122
f 123/123/123 120/120/120 119/119/119
f 123/123/123 119/119/119 122/122/122
f 124/124/124 123/123/123 122/122/122
f 122/122/122 125/125/125 124/124/124
f 121/121/121 126/126/126 122/122/122
f 122/122/122 126/126/126 127/127/127
f 126/126/126 128/128/128 127/127/127
f 129/129/129 125/125/125 122/122/122
f 129/129/129 122/122/122 127/127/127
f 127/127/127 128/128/128 130/130/130
f 131/131/131 129/129/129 127/127/127
f 127/127/127 132/132/132 131/131/131
f 133/133/133 127/127/127 130/130/130
f 132/132/132 127/127/127 134/134/134
f 127/127/127 133/133/133 134/134/134
f 135/135/135 134/134/134 133/133/133
f 138/138/138 137/137/137 136/136/136
f 139/139/139 138/138/138 136/136/136
f 140/140/140 138/138/138 139/139/139
f 141/141/141 140/140/140 139/139/139
f 142/142/142 141/141/141 139/139/139
f 143/143/143 139/139/139 136/136/136
f 143/143/143 142/142/142 139/139/139
f 143/143/143 136/136/136 144/144/144
f 143/143/143 144/144/144 145/145/145
f 142/142/142 143/143/143 146/146/146
f 146/146/146 143/143/143 145/145/145
f 147/147/147 142/142/142 146/146/146
f 148/148/148 147/147/147 146/146/146
f 146/146/146 145/145/145 149/149/149
f 149/149/149 148/148/148 146/146/146
f 145/145/145 150/150/150 149/149/149
f 151/151/151 149/149/149 150/150/150
f 152/152/152 151/151/151 150/150/150
f 153/153/153 148/148/148 149/149/149
f 151/151/151 153/153/153 149/149/149
f 152/152/152 154/154/154 151/151/151
f 151/151/151 154/154/154 155/155/155
f 156/156/156 153/153/153 151/151/151
f 157/157/157 156/156/156 151/151/151
f 151/151/151 155/155/155 158/158/158
f 157/157/157 151/151/151 158/158/158
f 157/157/157 158/158/158 159/159/159
f 157/157/157 159/159/159 160/160/160
f 161/161/161 156/156/156 157/157/157
f 162/162/162 161/161/161 157/157/157
f 157/157/157 160/160/160 163/163/163
f 162/162/162 157/157/157 163/163/163
f 162/162/162 163/163/163 164/164/164
f 162/162/162 164/164/164 165/165/165
f 166/166/166 161/161/161 162/162/162
f 167/167/167 166/166/166 162/162/162
f 162/162/162 165/165/165 168/168/168
f 167/167/167 162/162/162 168/168/168
f 167/167/167 168/168/168 169/169/169
f 167/167/167 169/169/169 170/170/170
f 171/171/171 166/166/166 167/167/167
f 172/172/172 171/171/171 167/167/167
f 167/167/167 170/170/170 173/173/173
f 172/172/172 167/167/167 173/173/173
f 172/172/172 173/173/173 174/174/174
f 172/172/172 174/174/174 175/175/175
f 176/176/176 171/171/171 172/172/172
f 172/172/172 175/175/175 177/177/177
f 178/178/178 176/176/176 172/172/172
f 178/178/178 172/172/172 177/177/177
f 178/178/178 177/177/177 179/179/179
f 180/180/180 176/176/176 178/178/178
f 178/178/178 179/179/179 181/181/181
f 182/182/182 180/180/180 178/178/178
f 182/182/182 178/178/178 181/181/181
f 183/183/183 180/180/180 182/182/182
f 182/182/182 181/181/181 184/184/184
f 182/182/182 184/184/184 185/185/185
f 186/186/186 183/183/183 182/182/182
f 182/182/182 185/185/185 186/186/186
f 185/185/185 187/187/187 186/186/186
f 186/186/186 187/187/187 188/188/188
