g wall56
v 0.6778035 0.2698514 5.09603
v 0.8316072 0.218444 5.26937
v 0.8188435 0.2957242 5.25019
v 0.8151423 0.02697182 5.037006
v 0.8595369 0.1331412 5.253784
v 0.8745222 -0.005202251 5.252339
v 0.8901741 -0.1795919 5.244233
v 0.8674568 -0.3522884 5.067846
v 0.8797102 -0.3765035 5.249409
v 0.8375105 -0.578951 5.248296
v 0.7685041 -0.7896835 5.246011
v 0.6025911 -0.9092562 5.058354
v 0.6999568 -0.9142928 5.250991
v 0.751905 -1.041057 5.25894
v 0.8215584 -1.302502 5.235825
v 0.7673762 -1.51887 5.080424
v 0.8376179 -1.515179 5.247847
v 0.8195418 -1.676627 5.234253
v 0.7213484 -2.050413 5.250698
v 0.5529988 -2.136496 5.083227
v 0.6608797 -2.133697 5.285835
v 0.7309822 -2.231303 5.270639
v 0.7858064 -2.746702 5.072417
v 0.7918489 -2.495579 5.267905
v 0.8195076 -2.75053 5.270718
v 0.7988728 -3.077553 5.300893
v 0.6244587 -3.321469 5.095922
v 0.7639851 -3.231123 5.349116
v 0.6994148 -3.343897 5.390503
v 0.610113 -3.361779 5.362514
v 0.4824519 -3.372077 5.132036
v 0.4840388 -3.362612 5.335171
v 0.1528597 -3.389439 2.500893
v 0.229908 -3.305224 2.488432
v 0.4097493 -2.773983 2.457837
v 0.2255428 -2.161401 2.488589
v 0.4124593 -1.538669 2.460737
v 0.2081185 -0.9160311 2.490991
v 0.4705257 -0.3683028 2.45101
v 0.4210188 0.001210102 2.456909
v 0.257679 0.2771683 2.485483
v -0.3214299 -3.378726 -0.2575539
v -0.2056828 -3.392279 0.007436355
v -0.2219279 -3.39449 -0.2268703
v -0.1521184 -3.388398 -0.2598195
v -0.07927168 -3.293302 0.003735183
v 0.1528597 -3.389439 2.500893
v -0.1086955 -3.319067 -0.2890968
v 0.229908 -3.305224 2.488432
v 0.0001570292 -3.036682 -0.3563038
v 0.4097493 -2.773983 2.457837
v 0.07149003 -2.799657 0.0341844
v -0.01282149 -2.797103 -0.3442531
v 0.2255428 -2.161401 2.488589
v -0.1792521 -2.186654 0.01966292
v -0.02510176 -2.475519 -0.3233351
v -0.05552657 -2.289931 -0.2751711
v -0.1314152 -2.17855 -0.2885793
v 0.4124593 -1.538669 2.460737
v 0.008985153 -1.558586 -0.04079606
v -0.04060225 -2.004631 -0.2925734
v 9.355266E-05 -1.805466 -0.3168215
v 0.01648515 -1.557323 -0.3438234
v 0.2081185 -0.9160311 2.490991
v -0.1946379 -0.9251449 0.02223128
v 0.006524216 -1.406422 -0.316714
v -0.03399336 -1.153808 -0.2716554
v -0.1160881 -0.9533138 -0.2502394
v 0.4705257 -0.3683028 2.45101
v 0.02782793 -0.3887166 -0.05165544
v -0.05357588 -0.8229927 -0.2740285
v -0.003483107 -0.604316 -0.3012843
v 0.0137459 -0.3761178 -0.3267238
v 0.4210188 0.001210102 2.456909
v 7.792326E-07 -8.354692E-07 4.714105E-06
v 0.257679 0.2771683 2.485483
v 0.02394609 -0.189609 -0.3424074
v -0.1105314 0.2347367 0.03356916
v 0.02044023 0.009910053 -0.3434718
v -0.03732344 0.259423 -0.311382
v -0.001219924 0.1471317 -0.3277101
v -0.01876387 0.2160075 -0.3331007
v 0.8188435 0.2957242 5.25019
v 0.5574763 0.3366813 5.22021
v 0.6778035 0.2698514 5.09603
v 0.5065144 0.3431718 5.119838
v 0.3170393 0.3594144 5.152788
v 0.3309627 0.3289274 5.262221
v 0.05522783 0.3271586 5.322915
v 0.1074007 0.393372 2.507817
v 0.257679 0.2771683 2.485483
v -0.08023603 0.4394852 2.536118
v -0.2957194 0.3987174 2.569741
v 0.1073592 0.3432243 5.182651
v -0.07740156 0.2568473 5.223217
v -0.1469475 0.2893717 5.470503
v -0.4663103 0.2655534 2.596665
v -0.2332634 0.02697182 5.240815
v -0.1780559 0.218444 5.47898
v -0.2076091 0.1331412 5.483315
v -0.2189787 -0.005202251 5.505757
v -0.6231974 0.001210102 2.620786
v -0.2707414 -0.3522884 5.302358
v -0.2351017 -0.1795919 5.493969
v -0.2225236 -0.3765035 5.501753
v -0.1854826 -0.578951 5.477466
v -0.6715642 -0.3683028 2.630366
v -0.02733809 -0.9092562 5.188433
v -0.1251799 -0.7896835 5.433511
v -0.06205977 -0.9142928 5.399399
v -0.1092253 -1.041057 5.416762
v -0.4092644 -0.9160311 2.588491
v -0.1781047 -1.51887 5.247446
v -0.1776091 -1.302503 5.441479
v -0.1912053 -1.515179 5.4423
v -0.1743303 -1.676627 5.450874
v -0.6125822 -1.538669 2.622368
v -0.07945234 -2.050413 5.422593
v 0.02533769 -2.136496 5.181616
v -0.01366133 -2.133697 5.420932
v -0.4262712 -2.161401 2.592124
v -0.1892473 -2.746702 5.297641
v -0.08208418 -2.231303 5.442788
v -0.1315666 -2.495579 5.507749
v -0.1528117 -2.75053 5.5398
v -0.6125993 -2.773983 2.620473
v -0.03896895 -3.321469 5.251441
v -0.430822 -3.305224 2.593452
v -0.1313176 -3.077553 5.559106
v -0.3534123 -3.389439 2.581753
v -0.1038566 -3.231123 5.558198
v -0.04184004 -3.343897 5.576841
v 0.114659 -3.372077 5.260327
v 0.04646806 -3.361779 5.539272
v 0.1720027 -3.362612 5.48477
v -0.2158147 0.3082804 -0.1994679
v -0.03732344 0.259423 -0.311382
v -0.1105314 0.2347367 0.03356916
v -0.2413371 0.3308756 0.07329573
v 0.257679 0.2771683 2.485483
v 0.1074007 0.393372 2.507817
v -0.08023603 0.4394852 2.536118
v -0.4080608 0.3617875 0.09750471
v -0.4370061 0.3366642 -0.1129054
v -0.7360393 0.3117142 -0.07489762
v -0.625634 0.3408805 0.1319969
v -0.2957194 0.3987174 2.569741
v -0.4663103 0.2655534 2.596665
v -0.8136906 0.2405558 0.1706102
v -0.9873527 0.251702 -0.07479997
v -0.9385051 -8.354692E-07 0.2082274
v -1.010309 0.2160075 -0.07280778
v -0.6231974 0.001210102 2.620786
v -1.025917 0.1471317 -0.06741716
v -1.057138 0.009910053 -0.06440935
v -0.6715642 -0.3683028 2.630366
v -0.9912443 -0.3887166 0.1775438
v -1.047553 -0.189609 -0.06906755
v -1.041525 -0.3761178 -0.06749528
v -1.041706 -0.604316 -0.08319841
v -0.4092644 -0.9160311 2.588491
v -0.7448625 -0.9251449 0.1318797
v -0.9687053 -0.8229927 -0.06473161
v -0.8960735 -0.9533138 -0.05397966
v -0.9763786 -1.153808 -0.06789567
v -0.6125822 -1.538669 2.622368
v -0.9625627 -1.558945 0.1382078
v -0.9650505 -1.406422 -0.08690935
v -0.9840056 -1.558846 -0.08137224
v -0.9680412 -1.810719 -0.1016554
v -0.4262712 -2.161401 2.592124
v -0.7596916 -2.186654 0.1115574
v -0.9663249 -2.006937 -0.1008058
v -0.8898918 -2.17855 -0.09942888
v -0.9734855 -2.289931 -0.1131984
v -0.6125993 -2.773983 2.620473
v -1.018857 -2.475519 -0.0986574
v -0.9931633 -2.799657 0.2149656
v -1.033705 -2.799306 -0.1319875
v -0.430822 -3.305224 2.593452
v -1.058993 -3.055008 -0.09933122
v -0.8637443 -3.293302 0.1282371
v -0.3534123 -3.389439 2.581753
v -1.020278 -3.319067 -0.1887843
v -0.976591 -3.388398 -0.2164211
v -0.7563761 -3.392279 0.09630354
v -0.9000212 -3.39449 -0.2066359
v -0.8082072 -3.378726 -0.224507
vt 0.02215 0.057013
vt 0.005561 0.063828
vt 0.005236 0.059156
vt 0.02215 0.075024
vt 0.006234 0.06942
vt 0.006647 0.078097
vt 0.008986 0.088632
vt 0.02215 0.098051
vt 0.009668 0.100081
vt 0.007886 0.112482
vt 0.006057 0.126294
vt 0.02215 0.135424
vt 0.005951 0.135634
vt 0.006075 0.144655
vt 0.008053 0.161933
vt 0.02215 0.175186
vt 0.009013 0.17471
vt 0.007942 0.184197
vt 0.004809 0.208232
vt 0.02215 0.215354
vt 0.004876 0.215196
vt 0.004903 0.223112
vt 0.02215 0.255301
vt 0.006972 0.239916
vt 0.008174 0.254976
vt 0.005498 0.273877
vt 0.02215 0.288401
vt 0.003532 0.286823
vt 0.003532 0.286823
vt 0.006653 0.295701
vt 0.02215 0.297088
vt 0.010344 0.303478
vt 0.731273 0.297088
vt 0.731273 0.288401
vt 0.731273 0.255301
vt 0.731273 0.215354
vt 0.731273 0.175186
vt 0.731273 0.135424
vt 0.731273 0.098051
vt 0.731273 0.075024
vt 0.731273 0.057013
vt 0.727241 0.600956
vt 0.712753 0.593202
vt 0.729672 0.59541
vt 0.732691 0.591757
vt 0.712753 0.585562
vt 0.003532 0.593202
vt 0.732139 0.586486
vt 0.003532 0.585562
vt 0.730718 0.569007
vt 0.003532 0.554263
vt 0.712753 0.554263
vt 0.731123 0.554162
vt 0.003532 0.514117
vt 0.712753 0.514117
vt 0.730984 0.534092
vt 0.731794 0.521975
vt 0.732336 0.512851
vt 0.003532 0.473781
vt 0.712753 0.473781
vt 0.730866 0.500498
vt 0.728868 0.488207
vt 0.727486 0.473639
vt 0.003532 0.433472
vt 0.712753 0.433472
vt 0.728442 0.46489
vt 0.730735 0.449167
vt 0.731859 0.434782
vt 0.003532 0.396993
vt 0.712753 0.396993
vt 0.731692 0.42477
vt 0.729705 0.410217
vt 0.727895 0.396643
vt 0.003532 0.373828
vt 0.712753 0.373828
vt 0.003532 0.355956
vt 0.728354 0.386302
vt 0.712753 0.355956
vt 0.730767 0.374986
vt 0.733009 0.359909
vt 0.73244 0.366721
vt 0.733138 0.362495
vt 0.008619 0.003532
vt 0.015257 0.017512
vt 0.02215 0.008005
vt 0.02215 0.019469
vt 0.02215 0.030762
vt 0.01464 0.03094
vt 0.014107 0.047841
vt 0.731273 0.019469
vt 0.731273 0.008005
vt 0.731273 0.030762
vt 0.731273 0.043889
vt 0.02215 0.043889
vt 0.02215 0.057013
vt 0.005236 0.059156
vt 0.731273 0.057013
vt 0.02215 0.075024
vt 0.005561 0.063828
vt 0.006234 0.06942
vt 0.006647 0.078097
vt 0.731273 0.075024
vt 0.02215 0.098051
vt 0.008986 0.088632
vt 0.009668 0.100081
vt 0.007886 0.112482
vt 0.731273 0.098051
vt 0.02215 0.135424
vt 0.006057 0.126294
vt 0.005951 0.135634
vt 0.006075 0.144655
vt 0.731273 0.135424
vt 0.02215 0.175186
vt 0.008053 0.161933
vt 0.009013 0.17471
vt 0.007942 0.184197
vt 0.731273 0.175186
vt 0.004809 0.208232
vt 0.02215 0.215354
vt 0.004876 0.215196
vt 0.731273 0.215354
vt 0.02215 0.255301
vt 0.004903 0.223112
vt 0.006972 0.239916
vt 0.008174 0.254976
vt 0.731273 0.255301
vt 0.02215 0.288401
vt 0.731273 0.288401
vt 0.005498 0.273877
vt 0.731273 0.297088
vt 0.003532 0.286823
vt 0.003532 0.286823
vt 0.02215 0.297088
vt 0.006653 0.295701
vt 0.010344 0.303478
vt 0.729634 0.314946
vt 0.735082 0.30398
vt 0.712753 0.307239
vt 0.712753 0.318194
vt 0.003532 0.307239
vt 0.003532 0.318194
vt 0.003532 0.329258
vt 0.712753 0.329258
vt 0.726759 0.328775
vt 0.727169 0.346285
vt 0.712753 0.342638
vt 0.003532 0.342638
vt 0.003532 0.355956
vt 0.712753 0.355956
vt 0.733009 0.359909
vt 0.712753 0.373828
vt 0.733138 0.362495
vt 0.003532 0.373828
vt 0.73244 0.366721
vt 0.730767 0.374986
vt 0.003532 0.396993
vt 0.712753 0.396993
vt 0.728354 0.386302
vt 0.727895 0.396643
vt 0.729705 0.410217
vt 0.003532 0.433472
vt 0.712753 0.433472
vt 0.731692 0.42477
vt 0.731859 0.434782
vt 0.730735 0.449167
vt 0.003532 0.473781
vt 0.712753 0.473781
vt 0.728442 0.46489
vt 0.727486 0.473639
vt 0.728868 0.488207
vt 0.003532 0.514117
vt 0.712753 0.514117
vt 0.730866 0.500498
vt 0.732336 0.512851
vt 0.731794 0.521975
vt 0.003532 0.554263
vt 0.730984 0.534092
vt 0.712753 0.554263
vt 0.731123 0.554162
vt 0.003532 0.585562
vt 0.730718 0.569007
vt 0.712753 0.585562
vt 0.003532 0.593202
vt 0.732139 0.586486
vt 0.732691 0.591757
vt 0.712753 0.593202
vt 0.729672 0.59541
vt 0.727241 0.600956
vn 0.7239754 0.6681242 -0.1716675
vn 0.7667848 0.4056989 -0.4974428
vn 0.5797125 0.5478469 -0.603156
vn 0.9339775 0.293126 -0.2043603
vn 0.923485 0.23748 -0.301295
vn 0.9645835 0.108194 -0.2405675
vn 0.9703732 0.09225601 -0.2233045
vn 0.9579362 -0.2108359 -0.1946958
vn 0.9872835 -0.1329271 -0.08718831
vn 0.8482553 -0.3779209 -0.3709969
vn 0.8354959 -0.3948782 -0.3821227
vn 0.9776474 -0.07919504 -0.1947659
vn 0.9095606 -0.07085498 -0.4094865
vn 0.85453 0.3063889 -0.4194095
vn 0.8379721 0.2243511 -0.4974628
vn 0.9791765 -0.045201 -0.1979147
vn 0.9282607 -0.005968999 -0.3718821
vn 0.8141674 -0.283125 -0.5069237
vn 0.8048645 -0.3152039 -0.5028316
vn 0.9797935 0.02335601 -0.1986432
vn 0.9041514 0.03031101 -0.4261357
vn 0.8219171 0.328597 -0.4652702
vn 0.9819062 0.06711597 -0.1770752
vn 0.8399868 0.2930752 -0.4566499
vn 0.9858001 0.013115 -0.1674102
vn 0.8786647 -0.220167 -0.4236446
vn 0.8830563 -0.4389009 -0.1660648
vn 0.8640017 -0.259304 -0.4315814
vn 0.6395493 -0.7091677 -0.2967454
vn 0.1622557 -0.9821908 -0.09473296
vn 0.4564795 -0.8864845 -0.07597145
vn 0.009133181 -0.9989636 0.04459238
vn 0.7408733 -0.662082 -0.1129343
vn 0.9049551 -0.4024859 -0.1380626
vn 0.9883739 0.008016002 -0.151831
vn 0.988288 -0.002989001 -0.1525717
vn 0.9883852 0.001766999 -0.1519594
vn 0.9873011 -0.04849999 -0.1512754
vn 0.9671902 -0.205789 -0.1489765
vn 0.9430001 0.2988319 -0.1464589
vn 0.786783 0.6048812 -0.1228471
vn -0.1701623 -0.9851319 -0.02366308
vn 0.6898742 -0.719707 -0.07807183
vn -0.02334696 -0.9997206 0.003685054
vn 0.6262723 -0.7544684 0.1963682
vn 0.9148632 -0.389345 -0.106938
vn 0.7408733 -0.662082 -0.1129343
vn 0.9179714 -0.3296298 0.220619
vn 0.9049551 -0.4024859 -0.1380626
vn 0.9665922 -0.2260231 0.1208848
vn 0.9883739 0.008016002 -0.151831
vn 0.9870216 0.09825601 -0.1270204
vn 0.9915529 0.057436 -0.1162919
vn 0.988288 -0.002989001 -0.1525717
vn 0.9940101 0.033569 -0.1040051
vn 0.9119315 0.338351 0.2321626
vn 0.8831778 0.3933142 0.2555405
vn 0.9861996 -0.04788601 0.1584843
vn 0.9883852 0.001766999 -0.1519594
vn 0.9930505 -0.008608004 -0.1173744
vn 0.9116163 -0.2925351 0.2887543
vn 0.9215751 -0.251902 0.2953722
vn 0.9949148 0.0009110003 0.1007169
vn 0.9873011 -0.04849999 -0.1512754
vn 0.9905162 -0.04422903 -0.1300825
vn 0.9341171 0.2523191 0.2525079
vn 0.9273483 0.275458 0.2532745
vn 0.9706448 0.06434904 0.2317499
vn 0.9671902 -0.205789 -0.1489765
vn 0.9750043 -0.1861441 -0.121314
vn 0.8851306 -0.3797739 0.2689154
vn 0.8989283 -0.3554251 0.2561269
vn 0.9897211 -0.129954 0.05969945
vn 0.9430001 0.2988319 -0.1464589
vn 0.9597922 0.2624799 -0.09951422
vn 0.786783 0.6048812 -0.1228471
vn 0.9808578 0.09982005 0.1671937
vn 0.7901016 0.6076987 -0.08026016
vn 0.9724528 0.156349 0.172889
vn 0.6357579 0.741937 0.212935
vn 0.9300256 0.32442 0.1726382
vn 0.727573 0.584627 0.3589552
vn 0.5797125 0.5478469 -0.603156
vn 0.205395 0.9703152 -0.1276769
vn 0.7239754 0.6681242 -0.1716675
vn 0.354405 0.9343801 -0.03648147
vn 0.02390976 0.9981659 0.05561641
vn 0.02982786 0.964249 0.2633139
vn -0.2815439 0.956561 -0.07565816
vn 0.449665 0.890336 -0.0714371
vn 0.786783 0.6048812 -0.1228471
vn 0.01908328 0.9998047 -0.005138225
vn -0.4162366 0.9071082 0.0624656
vn -0.3245598 0.9424257 0.08058918
vn -0.7212493 0.6892538 0.06876542
vn -0.6457052 0.7088109 -0.2839926
vn -0.7711675 0.6254941 0.1185656
vn -0.9495553 0.298949 0.09473266
vn -0.8430294 0.4855869 -0.2313153
vn -0.9718273 0.235684 -0.002186892
vn -0.9921643 0.106056 0.06604645
vn -0.9424806 0.300736 0.1459049
vn -0.9712726 -0.210694 0.110623
vn -0.9923009 0.09067598 0.08436114
vn -0.9659346 -0.132927 0.2220379
vn -0.9213706 -0.3779218 -0.09083716
vn -0.9668698 -0.20596 0.1508089
vn -0.9899995 -0.07919502 0.1167436
vn -0.9126719 -0.394879 -0.1053601
vn -0.9915672 -0.07085404 -0.1085092
vn -0.9422924 0.30639 -0.1349453
vn -0.9867756 -0.04840798 0.1546953
vn -0.9924265 -0.045201 0.1142211
vn -0.9506544 0.224351 -0.214296
vn -0.9977374 -0.005968998 -0.0669662
vn -0.9309357 -0.2831261 -0.2306475
vn -0.9880075 0.001788001 0.1543953
vn -0.9208244 -0.3152039 -0.2296278
vn -0.9932383 0.02335601 0.1137188
vn -0.9915652 0.03031 -0.1260148
vn -0.9881029 -0.002989 0.1537654
vn -0.9885857 0.06711598 0.1348847
vn -0.9254403 0.3285978 -0.1886367
vn -0.9399636 0.2930761 -0.1748565
vn -0.9893037 0.013115 0.1452798
vn -0.9879642 0.007966002 0.1544775
vn -0.8911687 -0.438901 0.114823
vn -0.9042011 -0.4026999 0.142314
vn -0.9665552 -0.2201681 -0.1315183
vn -0.7402964 -0.6620738 0.1167035
vn -0.9550612 -0.259304 -0.1435951
vn -0.6999351 -0.7091683 -0.08468413
vn -0.4576227 -0.8864849 0.06874532
vn -0.1835821 -0.982191 -0.0399814
vn 0.005087568 -0.9989636 0.04523287
vn 0.296325 0.9542177 0.04074333
vn 0.6357579 0.741937 0.212935
vn 0.7901016 0.6076987 -0.08026016
vn 0.4204087 0.9044588 -0.07218655
vn 0.786783 0.6048812 -0.1228471
vn 0.449665 0.890336 -0.0714371
vn 0.01908328 0.9998047 -0.005138225
vn 0.01945137 0.9994173 -0.02804861
vn -0.0155729 0.9934484 -0.1132156
vn -0.2392492 0.9677866 0.07841557
vn -0.3490988 0.9356319 0.05218088
vn -0.4162366 0.9071082 0.0624656
vn -0.7711675 0.6254941 0.1185656
vn -0.7263898 0.6653055 0.1724142
vn -0.547632 0.7302083 0.4085277
vn -0.9372655 0.2708349 0.2195037
vn -0.7347918 0.435749 0.5198115
vn -0.9424806 0.300736 0.1459049
vn -0.8505993 0.2891428 0.439178
vn -0.8714942 0.156349 0.4648148
vn -0.9668698 -0.20596 0.1508089
vn -0.9618981 -0.185817 0.2005595
vn -0.8812476 0.09981905 0.4619944
vn -0.9228812 -0.129954 0.3624945
vn -0.7758546 -0.3554249 0.5212702
vn -0.9867756 -0.04840798 0.1546953
vn -0.9793656 -0.044418 0.197155
vn -0.7587813 -0.3797741 0.5291718
vn -0.8515931 0.06434903 0.5202389
vn -0.8037659 0.2754572 0.5273365
vn -0.9880075 0.001788001 0.1543953
vn -0.9776157 -0.008591001 0.2102231
vn -0.8104408 0.252318 0.5286978
vn -0.9151509 0.0009110002 0.4031103
vn -0.78527 -0.251902 0.5655939
vn -0.9881029 -0.002989 0.1537654
vn -0.9742063 0.03411899 0.2230649
vn -0.7778424 -0.2925359 0.5562229
vn -0.889019 -0.047885 0.4553597
vn -0.7610548 0.3933142 0.5158485
vn -0.9879642 0.007966002 0.1544775
vn -0.7956236 0.338351 0.5024955
vn -0.9749234 0.09811903 0.1997422
vn -0.9789853 0.057436 0.1956753
vn -0.9042011 -0.4026999 0.142314
vn -0.8819833 -0.226023 0.4135443
vn -0.9004099 -0.3888699 0.1950438
vn -0.7402964 -0.6620738 0.1167035
vn -0.8049334 -0.3296301 0.4933823
vn -0.5349895 -0.7544689 0.3802145
vn -0.678246 -0.7195352 0.1491691
vn 0.02334352 -0.9997206 -0.003706784
vn 0.1545318 -0.9851319 -0.07506728
g wall56_0
f 3/3/3 2/2/2 1/1/1
f 2/2/2 4/4/4 1/1/1
f 5/5/5 4/4/4 2/2/2
f 5/5/5 6/6/6 4/4/4
f 4/4/4 6/6/6 7/7/7
f 8/8/8 4/4/4 7/7/7
f 9/9/9 8/8/8 7/7/7
f 9/9/9 10/10/10 8/8/8
f 8/8/8 10/10/10 11/11/11
f 12/12/12 8/8/8 11/11/11
f 13/13/13 12/12/12 11/11/11
f 13/13/13 14/14/14 12/12/12
f 14/14/14 15/15/15 12/12/12
f 15/15/15 16/16/16 12/12/12
f 17/17/17 16/16/16 15/15/15
f 17/17/17 18/18/18 16/16/16
f 16/16/16 18/18/18 19/19/19
f 20/20/20 16/16/16 19/19/19
f 21/21/21 20/20/20 19/19/19
f 21/21/21 22/22/22 20/20/20
f 20/20/20 22/22/22 23/23/23
f 22/22/22 24/24/24 23/23/23
f 25/25/25 23/23/23 24/24/24
f 25/25/25 26/26/26 23/23/23
f 23/23/23 26/26/26 27/27/27
f 26/26/26 28/28/28 27/27/27
f 29/29/29 27/27/27 28/28/28
f 27/27/27 29/29/29 30/30/30
f 31/31/31 27/27/27 30/30/30
f 30/30/30 32/32/32 31/31/31
f 31/31/31 33/33/33 27/27/27
f 33/33/33 34/34/34 27/27/27
f 27/27/27 34/34/34 23/23/23
f 34/34/34 35/35/35 23/23/23
f 23/23/23 35/35/35 20/20/20
f 35/35/35 36/36/36 20/20/20
f 20/20/20 36/36/36 16/16/16
f 36/36/36 37/37/37 16/16/16
f 16/16/16 37/37/37 12/12/12
f 37/37/37 38/38/38 12/12/12
f 12/12/12 38/38/38 8/8/8
f 38/38/38 39/39/39 8/8/8
f 8/8/8 39/39/39 4/4/4
f 39/39/39 40/40/40 4/4/4
f 4/4/4 40/40/40 1/1/1
f 40/40/40 41/41/41 1/1/1
f 44/44/44 43/43/43 42/42/42
f 44/44/44 45/45/45 43/43/43
f 45/45/45 46/46/46 43/43/43
f 43/43/43 46/46/46 47/47/47
f 48/48/48 46/46/46 45/45/45
f 46/46/46 49/49/49 47/47/47
f 50/50/50 46/46/46 48/48/48
f 51/51/51 49/49/49 46/46/46
f 52/52/52 46/46/46 50/50/50
f 52/52/52 51/51/51 46/46/46
f 53/53/53 52/52/52 50/50/50
f 54/54/54 51/51/51 52/52/52
f 55/55/55 54/54/54 52/52/52
f 56/56/56 52/52/52 53/53/53
f 55/55/55 52/52/52 56/56/56
f 57/57/57 55/55/55 56/56/56
f 58/58/58 55/55/55 57/57/57
f 59/59/59 54/54/54 55/55/55
f 60/60/60 59/59/59 55/55/55
f 61/61/61 55/55/55 58/58/58
f 60/60/60 55/55/55 61/61/61
f 62/62/62 60/60/60 61/61/61
f 63/63/63 60/60/60 62/62/62
f 64/64/64 59/59/59 60/60/60
f 65/65/65 64/64/64 60/60/60
f 66/66/66 60/60/60 63/63/63
f 65/65/65 60/60/60 66/66/66
f 67/67/67 65/65/65 66/66/66
f 68/68/68 65/65/65 67/67/67
f 69/69/69 64/64/64 65/65/65
f 70/70/70 69/69/69 65/65/65
f 71/71/71 65/65/65 68/68/68
f 70/70/70 65/65/65 71/71/71
f 72/72/72 70/70/70 71/71/71
f 73/73/73 70/70/70 72/72/72
f 74/74/74 69/69/69 70/70/70
f 75/75/75 74/74/74 70/70/70
f 76/76/76 74/74/74 75/75/75
f 77/77/77 70/70/70 73/73/73
f 75/75/75 70/70/70 77/77/77
f 78/78/78 76/76/76 75/75/75
f 79/79/79 75/75/75 77/77/77
f 78/78/78 75/75/75 80/80/80
f 81/81/81 75/75/75 79/79/79
f 75/75/75 82/82/82 80/80/80
f 81/81/81 82/82/82 75/75/75
f 85/85/85 84/84/84 83/83/83
f 85/85/85 86/86/86 84/84/84
f 86/86/86 87/87/87 84/84/84
f 87/87/87 88/88/88 84/84/84
f 87/87/87 89/89/89 88/88/88
f 86/86/86 85/85/85 90/90/90
f 86/86/86 90/90/90 87/87/87
f 85/85/85 91/91/91 90/90/90
f 90/90/90 92/92/92 87/87/87
f 87/87/87 92/92/92 93/93/93
f 87/87/87 94/94/94 89/89/89
f 94/94/94 87/87/87 93/93/93
f 94/94/94 95/95/95 89/89/89
f 94/94/94 93/93/93 95/95/95
f 95/95/95 96/96/96 89/89/89
f 93/93/93 97/97/97 95/95/95
f 95/95/95 97/97/97 98/98/98
f 99/99/99 96/96/96 95/95/95
f 98/98/98 99/99/99 95/95/95
f 98/98/98 100/100/100 99/99/99
f 101/101/101 100/100/100 98/98/98
f 97/97/97 102/102/102 98/98/98
f 98/98/98 102/102/102 103/103/103
f 101/101/101 98/98/98 104/104/104
f 98/98/98 103/103/103 104/104/104
f 103/103/103 105/105/105 104/104/104
f 106/106/106 105/105/105 103/103/103
f 102/102/102 107/107/107 103/103/103
f 103/103/103 107/107/107 108/108/108
f 106/106/106 103/103/103 109/109/109
f 103/103/103 108/108/108 109/109/109
f 108/108/108 110/110/110 109/109/109
f 111/111/111 110/110/110 108/108/108
f 107/107/107 112/112/112 108/108/108
f 108/108/108 112/112/112 113/113/113
f 114/114/114 111/111/111 108/108/108
f 113/113/113 114/114/114 108/108/108
f 113/113/113 115/115/115 114/114/114
f 116/116/116 115/115/115 113/113/113
f 112/112/112 117/117/117 113/113/113
f 116/116/116 113/113/113 118/118/118
f 113/113/113 117/117/117 119/119/119
f 113/113/113 119/119/119 118/118/118
f 119/119/119 120/120/120 118/118/118
f 117/117/117 121/121/121 119/119/119
f 119/119/119 121/121/121 122/122/122
f 123/123/123 120/120/120 119/119/119
f 123/123/123 119/119/119 122/122/122
f 124/124/124 123/123/123 122/122/122
f 122/122/122 125/125/125 124/124/124
f 121/121/121 126/126/126 122/122/122
f 122/122/122 126/126/126 127/127/127
f 126/126/126 128/128/128 127/127/127
f 129/129/129 125/125/125 122/122/122
f 129/129/129 122/122/122 127/127/127
f 127/127/127 128/128/128 130/130/130
f 131/131/131 129/129/129 127/127/127
f 127/127/127 132/132/132 131/131/131
f 133/133/133 127/127/127 130/130/130
f 132/132/132 127/127/127 134/134/134
f 127/127/127 133/133/133 134/134/134
f 135/135/135 134/134/134 133/133/133
f 138/138/138 137/137/137 136/136/136
f 139/139/139 138/138/138 136/136/136
f 140/140/140 138/138/138 139/139/139
f 141/141/141 140/140/140 139/139/139
f 142/142/142 141/141/141 139/139/139
f 143/143/143 139/139/139 136/136/136
f 143/143/143 142/142/142 139/139/139
f 143/143/143 136/136/136 144/144/144
f 143/143/143 144/144/144 145/145/145
f 142/142/142 143/143/143 146/146/146
f 146/146/146 143/143/143 145/145/145
f 147/147/147 142/142/142 146/146/146
f 148/148/148 147/147/147 146/146/146
f 146/146/146 145/145/145 149/149/149
f 149/149/149 148/148/148 146/146/146
f 145/145/145 150/150/150 149/149/149
f 151/151/151 149/149/149 150/150/150
f 152/152/152 151/151/151 150/150/150
f 153/153/153 148/148/148 149/149/149
f 151/151/151 153/153/153 149/149/149
f 152/152/152 154/154/154 151/151/151
f 151/151/151 154/154/154 155/155/155
f 156/156/156 153/153/153 151/151/151
f 157/157/157 156/156/156 151/151/151
f 151/151/151 155/155/155 158/158/158
f 157/157/157 151/151/151 158/158/158
f 157/157/157 158/158/158 159/159/159
f 157/157/157 159/159/159 160/160/160
f 161/161/161 156/156/156 157/157/157
f 162/162/162 161/161/161 157/157/157
f 157/157/157 160/160/160 163/163/163
f 162/162/162 157/157/157 163/163/163
f 162/162/162 163/163/163 164/164/164
f 162/162/162 164/164/164 165/165/165
f 166/166/166 161/161/161 162/162/162
f 167/167/167 166/166/166 162/162/162
f 162/162/162 165/165/165 168/168/168
f 167/167/167 162/162/162 168/168/168
f 167/167/167 168/168/168 169/169/169
f 167/167/167 169/169/169 170/170/170
f 171/171/171 166/166/166 167/167/167
f 172/172/172 171/171/171 167/167/167
f 167/167/167 170/170/170 173/173/173
f 172/172/172 167/167/167 173/173/173
f 172/172/172 173/173/173 174/174/174
f 172/172/172 174/174/174 175/175/175
f 176/176/176 171/171/171 172/172/172
f 172/172/172 175/175/175 177/177/177
f 178/178/178 176/176/176 172/172/172
f 178/178/178 172/172/172 177/177/177
f 178/178/178 177/177/177 179/179/179
f 180/180/180 176/176/176 178/178/178
f 178/178/178 179/179/179 181/181/181
f 182/182/182 180/180/180 178/178/178
f 182/182/182 178/178/178 181/181/181
f 183/183/183 180/180/180 182/182/182
f 182/182/182 181/181/181 184/184/184
f 182/182/182 184/184/184 185/185/185
f 186/186/186 183/183/183 182/182/182
f 182/182/182 185/185/185 186/186/186
f 185/185/185 187/187/187 186/186/186
f 186/186/186 187/187/187 188/188/188
