g wall24
v -0.5435086 -0.4979121 -1.197541
v -0.1657645 -0.9454695 -1.456818
v -0.1553665 -0.5103669 -1.368342
v -0.5922586 -0.9461873 -1.302678
v -0.8971634 -0.4853425 -0.9790645
v -0.6011453 -2.580173 -1.318303
v -0.1664164 -2.5795 -1.502444
v -0.1664896 -4.114041 -1.446018
v -0.9334695 -0.9502681 -1.023947
v -1.155318 -0.4692317 -0.6534298
v -0.9308035 -2.580467 -1.02132
v -0.5902127 -4.10176 -1.290119
v -0.1419583 -4.290865 -1.304514
v -1.18594 -0.9510798 -0.6764278
v -1.302881 -0.4627912 -0.2599532
v -1.168631 -2.580535 -0.6805391
v -0.9337747 -4.094378 -1.017131
v -0.5410624 -4.309938 -1.19469
v -0.1083158 -4.400964 -1.165803
v -0.5170121 -4.388136 -1.081945
v -0.8909524 -4.306944 -0.975334
v -0.8141116 -4.403081 -0.8959981
v -1.334883 -0.9509065 -0.2658517
v -1.32523 -0.4492903 0.1507596
v -1.3294 -2.574841 -0.2699825
v -1.182823 -4.092949 -0.6676974
v -1.133347 -4.305342 -0.6413692
v -1.050669 -4.402894 -0.5968575
v -1.362398 -0.9488741 0.1503495
v -1.222564 -0.4317524 0.5564334
v -1.369241 -2.574966 0.151287
v -1.331084 -4.093358 -0.2686447
v -1.274058 -4.289443 -0.2558028
v -1.181414 -4.401474 -0.2361544
v -1.262984 -0.9482502 0.5697049
v -0.9963162 -0.4196833 0.9119315
v -1.275794 -2.576006 0.5760721
v -1.366387 -4.093616 0.1571073
v -1.306294 -4.286646 0.1532303
v -1.201919 -4.399125 0.1452714
v -1.034778 -0.9482234 0.9410135
v -0.6707083 -0.4122456 1.184842
v -1.046616 -2.576782 0.9527909
v -1.273902 -4.095246 0.5799393
v -1.212942 -4.283836 0.5548221
v -1.111985 -4.398255 0.5127615
v -0.6982815 -0.948509 1.224178
v -0.2736478 -0.4115766 1.345701
v -0.7049051 -2.577192 1.236873
v -1.045957 -4.097746 0.9548514
v -0.9933694 -4.280731 0.907537
v -0.9028738 -4.400326 0.8262186
v -0.2874613 -0.9487215 1.389646
v 0.1569821 -0.4171443 1.376209
v -0.2887211 -2.577348 1.397058
v -0.7047464 -4.09932 1.236717
v -0.6738846 -4.271028 1.180486
v -0.6091043 -4.399735 1.067146
v 0.1570895 -0.9487068 1.419129
v 0.5799826 -0.4276765 1.273357
v 0.1569381 -2.577396 1.417439
v -0.2893851 -4.099097 1.391619
v -0.2774417 -4.271059 1.325974
v -0.2509744 -4.401307 1.196365
v 0.5909347 -0.9481978 1.308357
v 0.9526803 -0.442928 1.040935
v 0.5867721 -2.577367 1.298767
v 0.1525094 -4.098147 1.408181
v 0.1444504 -4.27487 1.341287
v 0.1308981 -4.403888 1.208709
v 0.972236 -0.9474483 1.068445
v 1.240205 -0.4596174 0.7033378
v 0.9609005 -2.577252 1.055447
v 0.5783688 -4.097726 1.291648
v 0.5524166 -4.284971 1.231795
v 0.5012155 -4.406403 1.114314
v 1.264321 -0.9464387 0.7213261
v 1.408828 -0.4764118 0.2884354
v 1.246382 -2.577078 0.7099393
v 0.9490768 -4.097968 1.051141
v 0.9117184 -4.291162 1.007146
v 0.8293405 -4.406762 0.9167655
v 1.435688 -0.9453779 0.2974198
v 1.435532 -0.4924226 -0.1617794
v 1.413715 -2.577125 0.2906424
v 1.231779 -4.099367 0.7094315
v 1.177649 -4.311975 0.6750565
v 1.101281 -4.405477 0.6198416
v 1.463562 -0.9447297 -0.1619552
v 1.316865 -0.5084345 -0.6031564
v 1.437773 -2.577528 -0.1619552
v 1.31812 -2.577635 -0.586008
v 1.396858 -4.101409 0.2951932
v 1.34249 -4.317742 0.2818436
v 1.271516 -4.39822 0.2665995
v 1.341547 -0.9462886 -0.6113888
v 1.059568 -0.5213264 -0.9809005
v 1.424707 -4.103459 -0.1523263
v 1.375207 -4.321304 -0.1480294
v 1.300893 -4.401266 -0.1414669
v 1.082741 -0.946551 -1.004484
v 0.7047702 -0.5282954 -1.245227
v 1.312522 -4.105714 -0.5886544
v 1.272607 -4.322674 -0.5711056
v 1.206848 -4.402834 -0.5432052
v 1.070947 -4.108422 -0.9708907
v 1.036005 -4.323106 -0.9393087
v 0.9784811 -4.403383 -0.8912911
v 0.6961496 -4.321998 -1.217014
v 0.6584567 -4.400454 -1.150481
v 0.7318991 -0.9440559 -1.280315
v 0.2845065 -0.5216804 -1.385647
v 1.061247 -2.577484 -0.9730098
v 0.726528 -2.577484 -1.263342
v 0.7224362 -4.113055 -1.263635
v 0.2785739 -4.320045 -1.340461
v 0.2915035 -4.387656 -1.241652
v 0.2990817 -0.9425691 -1.442815
v -0.1553665 -0.5103669 -1.368342
v -0.1657645 -0.9454695 -1.456818
v -0.1664164 -2.5795 -1.502444
v 0.3105172 -2.579375 -1.462736
v 0.2945846 -4.117782 -1.438303
v -0.1664896 -4.114041 -1.446018
v -0.1419583 -4.290865 -1.304514
v -0.1083158 -4.400964 -1.165803
v 1.22384 -0.3589228 -0.5444259
v 1.316865 -0.5084345 -0.6031564
v 1.435532 -0.4924226 -0.1617794
v 1.326032 -0.3386494 -0.1359786
v 0.9896408 -0.3825386 -0.9024044
v 1.408828 -0.4764118 0.2884354
v 1.059568 -0.5213264 -0.9809005
v 1.303735 -0.3258027 0.2698905
v 0.6548825 -0.3885017 -1.151906
v 1.240205 -0.4596174 0.7033378
v 0.7047702 -0.5282954 -1.245227
v 1.134587 -0.3106709 0.6558768
v 0.2727218 -0.3888716 -1.273566
v 0.9526803 -0.442928 1.040935
v 0.2845065 -0.5216804 -1.385647
v 0.868027 -0.298122 0.9580448
v -0.1398148 -0.3797553 -1.247463
v 0.5799826 -0.4276765 1.273357
v -0.1553665 -0.5103669 -1.368342
v 0.5296701 -0.2718916 1.172752
v -0.5247172 -0.3710334 -1.115471
v 0.1569821 -0.4171443 1.376209
v -0.5435086 -0.4979121 -1.197541
v 0.1474386 -0.2723994 1.259558
v -0.8341238 -0.3580146 -0.906711
v -0.2736478 -0.4115766 1.345701
v -0.8971634 -0.4853425 -0.9790645
v -0.2384964 -0.2732637 1.242439
v -1.077713 -0.3386421 -0.6027951
v -0.6707083 -0.4122456 1.184842
v -1.155318 -0.4692317 -0.6534298
v -0.6161332 -0.2809565 1.084558
v -1.201756 -0.3262873 -0.2425997
v -0.9963162 -0.4196833 0.9119315
v -1.302881 -0.4627912 -0.2599532
v -0.9096878 -0.2779573 0.8458378
v -1.218987 -0.3151326 0.1512088
v -1.222564 -0.4317524 0.5564334
v -1.32523 -0.4492903 0.1507596
v -1.131934 -0.2998201 0.5135623
vt 0.03189 0.848355
vt 0.004709 0.818549
vt 0.004709 0.848355
vt 0.03189 0.818549
vt 0.05723 0.848355
vt 0.03189 0.716669
vt 0.00471 0.716669
vt 0.00471 0.621229
vt 0.05723 0.818549
vt 0.083433 0.848355
vt 0.05723 0.716669
vt 0.03189 0.621229
vt 0.00471 0.607839
vt 0.083433 0.818549
vt 0.109907 0.848355
vt 0.083433 0.716669
vt 0.05723 0.621229
vt 0.03189 0.607839
vt 0.00471 0.598152
vt 0.03189 0.598152
vt 0.05723 0.607839
vt 0.05723 0.598152
vt 0.109907 0.818549
vt 0.136143 0.848355
vt 0.109907 0.716669
vt 0.083433 0.621229
vt 0.083433 0.607839
vt 0.083433 0.598152
vt 0.136143 0.818549
vt 0.162686 0.848355
vt 0.136143 0.716669
vt 0.109907 0.621229
vt 0.109907 0.607839
vt 0.109907 0.598152
vt 0.162686 0.818549
vt 0.189422 0.848355
vt 0.162686 0.716669
vt 0.136143 0.621229
vt 0.136143 0.607839
vt 0.136143 0.598152
vt 0.189422 0.818549
vt 0.216499 0.848355
vt 0.189422 0.716669
vt 0.162686 0.621229
vt 0.162686 0.607839
vt 0.162686 0.598152
vt 0.216499 0.818549
vt 0.243713 0.848355
vt 0.216499 0.716669
vt 0.189422 0.621229
vt 0.189422 0.607839
vt 0.189422 0.598152
vt 0.243713 0.818549
vt 0.271017 0.848355
vt 0.243713 0.716669
vt 0.216499 0.621229
vt 0.216499 0.607839
vt 0.216499 0.598152
vt 0.271017 0.818549
vt 0.298359 0.848355
vt 0.271017 0.716669
vt 0.243713 0.621229
vt 0.243713 0.607839
vt 0.243713 0.598152
vt 0.298359 0.818549
vt 0.325872 0.848355
vt 0.298359 0.716669
vt 0.271017 0.621229
vt 0.271017 0.607839
vt 0.271017 0.598152
vt 0.325872 0.818549
vt 0.353818 0.848355
vt 0.325872 0.716669
vt 0.298359 0.621229
vt 0.298359 0.607839
vt 0.298359 0.598152
vt 0.353818 0.818549
vt 0.381561 0.848355
vt 0.353818 0.716669
vt 0.325872 0.621229
vt 0.325872 0.607839
vt 0.325872 0.598152
vt 0.381561 0.818549
vt 0.409546 0.848355
vt 0.381561 0.716669
vt 0.353818 0.621229
vt 0.353818 0.607839
vt 0.353818 0.598152
vt 0.409546 0.818549
vt 0.437898 0.848355
vt 0.410698 0.716669
vt 0.437898 0.716669
vt 0.381561 0.621229
vt 0.381561 0.607839
vt 0.381561 0.598152
vt 0.437898 0.818549
vt 0.466335 0.848355
vt 0.409546 0.621229
vt 0.409546 0.607839
vt 0.409546 0.598152
vt 0.466335 0.818549
vt 0.494249 0.848355
vt 0.437898 0.621229
vt 0.437898 0.607839
vt 0.437898 0.598152
vt 0.466335 0.621229
vt 0.466335 0.607839
vt 0.466335 0.598152
vt 0.494249 0.607839
vt 0.494249 0.598152
vt 0.494249 0.818549
vt 0.520982 0.848355
vt 0.466335 0.716669
vt 0.494249 0.716669
vt 0.494249 0.621229
vt 0.520983 0.607839
vt 0.520983 0.598152
vt 0.520982 0.818549
vt 0.548079 0.848355
vt 0.548079 0.818549
vt 0.548079 0.716669
vt 0.520982 0.716669
vt 0.520983 0.62123
vt 0.548079 0.62123
vt 0.548079 0.607839
vt 0.548079 0.598152
vt 0.872381 0.574431
vt 0.878822 0.565585
vt 0.849985 0.555124
vt 0.846634 0.565884
vt 0.894442 0.591065
vt 0.819666 0.554301
vt 0.902572 0.584878
vt 0.820459 0.565174
vt 0.908811 0.613862
vt 0.790917 0.563316
vt 0.918274 0.609887
vt 0.794692 0.573828
vt 0.914917 0.639105
vt 0.766694 0.580736
vt 0.924982 0.638637
vt 0.773677 0.589311
vt 0.911508 0.665728
vt 0.748904 0.6044
vt 0.921762 0.667768
vt 0.758584 0.610349
vt 0.900988 0.690048
vt 0.739691 0.632445
vt 0.909314 0.693281
vt 0.750685 0.634387
vt 0.885705 0.708937
vt 0.739687 0.661668
vt 0.892354 0.715459
vt 0.749798 0.659358
vt 0.864529 0.722718
vt 0.748644 0.689108
vt 0.869116 0.730898
vt 0.757847 0.684674
vt 0.840741 0.729043
vt 0.765246 0.71239
vt 0.842132 0.738975
vt 0.772225 0.704497
vt 0.815258 0.728272
vt 0.787982 0.729304
vt 0.814582 0.738321
vt 0.79238 0.72065
vn -0.4498738 0.2873231 -0.8456116
vn -0.1619234 0.05601102 -0.9852124
vn -0.1818374 0.301535 -0.935955
vn -0.5039708 0.052379 -0.862131
vn -0.6727963 0.2281719 -0.7037632
vn -0.5112211 -0.003067 -0.8594438
vn -0.157405 -0.002975 -0.9875296
vn -0.1604669 -0.08842798 -0.9830722
vn -0.7273807 0.031201 -0.6855245
vn -0.8599003 0.1900309 -0.4737717
vn -0.7359197 -0.002185001 -0.6770654
vn -0.5016985 -0.072066 -0.8620354
vn -0.1401021 -0.6477559 -0.7488548
vn -0.8822405 0.015147 -0.4705554
vn -0.9619521 0.1827079 -0.2031401
vn -0.8830709 -0.001586999 -0.4692367
vn -0.7313945 -0.04285898 -0.6806065
vn -0.3384753 -0.5991322 -0.7255861
vn -0.113618 -0.806973 -0.5795563
vn -0.2253084 -0.7976609 -0.55944
vn -0.6131507 -0.4811082 -0.626563
vn -0.4433414 -0.7567272 -0.4804293
vn -0.9758281 0.014086 -0.2180848
vn -0.9784005 0.1869851 0.08814222
vn -0.9746132 -0.0007560003 -0.2238938
vn -0.8832944 -0.03003399 -0.4678557
vn -0.795 -0.4367429 -0.4209878
vn -0.6339819 -0.6985574 -0.3317899
vn -0.9967024 0.020004 0.07863903
vn -0.9034172 0.190629 0.3840546
vn -0.9975554 0.001471 0.06986461
vn -0.9740025 -0.031269 -0.2243689
vn -0.8807479 -0.4351493 -0.1868911
vn -0.7324978 -0.6659391 -0.1413224
vn -0.9243184 0.02549701 0.3807695
vn -0.7389814 0.197914 0.6440005
vn -0.9267642 0.003994999 0.3756222
vn -0.9971961 -0.03477702 0.06626115
vn -0.8857146 -0.4592148 0.06805397
vn -0.7345067 -0.675349 0.0663607
vn -0.7560284 0.028343 0.6539248
vn -0.5029439 0.2020431 0.8403726
vn -0.7565403 0.005057001 0.6539275
vn -0.9267744 -0.03653102 0.3738377
vn -0.8067032 -0.4871208 0.3345793
vn -0.6595242 -0.6949151 0.2865673
vn -0.5112202 0.02759402 0.8590068
vn -0.2201219 0.200118 0.9547247
vn -0.5066103 0.003861002 0.8621665
vn -0.7554148 -0.03725201 0.6541871
vn -0.6456451 -0.5135291 0.5651816
vn -0.5240988 -0.7074091 0.4742289
vn -0.2162433 0.02388 0.9760474
vn 0.08735161 0.19378 0.9771484
vn -0.2073119 0.0006339998 0.9782747
vn -0.5023022 -0.03761003 0.8638737
vn -0.4250847 -0.5248169 0.7374755
vn -0.3446102 -0.7129111 0.6107386
vn 0.09832159 0.01837799 0.994985
vn 0.3863544 0.192357 0.9020693
vn 0.1073279 -0.003199 0.9942185
vn -0.1999983 -0.03982802 0.9789864
vn -0.1651262 -0.5309791 0.8311405
vn -0.1359842 -0.7139098 0.6869069
vn 0.3998885 0.012488 0.9164786
vn 0.6451517 0.192199 0.7394855
vn 0.4063457 -0.006362 0.9136972
vn 0.1127014 -0.04211301 0.9927361
vn 0.09140475 -0.526904 0.8449954
vn 0.06752619 -0.7181612 0.6925928
vn 0.659783 0.007699002 0.7514167
vn 0.8411776 0.19091 0.5059383
vn 0.6636273 -0.008804998 0.7480115
vn 0.408595 -0.04140602 0.9117762
vn 0.3399162 -0.511195 0.78939
vn 0.2601348 -0.723601 0.639321
vn 0.8579577 0.004435999 0.5137011
vn 0.9584453 0.18735 0.2151341
vn 0.8596871 -0.0107 0.5107087
vn 0.6648452 -0.04040001 0.7458879
vn 0.5755497 -0.4798791 0.6621621
vn 0.4339235 -0.7234468 0.5369684
vn 0.9758592 0.002413 0.2183871
vn 0.9763355 0.1892941 -0.1045788
vn 0.976219 -0.011953 0.2164568
vn 0.8595752 -0.04068301 0.5093873
vn 0.7629072 -0.4440509 0.4698845
vn 0.5874955 -0.7072243 0.3932974
vn 0.9945418 0.0008270001 -0.1043354
vn 0.891131 0.19504 -0.4096889
vn 0.9944893 -0.012158 -0.1041303
vn 0.9109728 -0.011215 -0.4123141
vn 0.9752498 -0.039232 0.2175974
vn 0.8935373 -0.3951061 0.2132654
vn 0.7054293 -0.6836971 0.1868898
vn 0.9093509 -0.001575 -0.416027
vn 0.7129673 0.2081401 -0.6695935
vn 0.9944006 -0.03468 -0.09982339
vn 0.9263835 -0.368239 -0.07882695
vn 0.7356672 -0.6750671 -0.05548135
vn 0.7429492 0.001087 -0.669347
vn 0.4591772 0.230056 -0.8580388
vn 0.9126731 -0.02773201 -0.4077486
vn 0.8582184 -0.3582982 -0.3675372
vn 0.6783416 -0.6750638 -0.2900718
vn 0.7523127 -0.02550199 -0.6583126
vn 0.6966966 -0.3694049 -0.6149421
vn 0.5427982 -0.6818301 -0.4903854
vn 0.440358 -0.4302431 -0.7880201
vn 0.3135168 -0.726722 -0.6112139
vn 0.5091017 0.015668 -0.8605638
vn 0.1538665 0.267252 -0.9512631
vn 0.7493948 -0.009439998 -0.6620561
vn 0.5241783 -0.006104001 -0.8515866
vn 0.5257357 -0.03901101 -0.849753
vn 0.09120015 -0.5768762 -0.8117243
vn 0.02183933 -0.7881153 -0.61514
vn 0.2141475 0.03833101 -0.9760489
vn -0.1818374 0.301535 -0.935955
vn -0.1619234 0.05601102 -0.9852124
vn -0.157405 -0.002975 -0.9875296
vn 0.2285681 -0.003215 -0.9735227
vn 0.2204352 -0.06931598 -0.9729356
vn -0.1604669 -0.08842798 -0.9830722
vn -0.1401021 -0.6477559 -0.7488548
vn -0.113618 -0.806973 -0.5795563
vn 0.6232229 0.7195231 -0.3063979
vn 0.891131 0.19504 -0.4096889
vn 0.9763355 0.1892941 -0.1045788
vn 0.6904213 0.7172229 -0.09439043
vn 0.4977278 0.7140326 -0.492366
vn 0.9584453 0.18735 0.2151341
vn 0.7129673 0.2081401 -0.6695935
vn 0.6933606 0.707993 0.1341527
vn 0.3222328 0.7128186 -0.6229411
vn 0.8411776 0.19091 0.5059383
vn 0.4591772 0.230056 -0.8580388
vn 0.6113426 0.7073919 0.3547632
vn 0.1051104 0.7149982 -0.6911798
vn 0.6451517 0.192199 0.7394855
vn 0.1538665 0.267252 -0.9512631
vn 0.4803559 0.7068743 0.5192178
vn -0.1239719 0.7015649 -0.701739
vn 0.3863544 0.192357 0.9020693
vn -0.1818374 0.301535 -0.935955
vn 0.2910294 0.7102737 0.640947
vn -0.3194817 0.6581691 -0.6817221
vn 0.08735161 0.19378 0.9771484
vn -0.4498738 0.2873231 -0.8456116
vn 0.06876726 0.7079661 0.7028906
vn -0.4970045 0.6492471 -0.5757297
vn -0.2201219 0.200118 0.9547247
vn -0.6727963 0.2281719 -0.7037632
vn -0.1523294 0.7088219 0.6887432
vn -0.642383 0.6671569 -0.3771545
vn -0.5029439 0.2020431 0.8403726
vn -0.8599003 0.1900309 -0.4737717
vn -0.3684106 0.7047476 0.6063039
vn -0.7138562 0.6819515 -0.1592209
vn -0.7389814 0.197914 0.6440005
vn -0.9619521 0.1827079 -0.2031401
vn -0.5390404 0.7020971 0.4652902
vn -0.7218784 0.6902612 0.04930604
vn -0.9034172 0.190629 0.3840546
vn -0.9784005 0.1869851 0.08814222
vn -0.6713512 0.692982 0.2627996
g wall24_0
f 3/3/3 2/2/2 1/1/1
f 2/2/2 4/4/4 1/1/1
f 1/1/1 4/4/4 5/5/5
f 6/6/6 4/4/4 2/2/2
f 7/7/7 6/6/6 2/2/2
f 7/7/7 8/8/8 6/6/6
f 4/4/4 9/9/9 5/5/5
f 5/5/5 9/9/9 10/10/10
f 6/6/6 11/11/11 4/4/4
f 11/11/11 9/9/9 4/4/4
f 8/8/8 12/12/12 6/6/6
f 6/6/6 12/12/12 11/11/11
f 8/8/8 13/13/13 12/12/12
f 9/9/9 14/14/14 10/10/10
f 10/10/10 14/14/14 15/15/15
f 11/11/11 16/16/16 9/9/9
f 16/16/16 14/14/14 9/9/9
f 12/12/12 17/17/17 11/11/11
f 11/11/11 17/17/17 16/16/16
f 13/13/13 18/18/18 12/12/12
f 12/12/12 18/18/18 17/17/17
f 13/13/13 19/19/19 18/18/18
f 19/19/19 20/20/20 18/18/18
f 18/18/18 20/20/20 21/21/21
f 18/18/18 21/21/21 17/17/17
f 20/20/20 22/22/22 21/21/21
f 14/14/14 23/23/23 15/15/15
f 15/15/15 23/23/23 24/24/24
f 16/16/16 25/25/25 14/14/14
f 25/25/25 23/23/23 14/14/14
f 17/17/17 26/26/26 16/16/16
f 17/17/17 21/21/21 26/26/26
f 16/16/16 26/26/26 25/25/25
f 21/21/21 22/22/22 27/27/27
f 21/21/21 27/27/27 26/26/26
f 22/22/22 28/28/28 27/27/27
f 23/23/23 29/29/29 24/24/24
f 24/24/24 29/29/29 30/30/30
f 25/25/25 31/31/31 23/23/23
f 31/31/31 29/29/29 23/23/23
f 26/26/26 32/32/32 25/25/25
f 26/26/26 27/27/27 32/32/32
f 25/25/25 32/32/32 31/31/31
f 27/27/27 28/28/28 33/33/33
f 27/27/27 33/33/33 32/32/32
f 28/28/28 34/34/34 33/33/33
f 29/29/29 35/35/35 30/30/30
f 30/30/30 35/35/35 36/36/36
f 31/31/31 37/37/37 29/29/29
f 37/37/37 35/35/35 29/29/29
f 32/32/32 38/38/38 31/31/31
f 32/32/32 33/33/33 38/38/38
f 31/31/31 38/38/38 37/37/37
f 33/33/33 34/34/34 39/39/39
f 33/33/33 39/39/39 38/38/38
f 34/34/34 40/40/40 39/39/39
f 35/35/35 41/41/41 36/36/36
f 36/36/36 41/41/41 42/42/42
f 37/37/37 43/43/43 35/35/35
f 43/43/43 41/41/41 35/35/35
f 38/38/38 44/44/44 37/37/37
f 38/38/38 39/39/39 44/44/44
f 37/37/37 44/44/44 43/43/43
f 39/39/39 40/40/40 45/45/45
f 39/39/39 45/45/45 44/44/44
f 40/40/40 46/46/46 45/45/45
f 41/41/41 47/47/47 42/42/42
f 42/42/42 47/47/47 48/48/48
f 43/43/43 49/49/49 41/41/41
f 49/49/49 47/47/47 41/41/41
f 44/44/44 50/50/50 43/43/43
f 44/44/44 45/45/45 50/50/50
f 43/43/43 50/50/50 49/49/49
f 45/45/45 46/46/46 51/51/51
f 45/45/45 51/51/51 50/50/50
f 46/46/46 52/52/52 51/51/51
f 47/47/47 53/53/53 48/48/48
f 48/48/48 53/53/53 54/54/54
f 49/49/49 55/55/55 47/47/47
f 55/55/55 53/53/53 47/47/47
f 50/50/50 56/56/56 49/49/49
f 50/50/50 51/51/51 56/56/56
f 49/49/49 56/56/56 55/55/55
f 51/51/51 52/52/52 57/57/57
f 51/51/51 57/57/57 56/56/56
f 52/52/52 58/58/58 57/57/57
f 53/53/53 59/59/59 54/54/54
f 54/54/54 59/59/59 60/60/60
f 55/55/55 61/61/61 53/53/53
f 61/61/61 59/59/59 53/53/53
f 56/56/56 62/62/62 55/55/55
f 56/56/56 57/57/57 62/62/62
f 55/55/55 62/62/62 61/61/61
f 57/57/57 58/58/58 63/63/63
f 57/57/57 63/63/63 62/62/62
f 58/58/58 64/64/64 63/63/63
f 59/59/59 65/65/65 60/60/60
f 60/60/60 65/65/65 66/66/66
f 61/61/61 67/67/67 59/59/59
f 67/67/67 65/65/65 59/59/59
f 62/62/62 68/68/68 61/61/61
f 62/62/62 63/63/63 68/68/68
f 61/61/61 68/68/68 67/67/67
f 63/63/63 64/64/64 69/69/69
f 63/63/63 69/69/69 68/68/68
f 64/64/64 70/70/70 69/69/69
f 65/65/65 71/71/71 66/66/66
f 66/66/66 71/71/71 72/72/72
f 67/67/67 73/73/73 65/65/65
f 73/73/73 71/71/71 65/65/65
f 68/68/68 74/74/74 67/67/67
f 68/68/68 69/69/69 74/74/74
f 67/67/67 74/74/74 73/73/73
f 69/69/69 70/70/70 75/75/75
f 69/69/69 75/75/75 74/74/74
f 70/70/70 76/76/76 75/75/75
f 71/71/71 77/77/77 72/72/72
f 72/72/72 77/77/77 78/78/78
f 73/73/73 79/79/79 71/71/71
f 79/79/79 77/77/77 71/71/71
f 74/74/74 80/80/80 73/73/73
f 74/74/74 75/75/75 80/80/80
f 73/73/73 80/80/80 79/79/79
f 75/75/75 76/76/76 81/81/81
f 75/75/75 81/81/81 80/80/80
f 76/76/76 82/82/82 81/81/81
f 77/77/77 83/83/83 78/78/78
f 78/78/78 83/83/83 84/84/84
f 79/79/79 85/85/85 77/77/77
f 85/85/85 83/83/83 77/77/77
f 80/80/80 86/86/86 79/79/79
f 80/80/80 81/81/81 86/86/86
f 79/79/79 86/86/86 85/85/85
f 81/81/81 82/82/82 87/87/87
f 81/81/81 87/87/87 86/86/86
f 82/82/82 88/88/88 87/87/87
f 83/83/83 89/89/89 84/84/84
f 84/84/84 89/89/89 90/90/90
f 85/85/85 91/91/91 83/83/83
f 91/91/91 89/89/89 83/83/83
f 91/91/91 92/92/92 89/89/89
f 86/86/86 93/93/93 85/85/85
f 86/86/86 87/87/87 93/93/93
f 85/85/85 93/93/93 91/91/91
f 87/87/87 88/88/88 94/94/94
f 87/87/87 94/94/94 93/93/93
f 88/88/88 95/95/95 94/94/94
f 89/89/89 96/96/96 90/90/90
f 92/92/92 96/96/96 89/89/89
f 90/90/90 96/96/96 97/97/97
f 93/93/93 98/98/98 91/91/91
f 93/93/93 94/94/94 98/98/98
f 91/91/91 98/98/98 92/92/92
f 94/94/94 95/95/95 99/99/99
f 94/94/94 99/99/99 98/98/98
f 95/95/95 100/100/100 99/99/99
f 96/96/96 101/101/101 97/97/97
f 101/101/101 96/96/96 92/92/92
f 97/97/97 101/101/101 102/102/102
f 98/98/98 99/99/99 103/103/103
f 98/98/98 103/103/103 92/92/92
f 99/99/99 100/100/100 104/104/104
f 99/99/99 104/104/104 103/103/103
f 100/100/100 105/105/105 104/104/104
f 92/92/92 103/103/103 106/106/106
f 103/103/103 104/104/104 106/106/106
f 104/104/104 105/105/105 107/107/107
f 104/104/104 107/107/107 106/106/106
f 105/105/105 108/108/108 107/107/107
f 107/107/107 108/108/108 109/109/109
f 108/108/108 110/110/110 109/109/109
f 101/101/101 111/111/111 102/102/102
f 102/102/102 111/111/111 112/112/112
f 113/113/113 101/101/101 92/92/92
f 113/113/113 92/92/92 106/106/106
f 113/113/113 114/114/114 101/101/101
f 113/113/113 106/106/106 114/114/114
f 114/114/114 111/111/111 101/101/101
f 106/106/106 107/107/107 115/115/115
f 106/106/106 115/115/115 114/114/114
f 107/107/107 109/109/109 115/115/115
f 109/109/109 110/110/110 116/116/116
f 110/110/110 117/117/117 116/116/116
f 111/111/111 118/118/118 112/112/112
f 112/112/112 118/118/118 119/119/119
f 118/118/118 120/120/120 119/119/119
f 121/121/121 120/120/120 118/118/118
f 114/114/114 122/122/122 111/111/111
f 122/122/122 118/118/118 111/111/111
f 114/114/114 115/115/115 122/122/122
f 122/122/122 121/121/121 118/118/118
f 115/115/115 109/109/109 123/123/123
f 115/115/115 123/123/123 122/122/122
f 122/122/122 123/123/123 121/121/121
f 109/109/109 116/116/116 123/123/123
f 123/123/123 124/124/124 121/121/121
f 123/123/123 116/116/116 124/124/124
f 116/116/116 125/125/125 124/124/124
f 116/116/116 117/117/117 125/125/125
f 117/117/117 126/126/126 125/125/125
f 129/129/129 128/128/128 127/127/127
f 130/130/130 129/129/129 127/127/127
f 127/127/127 128/128/128 131/131/131
f 132/132/132 129/129/129 130/130/130
f 128/128/128 133/133/133 131/131/131
f 134/134/134 132/132/132 130/130/130
f 131/131/131 133/133/133 135/135/135
f 136/136/136 132/132/132 134/134/134
f 133/133/133 137/137/137 135/135/135
f 138/138/138 136/136/136 134/134/134
f 135/135/135 137/137/137 139/139/139
f 140/140/140 136/136/136 138/138/138
f 137/137/137 141/141/141 139/139/139
f 142/142/142 140/140/140 138/138/138
f 139/139/139 141/141/141 143/143/143
f 144/144/144 140/140/140 142/142/142
f 141/141/141 145/145/145 143/143/143
f 146/146/146 144/144/144 142/142/142
f 143/143/143 145/145/145 147/147/147
f 148/148/148 144/144/144 146/146/146
f 145/145/145 149/149/149 147/147/147
f 150/150/150 148/148/148 146/146/146
f 147/147/147 149/149/149 151/151/151
f 152/152/152 148/148/148 150/150/150
f 149/149/149 153/153/153 151/151/151
f 154/154/154 152/152/152 150/150/150
f 151/151/151 153/153/153 155/155/155
f 156/156/156 152/152/152 154/154/154
f 153/153/153 157/157/157 155/155/155
f 158/158/158 156/156/156 154/154/154
f 155/155/155 157/157/157 159/159/159
f 160/160/160 156/156/156 158/158/158
f 157/157/157 161/161/161 159/159/159
f 162/162/162 160/160/160 158/158/158
f 159/159/159 161/161/161 163/163/163
f 164/164/164 160/160/160 162/162/162
f 161/161/161 165/165/165 163/163/163
f 166/166/166 164/164/164 162/162/162
f 163/163/163 165/165/165 166/166/166
f 165/165/165 164/164/164 166/166/166
