g wall23
v -0.4695296 -0.05907471 -0.3650191
v -0.275228 -0.1104834 -0.4912984
v -0.2960901 -0.03320313 -0.4815328
v -0.5074511 -0.3019556 -0.5096089
v -0.2864739 -0.1957861 -0.5212398
v -0.2856824 -0.3341284 -0.5362691
v -0.2913547 -0.5085205 -0.5529585
v -0.4691678 -0.6812158 -0.5567574
v -0.2878069 -0.7054297 -0.5418355
v -0.2951888 -0.907876 -0.500273
v -0.307716 -1.118608 -0.4323726
v -0.5179833 -1.238184 -0.2962496
v -0.3130066 -1.243218 -0.363857
v -0.2974005 -1.369983 -0.4140425
v -0.3098906 -1.631428 -0.486357
v -0.4716269 -1.847798 -0.4559175
v -0.2956128 -1.844106 -0.5004488
v -0.311749 -2.005554 -0.4845992
v -0.3101104 -2.379341 -0.3850386
v -0.5007781 -2.465425 -0.2435054
v -0.2843694 -2.462622 -0.3200289
v -0.2889572 -2.56023 -0.3916011
v -0.476814 -3.07563 -0.4753316
v -0.282592 -2.824507 -0.4521968
v -0.2756809 -3.079456 -0.4791304
v -0.2489234 -3.406479 -0.4542378
v -0.4775891 -3.650395 -0.3122749
v -0.2064278 -3.560049 -0.4125582
v -0.1751212 -3.672822 -0.3425386
v -0.2160955 -3.690708 -0.258398
v -0.4630138 -3.701003 -0.1664839
v -0.2619045 -3.691538 -0.1378023
v -4.077802 -3.648652 -0.3228609
v -4.078359 -3.564438 -0.3966109
v -4.079635 -3.085845 -0.565273
v -4.077892 -2.473262 -0.3348433
v -4.079232 -1.85053 -0.5119917
v -4.077769 -1.227891 -0.3172359
v -4.079653 -0.680166 -0.5676656
v -4.07951 -0.3106494 -0.520898
v -4.074343 -0.03469238 -0.3647652
v -8.133556 -3.673369 -0.1983785
v -7.827537 -3.686924 -0.3001363
v -8.128234 -3.689136 -0.2919039
v -8.143416 -3.683042 -0.365898
v -7.814765 -3.587947 -0.4186324
v -4.077802 -3.648652 -0.3228609
v -8.129944 -3.613711 -0.4134566
v -4.078359 -3.564438 -0.3966109
v -8.108215 -3.331326 -0.5316499
v -4.079635 -3.085845 -0.565273
v -7.78722 -3.094302 -0.5606832
v -8.120448 -3.091748 -0.5168551
v -4.077892 -2.473262 -0.3348433
v -7.88246 -2.481299 -0.3145699
v -8.131488 -2.770164 -0.5013765
v -8.141013 -2.584575 -0.4637105
v -8.163966 -2.473193 -0.3906832
v -4.079232 -1.85053 -0.5119917
v -7.950508 -1.852888 -0.5094332
v -8.145949 -2.299275 -0.4811519
v -8.173156 -2.100044 -0.5249214
v -8.197518 -1.851609 -0.5451558
v -4.077769 -1.227891 -0.3172359
v -7.886491 -1.219014 -0.3036421
v -8.185146 -1.700522 -0.5311617
v -4.079653 -0.680166 -0.5676656
v -7.953126 -0.682981 -0.5434957
v -8.159334 -1.447598 -0.4862496
v -4.07951 -0.3106494 -0.520898
v -7.915859 -0.294646 -0.503437
v -4.074343 -0.03469238 -0.3647652
v -7.899822 -0.05990722 -0.3842086
v -8.200848 -0.03522217 -0.4925582
v -8.212921 -0.0786377 -0.5151851
v -8.20645 -0.1475146 -0.5333003
v -8.20913 -0.2847339 -0.5601265
v -8.213156 -0.4840918 -0.567646
v -8.210317 -0.6703759 -0.5591207
v -8.18602 -0.8983008 -0.5334175
v -8.151038 -1.116704 -0.4750875
v -8.058036 -1.23293 -0.3461617
v -8.152183 -1.347222 -0.4463863
v -8.147307 -1.181775 -0.4408101
v -8.146399 -1.246846 -0.406523
v -0.2960901 -0.03320313 -0.4815328
v -0.364646 0.007753906 -0.2275484
v -0.4695296 -0.05907471 -0.3650191
v -0.4714905 0.01424561 -0.1920992
v -0.4671213 0.03048828 0.0001762108
v -0.3568383 -1.818989E-14 0.002705507
v -0.3378743 -0.001767578 0.2844047
v -4.075145 0.08151123 -0.2214742
v -4.074343 -0.03469238 -0.3647652
v -4.07568 0.1276221 -0.04231402
v -4.074344 0.08685546 0.1634965
v -0.4688155 0.01429687 0.2119731
v -0.4562139 -0.07208008 0.4007133
v -0.2220235 -0.03955566 0.5062993
v -4.072891 -0.04630859 0.3263871
v -0.462004 -0.3019556 0.5574516
v -0.2182836 -0.1104834 0.5383305
v -0.2184012 -0.1957861 0.568184
v -0.1978974 -0.3341284 0.5827739
v -4.07197 -0.3106494 0.4760649
v -0.4067325 -0.6812158 0.603682
v -0.2119545 -0.5085205 0.5969633
v -0.2023874 -0.7054297 0.585684
v -0.2208846 -0.907876 0.5454398
v -4.071405 -0.680166 0.5228325
v -0.4831471 -1.238184 0.3460258
v -0.2553853 -1.118608 0.4792582
v -0.2797049 -1.243218 0.411768
v -0.2695554 -1.369983 0.4609965
v -4.073299 -1.227891 0.2724028
v -0.4472429 -1.847798 0.5038969
v -0.2553081 -1.631431 0.5322953
v -0.256514 -1.844106 0.5458598
v -0.2455173 -2.005554 0.5304496
v -4.071837 -1.85053 0.4671488
v -0.2593621 -2.379341 0.4324223
v -0.482044 -2.465425 0.2929301
v -0.2512075 -2.462622 0.3671196
v -4.073174 -2.473262 0.2890532
v -0.3992687 -3.07563 0.5223832
v -0.2397832 -2.56023 0.4380277
v -0.1829131 -2.824507 0.4966313
v -0.1543863 -3.079456 0.5224223
v -4.071836 -3.085845 0.4659672
v -0.4225836 -3.650395 0.3669047
v -4.073143 -3.564438 0.2931743
v -0.1320935 -3.406479 0.5040336
v -4.0737 -3.648652 0.2194243
v -0.1288987 -3.560049 0.4767387
v -0.1012255 -3.672822 0.4181938
v -0.3909178 -3.701003 0.216309
v -0.1252329 -3.690706 0.3252738
v -0.1604377 -3.691538 0.1930278
v -8.147173 0.01363525 -0.2951363
v -8.200848 -0.03522217 -0.4925582
v -7.899822 -0.05990722 -0.3842086
v -7.875138 0.03623047 -0.2453902
v -4.074343 -0.03469238 -0.3647652
v -4.075145 0.08151123 -0.2214742
v -4.07568 0.1276221 -0.04231402
v -7.859657 0.06714355 -0.07656207
v -8.09598 0.04202148 -0.06188434
v -8.049913 0.01707031 0.2218657
v -7.836996 0.04623535 0.1435551
v -4.074344 0.08685546 0.1634965
v -4.072891 -0.04630859 0.3263871
v -7.827187 -0.05408691 0.3352641
v -8.100476 -0.04294189 0.4704887
v -7.823147 -0.294646 0.4644047
v -8.100362 -0.0786377 0.493477
v -4.07197 -0.3106494 0.4760649
v -8.093633 -0.1475146 0.5096879
v -8.098288 -0.2847339 0.5410356
v -4.071405 -0.680166 0.5228325
v -7.861632 -0.6833618 0.5119829
v -8.102242 -0.4842529 0.5308598
v -8.106713 -0.6707617 0.5251762
v -8.107321 -0.8989599 0.5229105
v -4.073299 -1.227891 0.2724028
v -7.813562 -1.21979 0.2611235
v -8.058163 -1.117637 0.4533207
v -8.01125 -1.247959 0.3829106
v -8.022578 -1.448452 0.4601469
v -4.071837 -1.85053 0.4671488
v -7.812176 -1.853589 0.4771391
v -8.030493 -1.701064 0.4460453
v -8.031496 -1.853491 0.4656254
v -8.037427 -2.105361 0.4467387
v -4.073174 -2.473262 0.2890532
v -7.824083 -2.481299 0.2726762
v -8.041024 -2.301582 0.4452055
v -8.032738 -2.473193 0.3698637
v -8.061451 -2.584575 0.4504985
v -4.071836 -3.085845 0.4659672
v -8.071615 -2.770164 0.4976567
v -7.757668 -3.094302 0.5189555
v -8.106785 -3.09395 0.5073832
v -4.073143 -3.564438 0.2931743
v -8.078256 -3.349653 0.5372562
v -7.824159 -3.587947 0.3780668
v -4.0737 -3.648652 0.2194243
v -8.160949 -3.613711 0.4856547
v -8.168139 -3.683042 0.4554399
v -7.839748 -3.686924 0.2671293
v -8.154082 -3.689136 0.3812309
v -8.157011 -3.673369 0.2877739
vt 0.02215 0.057013
vt 0.005561 0.063828
vt 0.005236 0.059156
vt 0.02215 0.075024
vt 0.006234 0.06942
vt 0.006647 0.078097
vt 0.008986 0.088632
vt 0.02215 0.098051
vt 0.009668 0.100081
vt 0.007886 0.112482
vt 0.006057 0.126294
vt 0.02215 0.135424
vt 0.005951 0.135634
vt 0.006075 0.144655
vt 0.008053 0.161933
vt 0.02215 0.175186
vt 0.009013 0.17471
vt 0.007942 0.184197
vt 0.004809 0.208232
vt 0.02215 0.215354
vt 0.004876 0.215196
vt 0.004903 0.223112
vt 0.02215 0.255301
vt 0.006972 0.239916
vt 0.008174 0.254976
vt 0.005498 0.273877
vt 0.02215 0.288401
vt 0.003532 0.286823
vt 0.003532 0.286823
vt 0.006653 0.295701
vt 0.02215 0.297088
vt 0.010344 0.303478
vt 0.731273 0.297088
vt 0.731273 0.288401
vt 0.731273 0.255301
vt 0.731273 0.215354
vt 0.731273 0.175186
vt 0.731273 0.135424
vt 0.731273 0.098051
vt 0.731273 0.075024
vt 0.731273 0.057013
vt 0.727241 0.600956
vt 0.712753 0.593202
vt 0.729672 0.59541
vt 0.732691 0.591757
vt 0.712753 0.585562
vt 0.003532 0.593202
vt 0.732139 0.586486
vt 0.003532 0.585562
vt 0.730718 0.569007
vt 0.003532 0.554263
vt 0.712753 0.554263
vt 0.731123 0.554162
vt 0.003532 0.514117
vt 0.712753 0.514117
vt 0.730984 0.534092
vt 0.731794 0.521975
vt 0.732336 0.512851
vt 0.003532 0.473781
vt 0.712753 0.473781
vt 0.730866 0.500498
vt 0.728868 0.488207
vt 0.727486 0.473639
vt 0.003532 0.433472
vt 0.712753 0.433472
vt 0.728442 0.46489
vt 0.003532 0.396993
vt 0.712753 0.396993
vt 0.730735 0.449167
vt 0.003532 0.373828
vt 0.712753 0.373828
vt 0.003532 0.355956
vt 0.712753 0.355956
vt 0.733009 0.359909
vt 0.733138 0.362495
vt 0.73244 0.366721
vt 0.730767 0.374986
vt 0.728354 0.386302
vt 0.727895 0.396643
vt 0.729705 0.410217
vt 0.731692 0.42477
vt 0.722306 0.434127
vt 0.731297 0.4419745
vt 0.7317755 0.429776
vt 0.731859 0.434782
vt 0.008619 0.003532
vt 0.015257 0.017512
vt 0.02215 0.008005
vt 0.02215 0.019469
vt 0.02215 0.030762
vt 0.01464 0.03094
vt 0.014107 0.047841
vt 0.731273 0.019469
vt 0.731273 0.008005
vt 0.731273 0.030762
vt 0.731273 0.043889
vt 0.02215 0.043889
vt 0.02215 0.057013
vt 0.005236 0.059156
vt 0.731273 0.057013
vt 0.02215 0.075024
vt 0.005561 0.063828
vt 0.006234 0.06942
vt 0.006647 0.078097
vt 0.731273 0.075024
vt 0.02215 0.098051
vt 0.008986 0.088632
vt 0.009668 0.100081
vt 0.007886 0.112482
vt 0.731273 0.098051
vt 0.02215 0.135424
vt 0.006057 0.126294
vt 0.005951 0.135634
vt 0.006075 0.144655
vt 0.731273 0.135424
vt 0.02215 0.175186
vt 0.008053 0.161933
vt 0.009013 0.17471
vt 0.007942 0.184197
vt 0.731273 0.175186
vt 0.004809 0.208232
vt 0.02215 0.215354
vt 0.004876 0.215196
vt 0.731273 0.215354
vt 0.02215 0.255301
vt 0.004903 0.223112
vt 0.006972 0.239916
vt 0.008174 0.254976
vt 0.731273 0.255301
vt 0.02215 0.288401
vt 0.731273 0.288401
vt 0.005498 0.273877
vt 0.731273 0.297088
vt 0.003532 0.286823
vt 0.003532 0.286823
vt 0.02215 0.297088
vt 0.006653 0.295701
vt 0.010344 0.303478
vt 0.729634 0.314946
vt 0.735082 0.30398
vt 0.712753 0.307239
vt 0.712753 0.318194
vt 0.003532 0.307239
vt 0.003532 0.318194
vt 0.003532 0.329258
vt 0.712753 0.329258
vt 0.726759 0.328775
vt 0.727169 0.346285
vt 0.712753 0.342638
vt 0.003532 0.342638
vt 0.003532 0.355956
vt 0.712753 0.355956
vt 0.733009 0.359909
vt 0.712753 0.373828
vt 0.733138 0.362495
vt 0.003532 0.373828
vt 0.73244 0.366721
vt 0.730767 0.374986
vt 0.003532 0.396993
vt 0.712753 0.396993
vt 0.728354 0.386302
vt 0.727895 0.396643
vt 0.729705 0.410217
vt 0.003532 0.433472
vt 0.712753 0.433472
vt 0.731692 0.42477
vt 0.731859 0.434782
vt 0.730735 0.449167
vt 0.003532 0.473781
vt 0.712753 0.473781
vt 0.728442 0.46489
vt 0.727486 0.473639
vt 0.728868 0.488207
vt 0.003532 0.514117
vt 0.712753 0.514117
vt 0.730866 0.500498
vt 0.732336 0.512851
vt 0.731794 0.521975
vt 0.003532 0.554263
vt 0.730984 0.534092
vt 0.712753 0.554263
vt 0.731123 0.554162
vt 0.003532 0.585562
vt 0.730718 0.569007
vt 0.712753 0.585562
vt 0.003532 0.593202
vt 0.732139 0.586486
vt 0.732691 0.591757
vt 0.712753 0.593202
vt 0.729672 0.59541
vt 0.727241 0.600956
vn -0.06195834 0.6681242 -0.7414656
vn -0.3777282 0.4056988 -0.8323039
vn -0.510117 0.5478469 -0.6630569
vn -0.06301868 0.293126 -0.9539947
vn -0.1604352 0.23748 -0.958052
vn -0.09426524 0.108194 -0.9896505
vn -0.07633258 0.09225599 -0.9928052
vn -0.04989458 -0.2108359 -0.9762473
vn 0.06078417 -0.132927 -0.9892602
vn -0.2405613 -0.377921 -0.8940392
vn -0.2534629 -0.3948781 -0.8830786
vn -0.04702901 -0.07919502 -0.9957491
vn -0.2694938 -0.07085496 -0.9603919
vn -0.2875 0.3063889 -0.9074523
vn -0.3671487 0.2243511 -0.9027007
vn -0.04991506 -0.045201 -0.9977301
vn -0.2295243 -0.005968999 -0.9732847
vn -0.3800485 -0.283125 -0.88057
vn -0.3773871 -0.3152038 -0.8707614
vn -0.05054353 0.02335601 -0.9984487
vn -0.2867628 0.03031101 -0.957522
vn -0.3377053 0.328597 -0.8820312
vn -0.0289014 0.06711596 -0.9973265
vn -0.3264906 0.2930752 -0.8986161
vn -0.01876437 0.013115 -0.9997379
vn -0.2880943 -0.2201669 -0.9319487
vn -0.03273187 -0.4389009 -0.8979391
vn -0.2981259 -0.259304 -0.9186307
vn -0.1982126 -0.7091677 -0.676604
vn -0.06951808 -0.9821907 -0.1745522
vn -0.007157536 -0.8864845 -0.4627029
vn 0.04545519 -0.9989636 -0.002391836
vn -0.001363837 -0.662082 -0.7494302
vn -0.001781233 -0.4024859 -0.9154244
vn -0.002975616 0.008016002 -0.9999635
vn -0.00372083 -0.002989 -0.9999887
vn -0.003100852 0.001766999 -0.9999937
vn -0.002585958 -0.04849998 -0.9988198
vn -0.003306992 -0.205789 -0.9785908
vn -0.004419281 0.2988319 -0.9542955
vn -0.00433042 0.6048811 -0.796304
vn -0.04873547 -0.9851319 0.1647423
vn 0.02551658 -0.719707 -0.6938088
vn 0.0001677549 -0.9997206 0.0236354
vn 0.2874275 -0.7544684 -0.5900533
vn 0.03047164 -0.389345 -0.9205878
vn -0.001363837 -0.662082 -0.7494302
vn 0.3548402 -0.3296298 -0.87489
vn -0.001781233 -0.4024859 -0.9154244
vn 0.2634571 -0.2260231 -0.9378187
vn -0.002975616 0.008016002 -0.9999635
vn 0.02135713 0.09825599 -0.994932
vn 0.03264065 0.05743601 -0.9978155
vn -0.00372083 -0.002989 -0.9999887
vn 0.04515643 0.033569 -0.9984157
vn 0.3653559 0.338351 -0.8671988
vn 0.384192 0.3933141 -0.8352847
vn 0.3035569 -0.04788601 -0.9516092
vn -0.003100852 0.001766999 -0.9999937
vn 0.03179321 -0.008608003 -0.9994574
vn 0.4212698 -0.2925351 -0.8584608
vn 0.4292968 -0.251902 -0.8673233
vn 0.247731 0.0009110001 -0.9688284
vn -0.002585958 -0.04849998 -0.9988198
vn 0.01884948 -0.04422902 -0.9988436
vn 0.3887777 0.2523191 -0.8861078
vn -0.003306992 -0.205789 -0.9785908
vn 0.02521054 -0.1861441 -0.982199
vn 0.3885279 0.275458 -0.8793002
vn -0.004419281 0.2988319 -0.9542955
vn 0.04450238 0.2624799 -0.9639108
vn -0.00433042 0.6048811 -0.796304
vn 0.03827592 0.6076987 -0.7932448
vn 0.305222 0.741937 -0.5969665
vn 0.4632852 0.5846269 -0.6660167
vn 0.3091891 0.32442 -0.893954
vn 0.3157542 0.156349 -0.9358708
vn 0.3113739 0.09982005 -0.9450303
vn 0.2063975 -0.129954 -0.9698
vn 0.3871169 -0.3554251 -0.8507723
vn 0.3977086 -0.3797738 -0.8352244
vn 0.3330769 0.01578762 -0.9427674
vn 0.2605537 0.4384982 -0.8601343
vn 0.3316284 -0.5697748 -0.7519171
vn 0.3736898 0.06434903 -0.925319
vn -0.510117 0.5478469 -0.6630569
vn -0.09567157 0.9703152 -0.2221158
vn -0.06195834 0.6681242 -0.7414656
vn 0.01669398 0.9343801 -0.3558865
vn 0.05855648 0.9981659 -0.01536229
vn 0.26482 0.964249 0.009710493
vn -0.116735 0.9565609 0.2671405
vn -0.00368837 0.890336 -0.4552891
vn -0.00433042 0.6048811 -0.796304
vn -0.002239564 0.9998047 -0.01963562
vn -0.0002058381 0.9071081 0.4208976
vn 0.03136586 0.9424257 0.3329412
vn -0.03939081 0.6892538 0.7234483
vn -0.3769686 0.7088109 0.5962229
vn 0.002421763 0.6254941 0.7802251
vn -0.04770642 0.2989489 0.9530759
vn -0.3542589 0.4855869 0.7991909
vn -0.1468618 0.2356839 0.9606688
vn -0.08241708 0.106056 0.9909387
vn 0.003948759 0.3007359 0.9536992
vn -0.03522676 -0.210694 0.9769171
vn -0.0643269 0.09067598 0.9938008
vn 0.07574094 -0.132927 0.9882275
vn -0.2270111 -0.3779218 0.897575
vn 0.00516671 -0.20596 0.9785468
vn -0.03196274 -0.07919502 0.9963465
vn -0.2400771 -0.3948789 0.886811
vn -0.254938 -0.07085402 0.9643579
vn -0.2737428 0.30639 0.9116963
vn 0.006045977 -0.04840798 0.9988093
vn -0.0348185 -0.045201 0.9983709
vn -0.353454 0.224351 0.9081503
vn -0.2147769 -0.005968998 0.9766449
vn -0.3666873 -0.2831261 0.8862168
vn 0.005565839 0.001788001 0.999983
vn -0.3641734 -0.3152038 0.87637
vn -0.03543603 0.02335601 0.999099
vn -0.2722483 0.03031 0.9617496
vn 0.004928825 -0.002989 0.9999834
vn -0.01381335 0.06711597 0.9976496
vn -0.3243265 0.3285978 0.8870377
vn -0.3128623 0.293076 0.903451
vn -0.003640997 0.013115 0.9999074
vn 0.005653609 0.007966002 0.9999523
vn -0.01914664 -0.438901 0.8983314
vn 0.006097502 -0.4026999 0.9153118
vn -0.2739666 -0.220168 0.9361989
vn 0.005176875 -0.6620737 0.7494209
vn -0.2841974 -0.259304 0.9230348
vn -0.1879563 -0.7091681 0.6795241
vn -0.0001582583 -0.8864849 0.4627574
vn -0.06687 -0.982191 0.1755827
vn 0.04548617 -0.9989636 0.001704045
vn 0.08441021 0.9542177 -0.2869555
vn 0.305222 0.741937 -0.5969665
vn 0.03827592 0.6076987 -0.7932448
vn -0.008785565 0.9044588 -0.4264707
vn -0.00433042 0.6048811 -0.796304
vn -0.00368837 0.890336 -0.4552891
vn -0.002239564 0.9998047 -0.01963562
vn -0.02483977 0.9994173 -0.02341082
vn -0.1142724 0.9934484 -0.001457823
vn 0.04191871 0.9677866 0.248258
vn -0.0003795126 0.9356319 0.3529769
vn -0.0002058381 0.9071081 0.4208976
vn 0.002421763 0.6254941 0.7802251
vn 0.06233727 0.6653054 0.7439642
vn 0.3224348 0.7302083 0.602355
vn 0.07750369 0.2708349 0.9595007
vn 0.404611 0.435749 0.803998
vn 0.003948759 0.3007359 0.9536992
vn 0.3076333 0.2891428 0.9065089
vn 0.3298733 0.156349 0.9309879
vn 0.00516671 -0.20596 0.9785468
vn 0.05510297 -0.185817 0.981038
vn 0.3256322 0.09981905 0.9402127
vn 0.2210423 -0.129954 0.9665672
vn 0.3999396 -0.355425 0.8448203
vn 0.006045977 -0.04840798 0.9988093
vn 0.0491356 -0.044418 0.997804
vn 0.4102951 -0.379774 0.8291137
vn 0.3876427 0.06434903 0.919561
vn 0.4017824 0.2754572 0.8733237
vn 0.005565839 0.001788001 0.999983
vn 0.06231862 -0.008591 0.9980193
vn 0.4021347 0.252318 0.8801269
vn 0.2623564 0.0009110002 0.9649706
vn 0.4423672 -0.251902 0.8607302
vn 0.004928825 -0.002989 0.9999834
vn 0.07552492 0.03411899 0.99656
vn 0.4342067 -0.2925359 0.8519902
vn 0.3179142 -0.04788499 0.9469095
vn 0.3967818 0.3933141 0.8293782
vn 0.005653609 0.007966002 0.9999523
vn 0.3784306 0.338351 0.8615735
vn 0.0523554 0.09811901 0.9937966
vn 0.04772905 0.057436 0.9972076
vn 0.006097502 -0.4026999 0.9153118
vn 0.2776125 -0.226023 0.9337264
vn 0.05880401 -0.3888698 0.9194142
vn 0.005176875 -0.6620737 0.7494209
vn 0.3680328 -0.3296301 0.8694227
vn 0.2963195 -0.7544688 0.5856377
vn 0.04651957 -0.7195352 0.6928962
vn -0.0001897542 -0.9997206 -0.02363523
vn -0.05122166 -0.9851319 -0.1639863
g wall23_0
f 3/3/3 2/2/2 1/1/1
f 2/2/2 4/4/4 1/1/1
f 5/5/5 4/4/4 2/2/2
f 5/5/5 6/6/6 4/4/4
f 4/4/4 6/6/6 7/7/7
f 8/8/8 4/4/4 7/7/7
f 9/9/9 8/8/8 7/7/7
f 9/9/9 10/10/10 8/8/8
f 8/8/8 10/10/10 11/11/11
f 12/12/12 8/8/8 11/11/11
f 13/13/13 12/12/12 11/11/11
f 13/13/13 14/14/14 12/12/12
f 14/14/14 15/15/15 12/12/12
f 15/15/15 16/16/16 12/12/12
f 17/17/17 16/16/16 15/15/15
f 17/17/17 18/18/18 16/16/16
f 16/16/16 18/18/18 19/19/19
f 20/20/20 16/16/16 19/19/19
f 21/21/21 20/20/20 19/19/19
f 21/21/21 22/22/22 20/20/20
f 20/20/20 22/22/22 23/23/23
f 22/22/22 24/24/24 23/23/23
f 25/25/25 23/23/23 24/24/24
f 25/25/25 26/26/26 23/23/23
f 23/23/23 26/26/26 27/27/27
f 26/26/26 28/28/28 27/27/27
f 29/29/29 27/27/27 28/28/28
f 27/27/27 29/29/29 30/30/30
f 31/31/31 27/27/27 30/30/30
f 30/30/30 32/32/32 31/31/31
f 31/31/31 33/33/33 27/27/27
f 33/33/33 34/34/34 27/27/27
f 27/27/27 34/34/34 23/23/23
f 34/34/34 35/35/35 23/23/23
f 23/23/23 35/35/35 20/20/20
f 35/35/35 36/36/36 20/20/20
f 20/20/20 36/36/36 16/16/16
f 36/36/36 37/37/37 16/16/16
f 16/16/16 37/37/37 12/12/12
f 37/37/37 38/38/38 12/12/12
f 12/12/12 38/38/38 8/8/8
f 38/38/38 39/39/39 8/8/8
f 8/8/8 39/39/39 4/4/4
f 39/39/39 40/40/40 4/4/4
f 4/4/4 40/40/40 1/1/1
f 40/40/40 41/41/41 1/1/1
f 44/44/44 43/43/43 42/42/42
f 44/44/44 45/45/45 43/43/43
f 45/45/45 46/46/46 43/43/43
f 43/43/43 46/46/46 47/47/47
f 48/48/48 46/46/46 45/45/45
f 46/46/46 49/49/49 47/47/47
f 50/50/50 46/46/46 48/48/48
f 51/51/51 49/49/49 46/46/46
f 52/52/52 46/46/46 50/50/50
f 52/52/52 51/51/51 46/46/46
f 53/53/53 52/52/52 50/50/50
f 54/54/54 51/51/51 52/52/52
f 55/55/55 54/54/54 52/52/52
f 56/56/56 52/52/52 53/53/53
f 55/55/55 52/52/52 56/56/56
f 57/57/57 55/55/55 56/56/56
f 58/58/58 55/55/55 57/57/57
f 59/59/59 54/54/54 55/55/55
f 60/60/60 59/59/59 55/55/55
f 61/61/61 55/55/55 58/58/58
f 60/60/60 55/55/55 61/61/61
f 62/62/62 60/60/60 61/61/61
f 63/63/63 60/60/60 62/62/62
f 64/64/64 59/59/59 60/60/60
f 65/65/65 64/64/64 60/60/60
f 66/66/66 60/60/60 63/63/63
f 65/65/65 60/60/60 66/66/66
f 67/67/67 64/64/64 65/65/65
f 68/68/68 67/67/67 65/65/65
f 69/69/69 65/65/65 66/66/66
f 70/70/70 67/67/67 68/68/68
f 71/71/71 70/70/70 68/68/68
f 72/72/72 70/70/70 71/71/71
f 73/73/73 72/72/72 71/71/71
f 73/73/73 71/71/71 74/74/74
f 71/71/71 75/75/75 74/74/74
f 76/76/76 75/75/75 71/71/71
f 76/76/76 71/71/71 77/77/77
f 77/77/77 71/71/71 78/78/78
f 71/71/71 68/68/68 78/78/78
f 78/78/78 68/68/68 79/79/79
f 79/79/79 68/68/68 80/80/80
f 80/80/80 68/68/68 81/81/81
f 68/68/68 65/65/65 81/81/81
f 82/82/82 65/65/65 69/69/69
f 81/81/81 65/65/65 82/82/82
f 83/83/83 82/82/82 69/69/69
f 84/84/84 81/81/81 82/82/82
f 83/83/83 85/85/85 82/82/82
f 84/84/84 82/82/82 85/85/85
f 88/88/88 87/87/87 86/86/86
f 88/88/88 89/89/89 87/87/87
f 89/89/89 90/90/90 87/87/87
f 90/90/90 91/91/91 87/87/87
f 90/90/90 92/92/92 91/91/91
f 89/89/89 88/88/88 93/93/93
f 89/89/89 93/93/93 90/90/90
f 88/88/88 94/94/94 93/93/93
f 93/93/93 95/95/95 90/90/90
f 90/90/90 95/95/95 96/96/96
f 90/90/90 97/97/97 92/92/92
f 97/97/97 90/90/90 96/96/96
f 97/97/97 98/98/98 92/92/92
f 97/97/97 96/96/96 98/98/98
f 98/98/98 99/99/99 92/92/92
f 96/96/96 100/100/100 98/98/98
f 98/98/98 100/100/100 101/101/101
f 102/102/102 99/99/99 98/98/98
f 101/101/101 102/102/102 98/98/98
f 101/101/101 103/103/103 102/102/102
f 104/104/104 103/103/103 101/101/101
f 100/100/100 105/105/105 101/101/101
f 101/101/101 105/105/105 106/106/106
f 104/104/104 101/101/101 107/107/107
f 101/101/101 106/106/106 107/107/107
f 106/106/106 108/108/108 107/107/107
f 109/109/109 108/108/108 106/106/106
f 105/105/105 110/110/110 106/106/106
f 106/106/106 110/110/110 111/111/111
f 109/109/109 106/106/106 112/112/112
f 106/106/106 111/111/111 112/112/112
f 111/111/111 113/113/113 112/112/112
f 114/114/114 113/113/113 111/111/111
f 110/110/110 115/115/115 111/111/111
f 111/111/111 115/115/115 116/116/116
f 117/117/117 114/114/114 111/111/111
f 116/116/116 117/117/117 111/111/111
f 116/116/116 118/118/118 117/117/117
f 119/119/119 118/118/118 116/116/116
f 115/115/115 120/120/120 116/116/116
f 119/119/119 116/116/116 121/121/121
f 116/116/116 120/120/120 122/122/122
f 116/116/116 122/122/122 121/121/121
f 122/122/122 123/123/123 121/121/121
f 120/120/120 124/124/124 122/122/122
f 122/122/122 124/124/124 125/125/125
f 126/126/126 123/123/123 122/122/122
f 126/126/126 122/122/122 125/125/125
f 127/127/127 126/126/126 125/125/125
f 125/125/125 128/128/128 127/127/127
f 124/124/124 129/129/129 125/125/125
f 125/125/125 129/129/129 130/130/130
f 129/129/129 131/131/131 130/130/130
f 132/132/132 128/128/128 125/125/125
f 132/132/132 125/125/125 130/130/130
f 130/130/130 131/131/131 133/133/133
f 134/134/134 132/132/132 130/130/130
f 130/130/130 135/135/135 134/134/134
f 136/136/136 130/130/130 133/133/133
f 135/135/135 130/130/130 137/137/137
f 130/130/130 136/136/136 137/137/137
f 138/138/138 137/137/137 136/136/136
f 141/141/141 140/140/140 139/139/139
f 142/142/142 141/141/141 139/139/139
f 143/143/143 141/141/141 142/142/142
f 144/144/144 143/143/143 142/142/142
f 145/145/145 144/144/144 142/142/142
f 146/146/146 142/142/142 139/139/139
f 146/146/146 145/145/145 142/142/142
f 146/146/146 139/139/139 147/147/147
f 146/146/146 147/147/147 148/148/148
f 145/145/145 146/146/146 149/149/149
f 149/149/149 146/146/146 148/148/148
f 150/150/150 145/145/145 149/149/149
f 151/151/151 150/150/150 149/149/149
f 149/149/149 148/148/148 152/152/152
f 152/152/152 151/151/151 149/149/149
f 148/148/148 153/153/153 152/152/152
f 154/154/154 152/152/152 153/153/153
f 155/155/155 154/154/154 153/153/153
f 156/156/156 151/151/151 152/152/152
f 154/154/154 156/156/156 152/152/152
f 155/155/155 157/157/157 154/154/154
f 154/154/154 157/157/157 158/158/158
f 159/159/159 156/156/156 154/154/154
f 160/160/160 159/159/159 154/154/154
f 154/154/154 158/158/158 161/161/161
f 160/160/160 154/154/154 161/161/161
f 160/160/160 161/161/161 162/162/162
f 160/160/160 162/162/162 163/163/163
f 164/164/164 159/159/159 160/160/160
f 165/165/165 164/164/164 160/160/160
f 160/160/160 163/163/163 166/166/166
f 165/165/165 160/160/160 166/166/166
f 165/165/165 166/166/166 167/167/167
f 165/165/165 167/167/167 168/168/168
f 169/169/169 164/164/164 165/165/165
f 170/170/170 169/169/169 165/165/165
f 165/165/165 168/168/168 171/171/171
f 170/170/170 165/165/165 171/171/171
f 170/170/170 171/171/171 172/172/172
f 170/170/170 172/172/172 173/173/173
f 174/174/174 169/169/169 170/170/170
f 175/175/175 174/174/174 170/170/170
f 170/170/170 173/173/173 176/176/176
f 175/175/175 170/170/170 176/176/176
f 175/175/175 176/176/176 177/177/177
f 175/175/175 177/177/177 178/178/178
f 179/179/179 174/174/174 175/175/175
f 175/175/175 178/178/178 180/180/180
f 181/181/181 179/179/179 175/175/175
f 181/181/181 175/175/175 180/180/180
f 181/181/181 180/180/180 182/182/182
f 183/183/183 179/179/179 181/181/181
f 181/181/181 182/182/182 184/184/184
f 185/185/185 183/183/183 181/181/181
f 185/185/185 181/181/181 184/184/184
f 186/186/186 183/183/183 185/185/185
f 185/185/185 184/184/184 187/187/187
f 185/185/185 187/187/187 188/188/188
f 189/189/189 186/186/186 185/185/185
f 185/185/185 188/188/188 189/189/189
f 188/188/188 190/190/190 189/189/189
f 189/189/189 190/190/190 191/191/191
