g Wrecking_ball_SphereHolder
v -0.09564605 14.23711 0.630862
v -3.489608E-08 14.27963 0.6544043
v -3.489608E-08 14.27825 0.6308727
v -0.09679911 14.23793 0.6543985
v -0.1337966 14.14022 0.6544022
v -0.1321517 14.13978 0.6308715
v -0.08740558 14.04752 0.6308764
v -0.08991821 14.04733 0.654403
v -3.489608E-08 14.01048 0.6544048
v -3.489608E-08 14.01198 0.6308743
v 0.08991814 14.04733 0.654403
v 0.0874055 14.04752 0.6308764
v 0.1321517 14.13978 0.6308715
v 0.1337965 14.14022 0.6544022
v 0.09679904 14.23793 0.6543985
v 0.09564597 14.23711 0.630862
v -3.489608E-08 14.27963 0.6544043
v -3.489608E-08 14.27825 0.6308727
v -3.489608E-08 14.27963 0.6544043
v -0.1891591 14.32662 0.6559458
v -3.489608E-08 14.40767 0.6559428
v -0.09679911 14.23793 0.6543985
v -0.1337966 14.14022 0.6544022
v -0.2622781 14.13863 0.6559421
v -0.1821292 13.957 0.6559452
v -0.08991821 14.04733 0.654403
v -3.489608E-08 13.882 0.6559427
v -3.489608E-08 14.01048 0.6544048
v 0.1821291 13.957 0.6559452
v 0.08991814 14.04733 0.654403
v 0.262278 14.13863 0.6559421
v 0.1337965 14.14022 0.6544022
v 0.189159 14.32662 0.6559458
v 0.09679904 14.23793 0.6543985
v -3.489608E-08 14.40767 0.6559428
v -3.489608E-08 14.27963 0.6544043
v -3.489608E-08 13.8748 0.5576953
v -0.1821292 13.957 0.6559452
v -3.489608E-08 13.882 0.6559427
v -0.1905598 13.95436 0.5577156
v -0.2622781 14.13863 0.6559421
v -0.269855 14.13986 0.5575122
v -0.1891591 14.32662 0.6559458
v -0.1951447 14.3299 0.557124
v -3.489608E-08 14.40767 0.6559428
v -3.489608E-08 14.41316 0.5568702
v 0.1951446 14.3299 0.557124
v 0.189159 14.32662 0.6559458
v 0.262278 14.13863 0.6559421
v 0.2698549 14.13986 0.5575122
v 0.1821291 13.957 0.6559452
v 0.1905597 13.95436 0.5577156
v -3.489608E-08 13.8748 0.5576953
v -3.489608E-08 13.882 0.6559427
v -0.1951447 14.3299 0.557124
v 1.923861E-05 14.56919 0.4222058
v -3.489608E-08 14.41316 0.5568702
v -0.3242567 14.45222 0.4081297
v -0.269855 14.13986 0.5575122
v -0.4005425 14.54101 0.2158632
v -2.444199E-05 14.69246 0.2309419
v -0.4312885 14.56775 0.000120615
v -3.489608E-08 14.74932 0.000120615
v -0.4005425 14.54101 -0.215622
v -0.001390026 14.69377 -0.2231914
v -0.6034881 14.14529 0.000120615
v -0.5614491 14.14214 0.2175132
v -0.4454456 14.14093 0.4084441
v -0.3207763 13.83488 0.4062682
v -0.1905598 13.95436 0.5577156
v -0.3980499 13.74922 0.2143978
v -3.489608E-08 13.71294 0.4230474
v -3.489608E-08 13.8748 0.5576953
v -0.3242567 14.45222 -0.4078885
v -0.4454456 14.14093 -0.4082029
v -0.002244314 14.57251 -0.4131072
v -3.489608E-08 14.41316 -0.556629
v -0.1951447 14.3299 -0.5568828
v -0.269855 14.13986 -0.557271
v -0.1905598 13.95436 -0.5574744
v -0.4291365 13.72349 0.000120615
v -0.5614491 14.14214 -0.217272
v -0.3980499 13.74922 -0.2141565
v -0.3207763 13.83488 -0.406027
v -3.489608E-08 13.8748 -0.557454
v -3.489608E-08 13.71294 -0.4228061
v 0.1905597 13.95436 -0.5574744
v -3.489608E-08 13.59059 -0.2340529
v 0.3207762 13.83488 -0.406027
v 0.2698549 14.13986 -0.557271
v -3.489608E-08 13.54137 0.000120615
v -3.489608E-08 13.59059 0.2342942
v 0.4291365 13.72349 0.000120615
v 0.3980498 13.74922 -0.2141565
v 0.4454455 14.14093 -0.4082029
v 0.3980498 13.74922 0.2143978
v 0.3242567 14.45222 -0.4078885
v 0.1951446 14.3299 -0.5568828
v 0.603488 14.14529 0.000120615
v 0.5614491 14.14214 -0.217272
v -0.002244314 14.57251 -0.4131072
v -3.489608E-08 14.41316 -0.556629
v 0.4005424 14.54101 -0.215622
v -0.001390026 14.69377 -0.2231914
v -3.489608E-08 14.74932 0.000120615
v 0.4312884 14.56775 0.000120615
v 0.4005424 14.54101 0.2158632
v -2.444199E-05 14.69246 0.2309419
v 0.5614491 14.14214 0.2175132
v 0.4454455 14.14093 0.4084441
v 0.3242567 14.45222 0.4081297
v 1.923861E-05 14.56919 0.4222058
v -3.489608E-08 14.41316 0.5568702
v 0.1951446 14.3299 0.557124
v 0.2698549 14.13986 0.5575122
v 0.1905597 13.95436 0.5577156
v 0.3207762 13.83488 0.4062682
v -3.489608E-08 14.27963 -0.6541631
v -0.09564605 14.23711 -0.6306208
v -3.489608E-08 14.27825 -0.6306314
v -0.09679911 14.23793 -0.6541572
v -0.1321517 14.13978 -0.6306302
v -0.1337966 14.14022 -0.654161
v -0.08991821 14.04733 -0.6541618
v -0.08740558 14.04752 -0.6306351
v -3.489608E-08 14.01198 -0.6306331
v -3.489608E-08 14.01048 -0.6541636
v 0.0874055 14.04752 -0.6306351
v 0.08991814 14.04733 -0.6541618
v 0.1337965 14.14022 -0.654161
v 0.1321517 14.13978 -0.6306302
v 0.09564597 14.23711 -0.6306208
v 0.09679904 14.23793 -0.6541572
v -3.489608E-08 14.27963 -0.6541631
v -3.489608E-08 14.27825 -0.6306314
v -3.489608E-08 14.40767 -0.6557016
v -0.09679911 14.23793 -0.6541572
v -3.489608E-08 14.27963 -0.6541631
v -0.1891591 14.32662 -0.6557046
v -0.1337966 14.14022 -0.654161
v -0.2622781 14.13863 -0.6557008
v -0.08991821 14.04733 -0.6541618
v -0.1821292 13.957 -0.655704
v -3.489608E-08 14.01048 -0.6541636
v -3.489608E-08 13.882 -0.6557015
v 0.08991814 14.04733 -0.6541618
v 0.1821291 13.957 -0.655704
v 0.1337965 14.14022 -0.654161
v 0.262278 14.13863 -0.6557008
v 0.189159 14.32662 -0.6557046
v 0.09679904 14.23793 -0.6541572
v -3.489608E-08 14.27963 -0.6541631
v -3.489608E-08 14.40767 -0.6557016
v -0.1821292 13.957 -0.655704
v -3.489608E-08 13.8748 -0.557454
v -3.489608E-08 13.882 -0.6557015
v -0.1905598 13.95436 -0.5574744
v -0.269855 14.13986 -0.557271
v -0.2622781 14.13863 -0.6557008
v -0.1951447 14.3299 -0.5568828
v -0.1891591 14.32662 -0.6557046
v -3.489608E-08 14.40767 -0.6557016
v -3.489608E-08 14.41316 -0.556629
v 0.1951446 14.3299 -0.5568828
v 0.189159 14.32662 -0.6557046
v 0.2698549 14.13986 -0.557271
v 0.262278 14.13863 -0.6557008
v 0.1905597 13.95436 -0.5574744
v 0.1821291 13.957 -0.655704
v -3.489608E-08 13.8748 -0.557454
v -3.489608E-08 13.882 -0.6557015
v -0.08740558 14.04752 0.6308764
v -0.1321517 14.13978 0.6308715
v -3.489608E-08 14.14528 0.6288437
v -3.489608E-08 14.01198 0.6308743
v -0.09564605 14.23711 0.630862
v 0.0874055 14.04752 0.6308764
v -3.489608E-08 14.27825 0.6308727
v 0.1321517 14.13978 0.6308715
v 0.09564597 14.23711 0.630862
v -3.489608E-08 14.14528 -0.6286024
v -0.1321517 14.13978 -0.6306302
v -0.08740558 14.04752 -0.6306351
v -3.489608E-08 14.01198 -0.6306331
v -0.09564605 14.23711 -0.6306208
v 0.0874055 14.04752 -0.6306351
v -3.489608E-08 14.27825 -0.6306314
v 0.1321517 14.13978 -0.6306302
v 0.09564597 14.23711 -0.6306208
vt 0.5456377 0.1674371
vt 0.5351169 0.165053
vt 0.5351169 0.167437
vt 0.5456377 0.1650531
vt 0.5563564 0.165053
vt 0.5563564 0.167437
vt 0.5669312 0.167437
vt 0.5669313 0.165053
vt 0.5767912 0.165053
vt 0.5767912 0.167437
vt 0.5866527 0.165053
vt 0.5866528 0.167437
vt 0.5972256 0.167437
vt 0.5972255 0.165053
vt 0.6079422 0.165053
vt 0.6079422 0.1674371
vt 0.6184419 0.1650532
vt 0.618442 0.167437
vt 0.7315416 0.1586203
vt 0.7207617 0.1753492
vt 0.7315415 0.1753492
vt 0.7207617 0.1586203
vt 0.7098504 0.1586203
vt 0.7098505 0.1753492
vt 0.6982894 0.1753491
vt 0.6982894 0.1586203
vt 0.6856853 0.1753491
vt 0.6856852 0.1586203
vt 0.6738141 0.1753492
vt 0.6738141 0.1586203
vt 0.6624987 0.1753491
vt 0.6624987 0.1586205
vt 0.6520581 0.1753492
vt 0.6520581 0.1586203
vt 0.642583 0.1753492
vt 0.6425829 0.1586203
vt 0.3318765 0.1791295
vt 0.3523154 0.169159
vt 0.3318765 0.169159
vt 0.3523154 0.1791295
vt 0.3728854 0.169159
vt 0.3728854 0.1791295
vt 0.3937541 0.169159
vt 0.3937541 0.1791295
vt 0.4152374 0.1691589
vt 0.4152374 0.1791295
vt 0.4367207 0.1791295
vt 0.4367207 0.1691589
vt 0.4575951 0.1691589
vt 0.4575952 0.1791295
vt 0.4781672 0.1691589
vt 0.4781672 0.1791295
vt 0.4985784 0.1791295
vt 0.4985784 0.169159
vt 0.2605978 0.1586543
vt 0.3035402 0.1788197
vt 0.2779244 0.1586543
vt 0.2605978 0.1788197
vt 0.2260176 0.1586543
vt 0.2605979 0.2026646
vt 0.3035402 0.2026645
vt 0.2605978 0.2291495
vt 0.3035401 0.2291496
vt 0.2605978 0.2550041
vt 0.3035402 0.2550041
vt 0.2260176 0.2291495
vt 0.2260176 0.2026645
vt 0.2260175 0.1788196
vt 0.1923248 0.1788197
vt 0.1923249 0.1586543
vt 0.1923249 0.2026646
vt 0.15772 0.1788197
vt 0.15772 0.1586543
vt 0.2605978 0.27886
vt 0.2260176 0.2788599
vt 0.3035401 0.27886
vt 0.2806546 0.2994157
vt 0.2605978 0.2994157
vt 0.2260177 0.2994157
vt 0.1923248 0.2994157
vt 0.1923249 0.2291495
vt 0.2260176 0.2550041
vt 0.1923248 0.2550041
vt 0.1923249 0.2788599
vt 0.1577201 0.2994157
vt 0.1577201 0.2788599
vt 0.1231169 0.2994157
vt 0.15772 0.2550041
vt 0.1231169 0.27886
vt 0.08946075 0.2994157
vt 0.1577201 0.2291496
vt 0.15772 0.2026646
vt 0.1231169 0.2291496
vt 0.1231169 0.2550041
vt 0.08946075 0.2788601
vt 0.1231169 0.2026646
vt 0.05498178 0.27886
vt 0.05498166 0.2994157
vt 0.08946075 0.2291496
vt 0.08946063 0.2550039
vt 0.01143367 0.27886
vt 0.03755374 0.2994157
vt 0.05498166 0.2550041
vt 0.01143367 0.255004
vt 0.01143367 0.2291495
vt 0.05498166 0.2291496
vt 0.05498178 0.2026646
vt 0.01143373 0.2026646
vt 0.08946075 0.2026647
vt 0.08946075 0.1788196
vt 0.05498178 0.1788197
vt 0.01143367 0.1788197
vt 0.03478445 0.1586544
vt 0.05498178 0.1586544
vt 0.08946075 0.1586543
vt 0.1231169 0.1586543
vt 0.1231169 0.1788196
vt 0.535107 0.1674266
vt 0.5455772 0.1650624
vt 0.5351071 0.1650622
vt 0.5455772 0.1674267
vt 0.5562908 0.1650626
vt 0.5562908 0.167427
vt 0.5668674 0.1674269
vt 0.5668673 0.1650628
vt 0.5767313 0.1650629
vt 0.5767313 0.1674272
vt 0.5865942 0.1650631
vt 0.5865941 0.1674273
vt 0.5971718 0.1674276
vt 0.597172 0.1650632
vt 0.6078984 0.1650633
vt 0.6078983 0.1674277
vt 0.6184518 0.1674279
vt 0.6184518 0.1650635
vt 0.6425766 0.1753428
vt 0.6520531 0.1586268
vt 0.6425766 0.1586268
vt 0.6520531 0.1753428
vt 0.6624951 0.1586268
vt 0.6624953 0.1753428
vt 0.6738124 0.1586268
vt 0.6738123 0.1753427
vt 0.685685 0.1586267
vt 0.685685 0.1753427
vt 0.6982911 0.1586267
vt 0.6982911 0.1753427
vt 0.7098537 0.1586267
vt 0.7098539 0.1753428
vt 0.7207667 0.1753428
vt 0.7207667 0.1586267
vt 0.731548 0.1586267
vt 0.731548 0.1753427
vt 0.4780942 0.1571189
vt 0.4985827 0.1670806
vt 0.4985827 0.1571187
vt 0.4780942 0.1670808
vt 0.4575136 0.1670809
vt 0.4575136 0.1571191
vt 0.4366346 0.1670811
vt 0.4366345 0.1571192
vt 0.4151422 0.1571193
vt 0.4151424 0.1670812
vt 0.3936514 0.1670814
vt 0.3936513 0.1571195
vt 0.3727765 0.1670815
vt 0.3727764 0.1571196
vt 0.352222 0.1670817
vt 0.352222 0.1571199
vt 0.3318723 0.1670819
vt 0.3318722 0.15712
vt 0.8907963 0.1837034
vt 0.898559 0.1767227
vt 0.8863095 0.1711551
vt 0.8812025 0.1837034
vt 0.8988364 0.1661616
vt 0.8743353 0.177004
vt 0.8914109 0.1586205
vt 0.8736535 0.1665864
vt 0.8808298 0.1588331
vt 0.8863094 0.1711552
vt 0.8736535 0.1665864
vt 0.8743353 0.177004
vt 0.8812025 0.1837034
vt 0.8808297 0.1588333
vt 0.8907963 0.1837034
vt 0.8914109 0.1586205
vt 0.898559 0.1767227
vt 0.8988364 0.1661617
vn 0.3156061 -0.3032857 0.8991166
vn 2.113762E-07 -0.1074963 0.9942055
vn 2.08169E-07 -0.439278 0.8983511
vn 0.07814249 -0.07460646 0.9941467
vn 0.1073517 0.003633496 0.9942145
vn 0.4365691 0.01973134 0.8994544
vn 0.2955538 0.3151597 0.9018438
vn 0.07654119 0.0767968 0.9941046
vn 0 0.105125 0.994459
vn -1.210276E-07 0.4355416 0.9001686
vn -0.07654075 0.07679664 0.9941046
vn -0.2955538 0.3151596 0.9018438
vn -0.4365676 0.01973125 0.899455
vn -0.1073514 0.003633489 0.9942146
vn -0.07814208 -0.07460631 0.9941467
vn -0.3156039 -0.3032834 0.8991181
vn 2.113762E-07 -0.1074963 0.9942055
vn 2.08169E-07 -0.439278 0.8983511
vn 2.113762E-07 -0.1074963 0.9942055
vn -0.5575396 0.5528022 0.6193215
vn 0 0.7925127 0.6098554
vn 0.07814249 -0.07460646 0.9941467
vn 0.1073517 0.003633496 0.9942145
vn -0.7755896 -0.01415622 0.6310787
vn -0.5407093 -0.5625546 0.6254325
vn 0.07654119 0.0767968 0.9941046
vn 0 -0.789053 0.6143252
vn 0 0.105125 0.994459
vn 0.5407087 -0.5625536 0.625434
vn -0.07654075 0.07679664 0.9941046
vn 0.7755898 -0.01415618 0.6310787
vn -0.1073514 0.003633489 0.9942146
vn 0.5575399 0.5528021 0.6193216
vn -0.07814208 -0.07460631 0.9941467
vn 0 0.7925127 0.6098554
vn 2.113762E-07 -0.1074963 0.9942055
vn -2.549671E-07 -0.7612014 0.6485155
vn -0.5407093 -0.5625546 0.6254325
vn 0 -0.789053 0.6143252
vn -0.5391261 -0.5376723 0.6482679
vn -0.7755896 -0.01415622 0.6310787
vn -0.7567835 -0.0103235 0.653584
vn -0.5575396 0.5528022 0.6193215
vn -0.544458 0.5311111 0.6492199
vn 0 0.7925127 0.6098554
vn -1.072884E-05 0.7675586 0.6409788
vn 0.5444639 0.5310964 0.649227
vn 0.5575399 0.5528021 0.6193216
vn 0.7755898 -0.01415618 0.6310787
vn 0.7567826 -0.01032429 0.6535853
vn 0.5407087 -0.5625536 0.625434
vn 0.5391263 -0.5376714 0.6482686
vn -2.549671E-07 -0.7612014 0.6485155
vn 0 -0.789053 0.6143252
vn -0.544458 0.5311111 0.6492199
vn 2.989998E-05 0.7852094 0.6192303
vn -1.072884E-05 0.7675586 0.6409788
vn -0.5631829 0.5552872 0.6119486
vn -0.7567835 -0.0103235 0.653584
vn -0.6550512 0.6740133 0.3414878
vn -3.189299E-05 0.9352551 0.3539744
vn -0.7039303 0.7102681 0.001118924
vn 0.0007710994 0.9999986 0.001488341
vn -0.6564019 0.6723163 -0.3422389
vn -0.0004008497 0.935838 -0.3524302
vn -0.999999 0.001437335 4.03031E-07
vn -0.9435914 -0.004365228 0.3310833
vn -0.7942904 -0.005738964 0.6075112
vn -0.5654327 -0.5575958 0.6077604
vn -0.5391261 -0.5376723 0.6482679
vn -0.6586515 -0.6756935 0.331084
vn -1.091181E-07 -0.7840723 0.6206695
vn -2.549671E-07 -0.7612014 0.6485155
vn -0.561552 0.5566514 -0.6122079
vn -0.7942906 -0.005739049 -0.6075109
vn -0.001185564 0.789459 -0.6138022
vn 0.001183644 0.7724916 -0.6350239
vn -0.5408833 0.5363265 -0.6479191
vn -0.7567825 -0.01032428 -0.6535853
vn -0.5391262 -0.5376715 -0.6482686
vn -0.7028538 -0.7113344 5.233272E-07
vn -0.9435918 -0.004365142 -0.3310822
vn -0.6586517 -0.6756936 -0.3310831
vn -0.565433 -0.5575957 -0.6077603
vn 2.428258E-07 -0.7612014 -0.6485156
vn 0 -0.7840724 -0.6206694
vn 0.5391262 -0.5376723 -0.648268
vn 0 -0.9388622 -0.344293
vn 0.5654327 -0.5575958 -0.6077604
vn 0.7567835 -0.01032357 -0.653584
vn 0 -1 0
vn 0 -0.9388622 0.344293
vn 0.7028538 -0.7113344 -2.475956E-07
vn 0.6586515 -0.6756936 -0.3310836
vn 0.7942904 -0.005738975 -0.6075112
vn 0.6586517 -0.6756936 0.3310831
vn 0.559585 0.558569 -0.6122625
vn 0.5399578 0.5378334 -0.6474419
vn 0.999999 0.00143737 2.706065E-07
vn 0.9435917 -0.004365174 -0.3310826
vn -0.001185564 0.789459 -0.6138022
vn 0.001183644 0.7724916 -0.6350239
vn 0.6546674 0.6733273 -0.3435708
vn -0.0004008497 0.935838 -0.3524302
vn 0.0007710994 0.9999986 0.001488341
vn 0.7035094 0.7106859 0.0003339374
vn 0.655042 0.6740242 0.341484
vn -3.189299E-05 0.9352551 0.3539744
vn 0.9435918 -0.004365142 0.3310823
vn 0.7942905 -0.005739059 0.607511
vn 0.5631914 0.5552941 0.6119345
vn 2.989998E-05 0.7852094 0.6192303
vn -1.072884E-05 0.7675586 0.6409788
vn 0.5444639 0.5310964 0.649227
vn 0.7567826 -0.01032429 0.6535853
vn 0.5391263 -0.5376714 0.6482686
vn 0.565433 -0.5575957 0.6077603
vn 0 -0.1074964 -0.9942055
vn 0.3156043 -0.3032832 -0.899118
vn -1.744118E-07 -0.439278 -0.8983513
vn 0.07814257 -0.07460628 -0.9941467
vn 0.4365672 0.01973124 -0.8994552
vn 0.1073512 0.003633487 -0.9942146
vn 0.07654036 0.07679661 -0.9941046
vn 0.2955537 0.3151596 -0.901844
vn 1.210276E-07 0.4355416 -0.9001686
vn 0 0.105125 -0.994459
vn -0.2955534 0.3151596 -0.9018441
vn -0.0765407 0.07679676 -0.9941046
vn -0.1073514 0.003633495 -0.9942146
vn -0.4365682 0.01973133 -0.8994547
vn -0.3156061 -0.3032855 -0.8991166
vn -0.07814266 -0.07460642 -0.9941466
vn 0 -0.1074964 -0.9942055
vn -1.744118E-07 -0.439278 -0.8983513
vn 0 0.7925127 -0.6098554
vn 0.07814257 -0.07460628 -0.9941467
vn 0 -0.1074964 -0.9942055
vn -0.5575394 0.5528022 -0.6193218
vn 0.1073512 0.003633487 -0.9942146
vn -0.7755895 -0.01415623 -0.6310789
vn 0.07654036 0.07679661 -0.9941046
vn -0.5407085 -0.5625537 -0.625434
vn 0 0.105125 -0.994459
vn 0 -0.789053 -0.6143252
vn -0.0765407 0.07679676 -0.9941046
vn 0.5407092 -0.5625546 -0.6254327
vn -0.1073514 0.003633495 -0.9942146
vn 0.7755895 -0.0141563 -0.6310789
vn 0.5575394 0.5528022 -0.6193218
vn -0.07814266 -0.07460642 -0.9941466
vn 0 -0.1074964 -0.9942055
vn 0 0.7925127 -0.6098554
vn -0.5407085 -0.5625537 -0.625434
vn 2.428258E-07 -0.7612014 -0.6485156
vn 0 -0.789053 -0.6143252
vn -0.5391262 -0.5376715 -0.6482686
vn -0.7567825 -0.01032428 -0.6535853
vn -0.7755895 -0.01415623 -0.6310789
vn -0.5408833 0.5363265 -0.6479191
vn -0.5575394 0.5528022 -0.6193218
vn 0 0.7925127 -0.6098554
vn 0.001183644 0.7724916 -0.6350239
vn 0.5399578 0.5378334 -0.6474419
vn 0.5575394 0.5528022 -0.6193218
vn 0.7567835 -0.01032357 -0.653584
vn 0.7755895 -0.0141563 -0.6310789
vn 0.5391262 -0.5376723 -0.648268
vn 0.5407092 -0.5625546 -0.6254327
vn 2.428258E-07 -0.7612014 -0.6485156
vn 0 -0.789053 -0.6143252
vn 0.2955538 0.3151597 0.9018438
vn 0.4365691 0.01973134 0.8994544
vn 0 -0.0003213178 1
vn -1.210276E-07 0.4355416 0.9001686
vn 0.3156061 -0.3032857 0.8991166
vn -0.2955538 0.3151596 0.9018438
vn 2.08169E-07 -0.439278 0.8983511
vn -0.4365676 0.01973125 0.899455
vn -0.3156039 -0.3032834 0.8991181
vn 1.703782E-07 -0.0003213177 -1
vn 0.4365672 0.01973124 -0.8994552
vn 0.2955537 0.3151596 -0.901844
vn 1.210276E-07 0.4355416 -0.9001686
vn 0.3156043 -0.3032832 -0.899118
vn -0.2955534 0.3151596 -0.9018441
vn -1.744118E-07 -0.439278 -0.8983513
vn -0.4365682 0.01973133 -0.8994547
vn -0.3156061 -0.3032855 -0.8991166
g Wrecking_ball_SphereHolder_0
f 3/3/3 2/2/2 1/1/1
f 2/2/2 4/4/4 1/1/1
f 4/4/4 5/5/5 1/1/1
f 5/5/5 6/6/6 1/1/1
f 7/7/7 6/6/6 5/5/5
f 8/8/8 7/7/7 5/5/5
f 8/8/8 9/9/9 7/7/7
f 9/9/9 10/10/10 7/7/7
f 10/10/10 9/9/9 11/11/11
f 12/12/12 10/10/10 11/11/11
f 12/12/12 11/11/11 13/13/13
f 11/11/11 14/14/14 13/13/13
f 13/13/13 14/14/14 15/15/15
f 16/16/16 13/13/13 15/15/15
f 16/16/16 15/15/15 17/17/17
f 18/18/18 16/16/16 17/17/17
f 21/21/21 20/20/20 19/19/19
f 20/20/20 22/22/22 19/19/19
f 22/22/22 20/20/20 23/23/23
f 20/20/20 24/24/24 23/23/23
f 24/24/24 25/25/25 23/23/23
f 25/25/25 26/26/26 23/23/23
f 25/25/25 27/27/27 26/26/26
f 27/27/27 28/28/28 26/26/26
f 28/28/28 27/27/27 29/29/29
f 30/30/30 28/28/28 29/29/29
f 30/30/30 29/29/29 31/31/31
f 32/32/32 30/30/30 31/31/31
f 32/32/32 31/31/31 33/33/33
f 34/34/34 32/32/32 33/33/33
f 34/34/34 33/33/33 35/35/35
f 36/36/36 34/34/34 35/35/35
f 39/39/39 38/38/38 37/37/37
f 38/38/38 40/40/40 37/37/37
f 40/40/40 38/38/38 41/41/41
f 42/42/42 40/40/40 41/41/41
f 42/42/42 41/41/41 43/43/43
f 44/44/44 42/42/42 43/43/43
f 43/43/43 45/45/45 44/44/44
f 45/45/45 46/46/46 44/44/44
f 47/47/47 46/46/46 45/45/45
f 48/48/48 47/47/47 45/45/45
f 48/48/48 49/49/49 47/47/47
f 49/49/49 50/50/50 47/47/47
f 49/49/49 51/51/51 50/50/50
f 51/51/51 52/52/52 50/50/50
f 53/53/53 52/52/52 51/51/51
f 54/54/54 53/53/53 51/51/51
f 57/57/57 56/56/56 55/55/55
f 56/56/56 58/58/58 55/55/55
f 55/55/55 58/58/58 59/59/59
f 58/58/58 56/56/56 60/60/60
f 56/56/56 61/61/61 60/60/60
f 60/60/60 61/61/61 62/62/62
f 61/61/61 63/63/63 62/62/62
f 62/62/62 63/63/63 64/64/64
f 63/63/63 65/65/65 64/64/64
f 60/60/60 62/62/62 66/66/66
f 66/66/66 62/62/62 64/64/64
f 60/60/60 67/67/67 58/58/58
f 67/67/67 60/60/60 66/66/66
f 58/58/58 68/68/68 59/59/59
f 67/67/67 68/68/68 58/58/58
f 68/68/68 69/69/69 59/59/59
f 69/69/69 70/70/70 59/59/59
f 67/67/67 71/71/71 68/68/68
f 71/71/71 69/69/69 68/68/68
f 70/70/70 69/69/69 72/72/72
f 73/73/73 70/70/70 72/72/72
f 64/64/64 65/65/65 74/74/74
f 74/74/74 75/75/75 64/64/64
f 65/65/65 76/76/76 74/74/74
f 76/76/76 77/77/77 74/74/74
f 77/77/77 78/78/78 74/74/74
f 74/74/74 78/78/78 75/75/75
f 78/78/78 79/79/79 75/75/75
f 79/79/79 80/80/80 75/75/75
f 71/71/71 67/67/67 81/81/81
f 67/67/67 66/66/66 81/81/81
f 82/82/82 66/66/66 64/64/64
f 75/75/75 82/82/82 64/64/64
f 66/66/66 82/82/82 83/83/83
f 82/82/82 75/75/75 83/83/83
f 81/81/81 66/66/66 83/83/83
f 80/80/80 84/84/84 75/75/75
f 75/75/75 84/84/84 83/83/83
f 84/84/84 80/80/80 85/85/85
f 86/86/86 84/84/84 85/85/85
f 83/83/83 84/84/84 86/86/86
f 85/85/85 87/87/87 86/86/86
f 81/81/81 83/83/83 88/88/88
f 88/88/88 83/83/83 86/86/86
f 87/87/87 89/89/89 86/86/86
f 86/86/86 89/89/89 88/88/88
f 89/89/89 87/87/87 90/90/90
f 71/71/71 81/81/81 91/91/91
f 91/91/91 81/81/81 88/88/88
f 92/92/92 71/71/71 91/91/91
f 69/69/69 71/71/71 92/92/92
f 72/72/72 69/69/69 92/92/92
f 91/91/91 88/88/88 93/93/93
f 91/91/91 93/93/93 92/92/92
f 89/89/89 94/94/94 88/88/88
f 88/88/88 94/94/94 93/93/93
f 95/95/95 89/89/89 90/90/90
f 94/94/94 89/89/89 95/95/95
f 92/92/92 96/96/96 72/72/72
f 93/93/93 96/96/96 92/92/92
f 97/97/97 95/95/95 90/90/90
f 98/98/98 97/97/97 90/90/90
f 93/93/93 94/94/94 99/99/99
f 93/93/93 99/99/99 96/96/96
f 100/100/100 94/94/94 95/95/95
f 100/100/100 95/95/95 97/97/97
f 94/94/94 100/100/100 99/99/99
f 101/101/101 97/97/97 98/98/98
f 102/102/102 101/101/101 98/98/98
f 97/97/97 101/101/101 103/103/103
f 103/103/103 100/100/100 97/97/97
f 101/101/101 104/104/104 103/103/103
f 103/103/103 104/104/104 105/105/105
f 100/100/100 103/103/103 106/106/106
f 106/106/106 103/103/103 105/105/105
f 99/99/99 100/100/100 106/106/106
f 106/106/106 105/105/105 107/107/107
f 99/99/99 106/106/106 107/107/107
f 105/105/105 108/108/108 107/107/107
f 99/99/99 109/109/109 96/96/96
f 109/109/109 99/99/99 107/107/107
f 109/109/109 110/110/110 96/96/96
f 110/110/110 109/109/109 107/107/107
f 107/107/107 108/108/108 111/111/111
f 111/111/111 110/110/110 107/107/107
f 108/108/108 112/112/112 111/111/111
f 112/112/112 113/113/113 111/111/111
f 113/113/113 114/114/114 111/111/111
f 111/111/111 114/114/114 110/110/110
f 114/114/114 115/115/115 110/110/110
f 115/115/115 116/116/116 110/110/110
f 110/110/110 117/117/117 96/96/96
f 116/116/116 117/117/117 110/110/110
f 96/96/96 117/117/117 72/72/72
f 117/117/117 116/116/116 73/73/73
f 72/72/72 117/117/117 73/73/73
f 120/120/120 119/119/119 118/118/118
f 119/119/119 121/121/121 118/118/118
f 119/119/119 122/122/122 121/121/121
f 122/122/122 123/123/123 121/121/121
f 124/124/124 123/123/123 122/122/122
f 125/125/125 124/124/124 122/122/122
f 125/125/125 126/126/126 124/124/124
f 126/126/126 127/127/127 124/124/124
f 127/127/127 126/126/126 128/128/128
f 129/129/129 127/127/127 128/128/128
f 129/129/129 128/128/128 130/130/130
f 128/128/128 131/131/131 130/130/130
f 130/130/130 131/131/131 132/132/132
f 133/133/133 130/130/130 132/132/132
f 134/134/134 133/133/133 132/132/132
f 135/135/135 134/134/134 132/132/132
f 138/138/138 137/137/137 136/136/136
f 137/137/137 139/139/139 136/136/136
f 137/137/137 140/140/140 139/139/139
f 140/140/140 141/141/141 139/139/139
f 140/140/140 142/142/142 141/141/141
f 142/142/142 143/143/143 141/141/141
f 142/142/142 144/144/144 143/143/143
f 144/144/144 145/145/145 143/143/143
f 145/145/145 144/144/144 146/146/146
f 147/147/147 145/145/145 146/146/146
f 147/147/147 146/146/146 148/148/148
f 149/149/149 147/147/147 148/148/148
f 150/150/150 149/149/149 148/148/148
f 151/151/151 150/150/150 148/148/148
f 150/150/150 151/151/151 152/152/152
f 153/153/153 150/150/150 152/152/152
f 156/156/156 155/155/155 154/154/154
f 155/155/155 157/157/157 154/154/154
f 154/154/154 157/157/157 158/158/158
f 159/159/159 154/154/154 158/158/158
f 159/159/159 158/158/158 160/160/160
f 161/161/161 159/159/159 160/160/160
f 161/161/161 160/160/160 162/162/162
f 160/160/160 163/163/163 162/162/162
f 162/162/162 163/163/163 164/164/164
f 165/165/165 162/162/162 164/164/164
f 164/164/164 166/166/166 165/165/165
f 166/166/166 167/167/167 165/165/165
f 166/166/166 168/168/168 167/167/167
f 168/168/168 169/169/169 167/167/167
f 169/169/169 168/168/168 170/170/170
f 171/171/171 169/169/169 170/170/170
f 174/174/174 173/173/173 172/172/172
f 172/172/172 175/175/175 174/174/174
f 176/176/176 173/173/173 174/174/174
f 174/174/174 175/175/175 177/177/177
f 174/174/174 178/178/178 176/176/176
f 177/177/177 179/179/179 174/174/174
f 180/180/180 178/178/178 174/174/174
f 174/174/174 179/179/179 180/180/180
f 183/183/183 182/182/182 181/181/181
f 181/181/181 184/184/184 183/183/183
f 181/181/181 182/182/182 185/185/185
f 186/186/186 184/184/184 181/181/181
f 185/185/185 187/187/187 181/181/181
f 181/181/181 188/188/188 186/186/186
f 181/181/181 187/187/187 189/189/189
f 189/189/189 188/188/188 181/181/181
